<svg xmlns="http://www.w3.org/2000/svg" xmlns:svg="http://www.w3.org/2000/svg" id="svg3001" width="100%" height="100%" version="1.1" viewBox="0 -256 1792 1792"><script id="useragent-switcher" type="text/javascript">navigator.__defineGetter__(&quot;userAgent&quot;, function() {return &quot;Mozilla/5.0 (Windows NT 10.0; WOW64; rv:56.0) Gecko/20100101 Firefox/56.0&quot;})</script><metadata id="metadata3011"/><g id="g3003" transform="matrix(1,0,0,-1,68.338983,1133.5593)"><path id="path3005" fill="currentColor" d="m 1611,832 q 0,-53 -37,-90 L 923,91 Q 885,53 832,53 778,53 742,91 L 91,742 q -38,36 -38,90 0,53 38,91 l 74,75 q 39,37 91,37 53,0 90,-37 l 486,-486 486,486 q 37,37 90,37 52,0 91,-37 l 75,-75 q 37,-39 37,-91 z"/></g></svg>