<svg xmlns="http://www.w3.org/2000/svg" width="908.84" height="686.86" viewBox="0 0 908.84 686.86"><defs><style>.cls-1{fill:#fff;}</style></defs><title>sh-wordmark</title><g id="Layer_2" data-name="Layer 2"><g id="Layer_2-2" data-name="Layer 2"><path class="cls-1" d="M613.92,355.95a102.89,102.89,0,0,0-31.74,21.35A99,99,0,0,0,561.11,409a97.39,97.39,0,0,0,0,76.68,110,110,0,0,0,9.27,17,109.72,109.72,0,0,0,27.1,27.1,110,110,0,0,0,17,9.27,92.93,92.93,0,0,0,38.2,7.86q5.33,0,5.62-.28V529.25h-5.62a76.28,76.28,0,0,1-32.3-6.73,77.78,77.78,0,0,1-26.12-17.66,81.63,81.63,0,0,1-17.41-26.08,79.19,79.19,0,0,1-6.46-31.4,77.75,77.75,0,0,1,6.74-32,82.74,82.74,0,0,1,44.1-43.74,79.64,79.64,0,0,1,31.46-6.45q5.33,0,5.62.28V348.37q-.28-.28-5.62-.28A94.4,94.4,0,0,0,613.92,355.95Z"/><polygon class="cls-1" points="800.7 350.71 777.67 350.71 716.16 424.02 716.16 350.71 698.46 350.71 698.46 547.05 716.16 547.05 716.16 462.78 786.94 547.05 807.86 547.05 807.86 544.53 722.9 443.4 800.7 350.71"/><path class="cls-1" d="M882.29,438.53,867.76,416.9q-14.81-22.47-14.81-32.3,0-18.26,18.82-18.26,8.43,0,18.26,8.14l-.28.28q1.12,0,12.36-11.28-11.24-14.84-28.37-14.84a39.66,39.66,0,0,0-14,2.53,39.19,39.19,0,0,0-11.88,7.88,32.64,32.64,0,0,0-8.57,11.81,36,36,0,0,0-3.43,15.47q0,18.29,25.56,54L876,460.89q15.73,22.51,16.29,35.45A26.89,26.89,0,0,1,889.46,509a28.38,28.38,0,0,1-3.23,5.49,30,30,0,0,1-4.07,4.36,28.33,28.33,0,0,1-11,6.47,40.76,40.76,0,0,1-12.92,2.25q-17.14,0-30.9-13.76v22.47q17.13,10.4,33.71,10.39A49.08,49.08,0,0,0,880.75,543a42.93,42.93,0,0,0,24.72-24.44A49.45,49.45,0,0,0,908.84,500Q908.84,478.7,882.29,438.53Z"/><path class="cls-1" d="M805.47,56.65c-2.49-1.76-7.77-4.24-15.21-1-22.11,9.56-53.49,70.54-62.58,89-19.68,40-34.83,80.29-42.46,112.44A474.26,474.26,0,0,1,637,310.65l-1.69,1.62-.14.13c-31.34,31.33-47.48,37.11-55.49,36.45-3.56-.29-6.25-2-8.72-5.42-2.36-3.3-7.57-15.19.45-50.29,32-40.44,65.11-94.1,98.77-160.32,1.33-2.61,6.57-13.92,10.81-25.33,6.48-17.42,8.73-28.59,1.08-34.17-2.53-1.84-7.9-4.39-15.54-.92C662.92,74,659.14,76.84,655,81c-20.7,20.55-52.82,76.84-76.38,133.84-10.61,25.66-18.69,49.57-23.66,69.89A381.37,381.37,0,0,1,520.27,323c-34.52,32.75-54.8,35.08-58.34,33.91a19,19,0,0,1-8.26-5.75q9.22-7.91,17.92-16.44c1.91-1.87,3.91-3.79,6-5.81,13.55-12.93,28.92-27.59,34.65-46.13,2.67-8.65,1.74-20.62-6.37-27.88-5.14-4.59-19.57-13-42.57,7.86-12,10.85-20.4,26.93-25.8,49.15-2,7.26-5.82,22.65-5.22,33.53q-8.48,6.76-17.32,12.9l-.74.52c-14,9.77-22.73,13.18-25.91,10.11-6.79-6.54-1.9-24,1.67-36.73,1.18-4.23,2.3-8.22,3-11.73.22-1.1.47-2.28.72-3.5,2.48-11.75,5.56-26.38-3.56-33.72-5.38-4.33-12.89-4.37-22.33-.13-15.92,7.17-27.38,22-36.62,36.93,7.83-15.63,15.76-31,23.46-45.7l.26-.53q5-11.42,10-22.51c23.49-23.84,46.54-51.53,70.54-84.61.56-.77,1.59-2.12,2.89-3.83C471,120,482.49,96.73,478,82.38a16.88,16.88,0,0,0-11.2-11.21c-6-2-11.37.05-14.89,1.75-16.84,8.16-28.25,27.21-37.42,42.51-1.14,1.9-2.24,3.74-3.3,5.47-23.28,37.93-42.18,77.29-61.39,120-11.46,11.49-23,22-34.87,31.82a686.49,686.49,0,0,1-112.64,75.84c-10-18.46-21.65-36.23-33.06-53.69-18.43-28.2-37.5-57.36-48.48-87.79-12.26-33.95-15.87-62.1-10.74-83.67,7.3-30.71,27.89-59.48,56.48-78.95C207,17,257.6,10.33,298.7,27.15c8.67,4.14,30.7,17.88,31.68,33.23.78,12.15-12.57,23.35-23.91,30.61a9,9,0,0,0,9.71,15.17c22.45-14.37,33.28-30.18,32.17-47-.84-12.71-8.41-24.82-22.5-36a111,111,0,0,0-19.69-12.43l-.39-.17C259.1-8.63,201.86-1.33,156.4,29.63c-32.26,22-55.53,54.64-63.86,89.67-6,25-2.15,56.65,11.33,94,11.7,32.41,31.35,62.46,50.35,91.53,11.11,17,22.43,34.31,32.11,52.1q-13.88,6.9-27.77,12.91l-2.17.93c-32.59,14-66.28,28.5-96.69,49.09A231.57,231.57,0,0,0,36.6,437.48a141.57,141.57,0,0,0-21.42,23C8.35,469.79,3.77,479.3,1.54,488.7a59.07,59.07,0,0,0,3.57,37.36l.11.24c8.75,19.52,27.81,33,55.11,38.87a159.33,159.33,0,0,0,33.49,3.39,188.33,188.33,0,0,0,32-2.73C185.28,555.32,226.42,514,230.6,460.66a168,168,0,0,0-6.37-60.35,232.28,232.28,0,0,0-13.7-35.65,704.55,704.55,0,0,0,115.92-78l2.72-2.27c-11.74,22.74-23.71,46.55-34.8,70.54-.59,1.28-4.62,10.44-8.24,19.49-7.73,19.35-7.8,23.08-6.11,27a9.47,9.47,0,0,0,5.68,5.23,12.43,12.43,0,0,0,3.95.66c4.81,0,9.51-3,14.73-9V547h17.7V492.56h46.06V547h17.7V387.4c14.21,3.28,30.75-8.24,38.72-13.8l.72-.51q7.32-5.09,14.43-10.6A37.22,37.22,0,0,0,456.27,374a23.84,23.84,0,0,0,7.47,1.09,36.13,36.13,0,0,0,4-.24L425.16,547h18l7-27.53h54.77L511.68,547h18.26L485.75,369.55c12.91-5.71,28.73-16.27,46.91-33.52q8.23-7.81,16.57-16.88c-.91,15.46,1.43,26.93,7,34.76s13.08,12.16,21.88,12.89c.87.07,1.76.11,2.65.11,17.2,0,38.6-13.35,67-41.7l1.65-1.58c7-6.71,17.62-17,31.24-32.68a153.84,153.84,0,0,0,1,16.55c2.58,21.75,9.9,35.38,21.79,40.5,17.33,7.47,40.14-4.78,69.74-37.45a9,9,0,0,0-13.35-12.09c-32.77,36.19-46,34.41-49.25,33-10.22-4.4-13-32.66-11.66-50.55.7-4.95,1.69-10.29,3-16,26.43-34.38,59.74-85.19,96.65-160.06a203.54,203.54,0,0,0,8.4-19.8C810.77,74.26,813.59,62.41,805.47,56.65Zm-170.6,84c14.19-24.6,24.59-38.25,31.25-45.34a271.15,271.15,0,0,1-12,29.32c-23.84,46.91-45.82,84.14-65.44,113.63A716.9,716.9,0,0,1,634.87,140.68ZM426.59,130.33c1.1-1.78,2.23-3.68,3.41-5.64,7.94-13.25,17.82-29.74,29.81-35.56.47-.23.84-.39,1.13-.5,0,2.41-1.07,10-12.09,28-8.58,14-19.12,27.87-24.79,35.3-1.43,1.88-2.46,3.23-3.14,4.17-10,13.73-19.75,26.51-29.47,38.44C402.38,172.42,413.83,151.11,426.59,130.33ZM212.64,459.25c-3.52,44.93-38.84,79.81-90,88.86-19.32,3.42-41.21,3.22-58.54-.53-21.79-4.72-36.08-14.35-42.49-28.66l-.06-.13a41,41,0,0,1-2.52-25.93c1.67-7.06,5.26-14.4,10.67-21.81a124,124,0,0,1,18.74-20,213.88,213.88,0,0,1,21.31-16.3c29-19.63,61.89-33.78,93.71-47.46l2.19-.94q14.4-6.22,28.82-13.4a213.52,213.52,0,0,1,12.41,32.35A150.31,150.31,0,0,1,212.64,459.25Zm155.5,15.61H322.08V372q3.6-6.14,7.64-13.32c1.56-2.76,3-5.25,4.17-7.33,1.32-2.28,2.67-4.66,4.06-7.12,9.44-16.68,21.19-37.44,37.28-44.69a25.53,25.53,0,0,1,3.11-1.19c.06,4-1.5,11.39-2.24,14.9-.27,1.29-.54,2.54-.77,3.71-.56,2.83-1.59,6.5-2.68,10.38-3.47,12.38-7.85,28.06-4.52,41.09V474.86Zm86.78-158.3.08-.3c4.52-18.68,11.21-31.83,20.43-40.21,4.91-4.45,11.28-8.77,15.55-8.77a4.21,4.21,0,0,1,2.91,1c1.66,1.49,2.21,5.76,1.17,9.13-4.35,14.06-17.91,27-29.87,38.42-2.17,2.07-4.22,4-6.22,6q-3.38,3.32-6.85,6.54C452.88,324.54,453.83,320.47,454.92,316.56Zm-.55,185.27,23.31-92.13,22.75,92.13Zm328-404.9C759.58,143.2,738.23,180,719.11,209.35c7.3-19.3,16.17-39.62,26.11-59.56,20.21-40.55,36.07-62.55,45.2-72A167.7,167.7,0,0,1,782.39,96.92Z"/><path class="cls-1" d="M714.53,597.09,698.6,624.85l2,1,.25.1a1.46,1.46,0,0,1,.18.1l.21.12c.29.17.62.34.95.56l.53.33.54.38c.39.25.74.57,1.16.88a22,22,0,0,1,4.89,5.77,22.88,22.88,0,0,1,2,4.41,22,22,0,0,1,1.07,5.35,24.1,24.1,0,0,1,.05,3q0,.38-.06.76l0,.38-.05.38-.09.78-.14.78-.07.39-.09.39-.18.79-.23.79-.11.4-.14.39-.27.8-.32.79-.08.2,0,.1c.06-.1-.16.31.13-.22l0,.07-.29.58-.44.88-.1.23,0,.12-.09.16c-.13.22-.25.45-.39.67l-.42.66-.46.64a17.69,17.69,0,0,1-2.17,2.4,18.18,18.18,0,0,1-5.85,3.61,19,19,0,0,1-11.11.72c-.32-.06-.64-.16-1-.25s-.63-.2-1-.3-.63-.23-.95-.36l-.24-.09-.12,0c-.21-.11.22.13.14.09l-.08,0-.67-.33-.45-.22-.28-.13c-.24-.14-.53-.29-.77-.45s-.51-.32-.76-.51-.49-.36-.73-.55a14.77,14.77,0,0,1-2.56-2.71,15.3,15.3,0,0,1-2.78-7.25,15.65,15.65,0,0,1,.07-4,16.35,16.35,0,0,1,.44-2c.09-.34.21-.66.32-1,.05-.17.12-.33.19-.49l.1-.24,0-.12,0-.06s.1-.2-.06.1l.53-1.07.07-.15.11-.2c.08-.13.15-.28.24-.41a11.55,11.55,0,0,1,1.13-1.52,10.69,10.69,0,0,1,1.37-1.34,12.32,12.32,0,0,1,1.59-1.12A12.8,12.8,0,0,1,691,637a14.51,14.51,0,0,1,2,.36A15.73,15.73,0,0,1,695,638c-.45-.26-.08,0-.16-.1l.08,0,.16.08.32.17.64.33a1.08,1.08,0,0,1,.2.12l.14.09.3.17.08,0,.09.07.18.14.37.28a2.6,2.6,0,0,1,.35.31l.34.32a10.41,10.41,0,0,1,3,6.88,11,11,0,0,1-.52,3.85c-.12.3-.23.61-.35.92l0,.06c0,.06.17-.28.07-.1l-.08.15-.15.29-.31.59c-.15.21-.24.38-.38.6s-.36.48-.56.7a8.75,8.75,0,0,1-6.46,2.89,8.94,8.94,0,0,1-3.55-.72l-.11,0s-.16-.08.07,0l-.06,0-.26-.14-.52-.27-.29-.19a1.89,1.89,0,0,1-.3-.2,6.38,6.38,0,0,1-.65-.54l-.31-.29-.27-.32a7.61,7.61,0,0,1-.94-1.4,7.93,7.93,0,0,1-.57-1.58,7.6,7.6,0,0,1-.06-3.3c.06-.27.14-.53.21-.8l.29-.77s-.07.12,0,0l0-.06.06-.11.12-.22.12-.22,0-.05,0,0,0-.07.17-.28a3.2,3.2,0,0,1,.22-.3,6.09,6.09,0,0,1,1.08-1.06,6.62,6.62,0,0,1,.63-.41l.33-.19.34-.15a6.07,6.07,0,0,1,.7-.26c.24-.07.48-.11.72-.17a6.53,6.53,0,0,1,4.17.71l.09,0,.06,0,.12.08c.08.06.17.1.25.16s.28.22.41.34a5,5,0,1,0-2.63,9.28h.4a5.26,5.26,0,0,0,3.35-1.37,5.83,5.83,0,0,0,1.37-1.95,6.72,6.72,0,0,0,.58-2.68,7,7,0,0,0-2.92-5.76,9,9,0,0,0-7.63-1.28l-.53.16-.52.21a8.91,8.91,0,0,0-2.89,1.91c-.14.15-.29.27-.43.44l-.42.51-.11.13-.09.12-.14.21-.14.21-.07.1,0,.05-.08.14c-.19.35-.39.7-.57,1.07s-.33.75-.46,1.14a11.8,11.8,0,0,0-.57,5.1,11.68,11.68,0,0,0,1.82,5.17l.4.6.45.57a11.71,11.71,0,0,0,1,1.08,6.78,6.78,0,0,0,.6.53l.64.51.48.34.24.17.06,0,.2.11.16.09a14.82,14.82,0,0,0,5.63,1.92,15.33,15.33,0,0,0,6.25-.5,15.68,15.68,0,0,0,5.8-3.15c.44-.36.83-.78,1.24-1.19s.83-1,1.21-1.49l.38-.54.19-.27.1-.14.15-.25.05-.09q.4-.73.8-1.48a19.45,19.45,0,0,0,1.82-6.64,19.68,19.68,0,0,0-.67-7.11,20,20,0,0,0-3.31-6.63l-.6-.74a8.52,8.52,0,0,0-.63-.72l-.67-.69-.34-.34-.18-.17-.21-.17-.85-.69-.43-.34-.39-.29-.59-.41-.3-.21-.15-.1-.07-.05c-.13-.08.19.1-.31-.19a26.72,26.72,0,0,0-3.33-1.68,26,26,0,0,0-3.61-1.17,25.1,25.1,0,0,0-15.36,1.24,25.63,25.63,0,0,0-3.59,1.83,24.45,24.45,0,0,0-3.3,2.4A25.68,25.68,0,0,0,668,634c-.23.26-.43.54-.65.81l-.32.41-.34.48-.34.49-.26.4-.42.63-.58,1c-.16.29-.33.57-.47.87-.3.59-.6,1.18-.86,1.79a30.7,30.7,0,0,0-2.64,11.7,32.11,32.11,0,0,0,3.66,15.79,32.63,32.63,0,0,0,4.77,6.79c.47.51.95,1,1.46,1.49s1,.95,1.55,1.4,1.08.87,1.64,1.31l1,.68.49.33.33.22.62.41.08.05.31.17.21.12.43.24c.57.33,1.14.65,1.73.94s1.17.6,1.78.85,1.2.54,1.82.76a39.33,39.33,0,0,0,7.6,2.11,40.06,40.06,0,0,0,15.57-.41,40.81,40.81,0,0,0,14.05-6.12,41.3,41.3,0,0,0,5.84-4.83l1.3-1.35,1.23-1.41c.4-.48.77-1,1.16-1.45l.29-.37.3-.43.6-.87.54-.8.36-.54.36-.54.57-1,.84-1.48c.26-.5.52-1,.77-1.52l.38-.76.35-.77.68-1.54.6-1.56.29-.78.26-.79.14-.42S753.8,618.19,714.53,597.09Z"/><path id="Flattened" class="cls-1" d="M216.21,597.14A44.84,44.84,0,1,0,261,642,44.84,44.84,0,0,0,216.21,597.14Zm0,11.44c3.77,0,6.83,6.14,6.83,13.72S220,636,216.23,636s-6.83-6.14-6.83-13.72S212.46,608.58,216.23,608.58ZM184,633.05c1-3.63,7.75-4.94,15-2.91s12.41,6.62,11.4,10.25-7.75,4.94-15,2.91S183,636.69,184,633.05Zm26.49,29c-4.35,6.21-10.38,9.49-13.47,7.32s-2.07-9,2.28-15.16,10.38-9.49,13.47-7.32S214.88,655.82,210.54,662Zm1.72-20a4,4,0,1,1,4,4A4,4,0,0,1,212.26,642Zm23.14,27.36c-3.09,2.16-9.12-1.11-13.47-7.32s-5.37-13-2.28-15.16,9.12,1.11,13.47,7.32S238.49,667.18,235.4,669.35Zm1.63-26c-7.3,2-14,.72-15-2.91s4.09-8.22,11.4-10.25,14-.72,15,2.91S244.33,641.28,237,643.3Z"/><path id="Flattened-2" data-name="Flattened" class="cls-1" d="M433.31,640.46a44.81,44.81,0,0,0-89.57,0,3.94,3.94,0,0,0,.8,2.51l21.25,28.11a6.83,6.83,0,0,1,1.38,4.12v7.35a4.25,4.25,0,0,0,4.25,4.25h34.19a4.25,4.25,0,0,0,4.25-4.25V675.2a6.83,6.83,0,0,1,1.38-4.12L432.52,643A3.94,3.94,0,0,0,433.31,640.46Zm-9.07-1.39-.26.34-32.77,42.49a2.88,2.88,0,0,1-.64.65,3.28,3.28,0,0,1-2.06.7,3.17,3.17,0,0,1-2.45-1.08,3,3,0,0,1-.22-.27l-32.77-42.49-.26-.34c-1.55-2.17-1.43-4.91.27-6.13s4.34-.44,5.89,1.73l.23.35,19.24,29.09-18.12-41.49c-.07-.15-.14-.3-.2-.46-1.18-2.94-.56-5.95,1.38-6.73s4.47,1,5.65,3.91c.06.16.12.32.17.47L382.5,661.3l-9.56-48.36c0-.17-.07-.35-.11-.53-.56-3.36.65-6.36,2.71-6.71s4.19,2.09,4.76,5.45c0,.18.05.36.07.54L386.69,657l-1-47c0-.18,0-.37,0-.55,0-3.47,1.27-6.28,2.83-6.28s2.83,2.81,2.83,6.28c0,.19,0,.37,0,.55l-1,47,6.31-45.36c0-.18,0-.36.07-.54.56-3.36,2.69-5.8,4.76-5.45s3.27,3.35,2.71,6.71c0,.18-.07.36-.11.53l-9.56,48.36,15.17-41.48c.05-.16.11-.32.17-.47,1.18-2.94,3.7-4.69,5.65-3.91s2.56,3.79,1.38,6.73c-.06.16-.13.31-.2.46L398.6,664.11,417.84,635l.23-.35c1.55-2.17,4.19-2.94,5.89-1.73S425.79,636.9,424.24,639.07Z"/><path id="FFlattened" class="cls-1" d="M576.26,613.28H575.2a7.39,7.39,0,0,1-4.47-1.5L555.28,600a14.08,14.08,0,0,0-17,0l-16.8,12.75a2.35,2.35,0,0,1-1.42.48,2.85,2.85,0,0,0-2.78,3.48l12.67,55.56a18.69,18.69,0,0,0,18.22,14.54h0a18.69,18.69,0,0,0,18.22-14.54L579,616.76A2.85,2.85,0,0,0,576.26,613.28ZM573.43,622l-10.33,49.2a3.61,3.61,0,0,1-.74,1.54L561.3,674a3.61,3.61,0,0,1-1.76,1.17l-3.33,1a1.34,1.34,0,0,1-1.71-1.45l6.73-53.95a3.61,3.61,0,0,1,3.58-3.16h5.09A3.61,3.61,0,0,1,573.43,622Z"/></g></g></svg>
