<svg xmlns="http://www.w3.org/2000/svg" width="400.6" height="281.94" viewBox="0 0 400.6 281.94"><defs><style>.cls-1{fill:#fff;}</style></defs><title>shell-logo</title><g id="Layer_2" data-name="Layer 2"><g id="Layer_1-2" data-name="Layer 1"><g id="WordMark_Co-Branded" data-name="WordMark Co-Branded"><g id="WordMark"><path class="cls-1" d="M270.6,156.89a45.35,45.35,0,0,0-14,9.41,43.62,43.62,0,0,0-9.29,14,42.93,42.93,0,0,0,0,33.8,48.48,48.48,0,0,0,4.09,7.49,48.36,48.36,0,0,0,11.95,11.95,48.47,48.47,0,0,0,7.49,4.09,41,41,0,0,0,16.84,3.47,10.41,10.41,0,0,0,2.48-.13v-7.67h-2.48a33.62,33.62,0,0,1-14.24-3,34.28,34.28,0,0,1-11.51-7.79A36,36,0,0,1,254.26,211a34.9,34.9,0,0,1-2.85-13.84,34.27,34.27,0,0,1,3-14.09,36.47,36.47,0,0,1,19.44-19.28A35.1,35.1,0,0,1,287.69,161a10.59,10.59,0,0,1,2.48.12v-7.55a10.56,10.56,0,0,0-2.48-.12A41.61,41.61,0,0,0,270.6,156.89Z"/><polygon class="cls-1" points="352.93 154.59 342.78 154.59 315.67 186.9 315.67 154.59 307.87 154.59 307.87 241.13 315.67 241.13 315.67 203.98 346.87 241.13 356.09 241.13 356.09 240.02 318.64 195.44 352.93 154.59"/><path class="cls-1" d="M388.89,193.29l-6.4-9.53q-6.53-9.9-6.53-14.24,0-8,8.3-8,3.71,0,8,3.59l-.12.12q.49,0,5.45-5-5-6.54-12.5-6.54a17.48,17.48,0,0,0-6.19,1.12,17.27,17.27,0,0,0-5.24,3.47,14.39,14.39,0,0,0-3.78,5.21,15.88,15.88,0,0,0-1.51,6.82q0,8.06,11.27,23.81l6.44,9.05q6.93,9.92,7.18,15.62a11.85,11.85,0,0,1-1.24,5.58,12.51,12.51,0,0,1-1.42,2.42,13.21,13.21,0,0,1-1.8,1.92,12.49,12.49,0,0,1-4.83,2.85,18,18,0,0,1-5.69,1q-7.55,0-13.62-6.07v9.9A28.53,28.53,0,0,0,379.55,241a21.63,21.63,0,0,0,8.67-1.61,18.92,18.92,0,0,0,10.89-10.77,21.8,21.8,0,0,0,1.49-8.17Q400.6,211,388.89,193.29Z"/><path class="cls-1" d="M355,25a6.6,6.6,0,0,0-6.7-.45c-9.75,4.22-23.58,31.09-27.58,39.23C312.07,81.36,305.4,99.14,302,113.31a209,209,0,0,1-21.28,23.62l-.75.72-.06.06c-13.82,13.81-20.93,16.36-24.46,16.07a5,5,0,0,1-3.84-2.39c-1-1.45-3.34-6.69.2-22.17,14.12-17.82,28.7-41.48,43.53-70.67.59-1.15,2.9-6.14,4.77-11.17,2.85-7.68,3.85-12.6.48-15.06a6.53,6.53,0,0,0-6.85-.41,18.22,18.22,0,0,0-5.09,3.79c-9.12,9.06-23.28,33.87-33.67,59a220.11,220.11,0,0,0-10.43,30.81,168.1,168.1,0,0,1-15.27,16.85c-15.22,14.44-24.15,15.46-25.72,14.95a8.38,8.38,0,0,1-3.64-2.54q4.06-3.48,7.9-7.25c.84-.83,1.73-1.67,2.66-2.56,6-5.7,12.75-12.16,15.27-20.33,1.18-3.81.77-9.09-2.81-12.29-2.26-2-8.62-5.74-18.77,3.46-5.27,4.78-9,11.87-11.37,21.67-.89,3.2-2.56,10-2.3,14.78q-3.74,3-7.63,5.69l-.33.23c-6.18,4.31-10,5.81-11.42,4.46-3-2.88-.84-10.57.73-16.19.52-1.86,1-3.62,1.32-5.17.1-.49.21-1,.32-1.54,1.09-5.18,2.45-11.63-1.57-14.86-2.37-1.91-5.68-1.93-9.84-.06-7,3.16-12.07,9.7-16.14,16.28,3.45-6.89,6.95-13.64,10.34-20.14l.11-.23q2.22-5,4.41-9.92A322.08,322.08,0,0,0,192,73.48c.25-.34.7-.94,1.28-1.69,14.38-18.87,19.44-29.15,17.48-35.48a7.44,7.44,0,0,0-4.94-4.94,8.61,8.61,0,0,0-6.56.77c-7.42,3.6-12.45,12-16.49,18.74-.5.84-1,1.65-1.46,2.41C171,70,162.67,87.36,154.21,106.2c-5.05,5.06-10.15,9.71-15.37,14a302.59,302.59,0,0,1-49.65,33.43c-4.42-8.14-9.54-16-14.57-23.67-8.13-12.43-16.53-25.28-21.37-38.69-5.4-15-7-27.37-4.74-36.88C51.73,40.88,60.8,28.2,73.4,19.62,91.23,7.48,113.54,4.55,131.66,12c3.82,1.82,13.53,7.88,14,14.65.34,5.36-5.54,10.29-10.54,13.49a4,4,0,0,0,4.28,6.69c9.9-6.33,14.67-13.3,14.18-20.71-.37-5.6-3.71-10.94-9.92-15.87a48.93,48.93,0,0,0-8.68-5.48l-.17-.08C114.2-3.8,89-.59,68.94,13.06,54.72,22.74,44.46,37.14,40.79,52.58c-2.63,11-.95,25,5,41.41C50.94,108.28,59.6,121.53,68,134.34c4.9,7.49,9.89,15.12,14.16,23q-6.12,3-12.24,5.69l-1,.41C54.57,169.58,39.71,176,26.31,185a102.07,102.07,0,0,0-10.18,7.79,62.4,62.4,0,0,0-9.44,10.12,35.09,35.09,0,0,0-6,12.46,26,26,0,0,0,1.57,16.47l0,.11c3.86,8.61,12.26,14.53,24.29,17.14a70.23,70.23,0,0,0,14.76,1.49,83,83,0,0,0,14.1-1.2c26.21-4.64,44.34-22.84,46.19-46.36a74.06,74.06,0,0,0-2.81-26.6,102.38,102.38,0,0,0-6-15.72,310.55,310.55,0,0,0,51.1-34.38l1.2-1c-5.18,10-10.45,20.52-15.34,31.09-.26.56-2,4.6-3.63,8.59-3.41,8.53-3.44,10.18-2.69,11.89a4.17,4.17,0,0,0,2.5,2.31,5.48,5.48,0,0,0,1.74.29c2.12,0,4.19-1.33,6.49-4v65.55H142v-24h20.3v24h7.8V170.76c6.26,1.45,13.55-3.63,17.07-6.08l.32-.22q3.23-2.25,6.36-4.67a16.41,16.41,0,0,0,7.3,5.06,10.51,10.51,0,0,0,3.29.48,15.93,15.93,0,0,0,1.78-.11L187.4,241.13h7.92L198.42,229h24.14l3,12.13h8l-19.47-78.23c5.69-2.52,12.66-7.17,20.68-14.78q3.63-3.44,7.31-7.44c-.4,6.82.63,11.87,3.1,15.32a13,13,0,0,0,9.65,5.68c.39,0,.77,0,1.17,0,7.58,0,17-5.88,29.53-18.38l.73-.7c3.06-3,7.77-7.5,13.77-14.41a67.81,67.81,0,0,0,.44,7.3c1.14,9.59,4.37,15.6,9.6,17.85,7.64,3.29,17.69-2.11,30.74-16.51a4,4,0,1,0-5.88-5.33c-14.45,15.95-20.27,15.17-21.71,14.55-4.5-1.94-5.73-14.4-5.14-22.28.31-2.18.75-4.54,1.3-7C321,101.63,335.71,79.24,352,46.23a89.72,89.72,0,0,0,3.7-8.73C357.37,32.73,358.61,27.51,355,25Zm-75.2,37c6.25-10.84,10.84-16.86,13.77-20a119.52,119.52,0,0,1-5.31,12.92A496.92,496.92,0,0,1,259.46,105,316,316,0,0,1,279.84,62ZM188,57.45c.48-.79,1-1.62,1.5-2.49,3.5-5.84,7.85-13.11,13.14-15.67l.5-.22c0,1.06-.47,4.4-5.33,12.35C194.06,57.6,189.41,63.7,186.91,67c-.63.83-1.08,1.42-1.39,1.84-4.39,6.05-8.71,11.68-13,16.94C177.36,76,182.41,66.61,188,57.45Zm-94.3,145c-1.55,19.8-17.12,35.18-39.66,39.17a70.59,70.59,0,0,1-25.8-.23c-9.6-2.08-15.9-6.33-18.73-12.63l0-.06A18.07,18.07,0,0,1,8.4,217.24a27.26,27.26,0,0,1,4.7-9.62,54.63,54.63,0,0,1,8.26-8.82,94.28,94.28,0,0,1,9.39-7.18C43.54,183,58,176.73,72.06,170.7l1-.41q6.35-2.74,12.7-5.91a94.11,94.11,0,0,1,5.47,14.26A66.25,66.25,0,0,1,93.73,202.43Zm68.54,6.88H142V164q1.59-2.71,3.37-5.87c.69-1.21,1.31-2.32,1.84-3.23s1.18-2.05,1.79-3.14c4.16-7.35,9.34-16.5,16.43-19.7a11.25,11.25,0,0,1,1.37-.53,38.59,38.59,0,0,1-1,6.57c-.12.57-.24,1.12-.34,1.63-.25,1.25-.7,2.86-1.18,4.58-1.53,5.45-3.46,12.37-2,18.11v46.91Zm38.25-69.77,0-.13c2-8.23,4.94-14,9-17.72,2.16-2,5-3.87,6.86-3.87a1.86,1.86,0,0,1,1.28.44c.73.66,1,2.54.51,4-1.92,6.2-7.89,11.9-13.17,16.93-1,.91-1.86,1.77-2.74,2.64s-2,1.94-3,2.88C199.62,143,200,141.26,200.52,139.53Zm-.24,81.66,10.28-40.61,10,40.61ZM344.86,42.72A475.87,475.87,0,0,1,317,92.28c3.22-8.51,7.13-17.46,11.51-26.25,8.91-17.87,15.9-27.57,19.92-31.75A73.92,73.92,0,0,1,344.86,42.72Z"/></g><g id="Microsoft_Logo" data-name="Microsoft Logo"><path class="cls-1" d="M223.75,254.19h13.2q0,6.6,0,13.2h-13.2v-13.2Z"/><path class="cls-1" d="M238.3,254.19h13.2q0,6.6,0,13.2H238.3q0-6.6,0-13.2Z"/><path class="cls-1" d="M281.67,259.39a1.75,1.75,0,0,1,1.58.56,1.63,1.63,0,0,1,.2,1.85,1.78,1.78,0,0,1-1.9.8,1.61,1.61,0,0,1-1.33-1.59,1.65,1.65,0,0,1,1.45-1.62Z"/><path class="cls-1" d="M259.78,259.74h4.15q1.94,4.92,3.89,9.84c.33.82.64,1.65,1,2.47,1.66-4.1,3.35-8.19,5-12.3,1.33,0,2.66,0,4,0q0,8.32,0,16.65c-1,0-1.92,0-2.88,0,0-4.1,0-8.19,0-12.29,0-.18,0-.37,0-.55a2.2,2.2,0,0,0-.15.27c-1.65,4.19-3.33,8.37-5,12.57-.68,0-1.37,0-2.05,0-1.7-4.19-3.38-8.39-5.08-12.59l-.14-.25c0,1.79,0,3.59,0,5.38q0,3.73,0,7.45h-2.72q0-8.33,0-16.65Z"/><path class="cls-1" d="M289.52,264.45a7.82,7.82,0,0,1,4.24,0,3.42,3.42,0,0,1,.81.34c0,.91,0,1.82,0,2.73a4.54,4.54,0,0,0-3.26-1,3.35,3.35,0,0,0-2.37,1.32,4.61,4.61,0,0,0-.76,3.31,3.58,3.58,0,0,0,1.15,2.37,3.62,3.62,0,0,0,2.67.8,5.44,5.44,0,0,0,2.56-1.05c0,.86,0,1.72,0,2.59a6.94,6.94,0,0,1-3.9.81,5.79,5.79,0,0,1-3.72-1.55,6,6,0,0,1-1.73-4,7.23,7.23,0,0,1,1.13-4.43,5.74,5.74,0,0,1,3.17-2.24Z"/><path class="cls-1" d="M320.71,264.27a7.55,7.55,0,0,1,4,.41c0,.88,0,1.75,0,2.62a5,5,0,0,0-3-.89,1.54,1.54,0,0,0-1.36.75,1.23,1.23,0,0,0,.41,1.46c.81.54,1.78.77,2.61,1.26a3.76,3.76,0,0,1,1.64,1.56,3.48,3.48,0,0,1-.74,4,5.46,5.46,0,0,1-4,1.21,8.49,8.49,0,0,1-2.9-.67c0-.92,0-1.84,0-2.76a6.24,6.24,0,0,0,2.59,1.12,3.33,3.33,0,0,0,2-.18,1.14,1.14,0,0,0,.34-1.62,3.43,3.43,0,0,0-1.25-.82,12,12,0,0,1-2.46-1.26,3,3,0,0,1-1.07-1.62,3.64,3.64,0,0,1,.39-2.85,4.25,4.25,0,0,1,2.84-1.75Z"/><path class="cls-1" d="M301,264.64a3.22,3.22,0,0,1,2.65-.22c0,1,0,1.9,0,2.86a3,3,0,0,0-1.93-.45,2.37,2.37,0,0,0-1.79,1.43,5.28,5.28,0,0,0-.41,2.44q0,2.85,0,5.71h-2.81q0-6,0-11.93c.94,0,1.88,0,2.82,0,0,.68,0,1.37,0,2a3.66,3.66,0,0,1,1.48-1.87Z"/><path class="cls-1" d="M280.48,264.46c.95,0,1.89,0,2.84,0,0,4,0,8,0,11.93h-2.83q0-6,0-11.93Z"/><path class="cls-1" d="M315.45,267.24a5,5,0,0,0-2.49-2.52,7.58,7.58,0,0,0-4.09-.48,5.7,5.7,0,0,0-3.75,2,6.36,6.36,0,0,0-1.32,3.65,6.85,6.85,0,0,0,1,4.46,5.41,5.41,0,0,0,3.3,2.15,8.2,8.2,0,0,0,3.34,0,5.53,5.53,0,0,0,3.28-2A6.33,6.33,0,0,0,316,271,7.83,7.83,0,0,0,315.45,267.24Zm-2.76,5.48a2.61,2.61,0,0,1-1.4,1.38,3.85,3.85,0,0,1-2.33.1,2.85,2.85,0,0,1-1.79-1.48,5.51,5.51,0,0,1-.43-3,3.79,3.79,0,0,1,1.1-2.49,3,3,0,0,1,1.88-.74,3.07,3.07,0,0,1,2.39.81,3.85,3.85,0,0,1,1,2.49A6.25,6.25,0,0,1,312.69,272.72Z"/><path class="cls-1" d="M338.32,267.59a5.09,5.09,0,0,0-2.45-2.78,7.4,7.4,0,0,0-4.24-.58,5.91,5.91,0,0,0-3.15,1.35,5.85,5.85,0,0,0-1.88,3.66,7.9,7.9,0,0,0,.45,4.15,5.29,5.29,0,0,0,2.9,2.81,7.68,7.68,0,0,0,4,.34,5.58,5.58,0,0,0,3.51-2.05,6.53,6.53,0,0,0,1.29-4.06A7.61,7.61,0,0,0,338.32,267.59Zm-2.58,4a3.72,3.72,0,0,1-.74,1.75,2.67,2.67,0,0,1-1.67.9,3.77,3.77,0,0,1-2-.22,2.89,2.89,0,0,1-1.51-1.58,5.67,5.67,0,0,1-.34-2.6,4.13,4.13,0,0,1,.87-2.38,2.92,2.92,0,0,1,2.08-1,3.13,3.13,0,0,1,2.29.67,3.27,3.27,0,0,1,1,1.9A7.25,7.25,0,0,1,335.74,271.64Z"/><path class="cls-1" d="M353.7,266.78v-2.32c-.94,0-1.88,0-2.83,0,0-1.19,0-2.38,0-3.57-.94.28-1.88.59-2.83.86,0,.9,0,1.81,0,2.71h-4.18a18,18,0,0,1,.05-2.14,1.67,1.67,0,0,1,1-1.33,2.72,2.72,0,0,1,2.1.19c0-.82,0-1.63,0-2.45a5.18,5.18,0,0,0-4.16.49,3.89,3.89,0,0,0-1.61,2.2,12.18,12.18,0,0,0-.2,3c-.66,0-1.32,0-2,0,0,.76,0,1.53,0,2.29.66,0,1.32,0,2,0q0,4.81,0,9.63h2.86q0-4.82,0-9.63H348c0,2,0,4.09,0,6.14a4.26,4.26,0,0,0,.81,2.72,3.17,3.17,0,0,0,2.25,1,5.58,5.58,0,0,0,2.61-.4v-2.34a2.13,2.13,0,0,1-2.17.2,1.44,1.44,0,0,1-.62-1.14c-.09-.74,0-1.48,0-2.22,0-1.33,0-2.67,0-4C351.81,266.77,352.76,266.74,353.7,266.78Z"/><path class="cls-1" d="M223.75,268.74h13.2q0,6.6,0,13.2h-13.2v-13.2Z"/><path class="cls-1" d="M238.3,268.74h13.2v13.2H238.3q0-6.6,0-13.2Z"/></g><path class="cls-1" d="M50.73,275.67a5.54,5.54,0,0,1-2.22-2.1,6.21,6.21,0,0,1,0-6.09,5.59,5.59,0,0,1,2.21-2.09,6.74,6.74,0,0,1,3.22-.75,6.22,6.22,0,0,1,3,.69,4.48,4.48,0,0,1,1.93,2l-2.07,1.21a3.29,3.29,0,0,0-1.24-1.2,3.61,3.61,0,0,0-4.13.58,4,4,0,0,0,0,5.24,3.63,3.63,0,0,0,4.14.58,3.28,3.28,0,0,0,1.24-1.2l2.07,1.21a4.66,4.66,0,0,1-2,2,6.07,6.07,0,0,1-3,.7A6.75,6.75,0,0,1,50.73,275.67Z"/><path class="cls-1" d="M63,275.67a5.5,5.5,0,0,1-2.19-2.1,6.28,6.28,0,0,1,0-6.09A5.53,5.53,0,0,1,63,265.39a7,7,0,0,1,6.31,0,5.53,5.53,0,0,1,2.19,2.09,6.28,6.28,0,0,1,0,6.09,5.5,5.5,0,0,1-2.19,2.1,7,7,0,0,1-6.31,0Zm5.6-2.54a4,4,0,0,0,0-5.22,3.29,3.29,0,0,0-2.46-1,3.26,3.26,0,0,0-2.45,1,4,4,0,0,0,0,5.22,3.25,3.25,0,0,0,2.45,1A3.29,3.29,0,0,0,68.64,273.13Z"/><path class="cls-1" d="M74.54,269.16h5.93v2.24H74.54Z"/><path class="cls-1" d="M93.44,265.91a5,5,0,0,1,1.31,3.77v6.59H92.07V270a3.23,3.23,0,0,0-.71-2.27,2.63,2.63,0,0,0-2-.77,3.11,3.11,0,0,0-2.35.89,3.57,3.57,0,0,0-.86,2.58v5.82H83.42v-16h2.69v5.82A4.38,4.38,0,0,1,87.77,265a6.06,6.06,0,0,1,2.19-.38A4.81,4.81,0,0,1,93.44,265.91Z"/><path class="cls-1" d="M100.32,275.67a5.5,5.5,0,0,1-2.19-2.1,6.28,6.28,0,0,1,0-6.09,5.53,5.53,0,0,1,2.19-2.09,7,7,0,0,1,6.31,0,5.53,5.53,0,0,1,2.19,2.09,6.28,6.28,0,0,1,0,6.09,5.5,5.5,0,0,1-2.19,2.1,7,7,0,0,1-6.31,0Zm5.6-2.54a4,4,0,0,0,0-5.22,3.29,3.29,0,0,0-2.46-1,3.26,3.26,0,0,0-2.45,1,4,4,0,0,0,0,5.22,3.25,3.25,0,0,0,2.45,1A3.29,3.29,0,0,0,105.92,273.13Z"/><path class="cls-1" d="M113,276.06a6.87,6.87,0,0,1-2.13-.93l1-2a6.68,6.68,0,0,0,1.86.83,7.76,7.76,0,0,0,2.14.31q2.41,0,2.41-1.27a.85.85,0,0,0-.61-.84,10.64,10.64,0,0,0-2-.45,16,16,0,0,1-2.32-.5,3.55,3.55,0,0,1-1.55-1,2.74,2.74,0,0,1-.66-2,3.07,3.07,0,0,1,1.37-2.62,6.23,6.23,0,0,1,3.7-1,10.66,10.66,0,0,1,2.37.27,6.66,6.66,0,0,1,1.94.72l-1,2a6.38,6.38,0,0,0-3.3-.86,3.65,3.65,0,0,0-1.8.36,1.06,1.06,0,0,0-.61.94.94.94,0,0,0,.66.92,10.43,10.43,0,0,0,2,.51,15.75,15.75,0,0,1,2.26.5,3.55,3.55,0,0,1,1.52.95,2.65,2.65,0,0,1,.64,1.9,3,3,0,0,1-1.4,2.59,6.61,6.61,0,0,1-3.81,1A10.31,10.31,0,0,1,113,276.06Z"/><path class="cls-1" d="M130.21,275.65a3.18,3.18,0,0,1-1.15.58,5.21,5.21,0,0,1-1.43.19,4.07,4.07,0,0,1-2.93-1,3.81,3.81,0,0,1-1-2.89V267h-1.9v-2.16h1.9v-2.63h2.69v2.63h3.08V267h-3.08v5.47a1.82,1.82,0,0,0,.41,1.28,1.54,1.54,0,0,0,1.19.44,2.36,2.36,0,0,0,1.51-.47Z"/><path class="cls-1" d="M142.82,271.38h-9a3.13,3.13,0,0,0,1.24,2,4.07,4.07,0,0,0,2.49.74,4.19,4.19,0,0,0,3.13-1.25l1.44,1.66a4.87,4.87,0,0,1-2,1.4,7.78,7.78,0,0,1-6-.28,5.43,5.43,0,0,1-2.23-2.1,5.93,5.93,0,0,1-.79-3,6,6,0,0,1,.77-3,5.44,5.44,0,0,1,2.12-2.1,6.2,6.2,0,0,1,3.06-.75,6,6,0,0,1,3,.74,5.27,5.27,0,0,1,2.07,2.09,6.34,6.34,0,0,1,.74,3.11Q142.86,270.87,142.82,271.38Zm-8-3.83a3.22,3.22,0,0,0-1.09,2h6.53a3.18,3.18,0,0,0-1.06-2,3.22,3.22,0,0,0-2.2-.78A3.25,3.25,0,0,0,134.85,267.56Z"/><path class="cls-1" d="M156.72,260.28v16h-2.59v-1.49a4.15,4.15,0,0,1-1.65,1.23,5.58,5.58,0,0,1-2.17.41,6.07,6.07,0,0,1-3-.73,5.27,5.27,0,0,1-2.08-2.08,6.22,6.22,0,0,1-.75-3.09,6.16,6.16,0,0,1,.75-3.08,5.29,5.29,0,0,1,2.08-2.07,6.07,6.07,0,0,1,3-.73,5.47,5.47,0,0,1,2.09.39,4.21,4.21,0,0,1,1.62,1.16v-5.91Zm-4.33,13.39a3.19,3.19,0,0,0,1.23-1.26,4.2,4.2,0,0,0,0-3.79,3.19,3.19,0,0,0-1.23-1.26,3.67,3.67,0,0,0-3.49,0,3.19,3.19,0,0,0-1.23,1.26,4.2,4.2,0,0,0,0,3.79,3.2,3.2,0,0,0,1.23,1.26,3.67,3.67,0,0,0,3.49,0Z"/><path class="cls-1" d="M184.15,264.77l-4.25,11.51h-2.59l-3-7.93-3,7.93h-2.59l-4.22-11.51h2.54l3,8.49,3.17-8.49h2.26l3.1,8.54,3.13-8.54Z"/><path class="cls-1" d="M186.13,262.41a1.59,1.59,0,0,1,0-2.31,1.73,1.73,0,0,1,1.23-.46,1.78,1.78,0,0,1,1.23.44,1.42,1.42,0,0,1,.5,1.11,1.62,1.62,0,0,1-.48,1.2,1.68,1.68,0,0,1-1.24.48A1.73,1.73,0,0,1,186.13,262.41Zm-.13,2.36h2.69v11.51H186Z"/><path class="cls-1" d="M199.15,275.65a3.18,3.18,0,0,1-1.15.58,5.21,5.21,0,0,1-1.43.19,4.07,4.07,0,0,1-2.93-1,3.81,3.81,0,0,1-1-2.89V267h-1.9v-2.16h1.9v-2.63h2.69v2.63h3.08V267h-3.08v5.47a1.82,1.82,0,0,0,.41,1.28,1.54,1.54,0,0,0,1.19.44,2.36,2.36,0,0,0,1.51-.47Z"/><path class="cls-1" d="M211.39,265.91a5,5,0,0,1,1.31,3.77v6.59H210V270a3.23,3.23,0,0,0-.71-2.27,2.63,2.63,0,0,0-2-.77,3.11,3.11,0,0,0-2.35.89,3.57,3.57,0,0,0-.86,2.58v5.82h-2.69v-16h2.69v5.82a4.38,4.38,0,0,1,1.65-1.09,6.06,6.06,0,0,1,2.19-.38A4.81,4.81,0,0,1,211.39,265.91Z"/></g></g></g></svg>