<svg xmlns="http://www.w3.org/2000/svg" width="244" height="275.63" viewBox="0 0 244 275.63"><defs><style>.cls-1{fill:#fff;}</style></defs><title>shell-white</title><g id="Layer_2" data-name="Layer 2"><g id="Layer_1-2" data-name="Layer 1"><path class="cls-1" d="M163.94,0,115,85.24l6.23,3.07.78.32a4.47,4.47,0,0,1,.56.3l.65.38c.89.51,1.9,1,2.9,1.72l1.61,1,1.65,1.18c1.19.76,2.28,1.77,3.57,2.71a67.67,67.67,0,0,1,15,17.73,70.22,70.22,0,0,1,6.05,13.54,67.44,67.44,0,0,1,3.28,16.43,74.07,74.07,0,0,1,.17,9.08c-.06.77-.12,1.55-.18,2.33l-.08,1.18-.16,1.18c-.1.79-.19,1.59-.29,2.38l-.43,2.39-.2,1.21-.28,1.2c-.18.81-.36,1.62-.54,2.43l-.7,2.42-.34,1.23-.42,1.21c-.27.81-.55,1.63-.83,2.45l-1,2.44-.24.62-.12.31c.19-.32-.5.94.4-.68l-.11.22-.88,1.78-1.34,2.69c-.11.23-.21.46-.31.7l-.15.36-.29.5c-.4.68-.77,1.39-1.19,2.07s-.87,1.34-1.29,2-.94,1.3-1.41,2a54.29,54.29,0,0,1-6.65,7.38,55.81,55.81,0,0,1-18,11.1A58.19,58.19,0,0,1,86.48,210c-1-.19-2-.5-2.94-.77s-1.95-.6-2.92-.93-1.94-.7-2.9-1.09l-.73-.29-.36-.14c-.64-.34.67.39.43.27l-.26-.13-2.05-1-1.38-.69q-.42-.2-.86-.38c-.74-.44-1.61-.89-2.38-1.38s-1.58-1-2.32-1.56-1.5-1.12-2.24-1.7a45.35,45.35,0,0,1-7.87-8.34,47,47,0,0,1-8.53-22.26,48.07,48.07,0,0,1,.22-12.4A50.24,50.24,0,0,1,50.76,151c.27-1,.63-2,1-3.05.16-.52.37-1,.57-1.5l.3-.75.15-.38.07-.19c-.1.15.31-.61-.19.29l1.63-3.29.21-.47c.09-.18.24-.41.35-.61.25-.41.46-.85.73-1.25A35.53,35.53,0,0,1,59,135.16a32.87,32.87,0,0,1,4.22-4.11,37.84,37.84,0,0,1,4.89-3.44,39.31,39.31,0,0,1,23.61-5.15,44.53,44.53,0,0,1,6.15,1.09,48.31,48.31,0,0,1,6,2.06c-1.39-.8-.24-.15-.49-.3l.25.13.49.26,1,.52,2,1a3.3,3.3,0,0,1,.6.37l.43.28c.29.19.6.36.91.52l.24.12c.09.05.18.15.27.21l.56.44,1.15.87a8,8,0,0,1,1.09.95l1.06,1a32,32,0,0,1,9.25,21.14A33.69,33.69,0,0,1,121,165c-.37.93-.72,1.87-1.07,2.83l-.07.18c-.08.17.51-.87.21-.32l-.24.45-.47.9-.94,1.8c-.45.64-.73,1.17-1.16,1.85-.59.7-1.09,1.49-1.72,2.16a26.86,26.86,0,0,1-19.83,8.86,27.47,27.47,0,0,1-10.91-2.2l-.33-.12c.11.07-.48-.25.21.15l-.2-.11-.8-.42-1.6-.84-.9-.58a5.81,5.81,0,0,1-.94-.61,19.49,19.49,0,0,1-2-1.65l-.94-.89-.84-1a23.35,23.35,0,0,1-2.87-4.3,24.39,24.39,0,0,1-1.75-4.85,23.34,23.34,0,0,1-.18-10.14c.17-.83.44-1.63.64-2.45l.9-2.36c0-.1-.22.36-.06.08l.09-.17.18-.34.36-.69.36-.68.09-.17.07-.1.14-.21c.18-.28.36-.56.53-.85a9.9,9.9,0,0,1,.69-.91A18.74,18.74,0,0,1,79,144a20.37,20.37,0,0,1,1.94-1.26l1-.57,1.05-.46a18.58,18.58,0,0,1,2.15-.78c.73-.22,1.47-.35,2.21-.52a20.07,20.07,0,0,1,12.8,2.17l.27.14.19.13.38.25c.26.17.51.3.77.51.41.35.87.67,1.26,1A15.4,15.4,0,1,0,95,173.17h1.23a16.14,16.14,0,0,0,10.28-4.2,17.88,17.88,0,0,0,4.21-6,20.63,20.63,0,0,0,1.79-8.21,21.54,21.54,0,0,0-9-17.69,27.5,27.5,0,0,0-23.44-3.94l-1.63.49-1.59.64A27.35,27.35,0,0,0,68,140.13c-.44.45-.88.82-1.32,1.35l-1.3,1.58-.32.4a4,4,0,0,0-.27.36l-.44.63-.44.63-.22.32-.11.16c.09-.17-.24.4-.25.42-.59,1.07-1.2,2.16-1.76,3.28s-1,2.31-1.43,3.51a36.23,36.23,0,0,0-1.74,15.65A35.87,35.87,0,0,0,64,184.3l1.22,1.84,1.39,1.74a36,36,0,0,0,3.05,3.31,20.88,20.88,0,0,0,1.84,1.62c.64.52,1.34,1.09,2,1.56l1.48,1,.74.52.19.13.61.35.49.27a45.52,45.52,0,0,0,17.29,5.88A47.08,47.08,0,0,0,113.44,201a48.13,48.13,0,0,0,17.8-9.66c1.34-1.12,2.54-2.4,3.81-3.64,1.26-1.4,2.56-3,3.73-4.56l1.16-1.67.58-.84.29-.42c-.23.4.47-.79.45-.76l.15-.28q1.24-2.25,2.45-4.55a59.73,59.73,0,0,0,5.58-20.39,60.42,60.42,0,0,0-2.06-21.83,61.3,61.3,0,0,0-10.17-20.36l-1.83-2.28a26.16,26.16,0,0,0-1.92-2.21l-2.07-2.1-1-1c-.18-.17-.34-.34-.54-.52l-.64-.54q-1.28-1.07-2.6-2.13l-1.33-1c-.42-.33-1-.75-1.2-.9L122.24,98l-.91-.63-.45-.32-.23-.16c-.4-.24.59.31-1-.58a82.07,82.07,0,0,0-10.23-5.16A80,80,0,0,0,98.37,87.6,77.07,77.07,0,0,0,51.2,91.41a78.71,78.71,0,0,0-11,5.62,75.12,75.12,0,0,0-10.12,7.38,78.93,78.93,0,0,0-8.9,9c-.7.8-1.33,1.65-2,2.48l-1,1.27-1,1.48-1,1.49-.81,1.22L14,123.29l-1.77,3.1c-.5.88-1,1.75-1.45,2.66-.92,1.8-1.84,3.61-2.63,5.49A94.25,94.25,0,0,0,0,170.47,98.62,98.62,0,0,0,11.3,219a100.21,100.21,0,0,0,14.64,20.84c1.45,1.56,2.92,3.12,4.48,4.59s3.13,2.9,4.75,4.3,3.3,2.67,5,4l3,2.09,1.52,1,1,.67,1.92,1.26.24.16c-.07,0,1.4.79.94.54l.65.38,1.31.75c1.75,1,3.49,2,5.31,2.88s3.59,1.83,5.46,2.61,3.69,1.65,5.59,2.34a120.77,120.77,0,0,0,23.33,6.48,123,123,0,0,0,47.81-1.26,125.31,125.31,0,0,0,43.15-18.78A126.85,126.85,0,0,0,199.34,239l4-4.16,3.77-4.33c1.23-1.46,2.38-3,3.55-4.46l.88-1.13.94-1.32,1.85-2.67,1.66-2.47,1.1-1.66,1.09-1.66,1.75-3,2.58-4.56c.81-1.54,1.58-3.1,2.36-4.65l1.16-2.33,1.06-2.36,2.07-4.73,1.85-4.79.9-2.39.8-2.42c.14-.44.28-.86.42-1.29C233.11,182.57,284.51,64.81,163.94,0Z"/></g></g></svg>