<svg xmlns="http://www.w3.org/2000/svg" width="500" height="263.6" viewBox="0 0 500 263.6"><defs><style>.cls-1{fill:#fff;}</style></defs><title>cisco</title><g id="Layer_2" data-name="Layer 2"><g id="Layer_1-2" data-name="Layer 1"><path class="cls-1" d="M141.4,175.1h21.9V262H141.4ZM340.1,200a38.11,38.11,0,0,0-18.4-4.6c-14.2,0-24,9.9-24,23.2,0,12.9,9.4,23.2,24,23.2a38.54,38.54,0,0,0,18.4-4.6v23.3a69,69,0,0,1-20,3.1c-24.7,0-46.3-17-46.3-45,0-25.9,19.6-45,46.3-45a67.75,67.75,0,0,1,20,3.1Zm-228.8,0a37.67,37.67,0,0,0-18.4-4.6c-14.2,0-24,9.9-24,23.2,0,12.9,9.4,23.2,24,23.2a38.54,38.54,0,0,0,18.4-4.6v23.3a68.36,68.36,0,0,1-20,3.1c-24.6,0-46.3-17-46.3-45,0-25.9,19.6-45,46.3-45a67.75,67.75,0,0,1,20,3.1ZM455,218.5c0,24.9-19.2,45-45.9,45s-45.9-20.1-45.9-45,19.2-45,45.9-45S455,193.7,455,218.5Zm-45.9-22.8a22.85,22.85,0,0,0,0,45.7c13,0,22.7-10.2,22.7-22.9A22.45,22.45,0,0,0,409.1,195.7Zm-162.6-.8c-.3-.1-9.6-2.7-17.1-2.7-8.8,0-13.6,2.9-13.6,7.1,0,5.3,6.4,7.1,10.1,8.3l6,1.9c14.2,4.5,20.7,14.3,20.7,24.9,0,21.8-19.2,29.2-36,29.2a123.57,123.57,0,0,1-23.7-2.4v-20c1.9.5,11.1,3.2,20.7,3.2,10.9,0,15.9-3.2,15.9-8.1,0-4.4-4.3-6.9-9.8-8.7-1.3-.4-3.3-1.1-4.7-1.5-12.2-3.9-22.4-11-22.4-25.4,0-16.2,12.2-27.2,32.4-27.2a91.91,91.91,0,0,1,21.4,2.8v18.6ZM21.8,81.7A10.84,10.84,0,0,0,10.9,70.9,10.84,10.84,0,0,0,0,81.7v22.8a10.9,10.9,0,1,0,21.8,0ZM81.6,51.8a10.9,10.9,0,0,0-21.8,0v52.7a10.9,10.9,0,1,0,21.8,0Zm59.7-41a10.9,10.9,0,0,0-21.8,0V126.2a10.9,10.9,0,0,0,21.8,0Zm59.8,41a10.9,10.9,0,1,0-21.8,0v52.7a10.9,10.9,0,1,0,21.8,0Zm59.8,29.9a10.85,10.85,0,0,0-21.7,0v22.8a10.85,10.85,0,1,0,21.7,0Zm59.8-29.9a10.9,10.9,0,1,0-21.8,0v52.7a10.9,10.9,0,1,0,21.8,0Zm59.8-41a10.9,10.9,0,0,0-21.8,0V126.2a10.9,10.9,0,0,0,21.8,0Zm59.8,41a11,11,0,0,0-21.9,0v52.7a11,11,0,0,0,21.9,0ZM500,81.7a10.9,10.9,0,0,0-21.8,0v22.8a10.9,10.9,0,0,0,21.8,0Z"/></g></g></svg>