<?xml version="1.0" encoding="utf-8"?>
<!-- Generator: Adobe Illustrator 21.0.0, SVG Export Plug-In . SVG Version: 6.00 Build 0)  -->
<svg version="1.1" id="Layer_1" xmlns="http://www.w3.org/2000/svg" xmlns:xlink="http://www.w3.org/1999/xlink" x="0px" y="0px"
	 width="486.3px" height="94.2px" viewBox="0 0 486.3 94.2" style="enable-background:new 0 0 486.3 94.2;" xml:space="preserve">
<style type="text/css">
	.st0{fill:#FFFFFF;}
</style>
<g>
	<path class="st0" d="M38,14.8c-5.7,0-7.4,2.5-7.4,8.1v9.3h15.3l-1.5,15H30.7v45.6H12.3V47.2H0v-15h12.3v-9C12.3,8,18.5,0,35.5,0
		c3.7,0,8,0.3,10.7,0.6v14.1H38z"/>
	<path class="st0" d="M47.2,60.6c0-16.9,8-29.6,24.8-29.6c9.2,0,14.8,4.7,17.4,10.6v-9.3H107v60.6H89.4v-9.2
		C86.9,89.5,81.2,94,72,94c-16.8,0-24.8-12.7-24.8-29.6V60.6z M65.5,64.6c0,9,3.3,15,11.8,15c7.5,0,11.3-5.5,11.3-14.1v-6.1
		c0-8.7-3.8-14.1-11.3-14.1c-8.5,0-11.8,6-11.8,15V64.6z"/>
	<path class="st0" d="M145.2,30.9c7.1,0,13.9,1.5,17.6,4.1l-4.1,13c-2.8-1.4-7.4-2.8-12.2-2.8c-9.9,0-14.3,5.7-14.3,15.5v3.6
		c0,9.8,4.3,15.5,14.3,15.5c4.8,0,9.4-1.4,12.2-2.8l4.1,13c-3.7,2.5-10.4,4.1-17.6,4.1c-21.5,0-31.3-11.6-31.3-30.2v-2.8
		C113.9,42.5,123.7,30.9,145.2,30.9z"/>
	<path class="st0" d="M165.1,64.8v-5.3c0-17.2,9.8-28.5,29.8-28.5c18.8,0,27.1,11.5,27.1,28.2v9.7h-38.6c0.4,8.3,4.1,12,14.3,12
		c6.9,0,14.1-1.4,19.5-3.7l3.3,12.6c-4.8,2.5-14.8,4.5-23.5,4.5C173.8,94.2,165.1,82.6,165.1,64.8z M183.5,56.9h22.1v-1.5
		c0-6.6-2.7-11.8-10.7-11.8C186.7,43.5,183.5,48.7,183.5,56.9z"/>
	<path class="st0" d="M290,64.4C290,81.3,281.8,94,265,94c-9.2,0-15.5-4.6-18.1-10.4v9.2h-17.3v-91L248,0.1v40.5
		c2.7-5.3,8.5-9.7,17.1-9.7c16.8,0,24.9,12.7,24.9,29.6V64.4z M271.6,60.2c0-8.5-3.3-14.9-12.1-14.9c-7.5,0-11.6,5.3-11.6,14v6.4
		c0,8.7,4.1,14,11.6,14c8.8,0,12.1-6.4,12.1-14.9V60.2z"/>
	<path class="st0" d="M296.1,64v-3.1c0-17.4,9.9-30,30.2-30c20.2,0,30.2,12.6,30.2,30V64c0,17.4-9.9,30-30.2,30
		C306,94,296.1,81.4,296.1,64z M338.1,59.7c0-8-3.3-14.4-11.8-14.4c-8.5,0-11.8,6.4-11.8,14.4v5.6c0,8,3.3,14.4,11.8,14.4
		c8.5,0,11.8-6.4,11.8-14.4V59.7z"/>
	<path class="st0" d="M362.5,64v-3.1c0-17.4,9.9-30,30.2-30c20.2,0,30.2,12.6,30.2,30V64c0,17.4-9.9,30-30.2,30
		C372.4,94,362.5,81.4,362.5,64z M404.5,59.7c0-8-3.3-14.4-11.8-14.4s-11.8,6.4-11.8,14.4v5.6c0,8,3.3,14.4,11.8,14.4
		s11.8-6.4,11.8-14.4V59.7z"/>
	<path class="st0" d="M448,61.1l18.1-28.9h19.5l-19,29.9l19.7,30.7h-19.5L448,63.1v29.6h-18.3v-91L448,0.1V61.1z"/>
</g>
</svg>
