<?xml version="1.0" encoding="utf-8"?>
<!-- Generator: Adobe Illustrator 21.0.0, SVG Export Plug-In . SVG Version: 6.00 Build 0)  -->
<svg version="1.1" id="Layer_1" xmlns="http://www.w3.org/2000/svg" xmlns:xlink="http://www.w3.org/1999/xlink" x="0px" y="0px"
	 width="318.1px" height="311px" viewBox="0 0 318.1 311" style="enable-background:new 0 0 318.1 311;" xml:space="preserve">
<style type="text/css">
	.st0{fill:#FFFFFF;}
</style>
<g>
	<g>
		<g>
			<path class="st0" d="M254.8,98.6c0-19.7,0-39.2,0-59c-2,0-3.9,0-6,0c0-13.3,0-26.4,0-39.6c19.5,0,39.1,0,58.7,0
				c0,13,0,26.2,0,39.5c-2.8,0-5.7,0-8.9,0c0,1.2,0,2.1,0,3c0,22.1,0,44.3-0.1,66.4c0,1.2-0.6,2.8-1.4,3.6
				c-7.5,8.1-15.2,16.2-22.9,24.2c-0.6,0.7-1.7,1.1-2.7,1.1c-15.8,0.1-31.5,0.1-47.3,0c-0.8,0-1.8-0.4-2.4-1
				c-7.9-8.2-15.8-16.5-23.6-24.8c-0.7-0.7-1-2.1-1-3.2c-0.1-22.1,0-44.1,0-66.2c0-0.9,0-1.9,0-3.1c-2.9,0-5.7,0-8.7,0
				c0-13.4,0-26.5,0-39.7c19.3,0,38.6,0,58,0c0,13.1,0,26.2,0,39.5c-1.7,0-3.4,0-5.3,0c0,19.8,0,39.3,0,59.1
				C245.9,98.6,250.3,98.6,254.8,98.6z M200.6,36.4c0,1.2,0,2.2,0,3.2c0,22.6,0,45.2,0.1,67.8c0,1.3,0.7,2.9,1.6,3.9
				c6.9,7.4,13.8,14.7,20.8,21.9c0.8,0.8,2.2,1.5,3.4,1.5c14.4,0.1,28.9,0.1,43.3,0c1.2,0,2.6-0.7,3.4-1.5
				c7-7.2,13.8-14.5,20.6-21.7c1.2-1.2,1.7-2.4,1.7-4.1c-0.1-22.7,0-45.4,0-68.1c0-0.9,0-1.8,0-3c3.2,0,6.1,0,9,0
				c0-11.2,0-22.1,0-33.1c-17.6,0-35,0-52.4,0c0,11.1,0,22,0,33.2c2.1,0,4,0,5.9,0c0,22,0,43.7,0,65.4c-6.6,0-13.2,0-19.7,0
				c0-21.8,0-43.5,0-65.6c1.8,0,3.5,0,5.2,0c0-11.2,0-22.1,0-33c-17.3,0-34.4,0-51.5,0c0,11.1,0,22,0,33.2
				C194.9,36.4,197.6,36.4,200.6,36.4z"/>
			<path class="st0" d="M9.9,137.9c0-13,0-26,0-39.1c3,0,5.9,0,9,0c0-19.7,0-39.3,0-59c-2.9,0-5.8,0-8.9,0c0-13.4,0-26.5,0-39.7
				c36.7,0,73.4,0,110.3,0c0,15.9,0,31.8,0,47.9c-14.5,0-28.9,0-43.5,0c0-2.7,0-5.4,0-8.2c-4.7,0-9.1,0-13.7,0c0,4,0,7.9,0,12
				c10,0,19.8,0,29.8,0c0,12.9,0,25.5,0,38.4c-9.9,0-19.7,0-29.8,0c0,3,0,5.6,0,8.6c2.8,0,5.6,0,8.5,0c0,13.2,0,26.1,0,39.1
				C51,137.9,30.5,137.9,9.9,137.9z M79.9,44.7c12.5,0,24.9,0,37.2,0c0-13.9,0-27.7,0-41.5c-34.7,0-69.3,0-103.9,0
				c0,11.1,0,22.1,0,33.3c3.2,0,6.1,0,9.1,0c0,21.9,0,43.5,0,65.5c-3.2,0-6.1,0-9.2,0c0,11,0,21.8,0,32.7c18.5,0,36.8,0,55.1,0
				c0-10.9,0-21.8,0-32.8c-2.9,0-5.6,0-8.3,0c0-5.1,0-10,0-15.1c10,0,19.9,0,29.8,0c0-10.7,0-21.1,0-31.8c-10,0-19.8,0-29.7,0
				c0-6.4,0-12.4,0-18.5c6.7,0,13.2,0,20,0C79.9,39.3,79.9,42,79.9,44.7z"/>
			<path class="st0" d="M185.3,39.6c-2.9,0-5.7,0-8.6,0c0,19.7,0,39.3,0,59.1c2.8,0,5.6,0,8.6,0c0,13.2,0,26.1,0,39.2
				c-20.5,0-40.9,0-61.5,0c0-13,0-26,0-39.1c3,0,5.9,0,8.9,0c0-19.8,0-39.4,0-59.1c-2.9,0-5.8,0-8.9,0c0-13.3,0-26.4,0-39.6
				c20.5,0,40.9,0,61.5,0C185.3,13.1,185.3,26.2,185.3,39.6z M173.5,36.2c3.1,0,5.9,0,8.7,0c0-11.1,0-22.1,0-33
				c-18.6,0-36.9,0-55.3,0c0,11.1,0,22,0,33.2c3.2,0,6.1,0,9,0c0,22,0,43.7,0,65.7c-3.2,0-6.1,0-9,0c0,11,0,21.7,0,32.6
				c18.5,0,36.8,0,55.1,0c0-10.9,0-21.8,0-32.8c-2.9,0-5.6,0-8.5,0C173.5,80,173.5,58.4,173.5,36.2z"/>
			<path class="st0" d="M9.5,169.5c0-1.4,0-2.7,0-4.2c99.3,0,198.6,0,297.9,0c0,1.5,0,2.7,0,4.2C208.1,169.5,108.9,169.5,9.5,169.5z
				"/>
			<path class="st0" d="M203.3,33.7c-3,0-5.8,0-8.8,0c0-9.5,0-18.6,0-27.9c15.3,0,30.5,0,45.9,0c0,9.2,0,18.4,0,27.8
				c-1.7,0.1-3.2,0.2-5.1,0.2c0,1,0,1.8,0,2.7c0,21.1,0,42.2,0,63.4c0,3.4,1.6,5,5,5c5.2,0,10.4,0,15.6,0c3.5,0,5-1.5,5-4.9
				c0-20.2,0-40.4,0-60.5c0-1.7,0-3.4,0-5.5c-1.9,0-3.8,0-5.7,0c0-9.5,0-18.5,0-27.9c15.5,0,30.9,0,46.5,0c0,9.1,0,18.2,0,27.6
				c-2.8,0-5.6,0-8.9,0c0,1.2,0,2.2,0,3.2c0,23,0,45.9,0,68.8c0,1.8-0.4,3.2-1.7,4.6c-6.6,6.8-13.2,13.8-19.8,20.6
				c-0.7,0.7-2.1,1.4-3.2,1.4c-13.4,0.1-26.6,0.1-40,0c-1.1,0-2.5-0.6-3.2-1.4c-6.7-6.9-13.3-13.8-20-20.8c-1.2-1.2-1.7-2.4-1.7-4.1
				c0.1-23.1,0-46,0-69.1C203.3,35.8,203.3,34.9,203.3,33.7z"/>
			<path class="st0" d="M25,104.8c0-24,0-47.4,0-71.1c-3.1,0-6.1,0-9.2,0c0-9.5,0-18.6,0-27.9c32.8,0,65.5,0,98.4,0
				c0,12,0,24,0,36.2c-10.3,0-20.5,0-31,0c0-2.6,0-5.2,0-8c-8.8,0-17.3,0-26,0c0,8,0,15.8,0,23.9c9.9,0,19.7,0,29.6,0
				c0,8.9,0,17.4,0,26.2c-9.8,0-19.6,0-29.6,0c0,7,0,13.7,0,20.7c2.7,0,5.4,0,8.3,0c0,9.3,0,18.2,0,27.4c-16.6,0-33.1,0-49.8,0
				c0-9,0-17.9,0-27.2C18.7,104.8,21.7,104.8,25,104.8z"/>
			<path class="st0" d="M170.7,104.7c2.8,0,5.6,0,8.7,0c0,9.2,0,18.2,0,27.4c-16.4,0-32.9,0-49.6,0c0-9,0-17.9,0-27.2
				c2.9,0,5.6,0,8.6,0c0-23.7,0-47.2,0-71c-2.8,0-5.8,0-8.9,0c0-9.5,0-18.7,0-28c16.6,0,33.2,0,49.8,0c0,9.3,0,18.5,0,27.9
				c-2.9,0-5.7,0-8.7,0"/>
		</g>
	</g>
	<g>
		<path class="st0" d="M9.4,238H0.5v-42.5h8.9V238z"/>
		<path class="st0" d="M45.4,238h-8.3v-19.1c0-2.3-0.1-6.2-5.4-6.2c-3.6,0-6.5,2.5-6.5,7.3v18H17v-31.5h8v4.6H25
			c1.2-1.9,3.5-5.5,9.5-5.5c6.1,0,10.9,3.6,10.9,10.5V238z"/>
		<path class="st0" d="M62.7,238h-8.3v-25.5h-4.6v-6h4.6v-2.6c0-6.5,3.6-9,9.2-9c2.4,0,3.6,0.1,4.2,0.1v6.7h-2.3
			c-2.8,0-2.9,0.9-2.9,3.5v1.2H68v5.9h-5.4L62.7,238L62.7,238z"/>
		<path class="st0" d="M85.9,238.8c-8.5,0-16.1-5.2-16.1-16.6c0-11.4,7.6-16.6,16.1-16.6s16.1,5.2,16.1,16.6
			C102,233.6,94.4,238.8,85.9,238.8z M85.9,212.6c-6.4,0-7.5,5.6-7.5,9.6c0,4.1,1.2,9.6,7.5,9.6c6.4,0,7.5-5.6,7.5-9.6
			C93.5,218.2,92.3,212.6,85.9,212.6z"/>
		<path class="st0" d="M107.7,206.5h8v5.5h0.1c1.7-3.2,3.6-6.3,8.6-6.3c0.5,0,1.1,0.1,1.6,0.1v8.4c-0.7-0.1-1.6-0.1-2.4-0.1
			c-6.5,0-7.6,4.1-7.6,7.5V238h-8.3L107.7,206.5L107.7,206.5z"/>
		<path class="st0" d="M175,238h-8.3v-19.1c0-4.6-2.1-6.2-4.5-6.2c-4.1,0-5.6,2.7-5.6,6.5V238h-8.3v-18.9c0-2.7,0-6.4-5-6.4
			c-3.9,0-5.1,2.7-5.1,6.1V238h-8.3v-31.5h8v4.6h0.1c1.1-2.1,3.4-5.5,9-5.5c4.6,0,6.6,1.7,8.8,5.1c1.1-1.6,3.4-5.1,8.4-5.1
			c6.1,0,10.9,3.6,10.9,10.5L175,238L175,238z"/>
		<path class="st0" d="M209.6,231.8c0,3.7,0.8,4.6,1.8,4.9v1.2h-9c-0.5-1.5-0.6-2-0.7-3.7c-1.9,2-4.6,4.6-10.2,4.6
			c-4.7,0-9.6-2.7-9.6-9.2c0-6.1,3.9-9.3,9.2-10l7.5-1.2c1.3-0.2,2.9-0.7,2.9-2.5c0-3.5-3.3-3.6-5.5-3.6c-4.1,0-4.8,2.6-5.1,4.4h-8
			c0.9-9.6,7.6-11,14.1-11c4.5,0,12.5,1.3,12.5,9.1L209.6,231.8L209.6,231.8z M201.6,222.7c-0.8,0.7-2.2,1.2-5.6,1.7
			c-3.1,0.5-5.6,1.3-5.6,4.7c0,2.9,2.2,3.8,3.8,3.8c3.6,0,7.4-2.4,7.4-6.2L201.6,222.7L201.6,222.7z"/>
		<path class="st0" d="M227.1,206.5h5.1v5.9h-5.1v17.1c0,1.8,0.1,2.6,3.4,2.6c0.5,0,1.2-0.1,1.7-0.1v6.3c-1.3,0.1-2.6,0.1-3.9,0.1
			h-1.1c-7.1,0-8.5-2.7-8.5-6.8v-19.1h-4.2v-6h4.2v-8.5h8.3V206.5z"/>
		<path class="st0" d="M246.1,202.7h-8.3V195h8.3V202.7z M246.1,206.5V238h-8.3v-31.5H246.1z"/>
		<path class="st0" d="M267.4,238.8c-8.5,0-16.1-5.2-16.1-16.6c0-11.4,7.6-16.6,16.1-16.6c8.5,0,16.1,5.2,16.1,16.6
			C283.5,233.6,275.9,238.8,267.4,238.8z M267.4,212.6c-6.4,0-7.5,5.6-7.5,9.6c0,4.1,1.2,9.6,7.5,9.6c6.4,0,7.5-5.6,7.5-9.6
			C275,218.2,273.8,212.6,267.4,212.6z"/>
		<path class="st0" d="M316.1,238h-8.3v-19.1c0-2.3-0.1-6.2-5.4-6.2c-3.6,0-6.5,2.5-6.5,7.3v18h-8.3v-31.5h8v4.6h0.1
			c1.2-1.9,3.5-5.5,9.5-5.5c6.1,0,10.9,3.6,10.9,10.5L316.1,238L316.1,238z"/>
		<path class="st0" d="M21.7,298.1h-8.9v-35H0v-7.5h34.6v7.5H21.7V298.1z"/>
		<path class="st0" d="M59.3,288.9c-2.2,7.5-8.5,10-13.8,10c-8.9,0-15.7-4.2-15.7-17.2c0-3.8,1.3-15.9,15.1-15.9
			c6.2,0,14.8,3,14.8,17.3v1.5H38.1c0.2,2.4,0.7,7.7,7.4,7.7c2.3,0,4.6-1.2,5.3-3.4L59.3,288.9L59.3,288.9z M51.2,279.3
			c-0.5-5.1-3.7-6.6-6.4-6.6c-3.9,0-6,2.5-6.5,6.6H51.2z"/>
		<path class="st0" d="M93.1,286.7c-0.3,3.2-2.8,12.3-14.3,12.3c-11.9,0-14.5-9-14.5-15.7c0-10.2,4.5-17.4,15.1-17.4
			c5,0,13.1,2.2,13.9,12.1h-8.4c-0.3-2-1.6-5.1-5.1-5.1h-0.4c-5.2,0-6.6,5.2-6.6,9.1c0,3.4,0.1,10.2,6.4,10.2c4.2,0,5.6-4.1,5.6-5.5
			L93.1,286.7L93.1,286.7z"/>
		<path class="st0" d="M127.6,298.1h-8.3V279c0-2.3-0.1-6.2-5.4-6.2c-3.6,0-6.5,2.5-6.5,7.3v18.1h-8.3v-42.5h8.3v15.1h0.1
			c1.1-2.6,4.6-4.9,9.1-4.9c6.1,0,10.9,3.6,10.9,10.5V298.1z"/>
		<path class="st0" d="M162,298.1h-8.3V279c0-2.3-0.1-6.2-5.4-6.2c-3.6,0-6.5,2.5-6.5,7.3v18.1h-8.3v-31.5h8v4.6h0.1
			c1.2-1.9,3.5-5.5,9.5-5.5c6.1,0,10.9,3.6,10.9,10.5V298.1z"/>
		<path class="st0" d="M183.2,298.9c-8.5,0-16.1-5.2-16.1-16.6s7.6-16.6,16.1-16.6c8.5,0,16.1,5.2,16.1,16.6
			S191.6,298.9,183.2,298.9z M183.2,272.8c-6.4,0-7.5,5.6-7.5,9.6c0,4.1,1.2,9.6,7.5,9.6s7.5-5.6,7.5-9.6
			C190.7,278.4,189.6,272.8,183.2,272.8z"/>
		<path class="st0" d="M212.8,298.1h-8.3v-42.5h8.3V298.1z"/>
		<path class="st0" d="M233.3,298.9c-8.5,0-16.1-5.2-16.1-16.6s7.6-16.6,16.1-16.6c8.5,0,16.1,5.2,16.1,16.6
			S241.7,298.9,233.3,298.9z M233.3,272.8c-6.4,0-7.5,5.6-7.5,9.6c0,4.1,1.2,9.6,7.5,9.6s7.5-5.6,7.5-9.6
			C240.8,278.4,239.7,272.8,233.3,272.8z"/>
		<path class="st0" d="M284,266.7v29.9c0,5.5-0.4,14.5-15.9,14.5c-6.5,0-13.4-2.8-13.7-9.5h9c0.3,1.6,1,3.2,5.8,3.2
			c4.5,0,6.6-2.2,6.6-7.2v-3.8l-0.1-0.1c-1.3,2.4-3.4,4.7-8.4,4.7c-7.5,0-13.5-5.2-13.5-16.3c0-10.9,6.1-16.2,13.1-16.2
			c5.9,0,8.2,3.4,9.2,5.5h0.1v-4.6h7.9V266.7z M268.8,291.3c5.6,0,7-4.8,7-9.1c0-5.1-2.5-9.2-7.1-9.2c-3.1,0-6.5,2.2-6.5,9.6
			C262.2,286.6,263.9,291.3,268.8,291.3z"/>
		<path class="st0" d="M307.3,297.6c-3.9,11.7-5,13.2-12.2,13.2c-1.2,0-2.6-0.1-3.7-0.1v-6.6c0.3,0.1,0.9,0.1,1.6,0.1
			c3,0,4.6-0.4,5.5-4.7l-11.6-32.8h9.2l6.7,23.2h0.1l6.5-23.2h8.8L307.3,297.6z"/>
	</g>
</g>
</svg>
