<?xml version="1.0" encoding="utf-8"?>
<!-- Generator: Adobe Illustrator 21.0.0, SVG Export Plug-In . SVG Version: 6.00 Build 0)  -->
<svg version="1.1"
	 id="svg4419" xmlns:cc="http://creativecommons.org/ns#" xmlns:dc="http://purl.org/dc/elements/1.1/" xmlns:rdf="http://www.w3.org/1999/02/22-rdf-syntax-ns#" xmlns:svg="http://www.w3.org/2000/svg"
	 xmlns="http://www.w3.org/2000/svg" xmlns:xlink="http://www.w3.org/1999/xlink" x="0px" y="0px" width="596px" height="393px"
	 viewBox="0 0 596 393" style="enable-background:new 0 0 596 393;" xml:space="preserve">
<style type="text/css">
	.st0{fill:#FFFFFF;}
</style>
<g id="g4421">
	<path id="path4423" class="st0" d="M175.6,166.7V263H145V142l63.3,0.1c26.9,0,36,18.9,36,36.2V263h-30.6v-84.6
		c0-7.2-3.7-11.6-12.7-11.6L175.6,166.7L175.6,166.7z M383.9,165.3c-10.5,0-18.6,5.4-22,12.7c-2,4.4-2.7,7.8-2.9,13.1h47.1
		C405.6,178,399.6,165.3,383.9,165.3 M359,211.9c0,15.7,9.7,27.2,27.1,27.2c13.5,0,20.3-3.7,28.1-11.5l18.9,18.1
		c-12.1,12-24.8,19.2-47.2,19.2c-29.3,0-57.4-16-57.4-62.6c0-39.8,24.5-62.4,56.7-62.4c32.6,0,51.5,26.4,51.5,61v11H359
		 M302.7,262.8c-25,0-35.5-17.4-35.5-34.5V109h30.6v33h23.1v24.7h-23.1v59.6c0,7,3.3,10.9,10.6,10.9h12.4v25.5L302.7,262.8
		 M117.7,125.3H86.9V96h30.8V125.3z M117.8,264.2c-23.1-2.2-31-16.2-31-32.4V142h30.9L117.8,264.2L117.8,264.2z M485.4,261.6
		c-23.1-2.2-30.9-16.2-30.9-32.4V91.8h30.9V261.6z M593.4,111.7c-28-136.4-292.8-145-463.4-41.1V82C300.4-5.6,542.2-5.1,564.3,120.5
		c7.4,41.5-16,84.9-57.8,109.8v32.6C556.7,244.4,608.4,184.7,593.4,111.7 M283.1,350.3C165.3,361.2,42.6,344.1,25.4,252
		c-8.4-45.4,12.3-93.5,39.7-123.4v-16c-49.4,43.4-76.2,98.2-60.7,163c19.7,83,125,130.1,285.8,114.5c63.6-6.2,146.9-26.7,204.8-58.4
		v-45.1C442.4,317.8,355.5,343.6,283.1,350.3"/>
	<path id="path4425" class="st0" d="M521.1,100.9c0-1.5-0.9-2-2.9-2h-1.9v4.2c0.3,0,1.7,0.1,1.9,0.1c2,0,2.9-0.7,2.9-2.1V100.9
		L521.1,100.9z M524.1,111.4h-2.3c-0.2,0-0.4-0.1-0.5-0.3l-3.1-5.3c-0.1-0.1-0.3-0.2-0.4-0.2h-1.4v5.2c0,0.3-0.2,0.6-0.6,0.6h-2.1
		c-0.3,0-0.5-0.3-0.5-0.6V97.6c0-0.8,0.3-1.1,0.9-1.2c0.7-0.1,2.7-0.2,3.8-0.2c3.8,0,6.1,1.1,6.1,4.7v0.2c0,2.2-1.1,3.4-2.8,3.9
		l3.2,5.5c0,0.1,0.1,0.3,0.1,0.4C524.6,111.2,524.5,111.4,524.1,111.4 M518.7,93.8c-5.6,0-10.2,4.6-10.2,10.2s4.6,10.2,10.2,10.2
		c5.6,0,10.2-4.6,10.2-10.2C528.9,98.5,524.3,93.8,518.7,93.8 M518.7,116.4c-6.8,0-12.3-5.5-12.3-12.3s5.5-12.3,12.3-12.3
		s12.3,5.5,12.3,12.3C531,110.8,525.5,116.4,518.7,116.4"/>
</g>
</svg>
