<?xml version="1.0" encoding="utf-8"?>
<!-- Generator: Adobe Illustrator 21.0.0, SVG Export Plug-In . SVG Version: 6.00 Build 0)  -->
<svg version="1.1" id="Layer_1" xmlns="http://www.w3.org/2000/svg" xmlns:xlink="http://www.w3.org/1999/xlink" x="0px" y="0px"
	 width="1382.3px" height="385.2px" viewBox="0 0 1382.3 385.2" style="enable-background:new 0 0 1382.3 385.2;"
	 xml:space="preserve">
<style type="text/css">
	.st0{fill:#FFFFFF;}
</style>
<g>
	<path class="st0" d="M0,192.5C-0.2,86,87-0.8,194.1,0C299,0.8,385.3,86.2,385.2,193c-0.1,106.1-86.4,192.2-192.7,192.2
		C86,385.2,0,299.1,0,192.5z M155.2,188.3c-0.1,1-0.6,1.9-1.2,2.7c-5.1,7.2-10.1,14.5-15.2,21.7c-0.4,0.5-0.8,1.2-1.7,1
		c-1.5-1.1-2.3-2.8-3.3-4.3c-10.7-15.6-21.4-31.3-32.2-46.9c-10-14.4-28.9-17.9-43.1-8.3c-14.2,9.6-17.8,28.5-8.3,43.1
		c2.2,3.3,4.5,6.6,6.8,9.9c17.9,26.1,35.8,52.2,53.7,78.3c4.3,6.2,9.8,10.7,17,13c13.2,4.1,27.1-0.4,35.2-11.8
		c9-12.7,17.8-25.5,26.8-38.2c0.9-1.2,1.5-2.7,3-3.6c1.4,1.1,2.2,2.5,3,3.7c8.8,12.5,17.5,25,26.2,37.5c4.2,6.1,9.8,10.3,16.9,12.4
		c13.5,4,27.2-0.8,35.3-12.6c20.2-29.4,40.3-58.8,60.5-88.2c0.8-1.2,1.6-2.4,2.2-3.7c5.6-11.6,4.9-22.8-2.9-33
		c-7.8-10.2-18.4-14-31.1-11.6c-8.4,1.6-14.8,6.3-19.6,13.4c-10.8,15.8-21.6,31.5-32.4,47.3c-0.9,1.3-1.5,2.8-3.4,3.8
		c-5.3-7.5-10.7-15-16.1-22.4c0.5-1.5,1.5-2.7,2.4-4c6.9-9.8,13.9-19.5,20.5-29.4c7-10.5,7.5-21.8,1.3-32.7
		c-6-10.7-15.7-16-27.9-15.7c-10.1,0.2-18.3,4.8-24.3,13c-2.8,3.9-5.6,7.9-8.4,11.9c-1.6-0.9-2.2-2.2-3.1-3.4
		c-2.2-3.1-4.3-6.4-6.7-9.4c-7.8-10.2-21-14.5-33.2-10.9c-19.9,5.8-28.8,28.8-17.6,46.4C141.2,167.9,148.3,178,155.2,188.3z"/>
	<path class="st0" d="M892.1,251.4c1-4.1,2.1-8.2,3.1-12.3c6.4-26.2,12.8-52.3,19.2-78.5c0.4-1.5,0.7-3.1,1.3-4.5
		c2.2-5.4,8.1-8.3,13.7-6.7c5.6,1.7,9.3,7.1,8.1,12.8c-1,5.2-2.5,10.2-3.8,15.3c-8,30.6-16,61.2-24.1,91.8c-0.3,1.2-0.6,2.5-1,3.7
		c-2.5,7.5-9.1,12.2-16.9,12c-7.4-0.2-13.4-4.9-15.4-12.5c-5.4-20.4-10.7-40.8-16.1-61.2c-2.6-10.1-5.3-20.1-7.9-30.2
		c-0.3-1.1-0.6-2.2-1-3.5c-1.9,1.1-1.8,3-2.2,4.5c-5.2,19.7-10.3,39.4-15.5,59.1c-2.6,9.9-5.2,19.9-7.8,29.8
		c-0.1,0.4-0.2,0.8-0.3,1.2c-2.2,7.8-7.8,12.5-15.2,12.7c-8,0.3-14.8-4.4-17.1-12.2c-1.7-5.6-3-11.3-4.4-17
		c-7.7-30.1-15.3-60.2-23-90.3c-0.4-1.7-0.8-3.3-0.8-5c0-5.8,3.9-10.5,9.5-11.5c5.4-0.9,10.7,2.2,12.6,7.4c0.9,2.7,1.5,5.5,2.1,8.3
		c6.5,27.7,13.1,55.5,19.6,83.2c0.3,1.2,0.3,2.6,1.3,3.6c1.1-0.9,1.1-2.2,1.4-3.3c7.4-28.4,14.8-56.8,22.2-85.2
		c2.5-9.4,8.7-14.2,18.3-14.1c8,0.1,13.7,4.5,15.8,12.5c2.4,8.9,4.7,17.9,7,26.9c5.2,19.9,10.3,39.7,15.5,59.6
		c0.3,1.2,0.7,2.4,1.1,3.6C891.5,251.5,891.8,251.5,892.1,251.4z"/>
	<path class="st0" d="M717.2,236.2c-9.7,0-19.4,0-29.1,0c-1,0-2,0-3,0c-3.2,0.1-3.5,0.4-3.1,3.5c1.5,9.7,5.9,17.5,14.4,22.7
		c9.3,5.6,19.2,6.7,29.7,4.1c4.7-1.2,9.2-3.1,13.3-5.7c3.3-2.1,6.7-3.1,9.9-0.5c3.4,2.6,5.5,6.2,5.3,10.7c-0.1,3-2,4.9-4.4,6.4
		c-7.9,5.1-16.5,8.5-25.7,9.9c-9.9,1.5-19.6,0.9-29.2-2.2c-21.3-7-35.8-25.6-37.3-48c-0.8-11.9,0.8-23.4,6.5-34
		c8.3-15.6,21.5-24.3,38.9-26.9c6.3-0.9,12.5-0.8,18.7,0.4c17,3.5,28,13.8,33.4,30.3c2.1,6.6,2.9,13.4,2.7,20.3c-0.2,6-3.1,9-9,9
		C738.6,236.3,727.9,236.2,717.2,236.2C717.2,236.2,717.2,236.2,717.2,236.2z M708.6,218.3C708.6,218.3,708.6,218.3,708.6,218.3
		c7.1,0,14.3,0,21.4,0c1,0,2,0,3,0c1.5,0,2-0.8,1.8-2.2c-1.2-10.3-7-17.7-15.8-20.4c-14.9-4.7-31.3,4.1-35.6,19.1
		c-0.9,3.1-0.7,3.5,2.5,3.5C693.5,218.3,701.1,218.3,708.6,218.3z"/>
	<path class="st0" d="M1211.3,236.2c-10.3,0-20.5,0-30.8,0c-5.1,0-5.3,0.2-4.2,5.4c3.3,15.4,15.1,25.3,31.2,26.2
		c8.7,0.5,16.6-1.8,24.2-6c1.1-0.6,2.2-1.3,3.3-1.9c1.4-0.7,2.9-1.2,4.5-1c3.8,0.3,7.4,4,8.8,8.9c1.1,3.6-0.1,6.8-3.6,9.2
		c-6.4,4.4-13.4,7.5-21,9.3c-14.5,3.4-28.7,2.5-42.1-4.3c-19-9.7-28.3-25.8-29.7-46.7c-0.7-11.4,1.3-22.5,6.9-32.6
		c8.3-15.2,21.3-23.7,38.4-26.3c7.4-1.1,14.8-0.9,22.1,1.2c18,5,27.8,17.4,31.7,35.1c1,4.6,1.3,9.3,1.2,14c-0.1,6.8-2.9,9.6-9.7,9.6
		C1232.2,236.3,1221.8,236.2,1211.3,236.2z M1202.6,218.3c4.3,0,8.6,0,12.8,0c3.7,0,7.4,0,11.1,0c1.9,0,2.5-0.9,2.2-2.7
		c-1.6-10.3-7-17.3-16.2-20.1c-14.8-4.4-30.9,4.4-35.2,19.3c-0.9,3.2-0.8,3.5,2.5,3.5C1187.4,218.3,1195,218.3,1202.6,218.3z"/>
	<path class="st0" d="M1008,272.8c-1.6,0.5-2.3,1.9-3.2,2.9c-15.2,16.4-40.8,14.3-54.5,2.8c-14.6-12.3-14.7-38.8,2.4-50.2
		c7.4-4.9,15.6-7.5,24.2-9.2c8.3-1.6,16.7-1.9,25.1-2.2c1.1,0,2.3,0,3.4-0.1c1.2-0.1,1.6-0.8,1.7-2c0.8-8.3-4.9-16.6-13.1-18.8
		c-7.3-1.9-14.4-1.1-21.5,1.1c-3.3,1-6.3,2.5-9.4,4c-5,2.5-8.7,1.3-11.6-3.5c-0.2-0.4-0.4-0.7-0.6-1.1c-3.4-6.1-2.2-10.2,3.8-13.4
		c7.1-3.7,14.7-6.1,22.7-7.2c6.7-0.9,13.3-1.2,20,0.2c16.9,3.5,29.7,17.1,32.1,34.2c0.5,3.2,0.7,6.5,0.7,9.8c0,17.8,0,35.6,0,53.5
		c0,1.6,0,3.2-0.2,4.7c-0.7,4.1-3.4,6.5-7.6,6.7c-2,0.1-4,0.1-6,0c-4.4-0.2-7-2.8-7.6-7.2C1008.4,276.2,1008.9,274.5,1008,272.8z
		 M997.8,235c-2.9,0.2-5.4,0.2-7.8,0.4c-7.1,0.7-14.2,1.7-20.3,5.7c-9.7,6.2-9.1,19.7,1,25.2c4,2.1,8.3,2.9,12.8,2.2
		c15.2-2.4,24-17.9,23.8-31.2c0-1.7-0.9-2.2-2.4-2.3C1002.3,235,999.8,235,997.8,235z"/>
	<path class="st0" d="M600,230c0-14,0-28,0-41.9c0-4.3,0.3-8.6,1.1-12.8c3.3-15.6,14.2-25.6,30.6-28c2.8-0.4,5.7-0.8,8.5-0.7
		c5.7,0,9.3,3.7,9.4,9.4c0,1.3,0,2.6,0,3.8c-0.2,4.5-2.4,6.7-6.9,7c-2,0.1-4,0.2-5.9,0.7c-11.7,2.6-14.3,12.4-14.1,20.6
		c0.1,1.9,1.3,2.3,2.9,2.3c3.9,0,7.7,0,11.6,0c1.3,0,2.6-0.1,3.8,0.1c1,0.1,2,0.3,2.9,0.7c3.4,1.6,4.6,6.6,3.4,12.8
		c-0.7,3.3-2.9,5.3-6.7,5.4c-4.3,0.2-8.6,0.1-12.8,0.1c-5.1,0-5.1,0-5.1,5.3c0,20,0,39.9,0,59.9c0,1.6,0.1,3.2-0.1,4.7
		c-0.4,3.3-2.6,5.5-5.9,5.7c-3.6,0.2-7.1,0.2-10.7,0c-3.3-0.2-5.4-2.5-5.8-5.8c-0.2-1.3-0.1-2.6-0.1-3.8
		C599.9,260.2,599.9,245.1,600,230z"/>
	<path class="st0" d="M465.1,218.3c0-18,0-35.9,0-53.9c0-1.6,0-3.1,0.2-4.7c0.8-6.2,5.2-10.1,11.3-10c5.9,0.1,10.5,4.3,11.2,10.3
		c0.2,1.6,0.1,3.1,0.1,4.7c0,30.5,0,61,0,91.5c0,1.1,0,2.3,0,3.4c0.1,3.4,0.3,3.6,3.7,3.6c7.6,0.1,15.1,0,22.7,0
		c1.6,0,3.1,0.1,4.7,0c7.1-0.3,12.9,9.1,9.4,16c-1.8,3.6-4.8,5.7-8.8,5.7c-14.8,0.1-29.7,0.1-44.5,0c-5.5-0.1-9.2-3.9-9.8-9.4
		c-0.1-1.4-0.1-2.8-0.1-4.3C465.1,253.6,465.1,236,465.1,218.3z"/>
	<path class="st0" d="M1309.7,285.9c-4.2-0.1-9.3-0.8-14.2-2.4c-11.1-3.6-18.3-11.1-21.9-22.2c-1.6-4.9-2.2-10-2.2-15.2
		c0-28.1,0-56.2,0-84.2c0-1.9,0-3.7,0.7-5.5c1.9-4.9,7.1-8,12.3-7.3c5.3,0.7,9.4,4.9,9.6,10.4c0.2,4.8,0.1,9.7,0.1,14.5
		c0,5,0,5,4.8,5c3.8,0,7.7-0.1,11.5,0c5.9,0.1,8.8,2.9,8.9,8.5c0.2,6.4-2.8,10.1-8.7,10.5c-4.3,0.3-8.5,0.1-12.8,0.1
		c-3.7,0.1-3.8,0.2-3.8,4c0,13.8,0,27.7,0,41.5c0,1.4,0.2,2.8,0.4,4.3c1.4,10.5,7.8,16.6,18.4,17.4c0.9,0.1,1.7,0,2.6,0.1
		c3.4,0.4,5.5,2.5,5.7,5.9c0.2,2.7,0.1,5.4,0,8.1c-0.2,4.1-2.3,6.2-6.4,6.5C1313.5,286,1312.1,285.9,1309.7,285.9z"/>
	<path class="st0" d="M1126,206.7c0,14.5,0,29.1,0,43.6c0,2.8-0.1,5.7,0.8,8.5c1,3.2,3,5.1,6.3,5.6c0.6,0.1,1.1,0.1,1.7,0.2
		c5.4,1.1,8.8,5.3,8.5,10.7c-0.2,5-4.1,9-9.2,9.7c-15.8,2.3-28.3-7.2-30.2-23.1c-0.3-2.7-0.6-5.4-0.6-8.1c0-31.1,0-62.1-0.1-93.2
		c0-4.7,1.6-8,5.7-10.1c4.3-2.3,8.5-2,12.6,0.7c3.3,2.1,4.6,5.1,4.6,9C1125.9,175.7,1126,191.2,1126,206.7z"/>
	<path class="st0" d="M1052.5,208.8c0-16.1,0-32.2,0-48.3c0-5.9,2.3-9.2,7.6-10.9c4.8-1.6,10.3,0.3,13.4,4.3
		c1.3,1.7,1.5,3.6,1.5,5.6c0,8.7,0,17.4,0,26.1c0,21.7,0,43.3,0,65c0,2.3,0,4.5,0.5,6.8c1.1,4.8,2.7,6.4,7.7,7.2
		c4.5,0.7,7.7,3,8.9,7.5c1.7,6.3-2.4,12.3-9,12.9c-6.4,0.6-12.5-0.3-18.2-3.5c-8.2-4.6-11.1-12.2-12.1-20.9
		c-0.3-2.4-0.2-4.8-0.2-7.3C1052.5,238.4,1052.5,223.6,1052.5,208.8z"/>
	<path class="st0" d="M573.4,236.1c0,13,0,25.9,0,38.9c0,7-3.1,10.1-10.2,10.2c-1.3,0-2.6,0-3.8,0c-5.2-0.2-8.4-3.4-8.8-8.6
		c-0.1-1,0-2,0-3c0-24.9,0-49.8,0-74.7c0-1.3-0.1-2.6,0.1-3.8c0.6-4.5,3.7-7.4,8.2-7.7c2-0.1,4-0.1,6,0c5.2,0.3,8.4,3.4,8.5,8.7
		c0.1,4.8,0,9.7,0,14.5C573.4,219,573.4,227.5,573.4,236.1z"/>
	<path class="st0" d="M1366.3,166c2-4.6,3.7-8.3,5.4-12.1c0.5-1,0.9-2.1,1.5-3.1c1.1-1.9,2.9-2.1,4.8-1.8c1.8,0.4,2.4,1.8,2.5,3.5
		c0.6,7.9,1.3,15.9,1.8,23.8c0.2,3.2-0.5,4.1-2.7,4.3c-2.7,0.2-3.8-0.8-4.2-4.1c-0.3-2.7-0.3-5.4-0.6-8.1c-0.1-1.1,0-2.3-0.8-3.5
		c-1.7,1.1-1.8,3.1-2.7,4.7c-0.6,1.1-1,2.4-1.7,3.4c-1.8,2.6-5.4,2.5-7-0.4c-1.3-2.5-2.4-5.1-3.9-8.4c-1.1,2.3-1.1,4.1-1.2,5.9
		c-0.2,2.4-0.2,4.8-0.6,7.2c-0.4,2.6-1.6,3.5-4.1,3.2c-2.2-0.2-3-1.1-2.8-3.9c0.6-8.1,1.3-16.2,2-24.2c0.1-1.7,0.7-3,2.5-3.5
		c2.1-0.5,4,0.2,5.1,2.1c0.8,1.5,1.4,3.1,2.1,4.7C1363.1,159,1364.5,162.1,1366.3,166z"/>
	<path class="st0" d="M574.1,160.4c0.1,6.7-5.3,12.3-12.1,12.4c-6.6,0.1-11.9-5.1-12.1-11.8c-0.2-6.9,5-12.4,11.7-12.6
		C568.3,148.2,574,153.7,574.1,160.4z"/>
	<path class="st0" d="M1333.7,149c3.6,0,7.1,0,10.7,0c1.3,0,2.6,0.3,3.2,1.6c1,2-0.1,4.1-2.4,4.4c-1.5,0.2-3.1,0.2-4.7,0.1
		c-2.2-0.1-3,0.8-3,3c0.1,5.4,0,10.8,0,16.2c0,1.1,0.1,2.3-0.1,3.4c-0.3,2.3-1.4,3.1-3.8,3.1c-2.1-0.1-3.1-1.2-3.1-3.2
		c0-4.3,0-8.5,0-12.8c0-0.9,0-1.7,0-2.6c0-6.6,0-6.7-6.8-7c-1.8-0.1-3.5-0.3-3.8-2.5c-0.3-2,0.8-3.5,3.2-3.6
		C1326.6,148.9,1330.2,149,1333.7,149C1333.7,149,1333.7,149,1333.7,149z"/>
	<path class="st0" d="M156,188.3c6-8.1,12-16.2,18-24.3c6-8.1,11.9-16.3,17.8-24.5c0.5-0.7,1-1.4,1.6-2c0.8-0.9,1.7-0.9,2.5,0.1
		c0.6,0.8,1.2,1.6,1.7,2.4c10.3,15.7,20.6,31.4,30.8,47.1c0.9,1.4,1.9,2.9,2.2,4.6c-11.7,16-23.3,31.9-35,47.9
		c-3.1,4.2-3.2,4.2-6-0.1c-10.5-15.7-21.1-31.4-31.6-47.1C157.2,191.2,156.1,190,156,188.3z"/>
</g>
</svg>
