<svg xmlns="http://www.w3.org/2000/svg" width="1061.75" height="146.57" viewBox="0 0 1061.75 146.57"><defs><style>.cls-1{fill:#fff;}</style></defs><title>stickermule</title><g id="Layer_2" data-name="Layer 2"><g id="Layer_1-2" data-name="Layer 1"><path class="cls-1" d="M212.39,136.41c-14.93,0-28.61-1.66-40.63-13.68l15.55-15.55c7.88,7.88,18,8.91,25.5,8.91,8.29,0,16.79-2.7,16.79-10,0-4.77-2.49-8.09-10.16-8.71L204.51,96c-17.21-1.66-27.78-9.12-27.78-26.74,0-19.69,17.41-30.47,36.9-30.47,14.93,0,27.37,2.49,36.49,11.19L235.4,64.89c-5.6-5-13.89-6.43-22.18-6.43-9.54,0-13.48,4.35-13.48,9.12,0,3.52,1.45,7.46,10,8.29l14.93,1.45c18.87,1.87,28.4,11.82,28.4,28C253,126.46,235,136.41,212.39,136.41Z"/><path class="cls-1" d="M294.49,135.38c-19.49,0-27.57-13.68-27.57-27.37V60.74H256.75v-18h10.16V14.51h23.84V42.71h16.79v18H290.75v45.82c0,5.39,2.49,8.71,8.29,8.71h8.71v20.11Z"/><path class="cls-1" d="M318.12,23.63V4.15h24.46V23.63Zm.41,111.74V40h23.84v95.36Z"/><path class="cls-1" d="M396.07,136.41c-19.07,0-42.71-10.16-42.71-48.93,0-38.56,23.63-48.72,42.71-48.72,13.27,0,23,3.94,31.51,12.85L411.41,67.79c-5-5.39-9.12-7.46-15.34-7.46a16.44,16.44,0,0,0-13.48,6.22c-3.73,4.56-5.39,11-5.39,21.15s1.66,16.59,5.39,21.35a16.71,16.71,0,0,0,13.48,6.22c6.22,0,10.37-2.28,15.34-7.46l16.17,16C419.08,132.27,409.34,136.41,396.07,136.41Z"/><path class="cls-1" d="M493.3,135.38l-23.43-39.8L459.71,107v28.4H435.87V5h23.84V79l31.72-39h28.82l-34,38.56,36.69,57-29.65-.21Z"/><path class="cls-1" d="M542.64,94.95c0,12.23,7.46,21.15,20.94,21.15,10.37,0,15.55-2.9,21.56-8.91l14.51,14.1c-9.74,9.74-19.07,14.93-36.28,14.93-22.6,0-44.16-10.16-44.16-48.93,0-31.1,16.79-48.72,41.67-48.72,26.54,0,41.67,19.49,41.67,45.61V94.74l-59.91.21Zm34.21-26.54c-2.49-5.6-7.88-10-16-10s-13.48,4.15-16,10a27,27,0,0,0-2.28,10.16h36.28A26.91,26.91,0,0,0,576.84,68.41Z"/><path class="cls-1" d="M665.57,65.93c-3.73-3.73-6.84-5.6-12.65-5.6-7.26,0-15.34,5.6-15.34,17.62v57.43H613.75V40H637v9.12C641.53,43.54,650.65,39,661,39c9.33,0,16,2.28,22.6,8.91Z"/><path class="cls-1" d="M98.37,145.95c-1.45.62-3.32.41-5.18.62-1.66,0-3.94,0-5-.83-.62-.41-.62-1.45-.62-2.07s.21-1.66.21-2.28a4,4,0,0,0,0-2.7c-.41-.62-1.87-.41-2.7-.83s-1-1.66-1.24-2.9c0-.41-.41-.83-.41-1a22.81,22.81,0,0,1,.83-6.43c.41-2.07,1-3.94,1.45-6a34.85,34.85,0,0,0,.41-9.33c0-1.66-.41-2.9,0-4.15.21-1.24.83-2.28,1-3.52v-1.24c0-.41.21-.62.21-1,0-.83-.21-1.87-.21-2.9a62.49,62.49,0,0,1,.21-8.91c0-.83.41-1.66-.21-2.07a50.85,50.85,0,0,0-8.09.83c-7,.83-16.17,1-23-.41a5.74,5.74,0,0,0-1.87-.21,32.07,32.07,0,0,1-12.85-6,11.39,11.39,0,0,1-1.87-1.45c-.62-.41-1.24-1-1.87-1.45A6.84,6.84,0,0,0,30,81.68a27.76,27.76,0,0,0-1.24,2.49,12.68,12.68,0,0,0-1,2.49c-1.87,4.15-3.94,8.29-5.8,12.44-1,2.49-2.28,5.18-3.11,7.88-1.66,5.8-.21,13.48,1.24,19.07a14.29,14.29,0,0,1,.62,1.66,9.4,9.4,0,0,0,2.28,3.94c.62.41,1.45.83,2.07,1.24.83.62,1.24,1.87,1.87,3.11a12.31,12.31,0,0,1,.83,1.66c.62,1.24,1,2.28-.41,3.11-1,.62-2.7.62-4.15.83-.62.21-.41,1-.83,1.45a12.31,12.31,0,0,1-1.66.83,12,12,0,0,1-6.63,0,2.75,2.75,0,0,1-1.87-1.45c-.41-1.24.62-2.7-.21-3.52-.41-.41-1.24-.41-1.87-.62a5.76,5.76,0,0,1-2.49-2.49c-1-2.9-.41-7.26-.62-10.78,0-1-.21-2.07-.21-3.32,0-2.07-.62-4.15-.83-6.22-.21-1-.41-1.87-.62-2.7-.41-1.45-.62-3.11-1-4.56a8.48,8.48,0,0,1,0-4.56c.21-.41.62-.83.83-1.24a5.26,5.26,0,0,0,.41-2.49c-.21-.41-1.24,0-1.45-.41C3.42,94.95,2.8,90.6,2.38,85.83a36.7,36.7,0,0,1-.21-4.77c-.21-3.11,0-6.43-.41-9.54l-.62-4.35C.52,63-.52,57.84.31,53.49a16.72,16.72,0,0,1,3.11-7c1-1.45,2.28-2.7,3.52-4.15a33.83,33.83,0,0,1,4.15-3.52c1-.62,2.07-1.45,3.11-2.07a25.45,25.45,0,0,1,8.71-2.28,41.31,41.31,0,0,1,10.16.41c3.11.62,6.22,1,9.33,1.66,2.9.62,5.8,1.45,8.71,2.07.41,0,.62.41,1,.41a18.4,18.4,0,0,1,2.9.62,42.81,42.81,0,0,0,9.33,1c3.52,0,6.63,0,9.54-.83a3,3,0,0,1,1.24-.41,3.53,3.53,0,0,1,1.45-.21c.21,0,.62-.41.83-.62A33,33,0,0,0,82,35.87a15.92,15.92,0,0,1,3.73-2.07c.62-.21,1.45-.62,2.07-.83a12.42,12.42,0,0,0,4.15-1.66c1.87-1,3.11-2.7,4.56-4.15,1.45-1.24,3.11-2.7,4.77-3.94,3.32-2.7,6.63-5,9.74-7.46a45.52,45.52,0,0,1,5.18-3.52c3.52-2.07,7.26-4.35,12.44-4.77a31.18,31.18,0,0,1,6.22,0c.62,0,1.24.41,1.87.21s1-1,1.24-1.66c.83-1.45,1.24-2.28,2.07-3.94.41-1,.21-2.07,1.24-2.07s.83,2.7.83,3.73a22.27,22.27,0,0,0,0,3.73A2.3,2.3,0,0,0,144,8.91a2.1,2.1,0,0,0,1.45-.83c.62-.41,1-.41,1.45-.83a29.45,29.45,0,0,0,2.7-2.49c.62-.62,1.87-2.49,2.9-2.28,2.07.21,0,3.32-.41,4.15a59.09,59.09,0,0,1-3.32,6.22c-.41.83-1.66,2.07-1.66,3.11,0,.62.62,1,.83,1.87.21.41.21.62.41,1,.62,1.66,1.24,3.94,1.87,5.8a32,32,0,0,0,1.45,4.77c.62,1.45,1.45,2.9,2.07,4.56.21.41.21.83.41,1.24a108,108,0,0,0,4.15,10.37,10.77,10.77,0,0,1,1.45,4.77c0,2.07-1,3.11-2.07,4.77-.41.83-1.24,2.07-2.07,2.28a5.64,5.64,0,0,1-1.87,0,11.17,11.17,0,0,1-2.07.62,4.14,4.14,0,0,1-4.15-2.7c-.21-.41,0-1-.21-1.66-.41-2.28-1.66-3.32-3.11-5a10.93,10.93,0,0,0-3.11-2.28c-1.87-1-3.73-1.45-5.8-2.49a3.21,3.21,0,0,0-2.28-.62c-1,.21-2.07,1.87-2.9,2.9-5,6.63-9.54,13.48-14.3,19.9a119.94,119.94,0,0,0-9.33,13.48c-.62,1.24-1,2.7-1.66,4.15-.41,1.45-.83,2.9-1.24,4.56-1.87,5.39-2.49,12-4.15,17.62-.21.62-.21,1.24-.41,1.87-.83,2.9-1.66,6.22-2.49,9.33a47.62,47.62,0,0,0-1,8.29c0,2.9-.21,6.84.83,8.5.62,1,2.49,1.24,3.11,2.28.41.62.83,2.07,1.45,2.9.41.62,1.45,1.87,1.24,2.9a1.78,1.78,0,0,1-1.24,1.45c-.62.21-1.45.21-2.07.41C98.78,144.7,99,145.53,98.37,145.95Z"/><path class="cls-1" d="M790.58,38.77c-11.82,0-20.52,3.73-28.61,12-6-8.29-14.72-12-25.29-12a33.58,33.58,0,0,0-23.84,10V40H689.62v95.36h23.84V77.74c0-13.06,8.5-17.41,16-17.41s15.76,4.35,15.76,17.41v57.63H769V77.12c0-12.44,8.71-16.79,16-16.79,7.46,0,15.76,4.35,15.76,17.41v57.63h23.84V74.43c0-10.37-2.7-19.49-10.37-27.16C808.62,41.88,800.12,38.77,790.58,38.77Z"/><path class="cls-1" d="M894,97.64c0,13.06-8.5,17.41-16,17.41s-15.76-4.35-15.76-17.41V39.8H838.47V101c0,10.37,2.07,19.49,9.74,27.16,5.39,5.39,13.06,8.5,22.6,8.5a32.75,32.75,0,0,0,23.84-10v8.71h23.22V40H894Z"/><path class="cls-1" d="M956.85,106.56V5H933V108c0,13.48,8.29,27.37,27.78,27.37h13.48V115.27h-9.12C959.13,115.27,956.85,112.36,956.85,106.56Z"/><path class="cls-1" d="M1061.75,84.38c0-26.12-14.93-45.61-41.67-45.61-24.67,0-41.67,17.62-41.67,48.72,0,38.56,21.56,48.93,44.16,48.93,17.21,0,26.54-5.39,36.28-14.93l-14.51-14.1c-6,6-11.19,8.91-21.56,8.91-13.48,0-20.94-8.91-20.94-21.15h59.71l.21-10.78ZM1002,78.78a26.12,26.12,0,0,1,2.28-10.16c2.49-5.6,7.88-10,16-10s13.27,4.15,16,10a27,27,0,0,1,2.28,10.16Z"/></g></g></svg>