<?xml version="1.0" encoding="utf-8"?>
<!-- Generator: Adobe Illustrator 21.0.0, SVG Export Plug-In . SVG Version: 6.00 Build 0)  -->
<svg version="1.1" id="Layer_1" xmlns="http://www.w3.org/2000/svg" xmlns:xlink="http://www.w3.org/1999/xlink" x="0px" y="0px"
	 width="744.3px" height="224px" viewBox="0 0 744.3 224" style="enable-background:new 0 0 744.3 224;" xml:space="preserve">
<style type="text/css">
	.st0{fill:#FFFFFF;}
</style>
<path class="st0" d="M107.5,84.4c0,12.7-10.5,23.1-23.1,23.1S61.2,97.1,61.2,84.4s10.5-23.1,23.1-23.1S107.5,71.7,107.5,84.4z
	 M84.4,116.5c-12.7,0-23.1,10.5-23.1,23.1s10.5,23.1,23.1,23.1s23.1-10.5,23.1-23.1S97.1,116.5,84.4,116.5z M224,112
	c0,62-50,112-112,112S0,173.9,0,112S50,0,112,0S224,50,224,112z M194.1,112c0-45.5-36.6-82.1-82.1-82.1S29.9,66.4,29.9,112
	s36.6,82.1,82.1,82.1S194.1,157.5,194.1,112z M139.6,116.5c-12.7,0-23.1,10.5-23.1,23.1s10.5,23.1,23.1,23.1s23.1-10.5,23.1-23.1
	S152.3,116.5,139.6,116.5z M139.6,61.2c-12.7,0-23.1,10.5-23.1,23.1s10.5,23.1,23.1,23.1s23.1-10.5,23.1-23.1S152.3,61.2,139.6,61.2
	z M524.8,44c0.7,0,1.5,0.7,2.2,1.5v23.9c0,1.5-1.5,2.2-2.2,2.2h-39.6c-1.5,0-2.2-1.5-2.2-2.2V46.3c0-1.5,1.5-2.2,2.2-2.2
	C485.3,44,524.8,44,524.8,44z M524.1,77.6h-76.1c-0.7,0-2.2,0.7-2.2,2.2l-9.7,37.3l-0.7,2.2l-11.9-39.6c0-0.7-1.5-2.2-2.2-2.2h-29.9
	c-0.7,0-2.2,0.7-2.2,2.2l-11.2,37.3l-0.7,2.2l-0.7-2.2l-4.5-18.7l-4.5-18.7c0-0.7-1.5-2.2-2.2-2.2h-59.7V45.5c0-0.7-1.5-2.2-3-1.5
	L265,56c-1.5,0-2.2,0.7-2.2,2.2v20.2h-9.7c-0.7,0-2.2,0.7-2.2,2.2V109c0,0.7,0.7,2.2,2.2,2.2h9.7v35.1c0,24.6,13.4,35.8,38.1,35.8
	c10.5,0,20.2-2.2,26.9-6v-29.9c0-1.5-1.5-2.2-2.2-1.5c-3.7,1.5-7.5,2.2-10.5,2.2c-6.7,0-10.5-3-10.5-10.5v-25.4h21.6
	c0.7,0,2.2-0.7,2.2-2.2V85.1l28.4,94.1c0,0.7,1.5,2.2,2.2,2.2h31.4c0.7,0,2.2-0.7,2.2-2.2l13.4-41.8l6.7,21.6l6,20.2
	c0,0.7,1.5,2.2,2.2,2.2h31.4c0.7,0,2.2-0.7,2.2-2.2L483,85.1v94.1c0,0.7,0.7,2.2,2.2,2.2h38.1c0.7,0,2.2-0.7,2.2-2.2V79.9
	C525.6,79.1,524.8,77.6,524.1,77.6z M574.1,44H536c-0.7,0-2.2,0.7-2.2,2.2v132.1c0,0.7,0.7,2.2,2.2,2.2h38.1c0.7,0,2.2-0.7,2.2-2.2
	V45.5C576.3,44.8,575.6,44,574.1,44z M624.9,44h-39.6c-0.7,0-2.2,0.7-2.2,2.2v23.1c0,0.7,0.7,2.2,2.2,2.2h39.6
	c0.7,0,2.2-0.7,2.2-2.2V45.5C627.1,44.8,626.3,44,624.9,44z M624.1,77.6H586c-0.7,0-2.2,0.7-2.2,2.2v97.8c0,0.7,0.7,2.2,2.2,2.2
	h38.1c0.7,0,2.2-0.7,2.2-2.2V79.9C626.3,79.1,625.6,77.6,624.1,77.6z M744.3,128.4c0,28.4-23.9,53-57.5,53
	c-32.8,0-56.7-24.6-56.7-53s23.9-53,57.5-53C720.4,75.4,744.3,100,744.3,128.4z M704,129.2c0-10.5-7.5-18.7-16.4-17.9
	c-9.7,0-16.4,8.2-16.4,17.9c0,9.7,7.5,17.9,16.4,17.9C697.3,147.1,704,138.9,704,129.2z"/>
</svg>
