<?xml version="1.0" encoding="utf-8"?>
<!-- Generator: Adobe Illustrator 21.0.0, SVG Export Plug-In . SVG Version: 6.00 Build 0)  -->
<svg version="1.1" id="Layer_1" xmlns="http://www.w3.org/2000/svg" xmlns:xlink="http://www.w3.org/1999/xlink" x="0px" y="0px"
	 width="672px" height="99.1px" viewBox="0 0 672 99.1" style="enable-background:new 0 0 672 99.1;" xml:space="preserve">
<style type="text/css">
	.st0{fill:#FFFFFF;}
</style>
<g>
	<path class="st0" d="M64.6,0.1c6,0,11.8,0,17.8,0c-2.3,14.5-4.6,28.9-6.9,43.4c5.9,0,11.7,0,17.6,0c-0.4,2.5-0.7,4.9-1.1,7.3
		C91,55.9,90.5,61,89,66c-5.2,17.5-17.1,27.8-34.7,31.5c-10.7,2.3-21.5,2.3-32.1-0.7c-7.1-2-13.2-5.6-17.4-12
		c-2.9-4.4-4.2-9.3-4.6-14.6C-0.3,64.6,0.5,59,1.4,53.4C3.2,42.1,5,30.8,6.7,19.5C7.7,13.3,8.7,7.2,9.6,1c0-0.3,0.1-0.6,0.2-0.9
		c11.8,0,23.5,0,35.4,0c-0.5,3.3-1,6.6-1.5,9.8c-1.9,11.8-3.7,23.5-5.5,35.3c-0.7,4.5-1.4,9.1-2,13.6C36,59.9,36,61,36.1,62
		c0.2,3.8,2,5.9,5.8,6.4c1.5,0.2,3.2,0.2,4.7,0c3.8-0.5,6.5-2.7,7.6-6.3c1-3.1,1.6-6.4,2.1-9.6c1.8-11.3,3.6-22.6,5.4-33.9
		c0.9-5.7,1.8-11.5,2.7-17.2C64.4,0.9,64.5,0.5,64.6,0.1z"/>
	<path class="st0" d="M355.5,68.1c-0.9,5.6-1.8,11.1-2.6,16.5c-0.6,4-1.3,7.9-1.9,11.9c-0.1,0.8-0.5,0.9-1.2,0.9c-3.3,0-6.6,0-9.9,0
		c-7.2,0-14.5,0-21.7,0c-0.5,0-0.9,0-1.5,0C321.8,64.9,327,32.5,332.1,0c0.5,0,0.9,0,1.4,0c14.9,0,29.8-0.1,44.7,0
		c7.3,0,14.4,1.3,20.8,5.1c7.1,4.2,11.2,10.5,12.1,18.6c1.3,11.3-1.1,21.8-8.1,30.9c-6,7.8-14.2,12.2-23.9,13.1
		c-6.8,0.6-13.6,0.3-20.4,0.4C357.6,68.2,356.6,68.1,355.5,68.1z M359.4,43.5c3.5,0,6.9,0.2,10.2-0.7c4.2-1.1,6.7-3.7,7.5-8
		c0.7-3.9-0.8-6.5-4.6-7.5c-3.4-0.9-6.9-0.6-10.4-0.7C361.2,32.3,360.3,37.8,359.4,43.5z"/>
	<path class="st0" d="M291.6,36.8c0-2.6,0-5.2,0-7.9c11.1,0,21.9,0,32.9,0c-3.6,22.8-7.2,45.6-10.8,68.5c-10.9,0-21.7,0-32.7,0
		c0.8-3,1.6-5.9,2.4-8.9c-0.1-0.1-0.2-0.1-0.3-0.2c-0.4,0.3-0.8,0.6-1.2,0.9c-3.6,3.2-7.3,6.3-11.9,8c-8,2.9-15.9,2.8-23.1-2.3
		c-4.9-3.5-7.7-8.5-9.2-14.2c-2.8-10.1-1.4-19.9,2.7-29.3c3.6-8.3,9-15.3,17-20c7.2-4.2,14.8-5.3,22.8-3c4.3,1.2,7.7,3.9,10.1,7.7
		c0.2,0.4,0.6,0.7,0.9,1C291.3,36.9,291.5,36.9,291.6,36.8z M269.8,64.9c0,0.4,0,0.8,0,1.2c0.2,3.5,2.1,5.9,5.3,6.5
		c2.6,0.5,5.2,0.1,7.4-1.4c3-2.1,4.4-5.1,5-8.6c0.4-2,0.2-4-0.9-5.8c-1.8-3.1-5.9-4.2-9.7-2.8C272.7,55.5,269.8,59.9,269.8,64.9z"/>
	<path class="st0" d="M546.9,68.8c-16.2,0-32.2,0-48.4,0c-0.5,2.9-0.9,5.7,0.3,8.5c1.2,2.7,4.6,3.9,7.9,2.8c2.3-0.8,4-2.3,5-4.5
		c0.3-0.6,0.5-0.8,1.2-0.8c10.3,0,20.5,0,30.8,0c0.2,0,0.4,0,0.8,0.1c-1.4,3.4-3.3,6.3-5.6,8.9c-6,6.7-13.6,10.8-22.2,13.2
		c-11.2,3.1-22.4,3-33.3-1.3c-6.7-2.6-12-6.9-15.1-13.5c-2.5-5.2-2.9-10.7-2.2-16.4c2.6-21.2,18.9-35.1,37.8-37.9
		c9.1-1.4,17.9-0.6,26.3,3.1c12.5,5.6,18.5,16.8,17.8,29.9c-0.1,2-0.4,4-0.7,6C547.3,67.5,547.1,68.1,546.9,68.8z M501,54.5
		c5,0,10,0,14.9,0c0.2,0,0.6-0.3,0.6-0.5c0.4-3.2-1.2-7.4-5.3-8.2C506.1,44.9,501.2,49,501,54.5z"/>
	<path class="st0" d="M610.3,33c-3.8,6.5-7.5,12.7-11.1,19c-2-1.2-3.8-2.4-5.8-3.4c-3.1-1.6-6.5-2.4-10-2.1
		c-0.8,0.1-1.6,0.4-2.3,0.7c-1.2,0.6-1.8,1.6-1.7,3c0,1.3,0.9,2.1,2,2.4c1.8,0.5,3.7,0.9,5.5,1.2c3.9,0.7,7.7,1.5,11.2,3.4
		c5.3,2.7,7.9,7.6,7.5,13.5c-0.8,11.9-7.4,19.5-17.9,24.2c-8.9,4-18.3,4.9-27.9,3.4c-7.4-1.1-14.4-3.6-21.2-6.6
		c-0.2-0.1-0.5-0.3-0.8-0.4c4-6.9,7.9-13.7,11.9-20.7c0.5,0.4,0.9,0.7,1.4,1c4.3,2.9,8.8,5.6,14,6.5c1.8,0.3,3.6,0.5,5.2-0.4
		c0.9-0.5,1.9-1.3,2.4-2.1c1.1-1.9,0.4-3.8-1.7-4.4c-2.1-0.6-4.2-0.8-6.4-1.2c-3.6-0.7-7.2-1.7-10.3-3.8c-4.4-3-6.3-7.3-5.9-12.5
		c0.8-10.7,6.9-17.7,16.2-22.1c7.2-3.4,14.9-4.6,22.8-4.2c6.3,0.3,12.5,1.3,18.4,3.6C607.4,31.5,608.8,32.3,610.3,33z"/>
	<path class="st0" d="M672,33c-3.8,6.4-7.4,12.7-11.2,19.1c-0.4-0.3-0.8-0.5-1.1-0.8c-3.8-2.7-7.9-4.7-12.7-4.8
		c-1.3,0-2.7,0.3-4,0.7c-1.4,0.4-2,1.6-2,3c0,1.4,1,2.3,2.2,2.5c2.6,0.6,5.3,0.9,7.8,1.6c2.9,0.8,5.9,1.5,8.6,2.8
		c5.7,2.8,8.2,7.8,7.6,14.1c-1.1,11.8-7.8,19.2-18.2,23.7c-9.7,4.2-19.8,4.8-30.2,2.8c-6.4-1.2-12.5-3.5-18.4-6.1
		c-0.3-0.1-0.6-0.3-1-0.5c4-6.9,7.9-13.8,11.8-20.5c2.9,1.7,5.6,3.4,8.4,4.9c3.1,1.6,6.3,2.8,9.8,2.5c1.3-0.1,2.6-0.6,3.7-1.3
		c1.3-0.8,1.8-2.2,1.5-3.7c-0.3-1.5-1.4-2-2.7-2.3c-2.3-0.5-4.7-0.7-6.9-1.3c-2.5-0.7-5-1.4-7.3-2.5c-5.6-2.8-8.2-7.6-7.6-13.9
		c0.9-9.6,6.1-16.3,14.4-20.8c6-3.2,12.5-4.8,19.2-5.1c8.6-0.3,16.9,0.7,24.9,4.1C669.8,31.9,670.8,32.4,672,33z"/>
	<path class="st0" d="M127.7,97.4c2.2-14.2,4.5-28.3,6.7-42.5c-2.8,0.2-5.4,0.4-8.2,0.6c1.4-8.8,2.8-17.5,4.3-26.2
		c2.7,0.2,5.3,0.3,8,0.5c0.5-3.3,1-6.5,1.5-9.7c0.1-0.7,0.2-1.2,1-1.5c11.3-3.8,22.6-7.7,33.9-11.5c0.2-0.1,0.4-0.1,0.8-0.2
		c-1.2,7.7-2.4,15.2-3.6,22.9c3.7-0.2,7.3-0.3,11.2-0.5c-1.4,8.8-2.8,17.5-4.3,26.3c-3.7-0.2-7.3-0.4-11-0.6
		c-2.2,14.2-4.5,28.3-6.7,42.5C150.1,97.4,139,97.4,127.7,97.4z"/>
	<path class="st0" d="M413.9,28.9c11.1,0,22.2,0,33.4,0c-0.7,3-1.4,6-2.1,9c0.1,0.1,0.3,0.2,0.4,0.3c3.1-3.7,6.5-7.1,11-8.9
		c4.5-1.9,9.3-2.1,14.3-2c-1.8,11.3-3.5,22.5-5.3,33.9c-1-0.6-1.9-1.1-2.7-1.7c-5.7-3.7-14.4-2.1-18.4,2.8c-2.2,2.7-3.3,5.8-3.8,9.2
		c-1.3,8.6-2.7,17.2-4.1,25.9c-11.1,0-22.1,0-33.4,0C406.6,74.5,410.2,51.8,413.9,28.9z"/>
	<path class="st0" d="M184.8,28.9c11.2,0,22.2,0,33.4,0c-0.7,3-1.4,6-2.1,9c0.1,0.1,0.2,0.2,0.3,0.2c0.4-0.3,0.8-0.6,1.1-1
		c2.8-3.3,6-6.2,10.1-7.9c4.5-1.9,9.2-2,14.1-2c-1.8,11.3-3.5,22.5-5.3,33.9c-0.8-0.5-1.5-0.9-2.2-1.4c-4.2-2.8-8.7-3-13.3-1.4
		c-4.7,1.6-7.5,5.1-8.7,9.7c-0.9,3.4-1.4,6.9-1.9,10.4c-1,6-1.9,12.1-2.8,18.2c-0.1,0.7-0.4,0.8-1,0.8c-10.6,0-21.2,0-31.7,0
		c-0.2,0-0.4-0.1-0.8-0.1C177.6,74.5,181.2,51.7,184.8,28.9z"/>
	<path class="st0" d="M84.6,97.3c9.6-23.6,19.2-47,28.8-70.7c-6,0-11.7,0-17.6,0c1.4-8.9,2.8-17.7,4.2-26.6c10.8,0,21.5,0,32.4,0
		c-4.8,32.4-9.5,64.8-14.3,97.2C106.9,97.3,95.8,97.3,84.6,97.3z"/>
</g>
</svg>
