<?xml version="1.0" encoding="utf-8"?>
<!-- Generator: Adobe Illustrator 21.0.0, SVG Export Plug-In . SVG Version: 6.00 Build 0)  -->
<svg version="1.1" id="Layer_1" xmlns="http://www.w3.org/2000/svg" xmlns:xlink="http://www.w3.org/1999/xlink" x="0px" y="0px"
	 width="995.1px" height="995.2px" viewBox="0 0 995.1 995.2" style="enable-background:new 0 0 995.1 995.2;" xml:space="preserve"
	>
<style type="text/css">
	.st0{fill:#FFFFFF;}
</style>
<g>
	<g>
		<path class="st0" d="M504,0C224.5-3,2.1,219.6,0,492.7c-2.2,283.1,223.8,498.7,489.2,502.4c278.1,4.3,502.8-216.2,505.9-490.6
			C998.4,219.8,771.3,2.9,504,0z M496.2,982c-264.8-1-486-216.9-482.8-491.4c3-255.3,210.3-477.8,486.3-477.1
			c266.8,0.6,483.4,218.3,482.1,487.5C980.5,761.6,768.7,981.5,496.2,982z"/>
		<path class="st0" d="M744,193.3c9.2-10.9,18-21.4,26.9-31.9c0.3,2.1-0.2,3.8-0.8,5.5c-3.5,10.1-7,20.1-10.5,30.1
			c-2.9,8.4-2.9,8.4,5.4,13.3c15.8-18.8,31.6-37.6,47.7-56.8c-2.8-2.4-5.4-4.6-8.4-7.1c-8.8,10.5-17.4,20.6-26,30.8
			c-0.5-1.6-0.3-2.7,0.1-3.8c3.8-11.3,7.5-22.7,11.6-34c1.1-3,0.9-5-1.8-6.7c-1.5-1-2.8-2.2-4.5-3.6c-16.1,19.1-32,38.1-48,57.2
			C738.6,188.7,741.2,190.9,744,193.3z"/>
		<path class="st0" d="M249.7,194.7c-8.7-11.1-17.1-22-25.6-32.8c12.3,6.2,23.9,13.1,35.3,20.2c2.9,1.8,5,1.9,7.3-0.6
			c1.2-1.3,2.7-2.3,4.2-3.5c-15.5-19.8-30.6-39.2-46-58.8c-3,2.4-5.7,4.7-8.5,6.9c8.6,11.1,16.8,21.6,25.1,32.2
			c-2.1-0.2-3.7-1-5.2-1.9c-10-5.9-20.1-11.8-30-17.9c-2.5-1.6-4.4-1.7-6.6,0.4c-1.3,1.3-2.8,2.3-4.6,3.8
			c15.5,19.9,30.7,39.2,46,58.8C244.1,199,246.8,196.9,249.7,194.7z"/>
		<path class="st0" d="M384.4,122.8c2.5-0.2,5-1.3,7.6-2c-3.6-14-7-27.3-10.4-40.7c1.6,0.9,2.6,2.1,3.5,3.4c6.3,9,12.7,17.9,19,26.9
			c4.9,7,4.9,7,13.9,3.3c-6.2-24-12.3-47.8-18.5-71.9c-3.7,1-6.9,1.8-10.5,2.8c3.3,13.2,6.6,26.1,9.8,38.9c-2-0.9-3-2.1-4-3.4
			c-6.6-9.2-13.3-18.3-19.7-27.6c-2.1-3-4.1-3.9-7.4-2.5c-1.5,0.6-3.1,1-4.8,1.5c6,23.2,11.8,46.1,17.8,68.9
			C381,121.4,383.2,122.8,384.4,122.8z"/>
		<path class="st0" d="M430.5,930.1c-3.4-12.1-6.1-24.3-8.7-36.4c-1.8-8.3-1.8-8.3-11.3-8.2c-3.9,24.2-7.9,48.6-11.9,73.2
			c3.9,0.6,7.1,1.1,10.8,1.6c2.3-13.9,4.5-27.4,6.8-40.9c0.4,0,0.8,0.1,1.2,0.1c2.5,12.2,5,24.4,7.5,36.6c1.6,7.8,2.3,8.4,11.4,7.9
			c3.9-24.1,7.8-48.3,11.8-72.9c-3.8-0.6-7.1-1.2-10.7-1.8C434.9,903.1,432.7,916.6,430.5,930.1z"/>
		<path class="st0" d="M578.2,114.6c3.3-14.1,6.4-27.7,9.6-41.2c2.5,12.7,4.6,25.3,5.9,38c0.6,5.7,2.6,8.8,8.5,8.9
			c0.6,0,1.3,0.2,2.4,0.4c5.5-24.2,11-48.3,16.6-72.7c-4-0.8-7.2-1.5-10.7-2.2c-3.2,13.6-6.2,26.7-9.2,39.7
			c-2.8-12.4-4.7-24.7-6.5-37c-1.2-7.8-1.7-8.2-10.7-8.2c-5.5,23.8-11,47.8-16.5,72.1C571.3,113.2,574.6,113.8,578.2,114.6z"/>
		<path class="st0" d="M128.9,361.9c-1.4-1.3-3-3.7-5.2-4.4c-19.4-6.6-38.8-12.9-58.3-19.1c-3.8-1.2-7-0.2-8.4,4
			c-2.6,7.9-5.1,15.8-7.7,23.7c-1.4,4.2,0.4,6.8,4.3,8c19.4,6.4,38.9,12.7,58.3,19.1c4.4,1.4,7.1-0.2,8.5-4.4
			c2.5-7.6,4.9-15.2,7.4-22.8C128.2,365.1,128.4,364.1,128.9,361.9z M112.6,381.6c-17.5-5.7-34.7-11.3-52.5-17.1
			c1.6-4.9,3.1-9.5,4.7-14.4c17.6,5.7,34.7,11.3,52.6,17.2C115.7,372.2,114.3,376.6,112.6,381.6z"/>
		<path class="st0" d="M530.2,107.8c7.3,0.8,14.5,1.6,20.5,2.2c7.7,0.6,10-0.6,10.6-5.3c2.4-20.5,4.7-41,6.9-61.4
			c0.4-3.8-1.4-6.5-5.4-7c-8.2-1-16.5-2-24.8-2.8c-4.2-0.4-6.8,1.5-7.3,5.7c-2.3,20.3-4.6,40.6-6.9,61
			C523.4,104.7,525.6,107.3,530.2,107.8z M541.5,43.7c5.2,0.5,9.8,1,15.1,1.6c-2,18.2-4,36.3-6.1,55c-5-0.5-9.7-1-15.1-1.6
			C537.4,80.3,539.4,62.4,541.5,43.7z"/>
		<path class="st0" d="M174.7,275.2c3.5-6.2,1.8-12.4-4.2-16.6c-13.3-9.2-26.7-18.1-40.2-26.9c-5.8-3.8-12.3-3.3-16.3,1.7
			c-5.6,6.9-10.3,14.4-15.6,21.9c21,14,41.3,27.6,62.4,41.7C165.6,289.4,170.5,282.5,174.7,275.2z M113.3,251.5
			c0.4-1,0.5-1.5,0.7-1.9c6.2-10.3,7.1-10.5,17.1-3.8c9.3,6.2,18.5,12.3,27.8,18.5c7.2,4.8,7.5,6.3,2.7,13.5c-0.8,1.2-1.7,2.4-2.9,4
			C143.5,271.7,128.5,261.7,113.3,251.5z"/>
		<path class="st0" d="M358.7,869.8c-7.3-3.1-14.9-5.8-22.6-8.7c-8.8,23.4-17.5,46.5-26.4,70c8.2,3,15.8,6.3,23.7,8.6
			c7.1,2.1,12.9-0.7,15.5-7.4c6-15.1,11.8-30.4,17.3-45.7C368.9,879.2,365.9,872.9,358.7,869.8z M353.4,888.8
			c-4.2,11-8.4,22.1-12.6,33.1c-3.1,8.3-4.6,8.9-13,5.6c-1.2-0.5-2.4-1-4.1-1.7c6.5-17.2,12.9-34.2,19.4-51.4c1.7,0.5,3,0.9,4.2,1.3
			C356.3,879.1,356.7,880.1,353.4,888.8z"/>
		<path class="st0" d="M777.3,819.9c-5.9-7.4-11.9-14.8-18-22.1c-2.2-2.6-5.2-3.4-8-1.2c-8.1,6.3-16,12.9-24.1,19.5
			c16,19.6,31.5,38.6,47.4,58c3.1-2.6,5.8-4.9,8.6-7.3c-13.8-16.9-27.3-33.4-41-50.3c3.6-3,7.1-5.8,10.7-8.8
			c5.1,6.2,9.8,12.1,14.7,18.1c-3,2.6-5.5,4.8-8.7,7.6c10.9,10.3,24.3,15.8,36,23.9c2.6-2.1,5-4,7.3-5.9c0.5-0.4,0.9-0.9,1.7-1.8
			c-10.4-6.2-20.2-12.1-30.2-18.1C776.9,828,781.3,825,777.3,819.9z"/>
		<path class="st0" d="M837.2,301.4c19.1-10.7,37.8-21.2,56.6-31.7c2.4,4.3,4.5,8,6.8,12.1c-6.9,3.9-13.5,7.6-20.3,11.4
			c-2-3.2-3.8-6.2-6-9.8c-12.2,8.8-19.6,21.2-29.8,31.3c2,3.5,3.8,6.7,5.9,10.3c8-9.3,15.5-17.9,23.3-26.9c5,7,6.5,7.9,11,5.5
			c8.2-4.4,16.3-9,24.4-13.7c3.4-1.9,4.5-4.9,2.5-8.5c-4.8-8.7-9.7-17.4-14.8-26.4c-21.9,12.3-43.4,24.4-65.3,36.7
			C833.5,295,835.3,298.1,837.2,301.4z"/>
		<path class="st0" d="M351.5,134.7c-7.7-20.4-15.4-40.5-23.1-60.8c4.6-1.7,8.6-3.3,13-4.9c2.8,7.4,5.5,14.5,8.3,21.8
			c-3.6,1.5-6.7,2.8-10.3,4.3c1.3,2.7,2,5.4,3.7,7.3c6.9,8.4,13.9,16.6,21.1,24.7c0.8,0.9,2.9,1.4,4.1,1c2.8-0.7,5.4-2,8.5-3.2
			c-8-9.3-15.5-18-23.1-26.9c8.7-4.4,9-5.2,5.8-13.6c-2.8-7.3-5.7-14.6-8.4-21.9c-1.7-4.6-4.9-5.7-9.1-4.2c-9,3.3-18,6.8-27.5,10.5
			c9,23.6,17.7,46.5,26.6,69.8C344.7,137.2,348,136,351.5,134.7z"/>
		<path class="st0" d="M137.3,342.7c-19.8-9.1-39.3-18-59.1-27.1c2-4.3,3.8-8.3,5.8-12.6c7.3,3.4,14.2,6.5,21.2,9.7
			c-1.5,3.6-2.8,6.4-4.4,10.2c3,1,5.6,2.4,8.3,2.7c10.6,1.1,21.2,1.9,31.8,2.7c1.1,0.1,2.9-0.4,3.3-1.1c1.6-2.8,2.7-5.8,4.2-9.1
			c-12.2-1-23.6-2-35.3-2.9c1.3-4.7,3.9-9.4-2-12.1c-8.4-3.9-16.9-7.8-25.4-11.6c-3-1.3-6.3-1.3-7.9,2c-4.6,9.3-8.8,18.8-13.3,28.4
			c23,10.5,45.3,20.7,68.1,31.1C134.3,349.5,135.7,346.3,137.3,342.7z"/>
		<path class="st0" d="M575.5,884.5c1.9,10.2,3.7,19.9,5.6,30c-5.1,1-9.6,1.9-14.5,2.9c-2.1-10.3-4.1-20.1-6.1-30.2
			c-4,0.8-7.3,1.5-10.9,2.2c4.8,24.7,9.5,48.9,14.2,73.3c4-0.8,7.4-1.4,11-2.1c-2.1-11.2-4.1-21.8-6.2-32.8c5-1,9.6-1.9,14.6-2.8
			c2.2,11.2,4.4,21.9,6.5,32.7c4-0.7,7.3-1.4,11.1-2.1c-4.8-24.7-9.5-49-14.3-73.4C582.4,883,579.1,883.8,575.5,884.5z"/>
		<path class="st0" d="M321,853.8c-10,19.6-19.7,38.6-29.5,57.9c-4.7-2.4-8.8-4.5-13.2-6.7c9.9-19.5,19.6-38.6,29.5-58
			c-3.4-1.7-6.5-3.3-10.1-5c-10.5,20.5-20.7,40.5-30.8,60.6c-2.2,4.3-0.7,7.3,3.4,9.4c6.7,3.3,13.3,6.8,20.1,10.1
			c5.3,2.6,7.6,1.8,10.5-3.6c2.5-4.7,4.9-9.5,7.3-14.2c7.6-15,15.2-29.9,23-45.3C327.5,857.1,324.3,855.5,321,853.8z"/>
		<path class="st0" d="M704.7,165.3c6,4,11.9,7.9,17.9,11.8c6.2,4.1,8.3,3.6,12.6-2.7c11.2-16.8,22.3-33.5,33.4-50.3
			c0.9-1.4,1.7-2.8,2.6-4.5c-3.2-2.1-6-4-9.2-6.1c-12.1,18.2-23.9,36.1-36,54.2c-4.3-2.9-8.1-5.4-12.3-8.2
			c12-18.1,23.8-36,35.8-54.2c-3.1-2.1-6.1-4.1-9.4-6.3c-12.6,19.1-25.2,38-37.6,56.9C700.1,159.6,701,162.9,704.7,165.3z"/>
		<path class="st0" d="M894.5,315.6c-2.8,6-5.5,12.2-6.9,18.7c-2.1,9.4-9.3,11.4-16.9,13.8c-1.7-4.1-3.3-7.9-5-12
			c4.8-2.2,9.3-4.2,13.8-6.3c-1.5-3.5-2.8-6.5-4.4-10.2c-5.6,2.3-10.6,4.4-15.6,6.6c-5.2,2.3-6.2,4.6-4.1,9.8
			c2.6,6.5,5.4,12.9,8.2,19.3c2.3,5.1,4.7,6.2,9.9,4.1c5-1.9,10-3.8,14.6-6.4c2.5-1.4,5-3.9,6.2-6.5c2.7-5.9,5.3-11.9,6.7-18.2
			c1.9-8.7,7.8-12,16-13.8c1.6,3.8,3.2,7.7,5,11.8c-4.4,2-8.4,3.8-12.7,5.8c1.5,3.6,2.9,6.7,4.4,10.2c5.8-2.5,11.1-4.6,16.3-7.1
			c3.7-1.8,4-5,2.5-8.5c-2.8-6.7-5.7-13.5-8.6-20.2c-1.8-4.4-4.9-5.6-9.2-3.8c-4.6,1.9-9.4,3.5-13.7,6
			C898.4,310.3,895.8,312.8,894.5,315.6z"/>
		<path class="st0" d="M230.1,825.7c-0.2-1.5,0-3.4,0.8-4.6c2.1-3.1,4.6-6,7.1-9.1c3.7,3,7,5.6,10.5,8.3c-3.1,4-5.7,7.4-8.6,11.1
			c3.1,2.4,5.9,4.6,8.9,6.9c3.6-4.6,7-8.8,10.2-13c2.9-3.7,2.4-7-1.3-9.9c-5.6-4.4-11.2-8.9-16.9-13.3c-4.3-3.3-7.2-2.8-10.6,1.5
			c-2.8,3.5-5.4,7.2-8.4,10.5c-2.9,3.3-3.5,6.9-2.8,11.1c1.3,7.9,2.5,15.8,3.5,23.7c0.2,1.8-0.1,4.1-1,5.6c-2.1,3.3-4.8,6.2-7.5,9.5
			c-3.7-2.9-7-5.5-10.4-8.3c3.3-4.2,6.2-8,9.3-12c-3-2.4-5.7-4.5-8.8-7c-4,5.1-8,10-11.7,15.1c-1.9,2.6-1.7,5.5,0.8,7.6
			c6.4,5.3,12.9,10.5,19.6,15.5c1.3,0.9,4.4,1.5,5,0.8c5.7-6.9,11.1-14.2,16.5-21.4c0.4-0.6-0.2-1.9-0.3-2.9
			C232.5,842.8,231.2,834.2,230.1,825.7z"/>
		<path class="st0" d="M664.8,860.9c-1.4-3.3-4.1-4.7-7.3-3.5c-9.4,3.7-18.7,7.7-28.4,11.8c9.8,23.3,19.3,46,29,69
			c3.7-1.6,7-3.1,10.3-4.5c-3.5-8.4-6.8-16.4-10.3-24.8c5.7-2.4,11-4.7,16.3-6.9c4.1-1.7,5.6-4.8,3.9-8.9
			C674,882.3,669.4,871.6,664.8,860.9z M654.3,899.9c-3.8-9-7.2-17.2-10.9-26c4.1-1.8,8-3.4,12.4-5.3c3.7,8.8,7.2,17.1,10.9,26
			C662.5,896.3,658.7,898,654.3,899.9z"/>
		<path class="st0" d="M537.4,940.4c0.3,5.4,0.6,10.3,0.9,15.4c-4.9,0.4-9.3,0.8-14.1,1.2c-1.6-18.6-3.1-36.8-4.6-55.2
			c5.1-0.4,9.5-0.7,14.2-1c0.5,5,0.9,9.4,1.4,14.3c3.7-0.2,7.1-0.4,11.1-0.6c-0.6-6.7-1.2-12.3-1.6-17.9c-0.3-4.1-2.6-6.1-6.5-5.9
			c-8,0.5-15.9,1.3-23.9,1.9c-4.2,0.3-6.4,2.6-6,6.9c1.7,20.6,3.4,41.1,5.1,61.6c0.3,4,2.4,6.2,6.5,5.9c8.3-0.6,16.6-1.3,24.8-2.1
			c3.2-0.3,5.3-2.4,5.1-5.7c-0.3-6.6-0.9-13.1-1.4-20C544.3,939.7,540.9,940.1,537.4,940.4z"/>
		<path class="st0" d="M190.8,254c-3.2-3.8-6.1-7.2-9.3-10.9c3-3.5,5.9-6.9,8.8-10.4c4.2,2.5,8.1,4.7,12.3,7.2c2.5-3,4.7-5.6,7-8.5
			c-1.8-1.1-3.2-2-4.7-2.8c-17.7-9.9-35.5-19.8-53.2-29.7c-9.6-5.4-9.6-5.4-16,4.6c15.8,19.5,31.7,39.1,47.8,59
			C186.5,259.3,188.6,256.7,190.8,254z M155.6,213.2c0.2-0.3,0.4-0.6,0.7-0.9c8.4,5,16.8,10,25.6,15.2c-2.4,2.8-4.6,5.3-7,8.1
			C168.3,227.9,161.9,220.6,155.6,213.2z"/>
		<path class="st0" d="M614.2,124c3.5,1.8,5.8,1.1,7.3-2.7c1.2-2.9,3-5.4,4.5-8.2c4.5,1.6,8.5,3,12.8,4.5c-0.8,4.9-1.5,9.4-2.3,14.1
			c3.5,1.2,6.6,2.3,10.4,3.7c3.3-22.4,6.6-43.9,9.6-65.5c1.5-10.7,1.4-10.7-9-13.5c-0.1,0-0.3,0.1-0.9,0.2
			c-12.5,21.5-25.2,43.2-38.1,65.2C610.8,122.7,612.6,123.1,614.2,124z M644.7,78.3c0.4,0.1,0.8,0.3,1.2,0.4
			c-1.7,9.5-3.4,19-5.2,29.1c-3.5-1.2-6.5-2.3-10.1-3.5C635.5,95.3,640.1,86.8,644.7,78.3z"/>
		<path class="st0" d="M610,875.1c-5.5,0.7-7.1,3.4-6.4,9c2.1,16.3,3.6,32.7,5.4,49.1c0.7,6.5,1.5,13,2.3,19.8
			c3.1-0.9,5.5-1.6,7.8-2.3c0.8-0.2,1.5-0.6,2.4-1c-0.1-1.6-0.2-3.1-0.4-4.5c-1.5-9.6-1.5-9.4,7.6-12.4c3.5-1.1,4.9-0.4,6.3,2.9
			c4.1,9.3,4.3,9.2,14.8,5.3c-12-22.6-23.8-44.8-35.6-67C612.5,874.4,611.3,875,610,875.1z M628.6,922.7c-3.4,1-6.4,2-10.2,3.2
			c-1.4-10.1-2.8-19.8-4.1-29.6c0.4-0.1,0.8-0.2,1.2-0.3C619.7,904.7,624,913.4,628.6,922.7z"/>
		<path class="st0" d="M433.7,97.4c4.8-0.6,9.1-1.1,13.5-1.7c1.6,4.7,3,9,4.5,13.5c3.8-0.6,7.1-1.1,10.8-1.7
			c-7.2-21.2-14.3-41.9-21.4-62.6c-3.4-9.9-3.5-9.9-13.8-7.7c-0.3,0.1-0.6,0.3-1.2,0.7c-1.3,24.7-2.6,49.7-3.9,75.4
			c4.1-0.6,7.4-1.1,11.3-1.7C433.7,106.6,433.7,102.1,433.7,97.4z M434.3,57.4c0.4,0,0.8-0.1,1.1-0.1c2.9,9.4,5.8,18.8,8.9,28.7
			c-3.7,0.5-6.9,0.9-10.1,1.4C434.3,77,434.3,67.2,434.3,57.4z"/>
		<path class="st0" d="M838.4,178.7c-15.9,20.1-31.5,39.8-47.2,59.8c2.6,2.9,5,5.6,7.5,8.4c22.1-12.8,43.8-25.3,65.9-38.1
			c-2.6-3-4.9-5.8-7.3-8.6c-14.4,8.8-28.5,17.5-42.6,26.1c-0.2-0.2-0.4-0.5-0.6-0.7c10.6-12.8,21.3-25.6,32-38.4
			C843.2,184.1,840.9,181.5,838.4,178.7z"/>
		<path class="st0" d="M335.7,141c-1.6-3.2-3.1-5.9-4.5-8.7c-6,2.9-11.6,5.7-17.6,8.6c-3.5-7-6.8-13.6-10.3-20.6
			c5-2.7,9.8-5.2,14.8-7.9c-1.6-3.1-2.9-5.7-4.3-8.5c-5.2,2.6-10,4.9-15.1,7.4c-3.2-6.5-6.3-12.6-9.6-19.2c5.9-3,11.4-5.9,17.2-8.9
			c-1.6-3.1-2.9-5.8-4.4-8.9c-9.3,4.7-18.3,9.3-27.4,13.9c11.3,22.5,22.4,44.6,33.6,66.8C317.5,150.3,326.5,145.7,335.7,141z"/>
		<path class="st0" d="M828.5,286.8c3.1-2.3,5.5-4.1,8-5.9c-3.9-5.6-7.5-10.8-11.2-16.1c6.5-4.5,12.5-8.8,18.9-13.2
			c3.4,4.7,6.6,9.1,9.9,13.6c2.8-2,5.2-3.8,7.8-5.6c-3.3-4.7-6.3-9.1-9.5-13.8c5.9-4.2,11.6-8.2,17.5-12.4
			c3.9,5.4,7.6,10.5,11.4,15.8c2.8-2,5.3-3.8,8.1-5.8c-6-8.5-11.8-16.6-17.8-25.1c-20.6,14.5-40.8,28.8-61.1,43.1
			C816.7,270.1,822.5,278.3,828.5,286.8z"/>
		<path class="st0" d="M742.9,883.6c-4.4-6.6-8.5-12.8-12.8-19.3c4.8-3.3,9.3-6.3,13.9-9.5c-2-2.9-3.6-5.3-5.4-7.9
			c-4.8,3.1-9.2,6-14,9c-4-6.1-7.9-11.8-11.9-17.9c5.6-3.8,10.8-7.2,16.2-10.9c-1.9-2.9-3.5-5.3-5.5-8.3c-8.7,5.8-17,11.3-25.7,17.1
			c13.9,21,27.6,41.5,41.4,62.3c8.9-5.9,17.3-11.5,25.9-17.2c-2.1-3-3.8-5.5-5.7-8.2C753.7,876.5,748.4,879.9,742.9,883.6z"/>
		<path class="st0" d="M384.6,888.4c6.6,1.7,12.5,3.2,18.8,4.8c0.9-3.4,1.6-6.3,2.4-9.6c-10.1-2.7-19.7-5.2-29.6-7.9
			c-6.5,24.3-12.9,48.1-19.3,72.2c10.4,2.8,20.1,5.3,30,8c0.9-3.5,1.7-6.3,2.5-9.5c-6.2-1.7-12.3-3.4-19-5.3
			c2.1-7.8,4.1-15,6.1-22.3c5.8,1.5,10.9,2.8,16.3,4.2c0.8-3.4,1.4-6.2,2.1-9.3c-5.5-1.6-10.5-3-15.9-4.6
			C380.9,901.9,382.7,895.3,384.6,888.4z"/>
		<path class="st0" d="M885.8,434.8c0,0.9-0.2,1.7-0.1,2.5c0.4,2.6,0.9,5.2,1.5,9.3c25.5-9.6,50.2-0.1,75.7,2.5
			c-0.6-4.2-1.1-7.6-1.7-11.2c-10.5-1.3-20.8-2.5-31.1-3.8c8.3-4.8,16.8-8.4,25.2-12.4c1.3-0.6,2.8-2.4,2.8-3.7
			c0-2.9-0.8-5.8-1.4-9.3c-11.9,5.9-23.4,11-34.3,17.3C911,432.5,898,431.6,885.8,434.8z"/>
		<path class="st0" d="M76.8,432.2c-3.3-0.4-6.2-0.8-9.4-1.2c-0.8,5.6-1.5,10.6-2.2,16.2c-7.3-0.9-14.3-1.8-21.6-2.7
			c0.7-6.6,1.4-12.8,2.2-19.1c-3.6-0.4-6.5-0.8-9.8-1.2c-1.2,10.2-2.4,20-3.7,30.3c24.9,3.1,49.1,6.2,74,9.3c0.5-4,0.9-7.4,1.4-11.1
			c-11.1-1.5-21.7-2.8-32.5-4.3C75.7,442.7,76.2,437.6,76.8,432.2z"/>
		<path class="st0" d="M700,846.2c-1.7-3.1-3.1-5.8-4.8-8.7c-10.6,5.8-20.9,11.3-31.5,17.1c1.9,3.2,3.4,5.9,5,8.6
			c3.8-2,7-3.6,10.7-5.6c10.4,19.2,20.5,37.9,30.8,56.9c3.4-1.8,6.4-3.5,9.9-5.3c-10.3-19.2-20.4-37.9-30.7-56.9
			C693.1,850.1,696.4,848.2,700,846.2z"/>
		<path class="st0" d="M250.2,114.7c11.5,18.3,22.9,36.4,34.4,54.7c3.3-2.1,6.2-3.9,9.5-6c-11.5-18.4-22.9-36.5-34.3-54.7
			c3.7-2.5,6.9-4.5,10.3-6.8c-2-3-3.6-5.5-5.5-8.2c-10.3,6.5-20.2,12.7-30.2,19c1.9,3,3.5,5.6,5.2,8.4
			C243.3,118.8,246.5,116.9,250.2,114.7z"/>
		<path class="st0" d="M290.1,849c1.8-2.9,3.5-5.5,5.3-8.4c-10.1-6.5-20-12.8-30.1-19.3c-2,3.1-3.5,5.6-5.2,8.3
			c3.4,2.4,6.7,4.6,10.1,6.9c-11.7,18.2-23.1,36-34.8,54.3c3.3,2.1,6.2,4,9.5,6c11.8-18.3,23.4-36.3,35-54.3
			C283.5,844.9,286.7,846.9,290.1,849z"/>
		<path class="st0" d="M939.6,380.5c-21,5.4-41.6,10.7-62.5,16c1,3.8,1.8,7.1,2.7,10.8c21.1-5.4,41.7-10.6,62.5-15.9
			c1.3,4.1,2.4,7.9,3.6,11.8c3.3-0.9,6.2-1.7,9.3-2.6c-3-11.7-5.9-23.1-8.9-34.6c-3.4,0.9-6.3,1.7-9.5,2.5
			C937.8,372.7,938.7,376.5,939.6,380.5z"/>
		<path class="st0" d="M449.9,900.8c4.2,0.5,8,0.9,12.2,1.3c-1.3,21.7-2.5,42.9-3.8,64.5c4.2,0,7.6,0,11.1,0
			c1.3-21.3,2.7-42.3,4-63.7c4.2,0,8,0,12.1,0c0.3-3.2,0.5-6.1,0.8-9.5c-12.1-0.8-23.8-1.5-35.6-2.2
			C450.4,894.7,450.2,897.7,449.9,900.8z"/>
		<path class="st0" d="M473.5,42.7c0.9,21.7,1.8,42.9,2.7,64.4c4.1-0.2,7.5-0.4,11.1-0.6c-0.9-21.8-1.7-43-2.5-64.3
			c4.3-0.4,8-0.7,11.6-1c0-3.5,0-6.3,0-8.5c-12.1,0-23.6,0-35.6,0c0.3,3.9,0.5,6.9,0.7,10C465.5,42.7,469.2,42.7,473.5,42.7z"/>
		<path class="st0" d="M677.7,149.8c1.5-3.3,2.8-6.1,4.2-9c-5.7-2.8-10.9-5.2-16.3-7.8c9.1-19.6,18.1-38.9,27.2-58.5
			c-3.3-1.6-6.4-3.1-10.2-4.8c-10.6,22.9-21,45.1-31.5,67.8C660.1,141.6,668.7,145.6,677.7,149.8z"/>
		<path class="st0" d="M103.4,415.6c-21.3-4.6-42.1-9.1-63-13.6c-0.8,3.9-1.5,7.1-2.3,11c24.6,5.3,48.7,10.6,73,15.8
			c2.1-10,4.1-19.2,6.2-28.8c-3.6-0.7-6.6-1.3-9.7-2C106.1,404.2,104.8,409.8,103.4,415.6z"/>
		<path class="st0" d="M777.1,222.7c17.8-17.2,35.5-34.3,52.8-51c-2.6-3-5-5.7-6.3-7.1c-18,17.3-35.6,34.4-53.1,51.3
			C773.2,218.6,775.6,221.1,777.1,222.7z"/>
		<path class="st0" d="M235.6,206.8c-17-18.4-33.7-36.5-50.6-54.9c-2.8,2.6-5.4,4.9-8.4,7.6c17.1,18.5,33.8,36.6,50.7,55
			C230.3,211.7,232.8,209.4,235.6,206.8z"/>
		<path class="st0" d="M157.1,303.6c-21.9-12.2-43.5-24.2-65.3-36.4c-1.9,3.4-3.6,6.5-5.5,9.9c21.9,12.2,43.4,24.2,65.3,36.4
			C153.5,309.9,155.2,306.9,157.1,303.6z"/>
		<path class="st0" d="M517.7,32.3c-3.8,0-7.1,0-11.2,0c-0.7,24.8-1.5,49.3-2.2,74.2c4,0,7.3,0,11.2,0
			C516.2,81.9,516.9,57.3,517.7,32.3z"/>
		<path class="st0" d="M872.2,380.5c23.9-8,47.2-15.8,71-23.7c-1.4-3.9-2.5-7.2-3.7-10.6c-23.8,8-47.2,15.8-70.8,23.6
			C869.9,373.5,871,376.6,872.2,380.5z"/>
	</g>
	<path class="st0" d="M833.6,332.9c-12.1,0.3-24.2,0.1-37.1,0.1c7-11.5,13.3-22.1,19.8-32.5c1.8-2.8,1.6-4.8-0.2-7.5
		c-30.5-45.9-68.7-83.9-115.4-113.2c-31.1-19.5-64.3-34.2-99.7-43.9c-5-1.4-8.9-0.7-12.8,3c-4.4,4.1-9.2,7.6-13.9,11.4
		c-3.4,2.7-6.9,5.4-11.5,9.1c0-11.7,0-21.8,0-31.7c-28.3-5.8-87.2-6.1-116.6-1.2c-5.1,0.9-7.1,2.4-6.6,7.8c0.5,6.5,0.1,13,0.1,19.5
		c0,1.2-0.3,2.4-0.5,4.2c-8-6.9-15.6-13.2-22.8-19.8c-4-3.7-8-4.2-13.2-2.7c-78.4,22.4-143.9,64.7-194.6,128.7
		c-64.6,81.5-90.8,174.4-79.5,277.6c4.9,45.1,18.4,87.7,39.4,128.1c27.1,52.2,64.3,95.7,111.3,130.9c7.6,5.7,7.7,5.6,15.7,0.4
		c6.6-4.3,13.3-8.5,20.5-13c0,11,0,20.9,0,30.9c0,3.8,1.4,6.5,4.9,8.4c26.9,14.5,55.2,25.5,84.9,33c3,0.8,4.9,0.1,7.1-1.9
		c8.4-7.6,16.9-15,25.5-22.5c0.9-0.8,2-1.3,3.5-2.3c0,11.9,0,23,0,34.6c3.9,0.6,7.6,1.2,11.4,1.6c32.1,3.6,64.2,2.7,96.3-0.2
		c11.6-1,11.6-1.2,11.6-13c0-2.3,0-4.7,0-7c0-5.4,0-10.7,0-17.2c2.1,1.4,2.8,1.8,3.4,2.3c6.7,6,13.8,11.7,19.8,18.3
		c6.4,7,13,8.1,22,5.3c64.8-19.6,121.1-53.3,167.5-102.7c63.3-67.5,97.8-147.4,102-240.1c2.8-62.2-8.7-121.5-34.6-178.1
		C839.4,333.9,837.5,332.8,833.6,332.9z M402.5,249.4c1.3,0.6,2.6,2.6,2.6,4c0.2,16.8,0.2,33.6,0,50.4c0,2.5-0.5,5-1.3,7.3
		c-7.2,20.2-14.6,40.3-22.5,62c-16-4.8-32.1-9.4-48-14.5c-8.5-2.7-7.3-0.5-7.3-10.2c-0.1-20.5,0.1-41-0.1-61.4
		c0-5.4,1.1-10,5.2-13.9c13-12.2,25.8-24.5,38.9-36.6c0.9-0.9,3.4-1.1,4.7-0.5C384,240.4,393.3,244.8,402.5,249.4z M378.8,229.3
		c9.4-6.5,17.4-11.9,26.3-18c0,10.7,0,20.1,0,30.6C396.5,237.8,388.4,233.9,378.8,229.3z M405.2,333.9c0,14.2,0,28.4,0,43.4
		c-4.9-0.9-9.6-1.7-15-2.7c4.7-14,9.2-27.4,13.7-40.8C404.3,333.8,404.7,333.8,405.2,333.9z M379.8,381.2
		c-13.5,44.7-22.7,90.4-29.6,137.6c-40.3-8.5-78.9-21-115.7-41c3-12.9,6-25.5,9.1-39c26.4,14,53,25,81.8,32.5c0-35.5,0-70.7,0-105.9
		C343.8,370.7,361.5,375.9,379.8,381.2z M388,382.4c5.4,1,10.3,1.7,15.1,3c1.2,0.3,2.3,2.9,2.4,4.5c0.2,13.8,0.1,27.6,0.1,41.4
		c0,30.1,0,60.3,0,90.4c0,2,0,3.9,0,7.2c-15.9-2.7-31.2-5.3-47.2-8C364.5,473.6,374,427.8,388,382.4z M404.2,148.3
		c0.3-0.1,0.6,0.1,1.3,0.3c0,16.9,0,33.8-0.1,50.8c0,1.1-1,2.5-1.9,3.1c-10.3,7-20.7,13.8-32,21.3c-3.7-4.5-7.9-8.7-11.1-13.5
		c-7.6-11.5-6.8-24,2.1-34.6C373.7,162.6,388.4,154.6,404.2,148.3z M237.5,254.7c2.5-8.5,7-15.6,13.5-21.7
		c31.6-29.5,66.8-53.3,106.6-70.2c1.8-0.8,3.6-1.4,5.4-2.1c-21.7,30.5-21.6,41.5,1.9,68.7c-34.6,28.8-63.7,62.5-86.2,102.5
		c-15.8-10.9-29.7-23-38.1-40.3C234.8,279.8,233.8,267.4,237.5,254.7z M158.5,380c0.6-11.3,5.6-21.1,10.1-31.1
		c14.3-31.9,33.2-61.1,55.6-87.9c0.6-0.8,1.3-1.5,2-2.2c0.2-0.2,0.5-0.2,2-0.7c-4.7,38.6,18.1,61.2,46.1,81.4
		c-22.9,41.9-37.7,86.7-46.8,134c-2-1-3.6-1.7-5.1-2.5c-17.5-10.4-32.9-23.3-45.7-39.1C164.6,416.9,157.5,399.8,158.5,380z
		 M149.6,402.5c0.4-1.3,0.9-2.5,1.5-4.1c0.6,1.1,1.1,1.8,1.3,2.5c5.7,25.2,21.2,43.8,40.6,59.4c9.2,7.4,19.2,13.7,29.1,20.2
		c2.5,1.7,3.7,3.1,3.3,6.3c-4,30.2-3,60.5-2.3,90.7c0.3,12.9,2.7,25.8,4.1,38.7c0.2,1.6,0.4,3.3,0.6,4.9c-0.3,0.4-0.7,0.8-1,1.1
		c-9.2-5.6-18.6-10.9-27.6-16.8c-14.4-9.4-27.4-20.5-38.7-33.6c-13.8-16.1-22.8-34-23.6-55.8C135.4,477.5,139,439.6,149.6,402.5z
		 M188.8,686.4c-22.7-37.5-38-77.9-46-121.1c-0.1-0.3,0.1-0.6,0.2-1.7c5.7,6.9,10.8,13.5,16.4,19.6c18,19.5,40,33.5,63.2,45.8
		c5.6,3,8.4,6.5,9.7,12.9c7.1,36.3,19.6,70.8,34.5,104.5c0.7,1.6,1.4,3.3,2.4,5.8c-1.9-0.7-3.1-1-4.2-1.5
		c-20.7-9.6-39.9-21.7-56.2-37.6C200.9,705.4,194.6,695.9,188.8,686.4z M287,792.7c-20.8-13.9-38.4-31.3-54.9-50.2
		c3.3,1.8,6.5,3.8,9.8,5.5c9.3,4.8,18.8,9.3,27.9,14.5c3.1,1.8,6.1,4.7,7.9,7.8c4,7,7.2,14.4,10.8,21.7
		C287.9,792.1,287.4,792.4,287,792.7z M320.6,573.6c-25.2-6-49.6-14.2-72.9-25.5c-5.2-2.5-10.3-5.4-15.3-8.4
		c-1.2-0.7-2.5-2.5-2.5-3.7c0.8-15.6,1.8-31.2,2.9-46.9c0-0.6,0.5-1.2,0.6-1.3c15.8,6.6,31.1,14,47.1,19.5
		c18.8,6.5,38.2,11.5,57.4,16.9c13.7,3.8,11,1.7,10.4,14.3c-1.4,28.8-3.2,57.5-4.3,86.3c-0.4,10,0.5,20,0.8,30c0.1,2.3,0,4.6,0,7.8
		c-6.3-1.4-12.1-2.6-17.7-4.2c-0.9-0.3-1.6-2.6-1.7-4c-0.2-19.8-0.3-39.6-0.4-59.5c0-5.2-0.2-10.3,0.1-15.5
		C325.2,575.9,324.1,574.5,320.6,573.6z M325,669.5c0-0.6,0.2-1.3,0.4-3.1c6.5,1.6,12.7,2.9,18.7,4.7c1,0.3,1.7,2.8,2,4.5
		c2.9,19.6,5.2,39.2,8.7,58.7c2.6,14.3,6.9,28.4,10.4,42.6c0.6,2.2,1.2,4.5,2.1,7.6c-3.5-0.5-6.6-0.7-9.5-1.4
		c-9.8-2.5-19.6-5.2-29.4-7.8c-2.4-0.7-3.9-1.6-3.9-4.7C324.8,736.8,324.9,703.2,325,669.5z M384.4,843.7
		c-17.5-7.2-34.8-14.9-52.2-22.3c-5.2-2.2-7.6-5.6-7.3-11.5c0.4-8.6,0.1-17.2,0.1-26.6c12.2,2.9,23.2,6.2,34.5,7.9
		c9.4,1.4,14.4,5.7,17.8,14.5c5.4,14,13.7,26.5,24,37.7c1.6,1.7,2.8,3.6,3.7,6.5C398,847.9,391,846.4,384.4,843.7z M405.2,833.4
		c-10.8-10.2-16.9-22.9-23.1-37c8.3,1.3,15.6,2.4,23.1,3.5C405.2,811.4,405.2,822.4,405.2,833.4z M405.2,791.9
		c-7.9-1.2-15.6-2-22.9-3.8c-2.3-0.6-4.8-3.4-5.8-5.8c-9.7-25.4-15.2-51.9-18.9-78.8c-1.3-9.7-2.3-19.4-3.6-30.1
		c7.5,1.1,14.2,2,20.8,2.9c8.7,1.3,17.4,2.7,26.1,4c2.7,0.4,4.5,0.9,4.5,4.4c-0.1,34.8,0.1,69.6,0.2,104.3
		C405.5,789.7,405.4,790.3,405.2,791.9z M405.4,670.5c0,0.3-0.2,0.6-0.7,2.3c-11.3-1.7-22.6-3.3-34-5.1c-2.5-0.4-4.9-1-7.3-1.5
		c-10.4-2.1-10.2-2.1-10.8-12.5c-2.5-40.2-0.2-80.2,3.9-120.2c0.1-1.1,0.4-2.2,0.8-4.2c8.8,1.3,17.5,2.6,26.1,3.9
		c6.1,0.9,12.1,2,18.2,2.9c2.4,0.4,3.9,1,3.9,4C405.5,583.6,405.5,627.1,405.4,670.5z M552.9,215.8c-0.4,0.1-0.8,0.1-1.1,0.2
		c-10.1-13.4-20.2-26.8-30.9-41.1c3.1,0.3,5.8-0.1,8.1,0.7c6.9,2.4,13.6,5.3,20.4,7.9c2.7,1,3.7,2.6,3.7,5.6
		C552.7,198,552.9,206.9,552.9,215.8z M528.5,161.4c8.7-1.7,16-3.2,23.8-4.7c0,6.4,0,12.2,0,18.6c-7.1-2.6-14.2-5-21-8
		C530.1,166.8,529.7,164,528.5,161.4z M552.8,148.2c-10.4,2.1-20.6,4.2-30.8,6.3c-0.2-0.7-0.5-1.4-0.7-2c9.1-6.5,19.1-11,31.1-13
		C552.5,142.8,552.6,145.2,552.8,148.2z M506,132.6c9.7,0.6,18.8,1.2,28.8,1.9c-9.1,5.6-16.9,10.6-24.8,15.4c-2.2,1.4-4,0.9-4-2
		C505.9,143.1,506,138.3,506,132.6z M497.4,132.6c0,6.5,0,12.1,0,19c-10-5.6-19.2-10.9-28.5-16.1c0-0.4,0-0.8,0-1.2
		C478.2,133.8,487.5,133.2,497.4,132.6z M452.3,186.8c9.2-3.9,18.6-7.7,27.8-11.5c0.2,0.4,0.4,0.7,0.7,1.1
		c-9.8,13.1-19.6,26.2-30.1,40.3c0-9.7,0-18.5,0.1-27.2C450.8,188.6,451.5,187.2,452.3,186.8z M451.3,177.3c0-7,0-14,0-21.7
		c7.4,1.5,14.8,2.9,22.5,4.4c-0.3,9.4-0.3,9.4-8.2,12.3c-4.2,1.6-8.4,3.2-12.6,4.8C452.7,177.2,452.4,177.2,451.3,177.3z
		 M480.2,152.8c-9-1.7-18.1-3.1-27-5.4c-1.6-0.4-2.2-4.6-2.7-7.4C461.9,141.7,471.8,145.3,480.2,152.8z M497.4,863.9
		c-14.9-1.4-29.3-2.6-43.6-4.1c-1.1-0.1-2.9-1.9-2.9-3c-0.2-17-0.1-33.9-0.1-50.9c15.8,0,31.1,0,46.7,0
		C497.4,825.3,497.4,843.9,497.4,863.9z M497.3,677.8c-15.2,0-30.4,0-46.3,0c0-46.1,0-91,0-136.9c15.3,0.7,30.6,1.4,46.3,2.1
		C497.3,588.1,497.3,633,497.3,677.8z M497.4,687.1c0,37.2,0,74.2,0,112.2c-15.7-0.8-30.8-1.5-46.3-2.3c0-37.4,0-74.4,0-112
		C466.5,685.8,481.8,686.5,497.4,687.1z M497.4,534.6c-15.4-0.5-30.7-1-46.4-1.5c0-47.4,0-94.4,0-142.1c15.7,0.9,30.9,1.8,46.4,2.7
		C497.4,440.7,497.4,487.3,497.4,534.6z M450.9,383.8c0-40.7,0-80.7,0-121.5c15.7,1.4,30.9,2.7,46.4,4c0,39.6,0,79,0,119
		C481.8,384.8,466.5,384.3,450.9,383.8z M497.5,258.1c-15.6-1.2-30.9-2.4-46.7-3.6c0.1-9.3-2.3-18.2,3.2-25.9
		c11-15.4,22.3-30.7,33.5-46c2.4-3.3,5.5-4.7,10-3.2C497.5,205.4,497.5,231.2,497.5,258.1z M481.5,164.6c9.6-9,27.5-9.3,40-0.5
		C513.4,173.7,489.7,173.8,481.5,164.6z M552.5,859.4c-15.2,1.4-30.4,2.8-46.3,4.2c0-19.4,0-38.1,0-57.7c15.8,0,30.9,0,46.3,0
		C552.5,823.2,552.5,840.8,552.5,859.4z M552.4,541c0,45.4,0,90.4,0,136.5c-15.1,0-30.3,0-46.1,0c0-44.4,0-89.3,0-134.3
		C521.7,542.5,536.8,541.8,552.4,541z M506.4,533.4c0-45.7,0-92.2,0-139.4c15.1-0.9,30.3-1.9,46-2.8c0,47.1,0,94.2,0,142.2
		C537,533.4,521.9,533.4,506.4,533.4z M552.4,685.3c0,37.1,0,73.9,0,111.4c-15.3,0.8-30.3,1.7-46.1,2.6c0-37.8,0-74.7,0-112
		C521.6,686.6,536.7,686,552.4,685.3z M552.6,383.5c-15.4,0.6-30.6,1.2-46.4,1.8c-0.1-2-0.3-3.6-0.3-5.2c0-36.2,0.1-72.3-0.1-108.5
		c0-4.3,1.1-5.6,5.5-5.8c13.6-0.8,27.2-2.1,41.2-3.3C552.6,303,552.6,342.8,552.6,383.5z M551.9,254.3c-14.9,1.2-30.1,2.3-45.8,3.6
		c0-26.7,0-52.5,0-78.4c3.7-1.1,6.8-0.4,9,2.6c11.7,16.1,23.6,32.2,35,48.6C553.5,235.5,553.7,244.5,551.9,254.3z M775.9,257.7
		c1.4,1.5,2.7,2.7,3.7,4c8.3,10.9,16.6,21.7,24.7,32.7c0.8,1.1,0.6,3.8-0.1,5.2c-9.7,19.9-23.7,36.5-39.9,51.3
		c-5,4.6-10.5,8.7-16.3,13.5c-5-9.9-9.6-18.8-14.3-28.1c3.5-2.9,6.9-5.8,10.3-8.6c14.7-12,26-26.4,30-45.3
		C775.6,274.6,775.3,266.5,775.9,257.7z M599.9,641.3c16.9-2.6,33.8-5,51.1-7.6c0,9.8,0,19.7,0,30.7c-17.4,2.8-35.2,5.6-53.7,8.5
		c0-10.6-0.1-19.7,0.1-28.8C597.5,643.1,599,641.5,599.9,641.3z M597.8,576.4c0-13.5,0-26.4,0-39.4c15.7-2.6,31.4-5.1,48-7.8
		c1.4,13.1,2.7,25.9,4.2,39.4C632.2,571.2,615.3,573.8,597.8,576.4z M597.6,800.1c7.8-1.2,15.7-2.4,24.7-3.8
		c-6.4,14.4-14.1,26.9-24.7,39.4C597.6,823.1,597.6,812,597.6,800.1z M621.1,788.1c-7.7,1.1-15.4,2.5-23.4,3.8
		c0-37.1,0-73.7,0-110.7c17.4-2.8,34.4-5.5,52.2-8.3c-0.4,6.3-0.6,12.2-1.3,18.1c-3.8,31.1-9.5,61.8-20.5,91.3
		C626.7,786,624.8,787.6,621.1,788.1z M645.7,752.2c6.3-24.6,9.9-49.6,11.9-74.9c0.4-4.6,1.4-7.4,6.6-7.9c4.7-0.5,9.3-1.9,14.5-3.1
		c0,18.1,0,35.7,0,54c19-9.1,36.1-19.8,51.4-33.3c15.4-13.6,27.6-29.7,36.4-48.3c0.7,0.3,1.4,0.6,2.1,0.8
		c-4.2,16.2-7.5,32.7-12.9,48.6c-7.2,21.2-15.9,41.9-24.3,62.7c-1,2.5-3.6,5-6,6.1c-27.6,11.9-55.9,21.4-85.5,27
		c-0.9,0.2-1.9,0.1-3.1,0.2C639.8,773.2,643,762.8,645.7,752.2z M660.1,633.3c0-0.9,1.7-2.2,2.9-2.5c5-1.3,10-2.4,15.6-3.6
		c0,9.9,0.1,19.2-0.1,28.5c0,1-1.4,2.7-2.4,3c-5.4,1.4-11,2.4-16.1,3.5C660,652.3,659.9,642.8,660.1,633.3z M660.4,566.1
		c-0.6,0.1-1.3,0-2.6,0c-1.3-13-2.5-25.6-3.8-38.9c42.1-9.3,82.9-22.4,121.4-43.2c0.4,1.3,0.8,2.2,0.9,3c0.8,11.6,1.7,23.3,2.3,34.9
		c0.1,1.6-1.3,4.2-2.7,4.9C739.1,545,700.5,557.6,660.4,566.1z M769.9,477.6c-24.9,13.3-51,23.6-78.1,31.4
		c-11,3.2-22.2,5.8-33.3,8.6c-1.6,0.4-3.2,0.5-5.6,0.9c-6.7-46.9-16.4-92.6-29.4-137.2c18.3-5.4,36.2-10.6,54.7-16
		c0,35.2,0,70.2,0,106.2c30.9-8.1,59.4-19.6,87.4-34.8c2.7,12.5,5.4,24.5,7.7,36.5C773.5,474.4,771.4,476.7,769.9,477.6z
		 M639.9,160.9c4.2,1.7,8.5,3.2,12.6,5.1c37.2,16.7,71.1,38.5,100.2,67.2c14.7,14.5,18.9,35.6,11.1,54.8
		c-7,17.1-19.4,29.5-34.6,40.6c-23.3-39.5-52.1-73.5-88.4-101.9c20.2-22.2,20-44-2-65.1C639.2,161.4,639.6,161.2,639.9,160.9z
		 M597.1,184.4c0.9-11.9,0.2-23.9,0.2-36.6c15.2,5.8,28.4,13,39.2,24c15.8,16.1,14.7,34.1-2.9,48.8c-8.5-5.6-16.7-12-25.8-16.6
		C599.2,199.6,596.3,193.9,597.1,184.4z M627.9,226.8c-10.6,5.5-20.1,10.4-30.2,15.7c0-12.3,0-23.2,0-35.3
		C607.9,213.8,617.3,219.9,627.9,226.8z M597.3,274.5c0.4-6.8-0.1-13.7,0.2-20.5c0.1-1.4,1.2-3.4,2.4-4.1
		c11.4-5.7,23-11.2,35.6-17.3c8.5,7.6,17.5,16.5,27.4,24.3c12.6,9.9,17.3,22,16,38.1c-1.4,18.7-0.3,37.6-0.6,56.5
		c0,1.7-1.5,4.4-2.8,4.8c-17.4,5.5-35,10.7-52.5,15.9c-0.6,0.2-1.3,0.1-2.3,0.1c-3.7-11-7.4-22-11.1-33c-0.7-2.2-1.2-4.6-2.3-6.6
		C597.5,314.4,596.2,294.7,597.3,274.5z M612.9,374.3c-5.6,1-10.1,1.9-15.1,2.8c0-14.8,0-29.3,0-43.8c0.4-0.1,0.7-0.2,1.1-0.4
		C603.5,346.4,608,360,612.9,374.3z M602.4,384.6c12.8-2.3,12.8-2.6,16.3,9.7c10.7,38.4,18.9,77.2,24.7,116.7
		c0.5,3.1,0.6,6.3,1,10.2c-15.7,2.5-30.9,5-46.9,7.6c0-2.5,0-4.3,0-6.1c0-43.8,0-87.7-0.1-131.5C597.2,387.2,598,385.4,602.4,384.6z
		 M704.7,797.7c-2.4,3.6-5.8,7-9.4,9.4c-26.6,17-55.2,30.1-85.3,39.7c-3.2,1-6.4,1.6-9.7,2.3c-0.7,0.2-1.5,0-3,0
		c1.4-1.8,2.3-3.2,3.4-4.4c12.5-13.2,21.9-28.5,29.1-45.1c1.8-4.2,4.2-6.3,8.9-7.1c26.8-4.8,52.5-13.3,77.9-22.8
		c1.5-0.6,3.1-1.1,5.5-2c-0.8,2-1.2,3.3-1.9,4.5C715.2,780.7,710.3,789.4,704.7,797.7z M722.4,788.1c-0.4-0.3-0.7-0.6-1.1-0.9
		c4.4-8,8.7-15.9,13.2-23.8c0.6-1.1,1.8-2.1,2.9-2.7c10.8-5.9,21.6-11.6,32.6-17.1C755.8,760.2,740.1,775.2,722.4,788.1z
		 M854.7,589.9c-10.8,40.7-27.5,78.8-51.9,113.2c-4.2,5.9-9.1,11.7-14.9,16c-13,9.5-26.7,18-40.2,26.9c-1.3,0.9-2.9,1.3-5.3,2.4
		c1.7-4.4,3-7.9,4.5-11.4c13.9-32.6,23.9-66.3,29.8-101.2c0.6-3.6,2.2-5.7,5.5-7.5c22.1-11.9,43.1-25.3,60.4-43.7
		c6-6.4,11.4-13.3,17.1-20c0.3,0.1,0.6,0.1,0.9,0.2C858.6,573.1,856.9,581.6,854.7,589.9z M851.5,399.4c0.5,0,1.1-0.1,1.6-0.1
		c2.9,13.2,6.1,26.4,8.5,39.7c5,27.3,4.9,55,4.2,82.6c-0.3,11.2-4.4,21.4-9.8,31.1c-12.8,22.8-31.9,39.5-53.4,53.6
		c-7,4.6-14.3,8.8-22.6,13.7c1.4-10.6,2.6-19.8,3.7-29c3.3-26.8,3.4-53.8,2.1-80.8c-0.4-9.5-1.6-18.9-2-28.3
		c-0.1-1.5,1.5-3.4,2.8-4.5c12.3-9.9,25.2-19.1,36.8-29.8c13-12,22.2-26.9,26.7-44.3C850.4,402,851,400.7,851.5,399.4z M844.1,392.4
		c-2,17.3-10.8,31.3-21.7,44.2c-11.4,13.5-25.2,24.1-40.7,33.8c-2.9-12.5-5.8-24.2-8.4-36.1c-0.3-1.3,1.3-3.4,2.6-4.4
		c9.8-8.2,20.4-15.6,29.6-24.4c13.2-12.6,22.5-28,28.1-45.4c0.6-1.9,1.4-3.7,2.4-6.2C842.9,366.4,845.7,378.9,844.1,392.4z"/>
</g>
</svg>
