<?xml version="1.0" encoding="utf-8"?>
<!-- Generator: Adobe Illustrator 21.0.0, SVG Export Plug-In . SVG Version: 6.00 Build 0)  -->
<svg version="1.1" id="Layer_1" xmlns="http://www.w3.org/2000/svg" xmlns:xlink="http://www.w3.org/1999/xlink" x="0px" y="0px"
	 width="781.5px" height="842px" viewBox="0 0 781.5 842" style="enable-background:new 0 0 781.5 842;" xml:space="preserve">
<style type="text/css">
	.st0{fill:#FFFFFF;}
</style>
<g>
	<g>
		<path class="st0" d="M382.7,0c5.9,0,11.7,0,17.6,0c1,0.3,1.9,0.6,2.9,0.8c5.9,1.2,11.4,3.4,16.7,6.3
			C531.7,68.6,643.5,130,755.3,191.4c6,3.3,11.1,7.7,15.3,13.1c5.3,6.8,9,14.4,10.9,22.9c0,129.4,0,258.7,0,388.1
			c-0.2,0.3-0.4,0.7-0.5,1c-4.2,15.7-13,27.6-27.4,35.5c-109,59.8-217.9,119.7-326.9,179.5c-7.9,4.4-15.8,8.8-24.9,10.5
			c-7.1,0-14.3,0-21.4,0c-7.2-1.8-13.9-4.6-20.5-8.2c-45.1-24.9-90.3-49.6-135.4-74.4c-65.6-36-131.2-72-196.7-108.1
			c-3.5-1.9-7-4.3-9.9-7C9.8,636.8,4.6,627.5,1.6,617c-0.4-1.3-1-2.6-1.6-3.8C0,485,0,357,0,228.9c0.5-1.1,1.2-2.2,1.5-3.4
			c4.7-15.6,13.6-27.6,28.2-35.5c45.7-24.8,91.2-50,136.8-75.1C232.3,78.8,298,42.8,363.7,6.7c4.7-2.6,9.7-4.5,15-5.6
			C380,0.8,381.4,0.4,382.7,0z M515,306.4c0.3-0.1,0.6-0.2,0.9-0.2c0.8,1.4,1.6,2.7,2.3,4.1c13.3,25.7,26.6,51.4,39.9,77.1
			c1.7,3.3,3.6,6.5,5.7,9.5c4.6,6.7,11.1,9.8,19.3,9.4c7.2-0.4,12.2-3.8,14-10.8c0.9-3.4,1.2-7,1.2-10.6c0.1-23.1,0.1-46.2,0.1-69.3
			c0-14.2,0-28.3,0-42.5c0-3.8-0.4-4.1-4.2-4.2c-4.6-0.1-9.2,0-13.8,0c-6.3,0-6.3,0-6.3,6.3c0,29.2,0,58.4,0,87.6
			c0,1.4-0.1,2.9-0.2,4.3c-0.3,0.1-0.6,0.2-1,0.2c-0.7-1.3-1.5-2.5-2.1-3.8c-13.5-25.9-26.8-51.9-40.4-77.7c-2.1-4-4.8-7.9-7.7-11.4
			c-4.3-5.1-10.1-7.2-16.7-6.8c-8.1,0.4-12.8,4.1-14.5,12.1c-0.7,3.4-0.9,7.1-0.9,10.6c-0.1,32.5,0,65.1,0,97.6c0,3.8,0,7.7,0,11.5
			c0,5.4,0,5.4,5.2,5.4c4.5,0,8.9,0,13.4,0c5.6,0,5.6,0,5.6-5.8c0-29.5,0-58.9,0-88.4C514.9,309.3,515,307.9,515,306.4z
			 M306.7,350.8c1.6-0.7,2.7-1.3,3.8-1.7c11.4-4.4,18.1-12.8,20.8-24.6c1.9-8.4,2-17,0.6-25.5c-1.8-10.4-6.5-19.1-16.1-24.3
			c-3.4-1.9-7.2-3.2-11-4.3c-9-2.6-18.4-2.8-27.7-2.7c-12.1,0.1-24.2,0.8-36.2,2.6c-7.7,1.2-6.9,0.8-6.9,8c0,39.8,0,79.6,0,119.4
			c0,1,0,2,0,3.1c0.1,3.8,0.4,4.2,4.2,4.2c6.4,0.1,12.8,0,19.1,0c1.1,0,2.2-0.3,3.7-0.5c0-1.9,0-3.5,0-5.2c0-13.6,0-27.3,0-40.9
			c0-1.6,0.2-3.2,0.3-4.8c4.4,0,8.5,0.2,12.5-0.1c3.3-0.2,5,1.1,6.5,3.9c7.8,14.7,16,29.4,23.8,44.1c1.4,2.6,3,3.6,6,3.6
			c7.5-0.2,15.1,0,22.6-0.1c1.2,0,2.4-0.2,4.5-0.3C327,386.4,316.8,368.8,306.7,350.8z M463.6,337c0-4.8,0.2-9.7,0-14.5
			c-0.6-9.6-1.8-19-5.2-28.1c-4.7-12.6-13.5-20.9-26.6-24.1c-14.7-3.6-29.6-3.6-44.3,0.1c-12.6,3.2-21.3,11.1-26.1,23.2
			c-3,7.7-4.4,15.7-5.2,23.8c-1.2,13.1-1.2,26.2,0,39.3c0.7,7.6,2,15.2,4.6,22.4c4.8,13.3,13.9,21.7,27.6,25
			c14.4,3.4,28.8,3.4,43.2-0.1c13.1-3.2,22-11.4,26.7-24c0.9-2.5,1.7-5.1,2.4-7.7C463.5,360.7,463.9,348.8,463.6,337z M203.9,337.2
			C203.9,337.2,203.9,337.2,203.9,337.2c0-21.2,0-42.3,0-63.5c0-4.3-0.4-4.6-4.6-4.7c-5.5,0-11,0-16.4,0c-6.1,0-6.1,0-6.1,6.1
			c0,41.2,0,82.3,0,123.5c0,0.8,0,1.5,0,2.3c0.1,3.7,0.3,4,3.9,4c6.4,0.1,12.7,0.1,19.1,0c3.6,0,3.9-0.4,4.1-3.9
			c0.1-1.3,0-2.5,0-3.8C203.9,377.2,203.9,357.2,203.9,337.2z M186.4,514.9c0-2.1,0-3.7,0-5.4c0-15.4,0-30.9,0-46.3
			c0-7.1,0.3-6.8-7.5-6.7c-0.1,0-0.3,0-0.4,0c-1.7,0.1-2.5,1-2.5,2.7c0,0.6,0,1.3,0,1.9c0,39.9,0,79.8,0,119.8
			c0,1.4,0.2,2.7,0.3,4.3c1.7,0.1,3.1,0.2,4.5,0.2c5.4,0,5.5,0,5.5-5.5c0-16.8,0-33.7,0-50.5c0-1.6,0.2-3.2,0.3-5.4
			c24.5-0.1,48.6,0,73.2,0c0.2,2.2,0.4,3.9,0.4,5.7c0,16.8,0,33.7,0,50.5c0,1.6,0.2,3.2,0.3,4.7c0.7,0.2,1.1,0.4,1.5,0.5
			c0.8,0.1,1.5,0.1,2.3,0.1c6.1,0.1,6.1,0.1,6.1-6.1c0-39,0-78.1,0-117.1c0-0.9,0-1.8-0.1-2.7c-0.2-2.5-0.7-3-3.3-3.1
			c-0.5,0-1,0-1.5,0c-5.3,0-5.3,0-5.3,5.3c0,16.3,0,32.7,0,49c0,4.1-0.2,4.3-4.3,4.4c-0.3,0-0.5,0-0.8,0c-21.2,0-42.3,0-63.5,0
			C190.2,515.2,188.7,515,186.4,514.9z M295.3,585.4c3.5,0,6.3,0.1,9-0.1c0.7,0,1.5-0.9,1.9-1.5c0.6-1,0.9-2.1,1.3-3.2
			c3.8-10,7.6-20,11.2-30.1c0.8-2.3,2-3.5,4.7-3.4c17.5,0.1,34.9,0.1,52.4,0c2.3,0,3.5,0.8,4.2,2.9c1.9,5.3,3.9,10.5,5.9,15.8
			c2.1,5.6,4.1,11.2,6.3,16.8c0.4,1.1,1.4,2.5,2.3,2.6c3,0.3,6,0.7,9.4-0.5c-1-2.8-2-5.4-2.9-8c-14.1-37.5-28.2-74.9-42.4-112.3
			c-0.8-2.2-1.8-4.5-3.3-6.4c-2.9-3.9-8.3-3.7-11,0.2c-1.2,1.7-2.1,3.8-2.8,5.8c-14.9,38.8-29.7,77.6-44.5,116.5
			C296.5,581.9,296.1,583.2,295.3,585.4z M532.1,515.7c-0.3-0.2-0.7-0.3-1-0.5c0-1.5,0-3,0-4.5c0-15.9,0-31.9,0-47.8
			c0-5.9,1.2-6.4-6.6-6.3c-3.2,0.1-3.6,0.6-3.7,3.9c0,0.5,0,1,0,1.5c0,39.4,0,78.8,0,118.3c0,1.1-0.1,2.3,0.2,3.4
			c0.2,0.7,1,1.7,1.6,1.7c2.7,0.2,5.5,0.7,8.6-0.6c0-5.1,0-10.2,0-15.2c0-5.1,0-10.2,0-15.3c0-5.2,0-10.5,0-15.7
			c0.1-5-0.3-10.1,0.3-16.1c1.9,1.8,3.2,2.9,4.4,4.2c17.8,18.6,35.7,37.2,53.5,55.8c1,1.1,2.2,2.2,3.4,3c1.3,0.8,10.4,0.2,12.6-0.6
			c-5.3-5.5-10.5-10.9-15.7-16.3c-5.3-5.5-10.6-11-15.9-16.5c-5.2-5.4-10.5-10.8-15.7-16.3c-5.2-5.5-10.7-10.8-15.9-16.7
			c3.8-3.8,7.2-7.2,10.6-10.6c3.4-3.4,6.9-6.9,10.3-10.3c3.3-3.3,6.7-6.7,10-10c3.4-3.4,6.9-6.8,10.3-10.3
			c3.4-3.4,6.9-6.8,10.3-10.3c3.3-3.4,6.9-6.5,9.8-10.5c-2.6-0.4-5-0.2-7.4-0.4c-3.4-0.3-5.7,1-8,3.3
			c-17.5,17.7-35.1,35.3-52.7,52.9C534.3,513.7,533.2,514.7,532.1,515.7z M495.4,457.9c-1.4-0.3-2.5-0.7-3.6-0.8
			c-8.1-0.7-16.2-1.6-24.4-1.9c-6.6-0.2-13.2,0.4-19.7,2c-13.3,3.3-22.4,11.2-26.7,24.3c-1.3,3.9-2.3,7.9-2.9,11.9
			c-2.2,12.9-2,25.9-1.6,38.9c0.3,9.1,1.3,18,4,26.8c4.3,14.2,13.7,22.9,28.3,26.1c2.1,0.5,4.3,0.8,6.4,1.1
			c9.9,1.4,19.9,0.8,29.8-0.2c3.4-0.4,6.7-1.1,9.8-1.6c0.2-0.9,0.4-1.3,0.4-1.7c0.2-6.1-0.5-6.5-6.4-5.9c-6.7,0.6-13.5,1.2-20.2,1.1
			c-6.9,0-13.7-1.1-20.2-3.6c-7.9-3-13.6-8.4-16.8-16.3c-2.1-5-3.2-10.2-3.7-15.6c-1.4-14.4-1.4-28.8,0-43.2
			c0.3-2.9,0.8-5.8,1.5-8.7c3-13.7,11.4-21.8,25-24.7c10-2.2,20-2,30.1-1.1c3.3,0.3,6.5,0.7,10.2,1.2
			C494.8,463.2,495.1,460.7,495.4,457.9z"/>
		<path class="st0" d="M261.5,290.4c0.5-0.2,0.8-0.4,1.2-0.5c9.4-1.3,18.8-1.9,28.2,0c9.8,2,14.5,7.5,14.8,17.5
			c0.1,3.5-0.1,7.2-0.8,10.6c-1.2,6-5,10.1-10.7,11.9c-4.1,1.2-8.5,2-12.7,2.2c-5.7,0.3-11.5-0.2-17.2-0.4c-1.9-0.1-3.2-0.6-3.2-2.8
			c0-12.2,0-24.5,0.1-36.7C261.1,291.5,261.4,290.9,261.5,290.4z"/>
		<path class="st0" d="M382.7,336.9c0.5-8,0.8-16,1.4-24c0.2-2.6,0.9-5.3,1.7-7.8c2.6-8.1,8.1-13,16.6-14.5c5.9-1,11.7-0.9,17.4,0.7
			c6,1.7,10.4,5.5,12.7,11.3c1.3,3.4,2.5,7,2.8,10.7c1.6,16.8,1.9,33.6-0.4,50.3c-0.2,1.3-0.5,2.5-0.8,3.7
			c-2.8,10.3-8.9,15.3-19.5,16.6c-5,0.6-9.9,0.3-14.8-0.9c-6.4-1.7-10.7-5.6-13.3-11.7c-2.1-5-3-10.3-3.2-15.7
			c-0.2-6.2-0.1-12.5-0.1-18.7C383.1,336.9,382.9,336.9,382.7,336.9z"/>
		<path class="st0" d="M323.6,538c8.5-22.6,16.9-45,25.4-67.6c2.1,0.8,2.1,2.5,2.6,3.8c5.4,14.2,10.6,28.4,16,42.6
			c2.1,5.7,4.3,11.5,6.4,17.2c0.5,1.3,0.8,2.6,1.2,3.9C371.9,539.1,328.2,539.2,323.6,538z"/>
	</g>
</g>
</svg>
