<?xml version="1.0" encoding="utf-8"?>
<!-- Generator: Adobe Illustrator 21.0.0, SVG Export Plug-In . SVG Version: 6.00 Build 0)  -->
<svg version="1.1" id="Layer_1" xmlns="http://www.w3.org/2000/svg" xmlns:xlink="http://www.w3.org/1999/xlink" x="0px" y="0px"
	 width="1496.2px" height="532.6px" viewBox="0 0 1496.2 532.6" style="enable-background:new 0 0 1496.2 532.6;"
	 xml:space="preserve">
<style type="text/css">
	.st0{fill:#FFFFFF;}
</style>
<g>
	<g>
		<path class="st0" d="M1496.2,24.2c-31.8,0-63.6,0-95.4-0.1c-3.9,0-4.7,1.3-4.7,4.9c0.1,25.8,0.2,51.6,0,77.4
			c0,4.2,1.5,4.9,5.2,4.9c22.5-0.1,45-0.1,67.5-0.1c2,0,3.9,0,6.3,0c0,7.4,0,14.2,0,21.8c-26.2,0-52.2,0-78.5,0
			c-0.1,1.9-0.3,3.2-0.3,4.5c0,26,0,52-0.1,77.9c0,3.6,0.8,4.9,4.7,4.9c31.8-0.2,63.6-0.1,95.4-0.1c0,7.3,0,14.7,0,22
			c-38.2-0.1-76.3-0.1-114.5-0.2c-2.3,0-4.6,0-7.1,0c0-80.1,0-159.6,0-239.6c2.2,0,4.2,0,6.1,0c36.5,0,73,0,109.5,0c2,0,4-0.1,6-0.2
			C1496.2,9.5,1496.2,16.8,1496.2,24.2z"/>
		<path class="st0" d="M177.3,242c0-65.9,0-131.2,0-196.4c-0.3-0.2-0.7-0.3-1-0.5c-1,1.4-2,2.7-2.9,4.1
			c-39.7,62.8-79.4,125.5-119,188.3c-2.1,3.4-4.3,4.7-8.3,4.6c-7.6-0.3-15.3-0.1-23.4-0.1c0-79.8,0-159.3,0-239.3
			c6.8,0,13.7,0,21.1,0c0,69.3,0,138.7,0,208.1c0.4,0.2,0.7,0.3,1.1,0.5c0.8-1.2,1.7-2.4,2.5-3.7C89.6,140.9,131.7,74.2,173.8,7.4
			c2.3-3.6,4.5-5.6,9-5.2c5.1,0.5,10.3,0.1,15.9,0.1c0,69.7,0,139.1,0,208.5c0.4,0.1,0.7,0.3,1.1,0.4c0.9-1.4,1.9-2.8,2.8-4.2
			c42.1-66.6,84.2-133.1,126.1-199.8c2.3-3.7,4.6-5.4,9.1-5.1c6.3,0.4,12.6,0.1,19.6,0.1c-0.9,1.7-1.5,3-2.3,4.2
			c-48.8,77.3-97.7,154.5-146.5,231.8c-1.7,2.7-3.5,3.8-6.8,3.7C194,241.8,186,242,177.3,242z"/>
		<path class="st0" d="M1177.9,529.6c-0.5,0.1-0.7,0.2-0.8,0.2c-7.5,0-15,0-22.5,0c-3.1-6.5-6.4-12.9-9.3-19.6
			c-23-53.1-45.9-106.3-68.9-159.4c-0.7-1.6-1.5-3.1-3.3-4.5c0,61,0,122,0,183.3c-7.5,0-14.4,0-21.5,0c0-79.7,0-159.1,0-239.3
			c7,0,14.1-0.2,21.2,0.2c1.2,0.1,2.6,2.7,3.3,4.3c13.3,30.7,26.6,61.4,39.8,92.1c15.8,36.7,31.6,73.3,47.4,110
			c0.6,1.5,1.4,2.9,2.6,5.2c4.7-10.7,9-20.5,13.3-30.4c25.5-59.1,51.1-118.2,76.5-177.3c1.3-3,2.6-4.4,6.1-4.2
			c5.8,0.4,11.6,0.1,17.9,0.1c0,79.8,0,159.4,0,239.3c-6.7,0-13.4,0-21,0c0-61,0-122.1,0-183.3c-0.5-0.1-0.9-0.2-1.4-0.3
			C1230.8,407.3,1204.3,468.6,1177.9,529.6z"/>
		<path class="st0" d="M708,242c-7.4,0-14.5,0.2-21.6-0.2c-1.3-0.1-2.8-2-3.7-3.4c-34-56.7-67.9-113.4-101.8-170.1
			c-4.8-8.1-9.7-16.2-15.6-24c0,65.7,0,131.3,0,197.3c-7.5,0-14.4,0-21.6,0c0-79.5,0-159.1,0-239.3c7.3,0,14.6-0.2,21.8,0.2
			c1.4,0.1,2.9,2.3,3.9,3.9c29.6,49.4,59.1,98.9,88.7,148.3c8.3,13.9,16.6,27.7,24.9,41.6c0.8,1.4,1.7,2.6,3.5,3.8
			c0-65.7,0-131.4,0-197.4c7.5,0,14.3,0,21.6,0C708,82.4,708,161.9,708,242z"/>
		<path class="st0" d="M1034.3,244.3c-64.6,2.5-123-55.2-122.5-122.8c0.5-64,55.2-122.7,124.9-121.4
			c64.5,1.2,119.8,55.6,119.9,122.2C1156.7,190.9,1097.9,246.6,1034.3,244.3z M1033.8,222.6c52.4,2,101.4-44,100.8-100.2
			c-0.6-55.2-44.9-100.2-99.5-100.2C978.6,22.1,934,66.4,934,122.5C934,178.1,978.4,222.6,1033.8,222.6z"/>
		<path class="st0" d="M1175.3,241.8c0-80,0-159.4,0-238.7c0.5-0.3,0.8-0.6,1.1-0.6c25.8,0.5,51.8-1.1,77.3,2.1
			c47.1,5.8,86.1,43.6,96.9,90.3c13.5,58.5-18,117.9-73.9,139.6c-12.8,5-26.2,7.4-40,7.5c-19.3,0.1-38.6,0-58,0
			C1177.6,242,1176.7,241.9,1175.3,241.8z M1196.6,220.3c11.5,0,22.6,0.5,33.7-0.1c10.2-0.6,20.8-1,30.6-3.7
			c48.7-13.2,79.3-64.1,69.1-113.8c-8.5-41.4-43.2-73.8-84.5-77.7c-14.2-1.3-28.6-0.5-42.9-1.1c-5.2-0.2-6.3,1.5-6.3,6.4
			c0.2,61.3,0.1,122.7,0.1,184C1196.3,216.2,1196.5,218,1196.6,220.3z"/>
		<path class="st0" d="M663.3,530c0-80,0-159.5,0-238.9c0.5-0.3,0.8-0.6,1.1-0.6c24.6,0.3,49.5-1.2,73.9,1.4
			c48.5,5,89.2,43.2,100.2,91.1c13.4,58.3-17.8,117.5-73.5,139.3c-13,5.1-26.5,7.6-40.5,7.7c-18.5,0.1-37,0-55.5,0
			C667.2,530,665.5,530,663.3,530z M684.3,508.3c11.8,0,22.8,0.5,33.7-0.1c10.2-0.6,20.8-1,30.6-3.6c47.5-12.7,77.9-61.1,69.9-110.2
			c-7-43-42.5-77.5-84.8-81.4c-14.2-1.3-28.6-0.7-42.9-0.9c-6.4-0.1-6.5,0-6.5,6.6c0,61.2,0,122.3,0,183.5
			C684.3,504,684.3,505.8,684.3,508.3z"/>
		<path class="st0" d="M179.8,529.7c-7.1,0-13.8,0-21.3,0c0-19.6,0-39.3,0-59.3c-2.3-0.1-3.9-0.3-5.5-0.3c-28.3,0-56.7,0.1-85-0.1
			c-3.6,0-5.7,1.1-7.6,4.2c-10.8,17.4-21.9,34.6-32.7,52c-1.7,2.7-3.4,4-6.7,3.8c-6.8-0.3-13.6-0.1-21-0.1c0.6-1.3,0.8-2.4,1.4-3.3
			C50.5,449,99.6,371.4,148.7,293.7c1.5-2.3,3-3.5,6-3.4c8.3,0.2,16.6,0.1,25.1,0.1C179.8,370.4,179.8,449.9,179.8,529.7z
			 M158,321.9c-0.3-0.1-0.7-0.2-1-0.2c-26.6,42-53.1,83.9-80,126.3c27.6,0,54.3,0,81,0C158,405.6,158,363.8,158,321.9z"/>
		<path class="st0" d="M609.8,529.7c-7.1,0-13.8,0-21.3,0c0-19.6,0-39.3,0-59.3c-2.3-0.1-3.9-0.3-5.5-0.3c-28.3,0-56.7,0.1-85-0.1
			c-3.6,0-5.7,1.2-7.6,4.2c-10.8,17.4-21.9,34.6-32.7,52c-1.7,2.7-3.4,4-6.7,3.8c-6.8-0.3-13.6-0.1-21-0.1c0.6-1.3,0.8-2.4,1.4-3.3
			c49.1-77.7,98.2-155.3,147.3-233.1c1.5-2.3,3-3.5,6-3.4c8.3,0.2,16.6,0.1,25.1,0.1C609.8,370.4,609.8,449.9,609.8,529.7z
			 M588.1,322c-0.3-0.2-0.7-0.3-1-0.5c-26.6,42-53.2,84-80.1,126.5c27.7,0,54.3,0,81.1,0C588.1,405.8,588.1,363.9,588.1,322z"/>
		<path class="st0" d="M1007,290.6c0,7.3,0,14,0,21.5c-2.2,0-4.2,0-6.1,0c-29.5,0-59,0.1-88.5-0.1c-4,0-5.5,0.9-5.4,5.2
			c0.2,25.7,0.2,51.3,0,77c0,3.9,1.1,5.1,5.1,5.1c22.5-0.2,45-0.1,67.5-0.1c2,0,3.9,0,6.3,0c0,7.3,0,14.2,0,21.7
			c-26.1,0-52.2,0-78.5,0c-0.1,2.1-0.3,3.5-0.3,5c0,25.7,0.1,51.3-0.1,77c0,4.7,1.6,5.4,5.8,5.4c29.3-0.2,58.7-0.1,88-0.1
			c2,0,3.9,0,6.2,0c0,7.4,0,14.3,0,21.5c-40.5,0-80.8,0-121.3,0c0-79.7,0-159.3,0-239.1C926.1,290.6,966.3,290.6,1007,290.6z"/>
		<path class="st0" d="M904.1,206.9c0,7.9,0.2,15.3-0.2,22.5c-0.1,1.5-2.3,3.4-3.9,4.1c-47.4,19.1-91.2,14-130.6-19.6
			c-50.2-42.9-51.1-113.1-23.3-156.6c32.7-51.1,96.6-71.3,152-47.4c4.4,1.9,6.6,4,6.1,9.1c-0.5,5.9-0.1,11.9-0.1,18.8
			c-28.2-17-57.5-20.6-88.1-10.1c-21.7,7.5-38.4,21.9-50.9,40.9c-23.9,36.4-19.7,86.1,8.6,119C804.6,223.5,858.6,234.8,904.1,206.9z
			"/>
		<path class="st0" d="M399.1,325.4c-56.2-32.9-109.8-8.1-134.1,24c-26.9,35.5-27.6,85.3-0.7,120.4c15.8,20.7,36.3,34.7,62.4,39.1
			c25.5,4.3,49.6,0,72.4-14.5c0,8.3,0.2,15.8-0.2,23.2c-0.1,1.3-2.2,3-3.8,3.7c-20.1,9.4-41.5,12.9-63.3,10.2
			c-49.5-6-84.7-32.9-101.4-79.2C201.3,371.7,256.3,304,318,290.9c26.1-5.5,51.6-3.1,76.3,7.6c3.4,1.5,5.3,3.2,4.9,7.3
			C398.7,312.1,399.1,318.5,399.1,325.4z"/>
		<path class="st0" d="M527.7,2.3c-1.2,2.2-2,3.8-2.9,5.3c-22.8,38.7-45.7,77.4-68.3,116.2c-1.4,2.4-2.3,5.6-2.3,8.4
			c-0.2,34.3-0.1,68.7-0.1,103c0,2,0,4,0,6.3c-7.2,0-14.1,0-21.8,0c0-1.8,0-3.8,0-5.7c0-34.5,0.1-69-0.1-103.5
			c0-3.1-0.9-6.6-2.5-9.3c-22.6-38.7-45.4-77.2-68.1-115.8c-0.8-1.4-1.5-2.8-2.6-4.9c8.3,0,15.9-0.2,23.4,0.2c1.3,0.1,2.8,2,3.7,3.4
			c18,30.4,35.8,60.8,53.8,91.2c1,1.7,2,3.3,3.5,5.7c6.3-10.6,12.1-20.4,17.9-30.2c13-22.1,26.1-44.1,39-66.3
			c1.9-3.2,3.9-4.3,7.5-4.1C514.1,2.5,520.5,2.3,527.7,2.3z"/>
		<path class="st0" d="M1402.4,390.8c8.9-15.2,17.5-29.6,26-44.1c10.4-17.6,20.9-35.2,31.1-53c1.5-2.6,3.2-3.7,6.3-3.6
			c6.7,0.2,13.3,0.1,20.7,0.1c-1,1.9-1.7,3.5-2.5,5c-22.8,38.7-45.6,77.4-68.3,116.3c-1.6,2.7-2.5,6.2-2.5,9.3
			c-0.2,34.2-0.1,68.3-0.1,102.5c0,2,0,3.9,0,6.2c-7.3,0-14.2,0-21.8,0c0-2,0-3.9,0-5.9c0-34.3,0.1-68.7-0.1-103
			c0-3.4-1.1-7.2-2.9-10.2c-22.5-38.5-45.2-77-67.8-115.4c-0.8-1.3-1.4-2.6-2.6-4.8c8.4,0,16.3-0.1,24.2,0.2c1.1,0,2.3,2.1,3.1,3.5
			c17.9,30.4,35.8,60.8,53.7,91.2C1399.9,387,1401,388.6,1402.4,390.8z"/>
	</g>
</g>
</svg>
