<svg xmlns="http://www.w3.org/2000/svg" width="1043.68" height="313.03" viewBox="0 0 1043.68 313.03"><defs><style>.cls-1{fill:#fff;}</style></defs><title>spotify</title><g id="Layer_2" data-name="Layer 2"><g id="Layer_1-2" data-name="Layer 1"><path class="cls-1" d="M156.51,0A156.51,156.51,0,1,0,313,156.51,156.51,156.51,0,0,0,156.51,0Zm71.78,225.75A9.75,9.75,0,0,1,214.88,229c-36.75-22.46-83-27.54-137.49-15.09a9.75,9.75,0,1,1-4.34-19c59.62-13.63,110.76-7.76,152,17.44A9.76,9.76,0,0,1,228.29,225.75Zm19.15-42.62a12.21,12.21,0,0,1-16.78,4c-42.06-25.85-106.2-33.34-156-18.24a12.2,12.2,0,1,1-7.09-23.35c56.85-17.25,127.51-8.89,175.82,20.79A12.2,12.2,0,0,1,247.44,183.13Zm1.65-44.38c-50.45-30-133.67-32.72-181.83-18.1a14.64,14.64,0,1,1-8.5-28C114.05,75.86,206,79.1,264,113.57a14.64,14.64,0,0,1-14.94,25.18Z"/><path class="cls-1" d="M425.82,144.49C398.8,138,394,133.52,394,124c0-9,8.45-15,21-15,12.19,0,24.27,4.59,36.94,14a1.77,1.77,0,0,0,1.34.33,1.74,1.74,0,0,0,1.17-.72l13.2-18.6a1.77,1.77,0,0,0-.34-2.41c-15.08-12.1-32.06-18-51.9-18-29.18,0-49.56,17.51-49.56,42.56,0,26.87,17.58,36.38,48,43.72,25.86,6,30.22,10.95,30.22,19.87,0,9.89-8.82,16-23,16-15.77,0-28.64-5.31-43-17.78a1.86,1.86,0,0,0-1.3-.42,1.76,1.76,0,0,0-1.21.62l-14.79,17.61a1.76,1.76,0,0,0,.18,2.45,88.2,88.2,0,0,0,59.57,22.85c31.44,0,51.76-17.18,51.76-43.77C472.17,164.92,458.74,152.5,425.82,144.49Z"/><path class="cls-1" d="M543.3,117.84c-13.63,0-24.81,5.37-34,16.37V121.82a1.77,1.77,0,0,0-1.77-1.77h-24.2a1.77,1.77,0,0,0-1.77,1.77V259.38a1.77,1.77,0,0,0,1.77,1.77h24.2a1.77,1.77,0,0,0,1.77-1.77V216c9.22,10.35,20.4,15.4,34,15.4,25.32,0,51-19.49,51-56.76S568.63,117.84,543.3,117.84Zm22.82,56.77c0,19-11.69,32.22-28.42,32.22-16.55,0-29-13.84-29-32.22s12.48-32.22,29-32.22S566.13,155.94,566.13,174.61Z"/><path class="cls-1" d="M660,117.84c-32.61,0-58.16,25.11-58.16,57.17,0,31.71,25.37,56.56,57.76,56.56,32.73,0,58.35-25,58.35-57S692.47,117.84,660,117.84ZM660,207c-17.35,0-30.42-13.94-30.42-32.42s12.62-32,30-32,30.62,13.94,30.62,32.43S677.48,207,660,207Z"/><path class="cls-1" d="M787.57,120.05H760.94V92.83a1.77,1.77,0,0,0-1.77-1.77H735a1.78,1.78,0,0,0-1.77,1.77v27.22H721.57a1.77,1.77,0,0,0-1.76,1.77v20.8a1.77,1.77,0,0,0,1.76,1.77H733.2V198.2C733.2,219.95,744,231,765.37,231A44.14,44.14,0,0,0,788,225.33a1.76,1.76,0,0,0,.89-1.53V204a1.77,1.77,0,0,0-2.56-1.59,30.5,30.5,0,0,1-14.2,3.43c-7.76,0-11.23-3.52-11.23-11.42v-50h26.63a1.77,1.77,0,0,0,1.77-1.77v-20.8A1.77,1.77,0,0,0,787.57,120.05Z"/><path class="cls-1" d="M880.34,120.16v-3.34c0-9.84,3.77-14.22,12.23-14.22a40.84,40.84,0,0,1,13.63,2.52,1.77,1.77,0,0,0,2.33-1.69V83a1.77,1.77,0,0,0-1.25-1.7,66.41,66.41,0,0,0-20.11-2.89C864.82,78.44,853,91,853,114.82v5.12H841.38a1.78,1.78,0,0,0-1.78,1.77v20.9a1.78,1.78,0,0,0,1.78,1.77H853v83a1.77,1.77,0,0,0,1.76,1.77H879a1.78,1.78,0,0,0,1.77-1.77v-83h22.59l34.61,83c-3.93,8.72-7.79,10.45-13.07,10.45A27.91,27.91,0,0,1,911.53,234a1.82,1.82,0,0,0-1.41-.13,1.79,1.79,0,0,0-1,1l-8.2,18a1.76,1.76,0,0,0,.76,2.29,51,51,0,0,0,25.84,6.62c17.87,0,27.74-8.32,36.45-30.71l42-108.48a1.77,1.77,0,0,0-1.64-2.42H979.07a1.78,1.78,0,0,0-1.68,1.19l-25.81,73.71L923.32,121.3a1.77,1.77,0,0,0-1.65-1.14Z"/><rect class="cls-1" x="800.58" y="120.05" width="27.74" height="109.11" rx="1.77" ry="1.77"/><path class="cls-1" d="M814.58,72a17.35,17.35,0,1,0,17.35,17.35A17.36,17.36,0,0,0,814.58,72Z"/><path class="cls-1" d="M1026.56,154a17.07,17.07,0,1,1,17.12-17.13A17,17,0,0,1,1026.56,154Zm.09-32.45a15.38,15.38,0,1,0,15.24,15.33A15.23,15.23,0,0,0,1026.65,121.54Zm3.78,17.08,4.82,6.74h-4.06l-4.34-6.19h-3.73v6.19h-3.4V127.49h8c4.15,0,6.88,2.12,6.88,5.7A5.33,5.33,0,0,1,1030.43,138.62Zm-2.87-8.06h-4.43v5.65h4.43c2.21,0,3.53-1.08,3.53-2.83S1029.76,130.55,1027.55,130.55Z"/></g></g></svg>