<svg xmlns="http://www.w3.org/2000/svg" width="901.65" height="271.71" viewBox="0 0 901.65 271.71"><defs><style>.cls-1{fill:#febe10;}.cls-1,.cls-2{fill-rule:evenodd;}.cls-2{fill:#fff;}</style></defs><title>amazon</title><g id="Layer_2" data-name="Layer 2"><g id="Layer_1-2" data-name="Layer 1"><path class="cls-1" d="M559.37,212.49C507,251.15,431,271.71,365.63,271.71c-91.66,0-174.2-33.88-236.66-90.28-4.9-4.43-.53-10.48,5.37-7,67.39,39.22,150.72,62.83,236.8,62.83,58.06,0,121.89-12,180.62-37C560.61,196.5,568,206.09,559.37,212.49Z"/><path class="cls-1" d="M581.17,187.61c-6.7-8.58-44.29-4.07-61.18-2-5.11.61-5.91-3.85-1.3-7.09,30-21.06,79.12-15,84.83-7.93s-1.51,56.38-29.61,79.89c-4.32,3.62-8.43,1.69-6.52-3.09C573.72,231.55,587.88,196.19,581.17,187.61Z"/><path class="cls-2" d="M521.18,29.68V9.21A5.06,5.06,0,0,1,526.37,4H618.1a5.12,5.12,0,0,1,5.29,5.17V26.74c0,2.94-2.5,6.79-6.91,12.88L569,107.46c17.64-.41,36.29,2.22,52.32,11.23,3.61,2,4.58,5,4.87,8v21.84c0,3-3.29,6.49-6.75,4.68-28.24-14.79-65.7-16.41-96.92.18-3.19,1.7-6.53-1.73-6.53-4.74V127.88c0-3.32.06-9,3.41-14.07l55-79H526.48A5.1,5.1,0,0,1,521.18,29.68Z"/><path class="cls-2" d="M186.58,157.51h-27.9a5.26,5.26,0,0,1-5-4.72l0-143.23a5.26,5.26,0,0,1,5.39-5.16h26a5.26,5.26,0,0,1,5.08,4.81v18.7h.52C197.45,9.82,210.21,1.38,227.4,1.38c17.45,0,28.39,8.44,36.21,26.52,6.77-18.08,22.14-26.52,38.55-26.52,11.72,0,24.49,4.82,32.3,15.67,8.86,12.06,7,29.54,7,44.91l0,90.38a5.26,5.26,0,0,1-5.38,5.16H308.22a5.24,5.24,0,0,1-5-5.14V76.43c0-6,.52-21.1-.78-26.83C300.34,40,294.09,37.25,286,37.25A18.51,18.51,0,0,0,269.34,49c-2.87,7.23-2.6,19.29-2.6,27.43v75.92a5.26,5.26,0,0,1-5.38,5.16H233.48a5.24,5.24,0,0,1-5-5.14l0-75.93c0-16,2.61-39.48-17.19-39.48C191.19,36.95,192,59.86,192,76.43v75.92A5.26,5.26,0,0,1,186.58,157.51Z"/><path class="cls-2" d="M702.35,1.38c41.42,0,63.82,35.56,63.82,80.77,0,43.7-24.74,78.37-63.82,78.37-40.64,0-62.78-35.57-62.78-79.87C639.57,36,662,1.38,702.35,1.38Zm.26,29.24c-20.58,0-21.88,28-21.88,45.51S680.47,131,702.35,131C724,131,725,100.84,725,82.46c0-12.06-.52-26.52-4.17-38C717.72,34.54,711.46,30.62,702.61,30.62Z"/><path class="cls-2" d="M819.88,157.51h-27.8a5.24,5.24,0,0,1-5-5.14L787,9.08a5.28,5.28,0,0,1,5.36-4.67h25.89a5.31,5.31,0,0,1,5,4V30.32h.53c7.81-19.59,18.75-28.93,38-28.93,12.5,0,24.75,4.52,32.56,16.88,7.3,11.45,7.3,30.74,7.3,44.61V153a5.3,5.3,0,0,1-5.35,4.51h-28a5.27,5.27,0,0,1-5-4.51V75.23c0-15.67,1.82-38.58-17.45-38.58-6.78,0-13,4.52-16.15,11.45-3.91,8.74-4.43,17.48-4.43,27.13v77.12A5.34,5.34,0,0,1,819.88,157.51Z"/><path class="cls-2" d="M448.06,89.11c0,10.87.26,19.94-5.22,29.6-4.44,7.86-11.49,12.69-19.32,12.69-10.7,0-17-8.16-17-20.24,0-23.77,21.32-28.09,41.51-28.09Zm28.13,68a5.78,5.78,0,0,1-6.59.65c-9.27-7.7-10.93-11.26-16-18.6-15.32,15.6-26.17,20.28-46,20.28-23.49,0-41.77-14.5-41.77-43.49,0-22.65,12.27-38.06,29.76-45.61,15.14-6.65,36.29-7.85,52.47-9.67V57.09c0-6.64.52-14.5-3.39-20.24-3.39-5.14-9.92-7.25-15.66-7.25-10.64,0-20.11,5.45-22.43,16.76-.48,2.51-2.32,5-4.85,5.13l-27-2.93c-2.28-.51-4.82-2.35-4.16-5.83C376.73,9.91,406.36,0,432.92,0c13.57,0,31.33,3.62,42,13.9,13.58,12.69,12.27,29.6,12.27,48V105.4c0,13.08,5.43,18.82,10.54,25.86,1.78,2.54,2.18,5.56-.09,7.41-5.7,4.78-15.83,13.58-21.4,18.54Z"/><path class="cls-2" d="M82.23,89.11c0,10.87.26,19.94-5.22,29.6-4.44,7.86-11.48,12.69-19.32,12.69-10.7,0-17-8.16-17-20.24,0-23.77,21.32-28.09,41.51-28.09Zm28.14,68a5.78,5.78,0,0,1-6.59.65c-9.27-7.7-10.93-11.26-16-18.6-15.32,15.6-26.17,20.28-46,20.28C18.27,159.48,0,145,0,116,0,93.34,12.27,77.93,29.76,70.38,44.9,63.73,66,62.53,82.23,60.71V57.09c0-6.64.52-14.5-3.39-20.24-3.39-5.14-9.92-7.25-15.66-7.25-10.64,0-20.11,5.45-22.43,16.76-.49,2.51-2.32,5-4.85,5.13l-27-2.93C6.57,48,4,46.22,4.69,42.73,10.9,9.91,40.53,0,67.09,0c13.58,0,31.33,3.62,42,13.9,13.57,12.69,12.27,29.6,12.27,48V105.4c0,13.08,5.43,18.82,10.53,25.86,1.78,2.54,2.18,5.56-.09,7.41-5.7,4.78-15.83,13.58-21.4,18.54Z"/></g></g></svg>