<svg xmlns="http://www.w3.org/2000/svg" viewBox="0 0 1920 1080"><defs><style>.cls-1{fill:#fbedca;}.cls-2,.cls-8{fill:#f2e2b8;}.cls-2,.cls-3,.cls-4,.cls-5,.cls-6,.cls-7{fill-rule:evenodd;}.cls-3{fill:#fcf3db;}.cls-4{fill:#e6f0d7;}.cls-5{fill:#6de4de;}.cls-6{fill:#22c3d5;}.cls-7{fill:#2681ab;}</style></defs><title>Asset 38</title><g id="Layer_2" data-name="Layer 2"><g id="Layer_1-2" data-name="Layer 1"><rect class="cls-1" width="1920" height="1080"/><path class="cls-2" d="M1920,696.76c-49.84-29.9-63.14-58.08-149.7-40.14-34.64,7.19-49.88,37-85.9,39.93-33.46,2.73-55.78-10.32-75.55-16.82-67.07-22.07-133.2-9.55-183.85,20.64-41.28,24.66-94,6.35-132.93-10.58-61.37-26.67-170.64,31.59-272,.69-74.65-22.76-105.79,6.9-160.9,14.34C763.49,717.75,751.87,678.76,656,693.71c-43.78,6.83-66,16.37-109.47,19.88C389,726.3,449.44,722.7,364,722.7c-67.26,0-103.88-33.56-190.14-21.91-85.32,11.54-59.94-35.66-126.61-35.66-12.09,0-28.61.47-47.25,1.51V1080H1920Z"/><path class="cls-3" d="M1920,726.11c-110.3,5.61-106.89-27.26-219,8.58-68.14,21.79-151.24-48.6-233.75-24.52-73.53,21.45-89.23,36.21-180.37,19.72-28.38-5.13-104-1.69-126.43,8.52-47.9,21.78-159.14,27.16-210.18,10.87-68.3-21.75-110.39-13.61-179.82,1.93-32,7.16-82,5.17-107.7-6.08C635.27,733.07,602,728,546,753.37c-32.3,14.63-81,11.42-120.55,9-29.15-1.75-46.24-10.06-68-18-71.17-26-73.06-9-133.41.07-145.69,22-177.87-36.62-224-30.27V1080H1920Z"/><path class="cls-4" d="M1920,801.24c-49.84-21.76-63.14-42.25-149.7-29.19-34.64,5.22-49.88,26.89-85.9,29-33.46,2-55.78-7.5-75.55-12.22-67.07-16.07-120.23-2.35-170.88,19.65-41.29,17.91-107,27.78-146,15.49-61.37-19.41-170.57-4.85-271.89-27.31C945.46,780.12,913.11,811.58,858,817c-95.72,9.44-106.13-28.85-202-18-43.78,5-65.63,17.08-109.47,14.47-157.48-9.34-161,6.12-246.43,6.12-67.26,0-40-23.9-126.24-15.43-85.32,8.4-59.94-25.94-126.61-25.94-12.09,0-28.61.33-47.25,1.1V1080H1920Z"/><path class="cls-5" d="M1920,845.17c-205.06,2.07-340,29.83-512.73,22.9-164.77-6.61-521.14-45.66-1027.84,8.38-82.11,8.77-249.24,26-379.43-11.65V1080H1920Z"/><path class="cls-6" d="M1920,874.14c-190.34,11.55-245,27.86-370.11,41.6-142,15.6-380.89,9.26-569.17.58-190-8.75-454.53-42.24-687.46-4.82C228.74,921.86,120.72,933,0,934.18V1080H1920Z"/><path class="cls-7" d="M1920,958.94c-187.36,43.78-383.44,55.21-635.27,29.91-179-18-414.65-6.68-579.61,12.33-235.87,27.17-424.92-22.11-619-22.73-31.85-.1-60.24.39-86.07,1.35V1080H1920Z"/><path class="cls-8" d="M150.57,683.34s-7.58-23.48-28.71-12.53,6.58,22.29,6.58,22.29S159.22,705.68,150.57,683.34Z"/><path class="cls-2" d="M1695.79,670.59s6,25.61-26,13.09S1692.54,654.8,1695.79,670.59Z"/><path class="cls-8" d="M408.4,706.73s-8.32-12-20-2.36,7.5,11.49,7.5,11.49S417.22,717.92,408.4,706.73Z"/><path class="cls-8" d="M429.08,708.7s-5.93,9.87-13.43,2.54S421,701.8,421,701.8,435.33,699.46,429.08,708.7Z"/><path class="cls-8" d="M1390.16,689.15S1376,668.93,1359,685.62,1371.87,705,1371.87,705,1405,708,1390.16,689.15Z"/></g></g></svg>