<svg xmlns="http://www.w3.org/2000/svg" viewBox="0 0 88.64 89.45"><defs><style>.cls-1{fill:#f2e2b8;}.cls-2,.cls-6{fill:#fff;}.cls-2{fill-rule:evenodd;}.cls-3{fill:#00a2ac;}.cls-4{fill:#ffce01;}.cls-5{fill:#e01059;}</style></defs><title>Asset 17</title><g id="Layer_2" data-name="Layer 2"><g id="Layer_1-2" data-name="Layer 1"><circle class="cls-1" cx="47.98" cy="48.8" r="40.66" transform="translate(-20.45 48.22) rotate(-45)"/><path class="cls-2" d="M19.07,5.93A40,40,0,1,1,5.93,61a40,40,0,0,1,13.14-55"/><path class="cls-3" d="M51.86,8.59c1,.6,7.83,2.36,8.56,3.12a24.81,24.81,0,0,1,6.31-1.47A40,40,0,0,0,44.93.33"/><path class="cls-4" d="M80,40.47c-3.11-11.35-14-19.92-16.89-22a4.86,4.86,0,0,1-.65,1.81,6,6,0,0,1-5.3,2.53c.85,5.67,6.32,46.54-10.58,56.69A40,40,0,0,0,80,40.47Z"/><path class="cls-5" d="M48.15,18.68c-2.22-2.39-3.14-5.29-2.28-7.58-4.25-1.2-24-5.94-37.71,4.73A40,40,0,0,0,5.93,61a41.18,41.18,0,0,0,2.76,3.93C8.94,49.39,43.07,22.59,48.15,18.68Z"/><path class="cls-6" d="M57.85,9.65c4.48,2.76,6.56,7.53,4.64,10.64s-7.11,3.4-11.6.63-6.55-7.53-4.63-10.64,7.11-3.4,11.59-.63"/></g></g></svg>