<svg xmlns="http://www.w3.org/2000/svg" viewBox="0 0 30.62 30.62"><defs><style>.cls-1{fill:#cea95f;}</style></defs><title>Asset 7</title><g id="Layer_2" data-name="Layer 2"><g id="Layer_1-2" data-name="Layer 1"><path class="cls-1" d="M12.6,15.9a1.61,1.61,0,1,0,2,.79A1.55,1.55,0,0,0,12.6,15.9Z"/><path class="cls-1" d="M17.35,13.58a1.61,1.61,0,0,0,1.41,2.89,1.61,1.61,0,0,0-1.41-2.89Z"/><path class="cls-1" d="M29.06,8.59a15.31,15.31,0,1,0-7,20.47A15.32,15.32,0,0,0,29.06,8.59ZM21.63,19s-.74-.33-1.37-.64a4.5,4.5,0,0,0,1.6-2.7,9,9,0,0,1-1.13,1.51,10.14,10.14,0,0,1-1.62,1.49,10.29,10.29,0,0,1-3.38,1.64,11,11,0,0,1-2.18.37,9.06,9.06,0,0,1-1.18,0h-.23c-.3,0-.47-.05-.47-.05a4.5,4.5,0,0,0,3,.42c-.15.69-.35,1.5-.35,1.5a5.26,5.26,0,0,1-4.95,0A19.37,19.37,0,0,1,7.58,14a7.16,7.16,0,0,1,3-3.16l.21.09a9.62,9.62,0,0,0-2.59,3.38s.2-.29.59-.75a11.1,11.1,0,0,1,2.56-2.26l.2-.14a12.41,12.41,0,0,1,2.63-1.31,11.67,11.67,0,0,1,4.54-.67,9.57,9.57,0,0,0-4.06-.07l.08-.3a7.1,7.1,0,0,1,4.32-.41,19.39,19.39,0,0,1,5.59,6.67A5.28,5.28,0,0,1,21.63,19Z"/></g></g></svg>