<svg xmlns="http://www.w3.org/2000/svg" viewBox="0 0 30.53 30.54"><defs><style>.cls-1{fill:#cea95f;}</style></defs><title>Asset 10</title><g id="Layer_2" data-name="Layer 2"><g id="Layer_1-2" data-name="Layer 1"><path class="cls-1" d="M24.58,16.07l-3.23,1.57,4.3,8.81A13.35,13.35,0,0,1,24,27.78,15.14,15.14,0,1,0,22,29a15.76,15.76,0,0,0,1.88-1.11A16.5,16.5,0,0,1,22,29L21.8,29l-4.58-9.38-2.46,1.2a.64.64,0,0,1-.85-.29l-1.48-3a.65.65,0,0,1,.29-.86l2.44-1.19-1.43-2.93a5.75,5.75,0,0,1-.42-.82,5.31,5.31,0,0,1,3-6.89L18.84,3.6a.63.63,0,0,1,.85.29l1.25,2.56h0a.64.64,0,0,1-.38.82L19,8c-1.66.82-1.57,1.8-1,3l1.24,2.53,3.62-1.76h0a.63.63,0,0,1,.8.41l1.19,3.14A.62.62,0,0,1,24.58,16.07Z"/></g></g></svg>