<svg xmlns="http://www.w3.org/2000/svg" viewBox="0 0 165.74 35.8"><defs><style>.cls-1{fill:#9e8d7d;}</style></defs><title>Asset 21</title><g id="Layer_2" data-name="Layer 2"><g id="Layer_1-2" data-name="Layer 1"><path class="cls-1" d="M8.51,9.45h5v4.34H8.65v14.7H3V13.79H0V9.45H3V8.58A7.11,7.11,0,0,1,5,3.29a7.54,7.54,0,0,1,5.55-1.95,10.41,10.41,0,0,1,2.41.27,5.81,5.81,0,0,1,1.9.78L13.36,6.48a3.87,3.87,0,0,0-2.28-.69c-1.72,0-2.57.94-2.57,2.82Z"/><path class="cls-1" d="M34.13,20.34H19.4a4.59,4.59,0,0,0,1.88,2.86A6.24,6.24,0,0,0,25,24.25a7.47,7.47,0,0,0,2.69-.45,6.42,6.42,0,0,0,2.19-1.43l3,3.26q-2.76,3.15-8,3.15A12.67,12.67,0,0,1,19,27.49a9.45,9.45,0,0,1-3.91-3.56,9.9,9.9,0,0,1-1.37-5.18,9.9,9.9,0,0,1,1.36-5.16A9.49,9.49,0,0,1,18.8,10a10.92,10.92,0,0,1,5.31-1.29A10.84,10.84,0,0,1,29.28,10a9,9,0,0,1,3.64,3.53,10.55,10.55,0,0,1,1.32,5.34C34.24,18.89,34.21,19.4,34.13,20.34ZM20.92,14.08a4.58,4.58,0,0,0-1.59,3h9.59a4.63,4.63,0,0,0-1.59-3A4.75,4.75,0,0,0,24.14,13,4.88,4.88,0,0,0,20.92,14.08Z"/><path class="cls-1" d="M51.36,10.88c1.62,1.43,2.43,3.6,2.43,6.49V28.49H48.5V26.06q-1.59,2.72-5.93,2.72A9.27,9.27,0,0,1,38.68,28a5.85,5.85,0,0,1-2.52-2.1,5.48,5.48,0,0,1-.87-3,5.08,5.08,0,0,1,2.05-4.28c1.36-1,3.47-1.55,6.31-1.55h4.49A3.58,3.58,0,0,0,47,14.21a4.92,4.92,0,0,0-3.37-1,9.79,9.79,0,0,0-3.06.49A8.29,8.29,0,0,0,38,15l-2-3.94a12.16,12.16,0,0,1,3.81-1.74,17.15,17.15,0,0,1,4.58-.62Q48.94,8.72,51.36,10.88ZM46.55,24.31a3.66,3.66,0,0,0,1.59-2v-2H44.27q-3.48,0-3.48,2.28a2,2,0,0,0,.85,1.72A3.87,3.87,0,0,0,44,25,5,5,0,0,0,46.55,24.31Z"/><path class="cls-1" d="M70.55,27.55a6,6,0,0,1-2,.92,10.6,10.6,0,0,1-2.55.31A7.61,7.61,0,0,1,60.57,27a6.81,6.81,0,0,1-1.9-5.21v-8h-3V9.45h3V4.71h5.65V9.45h4.85v4.34H64.32v7.93a2.67,2.67,0,0,0,.63,1.9,2.35,2.35,0,0,0,1.8.67A3.6,3.6,0,0,0,69,23.56Z"/><path class="cls-1" d="M92.44,9V28.49H87.09V26.17a7.6,7.6,0,0,1-2.68,1.94,8.55,8.55,0,0,1-3.37.67A8.3,8.3,0,0,1,75,26.57c-1.49-1.47-2.24-3.66-2.24-6.55V9h5.64V19.18q0,4.71,4,4.71a4.25,4.25,0,0,0,3.26-1.32,5.58,5.58,0,0,0,1.23-3.93V9Z"/><path class="cls-1" d="M104.91,9.45a10,10,0,0,1,4-.73v5.22c-.63,0-1-.08-1.27-.08a5.2,5.2,0,0,0-3.8,1.36,5.47,5.47,0,0,0-1.37,4.07v9.2H96.79V9h5.39v2.57A6.31,6.31,0,0,1,104.91,9.45Z"/><path class="cls-1" d="M111.63,5.39a2.93,2.93,0,0,1-1-2.24,3,3,0,0,1,1-2.25,3.58,3.58,0,0,1,2.53-.9,3.69,3.69,0,0,1,2.54.87,2.78,2.78,0,0,1,1,2.17,3.09,3.09,0,0,1-1,2.34,3.59,3.59,0,0,1-2.54.92A3.54,3.54,0,0,1,111.63,5.39ZM111.34,9H117V28.49h-5.65Z"/><path class="cls-1" d="M139,10.9q2.24,2.16,2.23,6.44V28.49h-5.65V18.21a5.11,5.11,0,0,0-1-3.46,3.73,3.73,0,0,0-2.93-1.14,4.51,4.51,0,0,0-3.41,1.32A5.49,5.49,0,0,0,127,18.86v9.63h-5.65V9h5.39v2.28a7.56,7.56,0,0,1,2.79-1.9,9.85,9.85,0,0,1,3.66-.67A8,8,0,0,1,139,10.9Z"/><path class="cls-1" d="M165.74,9V25.23q0,5.36-2.79,8c-1.85,1.74-4.57,2.61-8.14,2.61a20.34,20.34,0,0,1-5.36-.69,11.71,11.71,0,0,1-4.2-2l2.25-4a9.4,9.4,0,0,0,3.11,1.61,12.67,12.67,0,0,0,3.77.59A6.1,6.1,0,0,0,158.7,30a5.25,5.25,0,0,0,1.39-4v-.83a7.88,7.88,0,0,1-6.15,2.43,10.37,10.37,0,0,1-4.9-1.18,9,9,0,0,1-3.53-3.31,9.29,9.29,0,0,1-1.31-4.93,9.28,9.28,0,0,1,1.31-4.92A8.93,8.93,0,0,1,149,9.9a10.37,10.37,0,0,1,4.9-1.18,7.72,7.72,0,0,1,6.44,2.79V9Zm-7,12.58a4.49,4.49,0,0,0,1.43-3.46,4.49,4.49,0,0,0-1.43-3.45,5.22,5.22,0,0,0-3.68-1.32,5.28,5.28,0,0,0-3.69,1.32,4.47,4.47,0,0,0-1.45,3.45,4.48,4.48,0,0,0,1.45,3.46,5.28,5.28,0,0,0,3.69,1.32A5.22,5.22,0,0,0,158.74,21.59Z"/></g></g></svg>