<svg xmlns="http://www.w3.org/2000/svg" viewBox="0 0 30.62 30.62"><defs><style>.cls-1{fill:#cea95f;}</style></defs><title>Asset 9</title><g id="Layer_2" data-name="Layer 2"><g id="Layer_1-2" data-name="Layer 1"><circle class="cls-1" cx="15.33" cy="15.3" r="3.03"/><path class="cls-1" d="M15.45,6.74,8.5,10.13a3.77,3.77,0,0,0-1.73,5l3.39,7a3.79,3.79,0,0,0,5.05,1.73l7-3.39a3.79,3.79,0,0,0,1.73-5L20.5,8.47A3.77,3.77,0,0,0,15.45,6.74Zm2.05,13a5,5,0,1,1,2.28-6.62A4.95,4.95,0,0,1,17.5,19.75Zm.65-9.95a1.2,1.2,0,0,1-1-2.15h0a1.18,1.18,0,0,1,1.57.54v0A1.2,1.2,0,0,1,18.15,9.8Z"/><path class="cls-1" d="M8.62,1.55A15.3,15.3,0,1,0,29.08,8.62v0A15.3,15.3,0,0,0,8.62,1.55Zm17,13A5.72,5.72,0,0,1,23,22.2l-6.95,3.39A5.72,5.72,0,0,1,8.43,23L5,16A5.7,5.7,0,0,1,7.66,8.4l7-3.39a5.7,5.7,0,0,1,7.62,2.62Z"/></g></g></svg>