<svg xmlns="http://www.w3.org/2000/svg" viewBox="0 0 242.28 36.9"><defs><style>.cls-1{fill:#fff;}</style></defs><title>Asset 24</title><g id="Layer_2" data-name="Layer 2"><g id="Layer_1-2" data-name="Layer 1"><path class="cls-1" d="M18.22,5.51a8.74,8.74,0,0,1,5.4,8.35,8.74,8.74,0,0,1-5.4,8.35,14.87,14.87,0,0,1-6.09,1.15H8.5v6.2H0V4.36H12.13A14.87,14.87,0,0,1,18.22,5.51ZM14.18,16a2.77,2.77,0,0,0,.87-2.18,2.77,2.77,0,0,0-.87-2.18,3.8,3.8,0,0,0-2.59-.77H8.5v5.9h3.09A3.8,3.8,0,0,0,14.18,16Z"/><path class="cls-1" d="M40.61,9.5v7.2a13.24,13.24,0,0,0-1.8-.14q-4.19,0-4.18,4.25v8.75H26.5V9.86h7.74V12Q36.4,9.5,40.61,9.5Z"/><path class="cls-1" d="M63.58,21.6H49.9a3.27,3.27,0,0,0,1.44,1.71,4.85,4.85,0,0,0,2.52.59A6.21,6.21,0,0,0,56,23.58,7.78,7.78,0,0,0,58,22.46l4.25,4.29q-2.88,3.16-8.61,3.17a14.1,14.1,0,0,1-6.26-1.32A10,10,0,0,1,43.16,25a9.67,9.67,0,0,1-1.47-5.26,9.63,9.63,0,0,1,1.46-5.27,9.91,9.91,0,0,1,4-3.62,13.13,13.13,0,0,1,11.16-.11,9.41,9.41,0,0,1,3.93,3.49,10.13,10.13,0,0,1,1.45,5.51C63.68,19.81,63.65,20.45,63.58,21.6ZM50.83,15.73a3.3,3.3,0,0,0-1.08,1.95h6.34A3.33,3.33,0,0,0,55,15.75a3.11,3.11,0,0,0-2.09-.7A3.2,3.2,0,0,0,50.83,15.73Z"/><path class="cls-1" d="M66.42,16.09h10.8v6.12H66.42Z"/><path class="cls-1" d="M91.69,23.22h-2.3v6.34h-8.5V4.36H93a14.87,14.87,0,0,1,6.09,1.15,8.91,8.91,0,0,1,4,3.31,9,9,0,0,1,1.41,5,8.9,8.9,0,0,1-1.23,4.72,8.63,8.63,0,0,1-3.52,3.2l5.29,7.78H96Zm3.39-11.54a3.83,3.83,0,0,0-2.6-.77H89.39v5.9h3.09a3.83,3.83,0,0,0,2.6-.77,2.8,2.8,0,0,0,.86-2.18A2.8,2.8,0,0,0,95.08,11.68Z"/><path class="cls-1" d="M128.3,21.6H114.62a3.36,3.36,0,0,0,1.44,1.71,4.9,4.9,0,0,0,2.52.59,6.27,6.27,0,0,0,2.18-.32,7.78,7.78,0,0,0,1.93-1.12l4.25,4.29q-2.88,3.16-8.61,3.17a14.1,14.1,0,0,1-6.26-1.32A10,10,0,0,1,107.89,25a9.67,9.67,0,0,1-1.47-5.26,9.71,9.71,0,0,1,1.45-5.27,10,10,0,0,1,4-3.62A13.13,13.13,0,0,1,123,10.69,9.39,9.39,0,0,1,127,14.18a10,10,0,0,1,1.46,5.51C128.41,19.81,128.38,20.45,128.3,21.6Zm-12.74-5.87a3.3,3.3,0,0,0-1.08,1.95h6.34a3.33,3.33,0,0,0-1.08-1.93,3.12,3.12,0,0,0-2.09-.7A3.2,3.2,0,0,0,115.56,15.73Z"/><path class="cls-1" d="M153,9.86V25.63c0,3.75-1,6.56-3.11,8.44s-5,2.83-8.87,2.83a23,23,0,0,1-5.51-.63,13.9,13.9,0,0,1-4.36-1.82l2.74-5.54a9.62,9.62,0,0,0,2.91,1.4,11.61,11.61,0,0,0,3.39.54,5.12,5.12,0,0,0,3.56-1,4,4,0,0,0,1.12-3.06v-.36a6.88,6.88,0,0,1-5.44,2.09,9.81,9.81,0,0,1-4.7-1.17A8.86,8.86,0,0,1,131.22,24a9.62,9.62,0,0,1-1.3-5,9.52,9.52,0,0,1,1.3-5,8.88,8.88,0,0,1,3.47-3.33,9.81,9.81,0,0,1,4.7-1.17q4,0,5.83,2.6V9.86Zm-9,11.4a3,3,0,0,0,1-2.29,3,3,0,0,0-1-2.27,3.48,3.48,0,0,0-2.4-.86,3.52,3.52,0,0,0-2.43.86,3,3,0,0,0-1,2.27,2.94,2.94,0,0,0,1,2.29,3.44,3.44,0,0,0,2.41.88A3.4,3.4,0,0,0,144,21.26Z"/><path class="cls-1" d="M157.09,7.11a3.76,3.76,0,0,1-1.35-3,3.76,3.76,0,0,1,1.35-3A5.21,5.21,0,0,1,160.63,0a5.36,5.36,0,0,1,3.57,1.12A3.6,3.6,0,0,1,165.53,4a4,4,0,0,1-1.33,3.07,5.1,5.1,0,0,1-3.57,1.21A5.21,5.21,0,0,1,157.09,7.11Zm-.53,2.75h8.14v19.7h-8.14Z"/><path class="cls-1" d="M171,29.38a14.15,14.15,0,0,1-4-1.41l2.24-5.36a11.66,11.66,0,0,0,3.24,1.29,14.53,14.53,0,0,0,3.63.47,5.92,5.92,0,0,0,2-.23.76.76,0,0,0,.55-.7c0-.32-.23-.53-.7-.65a18.87,18.87,0,0,0-2.29-.36,30,30,0,0,1-4.1-.74,6.37,6.37,0,0,1-3-1.75,5.05,5.05,0,0,1-1.28-3.7,5.51,5.51,0,0,1,1.15-3.42A7.8,7.8,0,0,1,172,10.4a15,15,0,0,1,5.49-.9,22.74,22.74,0,0,1,4.38.42,13.48,13.48,0,0,1,3.65,1.2l-2.23,5.37a11.54,11.54,0,0,0-5.69-1.44c-1.78,0-2.66.31-2.66.93,0,.32.24.54.72.67a16.8,16.8,0,0,0,2.26.38,27.77,27.77,0,0,1,4.09.75,6.58,6.58,0,0,1,2.95,1.77,5.06,5.06,0,0,1,1.28,3.71A5.35,5.35,0,0,1,185,26.6,7.75,7.75,0,0,1,181.58,29a15.32,15.32,0,0,1-5.58.9A23.07,23.07,0,0,1,171,29.38Z"/><path class="cls-1" d="M203.15,28.87a10.14,10.14,0,0,1-5,1.05,9.25,9.25,0,0,1-6.37-2q-2.24-2-2.23-6v-5h-2.7V10.94h2.7V5.44h8.13v5.5h4v5.94h-4v5a2,2,0,0,0,.47,1.41,1.61,1.61,0,0,0,1.23.5,3.18,3.18,0,0,0,1.83-.54Z"/><path class="cls-1" d="M225.5,21.6H211.82a3.36,3.36,0,0,0,1.44,1.71,4.85,4.85,0,0,0,2.52.59,6.27,6.27,0,0,0,2.18-.32,7.78,7.78,0,0,0,1.93-1.12l4.25,4.29c-1.93,2.11-4.79,3.17-8.61,3.17a14.07,14.07,0,0,1-6.26-1.32A9.89,9.89,0,0,1,205.09,25a9.68,9.68,0,0,1-1.48-5.26,9.71,9.71,0,0,1,1.46-5.27,9.94,9.94,0,0,1,4-3.62,13.13,13.13,0,0,1,11.16-.11,9.39,9.39,0,0,1,3.92,3.49,10.13,10.13,0,0,1,1.46,5.51C225.61,19.81,225.57,20.45,225.5,21.6Zm-12.74-5.87a3.3,3.3,0,0,0-1.08,1.95H218a3.33,3.33,0,0,0-1.08-1.93,3.12,3.12,0,0,0-2.09-.7A3.2,3.2,0,0,0,212.76,15.73Z"/><path class="cls-1" d="M242.28,9.5v7.2a13.24,13.24,0,0,0-1.8-.14q-4.18,0-4.18,4.25v8.75h-8.13V9.86h7.74V12Q238.07,9.5,242.28,9.5Z"/></g></g></svg>