<svg xmlns="http://www.w3.org/2000/svg" viewBox="0 0 179.72 91.23"><defs><style>.cls-1{fill:#f2e2b8;}.cls-2{fill:#e94f86;fill-rule:evenodd;}.cls-3{fill:#be035c;}</style></defs><title>Asset 27</title><g id="Layer_2" data-name="Layer 2"><g id="Layer_1-2" data-name="Layer 1"><path class="cls-1" d="M64.34,35.58l-.72-.35c-.6-.28-1.22-.53-1.85-.76a29.43,29.43,0,0,1-8.52-5.56C44.64,20.36,8,7.07,1.09,28.56-8.67,58.86,49.91,70,59.16,72.94S89.81,83.6,95.67,60.7C100,43.76,79.68,41.8,64.34,35.58Z"/><path class="cls-1" d="M167.09,50.55c-5.38-8.1-31.94-61.47-58.46-43.86C89.82,19.18,112.54,50.83,123.1,56.8a29.35,29.35,0,0,1,7.67,6.69c.4.54.8,1.08,1.24,1.58l.53.6c10.14,13.07,17.54,32.1,32.67,23.33C185.66,77.16,172.47,58.65,167.09,50.55Z"/><path class="cls-2" d="M99.13,57.56C93.27,80.45,71.87,72.77,62.62,69.79S-5.21,55.71,4.55,25.42c6.93-21.5,43.55-8.21,52.16.34C69.78,38.73,104.68,35.86,99.13,57.56Z"/><path class="cls-3" d="M55.19,28.82A86,86,0,0,0,42.53,27.1,51.62,51.62,0,0,0,31,27.73a40.58,40.58,0,0,0-5.65,1.41,13.09,13.09,0,0,0-3.79,1.6,15.42,15.42,0,0,0-2.08-1.15,18.19,18.19,0,0,0-2.16-1.09c-.88-.34-2.05-.85-3-.26a1.46,1.46,0,0,0-.47,2,5.83,5.83,0,0,0,2.28,1.69A12,12,0,0,0,20,33.5l.43.28A8.32,8.32,0,0,0,21,35.61a37,37,0,0,0,2.49,4.69,42.13,42.13,0,0,0,6.63,8.19l.17.15A59.68,59.68,0,0,0,49.44,64q2.31,1.18,4.73,2.17c1.48.6,3.36,1.61,5.07,1.08,3.95-1.2,0-5-1.57-6.17-2.9-2.17-6.38-3.7-9.44-5.69a67.5,67.5,0,0,1-8.8-6.72,51.92,51.92,0,0,1-7.12-7.88,41.49,41.49,0,0,1-3-4.72c-.15-.28-.64-.88-.39-1.21s1.18-.28,1.43-.33c1-.23,2-.43,3.06-.61a70.57,70.57,0,0,1,24.17,0q3,.53,6,1.34c.92.25,1.84.51,2.74.8a15.12,15.12,0,0,0,2.77.88A1.4,1.4,0,0,0,70.72,35c-.46-1.42-2.3-2.32-3.64-2.94C63.45,30.38,59.19,29.63,55.19,28.82Z"/><path class="cls-2" d="M168.67,85.86C189.12,74,175.93,55.5,170.55,47.4S138.61-14.07,112.09,3.54C93.28,16,116,47.68,126.56,53.65,142.6,62.71,149.29,97.08,168.67,85.86Z"/><path class="cls-3" d="M129.1,51.36A84.85,84.85,0,0,1,124,39.64a52.48,52.48,0,0,1-2.53-11.31,41.88,41.88,0,0,1-.18-5.82,13.3,13.3,0,0,1,.52-4.08,15.47,15.47,0,0,1-1.67-1.69A17.31,17.31,0,0,1,118.52,15c-.57-.75-1.38-1.74-1.07-2.79a1.47,1.47,0,0,1,1.77-1,5.9,5.9,0,0,1,2.24,1.73,12.13,12.13,0,0,1,2.59,3.29l.39.34a8.18,8.18,0,0,1,1.92.06,36.91,36.91,0,0,1,5.19,1.12,41.92,41.92,0,0,1,9.68,4.16l.19.12a59.91,59.91,0,0,1,20,14.31q1.75,1.91,3.37,4c1,1.26,2.45,2.8,2.41,4.59-.09,4.12-4.8,1.37-6.37.16-2.87-2.21-5.29-5.14-8-7.54a68.15,68.15,0,0,0-8.86-6.66,51.62,51.62,0,0,0-9.51-4.71A42.5,42.5,0,0,0,129,24.52c-.31-.07-1-.38-1.27,0a4.9,4.9,0,0,0,.07,1.46c.06,1,.14,2.08.24,3.11a70.7,70.7,0,0,0,6.57,23.27c.89,1.85,1.86,3.66,2.91,5.41.49.82,1,1.62,1.52,2.42a15.6,15.6,0,0,1,1.6,2.42,1.41,1.41,0,0,1-1.39,2.05c-1.48-.06-2.84-1.58-3.81-2.7C132.84,58.88,131,55,129.1,51.36Z"/></g></g></svg>