<svg xmlns="http://www.w3.org/2000/svg" viewBox="0 0 449 367.06"><defs><style>.cls-1{fill:#f2e2b8;}.cls-1,.cls-10,.cls-11,.cls-2,.cls-3,.cls-5,.cls-6,.cls-7,.cls-8,.cls-9{fill-rule:evenodd;}.cls-2{fill:#fff;}.cls-3,.cls-4{fill:#fe81b4;}.cls-5{fill:#9cc;}.cls-6{fill:#ede2c7;}.cls-7{fill:#e6e6e6;}.cls-8{fill:#d8719f;}.cls-9{fill:#88b8b8;}.cls-10{fill:#53ccce;}.cls-11{fill:#fefefc;}</style></defs><title>Asset 28</title><g id="Layer_2" data-name="Layer 2"><g id="Layer_1-2" data-name="Layer 1"><polygon class="cls-1" points="449 228.53 308.62 0 7.77 0 230.56 362.7 449 228.53"/><polygon class="cls-2" points="436.84 232.88 293.79 0 0 0 0 11.51 218.4 367.06 436.84 232.88"/><polygon class="cls-3" points="418.04 202.26 404.19 179.73 185.75 313.9 199.6 336.46 418.04 202.26"/><rect class="cls-4" x="147.11" y="201.54" width="256.35" height="26.45" transform="translate(-71.7 175.96) rotate(-31.58)"/><polygon class="cls-3" points="105.93 183.97 119.78 206.5 338.22 72.33 324.36 49.77 105.93 183.97"/><rect class="cls-4" x="120.51" y="158.24" width="256.35" height="26.45" transform="translate(-52.96 155.58) rotate(-31.57)"/><rect class="cls-4" x="67.29" y="71.59" width="256.35" height="26.47" transform="translate(-15.5 114.8) rotate(-31.54)"/><polygon class="cls-5" points="26.11 54.01 39.96 76.55 164.59 0 114.05 0 26.11 54.01"/><polygon class="cls-3" points="52.72 97.32 66.57 119.89 261.71 0 211.16 0 52.72 97.32"/><path class="cls-6" d="M169.08,90.78A428.91,428.91,0,0,1,222.54,0H0V115.35C53.85,95.84,110,86.84,169.08,90.78Z"/><path class="cls-7" d="M169.08,90.78A428.91,428.91,0,0,1,222.54,0H0V11.51l54.09,88A404.58,404.58,0,0,1,169.08,90.78Z"/><path class="cls-8" d="M222.54,0H211.16L52.72,97.32l1.37,2.23a407.18,407.18,0,0,1,59.71-8.69l80.64-49.54A411,411,0,0,1,222.54,0Z"/><path class="cls-8" d="M172.35,83.5l-11.14,6.85c2.62.13,5.24.25,7.87.43Q170.69,87.15,172.35,83.5Z"/><polygon class="cls-9" points="26.11 54.01 39.96 76.55 164.59 0 114.05 0 26.11 54.01"/><path class="cls-10" d="M133.4,93.54,76,0H0V106.84A405.09,405.09,0,0,1,133.4,93.54Z"/><path class="cls-11" d="M76,0,133.4,93.54A427.12,427.12,0,0,1,189,0Z"/></g></g></svg>