<svg xmlns="http://www.w3.org/2000/svg" viewBox="0 0 351.01 492.87"><defs><style>.cls-1{fill:#f2e2b8;}.cls-2{fill:#fff;}.cls-3{fill:#53ccce;}.cls-4{fill:#ede2c7;}.cls-5{fill:#4db2b2;}.cls-6{fill:#fe81b4;}.cls-7{fill:#fefefc;}</style></defs><title>Asset 5</title><g id="Layer_2" data-name="Layer 2"><g id="Layer_1-2" data-name="Layer 1"><path class="cls-1" d="M334.61,190.1h0L331.71,204l-11.78,56.54-.46,2.22h0l-14.74,70.77h0l-5.18,24.9h0l-18,86.41-1.92,9.22h0l-7,33.79L43.31,440.14l-.52,2.5L284,492.87l65.31-313.59q-6.21-.19-12.36-.2Z"/><path class="cls-2" d="M173.88,206.51q-8.81-9.13-18-17.55c-1.17.48-2.33,1-3.5,1.46q-7.43-8-15.18-15.48l-48.9-10.18,4.67-22.44h0l-13,62.47,3.56-17.1Z"/><polygon class="cls-2" points="304.73 333.57 319.47 262.8 78.3 212.56 73.52 235.5 314.69 285.74 309.51 310.63 68.34 260.4 63.56 283.33 304.73 333.57"/><path class="cls-2" d="M336.91,179.08a386.74,386.74,0,0,0-43.54,2.42l41.24,8.6Z"/><path class="cls-2" d="M284.81,429.21l-3.26,15.67,18-86.41L58.38,308.23l2.3-11.05L43.64,379Zm-231.21-98,241.17,50.21-5.18,24.9L48.42,356.06Z"/><polygon class="cls-2" points="279.63 454.1 38.46 403.87 31.42 437.66 43.31 440.14 272.59 487.89 279.63 454.1"/><path class="cls-2" d="M229.47,194.16a427.61,427.61,0,0,0-43.26,14.92L324.65,237.9l-4.72,22.68L331.71,204,329.43,215Z"/><polygon class="cls-3" points="309.51 310.63 314.69 285.74 73.52 235.5 73.52 235.5 68.33 260.39 68.34 260.4 309.51 310.63"/><path class="cls-3" d="M319.47,262.8h0l.46-2.22,4.72-22.68L186.21,209.08l-.84.34c-2.1.85-4.19,1.71-6.27,2.6-1.35-1.46-2.72-2.9-4.09-4.34l-1.13-1.17-90.4-18.82-3.56,17.1-1.62,7.77h0Z"/><path class="cls-3" d="M124.17,163l-2.33-1.7-2.92-2.08-2.45-1.73c-1.18-.83-2.37-1.64-3.55-2.45l-4-2.65-2.47-1.63-3-1.94-2.3-1.46-3.08-1.93L95.76,144l-2.83-1.72-4.67,22.44,48.9,10.18Q131,169,124.68,163.41Z"/><path class="cls-3" d="M285.13,182.51q-3.64.5-7.27,1.05l-1.89.3c-1.83.29-3.66.6-5.48.91l-2,.34c-2.15.38-4.28.79-6.42,1.21l-2.75.55-4.26.89-2.83.61q-3,.66-5.9,1.37l-3.31.8-3.38.86-3.48.9q-2.7.72-5.39,1.48l-1.33.38,100,20.81L331.71,204l2.91-13.94h0l-41.24-8.6-.12,0q-3.88.43-7.76.95Z"/><polygon class="cls-3" points="299.55 358.46 299.55 358.47 304.73 333.57 304.73 333.57 63.56 283.33 63.56 283.33 60.68 297.18 58.38 308.23 299.55 358.46"/><polygon class="cls-3" points="279.63 454.1 279.63 454.1 281.55 444.88 284.81 429.21 43.64 378.97 43.64 378.97 38.46 403.87 38.46 403.87 279.63 454.1"/><rect class="cls-3" x="158.88" y="245.54" width="25.43" height="246.34" transform="translate(-224.36 461.52) rotate(-78.23)"/><path class="cls-4" d="M344.58,142.27l-5.19,24.89-45-9.37a387.57,387.57,0,0,0-70.29,9.29l69.24,14.42-.12,0,.12,0a386.74,386.74,0,0,1,43.54-2.42q6.15,0,12.36.2l1.74.05V103.52q-10.18,17.58-18.65,36.2Z"/><path class="cls-4" d="M101.19,147.39l-3.08-1.93Z"/><path class="cls-4" d="M103.49,148.85l3,1.94Z"/><path class="cls-4" d="M95.76,144c-.94-.57-1.88-1.16-2.83-1.73l.51-2.45,2.54.53a402.52,402.52,0,0,0-61.56-36.75c0,3.21-.1,6.42-.22,9.65a425.61,425.61,0,0,1,58.73,29h0Z"/><path class="cls-4" d="M236.19,192.3l3.48-.9Z"/><path class="cls-4" d="M124.17,163l-2.33-1.7Z"/><path class="cls-4" d="M118.92,159.25l-2.45-1.73Z"/><path class="cls-4" d="M252.26,188.37l2.83-.61Z"/><path class="cls-4" d="M276,183.86l1.89-.3Z"/><path class="cls-4" d="M285.13,182.51l.36,0Z"/><path class="cls-4" d="M230.8,193.78l-1.36.37-56.72-11.81q-8.49,3.12-16.88,6.62,9.22,8.41,18,17.55l1.13,1.17-1.11-1.18,12.29,2.58-.82.34.84-.34a427.61,427.61,0,0,1,43.26-14.92Z"/><path class="cls-4" d="M268.52,185.11l2-.34Z"/><path class="cls-4" d="M259.35,186.87l2.75-.55Z"/><path class="cls-4" d="M112.92,155.07l-4-2.65Z"/><path class="cls-4" d="M243.05,190.54l3.31-.8Z"/><path class="cls-5" d="M294.42,157.79l45,9.37,5.19-24.89-12.22-2.55q-4.07,8.91-7.75,18Q309.37,157.19,294.42,157.79Z"/><path class="cls-5" d="M101.19,147.39l2.3,1.46,3,1.94,2.47,1.63,4,2.65c1.18.81,2.37,1.62,3.55,2.45l2.45,1.73,2.92,2.08,2.33,1.7.51.38q-13.89-12.28-28.7-23l-2.54-.53-.51,2.45c.95.57,1.89,1.16,2.83,1.73l2.35,1.42Z"/><path class="cls-5" d="M172.72,182.34l56.72,11.81,1.36-.37q2.69-.76,5.39-1.48l3.48-.9,3.38-.86,3.31-.8q2.94-.7,5.9-1.37l2.83-.61,4.26-.89,2.75-.55c2.14-.42,4.27-.83,6.42-1.21l2-.34c1.82-.31,3.65-.62,5.48-.91l1.89-.3q3.63-.56,7.27-1.05l.36,0q3.87-.51,7.76-.95l.12,0-69.24-14.42A410.39,410.39,0,0,0,172.72,182.34Z"/><path class="cls-5" d="M173.9,206.5l1.11,1.18c1.37,1.44,2.74,2.88,4.09,4.34,2.08-.89,4.17-1.75,6.27-2.6l.82-.34Z"/><path class="cls-6" d="M96,140.39q14.8,10.76,28.7,23Q131,169,137.16,174.94q7.76,7.47,15.18,15.48L192,0H147.37L7.44,91.68q13.74,5.55,27,12A402.52,402.52,0,0,1,96,140.39Z"/><path class="cls-7" d="M147.37,0H0A387,387,0,0,1,7.44,91.68Z"/><path class="cls-6" d="M324.61,157.76q3.69-9.13,7.75-18,8.47-18.6,18.65-36.2V0H221.24Z"/><path class="cls-7" d="M152.34,190.42c1.17-.5,2.33-1,3.5-1.46q8.39-3.5,16.88-6.62a410.39,410.39,0,0,1,51.41-15.26,387.57,387.57,0,0,1,70.29-9.29q15-.58,30.19,0L221.24,0H192Z"/></g></g></svg>