<svg xmlns="http://www.w3.org/2000/svg" viewBox="0 0 805.05 243.95"><defs><style>.cls-1{fill:#665b50}</style></defs><title>Asset 26</title><g id="Layer_2" data-name="Layer 2"><g id="Layer_1-2" data-name="Layer 1"><path d="M86.87,83.29c2.48-.89,6-2.3,10.51-4.26s9.35-4.3,14.5-7,10.33-5.76,15.56-9a110.78,110.78,0,0,0,13.7-10,42,42,0,0,0,8.78-10q2.93-4.92,1.33-9.18Q149.1,28.5,141.54,28a61.67,61.67,0,0,0-16.63,1.33,108.22,108.22,0,0,0-17.82,5.32,85,85,0,0,0-13,6.12Q75.43,52.18,68.12,61.61t-6,18q1.32,8.52,10.1,16.36A142.39,142.39,0,0,0,95.12,112q7.71,4.78,15.56,9.71A120.36,120.36,0,0,1,124.78,132a49,49,0,0,1,10,11.3,24.38,24.38,0,0,1,3.73,13.17q0,7.19-4.66,15.56t-15.29,18.22a91.9,91.9,0,0,1-17.69,12.64A127.25,127.25,0,0,1,79,212.43a127.88,127.88,0,0,1-23.41,5.45,84.69,84.69,0,0,1-22.21.27,49.47,49.47,0,0,1-18.49-6A29.08,29.08,0,0,1,2.82,199,28.12,28.12,0,0,1,.29,182.77a39.17,39.17,0,0,1,6-15.69,57.52,57.52,0,0,1,12.1-13.43,67.52,67.52,0,0,1,15.83-9.71,110.77,110.77,0,0,1,35-8.65q18.22-1.46,35.52-1.46-8.52.27-17.43.66t-17.82,1.6a168.84,168.84,0,0,0-17.56,3.32A99.1,99.1,0,0,0,35,145.27a62.82,62.82,0,0,0-14.49,9.31A48.78,48.78,0,0,0,10,167a33.77,33.77,0,0,0-4.66,14.23,26.19,26.19,0,0,0,3.33,14.89,27,27,0,0,0,11.44,11.71,46.59,46.59,0,0,0,17,5.05,75.64,75.64,0,0,0,20.35-.66,122,122,0,0,0,21.28-5.46,126.79,126.79,0,0,0,19.95-9,74.05,74.05,0,0,0,16.09-12q10.64-10.38,13.57-18.49t.4-14.63A26.9,26.9,0,0,0,119.59,141a125.89,125.89,0,0,0-15-9.71q-8.37-4.65-17.29-9.18a99.31,99.31,0,0,1-15.82-9.84Q56.54,101.38,53,89.67a32.59,32.59,0,0,1,1.33-23.14Q59.21,55.1,71.05,44.72A130.12,130.12,0,0,1,98.84,26.36,105.42,105.42,0,0,1,109.22,22a99,99,0,0,1,12.63-3.73,83.58,83.58,0,0,1,13-1.86,34.6,34.6,0,0,1,12,1.2,18.29,18.29,0,0,1,8.91,5.58q3.45,4,4,10.91a25.38,25.38,0,0,1-3.06,14.1,47.91,47.91,0,0,1-9.58,12.23,87.84,87.84,0,0,1-13.7,10.38q-7.71,4.78-15.69,8.77a59.2,59.2,0,0,1-5.45,2.66,90.91,90.91,0,0,1-11.18,4.26,32.73,32.73,0,0,1-10.5,1.73Q86.07,88.08,86.87,83.29Z" class="cls-1"/><path d="M137.14,185.43q3.74-10.63,9.58-24.74t11.17-27.13q6.39-16,11.31-32.45t10-32.58q5.06-16.1,10.91-31.13A160.28,160.28,0,0,1,204.44,9.07a20.34,20.34,0,0,1,5.85-6.65A9,9,0,0,1,215.48.7a4.07,4.07,0,0,1,3.46,2.39,11.12,11.12,0,0,1,.93,6q-.8,7.18-5.45,21T203,60.81q-6.78,16.89-15.3,35.51T170.93,132q-1.34,2.92-3.6,8.51T162.15,153a93.17,93.17,0,0,1,8.78-7.31,29,29,0,0,1,8.37-4.53,10.37,10.37,0,0,1,6.92,0q3.06,1.2,4.66,6a18.76,18.76,0,0,1,.13,10.64,99.3,99.3,0,0,1-4,12.63q-2.53,6.53-5.19,12.77a64.23,64.23,0,0,0-3.72,11,62.29,62.29,0,0,0,8-5.59q5-4,10.77-9.17t11.84-11q6.12-5.85,11.44-10.91t9.31-8.91q4-3.85,5.58-5.19-2.13,2.4-6.52,7.72t-10,11.84q-5.58,6.51-11.7,13.43T195,189.29a103.2,103.2,0,0,1-10.64,9.84c-3.29,2.57-5.81,4-7.58,4.39-3.37.71-5.55.09-6.52-1.86s-1.24-4.61-.8-8a64.13,64.13,0,0,1,2.8-11.57c1.41-4.35,2.88-8.6,4.38-12.77s2.8-7.93,3.86-11.31,1.51-5.85,1.33-7.44c-1.77.35-4.17,1.77-7.18,4.25s-6.12,5.28-9.31,8.38-6.21,6.17-9,9.18-4.79,5-5.86,6.12q-.52,1.06-.93,1.86a4.77,4.77,0,0,1-.93,1.33,11.76,11.76,0,0,1-5.05,4.12A7.74,7.74,0,0,1,137.14,185.43Zm38.57-82.72q5.06-9.58,11-23t11.31-26.6q5.31-13.17,9.17-24.21t4.66-16.09q-2.92,5.58-7.71,17t-10,24.61Q189,67.6,184,80.63T175.71,102.71Z" class="cls-1"/><path d="M294.35,141.54q-1.07,1.34-4.13,4.52t-7.58,7.32q-4.51,4.13-10.1,8.91T261.1,171.2a102.53,102.53,0,0,1-11.71,7.18,35.93,35.93,0,0,1-10.9,3.86q-8.52,1.33-12.11-3.46t-3.32-12.23a40.64,40.64,0,0,1,4.12-15.7A38.4,38.4,0,0,1,238,137a51.64,51.64,0,0,1,9.31-5.72,27.5,27.5,0,0,1,9-2.66,12.35,12.35,0,0,1,7.18,1.2c1.95,1.06,3.19,3,3.73,5.85a13.29,13.29,0,0,1-2.93,10.37,40.5,40.5,0,0,1-9.44,8.65,71.74,71.74,0,0,1-12,6.52q-6.25,2.66-10.24,4c-.36,3,0,5.41,1.06,7.18s3.19,2.39,6.38,1.86a52.06,52.06,0,0,0,13.84-4.65,141.44,141.44,0,0,0,14.89-8.38q7.44-4.8,14.23-10.11T294.35,141.54ZM238,152.45a57.68,57.68,0,0,0,10.9-5.59,17.8,17.8,0,0,0,7.18-8,23.18,23.18,0,0,0-9.71,4.79A46.64,46.64,0,0,0,238,152.45Z" class="cls-1"/><path d="M333.71,9.07q2.66-4.78,5.59-6.65A9,9,0,0,1,344.49.7a4,4,0,0,1,3.45,2.39,11,11,0,0,1,.93,6q-.8,7.18-5.45,21T331.85,60.81q-6.92,16.89-15.43,35.51T299.66,132c-.35.89-.93,2.26-1.72,4.12s-1.65,3.95-2.53,6.25a142,142,0,0,0-3.59,15.3,56.09,56.09,0,0,0-.67,15.82,33.71,33.71,0,0,0,4.52,14q3.74,6.25,12,9.71a26.88,26.88,0,0,0,5.46,1.73c1.5.26,3.5.49,6,.66a69,69,0,0,1-8.11.53,27.14,27.14,0,0,1-8.38-1.59q-12-4-16.36-12.11a39.88,39.88,0,0,1-4.65-18.22q-.27-9,2.52-23t7.45-29.92q4.65-16,10.64-32.59T314,51.37q5.85-14.62,11-25.8A144.29,144.29,0,0,1,333.71,9.07Zm-29,93.64q5-9.58,11-23t11.3-26.6q5.32-13.17,9.05-24.21a112,112,0,0,0,4.52-16.09q-2.94,5.58-7.58,17t-10,24.61q-5.32,13.17-10.24,26.2T304.72,102.71Z" class="cls-1"/><path d="M372.55,9.07q2.65-4.78,5.58-6.65A9,9,0,0,1,383.32.7a4.07,4.07,0,0,1,3.46,2.39,11.12,11.12,0,0,1,.93,6q-.79,7.18-5.45,21T370.69,60.81q-6.93,16.89-15.43,35.51T338.5,132c-.36.89-.93,2.26-1.73,4.12s-1.64,3.95-2.53,6.25a142,142,0,0,0-3.59,15.3,56.45,56.45,0,0,0-.66,15.82,33.57,33.57,0,0,0,4.52,14q3.72,6.25,12,9.71a26.81,26.81,0,0,0,5.45,1.73c1.51.26,3.5.49,6,.66a69,69,0,0,1-8.12.53,27.09,27.09,0,0,1-8.37-1.59q-12-4-16.36-12.11a39.89,39.89,0,0,1-4.66-18.22q-.26-9,2.53-23t7.45-29.92Q335,99.25,341,82.62t11.83-31.25q5.85-14.62,11-25.8A142.42,142.42,0,0,1,372.55,9.07Zm-29,93.64q5.06-9.58,11-23T365.9,53.1q5.31-13.17,9-24.21a112,112,0,0,0,4.52-16.09q-2.93,5.58-7.58,17t-10,24.61q-5.32,13.17-10.24,26.2T343.55,102.71Z" class="cls-1"/><path d="M455.8,28.49Q450.48,52.7,443.7,74t-14.76,42q23.67,1.59,45.48,2.26t45.76-.4q8.24-25.28,15.82-50t13.7-50.27c4.26-1.07,7.49-.44,9.71,1.86s2.88,5.5,2,9.57Q555,53,547.84,74.51t-15.16,42.56q15.42-.79,31-2.26t32.05-3.06q-17.55,2.93-33.38,5t-31,4q-5.33,13.3-11,28.87t-12.1,31.65Q501.82,197.4,495,213.5t-14,30.45q4.53-15.42,9.71-31.92T501,179.45q5.06-16.09,9.71-30.86t8.38-26.73q-24.21,2.39-47.08,3.46t-46.82,1.06c-.89,2-1.72,4-2.52,6s-1.64,4-2.53,6q7.18,4.53,15,9.84t15,10.78q7.18,5.44,12.9,10.5a54.55,54.55,0,0,1,8.51,9.05q2.79,4,2.13,6.65c-.45,1.77-2.62,2.84-6.52,3.19q-6.92-9-13-15.83a156.81,156.81,0,0,0-12.1-12.1,109.16,109.16,0,0,0-12-9.31q-6-4-12.11-7.45-9,21-19,42.56t-21.14,45.49q5.83-15.71,11.3-31.13t10.24-31.12q2.4-7.18,4.92-14.63t4.92-15.16q-9-4.25-19.15-7.85t-22.34-8.64h-.53q-6.14-2.66-5.32-6t6.38-3.59q3.19-.26,8.38-.26t11.7.26q6.53.27,13.84.67c4.87.26,9.79.58,14.76.93q7.71-25,14.63-49.34t12.5-48.55a4,4,0,0,1,3.33-.27,12,12,0,0,1,4.38,2.13,12.68,12.68,0,0,1,3.46,4A6.8,6.8,0,0,1,455.8,28.49ZM411.12,133a29,29,0,0,0,2.39-6.92c-2.49,0-5.05,0-7.71-.13s-5.32-.22-8-.4q1.32.54,4.92,2.53T411.12,133Z" class="cls-1"/><path d="M648.92,141.54q-2.67,3.19-8.92,9.45t-13.69,12.76a150.41,150.41,0,0,1-15.17,11.71q-7.71,5.19-13.56,6.25t-8.65-3.33Q586.14,174,588.8,161q-4.53,4.53-8.91,8.51t-8.38,7.05a55.37,55.37,0,0,1-7.18,4.79,9.3,9.3,0,0,1-5.32,1.46q-6.39-.53-7.45-6.38T552.89,163a64.56,64.56,0,0,1,7.45-15.43,52.11,52.11,0,0,1,11-12.64q6-4.78,11.83-4.65t9.85,8.11c1.41-1.95,3.1-4.21,5.05-6.78a16.28,16.28,0,0,1,5.85-5.19,3.72,3.72,0,0,1,2.4-.27,3.17,3.17,0,0,1,2.12,2.13c.36.53,0,2.18-1.19,4.92s-2.53,6-4.13,9.58-3.15,7.45-4.65,11.44a50.89,50.89,0,0,0-2.93,10.64q-.66,4.65.93,7.05c1.07,1.59,3.37,1.77,6.92.53a57.28,57.28,0,0,0,11.44-5.72q6.64-4.12,13.16-8.78t12.24-9.18Q646,144.21,648.92,141.54Zm-63,5.06q-1.86-8.79-5.45-7.85t-7.31,6.38a73.81,73.81,0,0,0-6.92,13,58.17,58.17,0,0,0-4,12.37c1.6-1.07,3.81-2.62,6.65-4.66a95.25,95.25,0,0,0,8.25-6.65,70.09,70.09,0,0,0,6.78-6.91C585.74,150.1,586.41,148.19,585.87,146.6Z" class="cls-1"/><path d="M677.11,141.54q-5.85-3.45-11.44-2.26a20.18,20.18,0,0,0-9.71,5.06,30.22,30.22,0,0,0-6.65,9.17,22.18,22.18,0,0,0-2.39,10.11,11.1,11.1,0,0,0,3.19,7.85q3.06,3.06,10,2.52,7.71-1.05,20.74-8.37t33.25-22.75q-4.79,4.78-12.1,11.84a198.61,198.61,0,0,1-15.69,13.57,117.35,117.35,0,0,1-16.89,11q-8.52,4.53-15.7,3.73-7.71-.79-11.57-5.45a19.47,19.47,0,0,1-4.39-11,33.27,33.27,0,0,1,1.86-13.44,40.71,40.71,0,0,1,6.92-12.63,30.81,30.81,0,0,1,11-8.65,23.49,23.49,0,0,1,14.23-1.73c3.19.54,5.28,1.43,6.25,2.66a6,6,0,0,1,1.46,3.73,5.48,5.48,0,0,1-1.06,3.32A19.23,19.23,0,0,1,677.11,141.54Z" class="cls-1"/><path d="M683.49,184.63c1.25-3.36,2.8-7.18,4.66-11.43s3.85-8.65,6-13.17,4.22-9.09,6.25-13.7,4-9,6-13.3q6.92-16,12.5-32.58t11.31-32.72q5.72-16.1,12.23-31.12a174,174,0,0,1,15.3-28.07A23.5,23.5,0,0,1,764,1.76,8.35,8.35,0,0,1,769.28,0a4.39,4.39,0,0,1,3.46,2.53,9.86,9.86,0,0,1,.66,6q-1.06,7.19-6.25,20.88T754.38,60.15q-7.57,17-16.89,35.51T719.14,130.9a30.49,30.49,0,0,1,6.91-2.26q3.47-.66,7.18-1.2c3.9-.17,6.7.4,8.38,1.73a6,6,0,0,1,2.4,5.19,14.33,14.33,0,0,1-2.66,7,32.46,32.46,0,0,1-6.79,7.31,66,66,0,0,1-12.76,8.38,101.15,101.15,0,0,0-12.24,7.05l8,6q5.85,4.38,12.37,9.17t12,8.65c3.63,2.57,5.81,4.12,6.52,4.65q-4.53-2.66-9.71-5.32t-10.51-5.45q-5.32-2.79-10.24-5.45t-8.65-5.06a22.59,22.59,0,0,1-4.12-3.59,9.6,9.6,0,0,1-1.73-3.06c-.88-.17-1.86,1-2.92,3.46s-2.4,5.19-4,8.12a30.27,30.27,0,0,1-5.59,7.44C688.81,185.74,686.33,186.06,683.49,184.63Zm24.21-29c1.77-1.24,3.86-2.57,6.25-4s4.79-2.88,7.18-4.39,4.7-3.06,6.92-4.65a21.75,21.75,0,0,0,5.18-5.06q-7.17,0-14.23,5.32A42,42,0,0,0,707.7,155.64ZM725,101.91q5.58-9.59,12.23-22.88t12.51-26.46q5.85-13.17,10.1-24.08t5.06-16q-3.2,5.6-8.38,16.76T745.6,53.63q-5.72,13.17-11.3,26.2T725,101.91Z" class="cls-1"/><path d="M776.06,139.15q-2.4-2.13-6.78-1.73a16.89,16.89,0,0,0-7.85,2.66A9.87,9.87,0,0,0,757,146.2q-.93,3.86,3.59,8.38a8.82,8.82,0,0,1,.93,1.06,9.94,9.94,0,0,0,.93,1.06c4.43-1.23,8.42-2.26,12-3s6.92-1.64,10.11-2.53,6.43-2,9.71-3.19a86.9,86.9,0,0,0,10.77-5.06,109.76,109.76,0,0,1-11.43,6.79q-5.05,2.52-9.45,4.25c-2.92,1.16-5.85,2.18-8.77,3.06s-6,1.86-9.18,2.93c1.77,1.59,3.59,3.37,5.45,5.32a23.47,23.47,0,0,1,4.39,6.38,17.64,17.64,0,0,1,1.6,7.45,15.84,15.84,0,0,1-2.93,8.51Q769.95,195,762,195.81a26.16,26.16,0,0,1-14.76-2.66,23.25,23.25,0,0,1-10.24-10q-3.45-6.51.53-13.7a12,12,0,0,1,5.32-5.18,70,70,0,0,1,9.58-4.39q-4.8-6.12-4.66-11.71a16.66,16.66,0,0,1,3.33-9.84,21.17,21.17,0,0,1,8.64-6.65,24.33,24.33,0,0,1,11-2.13q5.58.54,7.71,2.13c1.42,1.06,2.13,2.13,2.13,3.19a3.93,3.93,0,0,1-1.46,2.93A4.52,4.52,0,0,1,776.06,139.15Zm-19.42,24.2a4.44,4.44,0,0,1-1.33.67,2.33,2.33,0,0,0-1.06.66q-8.78,4.26-10.38,8.65c-1.06,2.93-.75,5.45.94,7.58s4.29,3.64,7.84,4.52A17.25,17.25,0,0,0,763,184.9c2.83-1.24,4.39-2.83,4.65-4.79a9.39,9.39,0,0,0-1.33-6,25.32,25.32,0,0,0-4.65-5.85C759.74,166.41,758.06,164.78,756.64,163.35Z" class="cls-1"/></g></g></svg>