<svg xmlns="http://www.w3.org/2000/svg" viewBox="0 0 77.37 74.82"><defs><style>.cls-1{fill:#fff;}</style></defs><title>Asset 30</title><g id="Layer_2" data-name="Layer 2"><g id="Layer_1-2" data-name="Layer 1"><path class="cls-1" d="M64.38,0,42.43,19.44,43.9,20.9l.19.16a.92.92,0,0,1,.13.14l.15.17c.21.23.44.48.66.77l.36.43.35.49c.27.33.48.72.75,1.11a19.94,19.94,0,0,1,2.56,6.44A20.45,20.45,0,0,1,49.47,35a22.63,22.63,0,0,1-.15,2.43A21.11,21.11,0,0,1,48.83,40,21.45,21.45,0,0,1,48,42.56c-.09.21-.19.42-.28.64l-.13.33-.16.31c-.1.22-.2.43-.31.65l-.34.63-.18.33-.19.31L46,46.4l-.42.61-.22.32-.23.3-.47.61-.51.6-.12.15-.07.08c.09-.07-.23.22.18-.15l0,0-.42.42-.63.63a1.29,1.29,0,0,0-.16.17l-.07.09-.13.11c-.18.15-.35.32-.54.47l-.55.45-.59.43a16.18,16.18,0,0,1-2.58,1.45,16.7,16.7,0,0,1-6.14,1.43,17.41,17.41,0,0,1-6.67-1.07A17,17,0,0,1,22.47,52c-.26-.15-.51-.33-.76-.5s-.49-.36-.74-.54a7.93,7.93,0,0,1-.71-.59l-.18-.15L20,50.14c-.15-.16.15.18.1.12L20,50.2l-.49-.49-.32-.32L19,49.2c-.16-.2-.37-.41-.54-.62s-.35-.43-.51-.66-.31-.46-.47-.7a13.69,13.69,0,0,1-1.43-3.1A14.1,14.1,0,0,1,15.77,37,14.36,14.36,0,0,1,17,33.53a15.76,15.76,0,0,1,1-1.62c.17-.27.37-.51.57-.77s.2-.25.3-.37l.16-.18.08-.09,0-.05s.14-.14-.08.06l.77-.77.1-.11.16-.14c.11-.09.21-.2.33-.29a10.91,10.91,0,0,1,1.42-1,9.69,9.69,0,0,1,1.59-.76,10.86,10.86,0,0,1,1.71-.5,11.65,11.65,0,0,1,7.16.79,13.81,13.81,0,0,1,1.64.9,14.47,14.47,0,0,1,1.49,1.15c-.32-.36-.06-.07-.11-.13l.06.06.11.12.23.24.45.47c.1.1.1.12.14.16l.09.13.21.23.06.06a.73.73,0,0,1,0,.09l.12.17.24.36a2.26,2.26,0,0,1,.22.37l.2.38a9.5,9.5,0,0,1,.6,6.86,10,10,0,0,1-1.57,3.19l-.57.69,0,0s.23-.2.09-.07l-.11.1-.22.21-.44.42-.5.41c-.23.14-.45.32-.69.45a8.11,8.11,0,0,1-9.33-1.05l-.08-.06s-.11-.12,0,.06l0,0-.19-.2-.37-.38-.2-.26a1.18,1.18,0,0,1-.21-.26,7.06,7.06,0,0,1-.4-.65l-.18-.34L23,41.26a7,7,0,0,1-.41-1.49,7.21,7.21,0,0,1,0-1.54,6.92,6.92,0,0,1,.92-2.88c.12-.22.28-.42.41-.63l.48-.58s-.1.08,0,0l0,0,.08-.08.17-.16.16-.15,0,0,0,0,.06,0a2.11,2.11,0,0,0,.23-.19,2.08,2.08,0,0,1,.29-.19,5.29,5.29,0,0,1,1.24-.61c.23,0,.44-.14.67-.17l.34-.07.34,0a5.3,5.3,0,0,1,.69,0c.22,0,.45,0,.67.06a6.33,6.33,0,0,1,1.29.36,6,6,0,0,1,2.12,1.47l.07.07,0,.06.08.1c.06.08.12.14.17.22a4.65,4.65,0,0,1,.26.41,4.51,4.51,0,0,0-2.06-1.41,4.6,4.6,0,0,0-2.94,8.71l.13,0,.22.08A4.79,4.79,0,0,0,32,42.29,5.09,5.09,0,0,0,33.8,41a6.2,6.2,0,0,0,1.29-2.15A6.42,6.42,0,0,0,34.24,33,8.2,8.2,0,0,0,28,29.65l-.51,0-.51,0a8.78,8.78,0,0,0-1,.13,8.58,8.58,0,0,0-2,.68c-.17.09-.33.15-.5.26l-.52.32-.13.08-.11.08-.18.14-.19.13-.09.07-.05,0-.11.09-.81.76c-.24.28-.5.55-.73.86a10.76,10.76,0,0,0-2,4.25A11.28,11.28,0,0,0,18.23,40a11.81,11.81,0,0,0,.33,2.55l.17.63.22.63a11.11,11.11,0,0,0,.55,1.22,6.15,6.15,0,0,0,.37.64c.13.21.27.43.41.63l.32.43.16.22,0,.05.14.16.11.12a13.5,13.5,0,0,0,4.33,3.31A13.92,13.92,0,0,0,31,52a14.23,14.23,0,0,0,5.95-1c.49-.19,1-.44,1.42-.67s1-.61,1.49-.93L40.3,49l.24-.18.13-.09.2-.18.07-.06,1.12-1a17.69,17.69,0,0,0,3.52-5.23,18,18,0,0,0,1.5-6.37,18.34,18.34,0,0,0-.93-6.73l-.3-.82c-.11-.27-.21-.54-.34-.8l-.38-.8-.2-.39-.1-.2-.13-.21c-.17-.29-.35-.57-.53-.85l-.28-.42a3.27,3.27,0,0,0-.25-.37l-.39-.53-.2-.27-.1-.13-.05-.07c-.09-.1.14.15-.21-.25a26.29,26.29,0,0,0-2.4-2.44,23,23,0,0,0-20.15-4.94,23.14,23.14,0,0,0-6.93,2.82c-.28.16-.54.33-.8.51l-.4.26-.44.32-.43.33-.35.26-.54.43-.8.71c-.22.2-.45.39-.66.61-.43.42-.87.85-1.27,1.3A28.06,28.06,0,0,0,1.8,32.58a29.37,29.37,0,0,0,.72,22.06c.26.58.52,1.16.83,1.72S4,57.48,4.28,58s.68,1.07,1,1.62l.65.87L6.3,61l.22.29.42.53.06.07s.32.36.21.24l.15.17.3.34c.4.45.79.89,1.22,1.32s.85.86,1.3,1.25.88.82,1.35,1.2a35.51,35.51,0,0,0,6,4,36.58,36.58,0,0,0,13.64,4.2,37.12,37.12,0,0,0,14-1.2,38,38,0,0,0,6.48-2.48l1.53-.8,1.47-.86c.49-.3,1-.62,1.43-.93l.36-.23.39-.29.78-.57.7-.54.47-.37.47-.36.78-.7,1.16-1c.38-.36.75-.72,1.11-1.09.19-.18.37-.36.55-.55s.36-.37.53-.56l1-1.14c.32-.4.65-.79,1-1.18l.48-.59.45-.61.25-.33S92.29,29.81,64.38,0Z"/></g></g></svg>