<svg xmlns="http://www.w3.org/2000/svg" viewBox="0 0 209.02 62.69"><defs><style>.cls-1{fill:#9e8d7d;}</style></defs><title>Asset 19</title><g id="Layer_2" data-name="Layer 2"><g id="Layer_1-2" data-name="Layer 1"><path class="cls-1" d="M31.35,0A31.35,31.35,0,1,0,62.69,31.35,31.34,31.34,0,0,0,31.35,0ZM45.72,45.21a1.94,1.94,0,0,1-2.68.65c-7.37-4.5-16.63-5.51-27.54-3A2,2,0,1,1,14.63,39c11.94-2.73,22.18-1.55,30.44,3.49A2,2,0,0,1,45.72,45.21Zm3.84-8.53a2.44,2.44,0,0,1-3.36.8C37.77,32.3,24.93,30.8,15,33.83a2.45,2.45,0,0,1-1.42-4.68c11.38-3.45,25.54-1.78,35.21,4.17A2.45,2.45,0,0,1,49.56,36.68Zm.33-8.89c-10.11-6-26.77-6.55-36.42-3.63a2.93,2.93,0,0,1-1.7-5.61c11.07-3.36,29.48-2.71,41.11,4.2a2.93,2.93,0,0,1-3,5Z"/><path class="cls-1" d="M85.28,28.94c-5.41-1.29-6.37-2.2-6.37-4.1s1.69-3,4.21-3a12.28,12.28,0,0,1,7.39,2.81.36.36,0,0,0,.51-.08l2.64-3.72a.36.36,0,0,0-.07-.49,16,16,0,0,0-10.39-3.6c-5.85,0-9.93,3.51-9.93,8.53,0,5.38,3.52,7.28,9.61,8.75,5.18,1.2,6.05,2.2,6.05,4,0,2-1.77,3.21-4.61,3.21-3.16,0-5.74-1.06-8.62-3.56a.35.35,0,0,0-.26-.08.35.35,0,0,0-.24.12l-3,3.53a.35.35,0,0,0,0,.49A17.64,17.64,0,0,0,84.2,46.3c6.3,0,10.36-3.44,10.36-8.77C94.56,33,91.88,30.54,85.28,28.94Z"/><path class="cls-1" d="M108.81,23.6A8.46,8.46,0,0,0,102,26.88V24.4a.36.36,0,0,0-.36-.36H96.8a.36.36,0,0,0-.36.36V52a.36.36,0,0,0,.36.35h4.84A.36.36,0,0,0,102,52v-8.7a8.7,8.7,0,0,0,6.81,3.09C113.88,46.34,119,42.43,119,35S113.88,23.6,108.81,23.6ZM113.38,35c0,3.8-2.34,6.45-5.69,6.45s-5.81-2.77-5.81-6.45,2.5-6.45,5.81-6.45S113.38,31.23,113.38,35Z"/><path class="cls-1" d="M132.18,23.6A11.39,11.39,0,1,0,143.78,35,11.42,11.42,0,0,0,132.18,23.6Zm0,17.86a6.16,6.16,0,0,1-6.1-6.49c0-3.72,2.53-6.41,6-6.41a6.18,6.18,0,0,1,6.13,6.49C138.23,38.77,135.68,41.46,132.18,41.46Z"/><path class="cls-1" d="M157.73,24H152.4V18.59a.36.36,0,0,0-.36-.35H147.2a.36.36,0,0,0-.36.35V24h-2.33a.36.36,0,0,0-.35.36v4.16a.36.36,0,0,0,.35.36h2.33V39.7c0,4.35,2.17,6.56,6.45,6.56a8.87,8.87,0,0,0,4.54-1.13.34.34,0,0,0,.17-.31v-4a.37.37,0,0,0-.16-.31.36.36,0,0,0-.35,0,6.09,6.09,0,0,1-2.84.68c-1.56,0-2.25-.7-2.25-2.28v-10h5.33a.35.35,0,0,0,.35-.36V24.4A.35.35,0,0,0,157.73,24Z"/><path class="cls-1" d="M176.31,24.06v-.67c0-2,.76-2.84,2.45-2.84a8.26,8.26,0,0,1,2.73.5.33.33,0,0,0,.32-.05.36.36,0,0,0,.15-.29V16.63a.35.35,0,0,0-.25-.34,13.17,13.17,0,0,0-4-.58c-4.48,0-6.84,2.52-6.84,7.29v1h-2.33a.36.36,0,0,0-.36.36v4.18a.36.36,0,0,0,.36.36h2.33V45.54a.35.35,0,0,0,.35.36H176a.36.36,0,0,0,.35-.36V28.92h4.52l6.94,16.62c-.79,1.74-1.56,2.09-2.62,2.09a5.52,5.52,0,0,1-2.67-.76.36.36,0,0,0-.29,0,.31.31,0,0,0-.2.19l-1.65,3.6a.35.35,0,0,0,.16.46,10.16,10.16,0,0,0,5.17,1.32c3.58,0,5.56-1.66,7.3-6.15l8.41-21.72a.35.35,0,0,0,0-.33.35.35,0,0,0-.29-.16h-5a.35.35,0,0,0-.33.24l-5.17,14.76-5.66-14.77a.36.36,0,0,0-.33-.23Z"/><rect class="cls-1" x="160.34" y="24.04" width="5.56" height="21.85" rx="0.36"/><path class="cls-1" d="M163.14,14.42a3.48,3.48,0,1,0,3.48,3.47A3.47,3.47,0,0,0,163.14,14.42Z"/><path class="cls-1" d="M205.6,30.84A3.42,3.42,0,1,1,209,27.41,3.4,3.4,0,0,1,205.6,30.84Zm0-6.5a3.08,3.08,0,1,0,3.06,3.07A3.06,3.06,0,0,0,205.61,24.34Zm.76,3.42,1,1.35h-.81l-.87-1.24h-.74v1.24h-.69V25.53h1.6c.83,0,1.38.43,1.38,1.14A1.07,1.07,0,0,1,206.37,27.76Zm-.58-1.61h-.88v1.13h.88c.45,0,.71-.22.71-.57S206.24,26.15,205.79,26.15Z"/></g></g></svg>