<svg xmlns="http://www.w3.org/2000/svg" viewBox="0 0 190.26 180.15"><defs><style>.cls-1{fill:#f2e2b8;}.cls-2{fill:#ef4b46;}.cls-3{fill:#b93835;fill-rule:evenodd;}.cls-4{fill:#fff;}</style></defs><title>Asset 12</title><g id="Layer_2" data-name="Layer 2"><g id="Layer_1-2" data-name="Layer 1"><path class="cls-1" d="M86.19,179.91c8.6-1.68,13.17-13,17.44-19.69q8.58-13.38,17.36-26.62c1-1.52,2.38-5,3.9-5.85a6.38,6.38,0,0,1,1.61-.18c4.63-.71,10.75,1.07,15.33,1.86,9,1.58,18.76,6.15,28,5.74s17.54-9.18,13.11-18.56c-3.87-8.2-12.42-11.87-20.47-14.45-6.92-2.22-12.91-5.12-13.56-13.29C147.31,69.48,165.55,55.74,166.35,37c.3-7-8.9-13.21-14.41-7.32-3.67,3.91-6.13,6.76-7.88,11.89a4.87,4.87,0,0,0,.61,4.57c-1.22,3-2.53,5.91-4.06,8.81-3.45,6.58-6.92,13-8.55,20.36-2.51,11.19-.74,24.11,7.43,32.11-12-2.09-24.43-1.67-31.58,8.53-5.18,7.39-8.58,16.54-12.8,24.53l-6.4,12.14c-.42.81-3.51,6-5.31,9.39a18.1,18.1,0,0,1-.93-1.66,37.65,37.65,0,0,1-1.78-5.67,42.48,42.48,0,0,1-1.06-12.76c.59-8.24,4-15.7,1.15-23.95-6-17.64-27-16.59-42.09-17-4.34-.11-8.7,0-13,.28-2.6.16-7.34,2-9.91,1a1.59,1.59,0,0,0-.45-.13,1,1,0,0,0,.14-.21c.58-1.25,3.18-2.15,4.32-2.73C24,97,28.39,95,32.71,93,47.48,85.85,69.8,80.43,69.78,60a97.74,97.74,0,0,0-5-29.92,62.74,62.74,0,0,0-5.93-12.66c-2.15-3.65-3.73-7.91.29-11,1.58-1.2.7-4.36-1.39-4.27-6.14.25-10.49,4.55-12.39,10.35-2.91,8.92.45,18,2.67,26.53a134,134,0,0,1,3.07,14.72c.55,3.88,2.11,9.46,1.2,13.3-.82,3.45-5.27,5.25-8,6.74-4.54,2.47-9.21,4.65-13.88,6.85-7.75,3.66-18.11,6.62-24,13.14a12.67,12.67,0,0,0,.52,18c13,13.06,34.41,6,50.35,9.69,2.61.59,2.73,1.36,4.66,3.28,3,3,4,9.48,3.42,13.13a56.78,56.78,0,0,0,2.95,27.28c2.74,7.62,8.56,16.56,17.87,14.74"/><path class="cls-2" d="M81,175.35c8.07,2.1,13.4-7.18,16-13.1,4.57-10.38,9.05-20.82,13.58-31.23,1.57-3.61,3.27-7.38,6.38-9.76,4.47-3.42,10.7-3.1,16.17-1.87,13.95,3.15,27.56,4,41.46,8.29,2.72.83,5.51,1.73,8.36,1.56s5.82-1.64,6.92-4.31,0-5.76-1.81-7.9-4.4-3.53-6.86-4.9c-10.85-6-32.33-16-36.29-29.19-1.24-4.14-.26-8.61,1-12.73,2.25-7.15,5.38-15.08,10.06-21,4.37-5.53,9.49-10,12.78-16.47,1.54-3.05,2.6-7,.57-9.69-2.2-3-6.65-2.73-10.18-1.73a72.88,72.88,0,0,0-21.91,10.56c-5.4,3.81-10.69,7.93-16.76,10.49s-13.23,3.39-19.15.5c-4.17-2-7.32-5.68-10.31-9.26-6.66-8-14.28-16-19.7-24.89-3.06-5-11.77-12.4-17.58-6.6-5.2,5.21-.73,16.71,1,22.56A127.23,127.23,0,0,1,59.83,53c.32,5,.54,11.95-2.43,16.3-2.75,4-10.8,6.23-15.14,8.15a223.54,223.54,0,0,1-24.51,9.16c-4.86,1.5-11.55,2-15.2,6-4.44,4.9-2.85,10,2.94,11.59,16.16,4.43,33.89.49,50,5.93,4.76,1.61,9.38,4.09,12.52,8,4.55,5.69,2.57,11.07,3.1,17.56.64,8,1.18,16,1.77,24,.46,6.25,2.06,14,8.06,15.53"/><path class="cls-3" d="M136.52,79.63c-.37-2.69-3.83-3.43-6.52-3.51-5.16-.17-13.08,1.24-17.35-2-4-3-4.43-19.66-6-24-.5-1.37-1.07-2.84-2.3-3.6-2-1.25-4.74.1-6.09,2s-2.62,13.6-3.66,15.75c-2.67,5.53-4.71,6.34-10.53,6.05-3.6-.18-15.9-4.3-18.27-2.32a4.31,4.31,0,0,0-.58,5.54c2.32,3.38,8.54,5,12.15,8,4.52,3.83,6.21,5.93,3.84,11.4-2.13,4.9-3.56,7.29-5.69,12.2-.39.9-1.44,4.58-.77,5.28a2.22,2.22,0,0,0,2,.4c4.73-.79,8-5,11.32-8.49,5.11-5.43,8-7.42,13.23-.24,3.23,4.39,4.8,7.16,7.24,11,1.06,1.67,2,3.64,4.31,4.2,2.38,0,2.87-1.73,2.9-3.29.12-6.56-4.42-16.25-2.95-22.65,1.57-6.78,13.79-4.25,19.25-6.67C134.25,83.8,136.86,82.08,136.52,79.63Z"/><path class="cls-4" d="M10.81,93a3.69,3.69,0,0,0-4.18,3.07,3.82,3.82,0,0,0,.65,2.75,3.75,3.75,0,0,0,2.38,1.46,3.7,3.7,0,0,0,2.71-.66,3.75,3.75,0,0,0,1.46-2.41,3.71,3.71,0,0,0-.65-2.74A3.81,3.81,0,0,0,10.81,93Z"/><path class="cls-4" d="M20.94,91.86a3.65,3.65,0,0,0-4.17,3.07,3.75,3.75,0,0,0,.64,2.74,3.81,3.81,0,0,0,2.38,1.47,3.75,3.75,0,0,0,2.71-.67A3.71,3.71,0,0,0,24,96.07a3.64,3.64,0,0,0-3-4.21Z"/><path class="cls-4" d="M30.88,91.91a2.5,2.5,0,0,0-1.81.44,2.54,2.54,0,0,0-1,1.61,2.48,2.48,0,0,0,.43,1.83,2.39,2.39,0,0,0,3.39.53,2.47,2.47,0,0,0,1-1.6,2.44,2.44,0,0,0-2-2.81Z"/><path class="cls-4" d="M40.9,91.49a1.72,1.72,0,0,0-1.26.31A1.68,1.68,0,0,0,39,92.91a1.7,1.7,0,0,0,1.4,2,1.72,1.72,0,0,0,1.26-.31A1.72,1.72,0,0,0,42,92.17,1.72,1.72,0,0,0,40.9,91.49Z"/><path class="cls-4" d="M51.34,88.38a3.76,3.76,0,0,0-2.72.66,3.84,3.84,0,0,0-1.46,2.41A3.64,3.64,0,0,0,52.9,95a3.8,3.8,0,0,0,1.46-2.41,3.67,3.67,0,0,0-3-4.21Z"/><path class="cls-4" d="M61.35,88a2.88,2.88,0,0,0-3.29,2.41,3,3,0,0,0,.51,2.16,2.94,2.94,0,0,0,1.87,1.15,2.88,2.88,0,0,0,2.13-.52,3,3,0,0,0,1.15-1.89,2.91,2.91,0,0,0-.51-2.16A3,3,0,0,0,61.35,88Z"/><path class="cls-4" d="M71.6,86.06a3.69,3.69,0,0,0-1.15,7.28,3.65,3.65,0,0,0,4.17-3.07A3.74,3.74,0,0,0,74,87.53,3.81,3.81,0,0,0,71.6,86.06Z"/><path class="cls-4" d="M63.34,6.84a3.71,3.71,0,0,0-1.49-2.36,3.7,3.7,0,0,0-5.14.86,3.73,3.73,0,0,0-.64,2.71A3.7,3.7,0,0,0,62.7,9.56,3.8,3.8,0,0,0,63.34,6.84Z"/><path class="cls-4" d="M66,16.36a2.06,2.06,0,1,0-1.69,2.32A2,2,0,0,0,66,16.36Z"/><path class="cls-4" d="M70.89,25.51a2.61,2.61,0,0,0-4.68-1.07,2.69,2.69,0,0,0-.46,1.92,2.61,2.61,0,0,0,4.68,1.07A2.69,2.69,0,0,0,70.89,25.51Z"/><path class="cls-4" d="M76.26,34.57a3.73,3.73,0,0,0-1.48-2.36A3.69,3.69,0,0,0,69,35.78a3.69,3.69,0,0,0,6.63,1.51A3.7,3.7,0,0,0,76.26,34.57Z"/><path class="cls-4" d="M79.28,44a2.4,2.4,0,0,0-1-1.52,2.36,2.36,0,0,0-1.77-.4,2.34,2.34,0,0,0-1.54,1,2.33,2.33,0,0,0,.54,3.28,2.47,2.47,0,0,0,1.77.4,2.36,2.36,0,0,0,2-2.71Z"/><path class="cls-4" d="M84.88,53.06a3.71,3.71,0,0,0-1.49-2.36,3.71,3.71,0,0,0-5.14.85,3.81,3.81,0,0,0-.64,2.72,3.71,3.71,0,0,0,1.49,2.36,3.71,3.71,0,0,0,5.14-.85A3.81,3.81,0,0,0,84.88,53.06Z"/><path class="cls-4" d="M89.19,62.3a3.69,3.69,0,0,0-7.27,1.21A3.7,3.7,0,0,0,88.55,65,3.8,3.8,0,0,0,89.19,62.3Z"/><path class="cls-4" d="M114.92,64.88a3.67,3.67,0,0,0-1.71,4.89,3.66,3.66,0,0,0,4.87,1.77,3.66,3.66,0,0,0,1.72-4.89,3.76,3.76,0,0,0-2.08-1.9A3.82,3.82,0,0,0,114.92,64.88Z"/><path class="cls-4" d="M123.1,59.19a2.57,2.57,0,0,0-1.2,3.44,2.56,2.56,0,1,0,4.63-2.19,2.65,2.65,0,0,0-1.47-1.34A2.71,2.71,0,0,0,123.1,59.19Z"/><path class="cls-4" d="M130.34,51.53a3.69,3.69,0,0,0,.37,6.78,3.69,3.69,0,0,0,2.79-.13,3.64,3.64,0,0,0,1.71-4.89,3.67,3.67,0,0,0-4.87-1.76Z"/><path class="cls-4" d="M138.85,46.53a1.84,1.84,0,0,0-.93,1A1.85,1.85,0,0,0,139,49.89a1.83,1.83,0,0,0,1.38-.06,1.88,1.88,0,0,0,.93-1,1.94,1.94,0,0,0-.08-1.4,1.8,1.8,0,0,0-2.41-.87Z"/><path class="cls-4" d="M145.76,38.17a3.71,3.71,0,0,0-1.87,2.08,3.8,3.8,0,0,0,.15,2.81,3.71,3.71,0,0,0,2.09,1.9,3.79,3.79,0,0,0,2.79-.13,3.67,3.67,0,0,0,1.71-4.89,3.66,3.66,0,0,0-4.87-1.77Z"/><path class="cls-4" d="M154.2,33.05a2.07,2.07,0,0,0-1,1.11,2,2,0,0,0,.08,1.49,2,2,0,0,0,1.11,1,2,2,0,0,0,1.49-.07,2,2,0,0,0,1-1.1A2,2,0,0,0,155.69,33,2.07,2.07,0,0,0,154.2,33.05Z"/><path class="cls-4" d="M161.17,24.82a3.67,3.67,0,0,0-1.71,4.89,3.66,3.66,0,0,0,4.87,1.77,3.74,3.74,0,0,0,1.87-2.08,3.8,3.8,0,0,0-.15-2.81,3.67,3.67,0,0,0-4.88-1.77Z"/><path class="cls-4" d="M123.23,97.55a1.78,1.78,0,0,0-1.3-.34,1.81,1.81,0,0,0-1.52,2,1.76,1.76,0,0,0,3.16.81,1.78,1.78,0,0,0,.34-1.32A1.75,1.75,0,0,0,123.23,97.55Z"/><path class="cls-4" d="M133.87,99.76a3.66,3.66,0,0,0-5.13.75,3.7,3.7,0,0,0-.71,2.72,3.66,3.66,0,1,0,5.84-3.47Z"/><path class="cls-4" d="M142.7,104.38a2.55,2.55,0,1,0,1,1.69A2.64,2.64,0,0,0,142.7,104.38Z"/><path class="cls-4" d="M152.85,107.24a3.7,3.7,0,0,0-2.71-.69,3.71,3.71,0,0,0-3.14,4.16,3.65,3.65,0,0,0,6.54,1.66,3.67,3.67,0,0,0-.69-5.13Z"/><path class="cls-4" d="M162.34,111a3.7,3.7,0,1,0,.69,5.14,3.75,3.75,0,0,0,.71-2.72A3.81,3.81,0,0,0,162.34,111Z"/><path class="cls-4" d="M171,115.82a2.32,2.32,0,0,0-1.69-.43,2.29,2.29,0,1,0,.61,4.53,2.3,2.3,0,0,0,1.08-4.1Z"/><path class="cls-4" d="M181.31,118.45a3.66,3.66,0,0,0-2.7-.69,3.68,3.68,0,0,0-1.73,6.57,3.71,3.71,0,0,0,2.7.69,3.68,3.68,0,0,0,1.73-6.57Z"/><path class="cls-4" d="M81.53,165a3,3,0,0,0-.12,2.21,2.95,2.95,0,0,0,3.72,1.8,2.87,2.87,0,0,0,1.78-3.68,2.95,2.95,0,0,0-3.72-1.8A3,3,0,0,0,81.53,165Z"/><path class="cls-4" d="M84.16,155.36a2.05,2.05,0,0,0-.08,1.54,2,2,0,0,0,2.58,1.25,2.13,2.13,0,0,0,1.15-1,2.1,2.1,0,0,0,.08-1.54,2,2,0,0,0-2.58-1.24A2,2,0,0,0,84.16,155.36Z"/><path class="cls-4" d="M84.49,144.61a3.69,3.69,0,0,0-.15,2.79,3.68,3.68,0,0,0,6.78.42,3.7,3.7,0,0,0,.15-2.79,3.68,3.68,0,0,0-6.78-.42Z"/><path class="cls-4" d="M87.34,135.07a2.55,2.55,0,1,0,3.38-1.16,2.61,2.61,0,0,0-1.94-.12A2.66,2.66,0,0,0,87.34,135.07Z"/><path class="cls-4" d="M88.13,124.54a3.79,3.79,0,0,0-.15,2.79,3.73,3.73,0,0,0,4.7,2.27,3.8,3.8,0,0,0,2.09-1.85,3.74,3.74,0,0,0,.15-2.79,3.7,3.7,0,0,0-4.69-2.27A3.75,3.75,0,0,0,88.13,124.54Z"/><path class="cls-4" d="M90,114.51a3.67,3.67,0,0,0-.15,2.78,3.7,3.7,0,0,0,4.69,2.27,3.78,3.78,0,0,0,2.09-1.84A3.68,3.68,0,0,0,90,114.51Z"/><path class="cls-4" d="M93.09,105.11a2.22,2.22,0,0,0-.09,1.68,2.22,2.22,0,1,0,4.2-1.43,2.33,2.33,0,0,0-1.14-1.27,2.23,2.23,0,0,0-1.7-.1A2.26,2.26,0,0,0,93.09,105.11Z"/></g></g></svg>