<svg xmlns="http://www.w3.org/2000/svg" viewBox="0 0 275.81 391.99"><defs><style>.cls-1{fill:#ffd576;}.cls-1,.cls-2{fill-rule:evenodd;}.cls-2{fill:#f2ca6d;}.cls-3{fill:#cea95f;}</style></defs><title>Asset 37</title><g id="Layer_2" data-name="Layer 2"><g id="Layer_1-2" data-name="Layer 1"><path class="cls-1" d="M11.84,15.72C16.59-5.09,14.9-2.42,32.7,7.59c81.74,46,167.77,132.87,243.11,247.68V392H40.51C-1.2,247.52-10.6,113.87,11.84,15.72Z"/><path class="cls-2" d="M28,20.09c-9.09-5.13-13.1-8.31-15.48-7.45C16.47-4.8,15.83-1.91,32.7,7.59c81.74,46,167.77,132.87,243.11,247.68v17.92l-4.68-5.42C195.78,153,109.75,66.09,28,20.09Z"/><path class="cls-3" d="M150.83,326.09l-3.23,1.58,4.3,8.81a15.46,15.46,0,0,1-1.67,1.33,12.95,12.95,0,1,0-.14.1,15,15,0,0,1-1.87,1.07l-.18.09-4.58-9.38L141,330.88a.62.62,0,0,1-.85-.29l-1.48-3a.63.63,0,0,1,.29-.85l2.44-1.19L140,322.59a5.28,5.28,0,0,1,2.55-7.72l2.56-1.25a.64.64,0,0,1,.85.3l1.25,2.55h0a.64.64,0,0,1-.39.82l-1.52.74c-1.66.81-1.57,1.8-1,2.95l1.23,2.53,3.63-1.77h0a.64.64,0,0,1,.8.41l1.19,3.15A.61.61,0,0,1,150.83,326.09Z"/><circle class="cls-3" cx="217.58" cy="289.86" r="3.03"/><path class="cls-3" d="M217.7,281.3l-6.95,3.39a3.78,3.78,0,0,0-1.73,5.05l3.39,6.95a3.79,3.79,0,0,0,5.05,1.74l6.95-3.39a3.8,3.8,0,0,0,1.73-5.05L222.75,283A3.77,3.77,0,0,0,217.7,281.3Zm2.05,13a4.95,4.95,0,1,1,2.28-6.62A5,5,0,0,1,219.75,294.31Zm.65-9.95a1.19,1.19,0,1,1-1.05-2.14h0a1.17,1.17,0,0,1,1.57.53v0A1.2,1.2,0,0,1,220.4,284.36Z"/><path class="cls-3" d="M210.87,276.11a15.31,15.31,0,1,0,20.46,7.07v0A15.31,15.31,0,0,0,210.87,276.11Zm17,13a5.72,5.72,0,0,1-2.62,7.62l-6.95,3.39a5.72,5.72,0,0,1-7.62-2.62l-3.39-6.94a5.7,5.7,0,0,1,2.62-7.62l7-3.4a5.7,5.7,0,0,1,7.62,2.63Z"/><path class="cls-3" d="M173,293.84a15.31,15.31,0,1,0,20.46,7.07v0A15.31,15.31,0,0,0,173,293.84Zm11.17,8a.56.56,0,0,0,0,.49,9.47,9.47,0,0,1,.92,3.24,10.12,10.12,0,0,1-.3,3.51,9.12,9.12,0,0,1-1.69,3.29,9.64,9.64,0,0,1-8.06,3.47.28.28,0,0,1-.25-.2.27.27,0,0,1,.15-.3l.36-.17a6.28,6.28,0,0,0,2.7-2.53,3.42,3.42,0,0,1-3.44-.85l.06,0a.15.15,0,0,1,0-.09.17.17,0,0,1,.14-.2l.52-.25a3.45,3.45,0,0,1-3.19-2,.17.17,0,0,1,0-.07.2.2,0,0,1,.2-.2,2.79,2.79,0,0,0,.9-.12,3.09,3.09,0,0,1-2.26-3.76s0,0,0-.05a.18.18,0,0,1,.24-.08,9,9,0,0,0,7,.28,4.08,4.08,0,0,1-.55-1.13,3.35,3.35,0,0,1,.94-3.12,3.56,3.56,0,0,1,1.07-.57,3.32,3.32,0,0,1,2.36-.19.57.57,0,0,0,.28-.14,6.28,6.28,0,0,0,1.2-1.37.18.18,0,0,1,.16-.1.17.17,0,0,1,.17.18,3.36,3.36,0,0,1-.18,1.69,6.43,6.43,0,0,0,.83-.82l0,.06a.17.17,0,0,1,.17-.07.17.17,0,0,1,.14.21A6.72,6.72,0,0,1,184.13,301.81Z"/><path class="cls-3" d="M101.35,345.1a1.61,1.61,0,1,0,2,.79A1.55,1.55,0,0,0,101.35,345.1Z"/><path class="cls-3" d="M106.1,342.78a1.61,1.61,0,1,0,2,.79A1.55,1.55,0,0,0,106.1,342.78Z"/><path class="cls-3" d="M117.81,337.79a15.31,15.31,0,1,0-7,20.47A15.32,15.32,0,0,0,117.81,337.79Zm-7.44,10.44s-.74-.33-1.37-.64a4.5,4.5,0,0,0,1.6-2.7,8.46,8.46,0,0,1-1.12,1.51,10.59,10.59,0,0,1-1.62,1.49,10.38,10.38,0,0,1-3.38,1.64,11.12,11.12,0,0,1-2.19.37,9,9,0,0,1-1.18,0h-.22c-.3,0-.47-.05-.47-.05a4.46,4.46,0,0,0,3,.42c-.15.69-.34,1.5-.34,1.5a5.26,5.26,0,0,1-5,0,19.37,19.37,0,0,1-1.83-8.51,7.11,7.11,0,0,1,3-3.16l.21.09a9.5,9.5,0,0,0-2.58,3.38,8.39,8.39,0,0,1,.59-.75,10.89,10.89,0,0,1,2.56-2.26l.2-.14a12.32,12.32,0,0,1,2.62-1.31,11.7,11.7,0,0,1,4.54-.67,9.51,9.51,0,0,0-4-.07l.08-.3a7.08,7.08,0,0,1,4.32-.41,19.3,19.3,0,0,1,5.58,6.67A5.25,5.25,0,0,1,110.37,348.23Z"/><polyline id="Upsilon" class="cls-3" points="108.13 306.74 114.82 303.39 116.11 302.75 111.75 294.04 108.72 295.55 108.4 294.92 106.43 290.97 107.56 276.38 110.46 274.93 106.11 266.21 93.56 272.49 97.28 279.94 98.57 280.28 98.23 286.81 98.13 286.86 92.7 283.22 93.2 281.98 89.47 274.53 76.92 280.8 81.28 289.52 84.18 288.07 96.54 295.92 98.51 299.86 98.83 300.5 95.8 302.01 100.16 310.73 101.44 310.08 108.13 306.74"/><polygon id="Pi" class="cls-3" points="132.47 263.92 134.17 263.07 146.43 287.59 159.44 281.08 155.08 272.37 152.29 273.76 144.39 257.96 147.18 256.57 142.82 247.85 128.11 255.21 112.5 263.01 116.85 271.73 119.88 270.22 127.78 286.02 124.75 287.53 129.11 296.25 142.36 289.62 130.1 265.11 132.47 263.92"/><polygon id="Epsilon" class="cls-3" points="178.43 250.51 180.7 255.06 174.08 258.37 175.88 261.97 182.5 258.66 181.46 256.57 189.71 252.44 195.11 263.25 165.83 277.89 161.47 269.17 164.26 267.78 160.19 259.63 156.36 251.98 153.57 253.37 149.21 244.66 178.5 230.02 183.78 240.59 175.53 244.72 174.6 242.86 167.98 246.17 169.78 249.77 176.4 246.46 178.43 250.51"/></g></g></svg>