<svg xmlns="http://www.w3.org/2000/svg" viewBox="0 0 30.62 30.62"><defs><style>.cls-1{fill:#cea95f;}</style></defs><title>Asset 8</title><g id="Layer_2" data-name="Layer 2"><g id="Layer_1-2" data-name="Layer 1"><path class="cls-1" d="M8.61,1.54A15.31,15.31,0,1,0,29.07,8.61v0A15.31,15.31,0,0,0,8.61,1.54Zm11.17,8a.58.58,0,0,0,0,.5,9.41,9.41,0,0,1,.92,3.24,10.14,10.14,0,0,1-.3,3.51A9,9,0,0,1,18.7,20a9.5,9.5,0,0,1-3.25,2.55,9.32,9.32,0,0,1-4.81.92.26.26,0,0,1-.1-.49l.36-.18a6.32,6.32,0,0,0,2.7-2.52,3.42,3.42,0,0,1-3.44-.85l.06,0a.19.19,0,0,1,.1-.3l.52-.25a3.43,3.43,0,0,1-3.19-2,.15.15,0,0,1,0-.07.2.2,0,0,1,.2-.19,3.48,3.48,0,0,0,.9-.12,3.48,3.48,0,0,1-2.09-1.76,3.46,3.46,0,0,1-.17-2s0,0,0,0a.17.17,0,0,1,.24-.07,9.07,9.07,0,0,0,7,.27,4,4,0,0,1-.55-1.13,3.33,3.33,0,0,1,.94-3.11,3.35,3.35,0,0,1,1.07-.57,3.38,3.38,0,0,1,2.36-.2.49.49,0,0,0,.28-.13A6.34,6.34,0,0,0,19,6.41a.15.15,0,0,1,.16-.09.17.17,0,0,1,.17.18,3.31,3.31,0,0,1-.18,1.68A5.85,5.85,0,0,0,20,7.36l0,.06a.19.19,0,0,1,.17-.07.18.18,0,0,1,.14.21A6.54,6.54,0,0,1,19.78,9.51Z"/></g></g></svg>