<svg xmlns="http://www.w3.org/2000/svg" viewBox="0 0 118.19 80.71"><defs><style>.cls-1{fill:#cea95f;}</style></defs><title>Asset 6</title><g id="Layer_2" data-name="Layer 2"><g id="Layer_1-2" data-name="Layer 1"><polyline id="Upsilon" class="cls-1" points="31.21 76.72 37.9 73.38 39.18 72.73 34.82 64.02 31.8 65.53 31.48 64.9 29.51 60.95 30.64 46.36 33.54 44.91 29.18 36.19 16.63 42.47 20.36 49.92 21.65 50.27 21.31 56.8 21.21 56.84 15.78 53.2 16.28 51.96 12.55 44.51 0 50.78 4.36 59.5 7.26 58.05 19.61 65.9 21.59 69.84 21.9 70.48 18.87 71.99 23.23 80.71 24.52 80.07 31.21 76.72"/><polygon id="Pi" class="cls-1" points="55.55 33.91 57.24 33.06 69.5 57.57 82.52 51.07 78.16 42.35 75.37 43.75 67.47 27.94 70.26 26.55 65.9 17.84 51.19 25.19 35.57 33 39.93 41.71 42.95 40.2 50.85 56.01 47.83 57.52 52.19 66.23 65.44 59.61 53.18 35.09 55.55 33.91"/><polygon id="Epsilon" class="cls-1" points="101.51 20.49 103.78 25.04 97.16 28.35 98.96 31.95 105.58 28.64 104.53 26.55 112.78 22.43 118.19 33.23 88.91 47.87 84.55 39.16 87.34 37.76 83.26 29.61 79.44 21.96 76.65 23.36 72.29 14.64 101.57 0 106.86 10.57 98.61 14.7 97.68 12.84 91.06 16.15 92.86 19.75 99.48 16.44 101.51 20.49"/></g></g></svg>