<svg xmlns="http://www.w3.org/2000/svg" viewBox="0 0 1920 429"><defs><style>.cls-1{fill:#f2e2b8;fill-rule:evenodd;}</style></defs><title>Asset 35</title><g id="Layer_2" data-name="Layer 2"><g id="Layer_1-2" data-name="Layer 1"><path class="cls-1" d="M1920,45.76c-49.84-29.9-63.14-58.08-149.7-40.14-34.64,7.19-49.88,37-85.9,39.93-33.46,2.73-55.78-10.32-75.55-16.82-67.07-22.07-133.2-9.55-183.85,20.64-41.28,24.66-94,6.35-132.93-10.58-61.37-26.67-170.64,31.59-272,.69-74.65-22.76-105.79,6.9-160.9,14.34C763.49,66.75,751.87,27.76,656,42.71c-43.78,6.83-66,16.37-109.47,19.88C389,75.3,449.44,71.7,364,71.7c-67.26,0-103.88-33.56-190.14-21.91C88.54,61.33,113.92,14.13,47.25,14.13c-12.09,0-28.61.47-47.25,1.51V429H1920Z"/></g></g></svg>