<svg xmlns="http://www.w3.org/2000/svg" viewBox="0 0 1920 374.92"><defs><style>.cls-1{fill:#fcf3db;fill-rule:evenodd;}</style></defs><title>Asset 34</title><g id="Layer_2" data-name="Layer 2"><g id="Layer_1-2" data-name="Layer 1"><path class="cls-1" d="M1920,21c-110.3,5.61-106.89-27.26-219,8.58C1632.84,51.4,1549.74-19,1467.23,5.09,1393.7,26.54,1378,41.3,1286.86,24.81c-28.38-5.13-104-1.69-126.43,8.52-47.9,21.78-159.14,27.16-210.18,10.87C882,22.45,839.86,30.59,770.43,46.13c-32,7.16-82,5.17-107.7-6.08C635.27,28,602,22.92,546,48.29c-32.3,14.63-81,11.42-120.55,9.05-29.15-1.75-46.24-10.06-68-18-71.17-26-73.06-9-133.41.07C78.31,61.4,46.13,2.79,0,9.14V374.92H1920Z"/></g></g></svg>