<svg xmlns="http://www.w3.org/2000/svg" viewBox="0 0 1920 312.04"><defs><style>.cls-1{fill:#e6f0d7;fill-rule:evenodd;}</style></defs><title>Asset 33</title><g id="Layer_2" data-name="Layer 2"><g id="Layer_1-2" data-name="Layer 1"><path class="cls-1" d="M1920,33.28C1870.16,11.52,1856.86-9,1770.3,4.09c-34.64,5.22-49.88,26.89-85.9,29-33.46,2-55.78-7.5-75.55-12.22C1541.78,4.83,1488.62,18.55,1438,40.55,1396.68,58.46,1331,68.33,1292,56c-61.37-19.41-170.57-4.85-271.89-27.31C945.46,12.16,913.11,43.62,858,49c-95.72,9.44-106.13-28.85-202-18-43.78,5-65.63,17.08-109.47,14.47-157.48-9.34-161,6.12-246.43,6.12-67.26,0-40-23.9-126.24-15.43-85.32,8.4-59.94-25.94-126.61-25.94-12.09,0-28.61.33-47.25,1.1V312H1920Z"/></g></g></svg>