<?xml version="1.0" encoding="utf-8"?>
<!-- Generator: Adobe Illustrator 21.0.0, SVG Export Plug-In . SVG Version: 6.00 Build 0)  -->
<svg version="1.1"
	 id="svg2" inkscape:version="0.91 r13725" sodipodi:docname="logo.svg" xmlns:cc="http://creativecommons.org/ns#" xmlns:dc="http://purl.org/dc/elements/1.1/" xmlns:inkscape="http://www.inkscape.org/namespaces/inkscape" xmlns:rdf="http://www.w3.org/1999/02/22-rdf-syntax-ns#" xmlns:sodipodi="http://sodipodi.sourceforge.net/DTD/sodipodi-0.dtd" xmlns:svg="http://www.w3.org/2000/svg"
	 xmlns="http://www.w3.org/2000/svg" xmlns:xlink="http://www.w3.org/1999/xlink" x="0px" y="0px" width="688.3px" height="280.6px"
	 viewBox="0 0 688.3 280.6" style="enable-background:new 0 0 688.3 280.6;" xml:space="preserve">
<style type="text/css">
	.st0{fill:#FFFFFF;}
</style>
<sodipodi:namedview  bordercolor="#666666" borderopacity="1.0" fit-margin-bottom="0" fit-margin-left="0" fit-margin-right="0" fit-margin-top="0" id="base" inkscape:current-layer="layer1" inkscape:cx="82.777891" inkscape:cy="87.999436" inkscape:document-units="px" inkscape:pageopacity="0.0" inkscape:pageshadow="2" inkscape:window-height="1053" inkscape:window-maximized="1" inkscape:window-width="1858" inkscape:window-x="-8" inkscape:window-y="-8" inkscape:zoom="5.6568542" pagecolor="#ffffff" showgrid="false">
	</sodipodi:namedview>
<g id="layer1" transform="translate(-461.79927,-1208.5258)" inkscape:groupmode="layer" inkscape:label="Calque 1">
	<g id="g4250" transform="matrix(0.38771893,0,0,0.38771893,371.16717,776.00583)">
		<path id="path4238" inkscape:connector-curvature="0" class="st0" d="M1231.6,1545.2c-22.7,0.3-46.5,2.3-57.3,5.6
			c-21,6.3-40,26.9-44.7,48.5l-1.7,7.8h32.4h32.4l5-8.4c6-10.1,13-13.2,30.6-13.2c10.9,0,14.2,1,19.3,6.2c6.8,6.8,6.8,9.5-0.7,42.4
			c-3.4,15.1-8.1,21.9-8.1,11.8c0-13.1-25.6-21.2-58.9-18.7c-29.1,2.2-42.7,7.1-56.2,20.2c-16.3,15.9-22.7,33.3-22.8,62.1
			c-0.1,20.2,0.4,22.5,5.9,28.4c7,7.4,12.7,10.9,22.8,13.5c4,1,19.6,1.6,34.8,1.3c32.9-0.7,46.4-5.7,57.8-21.5
			c7.9-10.9,8.5-9.8,3.4,6.9c-2,6.5-3.6,12.1-3.6,12.4s14.9,0.6,33.2,0.6h33.2l14.8-70.2c17-80.6,18.7-100.8,9.3-114.8
			c-7.4-11.1-18.9-16.2-44.1-19.3C1258.5,1545.5,1245.2,1545,1231.6,1545.2z M1204.2,1667.1c19.2,0,29.4,3.6,31.3,11.1
			c2,7.9-3.7,22.2-11.1,27.5c-7.2,5.3-33.7,7.8-45.1,4.4c-10.9-3.3-14-10.9-9.8-24.2C1173.7,1672.4,1183.6,1667.1,1204.2,1667.1z"/>
		<path id="path4234" inkscape:connector-curvature="0" class="st0" d="M1799.1,1546c-52.9,0-65.2,2.9-83,19.5
			c-10.4,9.7-21.4,30-21.4,39.3c0,1.4,13.2,2.3,32.3,2.3h32.3l3.7-7.2c5-9.7,15.2-14.4,30.8-14.4c14.9,0,25.6,6.4,25.6,15.3
			c0,6.6-8.7,47-10.5,48.8c-0.7,0.7-2.3-1.3-3.5-4.4s-4.3-7.6-6.9-9.9c-10.8-9.8-56-11.3-84.4-2.8c-17.2,5.1-33.5,21.4-41.1,40.8
			c-4.3,11-5.6,19.4-5.7,36.3c-0.2,20.3,0.3,22.5,5.8,28.4c7,7.5,12.8,10.9,22.8,13.5c4,1,19.6,1.6,34.8,1.3
			c32.8-0.6,46.3-5.6,57.8-21.5c7.8-10.7,8.6-8.5,3.5,8.5l-3.5,11.4h33.5c18.4,0,33.5-0.8,33.5-1.8s6-29.8,13.3-64
			c16.7-78.4,18.7-91.8,15.4-106.4C1878.3,1552.4,1861.7,1546,1799.1,1546z M1772.5,1667.1c18.4,0,27.4,3.5,29.3,11.3
			s-3.9,22-11.1,27.4c-7.2,5.3-33.7,7.8-45.1,4.4c-11.1-3.4-14-12-8.7-25.8C1741.9,1671.2,1750.5,1667.1,1772.5,1667.1z"/>
		<path id="path4230" inkscape:connector-curvature="0" class="st0" d="M716.2,1460.7l-73.5,143.7c-40.4,79-73.5,144.4-73.5,145.2
			c0,0.8,17.8,1.5,39.6,1.5h39.6l12.5-25.2l12.5-25.2h52.1c60,0,53.5-3.4,56,29.4l1.6,21h39.6h39.6l-1.4-12.6
			c-1.6-13.6-25.3-272.4-25.3-275.8c0-1.1-26.9-2-59.7-2H716.2z M765,1519c0.4,0.4,2.4,22.3,4.4,48.6c2,26.3,4.2,54.6,5,62.8l1.5,15
			c-27.5,0-72.4-2.2-72.4-2.2C703.5,1640.3,764,1518,765,1519z"/>
		<path id="path4226" inkscape:connector-curvature="0" class="st0" d="M881.1,1748.3c0-1.5,13.5-66.2,30-143.9
			c16.5-77.6,30-141.7,30-142.5c0-0.7,15.2-1.3,33.8-1.3c31,0,33.7,0.3,32.5,4.2c-2.2,7.4-32.6,152.5-32.6,155.8
			c0,1.8,2.5,3.2,5.7,3.2c4.6,0,11.3-7.5,34-38.4l28.3-38.4h35.6c19.6,0,35.6,0.6,35.6,1.3c0,0.7-17.3,22.8-38.4,49.1l-38.4,47.8
			l13.4,29.5c7.4,16.2,18.1,40,23.8,52.9l10.4,23.4h-38.9H1007l-15.3-40.8c-14.6-39-15.6-40.8-21.8-40.8c-6.4,0-6.6,0.4-13.1,31.8
			c-3.6,17.5-7.6,35.8-8.9,40.8l-2.3,9h-32.3C890.9,1751.1,881.1,1750.2,881.1,1748.3L881.1,1748.3z"/>
		<path id="path4224" inkscape:connector-curvature="0" class="st0" d="M1320.3,1731.3c2.4-10.9,12.1-56.8,21.8-102l17.5-82.2h32.3
			h32.3l-1.5,5.4c-0.8,3-2.2,9.7-3,15l-1.5,9.6l9.3-9.9c11.4-12,19.4-16.3,38-20.1c15.9-3.3,40.6-1.7,52.8,3.4
			c11,4.6,18.1,14.6,18.1,25.7c0,11,3.1,12,7.1,2.4c4.1-9.9,16.3-20.8,30.1-27.1c9.7-4.4,16.4-5.4,34.9-5.5
			c19.9-0.1,24.5,0.7,34.7,6c26.7,13.7,27.3,28,5.5,128.3l-15.2,69.6l-33,0.7c-18.1,0.4-33,0.2-33-0.4s5.9-29.2,13.2-63.7
			c7.3-34.5,13.2-66.8,13.2-71.9c0-13.2-6.5-18.4-23.1-18.2c-26.8,0.3-32.5,10.7-49,88.7c-6.7,31.7-12.7,59.5-13.4,61.8
			c-1.1,3.7-4.9,4.2-33.5,4.2c-24.2,0-32.2-0.7-32.2-3c0-1.7,5.9-30.9,13.2-64.9c14.1-66.2,15.3-76.1,9.5-81.8
			c-8.7-8.7-33-6.7-44.1,3.6c-3.1,2.8-7.1,8.9-9,13.5c-2.6,6.2-29.6,126.4-29.6,131.7c0,0.5-15,0.9-33.4,0.9H1316L1320.3,1731.3z"/>
		<path id="path4222" inkscape:connector-curvature="0" class="st0" d="M1886.6,1749.3c0-1,9.4-46.9,21-102l21.1-100.2h33.3h33.3
			l-1.3,5.4c-0.7,3-10.1,47-20.8,97.8c-10.7,50.8-20.1,94.3-20.7,96.6c-1.1,3.7-4.8,4.2-33.5,4.2
			C1901.2,1751.1,1886.7,1750.2,1886.6,1749.3L1886.6,1749.3z"/>
		<path id="path4218" inkscape:connector-curvature="0" class="st0" d="M1961.5,1526.1c-8.7-1.7-23.5-17.9-25.4-27.9
			c-4.4-23.5,13.3-44.8,37.4-44.8c20,0,35.5,15.7,35.5,36C2009.1,1515,1988.1,1531.2,1961.5,1526.1z"/>
	</g>
	<g id="g4245" transform="matrix(0.38771893,0,0,0.38771893,371.16717,776.00583)">
		<path id="path4240" inkscape:connector-curvature="0" class="st0" d="M561.9,1837.3c-52-4.9-116.3-26.9-159.4-54.5
			c-39.3-25.1-82.8-67.7-108-105.5c-83.7-125.8-80.8-287.8,7.4-411.6c18.5-26,57-64.2,83.6-83c24.8-17.6,70.5-40.6,98.2-49.5
			c30-9.6,64.9-15.9,96.2-17.2c30.3-1.2,38.1,0.5,33.6,7.5c-1.3,2.1-12.7,7.3-25.2,11.7c-123.2,42.7-213.1,146.6-239.1,276.4
			c-6.5,32.5-6,104.4,1,136.1c17.5,79.2,55.3,144.7,114.3,198.2c33.1,30,84.3,59.9,125.8,73.5c20.8,6.8,26,11.6,18.4,17.2
			C603.8,1840.1,593.6,1840.3,561.9,1837.3L561.9,1837.3z"/>
		<path id="path4220" inkscape:connector-curvature="0" class="st0" d="M404.1,1568.1c-4.5-5.4-14.6-38.6-18.4-60.5
			c-4.7-26.7-4.7-73.9-0.2-100c7-39.9,25.4-84.3,48.8-117.3c15-21.1,50.9-56.4,71.4-69.9c51-33.8,104.5-50.1,164.4-50.1
			c49.1,0,87.8,9,129.3,30.2c29.1,14.8,54.4,34.8,73.1,57.5c16.9,20.5,32.2,49.1,26.3,49.1c-1.1,0-9.5-5.5-18.8-12.2
			c-30-21.9-63.9-35.5-110.3-44.5c-31.5-6.1-100.8-6.1-128.4,0c-87.4,19.2-160.3,75.4-200.1,154.4c-20.4,40.5-28.5,75.5-29.2,126.6
			C411.4,1568.4,409.9,1575.2,404.1,1568.1L404.1,1568.1z"/>
		<path id="path4214" inkscape:connector-curvature="0" class="st0" d="M875.1,1393c-27.1-17-62.7-33.5-94.4-43.7
			c-76.2-24.5-163.2-25.5-226.3-2.5c-9.7,3.5-21,6.9-24.9,7.5c-7.2,1.1-7.2,1.1,3.6-8.7c15.2-13.8,63.3-37.1,92.4-44.9
			c21.3-5.7,28.6-6.4,64.8-6.6c35.5-0.1,43.6,0.6,62.2,5.5c46.4,12.2,80.4,31.4,112.1,63c16.3,16.3,33.1,39.1,30.6,41.6
			C894.7,1404.6,885.7,1399.6,875.1,1393z"/>
	</g>
</g>
</svg>
