<?xml version="1.0" encoding="utf-8"?>
<!-- Generator: Adobe Illustrator 21.0.0, SVG Export Plug-In . SVG Version: 6.00 Build 0)  -->
<svg version="1.1" id="Layer_1" xmlns="http://www.w3.org/2000/svg" xmlns:xlink="http://www.w3.org/1999/xlink" x="0px" y="0px"
	 width="1048.3px" height="220.5px" viewBox="0 0 1048.3 220.5" style="enable-background:new 0 0 1048.3 220.5;"
	 xml:space="preserve">
<style type="text/css">
	.st0{fill:#FFFFFF;}
</style>
<g>
	<g>
		<path class="st0" d="M539.3,100.4c0-1.6,0-3.1,0-4.7c-0.6-20-0.3-40.1-0.4-60.2c0-8.9,0-17.8,0-26.6c0-0.4,0-0.9,0-1.3
			c0-1.8,0-1.8,1.8-1.8c2.4,0,4.9,0,7.3,0c6.1,0,12.2,0,18.3,0c2,0,2,0,2,2c0,0.3,0,0.6,0,0.9c0,47.8,0,95.5,0,143.3
			c0,3.3,0.4,2.8-2.9,2.8c-7.4,0-14.8,0-22.1,0c-1.1,0-1.8-0.3-2.5-1.3c-19.3-28.9-38.9-57.6-58-86.5c-2-3-3.9-6.1-5.8-9.5
			c-0.6,0.8-0.4,1.6-0.4,2.3c0.1,14,0.5,28.1,0.4,42.1c-0.1,16.8,0,33.7,0,50.5c0,2.5,0.3,2.4-2.3,2.4c-8.2,0-16.5,0-24.7,0
			c-2.6,0-2.5,0.3-2.5-2.4c0-30.1,0-60.2,0-90.2c0-17.9,0-35.8,0-53.7c0-2.9-0.1-2.6,2.7-2.6c7.9,0,15.9,0,23.8,0
			c1.3,0,2.2,0.3,3,1.5c17.7,26.6,35.5,53.1,53.3,79.6c2.8,4.2,5.5,8.4,8,12.7c0.2,0.3,0.4,0.6,0.6,0.9
			C539.1,100.5,539.2,100.4,539.3,100.4z"/>
		<path class="st0" d="M245,99c0,17.7,0,35.4,0,53.1c0,0.3,0,0.6,0,0.9c0,1.8,0,1.9-1.9,1.9c-8.5,0-17,0-25.6,0
			c-1.8,0-1.8,0-1.8-1.9c0-1.4,0-2.7,0-4.1c0-0.3,0.1-0.8-0.3-0.9c-0.2,0-0.5,0.2-0.7,0.4c-4.1,3.8-9,6.1-14.3,7.4
			c-9.2,2.3-18.3,1.9-27.3-1.4c-9.3-3.4-15.5-10-19.5-18.8c-2.7-6-4-12.4-4.8-18.9c-0.5-4.9-0.5-9.7-0.5-14.6c0-18.8,0-37.7,0-56.5
			c0-2.9-0.2-2.6,2.5-2.6c8.1,0,16.2,0,24.3,0c0.5,0,1,0,1.5,0c0.7,0,1.1,0.3,1,1c0,0.6,0,1.1,0,1.7c0,19.3,0,38.7,0,58
			c0,4.7,0.4,9.3,1.7,13.8c2.3,7.6,7.3,11.5,15.3,11.8c2.5,0.1,5,0.1,7.5-0.4c5.1-1.1,8.8-3.9,11-8.7c1.4-3,2-6.3,2.4-9.5
			c0.3-2.8,0.4-5.7,0.4-8.6c0-18.8,0-37.7,0-56.5c0-3-0.2-2.6,2.7-2.6c8,0,16,0,24.1,0c0.4,0,0.9,0,1.3,0c0.9-0.1,1.4,0.2,1.3,1.2
			c0,0.6,0,1.1,0,1.7C245,63.7,245,81.3,245,99C245,99,245,99,245,99z"/>
		<path class="st0" d="M932.5,98.8c0-17.1,0-34.2,0-51.3c0-0.9,0-1.9,0-2.8c0-1.6,0-1.6,1.7-1.6c8.7,0,17.3,0,26,0
			c1.6,0,1.6,0,1.6,1.7c0,1.4,0,2.9,0,4.3c0,0.3,0,0.7,0.2,0.8c0.4,0.3,0.6-0.2,0.9-0.4c4.7-4.2,10.3-6.7,16.5-7.9
			c8.5-1.6,16.8-1.2,25,1.8c9.8,3.6,16.3,10.6,20.2,20.1c2.5,6,3.7,12.3,4.3,18.7c0.5,5.1,0.4,10.2,0.4,15.2c0,18.3,0,36.5,0,54.8
			c0,2.9,0.3,2.5-2.5,2.5c-8.1,0-16.2,0-24.3,0c-0.5,0-1,0-1.5,0c-0.7,0-1.1-0.3-1-1c0-0.6,0-1.1,0-1.7c0-19.3,0-38.5,0-57.8
			c0-4.7-0.4-9.3-1.7-13.8c-0.4-1.4-1-2.8-1.7-4.2c-1.9-3.6-4.8-6-8.8-7.1c-4.3-1.2-8.6-1.2-13-0.2c-5,1.2-8.5,4.2-10.5,9
			c-1.8,4.3-2.4,8.8-2.5,13.4c-0.1,20.1-0.1,40.1-0.1,60.2c0,0.6,0,1.2,0,1.7c0.1,1.1-0.3,1.5-1.5,1.5c-8.8,0-17.6,0-26.4,0
			c-1.1,0-1.6-0.4-1.5-1.5c0.1-0.6,0-1.1,0-1.7C932.5,134,932.5,116.4,932.5,98.8C932.5,98.8,932.5,98.8,932.5,98.8z"/>
		<path class="st0" d="M701.9,71c0-18.1,0-36.2,0-54.4c0-1.8,0.6-2.6,2.1-3.4c8.4-4.1,16.7-8.3,25-12.4c2.4-1.2,2.4-1.2,2.4,1.4
			c0,12.8,0,25.6,0,38.5c0,2.6-0.1,2.3,2.3,2.4c7.2,0,14.5,0,21.7,0c0.5,0,1,0,1.5,0c0.9-0.1,1.4,0.2,1.3,1.2c0,0.4,0,0.7,0,1.1
			c0,7.7,0,15.5,0,23.2c0,0.4,0,0.7,0,1.1c0.1,0.9-0.4,1.1-1.2,1.1c-0.7,0-1.4,0-2.1,0c-6.8,0-13.6,0-20.4,0c-0.5,0-1,0-1.5,0
			c-1.1-0.1-1.7,0.3-1.5,1.4c0,0.4,0,0.7,0,1.1c0,13.8,0,27.5,0,41.3c0,2.4,0,4.7,0.5,7.1c1.1,4.8,3.7,7.1,8.6,7.5
			c3.7,0.3,7.1-0.5,10.3-2.4c2.2-1.3,4.1-2.8,6.1-4.4c0.5-0.4,0.9-1.2,1.6-0.8c0.5,0.3,0.1,1.2,0,1.8c-0.4,2.9-0.8,5.8-1.2,8.7
			c-0.8,5.5-1.7,11-2.4,16.6c-0.2,1.5-0.9,2.3-2,3c-3.9,2.4-8.1,3.9-12.6,4.7c-6.2,1.2-12.4,1.4-18.5-0.8c-9.2-3.2-14.8-9.9-17.8-19
			c-1.5-4.6-2-9.4-2-14.2C701.9,105.2,701.9,88.1,701.9,71z"/>
		<path class="st0" d="M266,71.3c0-18.3,0-36.5,0-54.8c0-1.7,0.5-2.5,2-3.2c8.4-4.1,16.8-8.3,25.2-12.5c0.4-0.2,0.9-0.5,1.3-0.7
			c0.5-0.2,0.8,0,0.8,0.5c0,0.6,0,1.1,0,1.7c0,12.6,0,25.2,0,37.8c0,0.5,0,1,0,1.5c-0.1,1,0.3,1.4,1.3,1.4c1.3-0.1,2.6,0,3.9,0
			c6.6,0,13.2,0,19.8,0c1.9,0,1.9,0,1.9,1.9c0,7.9,0,15.9,0,23.8c0,1.9,0,1.9-2.1,2c-7.3,0-14.6,0-21.9,0c-0.6,0-1.1,0-1.7,0
			c-0.8,0-1.2,0.3-1.1,1.2c0,0.4,0,0.9,0,1.3c0,13.9,0,27.8,0,41.7c0,2.5,0.1,5,0.8,7.5c1.1,4.1,3.7,6.3,7.9,6.7
			c3.9,0.4,7.5-0.4,10.9-2.4c2.4-1.5,4.6-3.2,6.7-4.9c0.3-0.2,0.6-0.6,0.9-0.3c0.1,0.1,0.1,0.5,0,0.8c-1.3,8.9-2.6,17.9-3.8,26.8
			c-0.2,1.2-0.8,1.9-1.7,2.5c-4,2.5-8.4,4.1-13,4.9c-6.4,1.2-12.7,1.3-18.8-1c-7.9-2.9-13.1-8.5-16.3-16.1c-1.9-4.5-2.9-9.2-2.9-14
			c-0.1-16.7-0.1-33.4-0.1-50.1C266,73.9,266,72.6,266,71.3z"/>
		<path class="st0" d="M776.6,98.9c0-17.8,0-35.5,0-53.3c0-2.9-0.3-2.6,2.5-2.6c8.2,0,16.3,0,24.5,0c0.4,0,0.9,0,1.3,0
			c0.9-0.1,1.1,0.4,1.1,1.2c0,0.6,0,1.1,0,1.7c0,35.4,0,70.7,0,106.1c0,3.3,0.3,2.8-2.9,2.8c-7.9,0-15.9,0-23.8,0c-0.5,0-1,0-1.5,0
			c-0.8,0-1.2-0.4-1.1-1.2c0-0.6,0-1.1,0-1.7C776.6,134.2,776.6,116.5,776.6,98.9z"/>
		<path class="st0" d="M602,206.1c0.3,0,0.6-0.1,0.8-0.1c5.7-0.2,11.3-0.3,17-0.5c9.5-0.4,19-0.6,28.5-0.9
			c8.4-0.3,16.7-0.5,25.1-0.8c8.2-0.2,16.5-0.2,24.7-0.5c8.2-0.3,16.3-0.1,24.5-0.4c16-0.5,31.9-0.2,47.9-0.5
			c4.7-0.1,9.3-0.3,14-0.2c18.9,0.5,37.8,0,56.7,0.5c8.3,0.2,16.6,0.1,24.9,0.4c7.1,0.3,14.2,0.1,21.3,0.5
			c5.4,0.3,10.9,0.2,16.3,0.4c9.1,0.4,18.2,0.6,27.3,0.9c7.6,0.3,15.2,0.6,22.7,0.8c9.3,0.3,18.6,0.8,27.9,1.3
			c7.5,0.4,15,0.8,22.5,1.3c6.7,0.4,13.4,0.8,20.1,1.3c2.9,0.2,4,1.5,3.7,4.3c-0.1,1.4-0.2,2.7-0.4,4.1c-0.2,1.9-1.1,2.6-3,2.7
			c-2.2,0.1-4.3-0.3-6.4-0.5c-5.5-0.4-11-1-16.5-1.5c-4.3-0.4-8.6-0.7-12.8-1c-4.8-0.4-9.7-0.8-14.5-1.1c-4.7-0.4-9.4-0.7-14.1-1
			c-5.9-0.4-11.7-0.8-17.6-1.2c-5.5-0.4-11-0.7-16.5-1c-6.5-0.4-13-0.8-19.5-1.2c-3-0.2-6-0.3-9-0.4c-7.4-0.5-14.9-0.6-22.3-1
			c-10.5-0.5-21-0.9-31.5-1.3c-7.5-0.3-15-0.6-22.5-0.8c-9.9-0.4-19.7-0.6-29.6-0.9c-5.2-0.2-10.3-0.1-15.5-0.3
			c-9.7-0.4-19.3-0.2-29-0.5c-7.9-0.3-15.9-0.2-23.8-0.3c-25.4-0.5-50.8-0.5-76.3-0.2c-14.7,0.2-29.4,0.2-44,0.3c-0.3,0-0.7,0-1,0
			C602,206.3,602,206.2,602,206.1z"/>
		<path class="st0" d="M1023.9,179.3c-8.4-0.3-16.9-0.6-25.3-0.8c-31.4-0.9-62.7-1.3-94.1-1.3c-42.4,0-84.8,0.6-127.2,1.7
			c-18.8,0.5-37.7,1.2-56.5,1.8c-7.4,0.2-14.9,0.6-22.3,0.9c-13.4,0.6-26.9,1.3-40.3,2c-9,0.5-18,0.9-27,1.4
			c-11.6,0.7-23.2,1.3-34.7,2c-7.3,0.4-14.6,0.9-21.9,1.4c-13,0.9-26,1.9-39,2.8c-10.2,0.8-20.4,1.5-30.6,2.3
			c-11.8,0.9-23.7,2-35.5,3c-0.8-0.2-1.5,0-2.3,0.1c-3.4,0.2-6.7,0.8-10.1,0.8l0,0v0c-1.7,0.2-3.4,0.3-5.1,0.5
			c1.7,0.3,3.4,0.6,5-0.2v0c4.2,0.1,8.4-0.2,12.5-0.6c6.7-0.3,13.3-0.7,20-1c9.8-0.5,19.6-1,29.4-1.4c13.3-0.7,26.6-1.4,39.9-2
			c13.3-0.6,26.6-1.1,39.9-1.5c21-0.6,42-1.1,62.9-1.6c22.7-0.5,45.4-0.9,68.1-1.1c25.9-0.2,51.7-0.1,77.6,0.1
			c20.6,0.2,41.1,0.4,61.7,0.9c18.5,0.4,36.9,0.9,55.4,1.5c11.5,0.4,22.9,0.8,34.4,1.3c13.7,0.6,27.3,1.3,41,2.1
			c7.9,0.4,15.7,1.1,23.6,1.6c0.9,0.1,1.7,0.1,2.6,0c2.2-0.2,3.4-1.3,3.6-3.6c0.2-2.4,0.3-4.7,0.4-7.1
			C1029.8,180.7,1028.6,179.5,1023.9,179.3z"/>
		<g>
			<path class="st0" d="M141.4,152.4c-5.8-15.2-11.5-30.4-17.3-45.6C111.6,73.9,99,40.9,86.5,7.9c-0.9-2.3-0.6-2.2-3-2.2
				c-8.2,0-16.3,0-24.5,0c-2.7,0-2.2-0.1-3,2.1C37.5,56.1,19,104.3,0.6,152.5c-0.2,0.5-0.4,0.9-0.5,1.4c-0.2,0.7,0.1,0.9,0.7,0.9
				c0.4,0,0.9,0,1.3,0c9.2,0,18.3,0,27.5,0c2.3,0,1.9,0.4,2.8-2.1c3.4-9.6,6.7-19.2,10.2-28.7c0.9-2.6,0.2-2.4,3.4-2.4
				c8.2,0,16.3,0,24.5,0c8.5,0,16.9,0,25.4,0c2.1,0,1.9-0.3,2.7,1.9c3.4,9.6,6.8,19.3,10.3,28.9c1,2.7,0.4,2.4,3.2,2.4
				c9.3,0,18.6,0,27.9,0C142.3,154.8,142.3,154.8,141.4,152.4z M85.1,93.3c-4.8,0-9.6,0-14.4,0c-5.2,0-10.3,0-15.5,0
				c-1.7,0-1.7,0-1.1-1.7c3.7-10.4,7.4-20.8,11-31.2c1.7-4.9,3.2-9.9,4.8-14.9c0.1-0.3,0.2-0.7,0.3-1c0.1-0.2,0.2-0.4,0.4-0.5
				c0.4-0.1,0.3,0.3,0.4,0.6c1.1,3.3,2.1,6.7,3.2,10c4,12.2,8.4,24.2,12.6,36.3C87.7,93.6,87.7,93.2,85.1,93.3z"/>
		</g>
		<g>
			<path class="st0" d="M682,152.4c0-12.5,0-24.9,0-37.4c0,0,0,0,0,0c0-11.7,0-23.4,0-35c0-3-0.3-6-0.9-9c-1.7-8.6-5.9-15.7-13-21.1
				c-6.7-5.1-14.4-7.6-22.6-8.6c-6.9-0.9-13.9-0.9-20.8,0c-10.2,1.3-19.8,4.6-28.6,9.8c-1.3,0.8-1.6,0.6-0.6,2.4
				c3.2,5.8,6.4,11.5,9.6,17.3c0.9,1.5,0.9,1.6,2.4,0.8c7.6-4.1,15.6-6.3,24.2-6.6c3.7-0.1,7.3-0.3,10.9,0.7c3.4,1,6.2,2.9,8.1,6
				c2.3,3.8,2,8,1.9,12.1c0,0.4-0.3,0.7-0.7,0.5c-0.5-0.2-0.9-0.4-1.4-0.6c-3.7-1.5-7.6-2.6-11.6-3.1c-5.2-0.7-10.4-0.5-15.6,0
				c-7.3,0.7-14.2,2.6-20.6,6.3c-7.2,4.2-12.4,10.1-15.1,18.1c-2.3,7-2.4,14.1-1,21.2c1.8,9,6.2,16.4,13.5,22
				c5.6,4.3,11.9,6.8,18.8,8c5.5,1,11.1,1.2,16.7-0.1c5.8-1.3,11.1-3.9,15.6-7.8c0.3-0.3,0.6-0.8,1.1-0.5c0.4,0.2,0.3,0.8,0.3,1.2
				c0,1.4,0,2.9,0,4.3c0,0.9,0.2,1.4,1.2,1.3c0.4,0,0.9,0,1.3,0c8.2,0,16.3,0,24.5,0C682.3,154.8,682,155,682,152.4z M651.2,124.1
				c-2.8,3.3-6.4,5.5-10.5,6.8c-4.7,1.5-9.4,1.8-14.2,0.8c-9.2-1.9-12-9.2-11.3-16c0.7-6.7,4.9-10.9,12.1-11.9
				c6.2-0.9,12.4-0.5,18.5,1.2c2,0.6,3.9,1.5,5.7,2.5c0.8,0.4,1.1,1,1.1,1.9c0,2,0,4,0,6c0,0,0,0,0,0c0,1.6-0.1,3.3,0,4.9
				C652.7,121.7,652.1,122.9,651.2,124.1z"/>
		</g>
		<g>
			<path class="st0" d="M430.3,93.5c-0.6-9.7-3-18.9-7.8-27.4c-11.8-21-33.7-29.2-55.2-23.7c-14.4,3.7-24.5,12.9-31.1,26
				c-4.3,8.6-6.3,17.8-6.7,27.3c-0.5,11.8,1.4,23.1,6.6,33.8c10,20.3,30.5,30.9,52.8,26.8c15-2.7,26-11.2,33.5-24.3
				c5.8-10.2,8-21.4,8.1-33.9C430.4,97.2,430.4,95.4,430.3,93.5z M400.6,98.4c0,6.9-0.9,13-3.7,18.7c-2.3,4.8-5.6,8.7-10.7,10.5
				c-7.6,2.8-18.2,1-23.3-9.8c-2-4.1-3-8.5-3.4-13c-0.6-7.6-0.3-15,2.3-22.2c1.5-4.2,3.8-7.9,7.6-10.4c8.8-6,20.8-3.3,26.4,5.9
				c2.3,3.9,3.6,8.1,4.3,12.5C400.5,93.4,400.7,96.2,400.6,98.4z"/>
		</g>
		<g>
			<path class="st0" d="M920.2,94c-0.6-9.9-3-19.2-7.8-27.9c-11-19.8-32.3-29.3-54.4-24c-13.8,3.3-23.9,11.7-30.8,23.9
				c-5.8,10.2-7.9,21.4-8,33c0.1,8.9,1.3,17.6,4.7,25.8c8,19.2,21.8,30.6,43,32.1c10,0.7,19.4-1.5,27.9-6.8
				c10.9-6.6,17.8-16.4,21.9-28.3C919.8,112.9,920.7,103.6,920.2,94z M887.9,114.5c-1.5,4.1-3.8,7.7-7.2,10.5
				c-7.3,6-20.8,5.3-26.9-5.1c-2.2-3.8-3.4-7.8-4.1-12.1c-0.5-2.9-0.6-5.8-0.6-7.4c0-7.2,0.6-12.8,2.7-18.3
				c1.8-4.7,4.6-8.7,9.2-11.1c8.7-4.5,19.3-1.5,24.6,7c2.3,3.7,3.5,7.8,4.2,12.1C891.1,98.4,890.8,106.6,887.9,114.5z"/>
		</g>
		<g>
			<path class="st0" d="M1041.9,141.8c-3.5,0-6.4,2.9-6.4,6.4c0,3.5,2.9,6.4,6.4,6.4c3.5,0.1,6.4-2.7,6.4-6.3
				C1048.3,144.6,1045.6,141.8,1041.9,141.8z M1042,153.5c-3.1,0-5.4-2.3-5.4-5.4c0-2.9,2.3-5.3,5.3-5.4c3-0.1,5.5,2.4,5.5,5.4
				C1047.3,151.1,1044.9,153.5,1042,153.5z"/>
			<path class="st0" d="M1043.6,144.7c-1.2-0.4-2.5-0.5-3.6-0.1c-0.9,0.4-0.3,1.7-0.4,2.6c0,0.3,0,0.6,0,0.9c0,0.6-0.1,1.2,0,1.7
				c0.1,0.6-0.4,1.5,0.5,1.6c1,0.1,0.6-0.9,0.7-1.4c0-0.1,0-0.1,0-0.2c0-0.3,0-0.7,0.5-0.9c0.5-0.1,0.8,0.1,1,0.5
				c0.3,0.6,0.6,1.2,0.9,1.7c0.2,0.3,0.5,0.5,0.9,0.4c0.5-0.2,0.4-0.6,0.2-0.9c-0.8-1.1-0.7-1.9,0.3-2.9
				C1045.4,146.8,1044.8,145.1,1043.6,144.7z M1043.5,146.7c-0.3,1.1-1.2,0.8-1.9,0.8c-0.7,0-1.1-0.3-1-1c0.1-1,0.8-0.7,1.4-0.9
				c0.4,0.1,0.7,0.1,1.1,0.2C1043.4,146,1043.6,146.4,1043.5,146.7z"/>
		</g>
	</g>
</g>
</svg>
