<?xml version="1.0" encoding="utf-8"?>
<!-- Generator: Adobe Illustrator 21.0.0, SVG Export Plug-In . SVG Version: 6.00 Build 0)  -->
<svg version="1.1" xmlns="http://www.w3.org/2000/svg" xmlns:xlink="http://www.w3.org/1999/xlink" x="0px" y="0px" width="917.4px"
	 height="527.1px" viewBox="0 0 917.4 527.1" style="enable-background:new 0 0 917.4 527.1;" xml:space="preserve">
<style type="text/css">
	.st0{display:none;}
	.st1{display:inline;fill:none;}
	.st2{fill:#FFFFFF;}
</style>
<g id="preview_backer" class="st0">
	<rect x="133.9" y="91" class="st1" width="648.4" height="344.8"/>
</g>
<g id="art">
	<g>
		<g>
			<path class="st2" d="M458.7,367c-101.2,0-183.5-81.8-183.5-183.5C275.2,82.3,357.5,0,458.7,0c101.1,0,183.5,82.3,183.5,183.5
				C642.2,285.2,559.8,367,458.7,367 M458.7,8.6c-96.6,0-174.9,78.3-174.9,174.9c0,96.6,78.3,174.8,174.9,174.8
				c96.6,0,174.8-78.3,174.8-174.8C633.5,87.4,555.3,8.6,458.7,8.6 M614.2,235.8c-0.1,0.2-0.4,0.4-0.9,0.2c-0.4-0.2-0.5-0.4-0.5-0.6
				c0-0.3,6.1-18.4,6.1-39.1c-0.1-22.4-9.2-36.1-20.8-36.1c-7.1,0-12.2,5.1-12.2,12.7c0,13.7,16.8,14.8,16.8,44.8
				c0,12.2-2.5,23.9-6.6,36.6c-18.8,63.5-78.8,93-137.2,93c-27,0-46.1-5.6-51.8-8.1c-0.2-0.1-0.4-0.6-0.2-1c0.1-0.3,0.5-0.6,0.7-0.5
				c2.3,0.9,18.8,6.1,39.1,6.1c22.4,0,35.6-9.2,35.6-20.3c0-7.1-5.6-12.7-12.7-12.7c-13.7,0-14.8,17.3-44.2,17.3
				c-12.7,0-23.9-2.5-37.1-6.6c-63.1-19.3-93.1-78.8-93-137.8c0-28.7,8.1-51.6,8.2-51.8c0.1-0.2,0.5-0.3,0.9-0.2
				c0.5,0.2,0.6,0.6,0.5,0.7c-0.7,2.4-6.1,18.8-6.1,39.1c0,22.4,9.1,35.6,20.8,35.6c6.6,0,12.2-5.1,12.2-12.2
				c0-13.7-16.8-15.3-16.8-44.8c0-12.7,2.6-23.9,6.6-37.1c19.3-63,78.8-92.6,137.3-93c27.2-0.2,50.9,7.9,51.8,8.6
				c0.2,0.2,0.3,0.5,0.2,0.9c-0.2,0.5-0.5,0.5-0.7,0.5c-0.3,0-15.7-6.5-39.1-6.5c-21.9,0-35.6,9.2-35.6,20.8
				c0,6.6,5.1,12.2,12.7,12.2c13.7,0,14.7-16.8,44.2-16.8c12.7,0,23.9,2.5,37.1,6.6c63.5,19.3,92.5,79.3,93,137.3
				C622.6,213.2,614.3,235.6,614.2,235.8 M526.8,192.2c-17.3,0-30.5,12.7-30.5,27.9c0,12.7,7.6,22.9,17.8,22.9c3.6,0,7.1-2,7.1-6.6
				c0-6.6-8.7-8.2-8.1-18.1c0.5-6.5,6.6-10.9,12.7-10.9c12.2,0,17.9,11.8,17.9,24c-0.5,18.8-14.4,31.9-30.6,31.9
				c-21.4,0-35.1-20.3-35.1-42.2c0-32.5,21.4-45.2,32.5-48.3c0.1,0,29.2,5.2,28.3-7.6c-0.4-5.6-8.8-7.8-14.9-8
				c-6.8-0.3-13.6,2.2-13.6,2.2c-3.5-1.8-6-5.3-7.5-9.4c20.8-15.8,35.6-31,35.6-48.3c0-9.2-6.1-17.3-17.8-17.3
				c-20.8,0-36.6,26.4-36.6,50.3c0,4.1,0,8.1,1,11.7c-13.2,9.7-23.1,15.7-40.8,26.3c0-2.2,0.5-8,2-15.4c6.1-6.6,14.5-16.5,14.5-24.2
				c0-3.6-2-6.6-6.1-6.6c-10.1,0-17.8,15.3-19.8,25.9c-4.6,5.6-13.7,12.7-21.4,12.7c-6.1,0-8.1-5.6-8.7-7.6
				c19.3-6.6,43.2-33.1,43.2-56.9c0-5.1-2-16.3-17.3-16.3c-22.9,0-42.2,34-42.2,60.5c-8.1,0-11.2-8.6-11.2-15.3
				c0-6.6,2.5-13.2,2.5-15.2c0-2-1-4.6-4.1-4.6c-7.6,0-12.2,10.1-12.2,21.8c0.5,16.3,11.2,26.5,25.4,27.5c2,9.6,10.7,18.8,21.3,18.8
				c6.6,0,14.7-2,20.3-7.1c-0.5,3.6-1,6.6-1.5,9.7c-22.4,11.7-38.6,19.8-53.4,33c-11.7,10.7-18.3,24.9-18.3,36.1
				c0,15.3,9.7,29.5,29.5,29.5c23.4,0,41.2-18.8,49.8-44.7c4.1-12.2,5.7-29.9,6.7-46.2c23.4-13.2,34.5-20.9,46.7-29.5
				c1.5,2.6,3.1,4.6,5.1,6.1c-10.7,5.6-36.1,21.4-36.1,58.5c0,26.4,17.8,55.9,52.9,55.9c29,0,48.8-23.9,48.8-46.8
				C560.9,211.5,549.2,192.2,526.8,192.2 M387,263.3c-7.6,0.3-12.7-4.5-12.7-12.7c0-21.9,30.3-42.7,53.2-53.9
				C423.4,227.3,413.1,262.1,387,263.3 M403.8,143.3c0-16.8,16.6-48.7,26.7-45.3C442.4,102,420.6,134.2,403.8,143.3 M499.9,135.7
				c0-20.9,14.1-41.1,21.8-37.3C530.5,102.8,515.1,122.5,499.9,135.7"/>
		</g>
		<g>
			<g>
				<path class="st2" d="M0,492.4v-0.2c0-19.6,15.4-35,36.2-35c11.8,0,20.2,3.6,27.3,9.8l-10.9,13.1c-4.8-4-9.6-6.3-16.2-6.3
					c-9.7,0-17.2,8.2-17.2,18.4v0.2c0,10.9,7.6,18.6,18.2,18.6c4.5,0,8-1,10.8-2.8v-8.2H34.9v-13.6h30.9v30.3
					c-7.1,5.9-17,10.4-29.2,10.4C15.7,527.1,0,512.7,0,492.4z"/>
				<path class="st2" d="M85.7,458.5h54.1v15.9h-35.6v10.2h32.3v14.7h-32.3v10.7h36.1v15.8H85.7V458.5z"/>
				<path class="st2" d="M218.8,458.1h18l28.6,67.7h-20l-4.9-12h-25.9l-4.8,12h-19.6L218.8,458.1z M235.1,499.3l-7.5-19.1l-7.6,19.1
					H235.1z"/>
				<path class="st2" d="M281.5,458.5h28.8c17,0,27.9,8.7,27.9,23.6v0.2c0,15.8-12.2,24.2-28.9,24.2h-9.2v19.2h-18.6V458.5z
					 M308.9,492c6.6,0,10.7-3.5,10.7-8.7V483c0-5.8-4-8.8-10.8-8.8h-8.7V492H308.9z"/>
				<path class="st2" d="M355.7,458.5h28.8c17,0,27.9,8.7,27.9,23.6v0.2c0,15.8-12.2,24.2-28.9,24.2h-9.2v19.2h-18.6V458.5z
					 M383.1,492c6.6,0,10.7-3.5,10.7-8.7V483c0-5.8-4-8.8-10.7-8.8h-8.7V492H383.1z"/>
				<path class="st2" d="M429.9,458.5h18.6v50.9h32.6v16.3h-51.2V458.5z"/>
				<path class="st2" d="M499,458.5h18.7v67.2H499V458.5z"/>
				<path class="st2" d="M562.8,458.1h18l28.6,67.7h-20l-4.9-12h-25.9l-4.8,12h-19.6L562.8,458.1z M579.2,499.3l-7.5-19.1l-7.6,19.1
					H579.2z"/>
				<path class="st2" d="M625.5,458.5h17.4l27.7,35.5v-35.5H689v67.2h-16.3L644,488.9v36.9h-18.4V458.5z"/>
				<path class="st2" d="M708.2,492.4v-0.2c0-19.6,15.1-35,35.4-35c13.7,0,22.6,5.8,28.5,14l-14,10.9c-3.8-4.8-8.3-7.9-14.7-7.9
					c-9.4,0-16,8-16,17.8v0.2c0,10.1,6.6,18,16,18c7,0,11.1-3.3,15.2-8.2l14,10c-6.3,8.7-14.9,15.2-29.8,15.2
					C723.6,527.1,708.2,512.4,708.2,492.4z"/>
				<path class="st2" d="M790.2,458.5h54.1v15.9h-35.6v10.2h32.3v14.7h-32.3v10.7h36.1v15.8h-54.6V458.5z"/>
				<path class="st2" d="M858.7,515.8l10.4-12.4c6.6,5.3,14,8.1,21.8,8.1c5,0,7.7-1.7,7.7-4.6v-0.2c0-2.8-2.2-4.3-11.3-6.4
					c-14.3-3.3-25.4-7.3-25.4-21.1v-0.2c0-12.5,9.9-21.5,26-21.5c11.4,0,20.4,3.1,27.7,8.9l-9.3,13.2c-6.1-4.3-12.9-6.6-18.8-6.6
					c-4.5,0-6.7,1.9-6.7,4.3v0.2c0,3.1,2.3,4.4,11.6,6.5c15.5,3.4,25.1,8.4,25.1,20.9v0.2c0,13.7-10.9,21.9-27.2,21.9
					C878.3,526.9,867,523.2,858.7,515.8z"/>
			</g>
		</g>
	</g>
</g>
</svg>
