<?xml version="1.0" encoding="utf-8"?>
<!-- Generator: Adobe Illustrator 21.0.0, SVG Export Plug-In . SVG Version: 6.00 Build 0)  -->
<svg version="1.1" id="Layer_1" xmlns="http://www.w3.org/2000/svg" xmlns:xlink="http://www.w3.org/1999/xlink" x="0px" y="0px"
	 width="1277.1px" height="169.8px" viewBox="0 0 1277.1 169.8" style="enable-background:new 0 0 1277.1 169.8;"
	 xml:space="preserve">
<style type="text/css">
	.st0{fill:#FFFFFF;}
</style>
<g>
	<path class="st0" d="M675.1,0c-20.8,0-49.5,3.5-67.2,9.9v155c14.6,3.1,42,5,61.1,5c65.1,0,90.3-25.5,90.3-86.1
		C759.3,31.4,727.2,0,675.1,0 M644.4,31.6c5.9-1.2,17.5-2.8,29-2.8c26.4,0,47.2,14.9,47.2,55c0,38.9-10.1,57.3-50.5,57.3
		c-13,0-25.7-1.9-25.7-1.9V31.6z M1155.1,163.9c0,0,22.6,5.9,54.3,5.9c30,0,67.7-10.1,67.7-50.7c0-26.4-19.6-37.7-51.4-49.3
		c-17.2-6.4-31.8-12-31.8-23.8c0-5.7,4.2-16.7,26.2-16.7c20.5,0,41.5,9.4,41.5,9.4l9.2-27.1c-6.1-3.1-26.2-11.6-54-11.6
		c-30.2,0-59.7,16-59.7,48.4c0,33.3,30.2,43.4,53.8,51.2c16,5.4,29.5,11.1,29.5,21.7c0,10.4-5.7,19.3-32.8,19.3
		c-22.2,0-45.8-5-45.8-5L1155.1,163.9z M1075.4,126c-8.7,4.2-27.6,11.3-44.8,11.3c-25,0-29.3-11.3-29.3-37.3V1.4h-5.4
		c-8.3,0-26.7,1.4-31.1,2.4v101c0,44.1,10.9,65.1,55.7,65.1c34.2,0,54.3-13.2,55.7-13.2c0.5,0,12.3,7.3,35.9,7.3V3.8
		c-2.6-0.5-20.3-2.4-29.3-2.4h-7.3V126z M496.8,0c-32.6,0-58,8-67.9,13l7.8,27.4c0,0,25-9,49.5-9c21,0,31.8,5.9,31.8,26.7v11.8
		h-31.8c-54,0-70.1,24.8-70.1,52.1c0,36.3,28.3,47.9,54,47.9c30,0,47.4-12.5,49.5-12.5c1.7,0,7.8,6.6,35.1,6.6V48.4
		C554.8,13.7,533.3,0,496.8,0 M518.5,131.9c-7.8,3.1-26.7,9.2-40.6,9.2c-15.1,0-26.4-5.2-26.4-21.7c0-14.4,7.8-22.6,28.5-23.3
		l38.4-1.4V131.9z M80.7,0c-32.6,0-58,8-67.9,13l7.8,27.4c0,0,25-9,49.5-9c21,0,31.8,5.9,31.8,26.7v11.8H70.1C16,69.8,0,94.6,0,122
		c0,36.3,28.3,47.9,54,47.9c30,0,47.4-12.5,49.5-12.5c1.7,0,7.8,6.6,35.1,6.6V48.4C138.7,13.7,117.2,0,80.7,0 M102.4,131.9
		c-7.8,3.1-26.7,9.2-40.6,9.2c-15.1,0-26.4-5.2-26.4-21.7c0-14.4,7.8-22.6,28.5-23.3l38.4-1.4V131.9z M285.4,97.7
		c-0.9,2.4-2.1,6.8-2.8,9.4c-0.7-2.6-1.9-7.1-2.8-9.4l-32.1-82.3C242.2,1.7,233.8,0,218.2,0c-5.4,0-16.5,0.7-16.5,0.7l-16.5,166.8
		h36.6l8-111.8l34.7,84.7c2.6,6.6,7.8,9.2,18.2,9.2c10.4,0,15.6-2.6,18.2-9.2l34.7-84.7l8,111.8H380L363.5,0.7
		c0,0-11.1-0.7-16.5-0.7c-15.6,0-24.1,1.7-29.5,15.3L285.4,97.7z M802.9,162c0,0,28.1,7.8,63.9,7.8c38.2,0,55.9-4.2,55.9-4.2v-28.3
		c0,0-19.1,3.8-45.8,3.8c-23.3,0-37.7-3.1-37.7-3.1V97.9h72.4V69.6h-72.4V31.4c0,0,14.2-2.6,35.4-2.6c23.8,0,45.3,3.8,45.3,3.8V4
		c0,0-18.9-4-49.5-4c-40.8,0-67.5,7.3-67.5,7.3V162z"/>
</g>
</svg>
