<svg id="Layer_1" data-name="Layer 1" xmlns="http://www.w3.org/2000/svg" viewBox="0 0 1968.55 261.81"><defs><style>.cls-1{fill:#1c69bc;}.cls-2{fill:#1d6abc;}</style></defs><title>Amadeus</title><path class="cls-1" d="M-524.16,56.68C-507,10-488.24-35.42-470.91-81.43c6.16-16.37,17.46-24.25,34.75-24.86,11-.38,22,.28,33,.43,3.2,0,4.05,1.28,4.36,4.41q7.69,78.8,15.65,157.55c3,30.32,6,60.65,9.07,91,.34,3.28-.46,4.29-3.85,4.26q-23.75-.26-47.49,0c-3.57.05-4.91-.85-5.14-4.54-1-15.79-2.21-31.56-3.35-47.34q-3.87-53.56-7.73-107.14c-.26-3.64-.41-7.3-.64-11.32-2,1.05-2.15,3-2.79,4.56-16.35,39.84-33,79.56-48.79,119.62-4.93,12.51-13.07,18.15-25.91,18.59a78.77,78.77,0,0,1-15.43-.92c-8.87-1.46-14.26-6.77-17.63-15.07-16.54-40.84-33.33-81.58-50-122.35-.6-1.48-1.28-2.92-2.52-5.73-.89,11.86-1.71,22.21-2.44,32.56q-4.71,66.29-9.27,132.58c-.32,4.86-1.56,6.72-6.91,6.57-15.32-.43-30.65-.25-46-.08-3.41,0-4.17-1-3.84-4.26q7.43-72.8,14.65-145.61,5.13-51.43,10.16-102.88c.19-1.92-.31-4.19,2.79-4.29,14-.43,27.94-1.7,41.9.31,12.77,1.84,21.17,9.06,25.83,20.82q10.77,27.12,21.34,54.32,13.88,35.55,27.65,71.13C-527.59,45.92-526,51.15-524.16,56.68Z" transform="translate(959.63 106.71)"/><path class="cls-2" d="M-22.7,27.49c0-37.82.09-75.64-.12-113.46,0-4.39,1.52-6,5.43-7.17,21-6.29,42.47-9.75,64.21-11.71,19.42-1.75,38.88-2.74,58.33-.15C162-97.4,200.84-61.45,208.94-2.87,213,26.67,211.37,56,202.39,84.57c-11.88,37.76-39.51,57.35-76.84,65.39-25.46,5.49-51.25,5.74-77.08,4.58-22.28-1-44.53-2.48-66.58-6.28-4-.7-4.66-2.29-4.65-5.81Q-22.62,85-22.7,27.49Zm56.54-2.6q0,39.22,0,78.43c0,2.19-.74,4.48,3,4.89,19.89,2.16,39.75,3.86,59.72.82C122,105.16,140,92.49,146.32,66.67c6.43-26.23,7.37-52.78.49-79-6.83-26-23.35-43-50.33-48.1-20.08-3.79-40.12-1.14-60.06,2.11-3.45.56-2.55,2.87-2.55,4.83Q33.81-14.33,33.84,24.89Z" transform="translate(959.63 106.71)"/><path class="cls-2" d="M-104.32,49c0,30.49-.12,61,.13,91.48,0,4.8-1.46,5.79-5.87,5.55-15.84-.86-31.63-1.89-46.11-9.29-2.79-1.43-4.79-.14-7,1a156,156,0,0,1-77.11,17.22,101.11,101.11,0,0,1-35.06-7c-24-9.79-38.52-27.36-41.84-53.33-3.35-26.21,1.17-50.25,21.57-69,12.22-11.25,27.26-17,43.25-20.47,14.88-3.21,30-4.16,45.18-4.09,14,.07,28,0,42,0,1.8,0,4.19.84,4.12-2.58-.19-9.48.61-19-1.21-28.41q-4.52-23.29-30-26.9c-20.4-2.89-40.52-.51-60.54,3.45a231.81,231.81,0,0,0-30.36,8c-2.92,1-3.77.1-4.48-2.46-3.25-11.69-6.54-23.37-10-35-.85-2.85-.14-4.05,2.56-5.23,17.05-7.48,35-11.67,53.26-14.61a278.34,278.34,0,0,1,63.24-3.15,114.15,114.15,0,0,1,31.7,6.39c25.94,9.48,39.11,28.67,41.78,55.6.64,6.45.71,13,.73,19.47C-104.27,0-104.32,24.49-104.32,49Zm-56,19.07c0-8-.18-16,.08-24,.12-3.79-.69-5.18-4.88-5-18.14.91-36.3,1.37-54.44,2.16a83.39,83.39,0,0,0-20.22,2.91c-11.87,3.54-20.31,10.59-22.92,23.21a47.19,47.19,0,0,0-.43,16.89c1.73,11.2,7.63,18.94,18.26,23a60.84,60.84,0,0,0,25.56,3.4c19.27-1.21,37.63-6.54,55.76-12.83,2.74-1,3.33-2.59,3.28-5.24C-160.4,84.38-160.31,76.21-160.31,68.05Z" transform="translate(959.63 106.71)"/><path class="cls-1" d="M-745.86,50.31c0,30.34-.06,60.67.08,91,0,3.64-.72,4.9-4.62,4.71-16.19-.77-32.31-1.76-47.12-9.3-2.79-1.42-4.79-.14-7,1a155.39,155.39,0,0,1-77.62,17.19c-14.78-.58-29.06-3.61-42.27-10.62-20.79-11-31.81-28.69-34.51-51.74-1.52-13-.75-26,3.44-38.51,8.22-24.63,26.57-38.31,50.28-45.94,15.5-5,31.56-6.77,47.77-7,16.83-.23,33.66-.19,50.5,0,3.52,0,4.59-1,4.42-4.47-.32-6.66,0-13.34-.39-20C-804-43-814.43-54.3-833.94-57c-20.24-2.81-40.21-.45-60.06,3.46a238.91,238.91,0,0,0-30.38,8c-2.71.92-3.83.56-4.6-2.26-3.25-11.87-6.54-23.73-10.12-35.5-1-3.26.62-3.94,2.89-4.92,19.09-8.31,39.23-12.68,59.71-15.53A272.85,272.85,0,0,1-820.16-106c12,.81,23.76,3,35,7.6,22.39,9.16,34.52,26.18,38.2,49.74a121.19,121.19,0,0,1,1.13,18.93Zm-87.75-11.14v.95c-12.14.63-24.29,1-36.41,1.93-20.18,1.55-31.8,11.25-34.59,28.37-3.14,19.3,5.3,33.63,22.73,38.22a66.09,66.09,0,0,0,21.79,2c18.9-1.38,37-6.49,54.75-12.67,2.57-.89,3.59-2.1,3.56-5-.15-16.65-.18-33.31,0-50,0-3.58-1.37-4-4.39-3.9C-815.3,39.29-824.46,39.17-833.61,39.17Z" transform="translate(959.63 106.71)"/><path class="cls-1" d="M754.3,22.77c0,39.17-.06,78.34.09,117.5,0,4.37-.8,6.09-5.63,5.75-16-1.11-31.81-3.23-46.58-10-2.62-1.21-4.65-.8-7,.37-28.69,14.25-59.18,19.78-91,18.44-13.36-.56-26.5-2.54-38.84-8.18-19.06-8.71-28.6-24.58-33.33-44.11-4-16.33-4.38-33-4.4-49.65-.05-49.5.06-99-.14-148.49,0-4.46,1.47-5.73,5.46-6.08,15.77-1.37,31.54-2.57,47.39-2.7,4.54,0,3.62,2.71,3.62,5.23q0,68.49,0,137c0,12.65-.43,25.32,2,37.86,3.35,17.1,12.55,26.12,29.67,28.26,28.44,3.57,54.67-4.51,80.33-15.54,2.93-1.26,2-3.52,2-5.48q.07-53.25,0-106.49c0-25.17.09-50.34-.09-75.5,0-4,.71-5.38,5.06-5.36,15.69.09,31.26,1.45,46.85,3,4.28.43,4.54,2.29,4.53,5.68Q754.23-36.47,754.3,22.77Z" transform="translate(959.63 106.71)"/><path class="cls-1" d="M278.05,23.5c0-38,0-76-.08-114,0-3.56.78-5.15,4.6-6a451.94,451.94,0,0,1,89.2-9.9c27.52-.43,54.93.66,82.16,5.11,3.72.61,4.53,2,4.47,5.45-.19,11.49-.22,23,0,34.49.08,3.84-.92,4.87-4.77,4.24A422.16,422.16,0,0,0,371-61.88c-11.16.4-22.25,1.66-33.33,3-2.55.29-3.69,1.21-3.67,4.07.14,17.33.2,34.67,0,52-.05,4.17,2.34,3.53,4.8,3.53,33.67,0,67.33.14,101-.14,5.27,0,6.35,1.53,6.17,6.41-.37,10.66-.31,21.34,0,32,.12,4.14-1,5.29-5.2,5.27-33.83-.17-67.66,0-101.49-.19-4.07,0-5.33.91-5.27,5.14.24,17.5.2,35,0,52.49,0,3.33.92,4.67,4.18,5.15a389.65,389.65,0,0,0,85.73,2.7A328,328,0,0,0,460,105.26c2.38-.45,2.85.51,2.84,2.61-.05,12.5-.08,25,0,37.5,0,2.55-1,3.33-3.38,3.78-13.78,2.6-27.72,3.8-41.67,4.66-32.66,2-65.27,1.93-97.75-2.76-12.68-1.82-25.28-4.05-37.79-6.91-3.46-.79-4.36-2.19-4.35-5.65C278.1,100.16,278.05,61.83,278.05,23.5Z" transform="translate(959.63 106.71)"/><path class="cls-1" d="M918.67-106.71c26.08.6,51.23,5.45,75.36,15.52,3.92,1.63,5.19,3.07,3.51,7.48-4.14,10.87-7.78,21.94-11.29,33-1.06,3.37-2.31,3.31-5.17,2.2C959-57,936.42-62.9,912.44-61c-7.05.54-13.8,2.2-19.9,5.91-14.75,9-16,26.17-2.6,37,9.46,7.68,20.79,11.77,32,16.06,18,6.9,36.27,13.22,52.92,23.22,16.43,9.87,29.56,22.68,32.83,42.43C1013,96.12,1001.72,128,964.92,144c-16.6,7.2-34.11,10.27-52,10.83a380.66,380.66,0,0,1-87.39-7.72c-4-.81-4.54-2.18-3.59-5.87,2.87-11.11,5.64-22.27,7.82-33.52.93-4.76,2.92-5.2,7-4.42,23.28,4.4,46.75,7.08,70.49,6.59,9.67-.2,19.28-1.32,28.37-5,11.2-4.54,16.6-12.88,16.46-24.83-.07-5.92-2.68-10.54-6.82-14.46-6.8-6.44-15.2-10.11-23.73-13.47C906,46,889.64,41.69,874.31,34.75c-9.75-4.41-19.11-9.48-27.3-16.41-32.67-27.68-30.77-79.2,3.87-105.2,15.49-11.63,33.27-17.18,52.33-19C908.34-106.41,913.52-106.45,918.67-106.71Z" transform="translate(959.63 106.71)"/></svg>