<svg id="Layer_1" data-name="Layer 1" xmlns="http://www.w3.org/2000/svg" viewBox="0 0 1998.04 603"><defs><style>.cls-1{fill:#221f1f;}.cls-2{fill:#fe9901;}</style></defs><title>Amazon</title><path class="cls-1" d="M-551.43-214.27c14.56-37.55,40.34-58.39,81-58.86,41.22-.47,65.24,22.69,80.66,58.85,6.36-16.06,15.18-29.06,27.8-39.48,37.79-31.2,100.14-24,129,15.13,9.6,13,13.25,28.09,15,43.83,1.39,12.63,1,25.29,1,38q-.09,107-.2,214c0,12-3.85,15.88-15.8,15.88q-27.5,0-55,0c-9.68,0-14-4.36-14-14q0-101,.07-202a118.91,118.91,0,0,0-1.73-22.37c-4.13-21.64-18.29-29.59-39.23-28-19.16,1.47-33.15,15.47-37.05,35.63-2.44,12.65-2.93,25.47-2.93,38.3q0,88.74,0,177.48c0,11-3.93,14.92-15.1,14.93q-27.5,0-55,0c-10.55,0-14.71-4.21-14.7-14.94q.06-95.23.15-190.47c0-11.33-.45-22.65-3.36-33.7-4.5-17.15-14.76-26.76-29.79-27.9-20.3-1.54-33.36,5.75-40.6,22.83-4.82,11.36-6.38,23.42-6.7,35.6-1.07,39.49-.31,79-.47,118.48-.1,25,0,50,0,75,0,11.14-4,15.11-15,15.12q-27.75,0-55.49,0c-10.15,0-14.22-4.08-14.22-14.21V-251.66c0-10.86,3.81-14.73,14.69-14.76q26-.07,52,0c9.9,0,14,4.16,14,14,0,10.83,0,21.67,0,32.5C-552.46-218.35-552.94-216.67-551.43-214.27Z" transform="translate(974.14 276.81)"/><path class="cls-1" d="M105.75-113.29c0,25.53.31,47-.1,68.52A77.3,77.3,0,0,0,122.39,5.81c2.55,3.29,5.07,6.62,7.29,10.13,4.14,6.55,3.27,11.61-2.58,16.68q-21.33,18.52-42.68,37C75.66,77.2,70.67,77,61.78,69.44c-11.31-9.6-20.3-21.11-28.13-33.57-2-3.23-3.21-3-5.7-.47-14.06,14.13-29.07,27.15-48.16,34C-47.28,79-75.06,80.55-102.69,72.63c-25.9-7.43-44.22-24.29-53.38-49.81-10.66-29.69-10.35-59.62,2.25-88.66,13.81-31.85,39.77-49.95,72-60.06C-57.41-133.58-32-136.2-6.73-139c7.45-.81,14.91-1.49,22.36-2.3,1.58-.17,3.38-.08,3.33-2.64-.21-11.65.79-23.36-1.51-34.9-3.73-18.78-15.77-29.46-35-31.33-23.47-2.28-43.32,7.61-51.89,25.82A64.64,64.64,0,0,0-73.13-173c-2.2,8.49-6.63,11.27-15.32,10.31-17.21-1.9-34.44-3.67-51.67-5.42-10.51-1.07-14.28-6.17-12.1-16.5,7.7-36.35,28.6-62.52,62.57-76.93,43.86-18.6,89-20.24,134-4.27,38.92,13.81,58.47,42.53,60.69,83.54C106.37-157.92,105.34-133.59,105.75-113.29ZM18.93-71.37c0-5.33-.31-10.68.1-16,.33-4.18-1.3-4.82-5-4.74a201.23,201.23,0,0,0-33.24,3.23,99.41,99.41,0,0,0-18.19,5.21C-68.35-71.34-82.27-36.3-68.27-5.86-62,7.74-51.2,14.57-36.36,15c11.9.32,22.08-4.14,30.86-12S9-14.65,13.06-25.57C18.53-40.39,18.83-55.86,18.93-71.37Z" transform="translate(974.14 276.81)"/><path class="cls-1" d="M-704.91-113.9c0,26,.27,47-.08,68-.31,19.23,4.85,36.44,16.78,51.59a115.68,115.68,0,0,1,7.52,10.58c4.06,6.56,3.25,11.25-2.53,16.26-14.47,12.56-29,25-43.41,37.68-6.34,5.58-13.67,7-21.24.18a158.83,158.83,0,0,1-28.85-34.26c-2.14-3.41-3.29-3.28-6-.56-13.94,14-28.82,26.91-47.74,33.73-27.22,9.8-55.15,11.35-82.94,3.31-27.08-7.84-45.45-25.92-54.33-52.72-8.59-25.89-8.65-52.17.32-78,11.33-32.63,35.08-53,66.73-64.88,21.34-8,43.72-11.35,66.22-14,13.07-1.53,26.16-2.82,39.24-4.22,1.86-.2,3.6-.29,3.55-3-.24-11.82.83-23.71-1.51-35.4-3.28-16.45-13.43-26.11-29.76-29.75-23.91-5.33-48.73,5.83-57.5,26.28a106.48,106.48,0,0,0-3.47,10.91c-2.41,7.9-6.63,10.48-14.88,9.56-17.05-1.89-34.1-3.72-51.17-5.38-11.38-1.12-15.23-6.23-12.7-17.41,7.86-34.75,27.5-60.62,60.12-74.93,47.26-20.72,95.66-22.25,143.59-2.4,33,13.67,50,39.89,53,75.37C-703.76-161.26-705.59-135.08-704.91-113.9ZM-791.7-70.44c0-6-.13-12,.06-18,.09-2.73-.55-3.71-3.52-3.67-14.7.2-29.28,1.35-43.46,5.35-20.87,5.89-37,17.1-42.85,39.45A72.21,72.21,0,0,0-882.87-20c2.41,19.32,13.72,32,31.16,34.61,12.15,1.82,23.07-1.69,32.71-9.12,10.91-8.4,17.57-19.75,22.07-32.54C-792-41.15-791.73-55.78-791.7-70.44Z" transform="translate(974.14 276.81)"/><path class="cls-1" d="M850-209.44c4.81-8.18,8.64-16.45,13.34-24.29,19.09-31.83,48.17-42.3,83.49-38.74,28,2.83,49.64,16.27,63.29,41.31,7.54,13.82,10.15,29.12,11.78,44.56,1.75,16.59,2,33.25,2,49.92q0,97.74,0,195.48c0,9.85-4.36,14.18-14.39,14.19q-28.25,0-56.5,0c-9.83,0-14-4.18-14-13.88q0-92.49,0-185c0-13.84-.25-27.66-4-41.13C931.28-180.7,924-191.13,909-194.11c-16.06-3.2-29,2.29-38.67,15C861-167,858-152.41,856-137.63c-1.39,10.27-1.24,20.62-1.24,30.94q0,82,0,164c0,11.59-4.08,15.7-15.55,15.71q-27.5,0-55,0c-10,0-14.29-4.31-14.29-14.26q0-155.73-.05-311.46c0-9.28,4-13.59,13.2-13.67,18.16-.14,36.32,0,54.49-.07,7.45-.05,12.88,5.46,12.61,12.82C849.67-238.93,850-224.17,850-209.44Z" transform="translate(974.14 276.81)"/><path class="cls-1" d="M723-95.18c.31,41.92-8.27,81.54-32.2,116.83-43.73,64.5-122.15,70.57-173,41.37C490.07,47.12,472,22.88,460-6.16c-13.9-33.52-18.14-68.65-16.51-104.63,1.33-29.34,6.91-57.77,19.56-84.48,14.76-31.18,36.52-55.71,69.23-68.47,54.89-21.41,130.46-9.95,168,63.38C714.33-172.95,721-143.65,723-113.15,723.35-107.18,723-101.17,723-95.18Zm-90.68.88c0-13.65-.14-27.31-1.41-40.92-1.45-15.58-3.53-31.08-9-45.88C617.65-192.85,610.63-202.37,598-206c-22.36-6.45-40.92.42-51.36,20.84-6.31,12.36-9.2,25.68-10.47,39.28a458.53,458.53,0,0,0,.94,96.72C539-33.44,542.32-18,550.94-4.27c14.78,23.53,46.1,25,63.15,3C620-8.93,623.53-17.69,626-26.9,631.93-49,632.34-71.63,632.33-94.3Z" transform="translate(974.14 276.81)"/><path class="cls-2" d="M-174.13,326.08c-150.94-2.66-290.38-43.58-417.36-125.78A761.29,761.29,0,0,1-686.87,127a28.83,28.83,0,0,1-2.5-2.44c-3.78-4.32-4.41-9-1.75-12.75s7.65-4.93,12.63-2.43c7.43,3.72,14.59,8,21.88,12C-565.84,171.26-469.5,206-368.18,227.1a1061.82,1061.82,0,0,0,203.75,22.33,999.2,999.2,0,0,0,147-9.15,1038.13,1038.13,0,0,0,265-72.15c5.58-2.36,11.21-3.21,17-.89,9.36,3.78,12.27,14.08,6.35,22.24a31.51,31.51,0,0,1-7.3,6.76c-52.44,38.1-110.2,65.72-171.31,86.63A811.92,811.92,0,0,1-66.93,319.78,728.79,728.79,0,0,1-174.13,326.08Z" transform="translate(974.14 276.81)"/><path class="cls-1" d="M298.64-199H198.25c-2,0-4,.08-6,0-6.86-.4-11.21-4.67-11.27-11.49-.11-15.16-.13-30.33,0-45.49.06-6.62,4.33-10.73,11-11.16,1.33-.08,2.67-.07,4-.07H392c1.34,0,2.67,0,4,.08,7,.44,11.11,4.47,11.19,11.47.16,12.83.1,25.66,0,38.49,0,6.5-3.48,11.75-7,16.8C387.55-182,374.75-163.77,362-145.49Q326.06-94.13,290.1-42.8c-.94,1.34-1.84,2.7-3.27,4.78,11.53,0,22.41,0,33.26,1,27.94,2.51,54.67,9.16,79.68,22.26,9.47,5,13.84,12.25,13.63,22.9-.28,14.16,0,28.33-.08,42.49-.05,12-7.3,16.26-18.09,11.18-69.12-32.54-138.33-33-207.47,0C176.4,67.2,169.15,63,169.26,50.39c.14-17.49-.63-35,.48-52.47.61-9.58,4.22-17.93,9.7-25.77q58.09-83.08,116-166.31C296.33-195.49,297.21-196.85,298.64-199Z" transform="translate(974.14 276.81)"/><path class="cls-2" d="M259.41,129.08c-25.86-.25-51.52,2.5-77.16,5.6a38.16,38.16,0,0,1-7.47.32c-5.28-.4-7.45-4.43-5.13-9.26,1.5-3.11,4.11-5.15,6.89-7,21-14.36,44.39-22.59,69.18-27.12,31.6-5.78,63.23-6.28,94.78.47,4.06.87,8,2.28,12,3.42,10.1,2.86,14.18,9.86,14.61,20,.93,21.76-3.05,42.78-9.17,63.46-9.33,31.45-23.3,60.51-45.23,85.33A142.33,142.33,0,0,1,298,278.55a17.45,17.45,0,0,1-2.39,1.81c-3.49,2.08-7.26,4.3-11.1,1.44-4.1-3-2.31-7.14-.83-10.91,10.73-27.24,21.61-54.43,28.77-82.89,3.16-12.58,6.12-25.24,4.75-38.44-.83-8-4.94-13.09-12.4-15.9s-15.48-4-23.44-4.49C274.09,128.73,266.74,129.08,259.41,129.08Z" transform="translate(974.14 276.81)"/></svg>