<svg id="Layer_1" data-name="Layer 1" xmlns="http://www.w3.org/2000/svg" viewBox="0 0 172.89 29.53"><defs><style>.cls-1{fill:#0371b8;}.cls-2{fill:#02b035;}.cls-3{fill:#f8a61c;}.cls-4,.cls-6{fill:#7d7d7d;}.cls-5{fill:#f9fbf9;}.cls-6{font-size:12px;font-family:MyriadPro-Regular, Myriad Pro;}</style></defs><title>Assurant (Hori)</title><path class="cls-1" d="M-49.11,21.19a13.2,13.2,0,0,1,2.57-7.58c.09,0,.22,0,.16-.17l0,0,8-1h7.95a21.69,21.69,0,0,1,2.23,2.9A16.45,16.45,0,0,1-30,19.51a54.14,54.14,0,0,0-8.73,0c-1.57.24-3.21.07-4.73.7C-45.44,20.08-47.23,20.88-49.11,21.19Z" transform="translate(49.16 -7.28)"/><path class="cls-2" d="M-43.49,20.2c1.52-.63,3.16-.46,4.73-.7A41.23,41.23,0,0,0-34.4,27a21.21,21.21,0,0,0,2.58,3.59,31.42,31.42,0,0,0,3.94,4.67,12.67,12.67,0,0,1-7.73,1.46l-5.07-6.47c-1.33-2.29-2.67-4.57-4-6.86C-44.58,22.21-43.59,21.37-43.49,20.2Z" transform="translate(49.16 -7.28)"/><path class="cls-3" d="M-31.82,30.58A21.21,21.21,0,0,1-34.4,27,44.72,44.72,0,0,0-30,19.51a16.45,16.45,0,0,0,1.84-4.13,45.84,45.84,0,0,0,2-5.6,12.7,12.7,0,0,1,5.13,5.9c-.83,2.61-2.06,5.07-3,7.63-1.27,2.36-2.56,4.69-4,6.94A22.56,22.56,0,0,1-31.82,30.58Z" transform="translate(49.16 -7.28)"/><path class="cls-4" d="M64.4,21.27c0,1.71,0,3.42,0,5.13,0,.74-.13,1.09-1,1.06s-1.07-.13-1.06-1c0-3.34,0-6.69,0-10.17l6.7,6.88.5-.3c0-1.72.08-3.45,0-5.16-.07-1.16.51-1.22,1.37-1.15.4,0,.57.19.57.58V27.93L64.78,21Z" transform="translate(49.16 -7.28)"/><path class="cls-4" d="M30.67,20.31c0-1,0-2,0-3,0-.85.53-.71,1-.72s1-.1,1,.73c0,2.08.08,4.16,0,6.23a4.16,4.16,0,0,1-4.61,4.26,4.2,4.2,0,0,1-4.42-4.35c-.11-2,0-4.07-.06-6.11,0-.92.58-.72,1.12-.77s.92.14.91.85c0,1.92,0,3.83,0,5.75,0,1.63.72,2.57,1.93,2.78a2.41,2.41,0,0,0,3.1-2.42c.07-1.07,0-2.15,0-3.23Z" transform="translate(49.16 -7.28)"/><path class="cls-4" d="M45.56,27.27c-1.5.38-2.52.09-3.23-1.22a29.21,29.21,0,0,0-1.82-2.52c-.25-.36-.52-.63-1-.47s-.23.54-.24.82c0,.84,0,1.68,0,2.52s-.18,1-1,1-1-.31-1-1c0-3,0-5.91,0-8.87,0-.72.2-1,.94-.95a25.1,25.1,0,0,1,3.46.2,3.17,3.17,0,0,1,2.75,2.48,2.82,2.82,0,0,1-1.63,3.16c-.62.31-.43.59-.13,1ZM39.23,19.8c.37.53-.65,1.72.89,1.71s2.5-.64,2.48-1.67-.93-1.53-2.41-1.61S39.47,19.19,39.23,19.8Z" transform="translate(49.16 -7.28)"/><path class="cls-4" d="M57.75,27.38c-.87.23-1.09-.38-1.2-1a1.68,1.68,0,0,0-2.22-1.59,6.48,6.48,0,0,1-1.08,0c-2.17,0-2.21,0-3,2-.39,1-1.22.68-1.81.56s-.14-.73,0-1A34.87,34.87,0,0,1,52.85,17c.44-.65.67-.9,1.21-.07a40.5,40.5,0,0,1,4.53,9.48C58.9,27.37,58.53,27.48,57.75,27.38Zm-6-4.31h2.79c.39,0,.66-.1.46-.55a10.88,10.88,0,0,0-1.57-2.94A12.53,12.53,0,0,0,51.78,23.07Z" transform="translate(49.16 -7.28)"/><path class="cls-4" d="M-1.93,27.4c-.85.25-1.13-.37-1.23-1.09-.18-1.26-.83-1.8-2.11-1.56a6.86,6.86,0,0,1-1.2,0c-2.14,0-2.17,0-2.95,2-.4,1.05-1.24.64-1.82.54s-.14-.72,0-1A37.9,37.9,0,0,1-6.86,17c.53-.82.77-.73,1.27,0a37.19,37.19,0,0,1,4.47,9.37C-.81,27.39-.82,27.39-1.93,27.4Zm-4.31-7.94c-.26.47-.48.8-.64,1.16-.34.74-1.16,1.63-.76,2.24s1.53.14,2.34.21.74-.31.51-.86A14.35,14.35,0,0,0-6.24,19.46Z" transform="translate(49.16 -7.28)"/><path class="cls-4" d="M18.79,18.66a5.29,5.29,0,0,0-2.69-.73,1.28,1.28,0,0,0-1.22.8,1.13,1.13,0,0,0,.54,1.34c.74.53,1.55,1,2.3,1.5,1.61,1.11,2.16,2.42,1.68,4s-1.75,2.27-3.66,2.27c-.24,0-.48,0-.72,0-2-.21-2.28-.48-2.26-2.69a13.63,13.63,0,0,0,2.32.88c1,.13,1.92.15,2.34-.91s-.26-1.64-1.06-2.14-1.45-.86-2.11-1.36a2.85,2.85,0,0,1,1.58-5.27,6.69,6.69,0,0,1,1.55.06C19,16.65,19.13,16.86,18.79,18.66Z" transform="translate(49.16 -7.28)"/><path class="cls-4" d="M2.22,25.16A11.43,11.43,0,0,0,4.68,26c.89.08,1.75,0,2.12-.94s-.19-1.57-1-2.08a16,16,0,0,1-2.66-1.82,2.77,2.77,0,0,1-.75-3,2.65,2.65,0,0,1,2.28-1.87,6.37,6.37,0,0,1,1.9,0c1.67.23,1.81.45,1.59,2.24-.88-.2-1.66-.77-2.61-.69-.59.06-1.13.17-1.33.8a1.22,1.22,0,0,0,.59,1.44c.76.52,1.57,1,2.32,1.49a3.36,3.36,0,0,1,1.57,4,3.45,3.45,0,0,1-3.53,2.15,7.17,7.17,0,0,1-1.31-.11C2.09,27.35,2,27.15,2.22,25.16Z" transform="translate(49.16 -7.28)"/><path class="cls-2" d="M-24.13,23.31c1-2.56,2.2-5,3-7.63a14.31,14.31,0,0,1-.45,13.63l-.34-.06A37.33,37.33,0,0,0-24.13,23.31Z" transform="translate(49.16 -7.28)"/><path class="cls-4" d="M79.88,16.59c1.24,0,2.48,0,3.72,0,.68,0,.91.2.9.88s-.09,1-.84,1c-.91,0-2.12-.42-2.65.17s-.17,1.91-.2,2.9c0,1.64,0,3.28,0,4.92,0,.73-.1,1.08-1,1.06s-1-.2-1-1c0-2.36,0-4.72,0-7.08,0-.8-.25-1.07-1-1-.56.05-1.12,0-1.68,0s-1-.11-1-.9.26-1,1-.94C77.39,16.63,78.64,16.59,79.88,16.59Z" transform="translate(49.16 -7.28)"/><path class="cls-1" d="M-40.68,30.24l5.07,6.47c-4.34,0-10-3.57-11.42-7.22h0a11.65,11.65,0,0,1,1.76.17A23.14,23.14,0,0,0-40.68,30.24Z" transform="translate(49.16 -7.28)"/><path class="cls-3" d="M-38.37,12.47l-8,1A14,14,0,0,1-34.59,7.28l.18.33A30.8,30.8,0,0,0-38.37,12.47Z" transform="translate(49.16 -7.28)"/><path class="cls-1" d="M-21.89,29.25l.34.06a13.44,13.44,0,0,1-6.34,5.94,32,32,0,0,1-3.93-4.67,22.56,22.56,0,0,0,3.67-.33A28.78,28.78,0,0,0-21.89,29.25Z" transform="translate(49.16 -7.28)"/><path class="cls-2" d="M-34.41,7.61l-.18-.33a13.24,13.24,0,0,1,8.36,2.5,45.84,45.84,0,0,1-2,5.6,21.69,21.69,0,0,0-2.23-2.9A31.64,31.64,0,0,0-34.41,7.61Z" transform="translate(49.16 -7.28)"/><path class="cls-3" d="M-47,29.48h0a12.22,12.22,0,0,1-2.08-8.3c1.88-.31,3.67-1.11,5.62-1-.1,1.17-1.09,2-1.2,3.18A35.06,35.06,0,0,0-47,29.48Z" transform="translate(49.16 -7.28)"/><path class="cls-3" d="M-46.38,13.44c.06.17-.07.15-.16.17Z" transform="translate(49.16 -7.28)"/><path class="cls-5" d="M39.23,19.8c.24-.61-.47-1.65,1-1.57s2.39.62,2.41,1.61-1,1.66-2.48,1.67S39.6,20.33,39.23,19.8Z" transform="translate(49.16 -7.28)"/><text class="cls-6" transform="translate(136.87 15.13)">®</text></svg>