<svg id="Layer_1" data-name="Layer 1" xmlns="http://www.w3.org/2000/svg" viewBox="0 0 1192.67 398.75"><defs><style>.cls-1,.cls-2{fill:#a20234;}.cls-1{fill-rule:evenodd;}</style></defs><title>Carvel</title><path class="cls-1" d="M51.07,115.21c0-11.43,9.71-20.78,21.67-20.78v4.08c-9.76,0-17.57,7.46-17.57,16.7,0,9.52,7.81,16.93,17.57,16.93s17.47-7.41,17.47-16.93c0-9.24-7.79-16.7-17.47-16.7V94.43c11.94,0,21.59,9.35,21.59,20.78,0,11.65-9.65,21-21.59,21s-21.67-9.35-21.67-21Z" transform="translate(844.84 239.13)"/><path class="cls-1" d="M68.28,106.27h6.25c3.06,0,5.73.41,5.73,3.43,0,4.21-4.65,3.61-8,3.61H68.28v2.9h4.24L79.44,127h4.1L76.2,116.21c4.3-.11,7.63-1.83,7.63-6.45a5.72,5.72,0,0,0-2.68-5,11.86,11.86,0,0,0-5.88-1.12H64.71V127h3.57V106.27Z" transform="translate(844.84 239.13)"/><path class="cls-2" d="M-160.4,139.32a46.11,46.11,0,0,1-14.57-2c-25.82-8.84-35.76-25.47-39.55-37.85-2.22-7.28-4.23-14.52-1-32.46-4.93-3.13-12.75-8.16-16.44-12.39a41.94,41.94,0,0,1-7.69-12.93c-2.37,3.41-10.74,16.13-13.13,19.47-47.2,66.34-66.39,76.77-82.13,72.09a23.93,23.93,0,0,1-15-13.42c-3-6.55-3.49-15.93-2.38-26.82-18.79,23.16-41.83,36.89-57.11,41.53-10.65,3.24-21,2.36-30-2.53a29.18,29.18,0,0,1-15.05-19.59C-459.39,91-442.61,65.18-425,40.57c2-2.74,3.58-5,4.59-6.56,3.7-5.75,13.5-21.07,12.43-26.39-1.63-4-13.3-12-22.32-17.8-26.49,64.29-80.26,141.68-118,145.69-13.25,1.47-24.79-4.11-31.72-15.17-.45-.71-.88-1.45-1.29-2.18-19.92,16.11-47.23,28.69-69.28,16.64-10.69-5.83-18-16.74-21.15-31.52-6.09-28.6,4.89-65.83,25.21-94.2,44.06-61.55,94.54-81.95,130-58.1a13.82,13.82,0,0,1,1.88,1.47c22.68,20.92,9.29,48.92.44,67.44l-2.49,5.24c-6.36,13.7-20.76,37.14-34.1,57.3a15,15,0,0,1-1.6,3.46,21.2,21.2,0,0,0-2.27,15c.58,2.41,1.47,3.39,1.65,3.5a3.85,3.85,0,0,0,1.44,0c18.83-2,83.84-84.25,102.27-155.15a15.6,15.6,0,0,1,19-11.18,15.59,15.59,0,0,1,11.18,19c-.19.79-.42,1.58-.62,2.36,19.1,12.08,38.85,24.58,42.34,41.92,3.57,17.7-8.17,36-16.74,49.41-1.21,1.88-3.14,4.6-5.49,7.88-22,30.76-25,41.93-24.55,46,.94.43,2.59.87,5.75-.08C-407.93,101.45-371,81.9-311.69-30.62A15.61,15.61,0,0,1-291-37.34a15.62,15.62,0,0,1,7.27,20.53c-19.71,42.81-35.66,91.44-38,113.67,16.81-15.66,47.05-56.94,75.08-100.28,5.12-8.15,11-21.41,11-21.41,7.67-43.92,24.1-56.79,30.81-58.63,8.76-2.39,15,1.18,20.12,8.09,6,8.05,6.1,19.42.31,29.62-6.65,11.77-20,33.52-34,55.41-1.73,12.66,2.92,21.91,11.7,26.09A256.53,256.53,0,0,1-184.39-1.11l1.87-2.49c9.53-12.87,30.25-38.33,56.31-40.83,8.55-.82,21.35.69,34.18,12.46C-77.34-18.5-74.7,2.53-85,24.28c-15.2,32.2-57.14,58.82-95,53.46-2-.29-4-.6-5.88-1a36.4,36.4,0,0,0,1.18,13.51c1.57,5.11,5.15,13.07,19.81,17.45,17.29,5.16,61.42-15.37,98.34-52.08,4.39-66.94,44.8-162.2,78.19-195.38,29.07-28.86,38.69-22.68,47.88-16.43,19.31,13.15,29.68,43.83,20.11,66C67.41-60,18.54,12.73-35.69,69.11c0,.71,0,1.42.06,2.11.48,13.6,3.45,23.68,8.41,28.56C-20.63,103.42-10.09,96,4.24,77.7l.61-.78A15.6,15.6,0,1,1,29.4,96.19l-.58.75C2,131.25-23.1,140.69-45.66,125c-.44-.31-.87-.65-1.29-1-7.78-6.7-13.31-16.07-16.54-28-31.54,28.14-71.24,43.29-96.91,43.3ZM-547.79-27.25c-23.13,0-54.29,26.17-73.91,55.27C-637.84,52-644.76,80-641.19,96.79c1.15,5.37,3.22,9.34,5.58,10.62,10.44,5.72,38.49-12.56,50.38-29.71C-567.86,52.4-550.95,24.76-545,12l2.61-5.55c8.08-16.87,11.16-25.57,7.27-30.29a24.39,24.39,0,0,0-12.67-3.38Zm370.7,73.87,1.5.22c22.93,3.24,52.37-14.69,62.39-35.89,3-6.36,5.46-15,.07-19.92-4.75-4.34-8-4.58-10.11-4.39-12.22,1.18-28.43,20.55-34.2,28.34l-2,2.73a144.71,144.71,0,0,0-17.62,28.91ZM52-130.38c-.89.06-7.45,2-18.37,12.81C13.75-97.78-16.2-36.14-29.67,17.28,5.74-24,38.77-72.41,50.88-102.19c5.75-13.36,3.61-26.09,1.16-28.19ZM-778,142.35a58.86,58.86,0,0,1-26.26-6.14c-17.46-9.06-29.81-24.58-36-45-13-43.18,1.71-109.45,39.35-177.25,41.42-74.62,117.05-130.13,163.35-138.78,20.29-3.78,32.28,1.87,38.76,7.27,36,30,6.37,96.07-24.8,146.2a15.6,15.6,0,0,1-21.49,5,15.61,15.61,0,0,1-5-21.5c31.77-51.13,44.65-94.61,31.32-105.76-1.1-.89-5.07-2-13-.55-38.72,7.23-106.47,59.62-141.78,123.25C-806.69-11.18-820.76,47.48-810.3,82.22c3.76,12.5,10.36,21,20.19,26.15,18.08,9,43.85-4.56,70.51-37.25a15.6,15.6,0,0,1,22-2.24,15.62,15.62,0,0,1,2.25,22c-33.1,40.6-61.57,51.51-82.59,51.51Z" transform="translate(844.84 239.13)"/><path class="cls-2" d="M322.76-97.35c17-18.09,27.56-30.78,24.56-49.61-1.59-10-15-13.7-15-13.7s20.11-21.83-.44-38.53c0,0,9.42-25.25-3.84-35.52s-33.39-2.15-38.1,19.26c0,0,0,3.42,2.14.85,0,0,9.84-9,15.84-6.42s1.28,12,0,13.7c0,0-30.4-2.14-52.22,8.56-20.83,10.21-41.52,30-22.68,45.8,0,0-53.51,23.54-25.26,51.79,0,0-57.36,25.26-41.52,52.66s107.43-5.15,138.26-32.11c.35-.31.74-.59,1.1-.89,2.36,4.66,3.58,12.64-3.68,24.44-10.26,16.69-28.67,29.1-59.5,38.52-20.25,6.19.34,6.46,14.56,3,19.27-4.7,63.79-17.55,73.2-55.64C333-82.39,329.11-91.62,322.76-97.35Zm-69.17-75.3c11.12-7.28,42.36-14.56,58.2-10.27s10.7,18.83,10.7,18.83c-35.94-7.7-78.34,6.42-78.34,6.42C236.89-157.24,242.44-165.37,253.59-172.65Zm-27,52.23c7.27-7.28,24.82-16.69,44.09-19.69s50.51-5.58,55.22,9c4.31,13.27-11.7,24.41-14.55,26.27a76.32,76.32,0,0,0-14.13-5.3v0c-31.3-8-76.19,5.09-76.19,5.09C217.2-104.16,219.34-113.15,226.61-120.42Zm25.26,54.78c-25.25,10.7-49.66,9.85-50.52,6s-1.7-13.7,26.12-24,63.78-5.14,63.78-5.14S277.12-76.34,251.87-65.64Z" transform="translate(844.84 239.13)"/><path class="cls-2" d="M181.5,159.45c-.7,0-1.93.49-2.14-.22-4.05-13.94-14.23-34.71-14.23-34.71,4-2.49,17.28,11.42,19.76,15.38.52.82,1.79,3.12,2.17,4l4.57-5.55C234,61,256.05,23.83,270.9,5c-21.21,3.91-83.07,9.1-107.45-17-3.19-3.42,3.54-18.1,6.73-14.69C193.4-1.79,271-6.4,293.93-14.68a8.46,8.46,0,0,1,8,1.22c2.29,1.75,2.43,10.73,2.21,13.59-.3,4-7.72-11.89-102.44,142.71l-5.33,6.48C192.3,154.29,187.5,159.45,181.5,159.45Z" transform="translate(844.84 239.13)"/><path class="cls-2" d="M228.69,79.26c-.43,0-3.29,1.88-3.69,1.62-2.47-1.62-58.15-42.12-61.84-70.55a2.29,2.29,0,1,1,4.54-.6c3.43,26.37,63.41,62.54,64,62.93,1.06.69-.41,4.51-1.1,5.57A2.32,2.32,0,0,1,228.69,79.26Z" transform="translate(844.84 239.13)"/><path class="cls-2" d="M241.6,50.87c-.39,0-.94,4.85-1.29,4.68-1.41-.67-32.9-19.65-47.61-44.67a2.63,2.63,0,1,1,4.54-2.67c13.89,23.62,46.91,34.7,47.25,34.85,1.32.63.11,5-.51,6.31A2.65,2.65,0,0,1,241.6,50.87Z" transform="translate(844.84 239.13)"/><path class="cls-2" d="M211.83,107.05c-.21,0-3.81,3.36-4,3.3-.89-.27-19-10.17-33.16-30.79a2.29,2.29,0,0,1,3.78-2.6c13.27,19.29,35.79,23.93,34.07,25.59-.89.88,1.92,1.64,1.57,2.85A2.31,2.31,0,0,1,211.83,107.05Z" transform="translate(844.84 239.13)"/><path class="cls-2" d="M267.32,11.32S217,29.73,177.66,25c-20.62-2.46-12.24,5.44,7.05,7.63,17.5,2,53.91-.19,75.68-8.65" transform="translate(844.84 239.13)"/><path class="cls-2" d="M241.48,57.71S216.06,69.94,183.29,66c-17.18-2-10.2,4.54,5.88,6.36C203.73,74,223.83,80.05,242,73" transform="translate(844.84 239.13)"/><path class="cls-2" d="M211,116.09c-5.41-.83-10.5-1.78-15.06-2.3-16.08-1.82-23-8.41-5.87-6.36a112.55,112.55,0,0,0,23.32.32" transform="translate(844.84 239.13)"/></svg>