<svg id="Layer_1" data-name="Layer 1" xmlns="http://www.w3.org/2000/svg" viewBox="0 0 2748 643.17"><defs><style>.cls-1{fill:#ab2419;}.cls-2{fill:#441601;}.cls-3{fill:#fefefe;}</style></defs><title>Chipotle</title><path class="cls-1" d="M280.38-298.26q519.47,0,1038.94-.15c41.8,0,79.86,36,79.73,80-.31,103-.1,206-.1,309,0,39.6-33,75.23-72.48,78.47-5.32.44-10.63.56-16,.56H-756.36c-42.78,0-77.62-31.66-81.67-74.11-.36-3.83-.51-7.63-.51-11.46q0-150.24,0-300.48c0-40.7,28.57-74.67,68.52-81.28a70.6,70.6,0,0,1,11.47-.5Q-239.09-298.28,280.38-298.26Zm4.45,231c0,69,51.15,126.49,127.27,127.11,71,.58,128.23-51.34,129.68-125.06,1.41-72-52-126.82-123.68-129C343.69-196.51,285.47-141.42,284.83-67.23Zm-705.5-.28q0,57,0,114c0,7.06,1.94,9,8.89,9,7.83,0,15.66,0,23.49,0,9.66,0,10.79-1.16,10.79-11.05q0-32.74,0-65.49c0-9.45,2.2-11.63,11.84-11.63h104c9.45,0,11.84,2.38,11.84,11.8q0,34.24,0,68.48c0,5.82,2,7.83,7.81,7.87,8.66.07,17.33,0,26,0,7.24,0,9.23-1.92,9.23-9.19q0-113.49,0-227c0-7.17-2.31-9.41-9.67-9.46q-12-.08-24,0c-7.36.06-9.38,2.16-9.38,9.6q0,48.75,0,97.49c0,8.29-2.47,10.69-10.75,10.69h-106c-8.73,0-10.92-2.22-10.91-10.94q0-48.74,0-97.48c0-7-2.24-9.29-9.22-9.35-8-.07-16,0-24,0s-10,2.12-10,10.17Zm1511.55,0q0,56.47,0,113c0,7.39,2.18,9.94,8.57,9.95q83.73,0,167.46,0c5.84,0,8-2.23,8-8.23,0-6.49,0-13,0-19.49,0-9.1-1.87-10.94-11.2-10.94h-120c-7.07,0-9.64-2.49-9.69-9.57-.09-10.33-.07-20.66,0-31,0-6.85,2.58-9.36,9.27-9.36h62c9,0,18,0,27,0,7.18,0,9.62-2.49,9.64-9.53q0-10,0-20c0-7.38-2.07-9.43-9.5-9.43q-43.74,0-87.48,0c-8.64,0-10.91-2.25-10.92-10.92q0-28.5,0-57c0-9,2.29-11.32,11.12-11.32h119c6.83,0,9-2.19,9-8.86,0-6.5,0-13,0-19.49,0-8.15-2.21-10.4-10.27-10.4H1101.5c-8.41,0-10.61,2.22-10.61,10.67Q1090.88-123.51,1090.88-67.52Zm-1056.5.25q0,57,0,113.94c0,6.47,2.24,8.75,8.6,8.78q12.73.06,25.49,0c7.28,0,9.19-1.91,9.2-9.15q0-29,0-58C77.69-21.86,79-23,89.18-23.15c20.94-.32,42,1.42,62.78-2.45,19.75-3.68,37.52-11.39,51.66-26.13,16.37-17.07,22-38,20.86-61-1.18-23.59-10-43.63-29.09-58.28-18.64-14.3-40.45-18.87-63.32-19.1-29.31-.29-58.63-.09-87.95-.06-7.5,0-9.73,2.34-9.73,9.95Q34.38-123.73,34.38-67.27ZM-599-194.15c-39.49,0-70.72,11.61-93.86,35.21C-724.94-126.24-736.06-86.7-727.71-42c6.91,37,26.86,65.48,59.54,84.51,22.81,13.28,47.71,17.68,73.9,16.36,30.71-1.55,57.65-12.23,80.81-32.41,4-3.45,4.36-7.38,1-11.41q-8.46-10.19-17.3-20c-3.85-4.31-7.42-4.31-12.09-.48a125.9,125.9,0,0,1-25,16.37c-30.4,14.62-66.23,10.6-89.89-11.9-27.8-26.43-34.27-59.3-23.81-95.35,12.43-42.87,54.17-66.16,97.39-55.48,15.2,3.76,28.21,11.5,40.19,21.31,6.48,5.31,9.25,5,14.62-1.18q7.35-8.49,14.68-17c4.94-5.73,4.52-9.27-1.4-14.28C-540.27-184.31-569.5-194.34-599-194.15ZM705.28-46.66q0-46.74,0-93.47c0-7.39,2.47-9.82,9.89-9.83q29.49,0,59,0c6.79,0,9-2.19,9.05-8.85,0-6.84,0-13.67,0-20.5,0-8.74-2.1-10.85-10.83-10.85H595c-1,0-2-.05-3,0-5.64.35-8.1,2.83-8.17,8.52-.09,7.5-.06,15,0,22.49,0,7,2.24,9.18,9.3,9.18,18.83,0,37.66.25,56.48-.09,9.38-.17,12.29,2.11,12.25,12.07-.22,61.31-.12,122.62-.11,183.93,0,7.51,1.94,9.45,9.4,9.46h25c7.31,0,9.19-1.87,9.19-9.1Q705.3-.18,705.28-46.66ZM857.66-67.59v36.48q0,38.71,0,77.45c0,7.06,2,9.06,8.82,9.06h154.91c6.38,0,8.6-2.25,8.64-8.74s0-13,0-19.49c0-9.2-1.89-11.12-11.07-11.12H910.55c-7.54,0-9.38-1.84-9.38-9.44q0-44.71,0-89.45,0-48,0-95.94c0-9.3-2.12-11.37-11.52-11.38q-10.74,0-21.49,0c-8.52,0-10.48,2-10.48,10.64Q857.66-123.56,857.66-67.59Zm-962.14.33q0,56.72,0,113.42c0,7.8,1.53,9.29,9.42,9.3h24c7.71,0,9.77-2,9.78-9.75q0-112.92,0-225.83c0-7.78-2.29-10-10.19-10q-11.49,0-23,0c-8.08,0-10,2-10,10Z" transform="translate(1348.95 298.41)"/><path class="cls-2" d="M-1115-298.25q77.49,0,155,0c40.1,0,75.6,33.65,78.2,73.7.43,6.65.51,13.28.51,19.93q0,146,0,292c0,42.86-31.35,77.42-74.07,81.6-3,.3-6,.5-9,.51q-151.74,0-303.5,0a80.69,80.69,0,0,1-81.19-81.17v-307c0-37.29,27.08-70.53,63.6-78.1a74.81,74.81,0,0,1,15.37-1.51Q-1192.49-298.23-1115-298.25Zm-39.25,125.08c-11.2,3.12-22.15,3.69-33,4.91-2.85.32-5.66.55-7.84,2.67q-14.34,13.92-28.63,27.88a7.85,7.85,0,0,0-2.74,6.16c.55,17.37-2.45,34.47-4,51.68-1.18,13.36-4,26.68-.48,40.16,2.8,10.64,3.37,21.64,9.68,31.53,17.45,27.37,35.29,54.43,54.23,80.8,9.53,13.26,23.26,19.91,38.17,22.11,24.14,3.56,48.58,5.74,73.1,5a125.32,125.32,0,0,0,23.15-3.11c11.92-2.61,29.47-29.46,29.62-39.67,0-3.12-.67-5.07-4.16-5.53a30.69,30.69,0,0,1-6.67-2c-17.55-6.63-32.83-17.27-48.67-27-9.81-6-13.38-14.17-12.91-25,.22-5-.68-9.63-4.47-13.26-2.44-2.33-2.37-4.1.94-5.52a16.4,16.4,0,0,0,8.87-9c1.77-4.12,3.67-8.18,5.57-12.24,3-6.32,5.62-12.83,10.49-18a34.87,34.87,0,0,0,6.07-9.1c4.55-9.6,6.53-19.86,7.38-30.33.36-4.3-.1-8.7-3-12.35-10.32-13.22-14.61-29.91-25.72-43.28,6-.73,11.56-.52,15.08-5.46,1-1.45,2.53-3,1.51-5s-3-1.08-4.56-1c-5.31.15-10.65,1-15.83-.93-6-2.19-10.24-8.81-9-13.74,1.48-5.79,2.74-11.65,4.51-17.36,1-3.08.7-6.64,3.58-9.1,5.82-5,11.41-10.18,17.75-14.54a27.48,27.48,0,0,1,15.82-5.22c6.67,0,13.34,0,20-.21a4.68,4.68,0,0,1,5,3c2.55,5.4,5.24,10.73,7.89,16.08,3.75,7.58,3.67,7.68-2.65,13.31-3.23,2.88-7.05,5.21-9.64,9,.67.37.95.65,1.22.65,7.6-.14,15.17-2.15,22.82-.32,1.74.42,1.5-1.32,1.79-2.36,1.91-6.71,3.84-13.41,5.71-20.13a9.42,9.42,0,0,0-1.8-8.44q-6.93-9.47-13.62-19.1c-5.38-7.73-13.9-9.19-21.93-9-10.07.19-20.09,2.67-30.14,4a26,26,0,0,0-13.88,5.84c-19.94,16.64-40.17,32.91-60.24,49.38a9.16,9.16,0,0,1-5.87,2.18c-5.92.24-11.5-.48-16.82-3.43-3.75-2.07-7.86-3.51-11.81-5.23-1-.46-2.15-1.39-3.27-.58a152.31,152.31,0,0,1-15,9.69C-1162.92-181.57-1162.92-181.57-1154.23-173.17Z" transform="translate(1348.95 298.41)"/><path class="cls-2" d="M144.08,288.16c-7.35,11-14.66,21.69-21.61,32.58-2.1,3.29-2.79,2.61-4.53-.13-6.09-9.53-12.42-18.91-18.62-28.37-.71-1.09-1.11-2.86-2.62-2.53-1.78.39-.88,2.24-.89,3.41-.06,15-.17,30,0,45,.06,4-.7,5.87-5.1,5.35s-10.19,1.78-13-.9-.89-8.51-.91-12.94c-.11-23,0-46-.14-69,0-4,.94-5,5.12-5.51,11.33-1.41,19.15,1.67,23.94,12.83,3.12,7.24,8.37,13.54,12.35,20.45,1.89,3.29,2.92,3.28,4.84.11,6-9.95,12.3-19.74,18.29-29.71,1.56-2.59,3.3-3.74,6.4-3.54a119.75,119.75,0,0,0,13,0c2.48-.1,3.56.44,3.55,3.22q-.12,41,0,82c0,2.61-1.1,3-3.3,2.94-4-.12-8-.24-12,0-3.14.21-3.91-.87-3.88-3.93.15-15.5.09-31,.05-46.5C145,291.62,145.52,290.08,144.08,288.16Z" transform="translate(1348.95 298.41)"/><path class="cls-2" d="M740.92,306.86c1.48-1.4.85-3.16.85-4.75.05-14,.19-28-.07-42-.08-4.11,1.27-5.23,5.09-4.87a52.66,52.66,0,0,0,9.48,0c3.59-.32,4.92.64,4.89,4.59q-.27,39.7,0,79.43c0,3.41-1.22,3.81-4.25,4.24-9.11,1.31-14.89-2.22-20.09-9.78-9.59-13.94-20.29-27.13-30.55-40.61-1-1.26-2.07-2.4-3.15-3.64-1.67,1.69-1,3.44-1,5,0,14.82-.13,29.64,0,44.46,0,3.33-.63,4.83-4.3,4.5a59.16,59.16,0,0,0-10.48,0c-3.46.29-4.47-.81-4.45-4.36.17-23.65.09-47.3.09-70.94,0-3.17.13-6.34,0-9.49-.15-2.6.73-3.77,3.39-3.36a4.44,4.44,0,0,0,1.5,0c9.6-1.77,15.75,2,21.2,10.27,8.6,13,18.66,25,28.17,37.43C738.3,304.4,739,306.29,740.92,306.86Z" transform="translate(1348.95 298.41)"/><path class="cls-2" d="M962,299.54c0-13.15.13-26.3-.08-39.45,0-3.6.68-5,4.62-4.83,15.1.72,30.28-1.17,45.34,1.24,12.11,1.94,20.72,9.88,22.74,20.77,2.72,14.65-1.85,26.4-13.39,32.53-4.06,2.15-3.76,3.46-1.36,6.72,5.63,7.61,10.81,15.54,16.1,23.38.59.87,2,1.69,1.14,3-.61,1-1.84.42-2.8.52a2.78,2.78,0,0,1-.5,0c-6.13-.12-13.24,1.62-18.13-.91-4.68-2.42-7.07-9.29-10.44-14.21a29.34,29.34,0,0,1-3-4.59c-3.2-7.29-8.71-9.48-16.39-8.55-3.33.4-4.19,1.39-4.1,4.5.19,6.49-.1,13,.13,19.48.11,3.18-.69,4.55-4.09,4.34a101.88,101.88,0,0,0-12,0c-3.11.19-3.93-.89-3.89-4C962.09,326.18,962,312.86,962,299.54Zm19.82-13.93c0,3.32.06,6.64,0,10,0,1.88.68,2.78,2.58,2.72,7.27-.23,14.61.77,21.78-1.08,6.28-1.62,9.92-6.24,9.69-12.13-.22-5.61-4.09-10-10.1-11.34-3.77-.85-7.61-.4-11.41-.42C981.81,273.26,981.81,273.3,981.81,285.61Z" transform="translate(1348.95 298.41)"/><path class="cls-2" d="M928.92,312.39c0,4.33-.35,8.69.09,13,.45,4.46-1.38,7.14-5,9.35-18.27,11.34-37.23,13.7-56.8,3.89-23.52-11.8-27.9-45.36-13.87-65.53,16.35-23.48,51.61-23.84,70.28-9,1.93,1.54,2.17,2.61.39,4.28a27.79,27.79,0,0,0-2.14,2.76c-2.44,2.94-4.36,7-7.5,8.5-3.69,1.76-6.23-3.09-9.52-4.65-11.93-5.64-26.26-2.93-33.36,6.79-8.66,11.85-7.53,26.86,1.28,36.76,8.38,9.42,24,11.4,34.8,4.6,4.61-2.91,2-7.63,2.13-11.45.09-3.26-3.31-1.57-5.18-2a16.59,16.59,0,0,0-2,0c-3.76-.32-9.21,1.78-10.92-.87-2.46-3.81-.6-9.36-.79-14.15-.07-1.84,1.16-2.11,2.65-2.1,10.82,0,21.65.08,32.47,0,2.62,0,3,1.22,3,3.36C928.86,301.4,928.92,306.89,928.92,312.39Z" transform="translate(1348.95 298.41)"/><path class="cls-2" d="M200,299.16c0-13,.11-26-.07-39-.05-3.5.55-5,4.57-4.93,19.15.22,38.32.19,57.48,0,3.39,0,4.36,1,4.12,4.2-.33,4.29,1.29,9.88-.86,12.55-2.29,2.83-8.1.83-12.37.89q-14.74.21-29.49,0c-2.94,0-4.06.76-4.17,3.89-.46,13.5-.56,13.5,13,13.5,8.17,0,16.34.12,24.5-.06,3-.07,4,.81,4,3.92.2,13.73.3,13.73-13.17,13.73-8.16,0-16.33.09-24.49-.05-2.79-.05-4,.78-3.79,3.68a74,74,0,0,1,0,10C219,325,220.31,326,223.79,326c12.83-.18,25.66.06,38.49-.16,3.72-.07,4.82.95,4.78,4.73-.12,12.84,0,12.84-13,12.84-16,0-32-.26-48,.15-5.33.14-6.28-1.53-6.14-6.41C200.25,324.49,200,311.82,200,299.16Z" transform="translate(1348.95 298.41)"/><path class="cls-2" d="M644.08,343.41c-9.5,0-9.5,0-13.08-8.56-4.84-11.59-4.84-11.59-17.56-11.59-6.49,0-13,.23-19.47-.09-3.32-.17-4.77,1.27-5.81,4-1.59,4.2-3.54,8.26-4.9,12.52-1,3.15-2.8,4-5.88,3.77-4.15-.26-8.32-.14-12.48,0-2.75.07-3-.75-1.92-3.19,8.35-19.37,16.56-38.8,24.81-58.21,3.38-7.95,6.83-15.87,10.12-23.86.94-2.3,2.17-3.56,4.8-3.17a27.93,27.93,0,0,0,4,0c11,0,10.91.06,15.12,10.09q15.42,36.76,31.08,73.43c2.07,4.88,2.15,4.85-3.32,4.86Zm-36.15-37.09c2.49,0,5-.13,7.46,0,3.61.23,3.79-1.11,2.48-4.07-2.81-6.36-5.33-12.84-7.9-19.3-.37-.93-.49-2.25-1.51-2.34-1.37-.13-1.73,1.29-2.17,2.36-1.81,4.44-3.67,8.86-5.41,13.33C597,306.31,597,306.32,607.93,306.32Z" transform="translate(1348.95 298.41)"/><path class="cls-2" d="M291.87,343.41l25.67-37.6a9.22,9.22,0,0,1,.62-.78c4-4.19,4-7.83.25-12.79-7.72-10.16-14.56-21-21.74-31.58-1-1.46-1.87-3-3.32-5.33,7.52,0,14.1,0,20.67,0,2.27,0,3.05,1.51,4.07,3.1,5.28,8.23,10.65,16.4,16.32,25.11,5.66-8.64,11.11-16.71,16.26-25a6,6,0,0,1,6.06-3.26c4.66.19,9.33,0,14,.08,1.1,0,2.51-.6,3.23.57s-.6,2-1.22,2.95c-7.94,11.68-15.67,23.52-24,34.95-2.74,3.78-2,6.14.3,9.5,9.05,12.91,17.83,26,27.42,40.05-7.93,0-15,.08-22-.07-1.58,0-2.31-1.72-3.13-3-4.94-7.67-9.92-15.32-14.85-23-1.61-2.51-2.7-4-5-.21-4.72,7.82-10,15.27-15,22.95-1.48,2.3-3.08,3.54-6,3.42C304.7,343.23,298.9,343.41,291.87,343.41Z" transform="translate(1348.95 298.41)"/><path class="cls-2" d="M504.75,344.21a43.07,43.07,0,0,1-43.49-27.89,47,47,0,0,1,12.52-51.53c10.64-9.38,23.53-11.9,37.33-10.38,9.29,1,17.72,4.17,24.8,10.54,2.13,1.91,2.75,3.35.47,5.63a71.94,71.94,0,0,0-7.51,8.67c-1.86,2.59-3.17,2.35-5.44.48-8-6.6-17.07-10-27.33-6.32-10.88,3.85-16.32,12.31-17.25,23.49-.92,10.91,2.88,20.14,12.35,26.09,9.62,6,19.42,4.85,28.7-1.12,7.64-4.92,7.56-5.05,13.88,1.27s6.3,6.31-.78,11.95C524.57,341.79,515,345.05,504.75,344.21Z" transform="translate(1348.95 298.41)"/><path class="cls-2" d="M1124.57,299.37c0-13,.12-26-.08-39,0-3.72.6-5.66,4.87-5.1,4.73.62,11.11-2.06,13.83,1.17,2.33,2.77.75,8.91.76,13.56,0,16.83.17,33.66-.09,50.48-.07,4.31,1.33,5.26,5.36,5.17,11.32-.25,22.66,0,34-.16,3.28-.06,4.55.87,4.16,4.2-.5,4.41,1.88,10.14-1,12.94-2.65,2.56-8.27.71-12.58.73-14.83.08-29.66-.08-44.49.12-3.62.05-4.89-.73-4.81-4.64C1124.73,325.7,1124.57,312.53,1124.57,299.37Z" transform="translate(1348.95 298.41)"/><path class="cls-2" d="M1216.81,299.25c0-13.31.08-26.62,0-39.93,0-2.95.68-4.27,3.87-4a63.11,63.11,0,0,0,10.47,0c3.93-.38,5.12.87,5.08,4.91-.21,20,0,39.94-.2,59.9,0,4.4,1.12,5.72,5.55,5.6,11.3-.3,22.62,0,33.94-.17,3.34-.05,4.88.69,4.55,4.36-.39,4.28,1.28,9.88-.87,12.56-2.3,2.88-8.13.91-12.4.94-15,.11-30-.12-44.92.15-4.29.08-5.19-1.32-5.11-5.32C1217,325.21,1216.82,312.23,1216.81,299.25Z" transform="translate(1348.95 298.41)"/><path class="cls-2" d="M1068.38,299.5c0-13.32.09-26.64-.07-39.95,0-3.22.8-4.52,4.18-4.28a82.84,82.84,0,0,0,11.47,0c3.23-.21,3.89,1.16,3.88,4.08q-.13,40.2,0,80.4c0,2.85-.84,3.84-3.68,3.71a108.81,108.81,0,0,0-12,0c-3.15.19-3.91-1-3.88-4C1068.46,326.14,1068.38,312.82,1068.38,299.5Z" transform="translate(1348.95 298.41)"/><path class="cls-2" d="M425.85,299.39c0,13.14-.16,26.28.1,39.42.08,3.88-1.17,5-4.79,4.63-4.92-.5-11.52,2.1-14.33-1.09-2.44-2.74-.78-9.18-.78-14,0-22.79.07-45.58-.11-68.36,0-3.74.93-5.15,4.71-4.71,4.9.59,11.26-2.1,14.37,1.16,2.85,3,.73,9.21.79,14C425.93,280.09,425.85,289.74,425.85,299.39Z" transform="translate(1348.95 298.41)"/><path class="cls-3" d="M284.83-67.23c.64-74.19,58.86-129.28,133.27-127,71.72,2.22,125.09,57,123.68,129C540.33,8.54,483.13,60.46,412.1,59.88,336,59.26,284.86,1.81,284.83-67.23Zm122.3-87.18c-11,.18-26.95,4.1-40.6,14.24-30.54,22.69-40.41,53.75-34.41,90.3,6.3,38.39,35.7,65.85,74.36,69.42,26.61,2.46,49.75-6,67.57-26.18,20.49-23.23,25.87-50.61,20.06-80.62C486.54-126.35,452.7-154.41,407.13-154.41Z" transform="translate(1348.95 298.41)"/><path class="cls-3" d="M-420.67-67.51V-180c0-8,2-10.14,10-10.17s16-.06,24,0c7,.06,9.21,2.33,9.22,9.35q0,48.74,0,97.48c0,8.72,2.18,10.94,10.91,10.94h106c8.28,0,10.74-2.4,10.75-10.69q0-48.75,0-97.49c0-7.44,2-9.54,9.38-9.6q12-.09,24,0c7.36,0,9.67,2.29,9.67,9.46q0,113.49,0,227c0,7.27-2,9.18-9.23,9.19-8.66,0-17.33,0-26,0-5.8,0-7.8-2-7.81-7.87q-.06-34.23,0-68.48c0-9.42-2.39-11.8-11.84-11.8h-104c-9.64,0-11.84,2.18-11.84,11.63q0,32.74,0,65.49c0,9.89-1.13,11.05-10.79,11.05-7.83,0-15.66,0-23.49,0-7,0-8.88-1.92-8.89-9Q-420.69-10.51-420.67-67.51Z" transform="translate(1348.95 298.41)"/><path class="cls-3" d="M1090.88-67.52q0-56,0-112c0-8.45,2.2-10.67,10.61-10.67H1263c8.06,0,10.26,2.25,10.27,10.4,0,6.5,0,13,0,19.49,0,6.67-2.22,8.86-9,8.86h-119c-8.83,0-11.12,2.32-11.12,11.32q0,28.5,0,57c0,8.67,2.28,10.92,10.92,10.92q43.74,0,87.48,0c7.43,0,9.48,2,9.5,9.43q0,10,0,20c0,7-2.46,9.49-9.64,9.53-9,.05-18,0-27,0h-62c-6.69,0-9.23,2.51-9.27,9.36-.06,10.33-.08,20.66,0,31,.05,7.08,2.62,9.57,9.69,9.57h120c9.33,0,11.2,1.84,11.2,10.94,0,6.5,0,13,0,19.49,0,6-2.19,8.23-8,8.23q-83.73,0-167.46,0c-6.39,0-8.57-2.56-8.57-9.95Q1090.86-11,1090.88-67.52Z" transform="translate(1348.95 298.41)"/><path class="cls-3" d="M34.38-67.27q0-56.48,0-112.94c0-7.61,2.23-9.94,9.73-9.95,29.32,0,58.64-.23,87.95.06,22.87.23,44.68,4.8,63.32,19.1,19.09,14.65,27.91,34.69,29.09,58.28,1.15,23-4.49,43.92-20.86,61C189.48-37,171.71-29.28,152-25.6c-20.8,3.87-41.84,2.13-62.78,2.45C79-23,77.69-21.86,77.69-11.67q0,29,0,58c0,7.24-1.92,9.13-9.2,9.15q-12.75,0-25.49,0c-6.36,0-8.6-2.31-8.6-8.78Q34.38-10.3,34.38-67.27ZM77.69-106.6c0,11.66,0,23.32,0,35,0,6.75,2.58,9.38,9.32,9.4,13,0,26,0,39,0a85.29,85.29,0,0,0,20.74-2.55c28.26-7,42.26-35.95,29.63-61.72-8-16.35-22.82-22.07-39.66-23.56-16.6-1.47-33.29-.42-49.93-.57-6.69-.07-9,2.43-9.07,9C77.67-129.93,77.69-118.27,77.69-106.6Z" transform="translate(1348.95 298.41)"/><path class="cls-3" d="M-599-194.15c29.53-.19,58.76,9.84,84,31.17,5.92,5,6.34,8.55,1.4,14.28s-9.78,11.34-14.68,17c-5.37,6.18-8.14,6.49-14.62,1.18-12-9.81-25-17.55-40.19-21.31-43.22-10.68-85,12.61-97.39,55.48C-691-60.3-684.52-27.43-656.72-1c23.66,22.5,59.49,26.52,89.89,11.9a125.9,125.9,0,0,0,25-16.37c4.67-3.83,8.24-3.83,12.09.48q8.82,9.87,17.3,20c3.35,4,2.94,8-1,11.41-23.16,20.18-50.1,30.86-80.81,32.41-26.19,1.32-51.09-3.08-73.9-16.36C-700.85,23.48-720.8-5-727.71-42c-8.35-44.7,2.77-84.24,34.82-116.94C-669.75-182.54-638.52-194.15-599-194.15Z" transform="translate(1348.95 298.41)"/><path class="cls-3" d="M705.28-46.66q0,46.47,0,93c0,7.23-1.88,9.09-9.19,9.1h-25c-7.46,0-9.4-1.95-9.4-9.46,0-61.31-.11-122.62.11-183.93,0-10-2.87-12.24-12.25-12.07-18.82.34-37.65.11-56.48.09-7.06,0-9.26-2.18-9.3-9.18,0-7.49-.07-15,0-22.49.07-5.69,2.53-8.17,8.17-8.52,1-.06,2,0,3,0H772.39c8.73,0,10.83,2.11,10.83,10.85,0,6.83,0,13.66,0,20.5,0,6.66-2.26,8.85-9.05,8.85q-29.49,0-59,0c-7.42,0-9.89,2.44-9.89,9.83Q705.26-93.4,705.28-46.66Z" transform="translate(1348.95 298.41)"/><path class="cls-3" d="M857.66-67.59q0-56,0-111.94c0-8.64,2-10.62,10.48-10.64q10.76,0,21.49,0c9.4,0,11.52,2.08,11.52,11.38q0,48,0,95.94,0,44.73,0,89.45c0,7.6,1.84,9.44,9.38,9.44H1019c9.18,0,11.07,1.92,11.07,11.12,0,6.5,0,13,0,19.49s-2.26,8.74-8.64,8.74H866.5c-6.81,0-8.81-2-8.82-9.06q-.06-38.73,0-77.45Z" transform="translate(1348.95 298.41)"/><path class="cls-3" d="M-104.48-67.26V-180.18c0-8,1.93-9.95,10-10q11.49,0,23,0c7.9,0,10.18,2.26,10.19,10q0,112.91,0,225.83c0,7.74-2.07,9.74-9.78,9.75h-24c-7.89,0-9.42-1.5-9.42-9.3Q-104.49-10.55-104.48-67.26Z" transform="translate(1348.95 298.41)"/><path class="cls-3" d="M-1154.23-173.17c-8.69-8.4-8.69-8.4-28.24-10.49a152.31,152.31,0,0,0,15-9.69c1.12-.81,2.22.12,3.27.58,4,1.72,8.06,3.16,11.81,5.23,5.32,2.95,10.9,3.67,16.82,3.43a9.16,9.16,0,0,0,5.87-2.18c20.07-16.47,40.3-32.74,60.24-49.38a26,26,0,0,1,13.88-5.84c10-1.36,20.07-3.84,30.14-4,8-.14,16.55,1.32,21.93,9q6.69,9.63,13.62,19.1a9.42,9.42,0,0,1,1.8,8.44c-1.87,6.72-3.8,13.42-5.71,20.13-.29,1,0,2.78-1.79,2.36-7.65-1.83-15.22.18-22.82.32-.27,0-.55-.28-1.22-.65,2.59-3.74,6.41-6.07,9.64-9,6.32-5.63,6.4-5.73,2.65-13.31-2.65-5.35-5.34-10.68-7.89-16.08a4.68,4.68,0,0,0-5-3c-6.65.23-13.32.19-20,.21a27.48,27.48,0,0,0-15.82,5.22c-6.34,4.36-11.93,9.57-17.75,14.54-2.88,2.46-2.62,6-3.58,9.1-1.77,5.71-3,11.57-4.51,17.36-1.27,4.93,3,11.55,9,13.74,5.18,1.9,10.52,1.08,15.83.93,1.57-.05,3.59-.78,4.56,1s-.49,3.51-1.51,5c-3.52,4.94-9.13,4.73-15.08,5.46,11.11,13.37,15.4,30.06,25.72,43.28,2.86,3.65,3.32,8,3,12.35-.85,10.47-2.83,20.73-7.38,30.33a34.87,34.87,0,0,1-6.07,9.1c-4.87,5.18-7.54,11.69-10.49,18-1.9,4.06-3.8,8.12-5.57,12.24a16.4,16.4,0,0,1-8.87,9c-3.31,1.42-3.38,3.19-.94,5.52,3.79,3.63,4.69,8.26,4.47,13.26-.47,10.78,3.1,18.91,12.91,25,15.84,9.75,31.12,20.39,48.67,27a30.69,30.69,0,0,0,6.67,2c3.49.46,4.21,2.41,4.16,5.53-.15,10.21-17.7,37.06-29.62,39.67a125.32,125.32,0,0,1-23.15,3.11c-24.52.73-49-1.45-73.1-5-14.91-2.2-28.64-8.85-38.17-22.11-18.94-26.37-36.78-53.43-54.23-80.8-6.31-9.89-6.88-20.89-9.68-31.53-3.55-13.48-.7-26.8.48-40.16,1.51-17.21,4.51-34.31,4-51.68a7.85,7.85,0,0,1,2.74-6.16q14.31-13.95,28.63-27.88c2.18-2.12,5-2.35,7.84-2.67C-1176.38-169.48-1165.43-170-1154.23-173.17Zm-61.13,132.89c-.36,6.85,2.53,16.91,9.64,27.06,15.14,21.62,28.48,44.51,42.41,67,5.13,8.27,10.81,15.64,21.15,17.51,6.22,1.12,12.4,2.41,18.63,3.43,15.12,2.49,30.44,2.81,45.68,4,13.29,1.07,24.34-4.31,34-12.75,4.78-4.16,4.18-6.82-1-10.58-8.64-6.22-17.16-12.61-25.72-18.94-3-2.19-6-4.88-9.75-4.51-4.91.48-4.56-1.94-3.51-5s3.07-6.35,2.21-9.58c-2.18-8.17-4.14-16.57-7.72-24.15-4.36-9.22-3.79-18.08,1.8-25.41,8.22-10.8,14.42-22.73,21.79-34,3.6-5.5,6.58-11.25,8-17.57,1.24-5.34,4.23-10.81,1-16.43-8.07-13.94-15.76-28.07-26.07-40.64-8.86-10.8-9-11.69-19.34-2.09-6.89,6.42-14,5.58-21.73,4.14-5-.94-7.87-4.31-7.91-9.45,0-3.25-1.56-4-4.34-3.87-15.94.91-31.87,1.92-47.74,3.69A12.33,12.33,0,0,0-1192-144c-5.55,6.22-10.41,13-15.58,19.5a14,14,0,0,0-3.18,7.7C-1212.74-93-1214.64-69.12-1215.36-40.28Z" transform="translate(1348.95 298.41)"/><path class="cls-1" d="M407.13-154.41c45.57,0,79.41,28.06,87,67.16,5.81,30,.43,57.39-20.06,80.62-17.82,20.22-41,28.64-67.57,26.18-38.66-3.57-68.06-31-74.36-69.42-6-36.55,3.87-67.61,34.41-90.3C380.18-150.31,396.09-154.23,407.13-154.41Z" transform="translate(1348.95 298.41)"/><path class="cls-1" d="M77.69-106.6c0-11.67,0-23.33,0-35,0-6.59,2.38-9.09,9.07-9,16.64.15,33.33-.9,49.93.57,16.84,1.49,31.64,7.21,39.66,23.56C189-100.71,175-71.79,146.73-64.76A85.29,85.29,0,0,1,126-62.21c-13,0-26,0-39,0-6.74,0-9.31-2.65-9.32-9.4C77.67-83.28,77.69-94.94,77.69-106.6Z" transform="translate(1348.95 298.41)"/><path class="cls-2" d="M-1215.36-40.28c.72-28.84,2.62-52.7,4.61-76.56a14,14,0,0,1,3.18-7.7c5.17-6.52,10-13.28,15.58-19.5a12.33,12.33,0,0,1,8.13-4.38c15.87-1.77,31.8-2.78,47.74-3.69,2.78-.16,4.31.62,4.34,3.87,0,5.14,2.87,8.51,7.91,9.45,7.7,1.44,14.84,2.28,21.73-4.14,10.31-9.6,10.48-8.71,19.34,2.09,10.31,12.57,18,26.7,26.07,40.64,3.25,5.62.26,11.09-1,16.43-1.46,6.32-4.44,12.07-8,17.57-7.37,11.25-13.57,23.18-21.79,34-5.59,7.33-6.16,16.19-1.8,25.41,3.58,7.58,5.54,16,7.72,24.15.86,3.23-1.13,6.44-2.21,9.58s-1.4,5.51,3.51,5c3.8-.37,6.79,2.32,9.75,4.51,8.56,6.33,17.08,12.72,25.72,18.94,5.22,3.76,5.82,6.42,1,10.58-9.7,8.44-20.75,13.82-34,12.75-15.24-1.23-30.56-1.55-45.68-4-6.23-1-12.41-2.31-18.63-3.43-10.34-1.87-16-9.24-21.15-17.51-13.93-22.46-27.27-45.35-42.41-67C-1212.83-23.37-1215.72-33.43-1215.36-40.28Zm79.29-2.23-1.47-9.27c-.31-2-1.87-2.78-3.52-3-2-.32-2.49,1.54-2.7,2.91-1,6.41-2,12.84,1.21,19,1.3,2.5,2,5.68,5.48,5.68s4.41-3.07,5.51-5.67A368.16,368.16,0,0,0-1118-70.29c4-13.35-4.57-25.26-18.56-25.87-5.18-.23-10.27.55-15.38,1.23-9.4,1.24-12.36,3.9-14.37,13.12-2.22,10.13-2.8,20.43-2.88,30.74-.07,8.17.9,16.15,4.74,23.68,6.19,12.15,11.82,24.57,17.89,36.77,5.67,11.42,10.79,23,19.47,32.86,10.19,11.58,22.49,17.72,37.43,19.37,2.25.25,4.88.81,6.29-1.74s.42-4.93-.86-7.1a13.44,13.44,0,0,0-3.32-3.69,23.52,23.52,0,0,1-6.74-9.16c-9.07-19.52-16.5-39.47-17.66-61.34-.41-7.74,1.71-14.17,5.77-20.59,10-15.86,20.15-31.7,28.7-48.47,2.69-5.28,3.18-9.43-1.2-14.28-4.78-5.29-8.53-11.52-14-16.22-2.83-2.42-6.51-5.08-9.71-1.7-4.59,4.86-9.88,4.73-15.6,4.16-8.58-.85-16.47-3.86-23.92-8a8.57,8.57,0,0,0-6.16-1.07c-11.25,2.25-22.52,4.3-33.91,5.74-4.88.62-8.17,3.38-9.3,8.39-4,17.61-8.71,34.93-7.22,53.51,1.2,14.82,1.71,29.4,8.12,43.24,3.53,7.62,9.13,13.89,12.6,21.43,4.84,10.51,10.26,20.46,21,26.27.83.45,1.44,1.67,2.53,1s.62-1.76.38-2.73c-.89-3.65-3.21-6.55-5.21-9.59-22-33.42-31.4-69.67-25.1-109.59,2-12.64,5.27-16.39,17.71-18.49,8.35-1.41,16.69-3.09,25.11-3.88,16.37-1.55,31.73,1.79,45.59,11,3.35,2.22,4.43,4.67,2.43,8.75-6.81,13.86-13.31,27.87-19.82,41.87-2.87,6.17-7.44,12.34-7.81,18.71-.89,15.21-.59,30.67,4.86,45.3,3.31,8.87,7.13,17.55,10.69,26.32.56,1.4,1.13,2.95-.06,4.23-1,1-2.22.57-3.23-.06-6.9-4.29-14.1-8.14-17.9-16-6.78-14.07-13.91-28-20.67-42-4.64-9.7-10.26-19.2-8.91-30.65,1-8,.37-16,.63-24,.1-3,.7-5.94,1-8.91.43-3.73,2.87-5.47,6.23-6.17a28.2,28.2,0,0,1,11.89,0c6.16,1.36,13,8.32,11.69,12.55C-1127.77-61.6-1130.69-51.73-1136.07-42.51Z" transform="translate(1348.95 298.41)"/><path class="cls-3" d="M-1136.07-42.51c5.38-9.22,8.3-19.09,11.31-28.88,1.3-4.23-5.53-11.19-11.69-12.55a28.2,28.2,0,0,0-11.89,0c-3.36.7-5.8,2.44-6.23,6.17-.35,3-1,5.93-1,8.91-.26,8,.32,16-.63,24-1.35,11.45,4.27,21,8.91,30.65,6.76,14.08,13.89,28,20.67,42,3.8,7.89,11,11.74,17.9,16,1,.63,2.28,1.08,3.23.06,1.19-1.28.62-2.83.06-4.23-3.56-8.77-7.38-17.45-10.69-26.32-5.45-14.63-5.75-30.09-4.86-45.3.37-6.37,4.94-12.54,7.81-18.71,6.51-14,13-28,19.82-41.87,2-4.08.92-6.53-2.43-8.75-13.86-9.2-29.22-12.54-45.59-11-8.42.79-16.76,2.47-25.11,3.88-12.44,2.1-15.72,5.85-17.71,18.49-6.3,39.92,3.14,76.17,25.1,109.59,2,3,4.32,5.94,5.21,9.59.24,1,.63,2.1-.38,2.73s-1.7-.55-2.53-1c-10.71-5.81-16.13-15.76-21-26.27-3.47-7.54-9.07-13.81-12.6-21.43-6.41-13.84-6.92-28.42-8.12-43.24-1.49-18.58,3.27-35.9,7.22-53.51,1.13-5,4.42-7.77,9.3-8.39,11.39-1.44,22.66-3.49,33.91-5.74a8.57,8.57,0,0,1,6.16,1.07c7.45,4.12,15.34,7.13,23.92,8,5.72.57,11,.7,15.6-4.16,3.2-3.38,6.88-.72,9.71,1.7,5.48,4.7,9.23,10.93,14,16.22,4.38,4.85,3.89,9,1.2,14.28-8.55,16.77-18.66,32.61-28.7,48.47-4.06,6.42-6.18,12.85-5.77,20.59,1.16,21.87,8.59,41.82,17.66,61.34a23.52,23.52,0,0,0,6.74,9.16,13.44,13.44,0,0,1,3.32,3.69c1.28,2.17,2.22,4.65.86,7.1s-4,2-6.29,1.74c-14.94-1.65-27.24-7.79-37.43-19.37-8.68-9.87-13.8-21.44-19.47-32.86-6.07-12.2-11.7-24.62-17.89-36.77-3.84-7.53-4.81-15.51-4.74-23.68.08-10.31.66-20.61,2.88-30.74,2-9.22,5-11.88,14.37-13.12,5.11-.68,10.2-1.46,15.38-1.23,14,.61,22.57,12.52,18.56,25.87a368.16,368.16,0,0,1-13.54,37.44c-1.1,2.6-2.07,5.68-5.51,5.67s-4.18-3.18-5.48-5.68c-3.21-6.2-2.16-12.63-1.21-19,.21-1.37.68-3.23,2.7-2.91,1.65.25,3.21,1,3.52,3Z" transform="translate(1348.95 298.41)"/></svg>