<svg id="Layer_1" data-name="Layer 1" xmlns="http://www.w3.org/2000/svg" viewBox="0 0 779.98 222.52"><defs><style>.cls-1{fill:#130add;}.cls-2{fill:#000426;}</style></defs><title>Artboard 1</title><path class="cls-1" d="M55.09,133.65a18.25,18.25,0,1,1,18.25-18.24A18.24,18.24,0,0,1,55.09,133.65Zm94.47-85.22c-13.59,0-14.16,11.39-34.79,11.39C94,59.82,92.29,48.43,80,48.43a18.25,18.25,0,1,0,0,36.49c13.59,0,14.16-11.39,34.78-11.39,20.8,0,22.49,11.39,34.79,11.39a18.25,18.25,0,0,0,0-36.49Zm0,97.46c-13.59,0-14.16,11.39-34.79,11.39C94,157.28,92.29,145.89,80,145.89a18.25,18.25,0,1,0,0,36.49c13.59,0,14.16-11.39,34.78-11.39,20.8,0,22.49,11.39,34.79,11.39a18.25,18.25,0,0,0,0-36.49Zm27-48.71c-13.65,0-13.15,12-30.41,12v0c-15.91,0-16.12-11.93-31.38-11.93-9.53,0-17.28,8.69-17.28,18.21a18.44,18.44,0,0,0,18.25,18.25c13.65,0,13.15-12,30.41-12v0c15.9,0,16.12,11.93,31.38,11.93,9.52,0,17.28-8.69,17.28-18.22A18.44,18.44,0,0,0,176.56,97.18Z"/><path class="cls-2" d="M312.23,142h0C305,154.11,291.86,163,276.93,163c-26.21,0-42.62-19.7-42.62-43S253.46,77.82,277,77.82a41.16,41.16,0,0,1,35.27,20.33l0,0a2.11,2.11,0,0,1-.77,2.79l-16.7,9.63a2.11,2.11,0,0,1-2.81-.71h0a18.1,18.1,0,1,0,0,20.36h0a2.11,2.11,0,0,1,2.86-.77s15.73,9.08,16.72,9.64A2.11,2.11,0,0,1,312.23,142Zm218-97.51a12.88,12.88,0,1,0,12.88,12.88A12.88,12.88,0,0,0,530.2,44.48Zm11.93,36A2.14,2.14,0,0,0,540,78.37H520.37a2.13,2.13,0,0,0-2.11,2.13V160a2.14,2.14,0,0,0,2.13,2.13H540a2.14,2.14,0,0,0,2.13-2.13Zm190.5-36a12.88,12.88,0,1,0,12.88,12.88A12.88,12.88,0,0,0,732.63,44.48Zm11.93,36a2.13,2.13,0,0,0-2.12-2.13H722.8a2.13,2.13,0,0,0-2.1,2.13V160a2.14,2.14,0,0,0,2.13,2.13h19.61a2.13,2.13,0,0,0,2.12-2.13ZM348.69,42.33a2.14,2.14,0,0,0-2.13-2.13H326.93a2.12,2.12,0,0,0-2.1,2.13V160a2.13,2.13,0,0,0,2.12,2.13h19.61a2.14,2.14,0,0,0,2.13-2.13Zm266.41,36H597.17c-2.62,0-2.62-1.57-2.62-3,0-12.49.05-11.15,19.93-11.15a2,2,0,0,0,2-2V42.94c0-1.09,0-2.76-2.46-2.76-14.13,0-43-2.7-43.25,35.84,0,0,0,2.34-1.72,2.34H556.43a2.13,2.13,0,0,0-2.13,2.12v19.65a2.14,2.14,0,0,0,2.13,2.13h12.28c1.75,0,2,0,2,1.86V160a2.14,2.14,0,0,0,2.13,2.13h19.61a2.14,2.14,0,0,0,2.13-2.13V104.09c0-1.8.56-1.83,2.22-1.83H615.1a2.14,2.14,0,0,0,2.13-2.13V80.46A2.12,2.12,0,0,0,615.1,78.36ZM442.93,80.5V160a2.13,2.13,0,0,1-2.11,2.13H421.28c-2.22,0-2.11-2.77-2.11-2.77,0-1.17-1-1.93-2-1.34a30,30,0,0,1-16.51,5c-25.18,0-42.25-18.15-42.25-43.33A41.84,41.84,0,0,1,400,77.82a37.27,37.27,0,0,1,17.22,4.54,1.37,1.37,0,0,0,2.17-1.22s-.1-2.76,2.11-2.76h19.3A2.13,2.13,0,0,1,442.93,80.5Zm-23.7,39.59a18.29,18.29,0,1,0-18.29,18.41A18.36,18.36,0,0,0,419.23,120.09Zm60,41.92H459.49a2.12,2.12,0,0,1-2.12-2.12V80.37a2.11,2.11,0,0,1,2.1-2.12h20c2.21,0,2.11,2.76,2.11,2.76a1.36,1.36,0,0,0,1.71,1.41c.52-.12,1.73-.79,2.59-1.15,3.1-1.28,8.56-2.89,18.72-2.89,2.51,0,2.47,1.67,2.47,2.77v19.07a2,2,0,0,1-2,2c-17.69,0-23.08,2-23.78,11.1l.12,46.56A2.12,2.12,0,0,1,479.27,162ZM705.94,80.5V160a2.13,2.13,0,0,1-2.11,2.13H684.29c-2.22,0-2.12-2.77-2.12-2.77,0-1.17-1-1.93-2-1.34a30,30,0,0,1-16.52,5c-25.17,0-42.24-18.15-42.24-43.33A41.84,41.84,0,0,1,663,77.82a37.28,37.28,0,0,1,17.23,4.54,1.37,1.37,0,0,0,2.17-1.22s-.11-2.76,2.11-2.76h19.3A2.13,2.13,0,0,1,705.94,80.5Zm-23.7,39.59A18.29,18.29,0,1,0,664,138.5,18.36,18.36,0,0,0,682.24,120.09Z"/></svg>