<svg id="Layer_1" data-name="Layer 1" xmlns="http://www.w3.org/2000/svg" viewBox="0 0 886.08 166.09"><defs><style>.cls-1{fill:#100c0c;}.cls-2{fill:#87bc26;}</style></defs><title>Deloitte</title><path class="cls-1" d="M-418,23.69c0-25.31.07-50.63-.07-75.95,0-3.62.51-5.09,4.71-5,19.64.31,39.32-.37,58.94.44,22,.9,41.79,7.86,56.11,25.92,8,10,12.1,21.72,13.88,34.24,2.38,16.83,1.83,33.57-3.2,49.9-9.19,29.88-30.18,46.29-60.48,50.64-22.32,3.2-44.91.69-67.37,1.35-3.06.09-2.52-1.8-2.52-3.56v-78Zm90-1.94c.39-4.2-.25-9.16-1-14.1-2.36-15.45-10.37-25-23.69-28.21-5.73-1.37-11.6-.67-17.4-1-3.82-.23-5,.79-5,4.83.21,24.16.1,48.32.1,72.48,0,14.09,0,14.09,14.24,13.24,14.86-.89,25.32-9,29.71-23.24A73,73,0,0,0-328,21.75Z" transform="translate(418.07 58.1)"/><path class="cls-1" d="M-25.41-18c34.58-.44,58.08,23.13,58.9,59,.23,10.35-.51,20.58-4,30.45-6.38,18-18.69,29.54-37.26,34-12.65,3.05-25.47,3.13-37.95-.72-19-5.87-30.8-19.1-36.12-38a83.3,83.3,0,0,1-.33-43.87C-75.83-1.87-56.94-17-31.39-18-29.4-18-27.4-18-25.41-18ZM-43,44.48c0,7,.48,13.94,2.87,20.6,2.73,7.63,7.37,11.09,14.68,11.08S-13.32,72.91-11,65a69.8,69.8,0,0,0,0-40.71c-2.33-7.64-7.36-11.14-14.64-11.09-7.06,0-11.85,3.56-14.49,10.72C-42.57,30.54-43.08,37.47-43,44.48Z" transform="translate(418.07 58.1)"/><path class="cls-1" d="M-193.55,56c-11,0-22,.09-33-.06-3,0-3.64.69-3,3.67,2,9.54,9,16.15,19.31,17.39A71.93,71.93,0,0,0-175,72.45c3.65-1.43,4.36-.31,5,2.85a184,184,0,0,0,4.33,18.93c1.22,3.92-.23,5.21-3.39,6.59-14.26,6.23-29.33,6.88-44.52,6.56a68.17,68.17,0,0,1-21-3.62c-17.81-6.19-29.43-18.46-34.13-36.67a89.89,89.89,0,0,1,.22-45.46c6.22-24,24.15-38.22,49-39.56,9-.49,18-.18,26.75,2.18C-171-9.9-157.8,7.85-157,32.57c.2,6.66-.12,13.33.11,20,.1,2.94-.92,3.55-3.65,3.51C-171.57,55.91-182.56,56-193.55,56Zm-18.37-26.5c4.81,0,9.63-.09,14.45,0,2.58.07,3.45-.51,3-3.39-1.56-9.58-8-15.65-17-15.65s-16,6.53-17.29,16.07c-.28,2.06,0,3.05,2.4,3C-221.56,29.4-216.74,29.5-211.92,29.5Z" transform="translate(418.07 58.1)"/><path class="cls-1" d="M374.62,56c-10.66,0-21.33.22-32-.1-4.47-.14-4.8,1.34-3.8,5.08,2.33,8.76,9.09,14.82,18.91,16A71.68,71.68,0,0,0,393,72.45c3.67-1.45,4.36-.29,5,2.84,1.36,6.68,2.82,13.35,4.56,19.93.71,2.65.14,3.84-2.31,5a73.94,73.94,0,0,1-23,6.32c-12.46,1.3-24.95,1.9-37.27-.93-25.34-5.82-41-24.16-42.91-50.37-.8-10.81-.65-21.64,2-32.28,6-24.52,24.32-39.64,49.61-40.87,9.18-.44,18.3-.11,27.23,2.43,21.6,6.14,34.58,24,35.05,48.39.13,6.49-.19,13,.11,19.49.15,3.32-1.09,3.76-4,3.71C396.29,55.91,385.46,56,374.62,56ZM356.49,29.5c4.82,0,9.63-.07,14.45,0,2.53.05,3-.82,2.59-3.28-1.52-9.63-7.91-15.73-16.89-15.76s-15.77,6.23-17.36,16c-.43,2.62.41,3.14,2.77,3.07C346.86,29.41,351.68,29.5,356.49,29.5Z" transform="translate(418.07 58.1)"/><path class="cls-1" d="M287.5,70.12c0,9.76-.07,19,.05,28.33,0,2.19-1.2,2.84-2.81,3.48-14.95,5.94-30.36,7.4-46,3.67-13.33-3.18-21.25-13.81-22.76-29.46-1.77-18.44-.65-36.94-.7-55.4,0-4.55-1.28-5.49-5.52-5.34-8.77.33-8.78.09-8.78-8.72,0-6.33.11-12.67-.05-19-.07-2.58.26-3.93,3.39-3.78,3.43.16,8,1.6,10.08-.56,2.26-2.35.63-6.94.71-10.55.13-5.66.15-11.33,0-17-.08-2.56.87-3.45,3.32-3.82,11.66-1.77,23.33-3.58,34.94-5.68,3.29-.6,3.54.62,3.51,3.26-.1,10.16.12,20.32-.13,30.48-.09,3.42,1.06,4.13,4.19,4,6-.23,12,.07,18-.13,2.89-.1,4.11.47,4,3.76-.26,8-.24,16,0,24,.09,3.17-1,4-4,3.89-6.32-.19-12.65,0-19-.1-2.29,0-3.21.49-3.19,3,.13,15.32,0,30.64.15,46,.07,6.09,3.67,9.37,9.79,9.68C273.78,74.5,280.39,72.15,287.5,70.12Z" transform="translate(418.07 58.1)"/><path class="cls-1" d="M193,70.12c0,9.6-.08,18.92.06,28.24,0,2.14-1,2.89-2.64,3.54-14.95,5.93-30.37,7.42-46,3.73-13.67-3.23-20-13.25-22.44-26.37-1.72-9.42-1-18.93-1.13-28.41-.09-10.49-.14-21,.06-31.48,0-3.1-.87-3.92-3.92-4-10.49-.11-10.49-.23-10.49-10.68,0-5.83.14-11.67,0-17.49-.09-2.68.8-3.66,3.37-3.25a4.17,4.17,0,0,0,.5,0c10.51-.21,10.51-.21,10.51-10.59,0-5.83.07-11.66,0-17.49,0-2,.39-2.91,2.58-3.27q18.21-3,36.36-6.42c2.89-.53,2.42,1.26,2.42,2.88,0,10.16.15,20.33-.07,30.49-.08,3.37.62,4.68,4.29,4.49,6.15-.33,12.33,0,18.49-.15,2.58-.07,3.41.64,3.36,3.3q-.25,12.5,0,25c.06,2.69-.86,3.38-3.41,3.32-6.33-.16-12.66,0-19-.1-2.73-.07-3.75.67-3.72,3.61.15,14.49,0,29,.1,43.48.07,8.28,3.92,11.77,12.13,11.62C180.71,74.05,186.67,71.92,193,70.12Z" transform="translate(418.07 58.1)"/><path class="cls-1" d="M-100.16,23.49c0,25.67-.07,51.33.08,77,0,3.58-.63,4.9-4.56,4.79-11-.3-22-.21-33,0-3.05.05-4-.75-3.94-3.88q.13-77.74,0-155.48c0-3.59,1.35-4,4.33-3.94,10.83.15,21.66.22,32.49,0,3.66-.09,4.74.75,4.71,4.59C-100.26-27.83-100.16-2.17-100.16,23.49Z" transform="translate(418.07 58.1)"/><path class="cls-1" d="M49.5,44.18c0-18.49.13-37-.11-55.46,0-4.07,1.23-4.89,5-4.81,10.82.25,21.65.17,32.47,0,2.73,0,3.71.59,3.71,3.54q-.15,57,0,113.91c0,3.16-1,3.89-4,3.85-10.82-.18-21.65-.24-32.47,0-3.67.08-4.79-.78-4.74-4.62C49.61,81.82,49.5,63,49.5,44.18Z" transform="translate(418.07 58.1)"/><path class="cls-2" d="M468,84.43a23.57,23.57,0,1,1-47.14-.18c.06-13.31,10.48-23.51,23.92-23.41A23.18,23.18,0,0,1,468,84.43Z" transform="translate(418.07 58.1)"/><path class="cls-1" d="M70-58c5.66,0,11.32.17,17-.07,3-.12,3.63.94,3.56,3.68-.17,6.82-.15,13.65,0,20.47,0,2.55-.66,3.51-3.35,3.48q-17.24-.19-34.45,0c-2.77,0-3.34-1.06-3.3-3.53q.19-10.48,0-21c-.05-2.39.68-3.18,3.1-3.11C58.37-57.89,64.2-58,70-58Z" transform="translate(418.07 58.1)"/></svg>