<svg id="Layer_1" data-name="Layer 1" xmlns="http://www.w3.org/2000/svg" viewBox="0 0 507.75 99"><defs><style>.cls-1{fill:#023f55;}.cls-2{fill:#3acae4;}</style></defs><title>Devpost</title><path class="cls-1" d="M237,74H-188c-8.67-15.17-17.25-30.38-26.08-45.46-1.73-3-1.73-5.12,0-8.08C-205.25,5.38-196.67-9.83-188-25H237c8.67,15.17,17.25,30.38,26.08,45.46,1.73,3,1.73,5.12,0,8.08C254.25,43.62,245.67,58.83,237,74ZM-177,24.21c0,9,.08,18,0,27,0,2.53.61,3.59,3.31,3.48,6.15-.26,12.34,0,18.46-.47,15.29-1.27,25.1-10.26,26.76-25.35,1.92-17.33-4.81-33.46-27.16-34.23-5.82-.2-11.66,0-17.47-.29-3.07-.14-4,.82-3.92,3.92C-176.82,6.89-177,15.55-177,24.21Zm291.09.27A37.46,37.46,0,0,0,111.88,10,24.42,24.42,0,0,0,89.28-6.71C78.82-7.11,69.41-1.54,65.32,8a40.54,40.54,0,0,0-.35,32A24.15,24.15,0,0,0,88.85,55.62c10.91-.43,19.25-6.5,23.06-16.79A38.38,38.38,0,0,0,114.13,24.48Zm-228.63,0c0,8.82,0,17.64,0,26.46,0,2.25.15,3.75,3.12,3.72,12.32-.14,24.63-.1,37,0,2.33,0,3.41-.71,3.19-3.15a19.74,19.74,0,0,1,0-4.48c.48-3.52-.92-4.57-4.41-4.45-7.31.26-14.65-.11-22,.16-3.6.13-4.91-.68-4.84-4.6.19-10.06,0-10.06,10.16-10.06,7.27,0,7.27,0,7.17-7.44a6.68,6.68,0,0,1,0-1c.39-2.69-.87-3.47-3.42-3.35-3.49.17-7-.2-10.48.1-4.37.38-3.35-2.61-3.28-4.87s-1.35-5.56,3.38-5.4c7.32.25,14.65-.13,22,.15,3.57.14,4.84-1,4.34-4.46a13.15,13.15,0,0,1,0-3.49c.38-3-.61-4.06-3.81-4-11.48.19-23,.16-34.45,0-2.9,0-3.7.94-3.66,3.71C-114.41,6.85-114.5,15.68-114.5,24.5ZM146.92,55.62c5.94-.24,11.08-.81,15.65-3.5,6.43-3.78,8.69-9.73,8.37-16.91-.31-6.87-3.88-11.41-10-14.22-5.63-2.58-11.84-3.23-17.6-5.33-2.34-.85-4.69-2.1-4.37-5.31.3-3,2.39-4,5-4.7a13.91,13.91,0,0,1,12.74,2.5c3.7,3,6.08,2.8,8.66-.92a10.82,10.82,0,0,1,2.53-2.38c2-1.45,1.38-2.57-.18-3.91a29.83,29.83,0,0,0-23-7.37,22.57,22.57,0,0,0-12.74,5.16c-9.11,7.71-7.17,22.58,3.8,27.2,5.93,2.5,12.31,3.92,18.45,5.94,2.79.92,4.45,2.79,4.14,6s-2.11,4.66-5,5.35c-5.82,1.4-11.76.95-16.11-2.86s-6.9-2.37-9.78,1.18a3.14,3.14,0,0,1-.78.62c-3.12,1.92-2.09,3.65,0,5.66C132.6,53.4,139.82,55.32,146.92,55.62ZM5.06,24.55V47c0,7.7,0,7.45,7.56,7.72,4,.14,4.82-1.25,4.55-4.84-.31-4,.16-8-.14-12-.28-3.62.68-5.09,4.6-4.81a82.77,82.77,0,0,0,13.45-.19C45.28,32,51.8,24.83,52,14.77,52.24,3.69,46.43-3.65,35.93-5.09,27-6.31,18-5.23,9-5.68,5.59-5.86,4.92-4.52,5-1.39,5.19,7.25,5.06,15.9,5.06,24.55ZM-34.59,37.79-45.88,2.94C-48.71-5.81-48.71-5.59-58-5.72c-4,0-3.77,1.39-2.73,4.26C-54.41,16-48,33.51-42.07,51.12c1.31,3.88,3.69,3.69,6.48,3.46,3-.24,6.3,1.43,8-3.52,5.46-16.38,11.55-32.55,17.36-48.82,2.8-7.86,2.75-7.68-5.52-7.94-3.73-.12-5.45.8-6.57,4.68C-26.11,11.87-30.39,24.6-34.59,37.79Zm231.17-7.42c0,6.48.27,13-.09,19.45-.23,4.06,1.17,5.43,5,4.81a6.64,6.64,0,0,1,2,0c4,.64,5.45-.73,5.33-5.05-.32-11.47-.11-22.95-.11-34.43,0-8.8,0-8.8,8.9-8.8,9.27,0,9.21,0,8.39-9.25-.15-1.79-.52-2.74-2.54-2.73-14,0-27.94,0-41.9,0a2.09,2.09,0,0,0-2.38,1.9c-1.79,7.58,0,10.05,7.65,10.05a33.47,33.47,0,0,0,4.48,0c4-.56,5.63.76,5.37,5.09C196.31,17.71,196.58,24.05,196.58,30.37Z" transform="translate(229.42 25)"/><path class="cls-2" d="M-202,74c-8.63-15-17.15-30.07-26-45-1.95-3.31-1.94-5.77,0-9.06,8.8-14.9,17.33-30,26-45h14c-8.67,15.17-17.25,30.38-26.08,45.46-1.73,3-1.73,5.12,0,8.08C-205.25,43.62-196.67,58.83-188,74Z" transform="translate(229.42 25)"/><path class="cls-2" d="M251-25c8.55,14.86,17,29.79,25.72,44.53,2.15,3.61,2.15,6.33,0,9.94C268,44.21,259.55,59.14,251,74H237c8.67-15.17,17.25-30.38,26.08-45.46,1.73-3,1.73-5.12,0-8.08C254.25,5.38,245.67-9.83,237-25Z" transform="translate(229.42 25)"/><path class="cls-1" d="M-164.82,24.39c0-5,0-10,0-14.93,0-1.21-.46-2.57,1.39-3.24,8.22-3,19.63,2.45,21.85,10.77a25.14,25.14,0,0,1-.79,16.59c-2.94,6.92-13.17,11.31-20.78,9.27-1.9-.51-1.68-1.75-1.69-3C-164.83,34.68-164.82,29.54-164.82,24.39Z" transform="translate(229.42 25)"/><path class="cls-1" d="M101.88,24.88A26.62,26.62,0,0,1,99.69,36c-2.31,5.07-6.37,7.41-11.92,7.34s-9.28-2.66-11.22-7.58a29.94,29.94,0,0,1-.08-22.33c2.08-5.39,6.27-7.9,12.06-7.84,5.3.07,9.27,2.76,11.44,8A27.91,27.91,0,0,1,101.88,24.88Z" transform="translate(229.42 25)"/><path class="cls-1" d="M25.49,21.23c-8.66-.23-8.36-.23-8.36-9.18,0-5.06,1.37-7.18,6.68-6.17,3.22.62,6.63.29,9.86.87,4.43.79,6.5,3.83,6,8.25-.45,4.2-2.9,6.56-7.26,6.54C30.11,21.53,27.8,21.34,25.49,21.23Z" transform="translate(229.42 25)"/></svg>