<svg id="Layer_1" data-name="Layer 1" xmlns="http://www.w3.org/2000/svg" viewBox="0 0 1681.29 331.71"><defs><style>.cls-1{fill:#3c5a97;}</style></defs><title>facebook</title><path class="cls-1" d="M-36.77,34q0-67.24,0-134.5c0-4.66,0-9.33-.23-14-.12-2.82.74-4.11,3.76-4.59,17.36-2.78,34.65-6,52-8.63,11.53-1.78,11.59-1.51,11.57,10.07q-.09,44-.2,88c0,7,.05,7,7,5.07C63.18-31.72,89.47-33,115.94-27,139.81-21.57,154-6,158.22,18.28c2.1,12.2,2.21,24.5,2.42,36.76.34,20.48.59,41-.58,61.44s-5.43,40-21.07,54.92c-13.31,12.72-30,18.23-47.65,21.06C61,197.34,30.6,195.69.27,192.12c-10.4-1.22-20.72-3.17-31.13-4.33-4.56-.5-6-2.07-6-6.79C-36.71,132-36.77,83-36.77,34ZM30.66,86.53c0,15.83.15,31.66-.09,47.49-.08,4.68,1.56,6.14,6.06,6,8.83-.25,17.71.47,26.49-.19,18.8-1.41,28.86-9.63,29.57-28.24.8-21,.34-42,.13-63C92.7,36.78,86,28.83,74.4,26.32c-13.65-3-26.33.52-38.83,5.82-3.67,1.56-5,3.44-5,7.39C30.77,55.19,30.66,70.86,30.66,86.53Z" transform="translate(799.94 135.94)"/><path class="cls-1" d="M616.67,36.92q0-74.48-.09-148.95c0-4.56,1-6.86,5.92-7.6q28.28-4.31,56.42-9.31c4.37-.78,5,.55,5,4.38-.08,23.83,0,47.65,0,71.48q0,58.47,0,117c0,1.22-.84,3.21.86,3.43,1.94.26,3-1.92,3.85-3.33,6.14-9.5,12.1-19.13,18.14-28.69,12.44-19.7,25-39.34,37.28-59.11,1.91-3.08,4.08-4.3,7.66-4.27,20.16.12,40.32,0,60.48.12,1.86,0,4.34-1.1,5.54,1s-1,3.67-2,5.26q-30.64,48.53-61.43,97c-1.94,3-2.09,5.23-.14,8.44q30.36,50.18,60.38,100.54a9.83,9.83,0,0,1,.75,1.29c.86,2.09,3.63,3.92,2.46,6.19s-4.23,1-6.39,1c-19.83.11-39.65,0-59.48.16-3.89,0-6-1.31-7.91-4.54q-26.82-45-53.92-89.83c-1.39-2.3-2.69-6.47-5.1-5.92-2.64.61-1,4.64-1,7.12-.1,29-.15,58,0,87,0,4.69-1.12,6.31-6.07,6.23-18.32-.29-36.66-.35-55,0-5.4.11-6.39-2-6.37-6.6.13-19.83,0-39.66,0-59.48Z" transform="translate(799.94 135.94)"/><path class="cls-1" d="M-123.13,101.94c-19,0-38,.13-57-.1-4.32,0-5.45,1.44-5.36,5.47a77.53,77.53,0,0,0,1.23,12.4c2,10.74,8.52,16.76,20,18.64,17.74,2.92,35.54,1.43,53.3.3,13.45-.85,26.77-3,40-5.37,4.05-.72,4.79.48,4.74,4.22q-.27,22.25,0,44.49c.05,3.87-1.49,5.14-5,5.89a368.09,368.09,0,0,1-60.76,7.48c-19.88.83-39.6.62-58.9-4.53-36.79-9.8-56.67-35.67-60.37-72.57-2.38-23.74-1.35-47.61-.61-71.4.5-16.31,4.55-31.9,14.34-45.41,10.39-14.36,24.66-23.21,41.63-27.36,28.12-6.9,56.35-7.2,84.12,1.66,28.79,9.18,44.8,29.69,49.35,59.18,3.26,21.18.89,42.57,1.54,63.86.11,3.87-2.57,3.14-4.78,3.14Q-94.38,102-123.13,101.94ZM-156.5,57.05v0c8,0,16,0,24,0,2,0,4.29.32,4.48-2.63,1.06-16-1.41-31.58-21.45-34.35-9.38-1.29-18.78-.95-26.79,5.05-6.78,5.07-11.28,21.68-8.64,29.84.72,2.23,2.32,2.06,4,2.06Q-168.74,57.07-156.5,57.05Z" transform="translate(799.94 135.94)"/><path class="cls-1" d="M596.05,82.28c-.49,15.91.89,32.37-2.54,48.72-6,28.48-22.08,48.2-49.8,57.06-31.47,10.06-63.46,10-94.68-.86-28.56-9.91-43.81-31.66-48.57-61-2.9-17.84-1.2-35.87-1.47-53.81-.2-12.46-.4-24.92,2-37.28,6.09-31.38,24.28-52,55.12-60.19C488-33.6,520-33.59,551-20.88,574.53-11.21,587.9,7.38,593.38,32,597,48.5,595.68,65.16,596.05,82.28ZM529,84.39c0-6.92,0-11.75,0-16.58s0-9.66,0-14.5c-.08-13.14-6.54-22.49-18.3-26.18A43.71,43.71,0,0,0,487,26.41c-13.26,3.21-20.64,12-20.85,25.65q-.45,29.75,0,59.49c.27,15.15,7.05,23.6,21.07,26.92,6,1.42,12.2,1.2,18.31.44,12.75-1.58,21-9.83,22.74-22.67C529.8,105,528.48,93.61,529,84.39Z" transform="translate(799.94 135.94)"/><path class="cls-1" d="M180.92,82.56c.16-16.12-.85-32.31,2.43-48.27C190,1.88,209.61-18.29,241.59-26c28.5-6.89,57.08-6.79,85.07,2.55,29.35,9.8,46,31.25,49.85,61.27,3.73,28.91,3.27,58.19.21,87.19-3.54,33.67-25.15,57.5-58.17,65.39-26.5,6.33-53.12,6.54-79.52-.6-32.05-8.67-50.22-30.06-56.15-62.41C180.16,112.51,181.15,97.52,180.92,82.56Zm129.85-.06h-.16c0-10.83.29-21.67-.07-32.48-.42-12.32-8.41-21.11-20.42-23.73a55.87,55.87,0,0,0-15.41-.84c-15.94,1-26.25,11.34-26.43,26.92q-.37,30,0,60c.17,13.92,7.92,23.25,21.38,26.16a46.78,46.78,0,0,0,19.78,0c14.12-3.08,21.08-11.85,21.3-26.56C310.89,102.16,310.77,92.33,310.77,82.5Z" transform="translate(799.94 135.94)"/><path class="cls-1" d="M-465.67,120.67c0,22.5-.1,45,.09,67.49,0,4-1,5-5,5-15.83-.22-31.66-.16-47.49,0-3.1,0-4.44-.35-4.89-4.1-1.23-10.27-1.56-10.27-11.11-5.63a118,118,0,0,1-65.73,11.39c-30.11-3.42-48.25-23.64-52.11-54.32a89.5,89.5,0,0,1,1.58-31.51c4.58-19.89,17.72-31.65,37.08-36.82a118.35,118.35,0,0,1,22.46-3.25c17.63-1.24,35.26-.67,52.89-.77,3,0,4.66-.51,4.31-4-.59-5.93-.22-11.89-.7-17.87-.87-10.75-9.43-15.88-19-16.78-23.26-2.17-46.58-.5-69.88-.88-4.52-.07-6.92.21-6.06-6,2-14.72,2.85-29.61,4.23-44.42.36-3.8,1.69-5.93,6.48-5.85,25.48.41,51-.05,76.46.67,13.76.39,27.47,2.53,40.39,7.87,19.39,8,29.49,23.27,33,43.35,2.58,14.74,3.07,29.65,3,44.6C-465.74,86-465.67,103.34-465.67,120.67Zm-87.94-7.43c-5.18.41-11.65-.48-18.14.69-10,1.8-13.51,5.82-13.08,16.28.39,9.5,4.85,14.78,13.75,16.84,10,2.29,19.09-.75,27.94-4.54,11-4.72,9.54-2.32,9.65-14.27,0-3.49-.41-7-.13-10.47.32-3.8-1.58-4.59-4.73-4.55C-543,113.29-547.67,113.24-553.61,113.24Z" transform="translate(799.94 135.94)"/><path class="cls-1" d="M-765.74,110.33c0-25.66-.07-51.32.09-77,0-3.94-1.08-5.29-5.06-5.17-8.16.25-16.33,0-24.49.13-3.39.06-4.77-1-4.74-4.58q.2-23.47,0-47c0-3.44,1.21-4.79,4.67-4.73,8.33.14,16.66-.07,25,.14,3.53.09,4.64-1.14,4.6-4.62-.16-12.32-.42-24.66,0-37,.53-15.12,3.51-29.65,12.7-42.25,9.51-13.07,23.05-19.26,38.37-22,21.13-3.73,42.52-1.71,63.79-2.19,2.76-.07,3.4,1.29,3.39,3.67,0,16.16-.07,32.32,0,48.48,0,3.18-1.55,4-4.28,4.06-10,.18-20,.33-30,.61-10.45.31-16.39,6.15-16.6,16.48-.2,10.15,0,20.32-.27,30.47-.09,3.63,1.27,4.51,4.66,4.48,14-.16,28,0,42-.15,3.78,0,4.69.81,4.18,4.83-1.81,14.15-3.22,28.36-4.48,42.58-.73,8.23-.58,8.36-8.57,8.36-10.83,0-21.66.18-32.48-.1-4.17-.1-5.33,1.13-5.31,5.31q.32,76.45.3,152.92c0,6.63,0,6.64-6.5,6.64-18.66,0-37.32-.1-56,.08-3.92,0-5.18-1.12-5.16-5.12C-765.67,162-765.75,136.15-765.74,110.33Z" transform="translate(799.94 135.94)"/><path class="cls-1" d="M-375.42,82.35c0,9.33-.1,18.66,0,28,.24,19.22,8.85,27.67,27.92,29.09,22.84,1.7,45.12-2,67.42-5.79,6.67-1.16,6.64-1.27,6.66,5.25,0,14.49,0,29,.19,43.47,0,3.09-.63,4.9-4.05,5.61-22.65,4.7-45.45,8.44-68.65,7.71-18-.56-35.72-3-52.17-11.25-22.52-11.22-35.78-29.49-41.45-53.68a108.87,108.87,0,0,1-2.82-25.18c0-16.32-.23-32.65.07-49,.34-19.48,4.86-37.92,16.73-53.73,11.3-15,26.77-24.15,44.87-28.82,21.38-5.52,43-5.64,64.83-3.29,12.57,1.35,24.94,3.65,37.33,6.06,3.78.74,5.28,2.08,5.21,6.14-.24,14.66-.16,29.32-.06,44,0,3.55,0,5.2-4.82,4.39-18-3-36-6.53-54.37-6.41-7.49,0-15-.09-22.36,1.39-13.69,2.74-20.31,11.58-20.48,27.06C-375.51,63-375.42,72.69-375.42,82.35Z" transform="translate(799.94 135.94)"/><path class="cls-1" d="M881.3,168c.05,12.49-9,22.83-20,22.88-15.31.07-24.87-8.05-24.89-21.12,0-14.46,8.65-24.13,20.85-24.87C871,144,882.23,154.28,881.3,168Zm-22.15-21a20.92,20.92,0,0,0-21.21,21.16c0,13.43,10.81,21.73,20.27,21.62,11.68-.14,20.91-7.6,21.52-21.52C880.24,156.65,870.67,147,859.15,147Z" transform="translate(799.94 135.94)"/><path class="cls-1" d="M859.08,150.58c9.23,0,16.69,8,16.59,17.69S867.85,186,858.8,185.72c-9.22-.24-16.72-8.24-16.66-17.77S849.78,150.53,859.08,150.58Zm-7.91,17.61c0,2.66-.1,5.33,0,8,.07,1.45-.92,3.74,1.75,3.85,3.13.14,1.74-2.47,2.15-4,.52-2-1.62-5.14,2.1-5.63,3.56-.46,5,2,5.5,5.11.14.82.3,1.64.48,2.45a2.47,2.47,0,0,0,3.32,2.08c2.35-.54.74-2.09.66-3.16-.33-4.28-4.25-8.45,0-12.9,1.07-1.12,0-3.24-.85-4.67-1.72-2.71-8.56-4.09-13-2.79-4,1.18-1.63,4.43-2.13,6.71A23.54,23.54,0,0,0,851.17,168.19Z" transform="translate(799.94 135.94)"/><path class="cls-1" d="M855.08,162.94c-.33-2.53.56-3.93,3.26-3.59,2.43.3,4.86,1,4.71,4-.16,3.25-2.88,3.67-5.45,3.79C854.24,167.29,855.39,164.64,855.08,162.94Z" transform="translate(799.94 135.94)"/></svg>