<svg id="Layer_1" data-name="Layer 1" xmlns="http://www.w3.org/2000/svg" viewBox="0 0 482.29 129.36"><defs><style>.cls-1{fill:#ee8e1c;}.cls-2{fill:#1a416d;}.cls-3{fill:#fdfdfd;}</style></defs><title>Farelogix</title><path class="cls-1" d="M265,22.79a19.64,19.64,0,0,1-1.29,9.78c-4.14,11.17-18.58,18.58-20.56,19.73-19.66,11.45-41.3,17.59-63.25,22.43C138.09,84,122.79,83.84,76.8,88.07c-2.69.25-7.54.9-7.92.93-7.69.57-55.76,1.4-90.3-.13-11.5-.51-20.4-1.18-29-2.07-11.9-1.23-21.8-2.71-28.87-3.9,17.29,0,34.6.42,51.87-.09A892.7,892.7,0,0,0,81.45,72.73c33.11-5,65.89-11.68,97.87-21.8,18-5.68,35.62-12.11,51.78-22.06,12.72-7.84,15.59-11,21.49-24.06a31.8,31.8,0,0,1,8.25,8.34A21.8,21.8,0,0,1,265,22.79Z" transform="translate(217.13 39.62)"/><path class="cls-1" d="M-213.42,15.45c7.67-13.95,22.64-20.07,27.66-22,42.58-16.75,72-21.38,72-21.38,27.42-4.32,56.94-8.88,97.66-10.86,0,0,36.12-1.75,76.9,0,15.67.66,26.46,1.63,31.1,2.08,12.35,1.18,22.87,2.62,31,3.88-9.09,0-18.19-.11-27.28,0A923,923,0,0,0-43-20.56C-79.17-14.55-114.85-6.75-149.32,6c-14.28,5.29-28.07,11.65-40.41,20.7-5.74,4.2-11.08,8.82-12.36,16.71-.21,1.29-.66,2-1.23,2.19-1.14.46-2.72-1.08-3.6-2-5.86-5.9-8.8-8.85-9.75-12.65C-218.29,24.51-215.26,18.8-213.42,15.45Z" transform="translate(217.13 39.62)"/><path class="cls-2" d="M-35.17,21.23C-30,24-26.77,27.71-22.76,31.66c-6,.82-10.84.8-14.83-3.92-2.09-2.48-4.59-4.87-8-5.75-4.85-1.25-5.71-.49-5.85,4.52-.08,2.49,1.36,5.66-3.66,5.66-4.18,0-5.39-1.08-5.1-5.22.39-5.63.13-11.3.07-16.95,0-1.9.19-3.14,2.62-3.08,7.47.19,14.95.19,22.43.32a12.45,12.45,0,0,1,2.92.61c3.25.87,6.07,2.38,6.1,6.2,0,3.6-2.74,5-5.71,6Zm-9.59-3.85c2.33-.13,4.48-.11,6.59-.4,1.45-.2,3-.7,3.09-2.61s-1.55-2.55-3-2.66c-3.77-.28-7.56-.29-11.34-.39-1.48,0-2,.88-2.06,2.2C-51.92,19.85-47,16.23-44.76,17.38Z" transform="translate(217.13 39.62)"/><path class="cls-2" d="M74.51,32.23c-4.72.18-9.35-.33-13.61-2.48s-6.82-5.28-6.84-10.19A10.53,10.53,0,0,1,60.74,9.29c9.32-4,18.88-4.2,27.93.59,8.17,4.32,7.88,14.82-.19,19.37A26,26,0,0,1,74.51,32.23ZM74.39,11c-6.35.08-10.46,2.62-11.19,6.8-.57,3.22.24,6.1,3.11,7.82a15.09,15.09,0,0,0,15.23.5c3-1.5,4.24-4.22,4.06-7.39a7.08,7.08,0,0,0-4.73-6.48A15.33,15.33,0,0,0,74.39,11Z" transform="translate(217.13 39.62)"/><path class="cls-2" d="M137.31,13.77c-4,.92-7.24,1.28-11-1.24-4.3-2.9-9.69-2.15-14.29.41-5.21,2.89-5,10.1.27,13.05s10.57,2.23,15.92.32c1-.37,1.76-.94,1.54-2.17-.25-1.39-1.4-1.15-2.33-1.18-1.67-.05-3.33-.05-5,0-1.35,0-2.2-.48-2.28-2s.41-2.31,1.89-2.32c4.82,0,9.64,0,14.46,0,1.62,0,2,1.12,1.79,2.36-.48,2.89,2,7-2,8.45-10.28,3.74-20.87,4.81-30.93-.51-7.67-4.06-8.2-13.94-.93-18.37,9.26-5.63,19.23-5.35,29.14-1.31A6.37,6.37,0,0,1,137.31,13.77Z" transform="translate(217.13 39.62)"/><path class="cls-2" d="M-3.53,32c-4.19-.45-11,2.25-13.87-1-2.51-2.84-.76-9.5-.79-14.48C-18.24,7-18.21,7-8.61,7h18C11,7,12.85,6.7,12.71,9.34c-.12,2.34-1.84,1.95-3.27,2q-7.74,0-15.47,0C-8,11.3-9.66,11.24-9.68,14s1.56,2.8,3.56,2.77c4.15-.06,8.32,0,12.47,0,2,0,4.43.26,4.51,2.56C11,22.31,8.17,21,6.68,21q-6.48.28-13,0c-2.73-.12-3.36,1-3.4,3.51-.05,2.74,1.46,2.88,3.48,2.86,5.49-.05,11,0,16.47,0,1.88,0,3.26.21,3.21,2.62s-1.69,2-3.13,2C6,32,1.69,32-3.53,32Z" transform="translate(217.13 39.62)"/><path class="cls-2" d="M-106.24,31.85C-101,23.71-96.31,16.29-91.46,9c2-3,9.67-3.07,11.72-.13,5.08,7.32,10,14.76,15.34,22.71-4.83.45-9.25,2.09-11.64-3.52-.71-1.65-2.16-1.79-3.73-1.78-3.65.05-7.31,0-11,0-1.33,0-2.92-.18-3.47,1.31C-96.33,33.46-101,32-106.24,31.85Zm15.77-10.34H-80.3c-1.93-3-3.48-5.36-5.32-8.18Z" transform="translate(217.13 39.62)"/><path class="cls-2" d="M159.43,7.35c6.54-1,11.46-.55,15,4.31,2,2.79,4.08,2.15,5.9-.2,3.77-4.86,8.75-5.24,15-4-3.5,3.07-6.53,5.9-9.75,8.49-2.57,2.07-3.37,3.48-.06,5.86,3.73,2.66,6.92,6.08,10.77,9.56-6.53,1.64-11.57.47-15.4-4.49-2.58-3.35-5-3.15-7.38.09-3.74,5.05-8.85,5.8-15.38,4.53,3.32-3,6.12-6,9.34-8.42,3.87-2.89,4.67-5.2.2-8.31C164.88,12.88,162.57,10.24,159.43,7.35Z" transform="translate(217.13 39.62)"/><path class="cls-2" d="M-119.62,7c3.83,0,7.66,0,11.49,0,1.77,0,2.91.37,2.82,2.46s-1.51,1.9-2.84,1.91c-4.66,0-9.33.08-14,0-2.25,0-3.37.61-3.33,3.1s1.29,2.68,3.19,2.65c3.83-.06,7.67,0,11.5,0,1.8,0,2.83.49,2.72,2.53s-1.54,1.81-2.85,1.82a60.82,60.82,0,0,1-8,0c-5-.63-7.55.9-6.52,6.35.65,3.47-.82,4.45-4.32,4.48s-4.6-.92-4.41-4.44a146.13,146.13,0,0,0,0-16.48c-.21-3.68,1.16-4.59,4.53-4.32S-123,7-119.62,7Z" transform="translate(217.13 39.62)"/><path class="cls-2" d="M35.49,32c-3.82,0-7.65-.08-11.46,0-2.13.06-3.41-.24-3.34-2.89.16-6.31.19-12.63,0-18.94-.11-3.43,1.95-3.12,4.19-3.14,2.43,0,4.65-.28,4.44,3.41-.26,4.47.05,9-.11,13.46-.09,2.59.84,3.55,3.44,3.47,4.81-.13,9.63,0,14.45,0,2,0,3.07.43,3,2.73C50.05,32.63,48.28,32,47,32,43.14,32,39.31,32,35.49,32Z" transform="translate(217.13 39.62)"/><path class="cls-2" d="M145.67,19.5c0-2.5,0-5,0-7.5,0-4.67,2.81-6.55,7.18-5,1.62.57,1.31,1.74,1.32,2.8,0,6.5-.11,13,.07,19.49.1,3.88-2.59,2.57-4.45,2.71-2.12.16-4.45.6-4.17-3C145.87,25.85,145.67,22.67,145.67,19.5Z" transform="translate(217.13 39.62)"/><path class="cls-3" d="M-80.3,21.51H-90.47" transform="translate(217.13 39.62)"/><path class="cls-3" d="M-85.62,13.33" transform="translate(217.13 39.62)"/></svg>