<svg id="Layer_1" data-name="Layer 1" xmlns="http://www.w3.org/2000/svg" viewBox="0 0 364.62 125.38"><defs><style>.cls-1{fill:#091f40;}.cls-2{fill:#b78932;}.cls-3{fill:#fdfdfd;}</style></defs><title>FIU SCIS</title><path class="cls-1" d="M206.86,22.06a6.13,6.13,0,0,1-1.46,3,6.34,6.34,0,0,1-3.59,1.9,10.42,10.42,0,0,1-6.68-.49,4.94,4.94,0,0,1-2.94-3.26c-.19-.69-.17-1,.7-1a12.51,12.51,0,0,0,2,0,1.8,1.8,0,0,1,1.92.94c.79,1.28,2.21,1.28,3.55,1a2.85,2.85,0,0,0,2.36-2.53,23.17,23.17,0,0,0,0-2.92,5.37,5.37,0,0,1-3.9,2.1c-3.93.28-6.46-1.72-7.16-5.62a9.9,9.9,0,0,1,.8-6.41A6.37,6.37,0,0,1,200,5.62a4.78,4.78,0,0,1,2.59,1.81c.08,0,.2-.09.2-.11-.2-1.35.44-1.73,1.68-1.53.82.13,1.67-.18,2.47.17l0,14.52Zm-4-8.91a5.62,5.62,0,0,0-.36-2.24,3.2,3.2,0,0,0-3.08-2.23,3.07,3.07,0,0,0-3.12,2.14,6.14,6.14,0,0,0,.19,5.1,3,3,0,0,0,3.58,1.65C201.87,17.16,202.85,15.64,202.84,13.15Z" transform="translate(157.67 38.47)"/><path class="cls-2" d="M-61.68-.48c0-5.92,0-11.84,0-17.76,0-1-.26-1.26-1.2-1.18s-1.76,0-2.64,0c-.6,0-.85-.15-.85-.81q0-8.68,0-17.39c0-.72.28-.86.92-.86q13.5,0,27,0c.71,0,.87.26.87.91q0,8.64,0,17.28c0,.69-.24.86-.9.87-2.05.05-2.05.07-2.05,2.09,0,9.68,0,19.36,0,29,0,1,.2,1.32,1.23,1.28,2.24-.08,4.48,0,6.72,0,.68,0,.88-.22.88-.9q0-15.28,0-30.59c0-.75-.26-.93-1-.94-2.34,0-2.34,0-2.34-2.39C-35-26.89-35-32-35-37c0-1,.18-1.43,1.34-1.42,8.84.06,17.68,0,26.52,0,1,0,1.31.18,1.3,1.23-.06,5.55,0,11.11,0,16.67,0,1-.3,1.25-1.22,1.18s-1.84,0-2.76,0c-.5,0-.75.16-.7.69,0,.27,0,.56,0,.84q0,17.5,0,35a2.65,2.65,0,0,1-.8,2Q-16.94,25-22.45,30.92a2.8,2.8,0,0,1-2.27,1c-7.68,0-15.36,0-23,0a2.17,2.17,0,0,1-1.75-.76c-3.77-4-7.59-8-11.42-12a2.48,2.48,0,0,1-.77-1.89C-61.67,11.35-61.68,5.43-61.68-.48Zm48.8-1.18c0-6.28,0-12.55,0-18.83,0-.86.18-1.25,1.12-1.17s1.76,0,2.64,0,1-.24,1-1q-.06-6.3,0-12.59c0-.77-.2-1-1-1q-11,0-22.07,0c-.79,0-1,.24-1,1,0,4,0,8,0,12,0,1.86-.14,1.62,1.6,1.6.75,0,1.14.09,1.14,1q0,16.92,0,33.83a2.22,2.22,0,0,1-2.18,2.17h-8.52c-1.78,0-2.58-.81-2.58-2.61,0-11,0-21.91,0-32.87,0-1.3.38-1.72,1.59-1.52.89.15,1.15-.2,1.14-1.11,0-4.16,0-8.32,0-12.48,0-.74-.16-1-1-1q-11,0-22.08,0c-.81,0-1,.28-1,1,0,3.44,0,6.88,0,10.32,0,1-.33,2.39.19,3s2,.31,3.08.22c1.3-.1,1.48.42,1.48,1.56,0,12.36,0,24.71,0,37.07a2.57,2.57,0,0,0,.74,1.92q4.79,5,9.51,10a2.1,2.1,0,0,0,1.67.73q11.34,0,22.67,0a1.94,1.94,0,0,0,1.57-.66q4.76-5.07,9.59-10.07a2.49,2.49,0,0,0,.75-1.9C-12.9,10.74-12.88,4.54-12.88-1.66Z" transform="translate(157.67 38.47)"/><path class="cls-2" d="M-129.57-38.44c8.84,0,17.68,0,26.52,0,1.13,0,1.36.34,1.35,1.4,0,6.92,0,13.84,0,20.76,0,1.14-.35,1.37-1.41,1.36q-9.24-.08-18.48,0c-1,0-1.39-.21-1.28-1.25.08-.79,0-1.6,0-2.4,0-.64-.22-.82-.84-.81-2.35,0-4.72,0-7.08,0-.52,0-.81.11-.8.72,0,2.16,0,4.32,0,6.48,0,.86.53.72,1,.72,4.44,0,8.88.07,13.32,0,1,0,1.3.22,1.29,1.25q-.07,8,0,16c0,1-.28,1.2-1.21,1.19-4.4,0-8.8,0-13.2,0-1,0-1.3.29-1.23,1.27.08,1.32,0,2.64,0,4,0,.7.23.91.9.88.91,0,1.84,0,2.76,0,.59,0,.87.16.86.81,0,5.76,0,11.52,0,17.28,0,1-.63.81-1.21.82h-21.36c-2.32,0-4.64,0-7,0-.8,0-1.1-.17-1.1-1q.06-8.4,0-16.8c0-.83.22-1.14,1.07-1.07s1.76-.05,2.63,0,1.2-.28,1.19-1.21c0-7.31,0-14.63,0-22,0-2.56-.08-5.13,0-7.68.06-1.29-.39-1.6-1.55-1.48-.84.09-1.68,0-2.52,0-.62,0-.84-.21-.84-.83,0-5.84,0-11.68,0-17.52,0-1,.66-.79,1.21-.79Zm-.17,2.2h-24.47c-.51,0-1.16-.22-1.15.73q0,6.54,0,13.08c0,.66.28.82.87.8.88,0,1.77.06,2.64,0,1.07-.1,1.4.23,1.4,1.36-.05,9,0,18.07,0,27.11,0,2.56,0,5.12,0,7.68,0,.68-.19.92-.88.88-1,0-2,0-3,0-.77,0-1,.19-1,1q.06,6.12,0,12.23c0,.82.3,1,1.05,1q12,0,24,0c.91,0,1-.36,1-1.13,0-3.28,0-6.56,0-9.84,0-1,.44-2.37-.17-3s-2.05-.15-3.11-.24h-.24c-.88.15-1.06-.28-1.05-1.08.05-2.8.07-5.6,0-8.4,0-1,.19-1.37,1.3-1.35,4.35.07,8.71,0,13.07.06,1,0,1.25-.3,1.24-1.27q-.09-5.64,0-11.28c0-1-.27-1.19-1.2-1.18-4.44,0-8.88,0-13.32,0-.82,0-1.1-.21-1.09-1.06q.08-5.22,0-10.44c0-.87.31-1.07,1.11-1.06,3.12,0,6.24,0,9.36,0,1,0,2.27-.42,2.9.17s.16,2,.25,3v.12c-.13.82.18,1.1,1,1.09q7-.06,14,0c.9,0,1.15-.23,1.15-1.13q-.07-8.34,0-16.68c0-1-.27-1.2-1.21-1.19C-113.42-36.23-121.58-36.24-129.74-36.24Z" transform="translate(157.67 38.47)"/><path class="cls-2" d="M-73.29-3.12c0,5,0,10,0,15,0,.9.24,1.17,1.14,1.14,1.1,0,2.55-.49,3.24.17s.24,2.19.24,3.33c0,4.72,0,9.44,0,14.16,0,.88-.14,1.24-1.16,1.23q-14.15-.06-28.3,0c-.89,0-1.17-.22-1.17-1.13q.06-8.34,0-16.68c0-.91.28-1.21,1.17-1.12s1.53-.07,2.27,0c1.17.16,1.35-.36,1.35-1.4,0-5.87,0-11.75,0-17.63,0-4,0-8.08,0-12.11,0-1-.16-1.35-1.22-1.3s-2.63.54-3.33-.22-.19-2.22-.2-3.37c0-4.71,0-9.43,0-14.15,0-1,.19-1.3,1.23-1.29q14.16.06,28.31,0c.88,0,1.14.2,1.13,1.12q-.06,8.45,0,16.91c0,.86-.25,1.11-1.08,1s-1.6.05-2.39,0-1.23.22-1.23,1.19C-73.27-13.19-73.29-8.15-73.29-3.12ZM-92.2-3.19c0,5.76,0,11.52,0,17.27,0,1.1-.33,1.4-1.35,1.29-.79-.08-1.6,0-2.4,0s-1,.22-1,1q.06,6.12,0,12.24c0,.82.3,1,1,1q11.94,0,23.88,0c.86,0,1.07-.29,1.06-1.1,0-3.24,0-6.48,0-9.72,0-1.1.51-2.52-.24-3.21s-2.07-.22-3.14-.17-1.27-.23-1.26-1.24c0-10.72,0-21.43,0-32.15,0-1.15-.48-2.63.19-3.37s2.18-.25,3.32-.23c.92,0,1.15-.29,1.13-1.17,0-3.52,0-7,0-10.56,0-2.9,0-2.9-2.94-2.9-7.32,0-14.64,0-22,0-.84,0-1.18.15-1.16,1.1,0,4.16,0,8.32,0,12.48,0,.87.29,1.11,1.1,1.05s1.69.05,2.52,0,1.23.21,1.22,1.18C-92.22-14.71-92.2-8.95-92.2-3.19Z" transform="translate(157.67 38.47)"/><path class="cls-1" d="M23.64-20.34c0-3.2,0-6.4,0-9.6,0-.86.15-1.18,1.1-1.17,4.64.06,9.28,0,13.92,0,.79,0,1.11.15,1.11,1,0,3,0,3-3,3-2.48,0-5,0-7.44,0-.81,0-1.05.24-1,1a17.9,17.9,0,0,1,0,2.64c-.05.74.2,1,.94.94,2.76-.05,5.52,0,8.28,0,.89,0,1.25.15,1.23,1.15-.06,2.63,0,2.63-2.61,2.63-2.32,0-4.64,0-7,0-.69,0-.9.2-.87.88a31.39,31.39,0,0,1,0,3.36c-.05.79.28.91,1,.9,3.2,0,6.4,0,9.6,0,.84,0,1.08.22,1.07,1.06,0,3,0,3-2.93,3-4.12,0-8.24,0-12.36,0-.82,0-1.09-.19-1.07-1C23.67-13.86,23.64-17.1,23.64-20.34Z" transform="translate(157.67 38.47)"/><path class="cls-1" d="M97,7.57c2.94-3.09,7.4-2.73,9.22.25a6,6,0,0,1,6-2.31,4.59,4.59,0,0,1,4.23,4.31c.28,3.63,0,7.28.12,10.91,0,.53-.2.73-.71.67h-.11c-1.12,0-2.56.37-3.26-.18s-.21-2.09-.24-3.2c-.07-2.27,0-4.55-.12-6.82A2.12,2.12,0,0,0,110,8.87a2.53,2.53,0,0,0-3,1.83,5.72,5.72,0,0,0-.25,1.89c0,2.63,0,5.27,0,7.91,0,.76-.21,1-.94.91a15,15,0,0,0-2.51,0c-.79.07-.91-.25-.91-1,0-3,.05-6.08,0-9.11,0-1.55-.7-2.29-1.94-2.48a2.78,2.78,0,0,0-3.1,1.7,4.89,4.89,0,0,0-.32,2c0,2.52-.06,5,0,7.55,0,1.1-.3,1.42-1.33,1.28s-2.28.44-2.85-.25-.17-1.83-.17-2.78c0-3.84,0-7.68,0-11.51,0-.81.17-1.2,1.05-1.08A7.87,7.87,0,0,0,95,5.8C96.72,5.8,96.72,5.8,97,7.57Z" transform="translate(157.67 38.47)"/><path class="cls-1" d="M35.68,13.44l.31-.53c.31-.59.11-1.65.68-1.8a11.77,11.77,0,0,1,3.09-.1c.54,0,.38.39.35.68a7.83,7.83,0,0,1-1.33,3.68c-.58.8-.41,1.26.19,1.9,1.17,1.26,2.25,2.59,3.55,4.1-1.86,0-3.54.07-5.21-.05-.38,0-.77-.66-1-1.09-.49-.77-.88-.83-1.62-.21a7.94,7.94,0,0,1-7.45,1.5,5.84,5.84,0,0,1-4.55-4.72A6,6,0,0,1,25,10.55c.65-.51,1.76-.79,2-1.41s-.8-1.34-1.16-2.09a5,5,0,0,1,3.9-7.27,7.7,7.7,0,0,1,2.75,0c2,.44,3.66,1.5,4.15,3.65a5.39,5.39,0,0,1-2.19,5.81c-1.34,1-1.33,1-.28,2.31Zm-5.94,4.82a4.49,4.49,0,0,0,3-1.36c.41-.38.45-.63.06-1.07-.94-1.08-1.86-2.19-2.73-3.34-.35-.46-.66-.51-1.08-.21a11.07,11.07,0,0,0-1.33,1,2.68,2.68,0,0,0-.76,3.15A3.06,3.06,0,0,0,29.74,18.26Zm-.5-13.77c0,.93,1.13,3,1.68,3,.77,0,2.08-1.73,2.08-2.8a2,2,0,0,0-1.88-2.07A1.83,1.83,0,0,0,29.24,4.49Z" transform="translate(157.67 38.47)"/><path class="cls-1" d="M186.72-12.22c-3.69,3.8-9.31,2.48-10.83-2.36a10.89,10.89,0,0,1-.14-5.91c1.27-5.23,7.61-6.83,10.89-3.08.24-1.59.24-1.59,2-1.59,2.21,0,2.21,0,2.21,2.15,0,4.16,0,8.32,0,12.48,0,3.67-1.73,5.82-5.35,6.55a10.14,10.14,0,0,1-6.56-.56A4.93,4.93,0,0,1,176-8c-.13-.53-.12-.83.57-.8,1,0,2,0,3,0a.83.83,0,0,1,.84.49,3.29,3.29,0,0,0,4,1.53,3.18,3.18,0,0,0,2.3-3C186.77-10.52,186.72-11.28,186.72-12.22Zm0-5.57c0-2.3-.84-3.78-2.34-4.31-2.08-.74-3.9.33-4.49,2.63-.74,2.9.48,5.71,2.64,6.08C185-13,186.8-14.85,186.76-17.79Z" transform="translate(157.67 38.47)"/><path class="cls-1" d="M71.24-23.32c.07-1.84.07-1.84,1.76-1.84,2.36,0,2.36,0,2.36,2.35v12.23C75.36-6.91,73.64-4.75,70-4a10.23,10.23,0,0,1-6.57-.54,5,5,0,0,1-2.87-3.18c-.21-.7-.2-1.17.76-1.06a11.88,11.88,0,0,0,1.79,0,1.9,1.9,0,0,1,2.12,1c.68,1.23,2.08,1.19,3.33,1a2.83,2.83,0,0,0,2.43-2,10,10,0,0,0,.24-3.52A5.88,5.88,0,0,1,66.38-10a5.91,5.91,0,0,1-5.95-4.46,10.58,10.58,0,0,1,.11-6.83C62.25-26.19,68.67-26.95,71.24-23.32Zm-7,5.5a5.58,5.58,0,0,0,.53,2.66,3.24,3.24,0,0,0,5.53.54,5,5,0,0,0,.92-3.51c-.16-2.7-1.47-4.22-3.61-4.19S64.28-20.63,64.28-17.82Z" transform="translate(157.67 38.47)"/><path class="cls-1" d="M69.07,7.2c-.24,0-.48,0-.72,0a1.59,1.59,0,0,1-2-1.2,4.19,4.19,0,0,0-4.13-2.57,4.82,4.82,0,0,0-4.64,2.45,9.52,9.52,0,0,0-.12,9.4,5.07,5.07,0,0,0,5.38,2.55c2-.27,3.33-1.48,3.92-3.8.18-.74.45-1.06,1.26-1a19.55,19.55,0,0,0,2.76,0c.68,0,.79.23.73.84a9,9,0,0,1-8.17,7.94C55,22.56,50.7,16.05,51.74,8.77c.72-5.13,3.57-8.29,8.15-9.13,3.65-.67,7,0,9.61,2.9a8.29,8.29,0,0,1,1.79,3.74c.17.74,0,1-.78.93A11.52,11.52,0,0,0,69.07,7.2Z" transform="translate(157.67 38.47)"/><path class="cls-1" d="M124.12,19.68c0,2.27,0,4.34,0,6.4,0,.62-.14.85-.79.81-1-.05-1.92,0-2.87,0-.53,0-.68-.18-.68-.69q0-9.84,0-19.67c0-.58.21-.77.77-.74s1.12,0,1.68,0c1.62,0,1.62,0,1.66,1.85a6.17,6.17,0,0,1,3.31-2.12A6.6,6.6,0,0,1,135,9.94a10.68,10.68,0,0,1,.07,7.29C133.42,22.06,128.06,23.35,124.12,19.68Zm7.2-6a6.61,6.61,0,0,0-.74-3.23,3.19,3.19,0,0,0-3-1.75,3,3,0,0,0-2.94,1.89,7.29,7.29,0,0,0,0,6,3.44,3.44,0,0,0,6.19,0A6.46,6.46,0,0,0,131.32,13.67Z" transform="translate(157.67 38.47)"/><path class="cls-2" d="M7.68-3.36q0-16.92,0-33.83c0-.4-.26-1,.24-1.17a5.77,5.77,0,0,1,1.9,0c.21,0,.21.3.21.5s0,.56,0,.84V30.51A1.36,1.36,0,0,1,8,31.87c-.3-.12-.3-.33-.31-.57s0-.64,0-1Z" transform="translate(157.67 38.47)"/><path class="cls-1" d="M148.51,19.49a6.08,6.08,0,0,1-6,2.26c-2.56-.4-4-1.73-4.22-4.31-.37-3.66-.1-7.34-.16-11,0-.45.16-.59.63-.63,3.69-.37,3.68-.38,3.7,3.32,0,2.2,0,4.4.1,6.59.09,1.75.94,2.61,2.44,2.72a2.79,2.79,0,0,0,3.18-2.28,11.44,11.44,0,0,0,.26-2.49q0-3.4,0-6.83c0-.72.1-1.12,1-1,1.07.1,2.47-.33,3.14.2s.21,2,.22,3.1c0,3.75,0,7.51,0,11.27,0,.82-.19,1.18-1.05,1.06a9.68,9.68,0,0,0-1.32,0C148.68,21.4,148.68,21.4,148.51,19.49Z" transform="translate(157.67 38.47)"/><path class="cls-1" d="M46.89-23.26a5.91,5.91,0,0,1,5.63-2.28c2.8.27,4.37,1.8,4.59,4.6.29,3.54.07,7.1.14,10.66,0,.51-.15.71-.68.69a22.93,22.93,0,0,0-2.75,0c-.78.06-.92-.25-.92-1,0-2.91,0-5.83-.08-8.74-.08-2-.89-2.8-2.51-2.84-2-.05-3.06.83-3.26,2.86a80.35,80.35,0,0,0-.1,8.5c0,.94-.24,1.28-1.19,1.18a9.66,9.66,0,0,0-2.15,0c-.89.09-1-.28-1-1.08q.06-6.72,0-13.43c0-.8.16-1.21,1-1.08a7.77,7.77,0,0,0,1.08,0C46.62-25.16,46.62-25.16,46.89-23.26Z" transform="translate(157.67 38.47)"/><path class="cls-1" d="M113.39-16.32c-1.56,0-3.12.05-4.68,0-.84,0-.9.27-.75,1a3.16,3.16,0,0,0,2.1,2.67c1.51.49,3.1.46,4.11-.76a2.94,2.94,0,0,1,2.82-1c.54,0,1.31-.29,1.55.18s-.27,1.11-.56,1.62c-1.64,2.82-4.62,4-8.43,3.27a7.28,7.28,0,0,1-5.86-6.05c-.78-4.49,1.13-8.46,4.9-9.67,6.34-2,10.57,2.28,10.46,8.17,0,.61-.31.6-.74.59Zm-2.24-2.76H114c.37,0,.68,0,.56-.57a3.17,3.17,0,0,0-3.06-2.67A3.34,3.34,0,0,0,108-19.89c-.16.62,0,.86.66.82S110.31-19.08,111.15-19.08Z" transform="translate(157.67 38.47)"/><path class="cls-1" d="M130.66-16.32c-1.64,0-3.27,0-4.91,0-.6,0-.76.16-.64.75a3.36,3.36,0,0,0,2.08,2.85c1.48.52,3.11.54,4.11-.67a3.06,3.06,0,0,1,2.91-1c.54,0,1.31-.29,1.56.17s-.28,1.1-.57,1.61c-1.55,2.7-4.41,3.91-7.94,3.37A7.2,7.2,0,0,1,121-15c-1-4.51.92-8.77,4.79-10,5.91-1.95,10.51,1.73,10.51,8.11,0,.69-.38.64-.83.64Zm-2.26-2.76c.88,0,1.75,0,2.63,0s.88-.23.68-.9a3.08,3.08,0,0,0-2.94-2.35,3.38,3.38,0,0,0-3.48,2.17c-.27.72-.3,1.19.73,1.09A23.62,23.62,0,0,1,128.4-19.08Z" transform="translate(157.67 38.47)"/><path class="cls-1" d="M73.84,13.13c.43-5.12,3.77-8.06,8.58-7.72,5,.36,7.76,3.9,7.5,8.7-.28,5.17-3.86,8.14-9,7.69A7.65,7.65,0,0,1,73.84,13.13Zm4.29.62c.06.61.07,1.1.16,1.57.39,2,1.63,3.16,3.43,3.2a3.45,3.45,0,0,0,3.67-2.92,8,8,0,0,0-.21-4.6,3.52,3.52,0,0,0-6.6-.05A8.65,8.65,0,0,0,78.13,13.75Z" transform="translate(157.67 38.47)"/><path class="cls-1" d="M90.78-23.32A5.89,5.89,0,0,1,96-25.57c3.07.14,4.9,1.72,5,4.79.16,3.51.06,7,.1,10.55,0,.43-.09.7-.59.63h-.24c-1.14-.09-2.62.5-3.32-.25-.55-.58-.17-2-.18-3.11,0-1.92,0-3.84,0-5.75,0-2.33-.82-3.35-2.49-3.41-2.14-.08-3.12.78-3.37,3.13a71.12,71.12,0,0,0-.1,8.26c0,1-.28,1.25-1.19,1.14s-2.38.44-3-.23-.17-1.89-.18-2.88c0-3.8,0-7.6,0-11.39,0-.8.16-1.21,1-1.08a6.14,6.14,0,0,0,1,0C90.37-25.16,90.37-25.16,90.78-23.32Z" transform="translate(157.67 38.47)"/><path class="cls-1" d="M162.26-23.12a6.09,6.09,0,0,1,6.08-2.37,4.39,4.39,0,0,1,4.21,4.15c.46,3.7.11,7.42.22,11.13,0,.49-.18.66-.63.61H172c-1.16,0-2.62.36-3.36-.2s-.17-2.09-.21-3.19c-.09-2.24.16-4.48-.15-6.7-.23-1.61-1-2.36-2.31-2.43-1.86-.1-2.81.52-3.28,2.1a8.69,8.69,0,0,0-.27,2.49c0,2.35,0,4.71,0,7.07,0,.67-.18.92-.87.87-1.11-.07-2.56.36-3.24-.2s-.21-2.09-.22-3.19c0-3.71,0-7.43,0-11.14,0-.84.23-1.16,1.06-1.05a9.69,9.69,0,0,0,1.32,0C162.22-25.16,162.22-25.16,162.26-23.12Z" transform="translate(157.67 38.47)"/><path class="cls-1" d="M178.36,7.91a6.11,6.11,0,0,1,6.15-2.41,4.29,4.29,0,0,1,4.07,3.76c.58,3.85.15,7.75.26,11.62,0,.34-.13.52-.48.52h-.48c-1.07,0-2.47.35-3.13-.18s-.2-2-.22-3.08c0-2,0-4,0-6-.06-2.45-1.13-3.48-3.25-3.27a2.58,2.58,0,0,0-2.33,1.77,6.26,6.26,0,0,0-.37,2.35c0,2.52,0,5,0,7.56,0,.68-.18.91-.87.86-1.11-.07-2.57.37-3.24-.19s-.21-2.1-.22-3.2c0-3.76,0-7.52,0-11.28,0-.69.11-1.06.9-1a8,8,0,0,0,1.2,0C178.28,5.8,178.28,5.8,178.36,7.91Z" transform="translate(157.67 38.47)"/><path class="cls-1" d="M161.4,3.49c0,2.22,0,2.24,2.29,2.29.59,0,.92.14.83.8V6.7c.07,2.05.07,2.1-2,2-.95,0-1.22.25-1.19,1.2.07,2.11,0,4.23,0,6.35,0,1.55.5,2.06,2,1.87.83-.1,1.1,0,1.09.91,0,2.55,0,2.56-2.58,2.52a11.52,11.52,0,0,1-2-.2A3.07,3.07,0,0,1,157.09,18c0-2.68-.05-5.36,0-8,0-.9-.17-1.32-1.17-1.23-.44,0-1.21.37-1.35-.27A5.51,5.51,0,0,1,154.64,6c.11-.4.87-.19,1.31-.15.85.07,1.25-.14,1.15-1.09s0-1.69,0-2.52.28-1.13,1.08-1a6.15,6.15,0,0,0,1,0C161.4,1.2,161.4,1.2,161.4,3.49Z" transform="translate(157.67 38.47)"/><path class="cls-1" d="M142.85-22.54a5.73,5.73,0,0,1,4.81-3c.74,0,1.27.12,1.1,1a2.16,2.16,0,0,0,0,.36,5.59,5.59,0,0,1-.08,2.36c-.39.77-1.4.13-2.13.24-2.14.35-3.45,1.92-3.5,4.45,0,2.2,0,4.39,0,6.59,0,.69-.11,1-.9.95-1.1-.1-2.57.34-3.23-.22s-.19-2.09-.2-3.2c0-3.71,0-7.42,0-11.14,0-.85.24-1.16,1.07-1a3.68,3.68,0,0,0,.47,0C142.72-25.16,142.72-25.16,142.85-22.54Z" transform="translate(157.67 38.47)"/><path class="cls-2" d="M-69,86.56c-1.63.06-3,.4-3.86-1.14-.29-.53-.6,0-.84.18a5.07,5.07,0,0,1-4.11,1.24,4.08,4.08,0,0,1-3.71-2.91,4.08,4.08,0,0,1,1.58-4.56,5,5,0,0,1,.79-.53c.57-.26.68-.52.25-1a4.3,4.3,0,0,1-.75-1.36A3.38,3.38,0,0,1-78,72.26a3.93,3.93,0,0,1,4.67,1,3.68,3.68,0,0,1-.51,4.7c-.39.39-1.22.81-1.16,1.08.11.55.67,1,1.06,1.52.22.27.47.53.69.78.4-.14.33-.48.4-.72a1.51,1.51,0,0,1,2-.92c.34.14.24.37.19.58a4.83,4.83,0,0,1-.42,1.61c-.71,1.12-.3,1.9.5,2.7C-70.06,85.13-69.61,85.78-69,86.56ZM-77,85a2.9,2.9,0,0,0,1.16-.24c1.37-.64,1.52-1.23.57-2.38l-1.5-1.85c-.18-.21-.32-.42-.69-.34a2.72,2.72,0,0,0-1.86,2.75A2.16,2.16,0,0,0-77,85Zm2.14-10a1.27,1.27,0,0,0-1.38-1.29,1.38,1.38,0,0,0-1.48,1.5c0,.72.94,2.18,1.39,2.16C-75.71,77.33-74.84,76.09-74.85,75Z" transform="translate(157.67 38.47)"/><path class="cls-2" d="M54,86.87c-3.19,0-5.26-1.36-5.8-3.91-.08-.37-.52-1.14.27-1.1s1.81-.76,2.22.57a3.83,3.83,0,0,0,5.7,1.79,1.87,1.87,0,0,0,.77-1.89,1.66,1.66,0,0,0-1.29-1.42c-1.6-.49-3.23-.89-4.82-1.4a3.33,3.33,0,0,1-2.46-3.21,3.81,3.81,0,0,1,2-3.59,6.76,6.76,0,0,1,3-.83c2.64-.25,5,1.14,5.65,3.29.12.44.53,1.22-.19,1.27s-1.79.7-2.28-.51a3.31,3.31,0,0,0-4.76-1.47A1.56,1.56,0,0,0,51.14,76a1.71,1.71,0,0,0,1.34,1.52c1.49.44,3,.78,4.5,1.25a4,4,0,0,1,1.51,6.67A5.75,5.75,0,0,1,55,86.87,9.55,9.55,0,0,1,54,86.87Z" transform="translate(157.67 38.47)"/><path class="cls-2" d="M-69.33,62.92c-3.23,0-5.36-1.42-5.88-4-.08-.38-.48-1.13.35-1.07s1.73-.67,2.13.53a3.83,3.83,0,0,0,5.57,1.94,1.91,1.91,0,0,0,1-1.82,1.66,1.66,0,0,0-1.26-1.57c-1.41-.43-2.85-.78-4.26-1.2-2-.59-3-1.72-3.09-3.49A4,4,0,0,1-72,48.33a6.77,6.77,0,0,1,6.19.61,3.57,3.57,0,0,1,1.39,1.61c.27.57.69,1.36.26,1.79s-1.37.18-2.08.15c-.42,0-.39-.44-.47-.74-.51-2.08-3.94-2.18-5-1-.91.94-.46,2.34,1,2.79s2.93.77,4.38,1.22a3.93,3.93,0,0,1,2.23,5.89,5.2,5.2,0,0,1-4,2.24C-68.61,62.91-69,62.9-69.33,62.92Z" transform="translate(157.67 38.47)"/><path class="cls-2" d="M-18.08,77.3c2.3-1.86,3.75-1.91,5.79-.2.49.41.62,0,.84-.19a4,4,0,0,1,2.85-1c2.13,0,3.28,1.14,3.31,3.25s0,4.4,0,6.6c0,1-.5.91-1.12.87s-1.32.28-1.28-.84c.06-2,0-3.91,0-5.87,0-1.51-.51-2.07-1.7-2.13a1.92,1.92,0,0,0-2.19,2c-.1,1.92-.11,3.84-.05,5.76,0,.94-.33,1.13-1.19,1.11s-1.25,0-1.2-1.07c.08-1.79,0-3.59,0-5.39s-.52-2.37-1.7-2.41A2.31,2.31,0,0,0-18,80.16c-.06,1.8-.08,3.6,0,5.4,0,1-.39,1.08-1.19,1.07s-1.26,0-1.23-1c.07-2.76,0-5.52,0-8.28,0-.47-.22-1.18.64-1.11C-19,76.25-17.92,75.63-18.08,77.3Z" transform="translate(157.67 38.47)"/><path class="cls-2" d="M47,53.65c1.48-1.71,3.18-2.4,4.64-1.44s2.18.55,3.47,0C57.75,51,60,52.61,60,55.56c0,2-.05,4.08,0,6.12,0,1-.55.94-1.21.93s-1.25.13-1.2-.92c.08-1.91,0-3.84,0-5.75,0-1.42-.49-2.06-1.55-2.17a2,2,0,0,0-2.34,1.84,34.75,34.75,0,0,0-.12,5.86c0,.86-.17,1.21-1.11,1.17s-1.33-.1-1.28-1.15c.08-1.92,0-3.84,0-5.76,0-1-.25-1.78-1.36-1.94a2.1,2.1,0,0,0-2.33,1.29,3.43,3.43,0,0,0-.27,1.64c0,1.68,0,3.36,0,5,.05,1.11-.69.81-1.28.84s-1.15.11-1.13-.87c.07-2.79,0-5.59,0-8.39,0-.57-.2-1.27.82-1.18C46.42,52.23,47.36,51.93,47,53.65Z" transform="translate(157.67 38.47)"/><path class="cls-2" d="M116.19,61.08a4.19,4.19,0,0,1-4.49,1.32l-.11,0c-2.49-.74-3.78-3.87-2.9-7A4.5,4.5,0,0,1,114.2,52a3.57,3.57,0,0,1,1.89,1.27c0-1.63,1.15-1.08,1.89-1.09,1,0,.55.81.56,1.25,0,2.64-.09,5.28,0,7.91.24,4.74-3.18,5.73-6.48,5.19A3.61,3.61,0,0,1,109,64.29c-.24-.63-.13-1,.65-.91a2.12,2.12,0,0,1,2,.84c.75,1,2,.77,3.12.49a2,2,0,0,0,1.42-2C116.21,62.25,116.19,61.78,116.19,61.08Zm0-4a7.86,7.86,0,0,0-.12-1.09,2.64,2.64,0,0,0-2.49-2.19,2.49,2.49,0,0,0-2.58,2,5.44,5.44,0,0,0-.17,2.12,2.65,2.65,0,1,0,5.3.06C116.19,57.69,116.19,57.42,116.21,57Z" transform="translate(157.67 38.47)"/><path class="cls-2" d="M25,62.92c-4.09,0-7.09-3.33-6.89-7.69.18-3.72,2-6.27,5-7.1,3.3-.92,6.72.57,7.68,3.37.14.41.52.9,0,1.29a3.14,3.14,0,0,1-2.43-.37c-1.41-2.26-2.27-2.73-4.28-2.31-1.8.38-2.89,1.74-3.29,4a7.54,7.54,0,0,0,.3,3.89,3.93,3.93,0,0,0,4,2.84c1.73-.06,2.81-1,3.39-3,.38-1.36,1.45-.61,2.17-.64.89,0,.33.72.27,1.07A5.72,5.72,0,0,1,25,62.92Z" transform="translate(157.67 38.47)"/><path class="cls-2" d="M64.55,53.35a4.44,4.44,0,0,1,5.28-1.05c2.12.91,2.72,2.8,2.84,4.88.21,3.58-2.08,6-5.17,5.66a5.06,5.06,0,0,1-2.79-1.36c0,1.52-.06,2.77,0,4,.06,1-.49,1-1.19,1s-1.21.06-1.19-.95c0-4.11,0-8.22,0-12.33,0-.54-.08-1.09.75-1C63.78,52.24,64.77,51.78,64.55,53.35Zm5.77,4.09a4.63,4.63,0,0,0-.58-2.28A2.62,2.62,0,0,0,65,55.4a4.71,4.71,0,0,0,.13,4.14A2.5,2.5,0,0,0,67.67,61C69.24,60.88,70.31,59.47,70.32,57.44Z" transform="translate(157.67 38.47)"/><path class="cls-1" d="M83.16-17.29c0,2.28,0,4.56,0,6.83,0,.68-.19.92-.88.87-1.11-.07-2.58.36-3.24-.2s-.21-2.11-.21-3.22c0-3.72,0-7.44,0-11.16,0-.75.17-1.09,1-1,1.06.11,2.46-.43,3.12.2s.19,2,.21,3.12C83.19-20.33,83.16-18.81,83.16-17.29Z" transform="translate(157.67 38.47)"/><path class="cls-1" d="M154.8-17.33c0,2.28,0,4.56,0,6.83,0,.77-.21,1-.94.92a19.24,19.24,0,0,0-2.63,0c-.66.05-.79-.21-.78-.81q0-7,0-13.9c0-.68.18-.92.87-.87,1.1.07,2.56-.35,3.23.21s.19,2.09.22,3.2C154.83-20.28,154.8-18.81,154.8-17.33Z" transform="translate(157.67 38.47)"/><path class="cls-1" d="M170.92,13.56c0,2.28,0,4.55,0,6.83,0,.72-.09,1.13-.94,1-1.1-.14-2.57.48-3.2-.26s-.18-2-.19-3.12c0-3.67,0-7.35,0-11,0-1,.31-1.32,1.28-1.22a11,11,0,0,0,2.15,0c.76-.07.95.21.94.94C170.89,9,170.92,11.28,170.92,13.56Z" transform="translate(157.67 38.47)"/><path class="cls-2" d="M5.76,81.44v2.4c0,.56-.06,1.15.81,1.15.48,0,.35.46.35.74s.16.78-.32.92c-.9.28-1.89.51-2.58-.29-.48-.57-.76-.39-1.25-.14a5.3,5.3,0,0,1-3.94.47,2.85,2.85,0,0,1-2.34-2.92A2.67,2.67,0,0,1-1.3,80.9c.91-.25,1.87-.33,2.81-.5a7.12,7.12,0,0,0,1.4-.31,1.08,1.08,0,0,0,.25-1.86c-1-.84-3.15-.6-3.72.52s-1.51.52-2.28.61c-.38,0-.26-.42-.2-.67a2.94,2.94,0,0,1,1.59-2.13,6.37,6.37,0,0,1,5.66-.11,2.51,2.51,0,0,1,1.56,2.48C5.75,79.77,5.76,80.6,5.76,81.44ZM3.37,82.62c-.28-.17.46-1-.4-1a13.07,13.07,0,0,0-3,.57c-1.11.34-1.49,1.62-.7,2.22a2.83,2.83,0,0,0,2.94.26A1.8,1.8,0,0,0,3.37,82.62Z" transform="translate(157.67 38.47)"/><path class="cls-2" d="M-48.33,53.2a4.62,4.62,0,0,1,4-1.24,3.14,3.14,0,0,1,2.78,3.24c0,2.2,0,4.4,0,6.6,0,1-.64.8-1.2.8s-1.23.26-1.2-.79c.06-1.88,0-3.76,0-5.64,0-1.62-.6-2.37-1.86-2.41a2.38,2.38,0,0,0-2.52,2.35q-.11,2.7,0,5.4c0,.93-.31,1.15-1.18,1.12s-1.23,0-1.22-1.06c.07-4.12.06-8.24,0-12.36,0-.94.39-1,1.13-1s1.35-.09,1.26,1S-48.33,51.7-48.33,53.2Z" transform="translate(157.67 38.47)"/><path class="cls-2" d="M120.44,83.34a4.57,4.57,0,0,1-5,3.53,4.75,4.75,0,0,1-4.67-4.18c-.85-4.29,2.48-7.74,6.38-6.6a5.33,5.33,0,0,1,3.54,5.29c-.06.65-.4.67-.87.67-2,0-3.92,0-5.88,0-.88,0-1,.26-.77,1,.64,1.91,3.25,2.72,4.4,1.17C118.42,83.13,119.31,83.24,120.44,83.34Zm-4.85-2.91c.68,0,1.36,0,2,0s.68-.21.51-.72a2.52,2.52,0,0,0-2.06-1.92,2.48,2.48,0,0,0-2.63,1.27c-.23.37-.54.81-.3,1.22s.67.12,1,.14S115.11,80.43,115.59,80.43Z" transform="translate(157.67 38.47)"/><path class="cls-2" d="M83.12,82.05c-1,0-1.92,0-2.87,0s-1,.43-.77,1.09a2.42,2.42,0,0,0,1.91,1.79c1,.2,2.13.14,2.67-.85s1.36-.75,2.15-.78c.48,0,.52.26.39.62a3.74,3.74,0,0,1-.85,1.42,5.08,5.08,0,0,1-5.17,1.35,4.46,4.46,0,0,1-3.41-3.47c-.94-3.44.84-6.68,4-7.26a5.06,5.06,0,0,1,5.78,5.52c-.08.58-.4.59-.82.59Zm-1.18-1.62c.6,0,1.2,0,1.8,0s.9-.19.65-.83a2.56,2.56,0,0,0-2.27-1.84,2.64,2.64,0,0,0-2.57,1.61c-.3.72-.21,1.14.72,1.06C80.82,80.39,81.38,80.43,81.94,80.43Z" transform="translate(157.67 38.47)"/><path class="cls-2" d="M24.39,75.87c3.2,0,5.33,2.17,5.33,5.49s-2.13,5.53-5.3,5.52-5.21-2.13-5.22-5.43S21.18,75.89,24.39,75.87Zm-2.84,5.22a5.73,5.73,0,0,0,.22,1.81A2.77,2.77,0,0,0,24.39,85a2.74,2.74,0,0,0,2.71-2.12,4.43,4.43,0,0,0-.33-3.71,2.66,2.66,0,0,0-4.7,0A3.73,3.73,0,0,0,21.55,81.09Z" transform="translate(157.67 38.47)"/><path class="cls-2" d="M43,57.47c0,3.33-2,5.42-5.22,5.41s-5.3-2.24-5.26-5.55,2.13-5.49,5.35-5.46S43,54,43,57.47Zm-2.29-.12a12.86,12.86,0,0,0-.26-1.53,2.74,2.74,0,0,0-5.3,0,4.61,4.61,0,0,0,.39,3.93,2.66,2.66,0,0,0,4.51,0A4.53,4.53,0,0,0,40.71,57.35Z" transform="translate(157.67 38.47)"/><path class="cls-2" d="M4.85,57.51c0,3.32-2.07,5.39-5.26,5.37s-5.28-2.27-5.23-5.58,2.16-5.47,5.38-5.43S4.9,54.06,4.85,57.51Zm-2.36-.1a4.68,4.68,0,0,0-.27-1.77A2.71,2.71,0,0,0-.42,53.76a2.73,2.73,0,0,0-2.57,2,4.59,4.59,0,0,0,.4,4,2.68,2.68,0,0,0,4.46,0A4,4,0,0,0,2.49,57.41Z" transform="translate(157.67 38.47)"/><path class="cls-2" d="M-27.84,57.42c0-3.39,2-5.54,5.23-5.55s5.31,2.2,5.3,5.52-2.08,5.45-5.21,5.49S-27.83,60.76-27.84,57.42Zm2.34-.07a9.41,9.41,0,0,0,.13,1.19A2.91,2.91,0,0,0-22.65,61a2.79,2.79,0,0,0,2.78-2.34,4.48,4.48,0,0,0-.33-3.37,2.56,2.56,0,0,0-2.41-1.5,2.55,2.55,0,0,0-2.34,1.39A4.11,4.11,0,0,0-25.5,57.35Z" transform="translate(157.67 38.47)"/><path class="cls-2" d="M-29.24,57.44c0,3.33-2,5.43-5.2,5.44s-5.3-2.18-5.3-5.51,2.11-5.51,5.31-5.5S-29.23,54-29.24,57.44Zm-2.35,0a4.09,4.09,0,0,0-.69-2.49,2.66,2.66,0,0,0-4.38,0,4.74,4.74,0,0,0,0,4.89,2.69,2.69,0,0,0,4.46,0A4.13,4.13,0,0,0-31.59,57.39Z" transform="translate(157.67 38.47)"/><path class="cls-2" d="M-29.24,81.35c0,3.4-2,5.54-5.24,5.53s-5.28-2.21-5.27-5.54,2.13-5.49,5.34-5.47S-29.24,78-29.24,81.35Zm-2.35,0a5.57,5.57,0,0,0-.26-1.58,2.74,2.74,0,0,0-2.57-2,2.73,2.73,0,0,0-2.68,2,4.44,4.44,0,0,0,.38,4,2.66,2.66,0,0,0,4.5,0A4.41,4.41,0,0,0-31.59,81.31Z" transform="translate(157.67 38.47)"/><path class="cls-2" d="M126.36,86.88c-2.37,0-4-1-4.49-2.65-.19-.67-.2-1,.68-1s1.45-.07,1.92.91,3.07,1.15,3.88.28a1.05,1.05,0,0,0-.49-1.74,11.25,11.25,0,0,0-2.06-.58,9,9,0,0,1-2.39-.75,2.69,2.69,0,0,1-.38-4.58,6.12,6.12,0,0,1,6.25-.08,3,3,0,0,1,.69.65c.35.52.84,1.06.48,1.72-.22.4-2.08,0-2.43-.45a2.67,2.67,0,0,0-3.25-.54c-.67.46-.6,1.15.19,1.6a9.54,9.54,0,0,0,2.29.66,18,18,0,0,1,1.94.57A2.6,2.6,0,0,1,131,83.33a3,3,0,0,1-1.55,2.78A6.25,6.25,0,0,1,126.36,86.88Z" transform="translate(157.67 38.47)"/><path class="cls-2" d="M-54.74,77.47a4.32,4.32,0,0,1,3.2-1.6c2.21,0,3.59,1.19,3.67,3.38s0,4.39,0,6.59c0,1.15-.81.68-1.35.76s-1,0-1-.86c.06-1.75,0-3.51,0-5.27s-.61-2.68-2-2.71a2.53,2.53,0,0,0-2.51,2.76c0,1.72-.07,3.44,0,5.15,0,1-.51,1-1.19,1s-1.22.06-1.2-1c.06-2.75,0-5.51,0-8.26,0-.54-.25-1.3.77-1.24C-55.51,76.21-54.54,75.86-54.74,77.47Z" transform="translate(157.67 38.47)"/><path class="cls-2" d="M33.72,77.5c1.51-1.5,3-1.93,4.65-1.43a2.87,2.87,0,0,1,2.21,2.55c.28,2.43.07,4.87.12,7.3,0,1.07-.81.61-1.3.67s-1.06.17-1-.69c0-1.92,0-3.84,0-5.76,0-.86-.13-1.8-1.12-2.21a2.27,2.27,0,0,0-2.37.36,2.78,2.78,0,0,0-1,2.34c0,1.6-.06,3.2,0,4.79,0,.92-.19,1.22-1.17,1.23s-1.26-.32-1.24-1.3c.07-2.63,0-5.27,0-7.91,0-.5-.36-1.33.71-1.26C32.92,76.23,34,75.74,33.72,77.5Z" transform="translate(157.67 38.47)"/><path class="cls-2" d="M81.23,61.47a3.93,3.93,0,0,1-4,1.29A2.91,2.91,0,0,1,74.63,60a57.49,57.49,0,0,1-.12-7.19c0-1,.84-.57,1.34-.64s1-.07,1,.75c0,1.8,0,3.59,0,5.39s.58,2.6,1.9,2.65c1.57.06,2.51-.85,2.57-2.64s.06-3.52,0-5.27c0-.94.48-.92,1.12-.9s1.28-.17,1.26.89c-.05,2.76,0,5.52,0,8.27,0,.51.36,1.26-.7,1.29C81.54,62.67,81.45,62.67,81.23,61.47Z" transform="translate(157.67 38.47)"/><path class="cls-2" d="M99.7,53.44a4.74,4.74,0,0,1,2.58-1.51,3.4,3.4,0,0,1,4.31,3.5c0,2.08,0,4.16,0,6.23,0,1-.5,1-1.18,1s-1.25.07-1.21-.95c.08-1.83,0-3.67,0-5.51,0-1.65-.62-2.36-1.88-2.4a2.4,2.4,0,0,0-2.5,2.37c-.09,1.84-.11,3.68,0,5.52,0,1.13-.63.92-1.29,1s-1.14-.1-1.12-1c.06-2.72,0-5.44,0-8.15,0-.56-.33-1.37.81-1.3C99.06,52.21,100,52,99.7,53.44Z" transform="translate(157.67 38.47)"/><path class="cls-2" d="M90.66,77.72A4.81,4.81,0,0,1,93.28,76a3.41,3.41,0,0,1,4.42,3.36c.06,2.15,0,4.31,0,6.47,0,1-.6.83-1.18.82s-1.23.22-1.2-.8c0-1.84,0-3.68,0-5.51s-.62-2.49-1.88-2.53a2.46,2.46,0,0,0-2.54,2.61c0,1.75-.08,3.52,0,5.27.06,1.12-.62.93-1.29,1s-1.15-.08-1.12-1c.06-2.71,0-5.43,0-8.14,0-.55-.35-1.37.8-1.31C90.17,76.2,91.08,76,90.66,77.72Z" transform="translate(157.67 38.47)"/><path class="cls-2" d="M-53.81,55.68a1.11,1.11,0,0,1-1.37-.79,1.92,1.92,0,0,0-2.07-1.12,2.41,2.41,0,0,0-2.29,1.47,5,5,0,0,0,0,4.29A2.32,2.32,0,0,0-57.24,61a2.24,2.24,0,0,0,2.18-1.57,2,2,0,0,1,2.26-.77c.45.25.18.62.09.94a4.39,4.39,0,0,1-4.68,3.31,4.73,4.73,0,0,1-4.74-3.66,7.14,7.14,0,0,1,0-3.67A5.27,5.27,0,0,1-53.79,53a3.51,3.51,0,0,1,1,1.35C-52.32,55.53-52.42,55.68-53.81,55.68Z" transform="translate(157.67 38.47)"/><path class="cls-2" d="M109.34,79.62c-1.11.07-2.11.36-2.87-1.05s-3.15-1.06-4,.38a4.83,4.83,0,0,0,0,4.81A2.22,2.22,0,0,0,104.78,85a2.26,2.26,0,0,0,2-1.47,2,2,0,0,1,2.31-.89c.47.23.16.56.1.82a4.28,4.28,0,0,1-4,3.42A4.74,4.74,0,0,1,100.06,84a6.6,6.6,0,0,1,.26-5.78A4.92,4.92,0,0,1,105.78,76C108,76.42,109.07,77.5,109.34,79.62Z" transform="translate(157.67 38.47)"/><path class="cls-2" d="M69.51,79.68c-.6.12-1-.11-1.35-.81a2.45,2.45,0,0,0-4.29.27,4.85,4.85,0,0,0,0,4.39A2.34,2.34,0,0,0,66.1,85a2.27,2.27,0,0,0,2.19-1.56,2,2,0,0,1,2.34-.76c.33.26.11.58,0,.87a4.35,4.35,0,0,1-4.18,3.33,4.76,4.76,0,0,1-5-2.91,6.66,6.66,0,0,1,0-5.13A4.55,4.55,0,0,1,66,75.89c1.9,0,3.58.51,4.48,2.37C71.09,79.47,70.93,79.68,69.51,79.68Z" transform="translate(157.67 38.47)"/><path class="cls-2" d="M10.53,48.24c.52.14,1.47-.4,1.45.89,0,.7-.06,1.16-1,1-.59-.09-1.12,0-1.24.8s-.07,1.38,1,1.23c.69-.09,1,.13,1,.91s-.34,1-1,.88-1,.22-1,1c0,2.24,0,4.48,0,6.72,0,1-.55.93-1.21.94s-1.21,0-1.18-1c.07-2.23,0-4.47,0-6.71,0-.69-.12-1.09-.9-1s-.81-.24-.8-.83,0-1.07.81-1,.87-.36.91-1C7.55,48.92,8.28,48.24,10.53,48.24Z" transform="translate(157.67 38.47)"/><path class="cls-2" d="M-44.88,82.31c0-1.12,0-2.24,0-3.36,0-.64,0-1.13-.87-1s-.83-.29-.84-.91.19-1,.88-.88.81-.3.83-.91c.12-2.49,1.66-3.59,4-3,.82.21.41.82.49,1.27s-.21.65-.7.61c-.71-.07-1.39,0-1.48,1-.06.68,0,1.21.91,1.09.68-.1,1.09,0,1.08.93s-.4.94-1,.85c-.84-.12-1,.28-1,1,0,2.24,0,4.48,0,6.72,0,1.07-.6.89-1.23.91s-1.26.07-1.18-.94S-44.88,83.43-44.88,82.31Z" transform="translate(157.67 38.47)"/><path class="cls-2" d="M86.64,57.48c0-.68,0-1.36,0-2,0-.87.16-1.69-1.21-1.51-.72.1-.41-.61-.46-1s0-.86.58-.77c1.1.19,1.16-.46,1.09-1.26,0-.23,0-.48,0-.71-.17-1,.28-1.19,1.19-1.19s1.35.23,1.19,1.2c0,.27,0,.56,0,.84-.13.89.22,1.26,1.12,1.12.68-.11,1,.12,1,.9s-.33,1-1,.88c-.88-.13-1.2.18-1.14,1.1.08,1.47,0,2.95,0,4.43,0,.88.33,1.4,1.26,1.29.63-.07.89.09.85.75s.08,1.17-.8,1.11c-.52,0-1,0-1.56,0a2,2,0,0,1-2.06-2c-.08-1,0-2.07,0-3.11Z" transform="translate(157.67 38.47)"/><path class="cls-2" d="M8.88,81.61c0-.72,0-1.44,0-2.16s.19-1.74-1.2-1.51c-.62.11-.52-.46-.51-.83s-.17-1,.44-.9c1.67.2,1.33-1,1.24-1.82C8.74,73.25,9.18,73,10.24,73c.76,0,1.12.2,1,1-.06.43,0,.88,0,1.32-.05.62.2.87.82.82s1.24-.12,1.22.92-.55.92-1.16.86-.91.18-.89.87c0,1.56,0,3.11,0,4.67,0,.92.32,1.4,1.24,1.28.72-.09.8.25.78.82s.07,1.06-.74,1.05a9,9,0,0,1-2.14-.11A1.88,1.88,0,0,1,8.89,84.6c0-1,0-2,0-3Z" transform="translate(157.67 38.47)"/><path class="cls-2" d="M-59.72,79.52c0,2-.06,4.08,0,6.11.06,1.22-.71.94-1.39,1s-1.26,0-1.24-1q.09-6.23,0-12.45c0-1.3.85-.82,1.46-.9s1.21-.07,1.17.93C-59.78,75.29-59.72,77.41-59.72,79.52Z" transform="translate(157.67 38.47)"/><path class="cls-2" d="M-13.16,55.31c0,2.12-.05,4.24,0,6.35,0,1-.49,1-1.18,1s-1.22.08-1.21-.94q.07-6.28,0-12.57c0-1.09.65-.86,1.25-.87s1.18-.16,1.14.85C-13.22,51.16-13.16,53.24-13.16,55.31Z" transform="translate(157.67 38.47)"/><path class="cls-2" d="M-25.13,77.76a3.8,3.8,0,0,1,3.05-1.89c1-.06.9.57.86,1.18s.29,1.19-.8,1.14c-1.8-.09-2.9,1.09-3,3a41.12,41.12,0,0,0,0,4.3c.07,1-.39,1.15-1.24,1.15s-1.2-.12-1.18-1.09c.07-2.75.05-5.5,0-8.25,0-.74.06-1.16,1-1.15s1.37.19,1.19,1.17A1.9,1.9,0,0,0-25.13,77.76Z" transform="translate(157.67 38.47)"/><path class="cls-2" d="M72.72,81.36c0-1.47,0-3,0-4.42,0-1,.58-.8,1.11-.75s1.29-.37,1.28.69c0,3,0,6,0,9,0,1.15-.82.67-1.35.75s-1.08.05-1-.82C72.77,84.31,72.72,82.83,72.72,81.36Z" transform="translate(157.67 38.47)"/><path class="cls-2" d="M92.67,57.25c0-1.43,0-2.86,0-4.3,0-1,.69-.75,1.22-.77s1.2-.21,1.18.81q-.07,4.41,0,8.84c0,1.05-.68.75-1.21.77s-1.23.21-1.19-.8C92.72,60.28,92.67,58.77,92.67,57.25Z" transform="translate(157.67 38.47)"/><path class="cls-2" d="M14.88,81.37c0-1.43.06-2.87,0-4.3-.06-.93.45-1,1.09-.89s1.33-.32,1.31.81c0,3,0,5.89,0,8.84,0,1.15-.81.7-1.34.77s-1.1.09-1.06-.81C14.93,84.32,14.88,82.85,14.88,81.37Z" transform="translate(157.67 38.47)"/><path class="cls-1" d="M80.93-27.48c-2.09,0-2,0-2.12-2.13-.06-1.2.26-1.71,1.48-1.48a2.57,2.57,0,0,0,.48,0c2.41,0,2.36,0,2.41,2.43,0,.94-.22,1.33-1.18,1.18A7.61,7.61,0,0,0,80.93-27.48Z" transform="translate(157.67 38.47)"/><path class="cls-1" d="M152.55-27.48c-2.07,0-2.07,0-2.07-1.92,0-1.68,0-1.68,1.83-1.68,2.49,0,2.42,0,2.52,2.34,0,1.1-.3,1.43-1.32,1.27A6.14,6.14,0,0,0,152.55-27.48Z" transform="translate(157.67 38.47)"/><path class="cls-1" d="M168.82,0c2.1,0,2,0,2.13,2.11.05,1.12-.22,1.64-1.41,1.42a1.43,1.43,0,0,0-.36,0c-2.61,0-2.57,0-2.6-2.48,0-.83.21-1.16,1-1A9.45,9.45,0,0,0,168.82,0Z" transform="translate(157.67 38.47)"/><path class="cls-2" d="M73.87,72.26c.9-.19,1.24.08,1.26,1.08s-.47,1.11-1.28,1.12-1.19-.12-1.17-1.08S72.9,72,73.87,72.26Z" transform="translate(157.67 38.47)"/><path class="cls-2" d="M16,72.26c.92-.2,1.23.11,1.25,1.1s-.49,1.07-1.29,1.1-1.17-.15-1.16-1.09S15.09,72,16,72.26Z" transform="translate(157.67 38.47)"/><path class="cls-2" d="M93.82,48.26c.88-.18,1.3,0,1.26,1.07,0,.85-.19,1.22-1.12,1.13-.73-.07-1.39.1-1.32-1.06C92.69,48.5,92.84,48,93.82,48.26Z" transform="translate(157.67 38.47)"/><path class="cls-1" d="M-12.88-1.66c0,6.2,0,12.4,0,18.6a2.49,2.49,0,0,1-.75,1.9q-4.85,5-9.59,10.07a1.94,1.94,0,0,1-1.57.66q-11.34,0-22.67,0a2.1,2.1,0,0,1-1.67-.73q-4.73-5-9.51-10A2.57,2.57,0,0,1-59.37,17c0-12.36,0-24.71,0-37.07,0-1.14-.18-1.66-1.48-1.56-1,.09-2.47.52-3.08-.22s-.18-2-.19-3c0-3.44,0-6.88,0-10.32,0-.75.17-1,1-1q11,0,22.08,0c.82,0,1,.29,1,1,0,4.16,0,8.32,0,12.48,0,.91-.25,1.26-1.14,1.11-1.21-.2-1.6.22-1.59,1.52.06,11,0,21.91,0,32.87,0,1.8.8,2.61,2.58,2.61h8.52a2.22,2.22,0,0,0,2.18-2.17q0-16.92,0-33.83c0-.92-.39-1-1.14-1-1.74,0-1.6.26-1.6-1.6,0-4,0-8,0-12,0-.78.22-1,1-1q11,0,22.07,0c.8,0,1,.25,1,1q-.06,6.29,0,12.59c0,.78-.2,1.08-1,1s-1.77.05-2.64,0-1.13.31-1.12,1.17C-12.87-14.21-12.88-7.94-12.88-1.66Z" transform="translate(157.67 38.47)"/><path class="cls-1" d="M-129.74-36.24c8.16,0,16.32,0,24.47,0,.94,0,1.21.24,1.21,1.19q-.07,8.34,0,16.68c0,.9-.25,1.14-1.15,1.13q-7-.06-14,0c-.86,0-1.17-.27-1-1.09v-.12c-.09-1,.44-2.33-.25-3s-1.91-.17-2.9-.17c-3.12,0-6.24,0-9.36,0-.8,0-1.12.19-1.11,1.06q.08,5.22,0,10.44c0,.85.27,1.06,1.09,1.06,4.44,0,8.88,0,13.32,0,.93,0,1.21.22,1.2,1.18q-.09,5.64,0,11.28c0,1-.22,1.28-1.24,1.27-4.36-.06-8.72,0-13.07-.06-1.11,0-1.33.33-1.3,1.35.07,2.8.05,5.6,0,8.4,0,.8.17,1.23,1.05,1.08h.24c1.06.09,2.43-.46,3.11.24s.17,2,.17,3c0,3.28,0,6.56,0,9.84,0,.77-.12,1.13-1,1.13q-12,0-24,0c-.75,0-1.06-.17-1.05-1q.06-6.12,0-12.23c0-.81.25-1.05,1-1,1,.05,2,0,3,0,.69,0,.89-.2.88-.88,0-2.56,0-5.12,0-7.68,0-9,0-18.07,0-27.11,0-1.13-.33-1.46-1.4-1.36-.87.09-1.76,0-2.64,0-.59,0-.88-.14-.87-.8q0-6.54,0-13.08c0-1,.64-.73,1.15-.73h24.47Z" transform="translate(157.67 38.47)"/><path class="cls-1" d="M-92.2-3.19c0-5.76,0-11.52,0-17.28,0-1-.29-1.26-1.22-1.18s-1.68,0-2.52,0S-97-21.81-97-22.68c0-4.16,0-8.32,0-12.48,0-1,.32-1.1,1.16-1.1,7.32,0,14.64,0,22,0,2.94,0,2.94,0,2.94,2.9,0,3.52,0,7,0,10.56,0,.88-.21,1.18-1.13,1.17-1.14,0-2.64-.54-3.32.23s-.19,2.22-.19,3.37c0,10.72,0,21.43,0,32.15,0,1,.28,1.3,1.26,1.24s2.46-.46,3.14.17.23,2.11.24,3.21c0,3.24,0,6.48,0,9.72,0,.81-.2,1.1-1.06,1.1q-11.94,0-23.88,0c-.75,0-1.06-.16-1-1q.06-6.12,0-12.24c0-.79.23-1.07,1-1s1.61-.05,2.4,0c1,.11,1.36-.19,1.35-1.29C-92.23,8.33-92.2,2.57-92.2-3.19Z" transform="translate(157.67 38.47)"/><path class="cls-3" d="M29.74,18.26a3.06,3.06,0,0,1-2.88-1.82,2.68,2.68,0,0,1,.76-3.15,11.07,11.07,0,0,1,1.33-1c.42-.3.73-.25,1.08.21.87,1.15,1.79,2.26,2.73,3.34.39.44.35.69-.06,1.07A4.49,4.49,0,0,1,29.74,18.26Z" transform="translate(157.67 38.47)"/><path class="cls-3" d="M29.24,4.49a1.83,1.83,0,0,1,1.88-1.88A2,2,0,0,1,33,4.68c0,1.07-1.31,2.85-2.08,2.8C30.37,7.44,29.23,5.42,29.24,4.49Z" transform="translate(157.67 38.47)"/></svg>