<svg id="Layer_1" data-name="Layer 1" xmlns="http://www.w3.org/2000/svg" viewBox="0 0 331.26 70.58"><defs><style>.cls-1{fill:#b48631;}.cls-2{fill:#091f40;}</style></defs><title>FIU Online</title><path class="cls-1" d="M10.08-10.8A2.22,2.22,0,0,0,10-9.63C10-4,10,1.65,10,7.28c0,.89-.21,1.18-1.13,1.15-1.18,0-2.8-.54-3.43.22s-.2,2.29-.2,3.48q0,16.2,0,32.39A3.56,3.56,0,0,1,4.2,47.26C.41,51.16-3.31,55.12-7,59.08a1.92,1.92,0,0,1-1.56.66q-11.68,0-23.39,0A2,2,0,0,1-33.61,59q-5.67-6-11.42-12A2.78,2.78,0,0,1-45.9,45c0-11.76,0-23.51,0-35.27,0-1-.24-1.4-1.31-1.31s-2.51.38-3.14-.16-.23-2.11-.23-3.21c0-5,0-9.92,0-14.88,0-.31.11-.64-.09-.93h29c-.21.34-.09.7-.09,1.05,0,5.4,0,10.8,0,16.2,0,1.92,0,2-1.95,1.93-.86,0-1.06.25-1.06,1.08q0,15.12,0,30.23c0,1,.35,1.19,1.24,1.16,2.12-.05,4.24-.07,6.36,0,1,0,1.26-.26,1.25-1.26,0-9.64,0-19.28,0-28.91,0-2.27,0-2.32-2.21-2.27-.88,0-1.14-.19-1.13-1.11,0-6,0-12.07,0-18.11ZM2.92,26.09V16.73c0-3.2,0-6.4,0-9.6C2.89,6.29,3.14,6,4,6.06s1.76,0,2.64,0S7.7,5.85,7.7,5q-.06-6.18,0-12.35c0-.84-.21-1.08-1.06-1.08q-11,.06-22,0c-.86,0-1.06.27-1.05,1.09,0,3.88,0,7.76,0,11.64,0,1.72,0,1.75,1.69,1.75.74,0,1.05.15,1.05,1,0,11.32,0,22.64,0,34a2.23,2.23,0,0,1-2.2,2.16c-2.84,0-5.68,0-8.52,0A2.4,2.4,0,0,1-27,40.47V8c0-2.17-.15-1.91,1.83-1.88.69,0,1-.12,1-.91q-.06-6.36,0-12.72c0-.7-.24-.86-.9-.86q-11.16,0-22.31,0c-.61,0-.85.16-.85.81q0,6.4,0,12.83c0,.61.19.88.83.85.83,0,1.68.06,2.51,0,1.17-.12,1.47.32,1.46,1.47,0,12.35,0,24.71,0,37.07a3.08,3.08,0,0,0,.94,2.32q4.68,4.81,9.26,9.72a2.23,2.23,0,0,0,1.76.79q11.28,0,22.56,0a2.06,2.06,0,0,0,1.65-.73C-4.21,53.33-1,50,2.15,46.7a2.58,2.58,0,0,0,.78-2C2.9,38.49,2.92,32.29,2.92,26.09Z" transform="translate(141.87 10.82)"/><path class="cls-1" d="M-85.92-10.8q0,11.4,0,22.8c0,.55-.17.77-.75.77q-9.84,0-19.68,0c-.57,0-.77-.19-.75-.76,0-1,0-1.92,0-2.88,0-.59-.2-.74-.76-.74q-3.6,0-7.2,0c-.66,0-.8.26-.79.85,0,2,0,4.08,0,6.12,0,.79.24,1,1,1,4.48,0,9,0,13.43,0,.87,0,1.26.12,1.25,1.15-.06,5.4,0,10.8,0,16.2,0,.87-.28,1-1.09,1-4.48,0-9,0-13.44,0-.86,0-1.23.18-1.17,1.12.07,1.39,0,2.8,0,4.2,0,.61.17.86.81.83,1,0,1.92,0,2.88,0,.56,0,.78.17.78.75q0,8.7,0,17.4c0,.83-.48.75-1,.75H-125l-16.8,0v-19c1.16,0,2.32-.07,3.47,0s1.4-.21,1.39-1.34c-.05-7.79,0-15.57,0-23.35,0-2.24,0-4.48,0-6.71,0-.81-.25-1-1-1-1.28.05-2.55,0-3.83,0,0-6,0-12.06,0-18.09,0-1,.29-1.13,1.2-1.13Q-113.3-10.77-85.92-10.8Zm-27.93,2.4h-24.48c-.56,0-1.2-.2-1.19.81,0,4.28,0,8.56,0,12.84,0,.64.25.87.85.82.32,0,.64,0,1,0,3,0,3,0,3,3.09V41.43a7.85,7.85,0,0,0,0,.84c.07.67-.19.93-.88.9-1,0-2.08,0-3.12,0-.6,0-.85.18-.85.82q0,6.3,0,12.6c0,.61.2.84.83.84q12.18,0,24.36,0c.62,0,.82-.2.82-.83q0-6.3,0-12.6c0-.62-.18-.86-.82-.83-.92,0-1.84,0-2.76,0s-1-.23-1-1c0-2.88.06-5.76,0-8.63,0-1,.27-1.2,1.2-1.19,4.44,0,8.88,0,13.32,0,.77,0,1.13-.11,1.12-1q-.08-5.82,0-11.64c0-.88-.3-1.05-1.1-1-4.48,0-9,0-13.44,0-.8,0-1.11-.17-1.1-1.05q.07-5.28,0-10.56c0-.89.32-1,1.11-1,3.08,0,6.16,0,9.24,0,3.26,0,3.26,0,3.28,3.2a.48.48,0,0,1,0,.12c-.15.9.23,1.16,1.13,1.15q7-.07,13.92,0c1,0,1.16-.37,1.15-1.25,0-5.44,0-10.87,0-16.31,0-1.06-.21-1.42-1.36-1.41C-97.69-8.37-105.77-8.4-113.85-8.4Z" transform="translate(141.87 10.82)"/><path class="cls-1" d="M-52.8-10.8c0,6-.05,12,0,18,0,1-.29,1.29-1.27,1.24s-2.57-.49-3.24.16-.23,2.2-.23,3.34c0,9.2,0,18.4,0,27.59,0,1.08.29,1.41,1.33,1.3.83-.09,1.68,0,2.52,0s.92.26.92,1q0,8.46,0,16.91c0,.82-.27,1-1,1q-14.32,0-28.67,0c-.82,0-1-.31-1-1.06q0-8.4,0-16.79c0-.87.28-1.1,1.1-1s1.84,0,2.75,0,1-.24,1-1c0-5.52,0-11,0-16.55,0-4.6,0-9.2,0-13.8,0-.83-.21-1.19-1.06-1h-.11c-1.19-.09-2.72.51-3.45-.25s-.18-2.21-.19-3.36c0-5.2,0-10.39,0-15.59ZM-68.15-8.4h-12c-.52,0-1-.1-1,.74,0,4.32,0,8.63,0,13,0,.67.32.8.88.79,1,0,1.93,0,2.88,0,.75,0,1.07.17,1.07,1q0,17.57,0,35.14c0,.71-.16,1-.93,1-1-.06-1.92,0-2.88,0-.69,0-1,.15-1,.92,0,4.16,0,8.31,0,12.47,0,.58.11.87.78.87q12.18,0,24.35,0c.61,0,.85-.18.85-.82q0-6.3,0-12.59c0-.61-.17-.88-.82-.85-.84,0-1.68-.06-2.51,0-1.05.11-1.35-.23-1.35-1.31,0-10.75,0-21.51,0-32.26,0-1.14-.51-2.61.25-3.34s2.14-.21,3.25-.18c.9,0,1.16-.24,1.15-1.14q-.07-6.12,0-12.24c0-.9-.24-1.14-1.14-1.13C-60.24-8.37-64.19-8.4-68.15-8.4Z" transform="translate(141.87 10.82)"/><path class="cls-1" d="M25.92-10.8c0,.4,0,.8,0,1.2V58.19c0,1.54-.16,1.65-1.74,1.49-.45,0-.67-.18-.63-.65,0-.19,0-.4,0-.6V-10.8Z" transform="translate(141.87 10.82)"/><path class="cls-2" d="M40,24.73c.09-5.59,1.46-10.67,5.63-14.5C50.75,5.5,56.91,4.71,63.4,6.67s9.83,6.67,11.22,13A21.63,21.63,0,0,1,74,31.83c-2.3,6.4-6.79,10.23-13.54,11.16-6.13.84-11.62-.55-15.9-5.3a18.32,18.32,0,0,1-4.43-10.78C40,26.16,40,25.4,40,24.73Zm7.91-.21a19.32,19.32,0,0,0,.63,4.85c1.15,4.19,4.21,6.9,8,7.13,4.72.28,8-1.58,9.58-5.76a16.51,16.51,0,0,0-.28-13.06,9.11,9.11,0,0,0-15.06-2.32C48.48,18,48,21.19,47.88,24.52Z" transform="translate(141.87 10.82)"/><path class="cls-2" d="M188.82,34.32a11.28,11.28,0,0,1-9.73,8.61c-3.45.4-6.82.1-9.8-1.87-4.91-3.25-6.25-8.12-5.6-13.61C165,16.57,175.62,13.76,182.39,17c4,1.92,5.9,5.43,6.72,9.63a22.53,22.53,0,0,1,.27,3.58c0,.83-.28,1-1,1-5.48,0-11,0-16.44-.05-1.12,0-1.3.27-1.11,1.33.48,2.76,1.88,4.47,4.3,5,3,.65,5.79-.31,7.2-2.52.2-.31.29-.62.76-.62C185,34.33,186.89,34.32,188.82,34.32ZM176.4,26.6c1.68,0,3.36,0,5,0,.31,0,.8.17.65-.48-.65-2.74-1.81-4.8-5.24-4.94a5.58,5.58,0,0,0-6.07,4.76c-.09.61.1.68.6.67C173,26.59,174.72,26.6,176.4,26.6Z" transform="translate(141.87 10.82)"/><path class="cls-2" d="M142,19.65c3-3.67,6.83-4.41,11.12-3.58,3.76.72,6.07,3.41,6.21,7.84.2,5.91.08,11.83.12,17.75,0,.63-.27.72-.79.71-1.72,0-3.44-.06-5.16,0-.93,0-1.22-.21-1.21-1.18.06-4.47,0-9,0-13.43a11.82,11.82,0,0,0-.32-3.08,3.83,3.83,0,0,0-3.63-3.26,4.89,4.89,0,0,0-5,2.25,9,9,0,0,0-1,4.4c0,4.39,0,8.79,0,13.19,0,.91-.22,1.15-1.12,1.11-1.71-.07-3.44-.05-5.15,0-.7,0-1-.12-1-.91q0-12,0-24.1c0-.72.16-1,.92-.95q2.52.09,5,0c.78,0,1,.27.91,1S142,18.9,142,19.65Z" transform="translate(141.87 10.82)"/><path class="cls-2" d="M86.52,19.64A10.38,10.38,0,0,1,95,15.78c5.44.09,8.56,2.71,8.81,8.15.26,5.91.09,11.84.13,17.76,0,.65-.33.68-.82.68-1.76,0-3.52,0-5.28,0-.87,0-1.06-.27-1.05-1.08,0-4.44,0-8.88,0-13.32a12.84,12.84,0,0,0-.28-3.09c-.56-2.3-1.73-3.34-4-3.49a4.72,4.72,0,0,0-5.1,3,12.86,12.86,0,0,0-.66,4.72c0,4.08,0,8.16,0,12.24,0,.83-.2,1.1-1.06,1.07-1.75-.06-3.52-.05-5.28,0-.69,0-.86-.22-.85-.89q0-12.1,0-24.23c0-.6.11-.85.78-.84,1.76,0,3.52,0,5.28,0,.65,0,.83.24.8.85C86.49,18.06,86.52,18.85,86.52,19.64Z" transform="translate(141.87 10.82)"/><path class="cls-2" d="M116.68,24.5c0,5.6,0,11.2,0,16.8,0,.82-.18,1.12-1,1.08-1.63-.07-3.28-.07-4.92,0-.94,0-1.2-.22-1.2-1.18,0-7.48,0-15,0-22.44,0-3.72,0-7.44,0-11.16,0-.78.19-1,1-1q2.58.09,5.16,0c.78,0,1,.21,1,1C116.66,13.22,116.68,18.86,116.68,24.5Z" transform="translate(141.87 10.82)"/><path class="cls-2" d="M129.6,29.39c0,4,0,8,0,12,0,.81-.24,1-1,1-1.72-.05-3.44,0-5.16,0-.73,0-1-.12-1-1q0-12,0-24c0-.84.28-1,1-1,1.68,0,3.37.09,5,0,1-.06,1.15.36,1.14,1.22C129.58,21.55,129.6,25.47,129.6,29.39Z" transform="translate(141.87 10.82)"/><path class="cls-2" d="M125.88,12.52c-.92,0-1.83,0-2.75,0-.51,0-.71-.15-.7-.69,0-1.51,0-3,0-4.55,0-.52.18-.7.69-.7q2.94,0,5.88,0c.47,0,.61.18.61.64,0,1.56,0,3.11,0,4.67,0,.59-.27.64-.73.63C127.88,12.51,126.88,12.52,125.88,12.52Z" transform="translate(141.87 10.82)"/><path class="cls-2" d="M2.92,26.09c0,6.2,0,12.4,0,18.59a2.58,2.58,0,0,1-.78,2C-1,50-4.21,53.33-7.36,56.68A2.06,2.06,0,0,1-9,57.41q-11.28,0-22.56,0a2.23,2.23,0,0,1-1.76-.79q-4.59-4.89-9.26-9.72a3.08,3.08,0,0,1-.94-2.32c0-12.36,0-24.72,0-37.07,0-1.15-.29-1.59-1.46-1.47-.83.09-1.68,0-2.51,0-.64,0-.83-.24-.83-.85q0-6.42,0-12.83c0-.65.24-.81.85-.81q11.16,0,22.31,0c.66,0,.91.16.9.86q0,6.36,0,12.72c0,.79-.31.92-1,.91C-27.2,6.05-27,5.79-27,8V40.47a2.4,2.4,0,0,0,2.69,2.69c2.84,0,5.68,0,8.52,0A2.23,2.23,0,0,0-13.64,41c0-11.31,0-22.63,0-33.95,0-.84-.31-1-1.05-1-1.69,0-1.69,0-1.69-1.75,0-3.88,0-7.76,0-11.64,0-.82.19-1.09,1.05-1.09q11,.06,22,0c.85,0,1.07.24,1.06,1.08Q7.64-1.16,7.7,5c0,.84-.24,1.14-1.08,1.07s-1.76,0-2.64,0S2.89,6.29,2.9,7.13c0,3.2,0,6.4,0,9.6Z" transform="translate(141.87 10.82)"/><path class="cls-2" d="M-113.85-8.4c8.08,0,16.16,0,24.23,0,1.15,0,1.37.35,1.36,1.41,0,5.44,0,10.87,0,16.31,0,.88-.14,1.26-1.15,1.25q-7-.07-13.92,0c-.9,0-1.28-.25-1.13-1.15a.48.48,0,0,0,0-.12c0-3.2,0-3.2-3.28-3.2-3.08,0-6.16,0-9.24,0-.79,0-1.12.15-1.11,1q.07,5.28,0,10.56c0,.88.3,1.05,1.1,1.05,4.48,0,9,0,13.44,0,.8,0,1.11.16,1.1,1q-.08,5.82,0,11.64c0,.91-.35,1-1.12,1-4.44,0-8.88,0-13.32,0-.93,0-1.23.22-1.2,1.19.06,2.87,0,5.75,0,8.63,0,.79.22,1.07,1,1s1.84,0,2.76,0c.64,0,.82.21.82.83q0,6.3,0,12.6c0,.63-.2.83-.82.83q-12.18,0-24.36,0c-.63,0-.83-.23-.83-.84q0-6.3,0-12.6c0-.64.25-.83.85-.82,1,0,2.08,0,3.12,0,.69,0,1-.23.88-.9a7.85,7.85,0,0,1,0-.84V9.16c0-3.09,0-3.09-3-3.09-.32,0-.64,0-1,0-.6,0-.85-.18-.85-.82,0-4.28,0-8.56,0-12.84,0-1,.63-.81,1.19-.81Z" transform="translate(141.87 10.82)"/><path class="cls-2" d="M-68.15-8.4c4,0,7.91,0,11.87,0,.9,0,1.15.23,1.14,1.13q-.07,6.12,0,12.24c0,.9-.25,1.17-1.15,1.14-1.11,0-2.55-.49-3.25.18s-.25,2.2-.25,3.34c0,10.75,0,21.51,0,32.26,0,1.08.3,1.42,1.35,1.31.83-.09,1.67,0,2.51,0,.65,0,.82.24.82.85q0,6.3,0,12.59c0,.64-.24.82-.85.82q-12.16,0-24.35,0c-.67,0-.78-.29-.78-.87,0-4.16,0-8.31,0-12.47,0-.77.28-1,1-.92,1,.05,1.92,0,2.88,0,.77,0,.94-.27.93-1q0-17.57,0-35.14c0-.83-.32-1-1.07-1-1,0-1.92,0-2.88,0-.56,0-.88-.12-.88-.79,0-4.32,0-8.63,0-12.95,0-.84.5-.74,1-.74Z" transform="translate(141.87 10.82)"/></svg>