<svg id="Layer_1" data-name="Layer 1" xmlns="http://www.w3.org/2000/svg" viewBox="0 0 365.49 94.65"><defs><style>.cls-1{fill:#b7892f;}.cls-2{fill:#162643;}</style></defs><title>FIU Engineering</title><path class="cls-1" d="M9.88-22.65c0,6-.05,11.92,0,17.88,0,1-.3,1.28-1.28,1.25-1.14,0-2.66-.53-3.31.23S5.08-1.16,5.08,0q0,16.56,0,33.11A2.49,2.49,0,0,1,4.34,35C.64,38.83-3,42.72-6.69,46.64A3.05,3.05,0,0,1-9.17,47.7q-11.34-.06-22.68,0A2.64,2.64,0,0,1-34,46.77c-3.7-4-7.47-7.9-11.24-11.81A2.42,2.42,0,0,1-46,33.07c0-11.76,0-23.52,0-35.27,0-1.12-.31-1.42-1.39-1.37s-2.48.5-3.09-.22-.18-2-.18-3q0-7.92,0-15.84h28.8q0,8.58,0,17.15c0,1.9,0,1.93-1.95,1.94-.67,0-1,.1-1,.9q0,15.3,0,30.59c0,.79.34.9,1,.89,2.2,0,4.4-.06,6.59,0,1,0,1.18-.29,1.17-1.2,0-9.68,0-19.35,0-29,0-2.14,0-2.2-2.08-2.13-1,0-1.27-.26-1.26-1.26,0-5.95,0-11.91,0-17.87ZM-43.7,14.07c0,6.24,0,12.48,0,18.72A2.35,2.35,0,0,0-43,34.6q4.86,5.06,9.68,10.16a2.09,2.09,0,0,0,1.68.71q11.28,0,22.55,0a1.93,1.93,0,0,0,1.56-.67c3.13-3.32,6.25-6.64,9.44-9.89a3.36,3.36,0,0,0,1-2.62c0-5.4,0-10.8,0-16.2,0-7,0-13.92,0-20.88,0-.82.2-1.14,1.06-1.07s1.76,0,2.64,0c.71,0,1-.16,1-.93q-.06-6.36,0-12.72c0-.79-.25-1-1-1q-11,0-22.07,0c-.81,0-1,.27-1,1,0,4,0,8,0,12,0,1.6,0,1.67,1.55,1.59,1,0,1.17.33,1.17,1.23q0,16.72,0,33.47a2.15,2.15,0,0,1-2.28,2.3c-2.84,0-5.68,0-8.52,0a2.19,2.19,0,0,1-2.45-2.48V-4.23c0-1.6,0-1.67,1.55-1.59,1,.06,1.17-.36,1.16-1.23,0-3.52,0-7,0-10.56,0-2.86,0-2.86-2.86-2.86h-20c-.51,0-1.15-.23-1.15.73,0,4.4,0,8.8,0,13.2,0,.52.18.71.7.69,1,0,1.92.07,2.87,0s1.19.3,1.18,1.21C-43.72,1.59-43.7,7.83-43.7,14.07Z" transform="translate(142.76 22.65)"/><path class="cls-1" d="M-85.88-22.65c0,.44-.1.87-.1,1.31,0,7,0,14,0,21,0,.93-.24,1.21-1.2,1.2-6.28,0-12.56,0-18.83,0-1,0-1.19-.35-1.18-1.24s.48-2.35-.22-3-2-.17-3-.19c-1.56,0-3.12,0-4.68,0-.63,0-.81.21-.8.83,0,2,0,4.08,0,6.12,0,.85.32.95,1,1,4.52,0,9,.07,13.55.06.86,0,1,.25,1,1.07q-.06,8.1,0,16.2c0,.84-.21,1.06-1.06,1.06-4.43,0-8.87,0-13.31-.06-1.12,0-1.34.33-1.27,1.34a27,27,0,0,1,0,3.71c-.08.95.29,1.17,1.15,1.1s1.76,0,2.64,0c.56,0,.76.19.76.77q0,8.7,0,17.39c0,.63-.27.71-.79.71q-14.52,0-29,0c-.72,0-.84-.27-.84-.91q0-8.52,0-17c0-.75.26-1,1-.94,1,.05,2.08,0,3.12,0,.66,0,.91-.17.91-.87q0-15.3,0-30.6c0-.74-.3-.86-.93-.84-1,0-2,0-3,0S-142-3.69-142-4.53c0-5.8,0-11.6,0-17.4,0-.24,0-.48,0-.72ZM-114-20.47h-24.59c-.62,0-1.16-.08-1.15.87.05,4.32,0,8.64,0,13,0,.64.22.83.84.81,1,0,1.92,0,2.88,0s1.19.25,1.18,1.19c0,8.07,0,16.15,0,24.23,0,3.48,0,7,0,10.44,0,.86-.16,1.24-1.11,1.15s-1.92,0-2.87,0c-.66,0-.93.16-.92.87q0,6.3,0,12.59c0,.7.25.89.91.89q12.18,0,24.35,0c.67,0,.92-.22.92-.9q0-6.3,0-12.6c0-.61-.2-.87-.83-.85-.88,0-1.77-.05-2.64,0s-1.13-.3-1.11-1.16c.05-2.84.06-5.68,0-8.52,0-.93.3-1.13,1.17-1.12,4.39,0,8.79,0,13.19,0,.89,0,1.16-.23,1.15-1.14,0-3.79-.06-7.59,0-11.39,0-1.05-.35-1.24-1.3-1.23-4.4,0-8.8,0-13.2,0-.77,0-1-.21-1-1q.06-5.22,0-10.44c0-.82.2-1.1,1.06-1.08,3,.05,6.08,0,9.12,0,1.06,0,2.42-.48,3.1.23s.21,2,.16,3,.27,1.14,1.15,1.13q7-.06,14,0c.93,0,1.22-.23,1.21-1.19,0-5.56,0-11.12,0-16.68,0-1-.32-1.17-1.22-1.17C-97.66-20.46-105.82-20.47-114-20.47Z" transform="translate(142.76 22.65)"/><path class="cls-1" d="M-53-22.65q0,9.18,0,18.36c0,.58-.21.77-.77.75-1,0-1.93,0-2.88,0-.78,0-1,.2-1,1,0,3.2,0,6.4,0,9.6,0,6.88,0,13.76,0,20.64,0,.85.16,1.19,1.11,1.16,1.14,0,2.71-.54,3.32.22s.18,2.22.18,3.37c0,4.72,0,9.44,0,14.16,0,.92-.25,1.11-1.13,1.11q-14.22-.06-28.43,0c-.95,0-1.11-.31-1.1-1.16,0-5.52,0-11,0-16.55,0-1,.29-1.28,1.22-1.19.71.07,1.45-.06,2.16,0,1.12.13,1.5-.2,1.48-1.41-.08-4.48,0-9,0-13.44,0-5.44,0-10.88,0-16.32,0-.9-.17-1.26-1.17-1.24-1.17,0-2.7.55-3.45-.24s-.18-2.21-.19-3.36c0-4.72,0-9.44,0-14.16,0-.44-.06-.87-.09-1.31Zm-6.91,35.41c0-5.76,0-11.52,0-17.28,0-1,.16-1.49,1.29-1.34.83.1,1.68,0,2.52,0s1-.18,1-.93q-.06-6.36,0-12.72c0-.8-.25-1-1-1q-12.06,0-24.11,0c-.74,0-1,.14-1,1,0,4.24,0,8.48,0,12.72,0,.7.14,1,.92,1s1.77.07,2.63,0c1.13-.14,1.29.34,1.29,1.34,0,9.28,0,18.56,0,27.84,0,2.32,0,4.64,0,7,0,.69-.21.92-.89.88-.95-.05-1.92,0-2.88,0-.69,0-1,.16-1,.93,0,4.16,0,8.32,0,12.48,0,.64.17.94.88.94q12.18,0,24.36,0c.57,0,.87-.14.87-.81q0-6.34,0-12.71c0-.65-.23-.84-.84-.82-.88,0-1.77-.05-2.64,0s-1.29-.21-1.28-1.24C-59.88,24.19-59.91,18.48-59.91,12.76Z" transform="translate(142.76 22.65)"/><path class="cls-1" d="M25.72-22.65V46.42a1.42,1.42,0,0,1-2.14,1.22c-.21-.12-.22-.3-.23-.5V-21.21c0-.48,0-1,0-1.44Z" transform="translate(142.76 22.65)"/><path class="cls-2" d="M-142.76,71.19c1.55-.13,1.69-.26,1.69-1.8,0-2.92,0-5.83,0-8.75,0-.81,0-1.67-1.14-1.72-.26,0-.32-.2-.29-.42s.27-.24.45-.24c2.6,0,5.19,0,7.79,0,.31,0,.42.14.44.42,0,.64.07,1.27.1,1.91a.42.42,0,0,1-.28.47c-.25,0-.29-.17-.38-.36a4,4,0,0,0-4.55-1.65.58.58,0,0,0-.41.64c0,1.4,0,2.79,0,4.19a.81.81,0,0,0,.16.54c.65.61,3.62,0,4-.86.09-.22,0-.63.46-.57s.34.4.3.66a9.32,9.32,0,0,0,0,2.74c0,.24,0,.52-.25.61s-.43-.16-.46-.39c-.19-1.19-1-1.22-2-1.21-2.23,0-2.23,0-2.23,2.27v1.8c0,.91.17,1.69,1.32,1.72.23,0,.53,0,.52.31s-.38.36-.62.33a19,19,0,0,0-4.64.08Z" transform="translate(142.76 22.65)"/><path class="cls-2" d="M112.62,23.26c3.81-2.92,6.73-2.83,9.21.32,1.73-2.3,4.07-2.79,6.71-2.14,2.37.58,3.57,2.24,3.65,5.1.08,3.28,0,6.56,0,9.83,0,.64-.21.85-.83.82-1.15-.06-2.62.34-3.37-.22s-.2-2.1-.22-3.2c0-2.2,0-4.4-.07-6.59,0-1.64-.76-2.41-2.14-2.54a2.52,2.52,0,0,0-2.94,2.17c-.43,1.93-.14,3.9-.2,5.85,0,1.28,0,2.56,0,3.84,0,.51-.13.76-.67.68h-.12c-1.15-.06-2.63.47-3.35-.2s-.17-2.12-.19-3.23c0-2,0-4,0-6,0-2.18-.77-3.13-2.44-3.12a2.9,2.9,0,0,0-2.89,3.15c0,2.79,0,5.59,0,8.39,0,.77-.18,1.08-1,1a21,21,0,0,0-2.63,0c-.64,0-.82-.21-.81-.83q0-7,0-13.91c0-.7.24-.93.91-.87.47,0,1,0,1.44,0C112.41,21.58,112.41,21.58,112.62,23.26Z" transform="translate(142.76 22.65)"/><path class="cls-2" d="M39.23-4.65c0-3.16,0-6.32,0-9.47,0-.84.13-1.19,1.09-1.18,4.67.06,9.35.05,14,0,.8,0,1.1.16,1.1,1,0,3.05,0,3.05-3,3.05-2.47,0-5,0-7.43,0-.73,0-1,.2-.94.94.08,1.11-.34,2.56.21,3.25s2.09.2,3.19.22c2,0,4,.06,6,0,.87,0,1.06.27,1.05,1.09C54.45-3,54.48-3,51.73-3c-2.28,0-4.56,0-6.84,0-.67,0-.92.17-.88.87a31.2,31.2,0,0,1,0,3.35c0,.75.23,1,1,.94,3.16,0,6.32,0,9.48,0,.87,0,1.26.12,1.24,1.15-.05,2.94,0,2.94-2.9,2.94-4.12,0-8.24,0-12.36,0-.91,0-1.23-.2-1.21-1.17C39.27,1.83,39.23-1.41,39.23-4.65Z" transform="translate(142.76 22.65)"/><path class="cls-2" d="M58.21,37.18c-1.84,0-3.43,0-5,0-.77,0-1-.77-1.35-1.24-.49-.63-.78-.75-1.45-.17a8,8,0,0,1-7.77,1.51,5.79,5.79,0,0,1-4.37-4.77,6.07,6.07,0,0,1,2.54-6.29c.63-.48,1.63-.78,1.84-1.37S41.9,23.63,41.55,23a5,5,0,0,1,3.87-7.42,7.85,7.85,0,0,1,2.86.08c2,.47,3.56,1.53,4,3.64a5.48,5.48,0,0,1-2.17,5.83c-.42.34-1.28.41-1.21,1.06.06.47.63.88,1,1.32l1.41,1.71c.14-.27.23-.49.36-.69.34-.52,0-1.51.7-1.64a15.05,15.05,0,0,1,3.22,0c.49,0,.21.4.18.64a7.94,7.94,0,0,1-1.37,3.78c-.53.73-.34,1.15.17,1.72C55.74,34.26,56.87,35.61,58.21,37.18ZM45.61,34a4.53,4.53,0,0,0,2.73-1.33c.42-.38.42-.64,0-1.06-.89-1-1.78-2.06-2.58-3.15-.47-.64-.89-.66-1.46-.23a7.94,7.94,0,0,0-1.11.9,2.62,2.62,0,0,0-.74,3A3.21,3.21,0,0,0,45.61,34Zm3-13.51a2,2,0,0,0-1.82-2.1,1.85,1.85,0,0,0-1.87,1.89c0,.94,1.16,2.95,1.71,2.94C47.39,23.21,48.58,21.56,48.59,20.5Z" transform="translate(142.76 22.65)"/><path class="cls-2" d="M218.46,23.23c-.43-1.67.47-1.7,1.63-1.67,2.59.07,2.6,0,2.6,2.66,0,3.76,0,7.51,0,11.27,0,4.71-1.88,6.91-6.52,7.53a9.69,9.69,0,0,1-5.29-.66,5.06,5.06,0,0,1-3.12-3.54c-.17-.7.05-.84.68-.82,1,0,1.92,0,2.87,0a.89.89,0,0,1,.92.56c.78,1.4,2.11,1.86,3.92,1.45a3.07,3.07,0,0,0,2.3-2.88c.05-.75,0-1.51,0-2.46a6.12,6.12,0,0,1-5.65,2A5.67,5.67,0,0,1,208,33.2a10.14,10.14,0,0,1-.12-8C209.61,20.71,215.71,19.86,218.46,23.23Zm0,5.6a5.18,5.18,0,0,0-.38-2.18A3.27,3.27,0,0,0,215,24.46a3.18,3.18,0,0,0-3,2.13,6.26,6.26,0,0,0,.14,5,3,3,0,0,0,3.75,1.72C217.55,32.85,218.46,31.34,218.46,28.83Z" transform="translate(142.76 22.65)"/><path class="cls-2" d="M86.9,3.56a6.16,6.16,0,0,1-7.11,1.79C77.12,4.49,76,2.27,75.67-.33A10,10,0,0,1,76.6-6.5c2.23-4.27,8.37-4.24,10.12-1.19.06,0,.17-.07.17-.11.1-1.63.09-1.63,1.77-1.63C91-9.43,91-9.43,91-7.06c0,3.88-.13,7.77,0,11.64.2,4.94-2.66,7.09-6.58,7.45a9.72,9.72,0,0,1-6.12-1.16A4.82,4.82,0,0,1,76.17,8c-.17-.6-.08-1,.72-.92a13.28,13.28,0,0,0,1.67,0c1,0,1.81-.08,2.46,1.08S83.15,9.22,84.4,9A2.78,2.78,0,0,0,86.67,7,10.38,10.38,0,0,0,86.9,3.56ZM79.94-2a5.81,5.81,0,0,0,.23,1.81,3.15,3.15,0,0,0,3,2.63A3.32,3.32,0,0,0,86.59,0a6,6,0,0,0-.38-4.86,3.23,3.23,0,0,0-5.6-.1A5.14,5.14,0,0,0,79.94-2Z" transform="translate(142.76 22.65)"/><path class="cls-2" d="M202.35,3.61a5.54,5.54,0,0,1-3.67,2.07c-4,.44-6.61-1.5-7.4-5.44a10.73,10.73,0,0,1,.37-5.78c1.62-4.58,7.69-5.84,10.62-2.22a1.14,1.14,0,0,0,.09-.9c-.07-.68.26-.8.85-.78a21,21,0,0,0,2.51,0c.67,0,.79.25.79.84,0,4.79,0,9.59,0,14.39a5.75,5.75,0,0,1-4.65,5.88,10.1,10.1,0,0,1-7.89-.74,4.77,4.77,0,0,1-2.26-3c-.18-.65-.13-1,.66-.93a13.51,13.51,0,0,0,1.8,0,2.19,2.19,0,0,1,2.35,1.06c.78,1.27,2.29,1.14,3.6.89a3,3,0,0,0,2.25-2.81C202.41,5.41,202.35,4.62,202.35,3.61Zm0-5.41A5.73,5.73,0,0,0,201.63-5a3.28,3.28,0,0,0-5.44-.1,6.28,6.28,0,0,0,.08,6.26,2.85,2.85,0,0,0,2.08,1.25C200.72,2.65,202.36,1,202.38-1.8Z" transform="translate(142.76 22.65)"/><path class="cls-2" d="M84.69,23c-.24,0-.48,0-.72,0a1.66,1.66,0,0,1-2-1.19c-1.37-3.1-6.24-3.39-8.36-.63s-2.15,7.6-.25,10.29a5.11,5.11,0,0,0,5.47,2.1,4.37,4.37,0,0,0,3.56-3.72c.15-.68.42-1,1.18-.94a21.29,21.29,0,0,0,2.88,0c.67,0,.78.2.72.83a9.07,9.07,0,0,1-7.66,7.89c-8.2,1-13.26-5.16-12.15-13.07.71-5.09,3.55-8.14,8-9.13s8.72.73,10.64,4.15c.13.24.27.48.38.74C87.51,22.85,87.44,23,84.69,23Z" transform="translate(142.76 22.65)"/><path class="cls-2" d="M139.57,23.4c2.13-2.49,4.68-2.68,7.32-1.73,2.84,1,3.94,3.46,4.31,6.25a10.44,10.44,0,0,1-.75,5.86,6.34,6.34,0,0,1-10.26,2.07,3.14,3.14,0,0,0-.41-.27c0,2.13,0,4.14,0,6.16,0,.76-.21,1-.94.91-1.1-.1-2.55.44-3.23-.2s-.2-2.12-.2-3.22c0-5.52,0-11,0-16.54,0-.91.25-1.23,1.14-1.12a9.88,9.88,0,0,0,1.44,0C139.52,21.59,139.52,21.59,139.57,23.4Zm.09,6a7.58,7.58,0,0,0,.38,2.58,3.28,3.28,0,0,0,3.24,2.36A3.12,3.12,0,0,0,146.53,32a7.25,7.25,0,0,0-.23-5.58,3.35,3.35,0,0,0-6.13.15A7.43,7.43,0,0,0,139.66,29.36Z" transform="translate(142.76 22.65)"/><path class="cls-2" d="M62.5-7.47a6.09,6.09,0,0,1,6.1-2.25,4.4,4.4,0,0,1,4.11,4c.47,3.77.12,7.58.22,11.38,0,.42-.18.57-.58.55h-.12c-3.72.31-3.72.31-3.73-3.4,0-2.11,0-4.24,0-6.35-.07-1.76-.84-2.67-2.2-2.8a2.84,2.84,0,0,0-3.41,2.25,9.2,9.2,0,0,0-.23,2.61c0,2.24,0,4.48,0,6.72,0,.83-.26,1-1,1a23.25,23.25,0,0,0-2.64,0c-.65,0-.8-.22-.79-.83q0-7,0-13.92c0-.76.25-1,1-.91.43,0,.88,0,1.31,0C62.34-9.43,62.34-9.43,62.5-7.47Z" transform="translate(142.76 22.65)"/><path class="cls-2" d="M164.09,35.37a6.06,6.06,0,0,1-6.48,2.06,4.38,4.38,0,0,1-3.72-4.24c-.37-3.63-.11-7.27-.19-10.9,0-.62.29-.69.81-.72,3.62-.18,3.61-.19,3.62,3.43,0,2,0,4.07.05,6.11s.9,3,2.59,3.06a2.85,2.85,0,0,0,3.17-3c.12-2.63.06-5.27.09-7.91,0-2-.26-1.68,1.73-1.69,2.68,0,2.69,0,2.69,2.66,0,3.95,0,7.91,0,11.87,0,.8-.16,1.19-1,1.07a9.53,9.53,0,0,0-1.31,0C164.33,37.18,164.33,37.18,164.09,35.37Z" transform="translate(142.76 22.65)"/><path class="cls-2" d="M134.36,1.35c-1.09,3.72-3.81,5.48-8,5.26a7.43,7.43,0,0,1-7-6.11,9.5,9.5,0,0,1,.6-5.86,7.84,7.84,0,0,1,9-4.3C132-9,134.46-6,134.66-2.42c0,.12,0,.24,0,.36,0,1.56,0,1.56-1.58,1.56-2.84,0-5.68,0-8.51,0-1,0-1.15.41-.93,1.21A3.14,3.14,0,0,0,126,3.16a3.73,3.73,0,0,0,4-1,2.3,2.3,0,0,1,2.14-.84C132.82,1.37,133.54,1.35,134.36,1.35Zm-4.15-4.62c-.23-2-1.14-3.05-2.78-3.23a3.41,3.41,0,0,0-3.72,2.18c-.23.68-.21,1.1.75,1.07C126.37-3.32,128.29-3.27,130.21-3.27Z" transform="translate(142.76 22.65)"/><path class="cls-2" d="M146.32-.5c-1.6,0-3.2,0-4.8,0-.61,0-.85.12-.7.83a3.2,3.2,0,0,0,2.27,2.79,3.74,3.74,0,0,0,4.09-.92,2.09,2.09,0,0,1,2-.84c.12,0,.24,0,.36,0,.65.07,1.63-.31,1.89.18s-.37,1.31-.75,1.92c-2.23,3.57-8.15,4.33-11.57,1.48-3.93-3.27-3.68-10.49.54-13.33a7.62,7.62,0,0,1,8.49-.43c2.9,1.66,3.74,4.49,3.8,7.66,0,.67-.35.68-.83.67C149.52-.51,147.92-.5,146.32-.5Zm-2.27-2.77c.92,0,1.84,0,2.75,0,.56,0,.69-.19.59-.7a3,3,0,0,0-3.14-2.54,3.27,3.27,0,0,0-3.41,2.57c-.14.62.1.67.58.66Z" transform="translate(142.76 22.65)"/><path class="cls-2" d="M97.57,37.6c-5,0-8.18-3.2-8.18-8.17s3.19-8.23,8.12-8.22,8.11,3.21,8.11,8.23S102.45,37.59,97.57,37.6Zm-3.75-8.22c0,.44,0,.88.06,1.31.25,2.11,1.45,3.43,3.22,3.58A3.36,3.36,0,0,0,101,31.49a7.5,7.5,0,0,0-.07-4.35,3.41,3.41,0,0,0-3.38-2.68,3.47,3.47,0,0,0-3.43,2.79A9.62,9.62,0,0,0,93.82,29.38Z" transform="translate(142.76 22.65)"/><path class="cls-2" d="M106.36-7.49a6.08,6.08,0,0,1,6-2.24c2.63.39,4.19,1.91,4.29,4.61.13,3.55.07,7.11.11,10.67,0,.53-.18.74-.69.67h-.12c-1.15-.07-2.62.47-3.35-.21s-.19-2.12-.21-3.22c0-2.08.05-4.16,0-6.24-.1-2.45-2-3.59-4.14-2.62a3,3,0,0,0-1.63,2.72A80.8,80.8,0,0,0,106.44,5c0,.88-.14,1.32-1.15,1.21s-2.41.32-3-.21-.21-2-.22-3.09c0-3.79,0-7.59,0-11.39,0-.79.22-1.08,1-1a11.53,11.53,0,0,0,1.44,0C106.21-9.43,106.21-9.43,106.36-7.49Z" transform="translate(142.76 22.65)"/><path class="cls-2" d="M178-7.44a6.17,6.17,0,0,1,6.56-2.22,4.33,4.33,0,0,1,3.65,4c.5,3.74.11,7.5.23,11.25,0,.39-.1.62-.53.6h-.24c-1.15,0-2.61.36-3.37-.2s-.18-2.09-.22-3.19c-.09-2.23.14-4.47-.14-6.7-.21-1.6-.92-2.36-2.27-2.47a2.83,2.83,0,0,0-3.29,2.12,15.37,15.37,0,0,0-.26,4.06c0,1.83,0,3.67,0,5.51,0,.67-.18.92-.87.88a23.08,23.08,0,0,0-2.63,0c-.66,0-.9-.14-.89-.85q0-6.94,0-13.91c0-.76.24-1,1-.9.4,0,.8,0,1.2,0C177.78-9.43,177.78-9.43,178-7.44Z" transform="translate(142.76 22.65)"/><path class="cls-2" d="M194.08,23.55c1.82-2.33,4.22-2.75,6.88-2.1,2.25.56,3.42,2.15,3.5,5,.1,3.35,0,6.71,0,10.07,0,.63-.27.72-.79.7-1.15,0-2.62.36-3.36-.21s-.2-2.09-.22-3.19c0-2,0-3.92,0-5.88-.07-2.69-1.64-3.87-4-3.06a2.69,2.69,0,0,0-1.75,2.22c-.44,2.1-.15,4.23-.22,6.34,0,1,0,2.08,0,3.12,0,.53-.17.69-.69.67-1,0-2,0-3,0-.55,0-.67-.19-.67-.69q0-7.08,0-14.15c0-.55.12-.84.73-.77.4,0,.8,0,1.2,0C193.81,21.58,193.81,21.58,194.08,23.55Z" transform="translate(142.76 22.65)"/><path class="cls-2" d="M172.67,29.54c0-1.36,0-2.72,0-4.08,0-.77-.25-.94-1-.92-.51,0-1.34.35-1.51-.24a4.64,4.64,0,0,1,0-2.48c.14-.51.93-.25,1.4-.21.86.07,1.12-.23,1.05-1.07s0-1.84,0-2.75c0-.59.09-.89.77-.85a27.67,27.67,0,0,0,2.88,0c.66,0,.81.23.79.83,0,1,0,2,0,3,0,.61.14.91.8.82.27,0,.56,0,.83,0,1.17-.19,1.64.17,1.54,1.46-.15,1.72.16,1.51-1.58,1.52-1.57,0-1.57,0-1.57,1.58,0,1.92,0,3.84,0,5.75s.35,2.2,2.09,2c.92-.1,1,.16,1,1,0,2.49,0,2.49-2.46,2.49-.52,0-1,0-1.56,0-2.37-.23-3.5-1.46-3.53-3.83C172.65,32.18,172.67,30.86,172.67,29.54Z" transform="translate(142.76 22.65)"/><path class="cls-2" d="M158.47-6.72A5.94,5.94,0,0,1,163-9.82c.94-.12,1.6,0,1.4,1.22a1,1,0,0,0,0,.24A6.43,6.43,0,0,1,164.35-6c-.4.87-1.38.09-2.12.24-2.29.47-3.5,1.91-3.54,4.65q-.06,3.24,0,6.47c0,.69-.18.9-.86.86-1.11-.07-2.57.37-3.25-.19s-.21-2.09-.22-3.2c0-3.59.06-7.19,0-10.78,0-1.31.39-1.69,1.57-1.49H156C158.39-9.43,158.39-9.43,158.47-6.72Z" transform="translate(142.76 22.65)"/><path class="cls-2" d="M98.85-1.52c0,2.27,0,4.55,0,6.83,0,.76-.23,1-1,.92-1.11-.07-2.55.34-3.25-.21s-.21-2.09-.22-3.19c0-3.76,0-7.52,0-11.27,0-.79.21-1.07,1-1a15.15,15.15,0,0,0,2.52,0c.77-.06.93.26.92,1C98.82-6.16,98.85-3.84,98.85-1.52Z" transform="translate(142.76 22.65)"/><path class="cls-2" d="M166.11-1.52c0-2.35,0-4.71,0-7.06,0-.68.19-.9.87-.86,1.1.07,2.55-.35,3.23.2s.22,2.09.23,3.19c0,3.75,0,7.5,0,11.25,0,.85-.22,1.11-1.06,1a17.52,17.52,0,0,0-2.51,0c-.64,0-.8-.19-.79-.81C166.13,3.11,166.11.8,166.11-1.52Z" transform="translate(142.76 22.65)"/><path class="cls-2" d="M182.22,29.33c0-2.27,0-4.54,0-6.82,0-.73.21-1,.94-.94.92.06,1.84,0,2.75,0,.52,0,.7.18.7.69,0,4.75,0,9.5,0,14.24,0,.53-.18.74-.69.67h-.12c-1.15-.06-2.61.47-3.35-.21s-.18-2.11-.21-3.21C182.19,32.28,182.22,30.81,182.22,29.33Z" transform="translate(142.76 22.65)"/><path class="cls-2" d="M111,63.19c0-1,0-2,0-3,0-.7-.15-1.29-1-1.28-.23,0-.53,0-.53-.34s.27-.33.52-.33h3.95c.23,0,.53,0,.52.31s-.22.34-.43.34c-1.09,0-1.17.71-1.16,1.54,0,2.16,0,4.31,0,6.47.1,3,2,4.63,4.85,4a3.74,3.74,0,0,0,2.82-3.47,35.2,35.2,0,0,0,0-7.4c0-.62-.26-1.18-1.07-1.18-.26,0-.62,0-.55-.43s.36-.23.57-.23h3.23c.22,0,.53-.09.6.23s-.21.42-.45.42c-1,0-1.12.69-1.14,1.47-.06,2.23-.07,4.47-.21,6.69-.22,3.37-1.85,4.85-5.22,4.85-3.57,0-4.86-1.17-5.14-4.78-.11-1.31,0-2.63,0-4Z" transform="translate(142.76 22.65)"/><path class="cls-2" d="M-85.7,60.57c2.72-.38,5.42-.72,8,.17a5.25,5.25,0,0,1,3.49,5.44,5.81,5.81,0,0,1-4.55,5.48,15.16,15.16,0,0,1-4.41.16c-.56,0-1.12,0-1.67-.08-.36,0-.9.39-1-.14s.5-.31.76-.46a1,1,0,0,0,.48-.9c.17-2.75.08-5.51,0-8.27C-84.55,61.16-85.2,61-85.7,60.57Zm2.68,5.1h0V69.5a1.47,1.47,0,0,0,1.14,1.62A4.78,4.78,0,0,0-77.32,70c1.46-1.5,1.78-4.75.7-6.75a5.39,5.39,0,0,0-5.6-2.35c-.54.11-.84.32-.82.94C-83,63.11-83,64.39-83,65.67Z" transform="translate(142.76 22.65)"/><path class="cls-2" d="M182.44,71.77a3.52,3.52,0,0,1-3.76-1.06,31.24,31.24,0,0,1-2.21-3.27c-.23-.35-.45-.7-.86-.77-.66-.13-1.3-.19-1.18.86a17.29,17.29,0,0,1,0,2.16c0,.73-.08,1.5,1,1.54.2,0,.26.16.26.33a.27.27,0,0,1-.32.27,14.83,14.83,0,0,0-3.46,0,.47.47,0,0,1-.38-.22c-.07-.22.1-.38.32-.39,1,0,1-.67,1-1.4q0-3.84,0-7.67c0-.63-.07-1.12-.82-1.22-.19,0-.42-.06-.38-.34s.27-.25.46-.26a19.58,19.58,0,0,1,5.13.05,2.79,2.79,0,0,1,2.46,2.27,2.71,2.71,0,0,1-1.3,3c-.86.52-.68.93-.26,1.55C179.3,68.88,180.21,70.78,182.44,71.77Zm-8-8.31c0,.64,0,1.27,0,1.91,0,.3.05.5.41.6A2.46,2.46,0,0,0,178,64.22,2.62,2.62,0,0,0,176,60.89c-1.34-.23-1.53-.08-1.53,1.25C174.44,62.58,174.45,63,174.45,63.46Z" transform="translate(142.76 22.65)"/><path class="cls-2" d="M-6.21,60.57a14,14,0,0,1,6.08-.1,2.59,2.59,0,0,1,2,2.13,2.76,2.76,0,0,1-1.25,3c-.8.49-.79.88-.31,1.56,1.17,1.68,2,3.61,4.19,4.49A3,3,0,0,1,.78,70.56c-.74-.94-1.34-2-2-3A2.1,2.1,0,0,0-2,66.72c-.84-.39-1.35-.07-1.36.85,0,.76,0,1.52,0,2.28s0,1.32.92,1.37a.31.31,0,0,1,.33.39.31.31,0,0,1-.37.22,12.88,12.88,0,0,0-3.34,0,.35.35,0,0,1-.44-.3c0-.25.18-.32.4-.33.84,0,.93-.59.93-1.23,0-2.6-.06-5.2,0-7.8C-4.88,61.18-5.52,61-6.21,60.57ZM-2.31,66c1.85,0,2.62-.83,2.61-2.51a2.53,2.53,0,0,0-2.64-2.64c-.74,0-1.11.16-1.07,1a21.31,21.31,0,0,1,0,3C-3.49,65.8-3.14,66.16-2.31,66Z" transform="translate(142.76 22.65)"/><path class="cls-2" d="M68,62.67c0,2.56,0,4.87,0,7.19,0,.72.14,1.38,1.1,1.36.26,0,.51.08.44.4s-.3.24-.5.21a9.79,9.79,0,0,0-2.86,0c-.21,0-.43,0-.45-.27s.17-.34.4-.35c.86,0,.91-.64.92-1.26,0-2.6,0-5.2,0-7.79a1.19,1.19,0,0,0-1.11-1.31c-.22,0-.54,0-.53-.36s.42-.23.65-.26a3,3,0,0,1,3.15,1.41c1.82,2.51,4,4.77,6,7.12.46-.16.29-.49.29-.73,0-1.87,0-3.75,0-5.63,0-.79,0-1.57-1.16-1.57-.21,0-.42-.13-.38-.36s.26-.25.48-.25h2.76c.22,0,.54-.07.6.23s-.25.35-.48.39c-.89.13-.87.83-.88,1.46,0,2.76,0,5.52,0,8.27,0,.44.3,1.08-.22,1.27s-.66-.47-.93-.79c-2.25-2.59-4.46-5.21-6.69-7.82C68.36,63.1,68.23,63,68,62.67Z" transform="translate(142.76 22.65)"/><path class="cls-2" d="M-42.44,62.61c0,2.5,0,4.7,0,6.9,0,.81,0,1.78,1.27,1.73a.3.3,0,0,1,.32.39c0,.19-.23.22-.39.2a11.89,11.89,0,0,0-3,0c-.22,0-.41,0-.41-.28a.27.27,0,0,1,.3-.3c1,0,1-.78,1-1.45,0-2.52,0-5,0-7.55a1.2,1.2,0,0,0-1-1.37c-.27,0-.59,0-.6-.43,1.85-.54,2.52-.28,3.61,1,2,2.45,4.11,4.85,6.18,7.27l.3-.09c0-1.88,0-3.76,0-5.64,0-.24-.06-.48-.07-.71,0-.76-.08-1.49-1.12-1.48-.22,0-.4-.13-.38-.36s.26-.25.46-.25h2.88c.19,0,.42,0,.47.23a.28.28,0,0,1-.24.35c-1.35.1-1.12,1.19-1.14,2-.06,2.67,0,5.35,0,8,0,.35.3.89-.21,1s-.56-.39-.78-.65l-6.62-7.75C-41.86,63.24-42.07,63-42.44,62.61Z" transform="translate(142.76 22.65)"/><path class="cls-2" d="M8.2,62.6c0,2.54,0,4.77,0,7,0,.79,0,1.69,1.23,1.63.21,0,.42.12.37.36s-.29.27-.49.24a11.41,11.41,0,0,0-2.86,0c-.22,0-.43,0-.44-.26s.16-.33.39-.34c.77,0,.84-.58.85-1.18q0-3.89,0-7.79a1.2,1.2,0,0,0-1-1.37c-.26-.06-.57,0-.6-.43,1.72-.54,2.56-.28,3.51.94,2,2.55,4.16,4.91,6.29,7.31.49-.21.33-.58.33-.86a55,55,0,0,0-.13-5.74c-.07-.64-.15-1.21-1-1.25-.24,0-.53,0-.52-.35s.33-.26.55-.26h2.75c.18,0,.43-.08.49.2a.28.28,0,0,1-.23.36c-1.31.13-1.13,1.16-1.14,2,0,2.67,0,5.35,0,8,0,.36.26.91-.21,1s-.61-.43-.86-.71Z" transform="translate(142.76 22.65)"/><path class="cls-2" d="M135.37,68.84a34.13,34.13,0,0,0,.16-6.68c-.07-.69-.17-1.39-1.14-1.33-.22,0-.41-.09-.4-.34s.26-.26.45-.26h2.88c.19,0,.43,0,.47.23a.32.32,0,0,1-.34.38c-.84.05-.89.64-.93,1.27-.21,2.95,0,5.91-.11,8.86,0,.3.31.77-.2.92s-.51-.33-.7-.56l-6.78-7.92c-.17-.21-.37-.4-.79-.83a66.5,66.5,0,0,0,.24,8c.09.57.49.66.95.68.26,0,.53.06.47.38s-.35.26-.57.23a11,11,0,0,0-2.75,0c-.2,0-.42,0-.46-.22a.31.31,0,0,1,.35-.37c.9,0,.89-.65.93-1.24.21-2.55.15-5.11.11-7.67a1.31,1.31,0,0,0-1.14-1.45c-.23,0-.55,0-.52-.37s.43-.23.68-.26a2.9,2.9,0,0,1,3,1.39C131.16,64.13,133.32,66.45,135.37,68.84Z" transform="translate(142.76 22.65)"/><path class="cls-2" d="M-94.55,71.72a3.26,3.26,0,0,1-3.87-1.43c-.66-.94-1.28-1.92-1.89-2.9a1.51,1.51,0,0,0-1.25-.78c-.61,0-.87.15-.83.8s0,1.52,0,2.28,0,1.49,1,1.53a.28.28,0,0,1,.29.3.28.28,0,0,1-.3.3,17.84,17.84,0,0,0-3.58,0,.29.29,0,0,1-.35-.25c0-.24.16-.36.38-.36,1,0,1-.71,1-1.42,0-2.36,0-4.72,0-7.07,0-1-.05-1.86-1.3-1.94,0-.16,0-.3.07-.3a13.59,13.59,0,0,1,6,0,2.53,2.53,0,0,1,2,2.28,2.71,2.71,0,0,1-1.29,2.87c-.84.5-.77.91-.28,1.57s1.07,1.59,1.62,2.37A5.61,5.61,0,0,0-94.55,71.72Zm-7.83-8.28v1.8c0,.33,0,.6.42.72a2.45,2.45,0,0,0,3.16-1.6,2.6,2.6,0,0,0-2-3.47c-1.38-.25-1.6-.06-1.6,1.35Z" transform="translate(142.76 22.65)"/><path class="cls-2" d="M56.9,71.92a5.64,5.64,0,0,1-6-5.81A6,6,0,0,1,57,60a5.72,5.72,0,0,1,5.91,6C63,69.06,60.39,72.3,56.9,71.92Zm4.16-5.52a6.72,6.72,0,0,0-1.05-4,3.71,3.71,0,0,0-3.68-1.76,3.56,3.56,0,0,0-3.17,2.4,7,7,0,0,0,.89,6.81,3.77,3.77,0,0,0,6.21-.16A5.45,5.45,0,0,0,61.06,66.4Z" transform="translate(142.76 22.65)"/><path class="cls-2" d="M-114.14,71.92c-3,.36-6-2.37-5.91-5.8A6,6,0,0,1-113.92,60,5.71,5.71,0,0,1-108,66C-108.07,69.5-110.91,72.35-114.14,71.92Zm4.28-5.26a7.41,7.41,0,0,0-1-4.17,3.72,3.72,0,0,0-3.76-1.83,3.6,3.6,0,0,0-3.18,2.55,6.78,6.78,0,0,0,1,6.77,3.75,3.75,0,0,0,6.19-.4A5.36,5.36,0,0,0-109.86,66.66Z" transform="translate(142.76 22.65)"/><path class="cls-2" d="M-10.84,67.84c-.62-.72-.49-1.62-1.47-1.71-2.28-.2-2.31-.23-2.31,2.06,0,2.92.24,3.12,3.16,3a2.36,2.36,0,0,0,2.23-1.5c.09-.21.21-.48.53-.34s.12.41.09.61c-.31,1.86-.49,1.93-2.39,1.86s-3.84,0-5.76,0c-.33,0-.83.24-.91-.24s.45-.32.73-.34c.72-.08.79-.68.8-1.15,0-2.72,0-5.44,0-8.16,0-1-.89-.94-1.34-1.36.19-.42.51-.31.77-.31h6.12c.33,0,.74-.13.8.43s.38,1.29.08,1.86c-.15.29-.43-.09-.57-.34a3.89,3.89,0,0,0-4.07-1.27c-.33.15-.3.43-.3.7,0,.6,0,1.2,0,1.8,0,2.16.27,2.35,2.45,2,.9-.13.75-1,1.33-1.41Z" transform="translate(142.76 22.65)"/><path class="cls-2" d="M161.71,65.89c0-1.12.07-2.25,0-3.36-.06-.71.18-1.72-1.09-1.76-.14,0-.22-.2-.17-.38s.25-.16.39-.16h6.71c.73,0,.49.59.57,1s.35,1,0,1.34c-.18.2-.38-.09-.51-.31a3.84,3.84,0,0,0-4-1.33c-.39.14-.32.41-.32.67,0,1.08,0,2.16,0,3.24,0,.32,0,.65.45.63.68,0,1.36,0,2,0s.68-.45.8-.89c.06-.2,0-.54.4-.46s.17.39.17.6c0,.8,0,1.6,0,2.4,0,.18.08.42-.2.47s-.29-.19-.37-.36a2.94,2.94,0,0,0-3.12-1c-.21.12-.19.32-.19.52,0,1.12,0,2.24,0,3.36a.93.93,0,0,0,.44.8c1.1.75,3.94.22,4.69-.84.19-.27.26-.85.67-.69s.1.67.05,1c-.18,1.27-.81,1.59-2.13,1.46a35.51,35.51,0,0,0-6.1,0c-.25,0-.63.17-.7-.22s.3-.38.56-.39c.67,0,.9-.42.9-1,0-1.43,0-2.87,0-4.3Z" transform="translate(142.76 22.65)"/><path class="cls-2" d="M28.64,71.7l-1.51.13c-.21,0-.44,0-.47-.24s.13-.36.36-.37c.8,0,.66-.5.47-1-.07-.18-.12-.38-.18-.57-.76-2.33-.76-2.3-3.19-2.34-.81,0-1.25.19-1.41,1-.11.62-.42,1.21-.58,1.82-.12.45-.44,1.07.5,1.08.21,0,.39.16.29.39a.47.47,0,0,1-.39.19,9.2,9.2,0,0,0-2.62,0c-.2,0-.41,0-.41-.29s.2-.32.41-.32c.76,0,1-.54,1.23-1.11,1.12-3,2.27-6,3.32-9a1.38,1.38,0,0,1,1-1c.49-.06.42.57.54.92.94,2.79,1.87,5.59,2.82,8.37.27.82.43,1.77,1.6,1.8a.29.29,0,0,1,.26.34.3.3,0,0,1-.35.25Zm-3.75-9.49c-.35,1-.62,1.73-.88,2.48-.71,2-.62,2.12,1.58,1.89.55-.06.69-.21.5-.75C25.69,64.71,25.34,63.58,24.89,62.21Z" transform="translate(142.76 22.65)"/><path class="cls-2" d="M88.39,71.7l-1.55.14c-.23,0-.45,0-.5-.24s.12-.38.35-.37c.91,0,.7-.5.49-1-.07-.18-.1-.38-.16-.57-.75-2.32-.75-2.27-3.21-2.32a1.19,1.19,0,0,0-1.41,1c-.14.58-.37,1.14-.52,1.71s-.59,1.22.54,1.18c.2,0,.25.19.21.35a.31.31,0,0,1-.36.24,8.53,8.53,0,0,0-2.62,0c-.2,0-.42,0-.42-.29s.18-.32.4-.32c.81,0,1-.63,1.27-1.23l3.21-8.59a2.57,2.57,0,0,1,.3-.76,1.37,1.37,0,0,1,.77-.51c.41,0,.41.42.5.7,1,2.9,1.92,5.81,2.91,8.7.26.77.4,1.69,1.53,1.71a.28.28,0,0,1,.27.33c0,.22-.24.28-.46.26Zm-3.72-9.32a8.7,8.7,0,0,0-.92,2.23c-.76,2.14-.76,2.13,1.5,2,.57,0,.78-.14.54-.77C85.37,64.71,85.05,63.57,84.67,62.38Z" transform="translate(142.76 22.65)"/><path class="cls-2" d="M-63.28,71.7l-1.56.14c-.22,0-.44,0-.5-.23s.11-.38.34-.38c.88,0,.71-.5.5-1-.09-.22-.15-.45-.22-.68-.69-2.18-.69-2.13-2.93-2.2-.95,0-1.5.2-1.68,1.18a13,13,0,0,1-.51,1.72c-.18.52-.41,1,.49,1a.27.27,0,0,1,.28.31c0,.27-.22.29-.43.26a8.72,8.72,0,0,0-2.5,0c-.2,0-.43,0-.46-.25s.14-.36.37-.36c.82,0,1.06-.59,1.29-1.2,1.09-2.91,2.16-5.81,3.26-8.72.09-.25.08-.54.33-.74.53-.45.92-.73,1.23.25.92,2.92,1.91,5.82,2.88,8.72.26.77.4,1.68,1.53,1.7a.3.3,0,0,1,.28.33c0,.23-.24.29-.45.27Zm-3.79-9.5-.87,2.41c-.77,2.18-.76,2.19,1.56,2,.52,0,.71-.16.5-.73C-66.29,64.73-66.63,63.59-67.07,62.2Z" transform="translate(142.76 22.65)"/><path class="cls-2" d="M200,62.54a6.76,6.76,0,0,1,.43-2.49,81.72,81.72,0,0,0,10.26.08c0,.53-.12,1.31-.18,2.09,0,.17-.05.32-.26.32s-.23-.15-.31-.3a3.2,3.2,0,0,0-3.49-1.37c-.44.12-.44.4-.44.72,0,2.8,0,5.59,0,8.39,0,.69.19,1.28,1.08,1.24.21,0,.44,0,.43.3s-.3.35-.54.31a15.87,15.87,0,0,0-3.58,0c-.22,0-.52,0-.52-.3s.23-.32.44-.31c1.11,0,1.19-.7,1.19-1.52,0-2.63,0-5.27,0-7.9,0-.74-.22-.95-1-.94C201.92,60.88,201.83,60.88,200,62.54Z" transform="translate(142.76 22.65)"/><path class="cls-2" d="M146.78,60.23h3.64c.18,0,.3.07.28.28a.32.32,0,0,1-.31.3c-.9.07-.62.59-.43,1.09q1.38,3.56,2.74,7.1c.51,0,.49-.44.6-.69.86-2,1.69-4.12,2.53-6.18.24-.58.68-1.23-.46-1.35a.28.28,0,0,1-.24-.35c0-.21.22-.2.37-.2h2.76c.15,0,.32,0,.37.2s0,.35-.21.35c-1.27,0-1.46,1.14-1.83,1.95-1.25,2.79-2.41,5.63-3.61,8.44-.11.28-.06.71-.49.73s-.44-.47-.56-.78c-1.18-3-2.4-6-3.52-9C148.09,61.27,147.44,60.88,146.78,60.23Z" transform="translate(142.76 22.65)"/><path class="cls-2" d="M31.36,59.68c1,.66,8.63.79,10.12.22a2.18,2.18,0,0,1-.06,1.29c-.11.44.18,1.17-.26,1.28s-.37-.64-.61-1c-.39-.52-3-.95-3.51-.53a.78.78,0,0,0-.21.53c0,2.83,0,5.67.06,8.5,0,.71.18,1.28,1.08,1.21.22,0,.43.12.41.34s-.35.3-.57.27a13.81,13.81,0,0,0-3.46,0c-.24,0-.55,0-.59-.26s.25-.37.51-.36c.87,0,1.07-.51,1.07-1.24,0-2.76,0-5.51,0-8.27,0-.72-.26-.87-.91-.85-1.24,0-2.53,0-3.15,1.39-.06.15-.16.29-.36.22s-.21-.31-.17-.49C30.94,61.25,31.14,60.52,31.36,59.68Z" transform="translate(142.76 22.65)"/><path class="cls-2" d="M-19.77,59.62c-.08,1.05-.13,1.75-.18,2.46,0,.19,0,.42-.26.45s-.3-.16-.38-.36c-.46-1-2.77-1.81-3.66-1.26-.26.16-.21.41-.21.64v8.52c0,.7.24,1.16,1,1.15.2,0,.43,0,.43.29s-.27.35-.5.32a15.4,15.4,0,0,0-3.59,0c-.19,0-.44,0-.48-.23s.21-.41.46-.39c1,.07,1.12-.64,1.13-1.33,0-2.76,0-5.51,0-8.27,0-.46-.1-.78-.66-.75-1.29.07-2.71-.24-3.4,1.35-.08.19-.25.35-.47.24s-.17-.32-.1-.52a11.35,11.35,0,0,0,.32-1.14c.13-.65.07-1.52,1.11-.64.2.16.62.06.94.06h6.6A2.23,2.23,0,0,0-19.77,59.62Z" transform="translate(142.76 22.65)"/><path class="cls-2" d="M217.77,66.15c.84-1.59,1.58-3,2.3-4.32.24-.46.61-1-.36-1a.28.28,0,0,1-.26-.34c0-.2.19-.21.35-.21h2.52c.2,0,.41,0,.41.29a.3.3,0,0,1-.3.31c-1,.11-1.32,1-1.75,1.65s-.88,1.7-1.44,2.48c-1.14,1.58-1.12,3.35-1,5.16,0,.68.32,1.15,1.11,1.1.25,0,.53.07.49.37s-.36.27-.59.24a13.82,13.82,0,0,0-3.34,0c-.27,0-.63.07-.66-.29s.29-.33.53-.33a.81.81,0,0,0,.91-.77,7.19,7.19,0,0,0-.33-4c-.73-1.46-1.45-2.92-2.19-4.37-.29-.57-.55-1.18-1.34-1.22-.22,0-.39-.13-.37-.37s.25-.26.44-.26h3c.15,0,.33,0,.37.19s0,.37-.18.39c-.87.08-.53.58-.34,1C216.37,63.19,217,64.58,217.77,66.15Z" transform="translate(142.76 22.65)"/><path class="cls-2" d="M183.54,68.73c.88.21.84.67,1,1a3,3,0,0,0,1.49,1.5,2.23,2.23,0,0,0,2.79-.65,2.21,2.21,0,0,0-.38-2.85c-.67-.61-1.49-1.06-2.22-1.61a3.79,3.79,0,0,1-1.85-2.66c-.2-2.33,1.59-3.71,4.19-3.4,1.2.15,1.81.61,1.77,1.83,0,.25.16.62-.26.67s-.34-.26-.43-.49a2,2,0,0,0-1.91-1.39,1.84,1.84,0,0,0-1.65,3.06,9.8,9.8,0,0,0,2.49,1.84,3.68,3.68,0,0,1,1.84,4.07,2.67,2.67,0,0,1-1.9,2.11,5.67,5.67,0,0,1-3.75-.08C183.45,71.12,184,69.86,183.54,68.73Z" transform="translate(142.76 22.65)"/><path class="cls-2" d="M-128.44,60.23h1.68c.19,0,.43,0,.49.23s-.18.34-.37.34c-1,0-1,.67-1,1.4,0,2.4,0,4.8,0,7.2,0,1.18.52,1.7,1.63,1.72,1.39,0,2.88.26,3.48-1.53.06-.2.2-.37.44-.31s.22.36.16.57c-.12.46-.29.91-.4,1.38a.73.73,0,0,1-.86.62,45.66,45.66,0,0,0-6.82,0c-.24,0-.54,0-.59-.26s.23-.38.47-.36c.79,0,.95-.51,1-1.1q0-4.07,0-8.15c0-.65-.22-1.18-1-1.16-.19,0-.44,0-.43-.29s.32-.29.55-.29Z" transform="translate(142.76 22.65)"/><path class="cls-2" d="M-50.24,58.26h2c.19,0,.42,0,.43.28a.35.35,0,0,1-.37.38c-1.34,0-1.29.89-1.29,1.81,0,3,0,5.92,0,8.87,0,.89.22,1.49,1.2,1.58.23,0,.53,0,.47.37s-.33.31-.57.29a17.22,17.22,0,0,0-3.93,0c-.26,0-.5,0-.55-.33s.28-.31.48-.33a1.17,1.17,0,0,0,1.11-1.29c.13-3.27.15-6.54,0-9.81,0-.71-.29-1.15-1.06-1.15-.25,0-.51,0-.5-.36s.3-.31.53-.31Z" transform="translate(142.76 22.65)"/><path class="cls-2" d="M93.62,66c0-1.23,0-2.47,0-3.71,0-.73-.06-1.49-1.11-1.48-.22,0-.43-.09-.39-.33s.26-.25.48-.25h3.47c.19,0,.43,0,.42.28s-.22.3-.42.31c-.9,0-1,.65-1,1.33,0,2.43,0,4.87,0,7.3a1.43,1.43,0,0,0,1.57,1.66c1.43,0,3,.29,3.58-1.54.06-.18.19-.38.44-.28s.17.32.15.51c-.13,1.58-.62,2-2.16,2-1.91,0-3.83,0-5.74.06-.31,0-.72.16-.77-.28s.39-.29.64-.33c.68-.09.79-.6.8-1.14,0-1.35,0-2.71,0-4.07Z" transform="translate(142.76 22.65)"/><path class="cls-2" d="M195.53,71.7l-1.66.14c-.21,0-.44,0-.5-.23a.31.31,0,0,1,.34-.39c1.08,0,1-.77,1-1.5V62.29c0-.75,0-1.5-1.05-1.5a.3.3,0,0,1-.33-.38c0-.2.23-.19.38-.19h3.48c.2,0,.44,0,.46.26s-.19.32-.4.32c-.93,0-1,.63-1,1.3q0,3.9,0,7.8c0,.67.09,1.31,1,1.3.23,0,.41.14.38.36s-.25.29-.47.27Z" transform="translate(142.76 22.65)"/><path class="cls-2" d="M47.18,71.81c-.73,0-1.68,0-2.64,0-.27,0-.64.11-.73-.21s.29-.36.54-.39c.67-.09.83-.52.83-1.11q0-4.06,0-8.15c0-.64-.16-1.11-.91-1.14-.23,0-.53,0-.49-.36s.29-.22.48-.22h3.36c.21,0,.44,0,.47.24s-.25.35-.48.36c-.6,0-.81.38-.84.94a70.9,70.9,0,0,0,0,8.5c0,.48.17.85.71.93.26,0,.67,0,.62.37S47.69,71.85,47.18,71.81Z" transform="translate(142.76 22.65)"/><path class="cls-2" d="M-90.93,71.71c-.48,0-1,.09-1.59.12-.2,0-.43,0-.5-.22s.11-.38.33-.38c1,0,1.07-.72,1.07-1.49,0-2.51,0-5,0-7.54,0-.74,0-1.4-1-1.4-.21,0-.41-.1-.4-.35s.27-.22.45-.22h3.36c.19,0,.42-.06.49.2s-.21.38-.44.39c-.69,0-.85.45-.88,1-.14,2.75-.11,5.5,0,8.25,0,.54.14,1.05.83,1.1.24,0,.55,0,.49.36s-.41.26-.67.25Z" transform="translate(142.76 22.65)"/><path class="cls-2" d="M141.81,66c0-1.24,0-2.47,0-3.71,0-.73,0-1.5-1-1.53a.29.29,0,0,1-.32-.38c0-.19.21-.2.37-.2h3.59c.17,0,.31.07.32.26a.28.28,0,0,1-.29.31c-1.2,0-1.12.86-1.12,1.68v7.05c0,.82-.09,1.68,1.12,1.7a.27.27,0,0,1,.29.3c0,.26-.22.32-.42.3a14.83,14.83,0,0,0-3.46,0c-.21,0-.41,0-.41-.3s.19-.31.4-.32c.9,0,1-.68,1-1.35C141.82,68.59,141.81,67.31,141.81,66Z" transform="translate(142.76 22.65)"/><path class="cls-2" d="M96.58-11.68c-2.15,0-2.07,0-2.19-2.22-.06-1.2.35-1.57,1.46-1.38a2.57,2.57,0,0,0,.48,0c2.55,0,2.52,0,2.54,2.55,0,.86-.27,1.15-1.09,1.05A9.59,9.59,0,0,0,96.58-11.68Z" transform="translate(142.76 22.65)"/><path class="cls-2" d="M184.46,15.69c2.12,0,2.12,0,2.12,2.08,0,1.56,0,1.56-1.58,1.56h-.24c-2.58,0-2.54,0-2.57-2.62,0-.86.26-1.13,1.08-1A9.43,9.43,0,0,0,184.46,15.69Z" transform="translate(142.76 22.65)"/><path class="cls-2" d="M168.28-11.68c-2.17,0-2.08,0-2.2-2.16-.07-1.23.31-1.65,1.48-1.43.12,0,.24,0,.36,0,.81.08,2-.38,2.35.19.41.78.14,1.92.17,2.91,0,.45-.26.5-.62.49Z" transform="translate(142.76 22.65)"/><path class="cls-2" d="M-43.7,14.07c0-6.24,0-12.48,0-18.72,0-.91-.19-1.31-1.18-1.21s-1.91,0-2.87,0c-.52,0-.71-.17-.7-.69,0-4.4,0-8.8,0-13.2,0-1,.64-.73,1.15-.73h20c2.86,0,2.86,0,2.86,2.86,0,3.52,0,7,0,10.56,0,.87-.14,1.29-1.16,1.23-1.55-.08-1.55,0-1.55,1.59V28.65a2.19,2.19,0,0,0,2.45,2.48c2.84,0,5.68,0,8.52,0a2.15,2.15,0,0,0,2.28-2.3q0-16.74,0-33.47c0-.9-.17-1.28-1.17-1.23-1.54.08-1.55,0-1.55-1.59,0-4,0-8,0-12,0-.76.18-1,1-1q11,0,22.07,0c.78,0,1,.21,1,1q-.06,6.36,0,12.72c0,.77-.26,1-1,.93-.88,0-1.77,0-2.64,0s-1.06.25-1.06,1.07c0,7,0,13.92,0,20.88,0,5.4,0,10.8,0,16.2a3.36,3.36,0,0,1-1,2.62c-3.19,3.25-6.31,6.57-9.44,9.89a1.93,1.93,0,0,1-1.56.67q-11.26,0-22.55,0a2.09,2.09,0,0,1-1.68-.71Q-38.17,39.66-43,34.6a2.35,2.35,0,0,1-.68-1.81C-43.69,26.55-43.7,20.31-43.7,14.07Z" transform="translate(142.76 22.65)"/><path class="cls-2" d="M-114-20.47c8.16,0,16.32,0,24.48,0,.9,0,1.23.18,1.22,1.17,0,5.56,0,11.12,0,16.68,0,1-.28,1.2-1.21,1.19q-7-.06-14,0c-.88,0-1.2-.21-1.15-1.13s.45-2.37-.16-3-2-.22-3.1-.23c-3,0-6.08,0-9.12,0-.86,0-1.07.26-1.06,1.08q.06,5.22,0,10.44c0,.8.25,1,1,1,4.4,0,8.8,0,13.2,0,1,0,1.31.18,1.3,1.23-.07,3.8-.06,7.6,0,11.39,0,.91-.26,1.15-1.15,1.14-4.4,0-8.8,0-13.19,0-.87,0-1.19.19-1.17,1.12.06,2.84.05,5.68,0,8.52,0,.86.17,1.25,1.11,1.16s1.76,0,2.64,0c.63,0,.84.24.83.85q0,6.3,0,12.6c0,.68-.25.9-.92.9q-12.18,0-24.35,0c-.66,0-.92-.19-.91-.89q0-6.3,0-12.59c0-.71.26-.9.92-.87.95,0,1.92-.06,2.87,0s1.12-.29,1.11-1.15c0-3.48,0-7,0-10.44,0-8.08,0-16.16,0-24.23,0-.94-.23-1.28-1.18-1.19s-1.92,0-2.88,0c-.62,0-.84-.17-.84-.81,0-4.32,0-8.64,0-13,0-.95.53-.87,1.15-.87Z" transform="translate(142.76 22.65)"/><path class="cls-2" d="M-59.91,12.76c0,5.72,0,11.43,0,17.15,0,1,.31,1.32,1.28,1.24s1.76,0,2.64,0c.61,0,.84.17.84.82q0,6.36,0,12.71c0,.67-.3.81-.87.81q-12.18,0-24.36,0c-.71,0-.88-.3-.88-.94,0-4.16,0-8.32,0-12.48,0-.77.31-1,1-.93,1,0,1.93,0,2.88,0,.68,0,.9-.19.89-.88,0-2.31,0-4.63,0-7,0-9.28,0-18.56,0-27.84,0-1-.16-1.48-1.29-1.34-.86.11-1.76,0-2.63,0s-.92-.26-.92-1c0-4.24,0-8.48,0-12.72,0-.83.31-1,1-1q12,0,24.11,0c.78,0,1,.2,1,1q-.06,6.36,0,12.72c0,.75-.24,1-1,.93s-1.69.07-2.52,0c-1.13-.15-1.3.34-1.29,1.34C-59.89,1.24-59.91,7-59.91,12.76Z" transform="translate(142.76 22.65)"/></svg>