<svg id="Layer_1" data-name="Layer 1" xmlns="http://www.w3.org/2000/svg" viewBox="0 0 395.25 353.86"><defs><style>.cls-1{fill:#14193f;}.cls-2{fill:#a68633;}</style></defs><title>FIU Engagement</title><path class="cls-1" d="M241,192a56.39,56.39,0,0,1-5.91.72c-8.71.18-11.19-2.31-11.18-11,0-4.48-.1-9,.05-13.44.08-2.67-.14-4.68-3.61-4.14-2.12.34-2.34-.95-2.38-2.69,0-2,.69-2.8,2.59-2.48,3.18.53,3.58-1.31,3.37-3.79a10.61,10.61,0,0,1,0-3c.29-1.47-1.16-3.79,1-4.25a16.27,16.27,0,0,1,7.38.15c1.48.41.8,2.71.67,4.09-.4,4.05.27,6.77,5.33,5.85.79-.15,1.75.62,2.64,1v5c-7.91.43-7.91.43-7.91,8.68,0,.5,0,1,0,1.48.29,3.24-1,6.74.78,9.69,1.53,2.58,5.08.23,7.13,2.15Z" transform="translate(154.25 148.69)"/><path class="cls-2" d="M151.43-70.35c0-10.5,0-21,0-31.5,0-3-.67-4.89-4.17-4.31-2.72.45-3-1.34-3-3.35,0-12.32.13-24.64.13-37,0-3.34,2.5-1.91,3.83-1.92,14.66-.09,29.33,0,44,0,4.17,0,8.34,0,12.5-.14,2.8-.1,4.22.57,4.17,3.86-.18,11.66-.16,23.33,0,35,0,3.08-1.33,3.47-3.91,3.5-6.68.1-6.69.21-6.69,6.89,0,24,0,48,.08,72a9.93,9.93,0,0,1-3,7.54c-7.73,8-15.32,16.1-22.89,24.24a7.57,7.57,0,0,1-6.1,2.6q-24.49-.16-49,0a7.43,7.43,0,0,1-6-2.45c-7.6-8.1-15.15-16.25-23-24.14a11.44,11.44,0,0,1-3.39-8.89c.09-23.84,0-47.67.13-71.5,0-4.56-.51-7.39-6-6.35-3.17.59-4.27-1-4.21-4.31.21-11.33.19-22.66,0-34,0-3.09.9-4,4-4q27.75.18,55.5,0c3.38,0,4.62,1.09,4.55,4.58-.21,10-.24,20,0,30,.09,4.1,1.73,8.49-5.21,7.91-1.75-.14-1.47,1.94-1.47,3.19,0,21.67.09,43.33,0,65,0,2.59,1.13,3.12,3.28,3.08,2.84-.05,5.67,0,8.5,0,7.49-.17,7.29,1.66,7.36-7.11.07-9.5,0-19,0-28.5ZM90.26-67.5c0,13.32,0,26.65,0,40a8.67,8.67,0,0,0,2.17,6.34c6.43,7.25,13.11,14.22,20,21a7.4,7.4,0,0,0,5.74,2.26c15.66,0,31.32-.07,47,0a7.08,7.08,0,0,0,5.7-2.32c6.25-6.65,12.52-13.3,19-19.75a10.75,10.75,0,0,0,3.38-8.36c-.14-25.65,0-51.3-.18-76.95,0-4.39,1-6.53,5.69-5.79,3.22.51,4.81-.63,4.7-4.31-.25-8-.16-16-.06-24,0-2.67-.74-3.91-3.66-3.89q-22.74.13-45.47,0c-2.57,0-3.56.93-3.53,3.51.07,8.49,0,17,0,25.48,0,1.88.37,3.42,2.69,3.2,3.13-.29,3.43,1.51,3.43,4q-.08,35.73,0,71.46c0,4.34-2.18,6.39-6.49,6.36-5.66,0-11.32-.09-17,0-4.51.09-6.31-2.26-6.31-6.46q0-35.73,0-71.46c0-2.53.4-4.29,3.48-4,2.43.25,2.62-1.38,2.61-3.2,0-8.49-.12-17,0-25.48,0-2.67-1-3.43-3.52-3.42q-23,.09-46,0c-2.5,0-3.61.76-3.58,3.41.1,8.49.08,17,0,25.48,0,2.94,1,3.72,4,2.91,5.11-1.36,6.19-.4,6.21,5C90.3-93.49,90.26-80.49,90.26-67.5Z" transform="translate(154.25 148.69)"/><path class="cls-2" d="M-64.68-148.39c19,0,38,.11,57-.1,3.75,0,4.88,1,4.84,4.68-.19,14.5-.17,29,0,43.49,0,2.84-.84,3.72-3.67,3.7-13.16-.13-26.32-.2-39.48,0-3.39,0-4.15-1.37-3.77-4.12.63-4.49-1.22-6.2-5.6-5.37-.16,0-.33,0-.5,0-4.23.4-10-2-12.3,1-2.13,2.75-.49,8.29-.83,12.59-.26,3.34,1.39,3.8,4.15,3.77,8.67-.1,17.33.13,26-.09,3.35-.08,4.27,1.06,4.23,4.28q-.23,16.48,0,33c0,3-1.21,3.64-3.85,3.6-8.67-.12-17.33.06-26-.16-3.42-.09-5,.85-4.51,4.43a12.75,12.75,0,0,1,0,3.49c-.62,4.17.65,6.39,5.29,5.52,3.64-.69,4.92.74,4.83,4.57-.24,11-.19,22,0,33,.05,3.19-.8,4.33-4.16,4.3q-30-.23-60,0c-3.11,0-3.92-.83-3.86-3.92.21-11,.26-22,0-33-.09-3.87.93-5.69,5-5,4.75.83,6.11-1.06,6-5.88-.28-20-.24-40-.06-60,0-4-.86-6-5.18-5.38s-6-1-5.8-5.7c.37-10.48.27-21,0-31.48-.11-4.1,1-5.41,5.28-5.36,19,.22,38,.1,57,.1Zm-.12,5.17v0c-17.33,0-34.65.08-52-.07-3.44,0-4.75.93-4.66,4.47.19,7.49.22,15-.07,22.48-.15,4.08,1.16,6,5.3,5.26,4.76-.86,5.36,1.55,5.33,5.6-.16,23.31-.24,46.63,0,69.95.06,4.85-1.25,6.72-6.05,5.94-3.57-.59-5.08.74-4.93,4.62.28,7.49.24,15,0,22.48-.09,3.42.88,4.63,4.47,4.59q24.5-.27,49,0c3.67,0,4.52-1.29,4.42-4.66-.21-7.16-.32-14.33,0-21.48.21-4.34-1.07-6.32-5.54-5.64-3.89.59-4.89-1.36-4.71-4.91a118.55,118.55,0,0,0,0-14c-.27-3.93,1.33-4.76,4.91-4.67,8.32.21,16.66-.11,25,.07,3.6.08,4.6-1.36,4.53-4.71-.16-6.83-.23-13.67.06-20.49.18-4.06-1.41-5.1-5.21-5-8.32.22-16.65-.07-25,.14-3.45.09-4.76-.92-4.64-4.49.22-6.32.25-12.66,0-19-.17-3.68,1.34-4.52,4.64-4.43,6.83.17,13.67.26,20.48-.05,4.08-.18,6,1,5.32,5.26-.47,3.12.7,4.44,4.12,4.36,9-.2,18-.15,27,0,3.48.07,4.67-1.13,4.61-4.61-.17-10.66-.26-21.33,0-32,.12-4.35-1.53-5.26-5.5-5.22C-30.82-143.12-47.82-143.22-64.8-143.22Z" transform="translate(154.25 148.69)"/><path class="cls-2" d="M12.92-70.26c0-10.49-.12-21,.08-31.48.06-3.42-.88-5-4.43-4.39-4.92.78-6.65-1.12-6.47-6.27.38-10.63.14-21.29,0-31.93,0-3.23,1.2-4.22,4.45-4.2,19.48.17,39,.26,58.45.05,4.31-.05,5.24,1.37,5.14,5.38-.27,10.65-.29,21.32,0,32,.11,4.07-1.3,5.63-5.11,5-4.86-.84-5.39,1.81-5.37,5.72.11,20.48.14,41,0,61.45,0,3.79,1.62,4.72,4.78,4.26,4.29-.62,5.79.91,5.67,5.41-.31,10.82-.19,21.65,0,32.47,0,3.13-1.07,4-4,4q-30-.17-60-.07C3,7.09,2,6.56,2.17,3c.46-11.14.47-22.31.22-33.45-.08-3.66,1-5,4.37-4.29,5.11,1,6.5-.94,6.28-6C12.62-50.59,12.92-60.43,12.92-70.26ZM36,2.06V2Q48.75,2,61.49,2C63.46,2,65,2,65-.81c-.12-7.76-.23-15.53.15-23.28.2-4.25-1.23-5.82-5.32-5.16s-5.09-1.2-5-5c.18-14.39.23-28.79,0-43.18-.11-8.1.75-16.22-.67-24.35a13.6,13.6,0,0,1,1.47-8.53c1.1-1.89,4.35-.59,6.62-.63C64.91-111,65-112.6,65-114.6c0-8.33-.09-16.66.08-25,.07-2.89-1-3.7-3.73-3.68q-25.25.17-50.48,0c-2.82,0-3.8.95-3.75,3.76.13,7.67.29,15.34-.07,23-.22,4.47,1.29,6.14,5.6,5.43S18-109.91,18-105.81q-.24,35.24,0,70.47c0,4.67-1.42,6.45-6,5.74-3.69-.57-5,1-4.84,4.76.26,7.15.25,14.33,0,21.49-.14,4,1,5.67,5.29,5.5C20.33,1.83,28.17,2.06,36,2.06Z" transform="translate(154.25 148.69)"/><path class="cls-2" d="M40.71,44.91H-120.68c-1,0-2,0-3,0-1.8.05-3.26,0-3.23-2.56,0-2.27,1-2.84,3.06-2.83,4.83,0,9.66-.11,14.49-.11q154.89,0,309.79,0c1.84,0,3.67.15,5.5.07,2.11-.08,3,.76,3,2.92s-1.05,2.55-2.8,2.48c-1.16,0-2.33,0-3.5,0Z" transform="translate(154.25 148.69)"/><path class="cls-1" d="M-44.95,100.43c.26,15.31-10.54,24.35-23.52,24.45-13.48.09-22.8-10-23-24.18-.17-16.24,10-25.5,23.55-25.54C-54.14,75.11-44.91,85.44-44.95,100.43Zm-36-.59c0,10.31,5,16.43,13.31,16.15,7.16-.23,11.41-5.13,12.35-14.19,1-9.56-4.14-17.06-11.8-17.76C-76,83.23-80.85,89.86-81,99.84Z" transform="translate(154.25 148.69)"/><path class="cls-1" d="M-.84,89.69C-1.13,93,.31,97-5.36,96.17c-2.07-.29-1.28,1.92-1.3,3-.09,6.66-.29,13.34,0,20,.19,3.74-.79,4.9-4.62,4.74-3.34-.13-5.15-.33-4.89-4.5.41-6.46-.05-13,.17-19.47.11-3.17-.68-4.65-4.07-4.1a14.41,14.41,0,0,1-4,0c-2.7-.35-3.39.83-3.34,3.38.13,6.66-.24,13.34.1,20,.2,3.86-1,4.84-4.73,4.73-3.31-.1-5.23-.26-5-4.47.39-6.81.1-13.65.13-20.48,0-1.75.12-3.49-2.48-3.12-2.44.35-3.16-.75-3.11-3.11s.35-4,3.25-3.49c2.16.35,2.16-1,2.36-2.7.86-7.29,4.58-10.37,12.1-10.09,1.89.08,4.55-.81,4.53,2.89,0,2.81,0,5-3.83,4.46-2.31-.31-3.19,1.23-3.25,3.41-.09,2.93,2.11,1.88,3.54,2s2.67-.06,4,.08c2.55.28,3.66-.29,3.86-3.35.45-7.12,7.8-11.57,14.54-9.43,2.82.89,1.33,3,1.62,4.52C.6,82.81.19,84-2,83.76c-1.47-.18-3.08-.37-3.94,1.32-.68,1.36-1.43,3.18-.48,4.23C-5.14,90.76-3,89.87-.84,89.69Z" transform="translate(154.25 148.69)"/><path class="cls-1" d="M93.29,161.71c6.71-5.38,13.14-7.2,19.61-.41,1.39,1.46,2-.27,2.73-.9,4.57-4.06,9.85-3.18,14.77-1.52,5.3,1.79,6.24,6.63,6.21,11.68-.05,6.16-.27,12.34.1,18.48.22,3.72-2,3.37-4,3s-5.74,2.05-5.6-3c.17-6-.12-12,0-18,.09-4.12-1.92-6.28-5.78-6.52-4-.24-6.06,2.07-6.13,6-.1,6.16-.31,12.34,0,18.48.19,4.64-3,2.83-5.05,3s-4.63,1-4.37-3.08c.37-5.64.18-11.33.07-17-.07-3.65-.65-7.2-5.41-7.47-3.82-.21-6.45,2.8-6.58,7.72-.16,5.49-.31,11,0,16.49.21,3.72-1.84,3.71-4.3,3.35-2.17-.32-5.57,1.73-5.43-3.21.25-9,0-18,.06-27,0-1.87-.7-4.46,2.67-3.92C89.34,158.39,93.57,155.68,93.29,161.71Z" transform="translate(154.25 148.69)"/><path class="cls-1" d="M-154.2,168.51c0-6.83.1-13.65,0-20.48,0-2.32.52-3.18,3-3.14,9.66.14,19.32.25,29,0,3.9-.12,3.28,2.12,3.28,4.4,0,2.46.68,5-3.55,4.68-6-.39-12,.21-18-.19-4.31-.28-3.59,2.36-3.43,4.73s-1.59,5.67,3.27,5.42,10,0,15-.1c2.86-.07,4.85-.24,4.91,3.92.07,4.41-2.06,4.36-5.14,4.28-4.82-.13-9.66.1-14.48-.11-2.76-.12-3.66.64-3.66,3.54,0,8.08-.15,8.08,7.67,8.08,5,0,10,.11,15-.08,4-.16,3,2.51,3.1,4.71s.34,4.16-3.15,4.08c-10-.22-20-.18-30,0-2.73.05-2.86-1.1-2.82-3.23C-154.13,182.16-154.2,175.34-154.2,168.51Z" transform="translate(154.25 148.69)"/><path class="cls-1" d="M29.05,187.12c-11,8.14-22,3.82-24.54-9.11-2.25-11.48,4.83-21.3,15.12-21A11.5,11.5,0,0,1,28,160.69c1.67-2.76,4.23-2.82,7.14-2.84s3.26,1.11,3.23,3.51c-.1,9.31-.22,18.64,0,27.95.15,7.32-2.9,12-9.82,14.62-6.63,2.48-16.52,1.16-20.27-3.18C6.76,199,5.13,197.12,6,194.55c.37-1,8.26-.84,8.85.38,2.48,5.11,6.32,5,10.61,3C28.77,196.41,29.61,193.67,29.05,187.12Zm-15.21-13.4c-.06,7.32,3.74,11.44,9.37,10.17,4.53-1,6.86-6,5.84-12.6-.7-4.49-4-7.45-8-7.18C16.61,164.4,13.89,168,13.84,173.72Z" transform="translate(154.25 148.69)"/><path class="cls-1" d="M-49.21,186.87c-2.45,1.53-4.31,3.47-6.95,4-8.14,1.79-15.11-2.2-17.24-10.29-1.47-5.59-1.32-11.2,1.54-16.45a14,14,0,0,1,20.19-4.7c.74.51,1.81,2.53,2.41.85,1.66-4.69,5.21-1.59,7.77-2.24,1.7-.44,1.49,1.42,1.42,2.46-.47,7.07.65,14.15-.66,21.27-.49,2.63.81,5.75.69,8.72-.26,6.49-4,11.63-9.71,13.47-8,2.57-17.73.73-21.24-4.18-1.13-1.58-3-4.56-1.65-5.18,2.64-1.21,6.81-2,8.86.35,3.29,3.82,6.76,4.89,10.91,2.78S-48.88,191.38-49.21,186.87Zm-15.64-12.54c.1,6,3,9.68,7.68,9.71s8.23-4.29,8.08-9.92c-.15-5.82-3.53-10-8-10C-61.79,164.14-64.95,168.3-64.85,174.33Z" transform="translate(154.25 148.69)"/><path class="cls-1" d="M164,177.28c-3,0-6,.14-9,0-3.46-.21-3.49,1.57-2.59,4,1.62,4.37,7.24,6.14,11.76,3.65a17.13,17.13,0,0,0,2.66-2.18c2.47-2.1,6.14-2,7.81-.67,1.94,1.5-.85,4-2.16,5.66-4,5.1-12,6.81-19.17,4.39-6.85-2.31-11-8.42-11.19-16.59-.26-10.18,7-18.15,16.87-18.48s16.92,6.73,17.31,17.15c.09,2.32-.29,3.33-2.86,3.16C170.3,177.13,167.13,177.29,164,177.28Zm-5.58-13.16a15.74,15.74,0,0,0-3.36,1.34c-1.71,1.08-3.4,2.78-2.92,4.81.53,2.22,2.83.75,4.31.92a37.43,37.43,0,0,0,6.44,0c1.23-.07,3,.78,3.57-.63s-.57-2.85-1.5-4C163.5,164.79,161.51,164.06,158.4,164.12Z" transform="translate(154.25 148.69)"/><path class="cls-1" d="M-33.06,168c2-7.29,5.21-10.05,12.79-10.84a27.52,27.52,0,0,1,10.4.69c5.91,1.67,7.77,4.08,7.92,10.33.19,7.8-.69,15.65.79,23.88-3.41-.93-7.2,2.26-10.29-1.73-.61-.79-1.79.49-2.63.93A18.26,18.26,0,0,1-24.75,193c-5.56-.6-9-4.14-9.28-9.32-.3-5.54,2.24-9.14,7.8-10.45,3.23-.76,6.61-.82,9.86-1.49,2.37-.5,5.35-1,5-4.43s-3.24-3.94-6-3.94c-1.44,0-3.68.18-4.17,1C-24.31,169.22-28.67,167.91-33.06,168Zm21.61,8c-3.51.74-6.75,1.3-9.91,2.15a4.16,4.16,0,0,0-3.19,4.91c.27,2.31,2.05,3.27,4.11,3.69C-14.6,188-11.18,184.06-11.45,176Z" transform="translate(154.25 148.69)"/><path class="cls-1" d="M92.13,113.16c-1.43,5.49-4.54,9.17-9.75,10.48-6.54,1.65-13.06,1.44-18.21-3.63-5.85-5.76-6.57-13-4-20.34,2.4-6.89,7.66-10.58,15.1-11.08a16.72,16.72,0,0,1,17.92,17.66c-.08,2.34-1,2.73-3,2.7-6.32-.08-12.65.08-19-.09-2.75-.08-3.06.89-2.34,3.2,1.59,5.11,9,7.54,13,3.51C85.12,112.38,88.29,113.05,92.13,113.16Zm-16.64-10.3a9.25,9.25,0,0,0,2.47,0c1.71-.5,4.63,1.45,5-1.27s-1.66-5-4.63-5.56c-2.47-.48-5-.51-7.07,1.25-1.44,1.2-2.95,2.8-2.51,4.57.54,2.17,2.82.69,4.29,1A10.2,10.2,0,0,0,75.49,102.86Z" transform="translate(154.25 148.69)"/><path class="cls-1" d="M115.94,106.64c0-11.18,6.91-18.15,17.9-18.06,10.73.09,17.55,7,17.67,17.88s-7,18.09-18,18.05C122.77,124.48,115.93,117.53,115.94,106.64Zm26.08-.28c-.06-6.84-3.08-10.68-8.38-10.63s-8.46,4.18-8.37,11.24c.08,6.63,3.35,10.5,8.73,10.33S142.08,113.27,142,106.36Z" transform="translate(154.25 148.69)"/><path class="cls-1" d="M65.74,177.25c-3,0-6,.15-9-.05s-3.29,1.37-2.61,3.67a7.86,7.86,0,0,0,10.65,4.66,14,14,0,0,0,3.67-2.48c2.54-2.6,6.49-2.3,8.12-.92,1.85,1.56-1.08,4.28-2.56,6.05-4,4.79-12.57,6.34-19.35,3.74-6.63-2.54-10.73-9.09-10.64-17,.09-9.13,6.41-16.74,14-16.92,13-.3,19.61,4.92,20.24,15.88.15,2.55-.3,3.66-3.11,3.46-3.14-.23-6.31,0-9.47,0Zm-4.46-6v0c1.32,0,2.65-.11,4,0,3.94.38,3.64-1.48,2.14-3.95-2.35-3.89-10.12-4.42-13.19-.91-1,1.15-.06,2.5-.15,3.76s1.37,1,2.29,1.05C58,171.28,59.63,171.25,61.28,171.25Z" transform="translate(154.25 148.69)"/><path class="cls-1" d="M-103.07,161.76c4.38-4,9-5.7,14.48-4.26,4.34,1.13,7,3.72,7.73,8.1,1.43,8.1.76,16.29.55,24.42-.11,4.35-4.17,1.42-6.34,2.06s-3.25-.31-3.18-2.89c.16-5.82.12-11.66-.07-17.48-.17-5.19-2.16-7.29-6.54-7.09s-6.23,3-6.4,6.92c-.26,5.82-.35,11.67-.08,17.49.21,4.58-2.94,2.92-5,3.05s-4.63,1-4.5-3c.27-8.82,0-17.65.18-26.48,0-1.55-1.65-4.65,1.84-4.49C-107.73,158.19-103.43,155.56-103.07,161.76Z" transform="translate(154.25 148.69)"/><path class="cls-1" d="M191.15,162.1c3.45-3.3,6.64-5.11,10.73-5.1,7.55,0,11.9,3.9,12.11,11.43.2,7,0,14,.12,20.94.1,4.78-3.38,2.34-5.3,2.68s-4.31.89-4.13-2.83c.27-5.8.13-11.63-.05-17.45-.11-3.74-1.23-7.11-5.82-7.2-4.34-.09-6.56,2.24-7.09,6.63a109.93,109.93,0,0,0-.3,16.92c.09,3.32-.86,4.46-4.12,4-2.52-.33-5.64,1.2-5.41-3.79.4-8.79.07-17.61.13-26.42,0-1.74-1-4.56,2.51-3.93C187,158.46,191.39,155.57,191.15,162.1Z" transform="translate(154.25 148.69)"/><path class="cls-1" d="M38.87,124.46c-8.63.05-14.69-4.23-16.84-11.89-2.37-8.43.68-17.47,7.28-21.62,6.06-3.8,16.24-3,21.65,1.84a7.14,7.14,0,0,1,1.89,2.26c.87,2,3,4,1.35,6.26-1.13,1.53-8.17,0-9.17-1.94-1.52-3-4-3.74-7-3.56s-4.89,1.94-6,4.58a15.5,15.5,0,0,0,.25,13c2.4,4.93,10,5.6,12.15.74,1.88-4.2,4.68-3.69,7.9-3.77,2.85-.07,2.8,1,2.06,3.35C52.2,120.7,47,124.41,38.87,124.46Z" transform="translate(154.25 148.69)"/><path class="cls-1" d="M159.68,109.92c0-2.84,0-5.67,0-8.5s.93-6.2-4.11-5.72c-2.29.22-1.54-2.09-1.61-3.43s-.31-3.15,1.68-2.88c4,.56,4-1.87,4.27-4.72.68-6.2,8.6-10.38,14.67-8,2.61,1,1.13,3.09,1.43,4.68s-.19,2.63-2.12,2.42a9.81,9.81,0,0,0-2.48.12c-2.15.35-2.4,2-2.4,3.75,0,2.19,1.65,1.76,2.85,1.66,2.36-.18,3.77.25,3.67,3.14-.08,2.41-.53,4-3.34,3.44s-3.28.93-3.23,3.37c.14,6.49-.22,13,.14,19.48.23,4.16-1,5.2-5.16,5.25s-4.59-1.7-4.32-5C159.87,115.93,159.68,112.91,159.68,109.92Z" transform="translate(154.25 148.69)"/><path class="cls-1" d="M5.73,106.48c0-4.82.16-9.65-.05-14.46-.15-3.32,2-3,3.86-2.64S15,87.43,15,92c0,9.64,0,19.28,0,28.92,0,5.29-4.22,2.05-6.36,2.9-2.33.93-3.07-.59-3-2.92.15-4.82,0-9.64,0-14.46Z" transform="translate(154.25 148.69)"/><path class="cls-1" d="M10.22,84.07c-2.81.42-4.72.31-4.69-3.77s1.89-4,4.84-4,4.76.08,4.82,4.08C15.25,84.65,13,84.33,10.22,84.07Z" transform="translate(154.25 148.69)"/><path class="cls-1" d="M90.26-67.5c0-13,0-26,0-39,0-5.38-1.1-6.34-6.21-5-3,.81-4,0-4-2.91,0-8.49.06-17,0-25.48,0-2.65,1.08-3.43,3.58-3.41q23,.12,46,0c2.51,0,3.55.75,3.52,3.42-.12,8.49,0,17,0,25.48,0,1.82-.18,3.45-2.61,3.2-3.08-.31-3.48,1.45-3.48,4q.08,35.73,0,71.46c0,4.2,1.8,6.55,6.31,6.46,5.66-.1,11.32-.05,17,0,4.31,0,6.49-2,6.49-6.36q0-35.73,0-71.46c0-2.49-.3-4.29-3.43-4-2.32.22-2.7-1.32-2.69-3.2,0-8.49.08-17,0-25.48,0-2.58,1-3.52,3.53-3.51q22.72.1,45.47,0c2.92,0,3.69,1.22,3.66,3.89-.1,8-.19,16,.06,24,.11,3.68-1.48,4.82-4.7,4.31-4.72-.74-5.72,1.4-5.69,5.79.19,25.65,0,51.3.18,77A10.75,10.75,0,0,1,189.82-20c-6.47,6.45-12.74,13.1-19,19.75a7.08,7.08,0,0,1-5.7,2.32c-15.65-.1-31.31-.07-47,0a7.4,7.4,0,0,1-5.74-2.26c-6.91-6.78-13.59-13.75-20-21a8.67,8.67,0,0,1-2.17-6.34C90.29-40.85,90.26-54.18,90.26-67.5Z" transform="translate(154.25 148.69)"/><path class="cls-1" d="M-64.8-143.22c17,0,34,.1,51-.08,4,0,5.62.87,5.5,5.22-.29,10.65-.2,21.32,0,32,.06,3.48-1.13,4.68-4.61,4.61-9-.19-18-.24-27,0-3.42.08-4.59-1.24-4.12-4.36.64-4.26-1.24-5.44-5.32-5.26-6.81.31-13.65.22-20.48.05-3.3-.09-4.81.75-4.64,4.43.29,6.32.26,12.66,0,19-.12,3.57,1.19,4.58,4.64,4.49,8.33-.21,16.66.08,25-.14,3.8-.11,5.39.93,5.21,5-.29,6.82-.22,13.66-.06,20.49.07,3.35-.93,4.79-4.53,4.71-8.32-.18-16.66.14-25-.07-3.58-.09-5.18.74-4.91,4.67a118.55,118.55,0,0,1,0,14c-.18,3.55.82,5.5,4.71,4.91,4.47-.68,5.75,1.3,5.54,5.64-.35,7.15-.24,14.32,0,21.48.1,3.37-.75,4.7-4.42,4.66q-24.48-.27-49,0c-3.59,0-4.56-1.17-4.47-4.59.19-7.49.23-15,0-22.48-.15-3.88,1.36-5.21,4.93-4.62,4.8.78,6.11-1.09,6.05-5.94-.26-23.32-.18-46.64,0-69.95,0-4.05-.57-6.46-5.33-5.6-4.14.75-5.45-1.18-5.3-5.26.29-7.48.26-15,.07-22.48-.09-3.54,1.22-4.5,4.66-4.47,17.32.15,34.64.07,52,.07Z" transform="translate(154.25 148.69)"/><path class="cls-1" d="M36,2.06c-7.83,0-15.67-.23-23.49.09-4.33.17-5.43-1.5-5.29-5.5.24-7.16.25-14.34,0-21.49-.14-3.76,1.15-5.33,4.84-4.76,4.55.71,6-1.07,6-5.74q-.33-35.23,0-70.47c0-4.1-1.15-5.93-5.34-5.24s-5.82-1-5.6-5.43c.36-7.65.2-15.32.07-23-.05-2.81.93-3.78,3.75-3.76q25.23.12,50.48,0c2.77,0,3.8.79,3.73,3.68-.17,8.33-.11,16.66-.08,25,0,2-.08,3.58-2.78,3.64-2.27,0-5.52-1.26-6.62.63a13.6,13.6,0,0,0-1.47,8.53c1.42,8.13.56,16.25.67,24.35.19,14.39.14,28.79,0,43.18,0,3.82,1,5.68,5,5s5.52.91,5.32,5.16C64.73-16.34,64.84-8.57,65-.81,65,2,63.46,2,61.49,2Q48.74,2,36,2Z" transform="translate(154.25 148.69)"/></svg>