<svg id="Layer_1" data-name="Layer 1" xmlns="http://www.w3.org/2000/svg" viewBox="0 0 804.15 899.66"><defs><style>.cls-1{fill:#f6f8f8;}.cls-2{fill:#0e2145;}.cls-3{fill:#0d2145;}.cls-4{fill:#fdfdfd;}.cls-5{fill:#bb9461;}.cls-6{fill:#cb0c2d;}</style></defs><title>Florida Panthers</title><path class="cls-1" d="M173.28,438.62q-2,4.2-4,8.38c-.7.57-.92,3.37-2.36.55-1.36-2.66-2.74-5.32-3.88-8.08-.85-2-2.4-2-4.09-1.93-2.47.12-1.69,2-1.71,3.35-.05,5.66,0,11.32-.05,17,0,1.78.32,2.79,2.42,2.8s2.57-.84,2.49-2.71c-.11-2.82,0-5.65,0-9.63,5.43,9.46,5.81,9.47,11,1.6,1.64,2.42.37,5.11.71,7.66.19,1.43-.36,3,2.08,3.08s2.56-1.28,2.54-3.12c-.07-5.49-.18-11,0-16.47.16-4.29-1.79-4.28-4.8-2.84Zm-34.23.38c0,1.08-.62,3.06.67,2.94,6.13-.57,4.25,3.77,4.39,6.78s.11,5.95,0,8.92c-.07,2,.27,3.12,2.65,3s2.12-1.51,2.12-3c0-4,0-7.93,0-11.9,0-2.13-.12-4.05,3-3.6,2.66.38,2.45-1.39,2.15-3.14C151,436.94,142,436.94,139.05,439Z" transform="translate(377.09 425.8)"/><path class="cls-2" d="M421.05-76c-4.13,29.86-9.23,54-13,70.19C366.5,171.49,274.81,277.76,255.36,300.34A259.15,259.15,0,0,1,236,321.19l-.41-.23.36.29-.84.72-.42-.06.35.1-.58.91c-1.47-.57-1.3.52-1.38,1.35a158.67,158.67,0,0,1-14.84,14.84c-.82.08-1.9-.09-1.36,1.35l-.81.55c-.07-.42-.21-.45-.41-.07l.34.14-.78.88-.44-.21.37.27c-19.89,19.73-41.57,37.35-64,54.07-37.55,28-77.5,52.12-118.88,74-1.6.85-3.12,1.84-4.67,2.77-1.71-.09-3.41,2.39-5.11,0C1,460.86-20.6,449.16-41.57,436.27c-67.78-41.67-128.57-91.45-178.56-153.72C-283.19,204-325.82,115.21-351.91,18.21c-6.88-25.58-11.77-51.59-16.51-77.64-2.7-14.81-3.24-29.79-5.69-44.57-1.15-9.15-.31-18.5-2.77-27.54-.46-1.7,0-3.63,0-5.46,1.77-.26,1.89-1.54,1.88-2.95q0-7.22,0-14.42c0-1.25-.22-2.31-1.67-2.63-.08-3.32-.25-6.65-.25-10q0-81.92,0-163.83c0-1.79-.37-3.65,1-5.16,1.82.56,3.19-.56,4.65-1.27,7.32-3.57,14.57-7.29,21.95-10.72C-258.38-390.24-162.41-413-62.87-422c5.71-.51,11.54-.2,17.11-2,9.35-.32,18.69-.61,28-1q45.35-1.75,90.68.2c7.35.31,14.57,3,22,1.14l2.16.15L104-423c25.57,2.44,51.11,5.28,76.48,9.31a848.52,848.52,0,0,1,168.22,44.3c25.37,9.62,50,20.87,74.37,32.75,3.13,1.29,4,3.5,4,7q-.19,85.44-.09,170.89c0,19-1.6,37.9-2.9,56.82-.13,1.29-.26,2.58-.38,3.87L423-92ZM-355.1-321c-2.41.47-1.88,2.4-1.89,4q0,80.54,0,161.07c0,1.55-.6,3.51,1.84,4,.84,16.79,1.6,33.59,3.37,50.32C-344.08-29-326.58,41.21-298,108.57c31,73.09,72.55,139.31,127.29,197.05,55.74,58.8,121.13,104.49,192.57,142,2.63,1.38,4.46,1,6.84-.26q29.22-15.33,57.23-32.74c69-42.95,129.68-95.21,178.55-160.41C347,144.12,391.37,19.59,403.18-117c.86-9.92,1.51-19.87,2.26-29.81,2-.92,1.55-2.75,1.55-4.35q0-82.91,0-165.82c0-1.56.56-3.49-1.81-4a551,551,0,0,0-75.53-32.81c-108.67-38-220.78-52.9-335.57-49.53A943.62,943.62,0,0,0-189.44-380C-246.95-366.81-302.62-348.37-355.1-321Z" transform="translate(377.09 425.8)"/><path class="cls-3" d="M-376.67-157c1.45.32,1.68,1.38,1.67,2.63q0,7.22,0,14.42c0,1.41-.11,2.69-1.88,2.95Z" transform="translate(377.09 425.8)"/><path class="cls-1" d="M97.14-423.5,95-423.65C95.82-425.36,96.52-425,97.14-423.5Z" transform="translate(377.09 425.8)"/><path class="cls-2" d="M173,449.93c-5.15,7.87-5.53,7.86-11-1.6,0,4-.08,6.81,0,9.63.08,1.87-.45,2.71-2.49,2.71s-2.44-1-2.42-2.8c.07-5.66,0-11.32.05-17,0-1.33-.76-3.23,1.71-3.35,1.69-.09,3.24-.11,4.09,1.93,1.14,2.76,2.52,5.42,3.88,8.08,1.44,2.82,1.66,0,2.36-.55a8.43,8.43,0,0,0,4-8.38l.27-.38c1,.79,3.1.54,3.14,2,.19,6,.08,12.06.08,18.09-2.05-1.5-1.64-3.16-1.78-4.74s.55-3.35-1-4.62c-.91-.21-1.21.18-1,1Z" transform="translate(377.09 425.8)"/><path class="cls-2" d="M154,439c.3,1.75.51,3.52-2.15,3.14-3.1-.45-3,1.47-3,3.6.07,4,0,7.93,0,11.9,0,1.52.2,2.95-2.12,3s-2.72-1.07-2.65-3c.11-3,.14-5.95,0-8.92s1.74-7.35-4.39-6.78c-1.29.12-.7-1.86-.67-2.94Z" transform="translate(377.09 425.8)"/><path class="cls-3" d="M174,449c1.56,1.27.88,3,1,4.62s-.27,3.24,1.78,4.74c0-6,.11-12.06-.08-18.09,0-1.5-2.14-1.25-3.14-2,3-1.44,5-1.45,4.8,2.84-.2,5.48-.09,11,0,16.47,0,1.84,0,3.22-2.54,3.12s-1.89-1.65-2.08-3.08c-.34-2.55.93-5.24-.71-7.66l-.05.12C174,450.43,173.73,449.46,174,449Z" transform="translate(377.09 425.8)"/><path class="cls-3" d="M154,439H139.05C142,436.94,151,436.94,154,439Z" transform="translate(377.09 425.8)"/><path class="cls-3" d="M173.28,438.62a8.43,8.43,0,0,1-4,8.38Q171.26,442.81,173.28,438.62Z" transform="translate(377.09 425.8)"/><path class="cls-4" d="M422.08-84" transform="translate(377.09 425.8)"/><path class="cls-3" d="M233.11,324.27c.08-.83-.09-1.92,1.38-1.35Z" transform="translate(377.09 425.8)"/><path class="cls-3" d="M216.91,340.46c-.54-1.44.54-1.27,1.36-1.35Z" transform="translate(377.09 425.8)"/><path class="cls-3" d="M236,321.25l-.36-.29.41.23Z" transform="translate(377.09 425.8)"/><path class="cls-3" d="M235.07,322l-.35-.1.42.06Z" transform="translate(377.09 425.8)"/><path class="cls-3" d="M215.18,342l-.37-.27.44.21Z" transform="translate(377.09 425.8)"/><path class="cls-3" d="M216,341.08l-.34-.14c.2-.38.34-.35.41.07Z" transform="translate(377.09 425.8)"/><path class="cls-5" d="M405.44-146.84c-.75,9.94-1.4,19.89-2.26,29.81C391.37,19.59,347,144.12,264.44,254.24,215.57,319.44,154.86,371.7,85.89,414.65q-28,17.44-57.23,32.74c-2.38,1.25-4.21,1.64-6.84.26-71.44-37.54-136.83-83.23-192.57-142-54.74-57.74-96.34-124-127.29-197-28.54-67.36-46-137.56-53.73-210.25-1.77-16.73-2.53-33.53-3.37-50.32,0-.83.13-1.66.13-2.49L-355.1-321c52.48-27.34,108.15-45.78,165.66-59A943.62,943.62,0,0,1-5.93-403.38c114.79-3.37,226.9,11.52,335.57,49.53A551,551,0,0,1,405.17-321q0,76.64,0,153.27C405.14-160.79,405.34-153.82,405.44-146.84ZM-70.25-70.22c-.32.08-.78,0-.93.25q-16,21.8-32,43.59c-1.25,1.7.06,1.86,1,2.39,6.79,4.23,14.38,6.82,21.47,10.44a5.76,5.76,0,0,0,2.4.53c18.85.55,37.63.27,56.14-4a8.67,8.67,0,0,0,4.25-2.42A240.8,240.8,0,0,0,11.14-53c3.17-4.5,4.7-9,3.71-14.43,7-3.48,15-3.37,23.11-6.13-4.6-1.86-8.35-3.59-12.25-4.89C21.2-80,17.1-82.93,12-82.51c-.81-1.43-2.21-1.19-3.52-1.28-26-1.82-51.11,2.93-75.59,11.48C-68.3-71.89-69.72-71.73-70.25-70.22ZM91.29-102.7a422.63,422.63,0,0,0,75.89-33.09c13.12-7.24,26.16-14.59,40.19-20.09,11.59-4.53,23-6.07,34.92-1.59,2.64,1,5.44,1.55,8.15,2.38,11.58,3.54,20.95,18.89,19.07,30.85-3.55,22.58-9,44.71-15.38,66.65-9.46,32.64-11.52,35.74-38.64,56.06-2.27,1.7-4.63,3.28-6.84,5-1.1.87-2.87,1.06-3.24,3.1A421.88,421.88,0,0,0,262.81-6.9c4.25-1.3,7.06-.52,10.3,2.19,22.9,19.13,42,41.8,60.94,64.66.85,1,1.25,2.77,3.29,2.75.53-1.43,1.06-2.81,1.55-4.2a713.42,713.42,0,0,0,37.86-178.9c1.28-15.91,1.33-16-13.83-22.39-100.46-42.4-205.74-61.67-314.27-64.85a910.41,910.41,0,0,0-185.07,13.69c-61.39,10.83-121.19,27.2-178.49,52.11-12.93,5.62-12.91,5.63-11.84,19.42A702.81,702.81,0,0,0-284.24,70.66c46.44,124,123,224.92,231.39,301.35,2.92,2.05,4.93,2.11,7.93.31,16.54-9.93,30.13-23,41.78-38.24a238.08,238.08,0,0,0,14.5-22c1.26,1.54,2.25,2.63,3.11,3.83,12.15,16.88,18.66,35.93,21.7,56.33.14,1-1.48,3.37,1.54,3.09a152.3,152.3,0,0,1-12.17,43.22c2.35-1.14,3.54-1.67,4.69-2.28a666.62,666.62,0,0,0,94.09-60.1c12.4-9.52,24.83-19,35.93-30.07,1.54-.07,2.25-1.33,3.14-2.26a245.85,245.85,0,0,0,36.37-49.34c22-39,34.35-81.1,40.12-125.28,1.08-8.23,3.49-16.77,1.62-24.8-6.8-29.24-17.3-57-35.48-81.38-2.85-3.81-5.68-7.7-10-10.91.11,1.18.11,1.83.23,2.46,3.63,19.49,6.08,39.15,8.48,58.81.32,2.63.48,5.15-.81,7.77-12.1,24.71-28.71,46-49,64.45a7.93,7.93,0,0,1-4.8,2.29c-13.65,1.36-27.3,1.57-40.85-.66-40.94-6.73-79.11-20.83-114-43.43A10,10,0,0,0-10.23,122c-10.84-.15-21.65,0-32.38,1.76-7.8,1.25-15.6,2.53-23.53,3.83.15-2.45,1.58-4,2.49-5.7,11.54-22.06,21.39-44.76,26.79-69.2.54-2.44.48-4.28-1.48-6.26C-48.92,35.8-59.79,25.5-71.71,16.33A11.36,11.36,0,0,0-80,13.86c-15.28,1-30.58,1.78-45.86,2.8-2.92.2-3.39-.46-2.66-3.26,2.82-10.79,5.4-21.64,8.05-32.48.28-1.15.93-2.35,0-3.81-7,5.77-14,11.47-19.15,18.48C-148,7-159.51,12.08-172.75,14.64a24.58,24.58,0,0,0-4.37,1c-14.07,5.49-26.7,2-38.62-6a5.08,5.08,0,0,0-.87-.51c-2.7-1.13-2.77-2.55-1-4.88A173.54,173.54,0,0,1-202.9-13.38a185.44,185.44,0,0,1,59.35-40.73c3-1.28,3.46-2.1,1.27-4.68a29.11,29.11,0,0,1-5.58-11.62c-.72-2.71-.25-4.66,2.38-6.29,9.92-6.12,19.67-12.5,30-17.88l.71.83c-.34,2.8-2,5.42-1.38,8.92a234.66,234.66,0,0,1,43.9-29.23c4.48-2.26,7.15-5.17,8.62-10,2.31-7.65,5.87-14.86,9.58-22a148,148,0,0,1,9.87-16.2c2.82-4,7-3.25,10.87-3.35,3.37-.08,2.45,3.44,3.28,5.35a72,72,0,0,0,9.2,16c2.62,3.35,3.15,4.78-1.75,6.46a101.23,101.23,0,0,0-28.19,15.45,5.62,5.62,0,0,0,2.5-.1c29.59-7,59.41-12.06,90-11.33,19.89.47,39.53,2.76,58.78,7.87,6.7,1.78,6.73,1.84,2.37,7.52-4,5.14-8,10.2-12,15.3-.19.18-.55.49-.52.53C90.7-102.08,91-102.35,91.29-102.7Zm-419.47-62c2-.86,3.08-1.29,4.12-1.75A694.48,694.48,0,0,1-233.92-199a899.51,899.51,0,0,1,133.33-27.32c27.9-3.64,55.89-6.17,84-7.39,22.94-1,45.92-1.36,68.91-.51,19.63.73,39.24,1.69,58.79,3.47a964.28,964.28,0,0,1,107.57,15.7c53.3,11,105.26,26.31,155.06,48.47,3.93,1.75,4.6,1.12,4.59-3q-.17-65.76,0-131.5c0-3.2-1.17-4.62-3.93-5.92-31.75-14.9-64.76-26.32-98.42-35.94A888.79,888.79,0,0,0,147.49-369.3,889.59,889.59,0,0,0,56-376.78c-24.46-.69-48.95-.67-73.44.48-20.29,1-40.54,2.32-60.7,4.56a894.86,894.86,0,0,0-129.46,23.82c-39.66,10.48-78.52,23.23-115.83,40.48-3.47,1.61-4.89,3.46-4.88,7.48.17,43.33.1,86.66.1,130ZM198.27-72.09c-3.13,10-7.17,18.91-11,28-2.61,6.24-8.19,12.06-7.6,18.56s5.14,12.86,7.57,19.41c1.24,3.36,2.43,3.43,5.25,1.61,12.48-8.08,23.86-17.53,35-27.3a15.71,15.71,0,0,0,4.79-7.36c8.79-27.27,15.76-55,22.15-82.93.94-4.1-2.64-13.78-6.49-15.32-7.84-3.11-15.92-6.5-24.64-3.79-24.2,7.52-43.15,23.58-64,39.18,11,0,20.33-2.31,29.76-3.08.37,2.24-.69,3.66-1.4,5.11-4.41,9-8.77,17.94-13.44,26.76-1.9,3.58-1.33,4.72,2.66,4.16C183.78-70.1,190.67-71,198.27-72.09ZM59.14-61.85c0,2,0,3.11,0,4.27C59.67-34,59.67-33.95,45-15.71c-.52.65-1,1.3-1.58,1.93L18.64,15.55C34.33,8.37,48.88,1.87,63.27-4.94c7-3.33,16.3-4.48,20.42-10.64s4.13-14.87,5.93-22.48c.19-.81.24-1.65.43-2.46A3.16,3.16,0,0,0,88.67-44C79.69-50.88,70.35-57.16,59.14-61.85Z" transform="translate(377.09 425.8)"/><path class="cls-3" d="M-355.1-321l.09,166.54c0,.83-.09,1.66-.13,2.49-2.44-.48-1.84-2.44-1.84-4q0-80.53,0-161.07C-357-318.63-357.51-320.56-355.1-321Z" transform="translate(377.09 425.8)"/><path class="cls-3" d="M405.44-146.84c-.1-7-.3-13.95-.3-20.93q0-76.64,0-153.27c2.37.54,1.81,2.47,1.81,4q0,82.92,0,165.82C407-149.59,407.43-147.76,405.44-146.84Z" transform="translate(377.09 425.8)"/><path class="cls-1" d="M174,449c-.25.45.05,1.42-1,1C172.77,449.19,173.07,448.8,174,449Z" transform="translate(377.09 425.8)"/><path class="cls-3" d="M37.71,375.35c-3,.28-1.4-2.11-1.54-3.09-3-20.4-9.55-39.45-21.7-56.33-.86-1.2-1.85-2.29-3.11-3.83a238.08,238.08,0,0,1-14.5,22c-11.65,15.24-25.24,28.31-41.78,38.24-3,1.8-5,1.74-7.93-.31-108.44-76.43-185-177.36-231.39-301.35a702.81,702.81,0,0,1-42.51-193.08c-1.07-13.79-1.09-13.8,11.84-19.42,57.3-24.91,117.1-41.28,178.49-52.11A910.41,910.41,0,0,1,48.65-207.64c108.53,3.18,213.81,22.45,314.27,64.85,15.16,6.4,15.11,6.48,13.83,22.39A713.42,713.42,0,0,1,338.89,58.5c-.49,1.39-1,2.77-1.55,4.2-2,0-2.44-1.71-3.29-2.75-18.93-22.86-38-45.53-60.94-64.66-3.24-2.71-6.05-3.49-10.3-2.19a421.88,421.88,0,0,1-57.4,13.51c.37-2,2.14-2.23,3.24-3.1,2.21-1.76,4.57-3.34,6.84-5,27.12-20.32,29.18-23.42,38.64-56.06,6.35-21.94,11.83-44.07,15.38-66.65,1.88-12-7.49-27.31-19.07-30.85-2.71-.83-5.51-1.38-8.15-2.38-11.89-4.48-23.33-2.94-34.92,1.59-14,5.5-27.07,12.85-40.19,20.09A422.63,422.63,0,0,1,91.29-102.7a5.66,5.66,0,0,0-.43-.42c4-5.1,8.06-10.16,12-15.3,4.36-5.68,4.33-5.74-2.37-7.52-19.25-5.11-38.89-7.4-58.78-7.87-30.55-.73-60.37,4.35-90,11.33a5.62,5.62,0,0,1-2.5.1,101.23,101.23,0,0,1,28.19-15.45c4.9-1.68,4.37-3.11,1.75-6.46a72,72,0,0,1-9.2-16c-.83-1.91.09-5.43-3.28-5.35-3.82.1-8-.68-10.87,3.35A148,148,0,0,0-54-146.07c-3.71,7.1-7.27,14.31-9.58,22-1.47,4.88-4.14,7.79-8.62,10a234.66,234.66,0,0,0-43.9,29.23c-.65-3.5,1-6.12,1.38-8.93l.44-.75-1.15-.07c-10.36,5.38-20.11,11.76-30,17.88-2.63,1.63-3.1,3.58-2.38,6.29a29.11,29.11,0,0,0,5.58,11.62c2.19,2.58,1.7,3.4-1.27,4.68A185.44,185.44,0,0,0-202.9-13.38,173.54,173.54,0,0,0-217.64,4.23c-1.74,2.33-1.67,3.75,1,4.88a5.08,5.08,0,0,1,.87.51c11.92,8.05,24.55,11.53,38.62,6a24.58,24.58,0,0,1,4.37-1c13.24-2.56,24.75-7.62,33.21-19,5.19-7,12.14-12.71,19.15-18.48.88,1.46.23,2.66,0,3.81-2.65,10.84-5.23,21.69-8.05,32.48-.73,2.8-.26,3.46,2.66,3.26,15.28-1,30.58-1.79,45.86-2.8a11.36,11.36,0,0,1,8.26,2.47C-59.79,25.5-48.92,35.8-38.34,46.44c2,2,2,3.82,1.48,6.26-5.4,24.44-15.25,47.14-26.79,69.2-.91,1.72-2.34,3.25-2.49,5.7,7.93-1.3,15.73-2.58,23.53-3.83,10.73-1.73,21.54-1.91,32.38-1.76a10,10,0,0,1,5.54,1.83c34.89,22.6,73.06,36.7,114,43.43,13.55,2.23,27.2,2,40.85.66a7.93,7.93,0,0,0,4.8-2.29c20.27-18.49,36.88-39.74,49-64.45,1.29-2.62,1.13-5.14.81-7.77-2.4-19.66-4.85-39.32-8.48-58.81-.12-.63-.12-1.28-.23-2.46,4.3,3.21,7.13,7.1,10,10.91C224.2,67.4,234.7,95.2,241.5,124.44c1.87,8-.54,16.57-1.62,24.8-5.77,44.18-18.15,86.27-40.12,125.28a245.85,245.85,0,0,1-36.37,49.34c-.89.93-1.6,2.19-3.14,2.25-20-43.7-49.45-80.18-85.28-112,6.15,19.18,11.65,38.37,10.37,59.64C48.34,232.93,5,201.88-42.53,176.4c-.75-.31-1.51-.65-2.24.06l1.66.65c13.82,13.25,26.83,27.21,38.1,42.72C28.75,266.3,47.84,316.82,37.71,375.35ZM-98.39,107.64l-.25-.24c.17-.62.11-1-.61-.51a.53.53,0,0,1-.59-.44c.21-2.73-1.07-3.55-3.58-2.8l-.27-.27c.19-.57.19-.91-.5-.42a.62.62,0,0,1-.72-.49c.62-2.63-.78-2.44-2.5-1.8l-.24-.18c.28-2.33-1-2.47-2.75-2l-.15-.15c2.28-2.86,6.16.06,8.55-2.37,3.7-.32,7.27.72,10.91,1.07,2.21.21,4.55,2,5.91-1.93,1.14-3.31,0-4.65-2.39-6.39-7.38-5.33-15.31-9.75-24-14.54,9.73-1.73,18.65-1.22,27.57-1.09,1.71,0,4.1,1.57,4.89-1.62.68-2.77,0-4.55-2.67-6.07a157.11,157.11,0,0,0-30.54-13.3c-.79-.26-2.18.19-2-1.67A167.89,167.89,0,0,1-91,45.62c-2.9-3.4-5.56-6.1-7.72-9.16s-4.77-3.9-8.41-3.93c-17.36-.15-34.55,1.64-51.74,3.67a7.11,7.11,0,0,0-3.67,1.38c-5.42,4.16-10.74,8.37-15.34,13.5a14,14,0,0,0-3.86,11.24c.56,7.3.57,14.64.52,22,0,2.72.79,4.12,3.32,5.26,24.84,11.22,49.92,21.82,75.9,30.13,1.43.45,3.64,2.66,4.75.1,1.2-2.76,5.15-4.72,3-8.65.54-2.73-1-3.05-3.12-2.66l0-.06C-97.41,107.72-97.71,107.43-98.39,107.64ZM-89,154.06c-32-14-62.33-28.42-90.25-47.3-.9-.62-1.56-1.55-2.91-.27-4.37,4.15-8.85,22-6.61,27.9a90.2,90.2,0,0,0,21.45,32.72c2.9,2.84,5.38,4,9.44,2s8.47-2.94,12.77-4.22A307.69,307.69,0,0,1-89,154.06Zm-116.48-39.93c5.68-8.38,11.15-16.52,17.86-23.72.88-.94,1.35-1.78.78-3.08-6-13.47-6.91-29.35-19.34-39.7a28.15,28.15,0,0,1-4.11-5c-2.57-3.5-5.07-7-7.84-10.9-3.57,9.35-6.86,18-10.23,26.71-.68,1.75-1.2,3.35-.46,5.25C-222.18,80.89-214.94,97.83-205.52,114.13Z" transform="translate(377.09 425.8)"/><path class="cls-6" d="M-328.18-164.74V-170c0-43.34.07-86.67-.1-130,0-4,1.41-5.87,4.88-7.48,37.31-17.25,76.17-30,115.83-40.48A894.86,894.86,0,0,1-78.11-371.74c20.16-2.24,40.41-3.6,60.7-4.56,24.49-1.15,49-1.17,73.44-.48a889.59,889.59,0,0,1,91.46,7.48A888.79,888.79,0,0,1,276-342.94c33.66,9.62,66.67,21,98.42,35.94,2.76,1.3,3.94,2.72,3.93,5.92q-.18,65.74,0,131.5c0,4.11-.66,4.74-4.59,3-49.8-22.16-101.76-37.47-155.06-48.47a964.28,964.28,0,0,0-107.57-15.7c-19.55-1.78-39.16-2.74-58.79-3.47-23-.85-46-.49-68.91.51-28.07,1.22-56.06,3.75-84,7.39A899.51,899.51,0,0,0-233.92-199a694.48,694.48,0,0,0-90.14,32.52C-325.1-166-326.16-165.6-328.18-164.74ZM46-295.25c2.39-1.22,5.06.81,6.2-1.08,3.15-5.23,7.84-10.13,8.36-16.22,1-12.05,1.43-24.27-6.69-34.79-1.55-2-2.68-3.35-5.43-3.34-13.48,0-27,0-40.45-.34-4.07-.1-5.28.95-5.24,5.17.22,24,0,48,.16,71.93,0,4.76-2.14,10.92,1,13.88,2.85,2.71,8.9.14,13.51.59,3.35.34,4.25-.86,4.18-4.14-.21-9.49-.12-19,0-28.48,0-1.41-1.06-3.52,1.58-4s3.39,1,4.2,3.13q3.75,9.78,7.87,19.42c2,4.71,2.43,11.34,6.44,13.65s10,.72,15.17,1.11c3.22.25,3.66-.6,2.45-3.53C54.7-273.19,50.4-284.16,46-295.25ZM-98.87-297c0,5.83.53,11.71-.12,17.47-1.07,9.36,1.93,17.2,7.18,24.61,1.29,1.82,2.29,2.56,4.76,2.27,11.39-1.38,22.82-2.38,34.24-3.53,1.12-.11,2.6.28,3.15-1,2.94-6.74,8.67-12.22,8.57-20.32-.16-14.32-.64-28.67.17-42.93.55-9.61-2.46-17.44-7.44-25.11a4.38,4.38,0,0,0-4.87-2.25c-11.24,1.28-22.49,2.51-33.75,3.56a5.28,5.28,0,0,0-4.6,3c-5.17,8.73-8.65,17.74-7.4,28.25C-98.35-307.71-98.87-302.32-98.87-297Zm324,14.71H225c0-5-.4-10,.08-15,1.05-10.7-1.69-20.29-7.06-29.43-1.39-2.37-2.78-3.78-5.52-4.28q-20.13-3.67-40.2-7.69c-3.37-.68-4.62-.29-4.59,3.61q.36,41.71.26,83.44c0,3,.9,4,3.74,4.47,14,2.13,27.88,4.81,41.68,7.93,2.23.5,3.49.08,4.91-1.95,4.69-6.7,7.89-13.54,6.9-22.15C224.51-269.56,225.08-276,225.08-282.29Zm99.47,74.05a14.28,14.28,0,0,0,.32-1.77c0-23.81.34-47.63-.17-71.42-.16-7.49-5.24-13.85-8.25-20.64-.3-.69-1.64-1-2.56-1.32q-16.83-5.46-33.69-10.87c-1.05-.34-2.39-1.43-3.11,0-2.83,5.47-8.16,9.6-8.09,16.66.19,19,0,38,.08,56.94,0,4.8-1.51,10.92.84,14s8.79,3,13.25,4.8c3.77,1.52,4-.06,4-3.16-.14-9.33.14-18.66-.15-28-.12-4.07,1.1-4.35,4.43-3a100.34,100.34,0,0,0,11.84,3.85c2.9.76,3.9,2.1,3.83,5.18-.23,9.65-.1,19.31-.07,29,0,1.7-.61,3.6,2,4.42C314.18-212,319.29-210.06,324.55-208.24Zm-595.73-1.85c5.56-1.92,10.67-3.77,15.84-5.44,2.17-.69,2.06-2.23,2.05-3.93,0-7.49,0-15,0-22.47,0-10.94,0-10.94,10.4-14.27s10.54-3.38,10.54-14.67c0-7.1,0-7-7-4.92-4.54,1.37-8.85,3.52-13.66,3.94-.11-5-.16-9.94-.35-14.91-.08-2,.63-2.94,2.6-3.51,4.47-1.29,8.88-2.79,13.27-4.32s10.65-1.26,12.7-4.7.56-9.34.88-14.13c.2-3.09-.68-3.59-3.55-2.62-13.39,4.51-26.81,8.93-40.29,13.16-3,1-3.53,2.66-3.51,5.46.11,16.15.05,32.3.05,48.45Zm91.26-71.42c0,13.81.11,27.64-.07,41.45,0,3.51.77,4,4.12,3.17,10.17-2.53,20.45-4.59,30.66-6.94,4.46-1,10.73,0,12.92-3.46s.64-9,.74-13.66a4,4,0,0,1,0-.49c.29-2.83-.93-3.26-3.51-2.69-7.31,1.63-14.74,2.74-22,4.59-3.9,1-4.74.24-4.71-3.74.19-21.31,0-42.62.17-63.93,0-3.58-.81-4.74-4.38-3.66a65.54,65.54,0,0,1-10.19,2.4c-3.28.43-3.86,2-3.83,5C-179.84-309.49-179.92-295.5-179.92-281.51Zm285-20.25c0,14,.08,27.95-.07,41.92,0,2.9.59,4.2,3.73,4.25a48.93,48.93,0,0,1,10.39,1.15c4,.94,4.71-.37,4.68-4.14-.16-24.45-.08-48.9-.08-73.35,0-14.07,0-14-14.3-15.22-3.42-.31-4.51.28-4.45,4C105.2-329.37,105.06-315.56,105.06-301.76Z" transform="translate(377.09 425.8)"/><path class="cls-4" d="M37.71,375.35c10.13-58.53-9-109-42.72-155.52-11.27-15.51-24.28-29.47-38.1-42.72a4.87,4.87,0,0,0,.58-.71C5,201.88,48.34,232.93,85.34,273.8c1.28-21.27-4.22-40.46-10.37-59.64,35.83,31.77,65.3,68.25,85.28,112-11.1,11.07-23.53,20.56-35.93,30.08a666.62,666.62,0,0,1-94.09,60.1c-1.15.61-2.34,1.14-4.69,2.28A152.3,152.3,0,0,0,37.71,375.35Z" transform="translate(377.09 425.8)"/><path class="cls-3" d="M198.27-72.09c-7.6,1-14.49,2-21.37,3-4,.56-4.56-.58-2.66-4.16,4.67-8.82,9-17.81,13.44-26.76.71-1.45,1.77-2.87,1.4-5.11-9.43.77-18.75,3.13-29.76,3.08,20.89-15.6,39.84-31.66,64-39.18,8.72-2.71,16.8.68,24.64,3.79,3.85,1.54,7.43,11.22,6.49,15.32-6.39,27.91-13.36,55.66-22.15,82.93a15.71,15.71,0,0,1-4.79,7.36c-11.16,9.77-22.54,19.22-35,27.3-2.82,1.82-4,1.75-5.25-1.61-2.43-6.55-7-12.77-7.57-19.41s5-12.32,7.6-18.56C191.1-53.18,195.14-62.11,198.27-72.09Z" transform="translate(377.09 425.8)"/><path class="cls-2" d="M12-82.51c5.07-.42,9.17,2.54,13.68,4,3.9,1.3,7.65,3,12.25,4.89-8.13,2.76-16.11,2.65-23.11,6.13L4-55.86,3.6-56l.34.29-.8.74-.41,0,.34.11-1,1-.24-.19.19.24-.55.87C0-53.62.2-52.52.12-51.69l-.75.83-1.14,1.18.08-.07a1,1,0,0,0-1,1.07l0,0a1,1,0,0,0-1,1l0,0a1,1,0,0,0-1,1l0,0a1,1,0,0,0-1,1l0,0a1,1,0,0,0-1,1l0,0a1,1,0,0,0-1,1l0,0a1,1,0,0,0-1.05,1l.05,0a1,1,0,0,0-1.05,1l.05,0a1,1,0,0,0-1.05,1l0,0a1,1,0,0,0-1.05,1l.05,0a1,1,0,0,0-1.05,1l.05,0a1,1,0,0,0-1.07,1l.07-.07-1.18,1.14-.84.75c-.83.07-1.91-.11-1.39,1.35l-.85.56-.35-.08.31.13-.78.91-.41-.23.37.26c-5.09,6.7-12.08,9.11-20.21,8.92A3.32,3.32,0,0,0-42.22-25a163.93,163.93,0,0,1-22.37,1A2.06,2.06,0,0,0-67-22l-2,0a3.39,3.39,0,0,0-5,0l-2,0c-.4-2.46-2.34-1.89-3.91-1.94-4.8-.14-9.6.27-14.38-.88-1.76-.43-4-.81-5.7.78l-2.15.1c-1-.53-2.27-.69-1-2.39q16-21.76,32-43.59c.15-.2.61-.17.93-.25A69,69,0,0,1-66.89-63c1.26,3.69,3,3.78,6.42,2.28C-37.18-70.85-13.44-79.6,12-82.51ZM-55.5-33A41.8,41.8,0,0,0-41-35.25c8.17-2.67,14.91-7.23,19-15,.44-.83,1.36-1.7.77-2.72s-1.76-.56-2.69-.44c-4.45.53-8.89,1.13-13.34,1.64A5.81,5.81,0,0,0-42.43-48c-4.09,8.8-11.41,11.08-20.19,6.85-1.27-.61-2.55-3.09-4.16-1.11-1.4,1.72-3.47,3.72-3,6,.35,1.79,3,1.7,4.72,2.09A33.36,33.36,0,0,0-55.5-33Z" transform="translate(377.09 425.8)"/><path class="cls-2" d="M59.14-61.85c11.21,4.69,20.55,11,29.53,17.87a3.16,3.16,0,0,1,1.38,3.46c-.19.81-.24,1.65-.43,2.46-1.8,7.61-1.85,16.39-5.93,22.48S70.29-8.27,63.27-4.94C48.88,1.87,34.33,8.37,18.64,15.55L43.4-13.78c.53-.63,1.06-1.28,1.58-1.93C59.67-33.95,59.67-34,59.14-57.58,59.12-58.74,59.14-59.9,59.14-61.85Z" transform="translate(377.09 425.8)"/><path class="cls-1" d="M-39-24.06c8.13.19,15.12-2.22,20.21-8.92l0,0,.78-.91,0,0,.85-.56,1.39-1.35.84-.75,1.18-1.14-.07.07,1.07-1-.05,0,1.05-1-.05,0,1.05-1,0,0,1.05-1-.05,0,1.05-1-.05,0,1.05-1,0,0,1-1,0,0,1-1,0,0,1-1,0,0,1-1,0,0,1-1,0,0,1-1.07-.08.07,1.14-1.18.75-.83,1.35-1.38L2-53.94l0-.05,1-1L3.14-55l.8-.74.08-.1,10.83-11.6c1,5.39-.54,9.93-3.71,14.43a240.8,240.8,0,0,1-29,33.61A8.67,8.67,0,0,1-22.12-17c-18.51,4.25-37.29,4.53-56.14,4a5.76,5.76,0,0,1-2.4-.53c-7.09-3.62-14.68-6.21-21.47-10.44l2.14-.1c7.88,2.07,15.91,2.33,24,2l2,0h5l2,0C-57.58-21.51-48.29-22.65-39-24.06Z" transform="translate(377.09 425.8)"/><path class="cls-1" d="M12-82.51c-25.47,2.91-49.21,11.66-72.5,21.77-3.45,1.5-5.16,1.41-6.42-2.28a69,69,0,0,0-3.36-7.2c.53-1.51,2-1.67,3.17-2.09,24.48-8.55,49.54-13.3,75.59-11.48C9.82-83.7,11.22-83.94,12-82.51Z" transform="translate(377.09 425.8)"/><path class="cls-3" d="M91.29-102.7c-.28.35-.59.62-.94.11,0,0,.33-.35.51-.53A5.66,5.66,0,0,1,91.29-102.7Z" transform="translate(377.09 425.8)"/><path class="cls-4" d="M-94.27,111.12c2.2,3.93-1.75,5.89-3,8.65-1.11,2.56-3.32.35-4.75-.1-26-8.31-51.06-18.91-75.9-30.13-2.53-1.14-3.34-2.54-3.32-5.26.05-7.32,0-14.66-.52-22a14,14,0,0,1,3.86-11.24c4.6-5.13,9.92-9.34,15.34-13.5a7.11,7.11,0,0,1,3.67-1.38c17.19-2,34.38-3.82,51.74-3.67,3.64,0,6.26.86,8.41,3.93s4.82,5.76,7.72,9.16a167.89,167.89,0,0,0-23.31,4.83c-.17,1.86,1.22,1.41,2,1.67a157.11,157.11,0,0,1,30.54,13.3c2.62,1.52,3.35,3.3,2.67,6.07-.79,3.19-3.18,1.65-4.89,1.62-8.92-.13-17.84-.64-27.57,1.09,8.64,4.79,16.57,9.21,24,14.54,2.42,1.74,3.53,3.08,2.39,6.39-1.36,3.94-3.7,2.14-5.91,1.93C-94.73,96.71-98.3,95.67-102,96a56.71,56.71,0,0,0-13.52-.59l5,3,.15.15,2.75,2,.24.18,2.5,1.8a.62.62,0,0,0,.72.49.83.83,0,0,0,.5.42l.27.27,3.58,2.8a.53.53,0,0,0,.59.44.78.78,0,0,0,.61.51l.25.24,1,.76,0,.06Z" transform="translate(377.09 425.8)"/><path class="cls-4" d="M-89,154.06a307.69,307.69,0,0,0-56.11,10.87c-4.3,1.28-8.77,2.27-12.77,4.22s-6.54.8-9.44-2a90.2,90.2,0,0,1-21.45-32.72c-2.24-5.89,2.24-23.75,6.61-27.9,1.35-1.28,2-.35,2.91.27C-151.37,125.64-121.09,140.05-89,154.06Z" transform="translate(377.09 425.8)"/><path class="cls-4" d="M-205.52,114.13c-9.42-16.3-16.66-33.24-23.34-50.44-.74-1.9-.22-3.5.46-5.25,3.37-8.67,6.66-17.36,10.23-26.71,2.77,3.86,5.27,7.4,7.84,10.9a28.15,28.15,0,0,0,4.11,5c12.43,10.35,13.39,26.23,19.34,39.7.57,1.3.1,2.14-.78,3.08C-194.37,97.61-199.84,105.75-205.52,114.13Z" transform="translate(377.09 425.8)"/><path class="cls-2" d="M-110.55,98.36l-5-3A56.71,56.71,0,0,1-102,96C-104.39,98.42-108.27,95.5-110.55,98.36Z" transform="translate(377.09 425.8)"/><path class="cls-2" d="M-99.84,106.45l-3.58-2.8C-100.91,102.9-99.63,103.72-99.84,106.45Z" transform="translate(377.09 425.8)"/><path class="cls-2" d="M-94.27,111.12l-3.12-2.66C-95.26,108.07-93.73,108.39-94.27,111.12Z" transform="translate(377.09 425.8)"/><path class="cls-2" d="M-107.65,100.49l-2.75-2C-108.66,98-107.37,98.16-107.65,100.49Z" transform="translate(377.09 425.8)"/><path class="cls-2" d="M-104.91,102.47l-2.5-1.8C-105.69,100-104.29,99.84-104.91,102.47Z" transform="translate(377.09 425.8)"/><path class="cls-4" d="M-43.11,177.11l-1.66-.65c.73-.71,1.49-.37,2.24-.06A4.87,4.87,0,0,1-43.11,177.11Z" transform="translate(377.09 425.8)"/><path class="cls-2" d="M-103.69,103.38a.83.83,0,0,1-.5-.42C-103.5,102.47-103.5,102.81-103.69,103.38Z" transform="translate(377.09 425.8)"/><path class="cls-2" d="M-98.64,107.4a.78.78,0,0,1-.61-.51C-98.53,106.45-98.47,106.78-98.64,107.4Z" transform="translate(377.09 425.8)"/><path class="cls-2" d="M-97.44,108.4l-1-.76C-97.71,107.43-97.41,107.72-97.44,108.4Z" transform="translate(377.09 425.8)"/><path class="cls-5" d="M-115.45-94.58l1.15.07-.44.75Z" transform="translate(377.09 425.8)"/><path class="cls-4" d="M46-295.25c4.44,11.09,8.74,22.06,13.25,32.95,1.21,2.93.77,3.78-2.45,3.53-5.13-.39-11.23,1.17-15.17-1.11s-4.41-8.94-6.44-13.65q-4.12-9.63-7.87-19.42c-.81-2.1-1.66-3.6-4.2-3.13s-1.57,2.6-1.58,4c-.09,9.49-.18,19,0,28.48.07,3.28-.83,4.48-4.18,4.14-4.61-.45-10.66,2.12-13.51-.59-3.11-3-.94-9.12-1-13.88-.11-24,.06-48-.16-71.93,0-4.22,1.17-5.27,5.24-5.17,13.48.33,27,.37,40.45.34,2.75,0,3.88,1.34,5.43,3.34,8.12,10.52,7.7,22.74,6.69,34.79-.52,6.09-5.21,11-8.36,16.22C51-294.44,48.35-296.47,46-295.25Zm-14-19H34.4c7.66.08,7.66.08,7.66-7.38,0-11,0-11-11.75-11-8.9,0-8.9,0-8.9,8.64C21.41-314.39,21.41-314.39,31.91-314.26Z" transform="translate(377.09 425.8)"/><path class="cls-4" d="M-98.87-297c0-5.32.52-10.71-.11-16-1.25-10.51,2.23-19.52,7.4-28.25a5.28,5.28,0,0,1,4.6-3c11.26-1,22.51-2.28,33.75-3.56a4.38,4.38,0,0,1,4.87,2.25c5,7.67,8,15.5,7.44,25.11-.81,14.26-.33,28.61-.17,42.93.1,8.1-5.63,13.58-8.57,20.32-.55,1.27-2,.88-3.15,1C-64.23-255-75.66-254-87-252.65c-2.47.29-3.47-.45-4.76-2.27-5.25-7.41-8.25-15.25-7.18-24.61C-98.34-285.29-98.87-291.17-98.87-297Zm18.63-2.29c0,8,.08,16,0,24,0,2.47.41,3.63,3.27,3.19,4.75-.72,9.54-1.24,14.34-1.56,2.45-.17,2.94-1.21,2.93-3.43q-.12-24.24,0-48.48c0-2.8-.86-3.34-3.49-2.89a55.71,55.71,0,0,1-11.41,1.15c-5.06-.19-6,2.05-5.71,6.55C-80-313.63-80.24-306.45-80.24-299.29Z" transform="translate(377.09 425.8)"/><path class="cls-4" d="M225.08-282.29c0,6.33-.57,12.73.14,19,1,8.61-2.21,15.45-6.9,22.15-1.42,2-2.68,2.45-4.91,1.95-13.8-3.12-27.69-5.8-41.68-7.93-2.84-.43-3.75-1.49-3.74-4.47q.07-41.72-.26-83.44c0-3.9,1.22-4.29,4.59-3.61q20.06,4.05,40.2,7.69c2.74.5,4.13,1.91,5.52,4.28,5.37,9.14,8.11,18.73,7.06,29.43-.48,4.95-.08,10-.08,15Zm-18.2-4.19h-.19c0-6.33,0-12.66,0-19,0-8.28-.05-8.29-8-9.93-2.77-.57-5.61-.88-8.31-1.68-3.15-.93-4.34-.48-4.28,3.23q.4,23.49.19,47c0,3.38,1.34,4.26,4.16,4.69a89.72,89.72,0,0,1,12.24,2.38c4,1.22,4.32-.36,4.23-3.69C206.74-271.15,206.88-278.82,206.88-286.48Z" transform="translate(377.09 425.8)"/><path class="cls-4" d="M324.55-208.24c-5.26-1.82-10.37-3.73-15.56-5.35-2.59-.82-2-2.72-2-4.42,0-9.66-.16-19.32.07-29,.07-3.08-.93-4.42-3.83-5.18A100.34,100.34,0,0,1,291.41-256c-3.33-1.32-4.55-1-4.43,3,.29,9.31,0,18.64.15,28,0,3.1-.19,4.68-4,3.16-4.46-1.78-10.88-1.67-13.25-4.8s-.83-9.24-.84-14c0-19,.11-38-.08-56.94-.07-7.06,5.26-11.19,8.09-16.66.72-1.4,2.06-.31,3.11,0q16.85,5.42,33.69,10.87c.92.3,2.26.63,2.56,1.32,3,6.79,8.09,13.15,8.25,20.64.51,23.79.18,47.61.17,71.42A14.28,14.28,0,0,1,324.55-208.24Zm-37.47-85.64c0,5.37.17,10.17-.07,14.94-.14,2.73.95,3.73,3.41,4.41,4.46,1.23,8.83,2.77,13.21,4.27,2.23.77,3.69,1.11,3.44-2.25-.3-3.95-.07-7.95-.07-11.92,0-1.46.29-3-1.72-3.6C299.33-289.88,293.42-291.83,287.08-293.88Z" transform="translate(377.09 425.8)"/><path class="cls-4" d="M-271.18-210.09V-249c0-16.15.06-32.3-.05-48.45,0-2.8.46-4.5,3.51-5.46,13.48-4.23,26.9-8.65,40.29-13.16,2.87-1,3.75-.47,3.55,2.62-.32,4.79,1.27,10.54-.88,14.13s-8.33,3.18-12.7,4.7-8.8,3-13.27,4.32c-2,.57-2.68,1.52-2.6,3.51.19,5,.24,9.94.35,14.91,4.81-.42,9.12-2.57,13.66-3.94,7-2.11,7-2.18,7,4.92,0,11.29,0,11.29-10.54,14.67s-10.4,3.33-10.4,14.27c0,7.49,0,15,0,22.47,0,1.7.12,3.24-2.05,3.93C-260.51-213.86-265.62-212-271.18-210.09Z" transform="translate(377.09 425.8)"/><path class="cls-4" d="M-179.92-281.51c0-14,.08-28-.06-42,0-3,.55-4.57,3.83-5a65.54,65.54,0,0,0,10.19-2.4c3.57-1.08,4.4.08,4.38,3.66-.16,21.31,0,42.62-.17,63.93,0,4,.81,4.74,4.71,3.74,7.24-1.85,14.67-3,22-4.59,2.58-.57,3.8-.14,3.51,2.69a4,4,0,0,0,0,.49c-.1,4.65,1.41,10.33-.74,13.66s-8.46,2.43-12.92,3.46c-10.21,2.35-20.49,4.41-30.66,6.94-3.35.83-4.17.34-4.12-3.17C-179.81-253.87-179.92-267.7-179.92-281.51Z" transform="translate(377.09 425.8)"/><path class="cls-1" d="M105.06-301.76c0-13.8.14-27.61-.1-41.41-.06-3.7,1-4.29,4.45-4,14.29,1.26,14.3,1.15,14.3,15.22,0,24.45-.08,48.9.08,73.35,0,3.77-.72,5.08-4.68,4.14a48.93,48.93,0,0,0-10.39-1.15c-3.14,0-3.76-1.35-3.73-4.25C105.14-273.81,105.06-287.78,105.06-301.76Z" transform="translate(377.09 425.8)"/><path class="cls-6" d="M-55.5-33a33.36,33.36,0,0,1-9.58-1.16c-1.71-.39-4.37-.3-4.72-2.09-.45-2.26,1.62-4.26,3-6,1.61-2,2.89.5,4.16,1.11,8.78,4.23,16.1,1.95,20.19-6.85a5.81,5.81,0,0,1,5.16-3.82c4.45-.51,8.89-1.11,13.34-1.64.93-.12,2.06-.65,2.69.44s-.33,1.89-.77,2.72c-4.1,7.82-10.84,12.38-19,15A41.8,41.8,0,0,1-55.5-33Z" transform="translate(377.09 425.8)"/><path class="cls-3" d="M-39-24.06c-9.28,1.41-18.57,2.55-28,2A2.06,2.06,0,0,1-64.59-24a163.93,163.93,0,0,0,22.37-1A3.32,3.32,0,0,1-39-24.06Z" transform="translate(377.09 425.8)"/><path class="cls-3" d="M-76-22c-8.08.29-16.11,0-24-2,1.71-1.59,3.94-1.21,5.7-.78,4.78,1.15,9.58.74,14.38.88C-78.34-23.94-76.4-24.51-76-22Z" transform="translate(377.09 425.8)"/><path class="cls-3" d="M-69-22h-5A3.39,3.39,0,0,1-69-22Z" transform="translate(377.09 425.8)"/><path class="cls-3" d="M1.47-53.07.12-51.69C.2-52.52,0-53.62,1.47-53.07Z" transform="translate(377.09 425.8)"/><path class="cls-3" d="M-15.7-35.88l-1.39,1.35C-17.61-36-16.53-35.81-15.7-35.88Z" transform="translate(377.09 425.8)"/><path class="cls-3" d="M3.14-55,3.07-55l-.34-.11Z" transform="translate(377.09 425.8)"/><path class="cls-3" d="M-5.67-45.72l-1,1A1,1,0,0,1-5.67-45.72Z" transform="translate(377.09 425.8)"/><path class="cls-3" d="M-4.68-46.72l-1,1A1,1,0,0,1-4.68-46.72Z" transform="translate(377.09 425.8)"/><polygon class="cls-3" points="379.15 371.81 379.11 371.87 378.91 371.62 379.15 371.81"/><path class="cls-3" d="M-18.76-33l0,0-.37-.26Z" transform="translate(377.09 425.8)"/><path class="cls-3" d="M-7.67-43.72l-1.05,1A1,1,0,0,1-7.67-43.72Z" transform="translate(377.09 425.8)"/><path class="cls-3" d="M-9.67-41.72l-1.05,1A1,1,0,0,1-9.67-41.72Z" transform="translate(377.09 425.8)"/><path class="cls-3" d="M-3.68-47.73l-1,1A1,1,0,0,1-3.68-47.73Z" transform="translate(377.09 425.8)"/><path class="cls-3" d="M-10.68-40.73l-1.05,1A1,1,0,0,1-10.68-40.73Z" transform="translate(377.09 425.8)"/><path class="cls-3" d="M-11.68-39.73l-1.05,1A1,1,0,0,1-11.68-39.73Z" transform="translate(377.09 425.8)"/><path class="cls-3" d="M-2.68-48.73l-1,1A1,1,0,0,1-2.68-48.73Z" transform="translate(377.09 425.8)"/><path class="cls-3" d="M-12.68-38.73l-1.07,1A1,1,0,0,1-12.68-38.73Z" transform="translate(377.09 425.8)"/><path class="cls-3" d="M-13.68-37.77l-1.18,1.14Z" transform="translate(377.09 425.8)"/><path class="cls-3" d="M-6.67-44.72l-1,1A1,1,0,0,1-6.67-44.72Z" transform="translate(377.09 425.8)"/><path class="cls-3" d="M-1.69-49.75l-1,1.07A1,1,0,0,1-1.69-49.75Z" transform="translate(377.09 425.8)"/><path class="cls-3" d="M-17.94-34l0,0-.31-.13Z" transform="translate(377.09 425.8)"/><path class="cls-3" d="M-8.67-42.72l-1.05,1A1,1,0,0,1-8.67-42.72Z" transform="translate(377.09 425.8)"/><path class="cls-3" d="M4-55.86l-.08.1L3.6-56Z" transform="translate(377.09 425.8)"/><path class="cls-3" d="M-.63-50.86l-1.14,1.18Z" transform="translate(377.09 425.8)"/><path class="cls-6" d="M31.91-314.26c-10.5-.13-10.5-.13-10.5-9.73,0-8.66,0-8.66,8.9-8.64,11.75,0,11.75,0,11.75,11,0,7.46,0,7.46-7.66,7.38Z" transform="translate(377.09 425.8)"/><path class="cls-6" d="M-80.24-299.29c0-7.16.28-14.34-.1-21.48-.24-4.5.65-6.74,5.71-6.55a55.71,55.71,0,0,0,11.41-1.15c2.63-.45,3.51.09,3.49,2.89q-.17,24.24,0,48.48c0,2.22-.48,3.26-2.93,3.43-4.8.32-9.59.84-14.34,1.56-2.86.44-3.31-.72-3.27-3.19C-80.16-283.3-80.24-291.29-80.24-299.29Z" transform="translate(377.09 425.8)"/><path class="cls-6" d="M206.88-286.48c0,7.66-.14,15.33.06,23,.09,3.33-.24,4.91-4.23,3.69a89.72,89.72,0,0,0-12.24-2.38c-2.82-.43-4.19-1.31-4.16-4.69q.24-23.47-.19-47c-.06-3.71,1.13-4.16,4.28-3.23,2.7.8,5.54,1.11,8.31,1.68,7.92,1.64,7.94,1.65,8,9.93,0,6.32,0,12.65,0,19Z" transform="translate(377.09 425.8)"/><path class="cls-6" d="M287.08-293.88c6.34,2.05,12.25,4,18.2,5.85,2,.63,1.71,2.14,1.72,3.6,0,4-.23,8,.07,11.92.25,3.36-1.21,3-3.44,2.25-4.38-1.5-8.75-3-13.21-4.27-2.46-.68-3.55-1.68-3.41-4.41C287.25-283.71,287.08-288.51,287.08-293.88Z" transform="translate(377.09 425.8)"/></svg>