<svg id="Layer_1" data-name="Layer 1" xmlns="http://www.w3.org/2000/svg" viewBox="0 0 1960 1960"><defs><style>.cls-1{fill:#3b73b8;}.cls-2{fill:#fdfefe;}</style></defs><title>GE</title><path class="cls-1" d="M-955,25.4C-955.07-515.54-515.19-955.08,26.15-955c539.42.08,979,440.51,978.85,980.69-.17,541.46-439.09,979.57-981.14,979.31C-516.61,1004.74-954.93,566.09-955,25.4ZM25.19-908.89c-515.45-.05-934,418-934,933.41s415.48,931.6,929,934.18c518.74,2.61,938-416.27,938.56-933.2C959.39-488.71,539.44-908.83,25.19-908.89Z" transform="translate(955 955)"/><path class="cls-2" d="M25.19-908.89c514.25.06,934.2,420.18,933.64,934.39C958.27,542.43,539,961.31,20.27,958.7c-513.56-2.58-929-418.61-929-934.18S-490.26-908.94,25.19-908.89Zm.65,1808c10.39-.22,23.05-.24,35.71-.73a894.55,894.55,0,0,0,158.79-20.29c102.73-22.67,198.31-62,284.59-122.72,92.61-65.17,164.21-148.39,213.59-250.47,26.88-55.56,45-114.16,59.3-174C791.39,274.18,797.6,216.74,790,158.47c-4.1-31.24-13.76-60.59-30.58-87.43-10.21-16.28-22.52-31-34.13-46.21-14.51-19-23.52-39.78-21.24-64.3,1.72-18.48,8.34-34.73,23.26-46.43,20.4-16,43.35-17.63,67.15-9.6C816.74-88,832.5-72.09,844.91-52.71,865.33-20.81,873.84,15,877.89,52c3.18,29.25,2.55,58.54.32,87.84a750.94,750.94,0,0,1-18,114.8q-5.31,22.59-12,44.81c-.81,2.68-.72,4.94,2.51,6s4.68-.39,5.5-3.28c.5-1.75,1.26-3.43,1.82-5.17,25.75-79.79,38.64-161.74,40.75-245.41a906.31,906.31,0,0,0-8.61-146,872.33,872.33,0,0,0-41.34-172.46C807.45-384.06,743.69-486.69,650.48-570a642.5,642.5,0,0,0-159.56-104.3C438-698.75,382.49-715.66,325.84-728.75c-55.67-12.87-112-18.7-169-11.24-29,3.79-56.41,12.61-81.68,27.67-17.82,10.63-33.58,24-49.94,36.6C6.22-661.15-14.43-651.6-39-654c-27-2.69-46.93-15.92-56.68-41.62-9.07-23.89-4.17-46.62,9.53-67.54,13.3-20.3,32.57-33.54,54.2-43.57,33-15.31,68.16-21.45,104.16-22.87,45.77-1.8,91.2,2.07,136.25,10.15a532.58,532.58,0,0,1,87.72,23.09c2.5.9,5,1.59,6.34-1.6s-.23-5-3.16-6.14c-3.59-1.32-7.13-2.78-10.77-4-69.24-22.46-140.37-35-212.91-39.67-42.8-2.73-85.58-1.33-128.3,2.55a890.15,890.15,0,0,0-145.9,25.3C-313-789.87-417.11-739.3-507.29-661.74A650.81,650.81,0,0,0-661.17-467.43c-28.41,54.48-47.62,112.29-62.85,171.58-14.46,56.31-22.35,113.29-18.09,171.58,3.35,46,17.79,87.78,46,124.59,10.44,13.6,21.49,26.78,30.25,41.61,9.64,16.31,14.27,33.93,11.31,52.68-6.09,38.49-40.93,61.81-79.35,53.91-27-5.55-46.3-21.94-61-44.24C-817.49,69.9-825.62,31-828.91-9.24c-2.14-26.3-1.16-52.6.74-78.89a726.92,726.92,0,0,1,18.76-118.7q4.88-20.13,11.09-39.89c.9-2.86.37-5-2.72-5.86-2.9-.84-4.35.63-5.1,3.28-.54,1.92-1.31,3.77-1.91,5.67C-828.32-178.87-840.43-112.56-846.16-45a887.11,887.11,0,0,0,2.33,169.65,863.74,863.74,0,0,0,26.93,141C-786.62,373.93-737.49,472.37-664,558q93.32,108.75,223.47,168.93c42.4,19.67,86.65,34,131.65,46.26,58.81,16,118.36,25.81,179.59,21.85,24.38-1.58,48.16-6,71.12-14.62,25.65-9.59,47.59-25.09,68.49-42.34,10.92-9,21.67-18.36,34.38-24.82,25.61-13,51.34-14,75.87,2.23,30.55,20.26,38.37,61.37,18.72,94.54-12.73,21.47-32,35.46-54,45.9-36.36,17.22-75.2,23-115,24-20,.52-40-.32-59.93-1.75a726.6,726.6,0,0,1-96.32-13.6c-20.53-4.27-40.9-9.24-60.74-16.13-2.78-1-5.06-.84-6.13,2.16-1,2.77.1,4.86,2.95,5.93,2,.76,4,1.66,6,2.42,34.27,12.85,69.83,20.73,105.78,26.79A968.12,968.12,0,0,0,25.84,899.07Z" transform="translate(955 955)"/><path class="cls-1" d="M25.84,899.07a968.12,968.12,0,0,1-163.9-13.29C-174,879.72-209.57,871.84-243.84,859c-2-.76-4-1.66-6-2.42-2.85-1.07-3.93-3.16-2.95-5.93,1.07-3,3.35-3.12,6.13-2.16,19.84,6.89,40.21,11.86,60.74,16.13a726.6,726.6,0,0,0,96.32,13.6c20,1.43,39.93,2.27,59.93,1.75,39.76-1,78.6-6.81,115-24,22-10.44,41.27-24.43,54-45.9,19.65-33.17,11.83-74.28-18.72-94.54C96,699.22,70.29,700.24,44.68,713.26,32,719.72,21.22,729.07,10.3,738.08c-20.9,17.25-42.84,32.75-68.49,42.34-23,8.58-46.74,13-71.12,14.62-61.23,4-120.78-5.85-179.59-21.85-45-12.24-89.25-26.59-131.65-46.26Q-570.57,666.63-664,558c-73.47-85.63-122.6-184.07-152.88-292.32a863.74,863.74,0,0,1-26.93-141A887.11,887.11,0,0,1-846.16-45c5.73-67.55,17.84-133.86,38.11-198.62.6-1.9,1.37-3.75,1.91-5.67.75-2.65,2.2-4.12,5.1-3.28,3.09.9,3.62,3,2.72,5.86q-6.25,19.74-11.09,39.89a726.92,726.92,0,0,0-18.76,118.7c-1.9,26.29-2.88,52.59-.74,78.89,3.29,40.23,11.42,79.14,34.07,113.52,14.68,22.3,34,38.69,61,44.24,38.42,7.9,73.26-15.42,79.35-53.91,3-18.75-1.67-36.37-11.31-52.68-8.76-14.83-19.81-28-30.25-41.61-28.25-36.81-42.69-78.61-46-124.59-4.26-58.29,3.63-115.27,18.09-171.58,15.23-59.29,34.44-117.1,62.85-171.58A650.81,650.81,0,0,1-507.29-661.74C-417.11-739.3-313-789.87-198.49-819.93a890.15,890.15,0,0,1,145.9-25.3c42.72-3.88,85.5-5.28,128.3-2.55,72.54,4.64,143.67,17.21,212.91,39.67,3.64,1.18,7.18,2.64,10.77,4,2.93,1.09,4.51,3,3.16,6.14s-3.84,2.5-6.34,1.6a532.58,532.58,0,0,0-87.72-23.09c-45.05-8.08-90.48-12-136.25-10.15-36,1.42-71.16,7.56-104.16,22.87-21.63,10-40.9,23.27-54.2,43.57-13.7,20.92-18.6,43.65-9.53,67.54C-85.9-670-65.94-656.74-39-654c24.54,2.45,45.19-7.1,64.14-21.67,16.36-12.58,32.12-26,49.94-36.6,25.27-15.06,52.65-23.88,81.68-27.67,57.08-7.46,113.38-1.63,169,11.24,56.65,13.09,112.13,30,165.08,54.48A642.5,642.5,0,0,1,650.48-570c93.21,83.28,157,185.91,198.36,303.1A872.33,872.33,0,0,1,890.18-94.41a906.31,906.31,0,0,1,8.61,146c-2.11,83.67-15,165.62-40.75,245.41-.56,1.74-1.32,3.42-1.82,5.17-.82,2.89-2.35,4.3-5.5,3.28s-3.32-3.3-2.51-6q6.69-22.23,12-44.81a750.94,750.94,0,0,0,18-114.8c2.23-29.3,2.86-58.59-.32-87.84-4-37.06-12.56-72.84-33-104.74C832.5-72.09,816.74-88,794.42-95.5c-23.8-8-46.75-6.39-67.15,9.6-14.92,11.7-21.54,28-23.26,46.43-2.28,24.52,6.73,45.27,21.24,64.3C736.86,40.06,749.17,54.76,759.38,71c16.82,26.84,26.48,56.19,30.58,87.43,7.64,58.27,1.43,115.71-12.14,172.43-14.31,59.8-32.42,118.4-59.3,174-49.38,102.08-121,185.3-213.59,250.47-86.28,60.72-181.86,100-284.59,122.72A894.55,894.55,0,0,1,61.55,898.34C48.89,898.83,36.23,898.85,25.84,899.07ZM220.31-75.55c-6.39,3.6-12.23,6.79-18,10.15S190.88-58.62,185.29-55C130-19.08,86.47,27.36,58.62,87.64,40.9,126,31.7,166.49,28.75,208.58c-3.87,55,4.25,107.9,26.2,158.53,20.2,46.62,49.44,86.49,90.78,116.43,67.37,48.77,142.81,62.12,223.13,45.16,123.89-26.18,209.51-143.83,201.35-259.16-2.46-34.76-9.6-68.16-25.14-99.48-18.42-37.12-45.07-66.25-83.3-83.56-34.46-15.6-70.51-18.85-107.46-11.88-34.17,6.44-63.91,21.76-87.91,47.1-30.85,32.56-44.23,71.35-39.52,116.15,3,28.18,12.15,53.93,31.31,75.25C276.93,334,300.05,345.23,328.74,342c16.07-1.84,27-12.61,29.69-28.56,2.28-13.41-3.07-24.42-11.16-34.5-6.87-8.57-14.7-16.37-20.77-25.6-17.55-26.71-14.24-60.44,8-81.32,22.51-21.14,58.22-25.42,87.61-10.29,22.21,11.43,36.2,30.21,44.76,53,19.15,50.84,15.47,100.7-9,148.87-31.15,61.33-98.08,96-165.24,86.24-47.85-6.94-85.62-30.93-114.62-69-32.93-43.19-47.88-92.82-49.67-146.55-1.32-39.75,3.7-78.78,17.5-116.33C170.45,50.91,215.37,3.14,281.19-25c12.64-5.4,25-6.65,38.68-4.7,27.58,3.92,55.41,5.05,83.15.67,12.74-2,25.14-5.21,35.83-12.9,18.27-13.14,19.63-37.57,3-52.69A55.39,55.39,0,0,0,429-103.13C411.16-112,392-115.21,372.43-115.86c-22.7-.75-44.74,3.53-66.34,10.13a10.51,10.51,0,0,1-9.76-1.35c-15.48-10.16-25.37-24.62-32.78-41.24-2-4.44-1.48-6.79,2.48-9.78,26-19.56,51.22-40,75.11-62.05,29.46-27.22,57-56.14,78.26-90.43C440-343.82,453-379.4,450.9-419.14c-1.27-24-10-45.11-28.06-61.56-23.59-21.51-52.17-26.16-82.55-22.67-34.79,4-63.61,20.69-88.65,44.34-34.55,32.65-57.08,72.85-72.73,117.29s-20.19,90.14-17.66,136.81c.52,9.46,1.51,19,4.16,28.1.82,2.82.09,4.23-2.11,5.77-8.61,6-17.09,12.18-25.66,18.24C82.67-113.94,25.19-79-32.44-44.28c-6.23,3.75-12.48,7.46-19.33,11.55,0-2.39-.09-4,0-5.6,1.34-20.28,4.35-40.35,7.25-60.46,1.65-11.44,5.64-20.87,14.28-28.51,3-2.63,5.37-5.92,8-9,17.32-20.33,33.78-41.27,46-65.2,7-13.75,12.44-28,12.19-43.81C35.59-263,25.7-275.75,10-278.59a46.64,46.64,0,0,0-20.3,1.14c-18.93,5-33,17.07-44.91,31.78C-78.62-216.79-92.5-183.35-101-147.46c-.72,3-.86,6.21-3.13,8.8-22.49,25.67-48.55,46.5-80.45,59.36a85.4,85.4,0,0,1-33.59,6.51c-25.16-.42-38.85-20.73-43.84-38.09-1-3.36,1.62-3.46,3.5-4.15a243.49,243.49,0,0,0,39.13-18.71c48.23-28.43,87.9-66.29,121.23-111,26.49-35.52,47.32-74,58.55-117.19,6.5-25,10.52-50.31,5.53-76.08-6.32-32.62-25.33-54.14-57.77-62.58a125.41,125.41,0,0,0-63.77.14c-35.89,9.28-64.51,30.28-89.52,56.7-33.19,35-57.12,76-74.95,120.61-17,42.52-27.73,86.45-29.07,132.41-.29,10.16-.44,10.35-10.55,8.29-.17,0-.32-.1-.48-.13-19.56-4-31.66-16.85-39.52-34.24-11.14-24.64-11.14-50.35-6.73-76.43,2.58-15.27,6.89-30.15,10-45.3,3.67-17.59-7-31.41-23.33-30.23A45.24,45.24,0,0,0-443-360.54c-10.2,7.2-17.55,16.85-22.8,28-16.51,35-20.33,71.82-13.49,109.67,6.4,35.34,22.82,65.16,51.4,87.56,22.08,17.32,47.45,26.62,75.25,29.27,4.39.41,6.12,1.84,7.22,6.18a129.27,129.27,0,0,0,30.71,56.44c20.24,22,44.74,36.51,75.07,38.22C-209-3.5-179.77-9.9-152.25-23.76A149.61,149.61,0,0,0-124.88-42.1c-.1,2.21,0,3.67-.26,5.08-2.11,13.48-4.46,26.93-6.29,40.44-.57,4.19-2.48,6.19-6,8.05C-175.57,31.3-213.72,51-251.31,71.77c-55.35,30.58-108.86,63.87-156.94,105.32-37.41,32.26-67,70.33-87,115.59-18.25,41.27-26,83.93-14.68,128.48,14.07,55.26,47.53,92.76,103.3,107.86,43.87,11.88,87.21,7.47,129.36-8.64,47.76-18.27,85.3-50.14,116.08-90.21C-118.67,374.8-92,312.17-78,244c12.78-62.48,17.58-125.91,21.83-189.38.27-3.92,1.73-5.82,4.92-7.62C2.08,16.82,54.74-14.48,106-48.07c28.29-18.53,56.09-37.77,83.63-57.39,2.85-2,4.2-2,6.06,1.12C202.15-93.56,209.85-83.78,220.31-75.55Z" transform="translate(955 955)"/><path class="cls-2" d="M220.31-75.55c-10.46-8.23-18.16-18-24.61-28.79-1.86-3.11-3.21-3.15-6.06-1.12C162.1-85.84,134.3-66.6,106-48.07,54.74-14.48,2.08,16.82-51.26,47c-3.19,1.8-4.65,3.7-4.92,7.62C-60.43,118.09-65.23,181.52-78,244c-14,68.17-40.66,130.8-83.19,186.17-30.78,40.07-68.32,71.94-116.08,90.21-42.15,16.11-85.49,20.52-129.36,8.64-55.77-15.1-89.23-52.6-103.3-107.86-11.34-44.55-3.57-87.21,14.68-128.48,20-45.26,49.6-83.33,87-115.59,48.08-41.45,101.59-74.74,156.94-105.32C-213.72,51-175.57,31.3-137.48,11.47c3.57-1.86,5.48-3.86,6-8,1.83-13.51,4.18-27,6.29-40.44.22-1.41.16-2.87.26-5.08a149.61,149.61,0,0,1-27.37,18.34C-179.77-9.9-209-3.5-239.67-5.22-270-6.93-294.5-21.41-314.74-43.44a129.27,129.27,0,0,1-30.71-56.44c-1.1-4.34-2.83-5.77-7.22-6.18-27.8-2.65-53.17-12-75.25-29.27-28.58-22.4-45-52.22-51.4-87.56-6.84-37.85-3-74.63,13.49-109.67,5.25-11.13,12.6-20.78,22.8-28a45.24,45.24,0,0,1,23.26-8.19c16.32-1.18,27,12.64,23.33,30.23-3.15,15.15-7.46,30-10,45.3-4.41,26.08-4.41,51.79,6.73,76.43,7.86,17.39,20,30.2,39.52,34.24.16,0,.31.1.48.13,10.11,2.06,10.26,1.87,10.55-8.29,1.34-46,12.09-89.89,29.07-132.41,17.83-44.63,41.76-85.56,74.95-120.61,25-26.42,53.63-47.42,89.52-56.7a125.41,125.41,0,0,1,63.77-.14c32.44,8.44,51.45,30,57.77,62.58,5,25.77,1,51.12-5.53,76.08C-50.88-318.73-71.71-280.22-98.2-244.7c-33.33,44.67-73,82.53-121.23,111A243.49,243.49,0,0,1-258.56-115c-1.88.69-4.47.79-3.5,4.15,5,17.36,18.68,37.67,43.84,38.09a85.4,85.4,0,0,0,33.59-6.51c31.9-12.86,58-33.69,80.45-59.36,2.27-2.59,2.41-5.77,3.13-8.8,8.55-35.89,22.43-69.33,45.87-98.21,11.94-14.71,26-26.78,44.91-31.78A46.64,46.64,0,0,1,10-278.59C25.7-275.75,35.59-263,35.87-245.27c.25,15.77-5.2,30.06-12.19,43.81-12.17,23.93-28.63,44.87-45.95,65.2-2.59,3-5,6.33-8,9-8.64,7.64-12.63,17.07-14.28,28.51-2.9,20.11-5.91,40.18-7.25,60.46-.1,1.6,0,3.21,0,5.6,6.85-4.09,13.1-7.8,19.33-11.55C25.19-79,82.67-113.94,137.64-152.82c8.57-6.06,17.05-12.24,25.66-18.24,2.2-1.54,2.93-2.95,2.11-5.77-2.65-9.15-3.64-18.64-4.16-28.1-2.53-46.67,2.05-92.45,17.66-136.81S217.09-426.38,251.64-459c25-23.65,53.86-40.33,88.65-44.34,30.38-3.49,59,1.16,82.55,22.67,18,16.45,26.79,37.54,28.06,61.56C453-379.4,440-343.82,419.4-310.58c-21.28,34.29-48.8,63.21-78.26,90.43C317.25-198.08,292-177.66,266-158.1c-4,3-4.47,5.34-2.48,9.78,7.41,16.62,17.3,31.08,32.78,41.24a10.51,10.51,0,0,0,9.76,1.35c21.6-6.6,43.64-10.88,66.34-10.13,19.6.65,38.73,3.9,56.54,12.73a55.39,55.39,0,0,1,12.88,8.52c16.63,15.12,15.27,39.55-3,52.69C428.16-34.23,415.76-31,403-29c-27.74,4.38-55.57,3.25-83.15-.67-13.72-1.95-26-.7-38.68,4.7C215.37,3.14,170.45,50.91,145.84,117.92,132,155.47,127,194.5,128.34,234.25,130.13,288,145.08,337.61,178,380.8c29,38,66.77,62,114.62,69,67.16,9.73,134.09-24.91,165.24-86.24,24.46-48.17,28.14-98,9-148.87-8.56-22.75-22.55-41.53-44.76-53C392.71,146.56,357,150.84,334.49,172c-22.23,20.88-25.54,54.61-8,81.32,6.07,9.23,13.9,17,20.77,25.6,8.09,10.08,13.44,21.09,11.16,34.5-2.72,16-13.62,26.72-29.69,28.56-28.69,3.27-51.81-8-70.55-28.84-19.16-21.32-28.34-47.07-31.31-75.25-4.71-44.8,8.67-83.59,39.52-116.15,24-25.34,53.74-40.66,87.91-47.1,36.95-7,73-3.72,107.46,11.88,38.23,17.31,64.88,46.44,83.3,83.56,15.54,31.32,22.68,64.72,25.14,99.48,8.16,115.33-77.46,233-201.35,259.16-80.32,17-155.76,3.61-223.13-45.16C104.39,453.6,75.15,413.73,55,367.11c-22-50.63-30.07-103.55-26.2-158.53C31.7,166.49,40.9,126,58.62,87.64,86.47,27.36,130-19.08,185.29-55c5.59-3.63,11.31-7,17.06-10.41S213.92-71.95,220.31-75.55Zm-362,172.66a5.14,5.14,0,0,0-4.06.83c-63.1,31.51-122.9,68.15-176.51,114.28-30.07,25.88-57.4,54.3-77.87,88.61-17.13,28.72-27.82,59.23-24.94,93.42,2.37,28,20.26,49.66,46.88,55.32,17.66,3.75,35.16,1.26,52.37-3.31,35.4-9.43,62.73-30.78,85.33-58.77,26.81-33.23,44.31-71.43,58.37-111.35,15.7-44.54,26-90.44,34-136.91C-145.78,125.31-143.86,111.32-141.69,97.11Zm-126.4-286.83c2.23-1.24,3.71-2,5.08-2.84,5.58-3.63,11.35-7,16.65-11,50.5-38.08,90.29-85.4,120.33-140.91,9.52-17.6,17.2-36,18.51-56.43,1.13-17.56-8.37-30.22-24.55-31.72-9-.83-17,2.8-24.34,7.56-13.79,8.88-24.7,20.8-34.39,33.78-32,42.93-53.8,90.84-68.15,142.25C-264.28-229.95-267.92-210.52-268.09-189.72Zm513-40.74c10.43-8.51,19.26-17,28.08-25.59,30.22-29.27,58.44-60.28,81.11-95.92,9.23-14.51,17.33-29.61,20.45-46.82s-5-30.14-20.32-32.75c-7.22-1.24-13.85,1-20.17,4.21-11.51,5.83-20.69,14.52-28.89,24.25-22.23,26.39-36.81,56.86-47.11,89.53A276.77,276.77,0,0,0,244.91-230.46Z" transform="translate(955 955)"/><path class="cls-1" d="M-141.69,97.11c-2.17,14.21-4.09,28.2-6.48,42.12-8,46.47-18.25,92.37-34,136.91-14.06,39.92-31.56,78.12-58.37,111.35-22.6,28-49.93,49.34-85.33,58.77-17.21,4.57-34.71,7.06-52.37,3.31-26.62-5.66-44.51-27.32-46.88-55.32-2.88-34.19,7.81-64.7,24.94-93.42,20.47-34.31,47.8-62.73,77.87-88.61,53.61-46.13,113.41-82.77,176.51-114.28A5.14,5.14,0,0,1-141.69,97.11Z" transform="translate(955 955)"/><path class="cls-1" d="M-268.09-189.72c.17-20.8,3.81-40.23,9.14-59.32,14.35-51.41,36.11-99.32,68.15-142.25,9.69-13,20.6-24.9,34.39-33.78,7.38-4.76,15.33-8.39,24.34-7.56,16.18,1.5,25.68,14.16,24.55,31.72-1.31,20.43-9,38.83-18.51,56.43-30,55.51-69.83,102.83-120.33,140.91-5.3,4-11.07,7.38-16.65,11C-264.38-191.68-265.86-191-268.09-189.72Z" transform="translate(955 955)"/><path class="cls-1" d="M244.91-230.46a276.77,276.77,0,0,1,13.15-83.09c10.3-32.67,24.88-63.14,47.11-89.53,8.2-9.73,17.38-18.42,28.89-24.25,6.32-3.19,12.95-5.45,20.17-4.21,15.33,2.61,23.42,15.66,20.32,32.75S363.33-366.48,354.1-352C331.43-316.33,303.21-285.32,273-256,264.17-247.51,255.34-239,244.91-230.46Z" transform="translate(955 955)"/></svg>