<svg id="Layer_1" data-name="Layer 1" xmlns="http://www.w3.org/2000/svg" viewBox="0 0 799.65 205.93"><defs><style>.cls-1{fill:#4b4b4d;}.cls-2{fill:#a4a6a9;}</style></defs><title>github</title><path class="cls-1" d="M-375,37c-.05-.56-1.18-14.43,0-26,.29-2.88.72-5.77.72-5.77.69-4.65,1.52-8.39,2.23-11.54,3.17-14.12,5.87-25.28,13.26-37.36,11.42-18.67,28.45-29.17,49.57-32.9A154.17,154.17,0,0,1-239.48-73c12.1,3.45,12,3.72,9,15.64-1.49,6-3,11.93-4.43,17.91-1.68,6.89-1.64,6.84-8.2,4.94a113.36,113.36,0,0,0-49-3.32c-17.5,2.65-29,12.87-34,29.74a114.82,114.82,0,0,0,.07,66c5.83,19.74,19,29,39.59,29.26a120.44,120.44,0,0,0,19.44-1c2.46-.36,3.42-1.27,3.4-3.8-.1-10.83-.12-21.67,0-32.49,0-2.7-1-3.43-3.51-3.38-6.83.12-13.67,0-20.5.07-3.32.06-4.85-1.11-4.8-4.64q.21-14,0-28c-.05-3.5,1.5-4.69,4.82-4.68q31.23.09,62.48,0c3.68,0,4.95,1.64,4.94,5.19q-.1,46.74,0,93.47c0,3.34-1.75,4.72-4.21,6-20.8,10.94-43.06,14.28-66.26,12.75-11.84-.79-23.51-2.55-34.61-6.93a71.91,71.91,0,0,1-23.44-14.71c-14.59-13.76-19.2-30.25-22.17-40.91C-373.57,53.82-374.29,45.44-375,37Z" transform="translate(375.53 79)"/><path class="cls-2" d="M-375,37V17" transform="translate(375.53 79)"/><path class="cls-1" d="M-25,26c0-30.32.1-60.65-.1-91,0-4.83,1.44-6.46,6.26-6.33,10.49.28,21,.26,31.49,0,4.46-.11,5.7,1.56,5.67,5.84-.17,20.66,0,41.32-.17,62,0,3.68.82,4.78,4.65,4.73C41,1,59.15,1,77.31,1.2c3.31,0,4.13-.93,4.11-4.16-.14-20.66,0-41.32-.15-62,0-4.67,1.3-6.56,6.26-6.41,10.65.32,21.32.2,32,0,3.84-.06,5.33,1.34,5.32,5.25q-.11,92,0,183.94c0,3.93-1.58,5.23-5.41,5.17-10.83-.17-21.66-.23-32.49,0-4.47.1-5.76-1.64-5.73-5.88.15-24.15,0-48.31.26-72.47,0-4.6-1.35-5.45-5.59-5.4-17.66.24-35.32.21-53,0-3.75,0-4.75,1-4.72,4.74.18,24.16.1,48.32.09,72.48,0,6.4-.05,6.43-6.4,6.44q-15.25,0-30.49,0c-6.23,0-6.35-.13-6.35-6.57Z" transform="translate(375.53 79)"/><path class="cls-1" d="M326.66,113.21c-2.71,11.15-.27,9.69-12.14,9.78-5.49.05-11-.12-16.49.06-3.73.12-5-1.52-5-5.09.13-6,0-12,0-18q0-82.2,0-164.42c0-6.59.18-6.79,6.65-6.8,10.32,0,20.66.19,31-.09,4.72-.13,6,1.71,6,6.17-.18,18.15-.09,36.31-.05,54.47,0,1.77-.44,3.61.54,5.6a79.42,79.42,0,0,1,28.5-8.18c30.65-2.58,50,11.39,55.84,41.57a139.83,139.83,0,0,1-2.11,62.41c-7.07,27.18-24.65,37.61-54.67,35.8A70.78,70.78,0,0,1,326.66,113.21Zm9.19-56.62c0,8.84.12,17.67-.08,26.5-.06,2.8,1,4.11,3.41,5.19A49,49,0,0,0,364,92.17c7.11-.68,11.61-4.42,13.94-11a56.39,56.39,0,0,0,2.58-15.22c.68-10.65,1.08-21.34-2.51-31.65-3.2-9.14-9.18-13.23-18.81-13.45-7.15-.16-13.8,1.66-20.32,4.4-2.29,1-3.18,2.33-3.13,4.89C336,38.93,335.85,47.76,335.85,56.59Z" transform="translate(375.53 79)"/><path class="cls-1" d="M240.78,114.19c-14.89,8.48-30.59,13.36-47.72,12.66-7.66-.31-15.26-1.14-22.55-3.81-17.07-6.27-23.84-19.93-24.22-36.64-.7-30.47-.26-61-.35-91.46,0-3,1.27-4.27,4.16-4.27,11.66,0,23.32.06,35,0,3.62,0,4.52,1.89,4.49,5.05-.06,8.66,0,17.32,0,26,0,17,0,34,0,51a61.33,61.33,0,0,0,.48,8.47c.93,6.51,4.51,10,11.07,11,8.89,1.39,17.14-.71,25.15-4.48C229,86.37,229,84.37,229,82c-.05-28.33.07-56.65-.13-85,0-4.77,1.35-6.51,6.21-6.38,10.49.27,21,.2,31.49,0,4.1-.07,5.51,1.39,5.5,5.54q-.17,60.72,0,121.46c0,4.15-1.4,5.65-5.52,5.49-6-.23-12-.3-18,.06-4.57.28-7-1.11-7-5.92A12.46,12.46,0,0,0,240.78,114.19Z" transform="translate(375.53 79)"/><path class="cls-1" d="M-118.89,56.93c0-9.17-.13-18.33.06-27.5.07-3.15-.62-4.48-4.08-4.25-4.64.3-9.33,0-14,.1-3.23.09-4.46-1.3-4.41-4.48.12-6.67.14-13.34,0-20-.06-3.1,1.2-4.43,4.2-5,4.74-.89,9.34-2.5,14.09-3.23,3.7-.57,4.29-2.37,4.21-5.68-.21-9.66.09-19.34-.15-29-.1-3.81.8-5.34,4.94-5.24q16.48.39,33,0c4.13-.1,5.06,1.41,5,5.24-.23,9.49.07,19-.11,28.49,0,3,.62,4,3.82,3.94,7.16-.26,14.33,0,21.5-.13,3.91-.08,5.87,1.13,5.76,5.42-.2,8.16-.18,16.34,0,24.5.08,3.94-1.53,5.29-5.36,5.19-7.33-.19-14.67.06-22-.12-2.78-.06-3.73.68-3.71,3.6.13,16.66,0,33.33.11,50C-76,86.4-71.37,91-63.2,92a65.21,65.21,0,0,0,13.47-.1c3.31-.26,5,.71,5,4.35-.14,7.66-.13,15.33-.06,23,0,2.45-1,3.58-3.31,4.17-15.67,4.09-31.35,4.7-46.67-1-17.62-6.59-23.25-21.22-24-38.47-.38-9-.07-18-.07-27Z" transform="translate(375.53 79)"/><path class="cls-1" d="M-153.65,56.74q0,29.48,0,59c0,6.93-.42,7.3-7.41,7.31-9.83,0-19.65-.09-29.48,0-4.66.06-6.49-1.89-6.48-6.6q.15-60.21,0-120.4c0-4.39,1.71-5.9,5.93-5.84q16,.23,32,0c4.1-.07,5.56,1.5,5.53,5.59C-153.73,16.11-153.65,36.42-153.65,56.74Z" transform="translate(375.53 79)"/><path class="cls-1" d="M-151.91-43.35a23.69,23.69,0,0,1-24.22,23.24c-13-.22-23.62-10.8-23.65-23.46,0-12.86,10.91-23.48,24.12-23.43A23.49,23.49,0,0,1-151.91-43.35Z" transform="translate(375.53 79)"/></svg>