<svg id="Layer_1" data-name="Layer 1" xmlns="http://www.w3.org/2000/svg" viewBox="0 0 2497.97 818.85"><defs><style>.cls-1{fill:#3274f0;}.cls-2{fill:#e53226;}.cls-3{fill:#f5ad02;}.cls-4{fill:#249a41;}</style></defs><title>google</title><path class="cls-1" d="M551.31,336.21c47,0,94,.06,141-.09,4.09,0,5.76.86,6.24,5.2,8.57,79.07-2.22,154-47.95,221.16C621.27,605.55,581,635.33,534,656.88c-46,21.09-94.31,29-144.48,26.84C240.45,677.45,113.06,568.11,87.78,420.85c-20.34-118.46,17.45-218.4,107.47-297.69,48.69-42.87,106.47-67.48,170.91-74.71,94.95-10.64,179.33,15,252.48,76.8,5.18,4.38,5.11,4.44.23,9.46C601,153.1,583,171.43,565.25,190c-2.88,3-4.41,3.4-7.86.46-47.11-40.25-101.84-59.19-163.63-56.08-99.64,5-183.71,73.24-210.74,170-27.81,99.53,16.65,208.14,106.11,260,40.2,23.3,83.44,34.25,129.66,31.34,53.15-3.33,100.8-21.3,140.12-58.19,29.74-27.9,45.79-62.95,51.06-103.11,1.5-11.43,1.27-11.44-10.08-11.46q-57.49-.15-115-.33c-25.33-.1-50.65-.43-76-.45-3.66,0-4.82-.8-4.8-4.65q.27-38.24,0-76.49c0-4.25,1.52-4.86,5.2-4.85Q480.31,336.3,551.31,336.21Z" transform="translate(-82.41 -46.11)"/><path class="cls-1" d="M1929.68,316.75c.43-8.79,1-17.7,1.22-26.61.08-3.55,1.35-4.38,4.72-4.37q37.76.19,75.49,0c3.51,0,4.33.87,4.33,4.41q-.17,188.49,0,377c.06,46.87-11.9,89.92-39.82,127.93a166.12,166.12,0,0,1-69.27,55c-14.71,6.33-30.67,8.75-46.44,11.44-33.7,5.74-67.08,4.52-99.91-5.24-47.65-14.16-82.2-44.67-107.07-86.95-3.63-6.17-6.65-12.68-10.16-18.92-1.55-2.76-.88-4,1.89-5.21q35.54-15.33,71-30.92c3.17-1.4,3.57.47,4.59,2.44,11.08,21.47,25.28,40.38,45.46,54.18,17.29,11.83,36.35,16.46,57.32,14.84,14-1.08,27.89-2.24,41.17-7.12,35.13-12.91,55-39,63.66-74.49,5.13-20.94,5.24-42.24,4-63.6-.08-1.21.31-3-1.26-3.41-1.37-.34-2.26,1.2-3.25,2-20.09,16.67-42.15,29.73-67.44,36.9-38.41,10.87-75.6,6.37-111.63-9.54-72.63-32.07-111.24-90.3-124.62-166.37-6.31-35.88,1.28-70.64,16.68-103.56,22.39-47.86,56.78-84.43,104.22-107.85,59.7-29.47,116.15-21.44,169.36,16.78,5.13,3.68,10.06,7.64,15.09,11.45C1929,317,1929.18,316.88,1929.68,316.75ZM1715,474.79c.29,32.1,8.35,58.89,25.7,82.73,38.53,52.93,109.81,60.73,157.16,17.16,52.09-47.95,55.05-135.68,6.3-187.12-40.15-42.37-101-46.4-144.78-8.95C1729.18,404.45,1716.05,438.41,1715,474.79Z" transform="translate(-82.41 -46.11)"/><path class="cls-2" d="M1141.79,478.17c-.31,114.28-93.14,206.21-207.94,205.92-113.59-.29-205.64-93.43-205.16-207.58C729.18,362.61,822,270.6,936,271S1142.1,364.29,1141.79,478.17Zm-89.71,8.41c0-34.5-7.54-59.52-21.84-80.75-42-62.41-126.4-69.73-177.14-15.37C806.33,440.56,808,521.84,856.69,570c39.23,38.8,98.17,44.16,143.06,12.13C1035.13,556.91,1050.94,521.19,1052.08,486.58Z" transform="translate(-82.41 -46.11)"/><path class="cls-3" d="M1175.31,477.7c0-114.07,92.68-206.76,206.76-206.68,113.88.08,206.44,92.63,206.5,206.46.06,114.07-92.57,206.62-206.77,206.61C1267.9,684.07,1175.35,591.57,1175.31,477.7Zm90.56-7.7c0,35.08,7.53,59.8,22.17,81.54,40.06,59.49,120.17,68.82,171.67,20,48.55-46,52.52-126.27,8.76-176.92-37.94-43.92-98.36-53.87-145.72-23C1284.39,396.58,1267.15,433.48,1265.87,470Z" transform="translate(-82.41 -46.11)"/><path class="cls-2" d="M2415.05,680.79c-105.56,0-189.67-71.93-206.26-170.72-17-101.07,42.76-199.89,140.87-229,63.85-19,134.65-3.8,184,56.6,20.8,25.47,35.14,54.44,46.4,85.12,1.28,3.49-1.13,3.5-2.94,4.27-21.58,9.2-43.15,18.44-64.78,27.54q-99.4,41.78-198.88,83.37c-3.74,1.56-4.11,2.89-2.39,6.37,20.52,41.38,60.68,62.77,106.53,57.1,30.7-3.8,57.4-15.26,78.37-38.59a85,85,0,0,0,10.89-14.9c1.14-2,1.78-3.06,4.35-1.33q31.26,21.1,62.78,41.84c3.48,2.29,1.17,3.75,0,5.44-23.56,33.44-54.22,58-92.28,73.06C2458.17,676.24,2433.72,680.66,2415.05,680.79ZM2293.72,472c2.14-.85,3.83-1.48,5.48-2.17L2334.65,455q69.53-29.16,139.08-58.23c3.73-1.55,3.91-2.79,1.77-5.94a87.87,87.87,0,0,0-22.87-23.5c-21.84-15.1-45.94-17.42-71.26-12.32-37.51,7.57-65.55,26.91-79,64.12A143.18,143.18,0,0,0,2293.72,472Z" transform="translate(-82.41 -46.11)"/><path class="cls-4" d="M2076.93,367.84q0-147.48-.12-295c0-4.76,1-6.06,5.92-6,26.5.28,53,.2,79.49,0,3.62,0,4.79.72,4.79,4.61q-.15,296.72,0,593.42c0,3.47-.91,4.48-4.43,4.46-26.83-.14-53.66-.23-80.49.07-4.84,0-5.22-1.68-5.22-5.67Q2077,515.82,2076.93,367.84Z" transform="translate(-82.41 -46.11)"/></svg>