<svg id="Layer_1" data-name="Layer 1" xmlns="http://www.w3.org/2000/svg" viewBox="0 0 400.1 70.48"><defs><style>.cls-1{fill:#b7882f;}.cls-2{fill:#102341;}</style></defs><title>Honors College</title><path class="cls-1" d="M-34.8,1c0,.43-.09.87-.09,1.3,0,5.56,0,11.12,0,16.68,0,.91-.25,1.21-1.15,1.14s-1.76,0-2.64,0-1.06.28-1,1a7.85,7.85,0,0,1,0,.84q0,17.34,0,34.68a2.62,2.62,0,0,1-.79,2q-5.52,5.76-10.94,11.61a3.16,3.16,0,0,1-2.58,1.11c-7.64,0-15.28,0-22.91,0a2.3,2.3,0,0,1-1.86-.82q-5.67-6-11.43-12a2.36,2.36,0,0,1-.64-1.82c0-11.76,0-23.52,0-35.28,0-1.12-.31-1.42-1.39-1.38s-2.42.5-3.1-.23-.18-2-.18-3c0-4.84,0-9.68,0-14.52,0-.43-.06-.87-.09-1.3h28.8q0,8.7,0,17.39c0,1.69,0,1.74-1.72,1.69-.83,0-1.18.14-1.18,1.1q.06,15.18,0,30.35c0,.89.31,1.06,1.11,1,2.15,0,4.32-.07,6.47,0,1,0,1.26-.26,1.26-1.26,0-9.67,0-19.35,0-29,0-2.17,0-2.21-2.21-2.17-.9,0-1.14-.21-1.13-1.12,0-6,0-12,0-18ZM-88.54,37.75V56.47a1.82,1.82,0,0,0,.42,1.43q5.1,5.33,10.17,10.68a1.57,1.57,0,0,0,1.26.53h23a1.34,1.34,0,0,0,1.08-.37q4.89-5.19,9.83-10.35a2.78,2.78,0,0,0,.81-2.13q0-18.48,0-37c0-.28,0-.56,0-.84,0-.51.18-.71.7-.7,1,0,2-.05,3,0s1.06-.27,1-1.09q-.06-6.18,0-12.36c0-.88-.21-1.17-1.13-1.17q-10.92.06-21.84,0c-1,0-1.11.35-1.1,1.19,0,4,.07,7.92,0,11.88,0,1.25.31,1.74,1.56,1.54.77-.13,1.21,0,1.2,1,0,11.24,0,22.48,0,33.72a2.17,2.17,0,0,1-2.24,2.22H-69.3c-1.73,0-2.52-.78-2.52-2.52V22.1c0-1.16,0-2.32,0-3.48,0-.69.23-.94.9-.87.35,0,.72,0,1.08,0,.58.05.74-.21.74-.77q0-6.54,0-13.07c0-.59-.22-.76-.77-.76q-11.22,0-22.44,0c-.6,0-.87.17-.86.81q0,6.48,0,13c0,.62.18.86.81.83.88,0,1.77.05,2.64,0s1.22.2,1.21,1.17C-88.56,25.19-88.54,31.47-88.54,37.75Z" transform="translate(186.74 -0.96)"/><path class="cls-1" d="M-130.8,1q0,11.4.05,22.79c0,.58-.19.74-.75.74q-9.84,0-19.68,0c-.56,0-.78-.14-.75-.73,0-1,0-1.92,0-2.88,0-.61-.16-.84-.8-.83q-3.54,0-7.08,0c-.69,0-.89.23-.88.9,0,2,0,4.08,0,6.12,0,.84.31,1,1.05,1,4.48,0,9,0,13.43,0,.87,0,1.17.17,1.16,1.11q-.06,8.1,0,16.19c0,.86-.26,1.07-1.08,1.06-4.48-.05-9,0-13.44-.08-.9,0-1.17.23-1.12,1.13.08,1.39.05,2.8,0,4.2,0,.66.18.94.88.9s1.6,0,2.4,0,1.23.15,1.22,1.15c-.06,5.52-.05,11,0,16.55,0,.94-.29,1.1-1.15,1.1-9.43,0-18.87,0-28.31,0-.12,0-.24,0-.36,0-.57.08-.74-.16-.74-.73q0-8.7,0-17.4c0-.59.22-.76.77-.74.84,0,1.69-.06,2.52,0,1.19.13,1.6-.21,1.59-1.52-.08-6.92,0-13.84,0-20.76,0-3,0-6,0-9,0-.84-.21-1.13-1.06-1.06s-1.84,0-2.75,0-1.06-.24-1.06-1.07c0-6,0-12.07,0-18.11Zm-27.94,2.22h-24.6c-.67,0-1.23-.07-1.22.94.05,4.28,0,8.56,0,12.84,0,.64.21.84.83.81,1,0,1.93.07,2.88,0,1.11-.13,1.29.33,1.29,1.34,0,11.2,0,22.4,0,33.6,0,.44,0,.88,0,1.31,0,.59-.22.77-.78.76-1.07,0-2.16,0-3.23,0-.72,0-1,.17-1,.93q.06,6.24,0,12.48c0,.83.3,1,1.05,1,1.8-.05,3.6,0,5.4,0,6.2,0,12.4,0,18.59,0,.89,0,1.15-.22,1.14-1.12-.05-4-.06-8.08,0-12.12,0-1-.34-1.23-1.23-1.15-.72.06-1.45,0-2.16,0-.89.08-1.25-.15-1.23-1.15.08-2.84.07-5.68,0-8.52,0-.91.25-1.14,1.14-1.13,4.44,0,8.88,0,13.32,0,.86,0,1.18-.17,1.16-1.11q-.07-5.76,0-11.52c0-.93-.28-1.13-1.15-1.12-4.48,0-9,0-13.44,0-.76,0-1-.16-1-1q.07-5.28,0-10.56c0-.81.26-1,1-1,3,0,6.08,0,9.12,0,1.07,0,2.44-.45,3.13.18s.24,2,.22,3.1c0,.91.22,1.25,1.21,1.24,4.64-.05,9.28-.06,13.92,0,1,0,1.24-.34,1.23-1.3q-.06-8.28,0-16.56c0-1-.24-1.28-1.26-1.27C-142.5,3.2-150.62,3.18-158.74,3.18Z" transform="translate(186.74 -0.96)"/><path class="cls-1" d="M-97.68,1c0,6,0,11.92,0,17.88,0,1-.3,1.34-1.28,1.24-.75-.08-1.52,0-2.28,0-.93-.09-1.22.21-1.21,1.18,0,6.2,0,12.4,0,18.6,0,3.88,0,7.76,0,11.64,0,.85.26,1.18,1.09,1.05a1.45,1.45,0,0,1,.36,0c1.06.08,2.45-.47,3.1.23s.18,2.06.19,3.13c0,4.76,0,9.52,0,14.28,0,.86-.17,1.15-1.11,1.14q-14.22,0-28.43,0c-.86,0-1.17-.14-1.16-1.09,0-5.52,0-11,0-16.56,0-.87.17-1.25,1.11-1.15.79.08,1.6,0,2.39,0,1,.11,1.35-.18,1.34-1.28-.06-6.48,0-13,0-19.44,0-3.56,0-7.12,0-10.68,0-.81-.17-1.22-1-1.07a.48.48,0,0,1-.12,0c-1.19-.09-2.75.52-3.46-.26s-.18-2.29-.19-3.48c0-5.12,0-10.24,0-15.36ZM-113.06,69.1h12c.61,0,1.07,0,1.06-.85,0-4.24,0-8.48,0-12.71,0-.64-.22-.85-.84-.82-.88,0-1.77-.06-2.64,0s-1.18-.28-1.18-1.2c0-7.92,0-15.84,0-23.76,0-3.68,0-7.35,0-11,0-.76.17-1.09,1-1s1.76,0,2.64,0,1-.14,1-1c0-4.2,0-8.4,0-12.6,0-.76-.2-1-1-1q-12,0-24,0c-.87,0-1.07.3-1.06,1.11,0,3.32,0,6.64,0,10,0,1.15-.51,2.62.23,3.34s2.14.24,3.24.17,1.21.39,1.21,1.31c0,8.36,0,16.72,0,25.07,0,3.12,0,6.24,0,9.36,0,1-.19,1.4-1.23,1.28-.75-.08-1.52,0-2.28,0s-1.17.17-1.15,1.11c0,4.07,0,8.15,0,12.23,0,.86.25,1.07,1.08,1.06C-121,69.08-117,69.1-113.06,69.1Z" transform="translate(186.74 -0.96)"/><path class="cls-1" d="M-19,1C-19,1.47-19,2-19,2.5q0,33.72,0,67.44a1.38,1.38,0,0,1-2.07,1.32c-.23-.1-.26-.26-.27-.47V1.92c0-.32,0-.64,0-1Z" transform="translate(186.74 -0.96)"/><path class="cls-2" d="M213.36,37.44c-3.35,0-6.71.1-10.06,0-1.17,0-1.15.52-.93,1.3a3.12,3.12,0,0,0,2.38,2.42,3.75,3.75,0,0,0,3.95-1,2,2,0,0,1,1.92-.78H213c-.95,3.77-4.43,5.87-8.53,5.21-4.9-.78-7.66-5.26-6.41-10.4a7.86,7.86,0,0,1,10.24-5.61,7.21,7.21,0,0,1,4.57,4.71c.16.43.09.95.48,1.29Zm-7.67-5.94a3.28,3.28,0,0,0-3.35,2.36c-.14.54-.13.91.63.89,1.8,0,3.6,0,5.4,0,.62,0,.6-.22.48-.71A3.05,3.05,0,0,0,205.69,31.5Z" transform="translate(186.74 -0.96)"/><path class="cls-2" d="M12.78,33.49c0,3.16-.06,6.33,0,9.48,0,1.12-.32,1.37-1.33,1.27a16.62,16.62,0,0,0-2.64,0c-.71,0-.87-.25-.86-.91,0-2.48,0-5,0-7.44,0-.65-.13-.9-.85-.89-2.27,0-4.56.06-6.83,0-.8,0-.91.28-.9,1,0,2.44,0,4.88,0,7.32,0,.73-.18,1-.93.95-1.26-.11-2.91.52-3.68-.26-.61-.63-.19-2.27-.19-3.47,0-5.56,0-11.12,0-16.68,0-.91.24-1.18,1.13-1.1a18.16,18.16,0,0,0,2.76,0c.74,0,1,.21.94,1,0,2.12,0,4.24,0,6.36,0,.7.13,1,.91.95,2.23-.06,4.48-.06,6.71,0,.85,0,1-.29,1-1,0-2.08,0-4.16,0-6.24,0-.8.24-1,1-1a19.77,19.77,0,0,0,2.88,0c.75,0,.94.2.93.93C12.76,26.93,12.78,30.21,12.78,33.49Z" transform="translate(186.74 -0.96)"/><path class="cls-2" d="M191.05,41.62a6.13,6.13,0,0,1-7,1.77c-2.52-.77-3.66-2.78-4.13-5.25a10,10,0,0,1,.85-6.63c2-3.87,7.71-4.51,10.06-1.34.06,0,.16-.09.16-.12-.24-1.32.41-1.53,1.59-1.5,2.66.09,2.66,0,2.66,2.71,0,3.63-.11,7.27,0,10.91.24,6.62-4.12,8.23-9.21,7.86A6.66,6.66,0,0,1,181.51,48a4.51,4.51,0,0,1-.71-1c-.91-1.7-.74-2,1.16-2,.44,0,.88,0,1.32,0a1.6,1.6,0,0,1,1.81.91c.58,1.1,2.33,1.46,3.78,1A3.12,3.12,0,0,0,191,44.13C191.09,43.38,191.05,42.63,191.05,41.62Zm0-5.66a5.15,5.15,0,0,0-.29-2.11,3.18,3.18,0,0,0-3.1-2.35,3.06,3.06,0,0,0-3.16,2.23,6.2,6.2,0,0,0,.3,5.09,2.72,2.72,0,0,0,2.36,1.58C189.56,40.58,191.06,38.93,191.06,36Z" transform="translate(186.74 -0.96)"/><path class="cls-2" d="M126.38,30c-1.41,0-2.76,0-4.11,0-.39,0-.53-.13-.65-.5a4.51,4.51,0,0,0-4.52-3.26,4.92,4.92,0,0,0-4.94,3.12,10,10,0,0,0,0,8.15,5.15,5.15,0,0,0,5.55,3.08c2-.17,3.45-1.45,4-3.81.19-.78.5-1,1.28-1a17.9,17.9,0,0,0,2.64,0c.77-.06,1,.21.87,1a9,9,0,0,1-8.1,7.87c-7.24.56-12.15-4.24-11.84-11.52.19-4.38,1.72-8,5.87-9.93a10.36,10.36,0,0,1,10,.39A8,8,0,0,1,126.38,30Z" transform="translate(186.74 -0.96)"/><path class="cls-2" d="M177.5,39.36c-1.12,3.71-3.76,5.43-7.92,5.26a7.41,7.41,0,0,1-7.07-5.89c-1-4.62,1.05-8.9,5-10.12,6-1.83,10.41,2.15,10.3,8.27,0,.83-.55.62-1,.62-3.07,0-6.15,0-9.22,0-1,0-1.06.36-.87,1.12A3.12,3.12,0,0,0,169,41.13c1.48.39,3,.32,4-.88a2.52,2.52,0,0,1,2.37-.89Zm-7.58-4.62c.92,0,1.84,0,2.75,0,.63,0,.75-.18.63-.76a3,3,0,0,0-3.07-2.49,3.31,3.31,0,0,0-3.44,2.39c-.14.56-.14.91.62.86S169.08,34.74,169.92,34.74Z" transform="translate(186.74 -0.96)"/><path class="cls-2" d="M24,44.64c-4.89,0-8.13-3.28-8.12-8.24s3.2-8.2,8-8.25,8.15,3.25,8.16,8.21S29,44.62,24,44.64Zm3.67-8.26c0-.52,0-1.05-.11-1.56a3.58,3.58,0,0,0-3.35-3.32c-1.9-.1-3.13.83-3.67,2.87a8,8,0,0,0,.09,4.49A3.25,3.25,0,0,0,24,41.3,3.28,3.28,0,0,0,27.33,39,7.6,7.6,0,0,0,27.7,36.38Z" transform="translate(186.74 -0.96)"/><path class="cls-2" d="M136.84,44.64c-4.9,0-8.13-3.27-8.13-8.24s3.28-8.28,8.14-8.25,8,3.29,8,8.2S141.76,44.62,136.84,44.64Zm3.65-8.15c0-.52,0-1-.09-1.55A3.6,3.6,0,0,0,137,31.5c-1.94-.1-3.19.87-3.71,3A8,8,0,0,0,133.5,39a3.52,3.52,0,0,0,6.63,0A6.89,6.89,0,0,0,140.49,36.49Z" transform="translate(186.74 -0.96)"/><path class="cls-2" d="M68.16,36.45c0,5-3.13,8.2-8.1,8.19s-8-3.23-8-8.22,3.18-8.28,8.06-8.27S68.16,31.38,68.16,36.45Zm-4.32,0a6.65,6.65,0,0,0-.55-3,3.22,3.22,0,0,0-3.24-2,3.19,3.19,0,0,0-3.14,2.15,7.44,7.44,0,0,0,0,5.49,3.5,3.5,0,0,0,6.47,0A6.25,6.25,0,0,0,63.84,36.5Z" transform="translate(186.74 -0.96)"/><path class="cls-2" d="M38.9,30.64a6.15,6.15,0,0,1,6.21-2.35,4.38,4.38,0,0,1,4.08,4c.5,3.34.14,6.7.22,10.05.05,1.87,0,1.87-1.88,1.87-2.47,0-2.44,0-2.48-2.47a72.52,72.52,0,0,0-.13-7.66c-.2-1.6-1-2.35-2.3-2.43a2.8,2.8,0,0,0-3.23,2.05,9.9,9.9,0,0,0-.29,3c0,2.2,0,4.4,0,6.59,0,.71-.12,1-.9,1-1.11-.09-2.56.34-3.24-.21s-.21-2.1-.22-3.2c0-3.76,0-7.52,0-11.27,0-.8.22-1.08,1-1a9.69,9.69,0,0,0,1.32,0C38.86,28.58,38.86,28.58,38.9,30.64Z" transform="translate(186.74 -0.96)"/><path class="cls-2" d="M83.89,39.12c.44,0,.89,0,1.32,0s.71.09.81.59c.44,2.13,3.72,2.48,5.21,1.38A1.4,1.4,0,0,0,91,38.56a15.8,15.8,0,0,0-3.64-1.11,26.37,26.37,0,0,1-2.63-.76,3.56,3.56,0,0,1-2.58-3.13,4.37,4.37,0,0,1,1.74-4.11c2.35-1.74,7.7-1.74,10,0A4.94,4.94,0,0,1,95,30.6c.5.73,1.05,1.65.7,2.43s-1.3.16-2,.25c-.4,0-.8,0-1.2,0a.77.77,0,0,1-.94-.6c-.53-1.5-3.39-2.13-4.6-1.08a1.25,1.25,0,0,0,.45,2.13,12.83,12.83,0,0,0,2.86.82,27.58,27.58,0,0,1,3,.8c1.49.54,2.72,1.42,2.93,3.15a4.83,4.83,0,0,1-1.8,4.69c-2.57,2-8.25,1.92-10.75-.12a5,5,0,0,1-1.74-2.8c-.18-.74-.22-1.38.9-1.17A6.35,6.35,0,0,0,83.89,39.12Z" transform="translate(186.74 -0.96)"/><path class="cls-2" d="M155.35,33.49c0-3.28,0-6.55,0-9.82,0-.73.17-1,.92-.94,1.15.12,2.64-.49,3.34.25.55.57.16,2.05.16,3.13,0,5.66,0,11.33,0,17,0,.89-.2,1.23-1.12,1.13s-2.46.43-3.11-.22-.19-2-.2-3.11C155.33,38.44,155.35,36,155.35,33.49Z" transform="translate(186.74 -0.96)"/><path class="cls-2" d="M152,33.6c0,3.24,0,6.48,0,9.71,0,.76-.2,1-.94.93a13.63,13.63,0,0,0-2.39,0c-.84.07-1.07-.21-1.07-1.05,0-5.52,0-11,0-16.55,0-1,0-2.08,0-3.11,0-.66.22-.83.82-.8a21.13,21.13,0,0,0,2.64,0c.75-.06.94.2.93.93C152,27,152,30.29,152,33.6Z" transform="translate(186.74 -0.96)"/><path class="cls-2" d="M75.17,31a5.74,5.74,0,0,1,4.29-2.78c1.43-.15,1.62.09,1.49,1.24a3.85,3.85,0,0,0,0,.48,5.18,5.18,0,0,1-.07,2.13c-.38.75-1.26,0-1.94.16A3.91,3.91,0,0,0,75.32,36a64.2,64.2,0,0,0-.12,7.07c0,.85-.13,1.25-1.09,1.14a11.93,11.93,0,0,0-2.39,0c-.78.06-.92-.26-.91-1q0-6.9,0-13.8c0-.78.26-1,1-.9a5.77,5.77,0,0,0,.72,0C74.86,28.58,74.86,28.58,75.17,31Z" transform="translate(186.74 -0.96)"/><path class="cls-2" d="M-88.54,37.75c0-6.28,0-12.56,0-18.84,0-1-.29-1.24-1.21-1.17s-1.76,0-2.64,0c-.63,0-.82-.21-.81-.83q0-6.48,0-13c0-.64.26-.81.86-.81q11.22,0,22.44,0c.55,0,.77.17.77.76q0,6.53,0,13.07c0,.56-.16.82-.74.77-.36,0-.73,0-1.08,0-.67-.07-.93.18-.9.87,0,1.16,0,2.32,0,3.48V52.22c0,1.74.79,2.52,2.52,2.52h8.52a2.17,2.17,0,0,0,2.24-2.22c0-11.24,0-22.48,0-33.72,0-1-.43-1.16-1.2-1-1.25.2-1.59-.29-1.56-1.54.08-4,.05-7.92,0-11.88,0-.84.14-1.2,1.1-1.19q10.92.06,21.84,0c.92,0,1.14.29,1.13,1.17q-.06,6.18,0,12.36c0,.82-.18,1.15-1,1.09s-2,0-3,0c-.52,0-.74.19-.7.7,0,.28,0,.56,0,.84q0,18.48,0,37a2.78,2.78,0,0,1-.81,2.13q-4.95,5.15-9.83,10.35a1.34,1.34,0,0,1-1.08.37h-23a1.57,1.57,0,0,1-1.26-.53Q-83,63.23-88.12,57.9a1.82,1.82,0,0,1-.42-1.43Z" transform="translate(186.74 -0.96)"/><path class="cls-2" d="M-158.74,3.18c8.12,0,16.24,0,24.35,0,1,0,1.27.28,1.26,1.27q-.06,8.28,0,16.56c0,1-.19,1.31-1.23,1.3-4.64-.06-9.28-.05-13.92,0-1,0-1.22-.33-1.21-1.24,0-1.06.5-2.46-.22-3.1s-2.06-.17-3.13-.18c-3,0-6.08,0-9.12,0-.76,0-1,.18-1,1q.07,5.28,0,10.56c0,.82.27,1,1,1,4.48,0,9,0,13.44,0,.87,0,1.17.19,1.15,1.12q-.07,5.76,0,11.52c0,.94-.3,1.12-1.16,1.11-4.44,0-8.88,0-13.32,0-.89,0-1.16.22-1.14,1.13.06,2.84.07,5.68,0,8.52,0,1,.34,1.23,1.23,1.15.71-.06,1.44,0,2.16,0,.89-.08,1.24.14,1.23,1.15-.07,4-.06,8.08,0,12.12,0,.9-.25,1.13-1.14,1.12-6.19,0-12.39,0-18.59,0-1.8,0-3.6,0-5.4,0-.75,0-1.06-.15-1.05-1q.06-6.24,0-12.48c0-.76.26-1,1-.93,1.07,0,2.16,0,3.23,0,.56,0,.82-.17.78-.76,0-.43,0-.87,0-1.31,0-11.2,0-22.4,0-33.6,0-1-.18-1.47-1.29-1.34-.95.1-1.92,0-2.88,0-.62,0-.84-.17-.83-.81,0-4.28,0-8.56,0-12.84,0-1,.55-.94,1.22-.94h24.6Z" transform="translate(186.74 -0.96)"/><path class="cls-2" d="M-113.06,69.1c-4,0-7.92,0-11.88,0-.83,0-1.09-.2-1.08-1.06,0-4.08,0-8.16,0-12.23,0-.94.29-1.18,1.15-1.11s1.53,0,2.28,0c1,.12,1.25-.32,1.23-1.28-.06-3.12,0-6.24,0-9.36,0-8.35,0-16.71,0-25.07,0-.92-.12-1.38-1.21-1.31s-2.56.5-3.24-.17-.22-2.19-.23-3.34c0-3.31,0-6.63,0-10,0-.81.19-1.11,1.06-1.11q12,0,24,0c.81,0,1,.28,1,1,0,4.2,0,8.4,0,12.6,0,.83-.3,1-1,1s-1.76,0-2.64,0-1,.26-1,1c0,3.68,0,7.35,0,11,0,7.92,0,15.84,0,23.76,0,.92.21,1.29,1.18,1.2s1.76,0,2.64,0c.62,0,.85.18.84.82,0,4.23,0,8.47,0,12.71,0,.86-.45.85-1.06.85Z" transform="translate(186.74 -0.96)"/></svg>