<svg id="Layer_1" data-name="Layer 1" xmlns="http://www.w3.org/2000/svg" viewBox="0 0 538.68 538.08"><defs><style>.cls-1{fill:#270c5a;}.cls-2{fill:#f8f5f9;}.cls-3{fill:#271e0a;}.cls-4{fill:#e6d1ac;}.cls-5{fill:#cdaa7b;}</style></defs><title>Insomnia Cookies</title><path class="cls-1" d="M-250.58,6.46a270.12,270.12,0,0,1,13.39-67.55,268.6,268.6,0,0,1,34.35-68.33,270.58,270.58,0,0,1,52.72-56.12A265.06,265.06,0,0,1-40.63-238.12a250.79,250.79,0,0,1,37.2-5.52c1.52-.1,3-.29,4.54-.43a10.52,10.52,0,0,0,3.31-.15c1.75.26,3.45-.33,5.18-.3H26.88a39,39,0,0,0,6.83.43,271.76,271.76,0,0,1,70.62,13.77A266.26,266.26,0,0,1,190.38-182a267.77,267.77,0,0,1,74,98.44,263.06,263.06,0,0,1,18.89,63.46,269.78,269.78,0,0,1,3.17,61.92A266.21,266.21,0,0,1,259,144.21a266.44,266.44,0,0,1-58,77.57A266.81,266.81,0,0,1,80.6,286.32,268.66,268.66,0,0,1,37.27,293c-.31,0-.63.08-.94.12a38.28,38.28,0,0,1-7,.44H4.8c-1.71-.14-3.38-.18-5.13-.43a312.63,312.63,0,0,1-32.55-4.26,266,266,0,0,1-68-22.77,267.61,267.61,0,0,1-89.29-70.88A266.23,266.23,0,0,1-242.44,92.68a273.76,273.76,0,0,1-8-48.66c0-.4-.1-.79-.15-1.19a7.77,7.77,0,0,0-.14-3c0-.42-.08-.83-.11-1.25,0-.6,0-1.5,0-2.59-.12-6.42-.52-11.08-.62-12.38A76.32,76.32,0,0,1-250.58,6.46ZM17.83,285C160.49,285.06,277,170.1,278.29,27,279.61-117.8,162.93-235.4,18.85-235.79A260.25,260.25,0,0,0-242.45,24.68C-242.57,168.21-125.92,284.87,17.83,285Z" transform="translate(251.67 244.52)"/><path class="cls-2" d="M283.85,95.43" transform="translate(251.67 244.52)"/><path class="cls-2" d="M17.83,285c-143.75-.1-260.4-116.76-260.28-260.29A260.25,260.25,0,0,1,18.85-235.79c144.08.39,260.76,118,259.44,262.8C277,170.1,160.49,285.06,17.83,285ZM-232.93,24.39c-.44,137.76,111.27,250,248.75,251.13,138.61,1.15,252.81-110.84,253-250.52.22-138.95-112.26-250.77-249.77-251.36C-120.51-226.95-233.2-113.64-232.93,24.39Z" transform="translate(251.67 244.52)"/><path class="cls-1" d="M-232.93,24.39c-.27-138,112.42-251.34,252-250.75,137.51.59,250,112.41,249.77,251.36-.22,139.68-114.42,251.67-253,250.52C-121.66,274.38-233.37,162.15-232.93,24.39Zm88-.51C-144.88,114.42-70.84,186,17.81,185.3c86.58-.7,160.08-70.8,160.07-161.46S104.18-137.63,16.57-137.57C-72.69-137.51-145-65.27-145,23.88ZM67.81-179.28h0c0-1.12.07-2.25,0-3.36-.38-5.61-3.16-9.6-8.54-11.24-6.53-2-13.09-2-19.39,1.06a1.55,1.55,0,0,1-2.09-.17,14.05,14.05,0,0,0-5.15-3,33.06,33.06,0,0,0-20.74.31c-3.34,1.07-5,3.31-5.22,6.92-.41,6.7-1.12,13.38-1.69,20.07-.35,4.22-.73,8.44-1,12.67-.15,2.16.41,3.06,2.27,3.28,3.41.41,6.84.67,10.27.84,1.56.08,2.28-.68,2.6-2.26a15.47,15.47,0,0,0,.16-1.67q1.16-13.62,2.32-27.25a8.35,8.35,0,0,1,.38-2.11,3.7,3.7,0,0,1,4.22-2.38,3.36,3.36,0,0,1,3.22,3.27,14.44,14.44,0,0,1,0,2.63q-1.1,13.51-2.23,27c-.23,2.79.41,3.72,3.13,4q4.41.48,8.85.7c2.29.11,3-.57,3.17-2.89.66-7.73,1.29-15.46,1.94-23.19.17-2,.29-4,.57-6a3.72,3.72,0,0,1,3.9-3.46c2.81-.05,4.18,1.51,4,4.72-.28,4.15-.7,8.29-1,12.43-.45,5.42-.91,10.84-1.29,16.26-.16,2.17.38,3,2.33,3.21,3.41.4,6.84.66,10.27.83,1.51.08,2.1-.59,2.41-2.12a13.37,13.37,0,0,0,.21-1.67Q66.68-165.53,67.81-179.28ZM19.12,229.06l-.53-.14c-.12-3.42-.25-6.84-.36-10.26q-.3-9.47-.6-18.94c-.11-3.5-.71-4.08-4.12-4-2.48.06-4.95.2-7.43.29-4.37.15-4.67.46-4.53,4.74L3,243q.21,6.23.44,12.46c.13,3.34.85,4,4.27,3.85,2.71-.1,5.43-.17,8.15-.27,3.14-.12,3.79-.85,3.66-3.93q-.23-5.26-.34-10.55c0-.47-.35-1.12.47-1.46,3.09,4.28,6.22,8.52,9.23,12.85a5.06,5.06,0,0,0,5,2.54c3.18-.27,6.39-.26,9.59-.38,1.43-.05,3,.15,3.82-1.4s-.36-2.86-1.26-4.06Q39,243.42,32,234.27c-1.13-1.49-1.11-1.5.14-3l.48-.54,10.08-11.58c.83-1,1.39-2.05.81-3.29s-1.82-1.42-3.08-1.36a51.68,51.68,0,0,1-5.27.2,7.65,7.65,0,0,0-7.15,3.42C25.22,221.9,22.11,225.44,19.12,229.06Zm-121.27-391a12.67,12.67,0,0,0-1.62.14,13.07,13.07,0,0,0-2.54.69,43.92,43.92,0,0,0-19.83,15.68c-2.12,3-2,6,.19,9.07,6.2,8.63,12.24,17.38,18.35,26.08a13.51,13.51,0,0,0,1.35,1.67,2.15,2.15,0,0,0,2.84.46,80.59,80.59,0,0,0,8.81-6.19c1.25-1,1.27-2,.45-3.42a16.13,16.13,0,0,0-.94-1.39l-14.86-21.2a18.18,18.18,0,0,1-2-3.25c-.84-2-.3-3.58,1.71-4.9s3.89-1.3,5.34.42c1,1.16,1.81,2.43,2.69,3.68,4.91,7,9.8,14,14.74,21,1.56,2.21,2.55,2.37,4.78.86s4.62-3.16,6.88-4.81,2.34-2.55.79-4.81c-2.16-3.16-4.38-6.29-6.59-9.43q-5.43-7.74-10.89-15.49A10.64,10.64,0,0,0-102.15-161.94Zm193.94-21.3c-5.38-.22-8,1.19-9.36,4.8-.72,1.94-1.65,3.81-2.48,5.71q-5.24,12-10.45,23.95c-1.26,2.9-.9,3.76,2,5,2.34,1,4.68,2.06,7,3.05,3,1.24,3.76.93,5-1.93,2-4.46,3.9-8.93,5.86-13.39s3.81-8.8,5.84-13.15c1.45-3.11,3.76-3.66,6.86-1.42,1.62,1.18,1.89,2.26,1.18,4.2-.51,1.42-1.13,2.81-1.74,4.2-3.36,7.69-6.74,15.37-10.08,23.06-1.25,2.86-.87,3.73,2,5,2.41,1.07,4.82,2.14,7.25,3.16s3.4.74,4.55-1.74c1-2.17,1.94-4.38,2.91-6.58q4.65-10.64,9.31-21.3a10.41,10.41,0,0,0,.41-8.38,13.09,13.09,0,0,0-4.45-5.84A45.18,45.18,0,0,0,91.79-183.24ZM-3.39,232.22a22.28,22.28,0,0,0-4.2-13.71c-3.77-5.07-9-7.4-15.11-8.3a20.44,20.44,0,0,0-22.1,12,29.33,29.33,0,0,0-2.67,13.5,20.65,20.65,0,0,0,1.73,7.65c3.08,7,8.71,10.6,15.92,12.08,10.67,2.2,20.25-2.82,24.32-12.74A26.79,26.79,0,0,0-3.39,232.22Zm-69.14,8.14a17.37,17.37,0,0,0,8.35-1.83c7-3.39,10.81-9.24,12.81-16.46A21.11,21.11,0,0,0-52,207.75c-3.3-7.65-9.54-11.6-17.43-13.07S-83.93,196-89,202.13A28.82,28.82,0,0,0-95,214.8a20.21,20.21,0,0,0,.63,10.87C-91.38,234.21-82.39,240.33-72.53,240.36Zm50-386.44c11.43,0,19.71-6.71,21.44-16.75a28.86,28.86,0,0,0-4.38-21.3c-4.67-7.15-11.32-10.29-19.9-9A19.36,19.36,0,0,0-41.79-178.4a29.52,29.52,0,0,0,4.19,23.61A18.11,18.11,0,0,0-22.52-146.08Zm164.2,17.19c-7-.55-16.34,7.74-11.79,17.43a31.55,31.55,0,0,0,16.66,15.81c3.74,1.62,7,.85,9.8-2.13,3.4-3.61,6.89-7.13,10.33-10.7,2.55-2.65,5.18-5.24,7.58-8,3.46-4,4-8.56,1.27-12.85a29.26,29.26,0,0,0-14.93-12.26,11.64,11.64,0,0,0-8-.2,6.63,6.63,0,0,0-4.72,5.27c-.49,2.73.78,4.81,2.83,6.46a5.61,5.61,0,0,0,5.87.85c1.12-.42,2.2-1,3.33-1.35a3.25,3.25,0,0,1,3.77,1.39c.85,1.24.33,2.31-.45,3.28s-2,2.1-2.88,3.21c-.71.86-1.35.82-2.26.25a63.62,63.62,0,0,0-7.78-4.24A21.68,21.68,0,0,0,141.68-128.89ZM88.94,226.58c.4-.66,1.13-.86,1.75-1.19,5.62-3.06,11.27-6.06,16.85-9.17,2.95-1.64,3.71-3.88,2.18-6.85-3-5.88-7.73-9.57-14.48-10s-12.35,2.21-17,6.9a17.76,17.76,0,0,0-5.38,12.22,28.09,28.09,0,0,0,8.84,21.76,17.54,17.54,0,0,0,14,4.95,25.48,25.48,0,0,0,11.34-3.54,16.79,16.79,0,0,0,8.39-12,13.26,13.26,0,0,0-.22-6.41,3.93,3.93,0,0,0-3.51-3.13,3.85,3.85,0,0,0-3.86,2.33c-.37.71-.68,1.44-1.06,2.14a11.82,11.82,0,0,1-7,5.8C95.52,231.77,90.5,230,88.94,226.58Zm42.54-.08c5.31,0,9.36-1.81,13.19-4.23a21.78,21.78,0,0,0,7.87-7.91,13.25,13.25,0,0,0-9.32-19.42,17.6,17.6,0,0,0-6,0c-2.76.44-5.52.92-8.27,1.42a8.27,8.27,0,0,1-3.57,0A3.21,3.21,0,0,1,123,193a3.07,3.07,0,0,1,3.5-2.21,8.59,8.59,0,0,1,2.28.69c.89.35,1.76.79,2.67,1.06a7,7,0,0,0,8.17-3.84c1.21-3-.27-6.32-3.52-7.94a10.91,10.91,0,0,0-7.5-.78,26,26,0,0,0-15.24,9.76A12.13,12.13,0,0,0,112,203.3c2.41,4.76,6.46,6.87,11.73,6.83,3.38,0,6.66-.85,10-1.3a16.08,16.08,0,0,1,4.54-.18,3,3,0,0,1,2.56,3,3,3,0,0,1-2.8,2.77,6.2,6.2,0,0,1-2.82-.41,40,40,0,0,0-3.87-1.3,7.15,7.15,0,0,0-8.61,4.26c-1.17,3.19.39,6.56,3.82,8.31A10.84,10.84,0,0,0,131.48,226.5ZM-61.45-134a23.51,23.51,0,0,0,13.25-5.12,13,13,0,0,0,5.13-13.78c-1.19-5.73-4.54-9.57-10.28-11.13a27.27,27.27,0,0,0-5.69-.79c-2.31-.11-4.62-.27-6.94-.41a4.74,4.74,0,0,1-3.4-1.54,3.21,3.21,0,0,1-.34-4c.81-1,2.25-1.16,3.71-.37a18.45,18.45,0,0,1,1.6,1.06c.79.53,1.54,1.15,2.37,1.61a6.21,6.21,0,0,0,7.32-1,5.92,5.92,0,0,0,1-7.08A7.58,7.58,0,0,0-55.64-179a10.53,10.53,0,0,0-6.8-2.61,22.63,22.63,0,0,0-16.51,6.47c-3.54,3.37-4.44,7.68-3.33,12.35,1.43,6,6,9.78,12.24,10.45,3.42.37,6.87.34,10.27.9a4.09,4.09,0,0,1,3.52,2.5A2.73,2.73,0,0,1-59.4-145a6.35,6.35,0,0,1-2.38-1.08,36.48,36.48,0,0,0-3.68-2.24,6.31,6.31,0,0,0-6.61.35c-3.18,2.14-3.66,6.45-1,9.69S-66.88-134-61.45-134ZM-109,172a18.15,18.15,0,0,0-9.64,2.66,29.29,29.29,0,0,0-13.67,17.53,17.86,17.86,0,0,0-.35,9.26c1.82,7.5,6.89,11.94,14,14a15.07,15.07,0,0,0,14-2.92,9.63,9.63,0,0,0,2.95-3.42,3.86,3.86,0,0,0-.37-4.29,3.73,3.73,0,0,0-3.87-1.35c-.86.17-1.7.45-2.54.68-5.21,1.43-9.35-2.21-9-7.49A16.14,16.14,0,0,1-112,185.48a9.71,9.71,0,0,1,4.6-2.47c2.78-.54,4.8,1.09,4.66,3.9a30.75,30.75,0,0,1-.59,3.54A6.25,6.25,0,0,0-101.7,196a6.79,6.79,0,0,0,10.9-1,10.82,10.82,0,0,0,.21-11.23C-94.48,176.41-100.78,172.58-109,172ZM61.86,209.92c-.43.06-1.07.13-1.69.26L51.49,212c-2.82.61-3.33,1.39-2.76,4.19q2.34,11.38,4.7,22.76,1.37,6.57,2.74,13.13c.49,2.3,1.23,3,3.17,2.71,3.69-.64,7.37-1.41,11-2.27,1.73-.41,2.25-1.46,2-3.27-.05-.39-.17-.78-.25-1.17l-5.64-27.23c-.59-2.81-1.13-5.64-1.76-8.45C64.33,210.52,63.66,210,61.86,209.92ZM119.34-119c1.5,0,2.24-1,3-2.12L133-137q5.13-7.67,10.28-15.31c1.68-2.52,1.5-3.34-1-5.07s-4.88-3.33-7.35-4.94c-1.91-1.22-2.95-1-4.25.83-1.15,1.63-2.23,3.31-3.34,5q-9,13.41-18,26.84c-1.75,2.6-1.6,3.33.94,5.07,2.3,1.58,4.64,3.11,7,4.68A5.16,5.16,0,0,0,119.34-119Zm-260.86-12.83a3.22,3.22,0,0,0-2.55,1.34c-2.08,2.21-4.19,4.4-6.24,6.64-1.64,1.78-1.6,2.81.13,4.48,2.19,2.11,4.42,4.18,6.63,6.26q10.47,9.87,21,19.73c2.52,2.37,3.25,2.32,5.68-.25,1.81-1.92,3.62-3.83,5.41-5.77,1.92-2.09,1.9-3.1-.12-5-2.3-2.22-4.65-4.4-7-6.59q-10.22-9.61-20.43-19.24A4.34,4.34,0,0,0-141.52-131.79Zm194.85,341a10,10,0,0,0,5.7-1.54,6.22,6.22,0,0,0,3.1-6.49,6.44,6.44,0,0,0-5.59-5.47,10.94,10.94,0,0,0-7.35,1.62,6.4,6.4,0,0,0-1.66,9.58A7,7,0,0,0,53.33,209.17Zm91.91-369.25a6.35,6.35,0,0,0,5.33-3.65,6.21,6.21,0,0,0-.22-6.82,9.1,9.1,0,0,0-7-4.1,6.74,6.74,0,0,0-6.89,8.06C137.27-163.18,141.24-160.07,145.24-160.08Zm-306.6,27.28a6.64,6.64,0,0,0,9.11,6.29,9.25,9.25,0,0,0,5.06-4.83,6.09,6.09,0,0,0-.86-6.92,6.67,6.67,0,0,0-6.8-2.52C-158.15-140.09-161.31-136.18-161.36-132.8Z" transform="translate(251.67 244.52)"/><path class="cls-2" d="M-145,23.88C-145-65.27-72.69-137.51,16.57-137.57c87.61-.06,161.3,70.71,161.31,161.41S104.39,184.6,17.81,185.3C-70.84,186-144.88,114.42-145,23.88Zm308.1-1.7c0-81.25-65.75-147.11-146.69-147.41C-63.64-125.54-131.31-61.06-131.34,22c0,82.23,66.48,146.93,146.52,147.29A147.3,147.3,0,0,0,163.14,22.18Z" transform="translate(251.67 244.52)"/><path class="cls-2" d="M67.81-179.28q-1.14,13.74-2.29,27.49a13.37,13.37,0,0,1-.21,1.67c-.31,1.53-.9,2.2-2.41,2.12-3.43-.17-6.86-.43-10.27-.83-2-.23-2.49-1-2.33-3.21.38-5.42.84-10.84,1.29-16.26.34-4.14.76-8.28,1-12.43.22-3.21-1.15-4.77-4-4.72a3.72,3.72,0,0,0-3.9,3.46c-.28,2-.4,4-.57,6-.65,7.73-1.28,15.46-1.94,23.19-.19,2.32-.88,3-3.17,2.89q-4.44-.23-8.85-.7c-2.72-.28-3.36-1.21-3.13-4q1.14-13.52,2.23-27a14.44,14.44,0,0,0,0-2.63,3.36,3.36,0,0,0-3.22-3.27,3.7,3.7,0,0,0-4.22,2.38,8.35,8.35,0,0,0-.38,2.11q-1.17,13.62-2.32,27.25a15.47,15.47,0,0,1-.16,1.67c-.32,1.58-1,2.34-2.6,2.26-3.43-.17-6.86-.43-10.27-.84-1.86-.22-2.42-1.12-2.27-3.28.29-4.23.67-8.45,1-12.67.57-6.69,1.28-13.37,1.69-20.07.23-3.61,1.88-5.85,5.22-6.92A33.06,33.06,0,0,1,32.58-196a14.05,14.05,0,0,1,5.15,3,1.55,1.55,0,0,0,2.09.17c6.3-3.08,12.86-3.06,19.39-1.06,5.38,1.64,8.16,5.63,8.54,11.24.08,1.11,0,2.24,0,3.36Z" transform="translate(251.67 244.52)"/><path class="cls-2" d="M19.12,229.06c3-3.62,6.1-7.16,8.93-10.91a7.65,7.65,0,0,1,7.15-3.42,51.68,51.68,0,0,0,5.27-.2c1.26-.06,2.49.1,3.08,1.36s0,2.34-.81,3.29L32.66,230.76l-.48.54c-1.25,1.47-1.27,1.48-.14,3Q39,243.44,46,252.6c.9,1.2,2.13,2.38,1.26,4.06s-2.39,1.35-3.82,1.4c-3.2.12-6.41.11-9.59.38a5.06,5.06,0,0,1-5-2.54c-3-4.33-6.14-8.57-9.23-12.85-.82.34-.49,1-.47,1.46q.12,5.28.34,10.55c.13,3.08-.52,3.81-3.66,3.93-2.72.1-5.44.17-8.15.27-3.42.13-4.14-.51-4.27-3.85Q3.16,249.19,3,243L1.55,200.76c-.14-4.28.16-4.59,4.53-4.74,2.48-.09,4.95-.23,7.43-.29,3.41-.09,4,.49,4.12,4q.32,9.47.6,18.94c.11,3.42.24,6.84.36,10.26Z" transform="translate(251.67 244.52)"/><path class="cls-2" d="M-102.15-161.94a10.64,10.64,0,0,1,9.63,4.85q5.46,7.74,10.89,15.49c2.21,3.14,4.43,6.27,6.59,9.43,1.55,2.26,1.39,3.22-.79,4.81s-4.57,3.24-6.88,4.81-3.22,1.35-4.78-.86c-4.94-7-9.83-14-14.74-21-.88-1.25-1.72-2.52-2.69-3.68-1.45-1.72-3.21-1.81-5.34-.42s-2.55,2.87-1.71,4.9a18.18,18.18,0,0,0,2,3.25l14.86,21.2a16.13,16.13,0,0,1,.94,1.39c.82,1.43.8,2.38-.45,3.42a80.59,80.59,0,0,1-8.81,6.19,2.15,2.15,0,0,1-2.84-.46,13.51,13.51,0,0,1-1.35-1.67c-6.11-8.7-12.15-17.45-18.35-26.08-2.22-3.1-2.31-6.06-.19-9.07a43.92,43.92,0,0,1,19.83-15.68,13.07,13.07,0,0,1,2.54-.69A12.67,12.67,0,0,1-102.15-161.94Z" transform="translate(251.67 244.52)"/><path class="cls-2" d="M91.79-183.24a45.18,45.18,0,0,1,21.63,8.44,13.09,13.09,0,0,1,4.45,5.84,10.41,10.41,0,0,1-.41,8.38q-4.63,10.67-9.31,21.3c-1,2.2-1.89,4.41-2.91,6.58-1.15,2.48-2,2.8-4.55,1.74s-4.84-2.09-7.25-3.16c-2.88-1.27-3.26-2.14-2-5,3.34-7.69,6.72-15.37,10.08-23.06.61-1.39,1.23-2.78,1.74-4.2.71-1.94.44-3-1.18-4.2-3.1-2.24-5.41-1.69-6.86,1.42-2,4.35-3.91,8.76-5.84,13.15s-3.89,8.93-5.86,13.39c-1.26,2.86-2.07,3.17-5,1.93-2.36-1-4.7-2-7-3.05-2.85-1.28-3.21-2.14-2-5q5.19-12,10.45-23.95c.83-1.9,1.76-3.77,2.48-5.71C83.77-182,86.41-183.46,91.79-183.24Z" transform="translate(251.67 244.52)"/><path class="cls-2" d="M-3.39,232.22a26.79,26.79,0,0,1-2.11,10.5c-4.07,9.92-13.65,14.94-24.32,12.74C-37,254-42.66,250.34-45.74,243.38a20.65,20.65,0,0,1-1.73-7.65,29.33,29.33,0,0,1,2.67-13.5,20.44,20.44,0,0,1,22.1-12c6.06.9,11.34,3.23,15.11,8.3A22.28,22.28,0,0,1-3.39,232.22Zm-16.21-4.4a13.1,13.1,0,0,0-.83-5.4c-1.3-2.91-3.93-3.33-6.06-.94A12.26,12.26,0,0,0-28.58,225,32.11,32.11,0,0,0-31,237.07a13.93,13.93,0,0,0,.83,5.41c1.16,2.91,3.62,3.36,5.8,1.08a10.48,10.48,0,0,0,1.82-2.79A31.5,31.5,0,0,0-19.6,227.82Z" transform="translate(251.67 244.52)"/><path class="cls-2" d="M-72.53,240.36c-9.86,0-18.85-6.15-21.8-14.69A20.21,20.21,0,0,1-95,214.8,28.82,28.82,0,0,1-89,202.13c5.09-6.15,11.61-8.92,19.55-7.45S-55.34,200.1-52,207.75a21.11,21.11,0,0,1,.67,14.32c-2,7.22-5.84,13.07-12.81,16.46A17.37,17.37,0,0,1-72.53,240.36Zm-7.29-17.06a24.54,24.54,0,0,0,.17,2.59c.48,2.55,2.58,3.54,4.84,2.29a10.39,10.39,0,0,0,3-2.71,30.92,30.92,0,0,0,6-12.64,10.25,10.25,0,0,0,.26-4.74c-.72-3-3.08-3.92-5.61-2.21a6.48,6.48,0,0,0-1.11.91A29.07,29.07,0,0,0-79.82,223.3Z" transform="translate(251.67 244.52)"/><path class="cls-2" d="M-22.52-146.08a18.11,18.11,0,0,1-15.08-8.71,29.52,29.52,0,0,1-4.19-23.61,19.36,19.36,0,0,1,16.43-14.76c8.58-1.26,15.23,1.88,19.9,9a28.86,28.86,0,0,1,4.38,21.3C-2.81-152.79-11.09-146.07-22.52-146.08Zm6.27-18.72a35.88,35.88,0,0,0-2.87-13.7A10.32,10.32,0,0,0-22-182.58a2.69,2.69,0,0,0-4.39.9,9.46,9.46,0,0,0-1,4.15,35.86,35.86,0,0,0,2.9,15.13,12.07,12.07,0,0,0,2.37,3.85c2,2.09,4.1,1.67,5.14-1.06A14,14,0,0,0-16.25-164.8Z" transform="translate(251.67 244.52)"/><path class="cls-2" d="M141.68-128.89a21.68,21.68,0,0,1,8.63,2.2,63.62,63.62,0,0,1,7.78,4.24c.91.57,1.55.61,2.26-.25.92-1.11,2-2.1,2.88-3.21s1.3-2,.45-3.28a3.25,3.25,0,0,0-3.77-1.39c-1.13.37-2.21.93-3.33,1.35a5.61,5.61,0,0,1-5.87-.85c-2.05-1.65-3.32-3.73-2.83-6.46a6.63,6.63,0,0,1,4.72-5.27,11.64,11.64,0,0,1,8,.2,29.26,29.26,0,0,1,14.93,12.26c2.7,4.29,2.19,8.85-1.27,12.85-2.4,2.78-5,5.37-7.58,8-3.44,3.57-6.93,7.09-10.33,10.7-2.81,3-6.06,3.75-9.8,2.13a31.55,31.55,0,0,1-16.66-15.81C125.34-121.15,134.66-129.44,141.68-128.89Zm11.91,13.22a9.17,9.17,0,0,0-4.37-1.8,6.84,6.84,0,0,0-7.17,4.77,3.76,3.76,0,0,0,.87,3.79c1.13,1.2,2.37,1.44,3.57.32C148.93-110.85,151.21-113.28,153.59-115.67Z" transform="translate(251.67 244.52)"/><path class="cls-2" d="M88.94,226.58c1.56,3.44,6.58,5.19,10.83,3.86a11.82,11.82,0,0,0,7-5.8c.38-.7.69-1.43,1.06-2.14a3.85,3.85,0,0,1,3.86-2.33,3.93,3.93,0,0,1,3.51,3.13,13.26,13.26,0,0,1,.22,6.41,16.79,16.79,0,0,1-8.39,12,25.48,25.48,0,0,1-11.34,3.54,17.54,17.54,0,0,1-14-4.95,28.09,28.09,0,0,1-8.84-21.76,17.76,17.76,0,0,1,5.38-12.22c4.67-4.69,10.3-7.32,17-6.9s11.46,4.1,14.48,10c1.53,3,.77,5.21-2.18,6.85-5.58,3.11-11.23,6.11-16.85,9.17C90.07,225.72,89.34,225.92,88.94,226.58Zm-4.07-7.68c3-1.68,6-3.31,9-5,.6-.34.27-.83,0-1.24a4.69,4.69,0,0,0-6-1.94C84.9,212,83.83,214.71,84.87,218.9Z" transform="translate(251.67 244.52)"/><path class="cls-2" d="M131.48,226.5a10.84,10.84,0,0,1-4.93-1.2c-3.43-1.75-5-5.12-3.82-8.31a7.15,7.15,0,0,1,8.61-4.26,40,40,0,0,1,3.87,1.3,6.2,6.2,0,0,0,2.82.41,3,3,0,0,0,2.8-2.77,3,3,0,0,0-2.56-3,16.08,16.08,0,0,0-4.54.18c-3.32.45-6.6,1.27-10,1.3-5.27,0-9.32-2.07-11.73-6.83a12.13,12.13,0,0,1,1.3-13.55A26,26,0,0,1,128.56,180a10.91,10.91,0,0,1,7.5.78c3.25,1.62,4.73,4.94,3.52,7.94a7,7,0,0,1-8.17,3.84c-.91-.27-1.78-.71-2.67-1.06a8.59,8.59,0,0,0-2.28-.69A3.07,3.07,0,0,0,123,193a3.21,3.21,0,0,0,2.45,3.39,8.27,8.27,0,0,0,3.57,0c2.75-.5,5.51-1,8.27-1.42a17.6,17.6,0,0,1,6,0,13.25,13.25,0,0,1,9.32,19.42,21.78,21.78,0,0,1-7.87,7.91C140.84,224.69,136.79,226.51,131.48,226.5Z" transform="translate(251.67 244.52)"/><path class="cls-2" d="M-61.45-134c-5.43,0-9-1.06-11.64-4.3s-2.16-7.55,1-9.69a6.31,6.31,0,0,1,6.61-.35,36.48,36.48,0,0,1,3.68,2.24A6.35,6.35,0,0,0-59.4-145a2.73,2.73,0,0,0,3.15-3.86,4.09,4.09,0,0,0-3.52-2.5c-3.4-.56-6.85-.53-10.27-.9-6.26-.67-10.81-4.44-12.24-10.45-1.11-4.67-.21-9,3.33-12.35a22.63,22.63,0,0,1,16.51-6.47,10.53,10.53,0,0,1,6.8,2.61,7.58,7.58,0,0,1,1.88,2.46,5.92,5.92,0,0,1-1,7.08,6.21,6.21,0,0,1-7.32,1c-.83-.46-1.58-1.08-2.37-1.61a18.45,18.45,0,0,0-1.6-1.06c-1.46-.79-2.9-.62-3.71.37a3.21,3.21,0,0,0,.34,4,4.74,4.74,0,0,0,3.4,1.54c2.32.14,4.63.3,6.94.41a27.27,27.27,0,0,1,5.69.79c5.74,1.56,9.09,5.4,10.28,11.13a13,13,0,0,1-5.13,13.78A23.51,23.51,0,0,1-61.45-134Z" transform="translate(251.67 244.52)"/><path class="cls-2" d="M-109,172c8.25.61,14.55,4.44,18.44,11.8A10.82,10.82,0,0,1-90.8,195a6.79,6.79,0,0,1-10.9,1,6.25,6.25,0,0,1-1.62-5.54,30.75,30.75,0,0,0,.59-3.54c.14-2.81-1.88-4.44-4.66-3.9a9.71,9.71,0,0,0-4.6,2.47,16.14,16.14,0,0,0-5.46,11.14c-.36,5.28,3.78,8.92,9,7.49.84-.23,1.68-.51,2.54-.68a3.73,3.73,0,0,1,3.87,1.35,3.86,3.86,0,0,1,.37,4.29,9.63,9.63,0,0,1-2.95,3.42,15.07,15.07,0,0,1-14,2.92c-7.16-2-12.23-6.49-14-14a17.86,17.86,0,0,1,.35-9.26,29.29,29.29,0,0,1,13.67-17.53A18.15,18.15,0,0,1-109,172Z" transform="translate(251.67 244.52)"/><path class="cls-2" d="M61.86,209.92c1.8,0,2.47.6,2.89,2.48.63,2.81,1.17,5.64,1.76,8.45l5.64,27.23c.08.39.2.78.25,1.17.21,1.81-.31,2.86-2,3.27-3.65.86-7.33,1.63-11,2.27-1.94.34-2.68-.41-3.17-2.71q-1.38-6.56-2.74-13.13-2.35-11.38-4.7-22.76c-.57-2.8-.06-3.58,2.76-4.19l8.68-1.82C60.79,210.05,61.43,210,61.86,209.92Z" transform="translate(251.67 244.52)"/><path class="cls-2" d="M119.34-119a5.16,5.16,0,0,1-2.17-1c-2.31-1.57-4.65-3.1-7-4.68-2.54-1.74-2.69-2.47-.94-5.07q9-13.44,18-26.84c1.11-1.66,2.19-3.34,3.34-5,1.3-1.83,2.34-2.05,4.25-.83,2.47,1.61,4.91,3.28,7.35,4.94s2.71,2.55,1,5.07Q138.13-144.62,133-137l-10.68,15.9C121.58-120,120.84-118.95,119.34-119Z" transform="translate(251.67 244.52)"/><path class="cls-2" d="M-141.52-131.79a4.34,4.34,0,0,1,2.49,1.55q10.2,9.63,20.43,19.24c2.33,2.19,4.68,4.37,7,6.59,2,2,2,3,.12,5-1.79,1.94-3.6,3.85-5.41,5.77-2.43,2.57-3.16,2.62-5.68.25q-10.5-9.85-21-19.73c-2.21-2.08-4.44-4.15-6.63-6.26-1.73-1.67-1.77-2.7-.13-4.48,2.05-2.24,4.16-4.43,6.24-6.64A3.22,3.22,0,0,1-141.52-131.79Z" transform="translate(251.67 244.52)"/><path class="cls-2" d="M53.33,209.17a7,7,0,0,1-5.8-2.3,6.4,6.4,0,0,1,1.66-9.58,10.94,10.94,0,0,1,7.35-1.62,6.44,6.44,0,0,1,5.59,5.47,6.22,6.22,0,0,1-3.1,6.49A10,10,0,0,1,53.33,209.17Z" transform="translate(251.67 244.52)"/><path class="cls-2" d="M145.24-160.08c-4,0-8-3.1-8.78-6.51a6.74,6.74,0,0,1,6.89-8.06,9.1,9.1,0,0,1,7,4.1,6.21,6.21,0,0,1,.22,6.82A6.35,6.35,0,0,1,145.24-160.08Z" transform="translate(251.67 244.52)"/><path class="cls-2" d="M-161.36-132.8c.05-3.38,3.21-7.29,6.51-8a6.67,6.67,0,0,1,6.8,2.52,6.09,6.09,0,0,1,.86,6.92,9.25,9.25,0,0,1-5.06,4.83A6.64,6.64,0,0,1-161.36-132.8Z" transform="translate(251.67 244.52)"/><path class="cls-3" d="M163.14,22.18a147.3,147.3,0,0,1-148,147.1c-80-.36-146.55-65.06-146.52-147.29,0-83,67.7-147.53,147.79-147.22C97.39-124.93,163.14-59.07,163.14,22.18ZM-18.65-85.65c.3,0,.41-.13.4-.4,1.83-2.57,4.71-4.15,6.44-6.81.54-1,.9-2,1.44-3,.82-1.48.35-2.38-1.24-2.92A7.06,7.06,0,0,0-14.7-99a33.55,33.55,0,0,0-10.19,2.51c-2.76,1.27-5.51,2.55-8.19,4-12.29,6.63-23.47,14.75-32.23,25.71C-83.12-44.49-95.39-19.72-98.13,9.12a109.76,109.76,0,0,0,.41,24.17,138.86,138.86,0,0,0,4.39,20.1,112.08,112.08,0,0,0,20,39c.92,1.19,1.65,2.92,3,3.24s2.79-.45,4.11-1a5.8,5.8,0,0,1,5.65.94,13.91,13.91,0,0,1,3,3c1.08,1.37,1.59,2.7.35,4.28a13.59,13.59,0,0,0-1.25,2.32c-.92,1.79-.93,1.81.66,3.14a98.42,98.42,0,0,0,17.34,11.53,115.46,115.46,0,0,0,39.93,12,114.31,114.31,0,0,0,41.17-2.28c33.89-8.18,60.89-26.59,81.33-54.76,4.14-5.7,7.51-11.87,11.35-17.76.1-.15,0-.46-.06-.69-.64-2.2-1.29-2.77-3.45-2.87a19.06,19.06,0,0,0-8.14,1.69,182.12,182.12,0,0,1-28.47,9.11c-7.59,1.7-15.24,2.81-23,2.15-4.43-.37-8.81-1.24-12.31-4.11-2-1.62-3.27-1.55-5.51-.5-8.7,4.09-16.3,1.92-20.78-6.77a2.8,2.8,0,0,0-2.34-1.66c-6.53-1-12.76-2.9-18.29-6.66-4.47-3-7.66-7-8.63-12.44-.2-1.17-.92-1.52-1.87-1.84a31.1,31.1,0,0,1-13.68-8.48c-.32-.36-.65-.78-1.14-.21a3.42,3.42,0,0,1-3.14-.1c-4.62-1.75-9-4.27-14.14-4.32-.17-.32-.65-.62-.19-1A15.63,15.63,0,0,1-29.91,17c3.63-2.18,7.67-3.55,11.37-5.6a1.33,1.33,0,0,1,.91-.23c1.14.41,1.16-.43,1.29-1.11s.78-1.57-.35-2.29a19.47,19.47,0,0,1-3.77-3.31c-5.58-6-8.49-12.86-6.91-21.2a24.27,24.27,0,0,1,1.53-5c.33-.79.36-1.33-.39-1.84a6.94,6.94,0,0,1-1.08-1,16.32,16.32,0,0,1-3.75-18.89,29.2,29.2,0,0,1,4-6.52c1.49-1.87,1.41-1.29.27-3.22a28.4,28.4,0,0,1-3.69-9.55c-1.39-7.94,1.15-14.45,7.28-19.62a.44.44,0,0,1,.61,0c.38.19.23.44.07.69-.28.42-.55.85-.83,1.28-6.58,8.35-4.55,19.81,1.24,27,.08,1.18-.88,1.81-1.45,2.63-5.58,8-5.54,17.71,2.14,25.57-.21.61-.39,1.22-.62,1.81a22.26,22.26,0,0,0-1.45,11.05c1,7.52,5,13.15,11.39,17.08.4,2.25-.11,4.46-.34,6.66a12.63,12.63,0,0,0,4.2,11,29.12,29.12,0,0,0,13.08,7.1,1.4,1.4,0,0,1,.45.8A23.07,23.07,0,0,0,15.5,43.85,31.65,31.65,0,0,0,29.7,48.4a.84.84,0,0,0,.95.18l2,.32c.78,4.29,6,9.87,10.11,10.88a6.78,6.78,0,0,0,5.69-1,22.36,22.36,0,0,1-8.5-5.71,34.19,34.19,0,0,1-4-4.78A2.45,2.45,0,0,0,33.62,47a42.84,42.84,0,0,1-8.12-2C17.87,42.1,12.41,37.11,10,29.17c-.35-1.14-.57-2.32-.85-3.49-.92-1.07-2.32-1.24-3.49-1.83C1.17,21.6-2.51,18.57-4.81,14a20.51,20.51,0,0,1-2-11.14c0-.72.59-1.58-.36-2.16C-7.66,0-8.56-.22-9.29-.67c-5.57-3.46-8.54-8.4-8.67-15a27.93,27.93,0,0,1,1.35-8.93c.21-.68.93-1.46-.15-2.07a5.92,5.92,0,0,0-.6-.71,13.71,13.71,0,0,1-4.85-11.89,28.76,28.76,0,0,1,3.85-11.93c.56-1,1.44-1.92,1.6-3.16.86-.71,0-1.09-.34-1.5a38.08,38.08,0,0,1-5.63-9.41c-2-5-2.49-10,0-15a37.7,37.7,0,0,1,4-5.26ZM82.21,8.86c2,1.35,3.53,2.45,5.12,3.48a1.38,1.38,0,0,1,.61,2c-.73,1.82-1.32,3.69-2.15,6.06,1.89-1.45,3.41-2.48,4.76-3.69,1.06-1,1.83-.81,2.82.05,1.35,1.18,2.82,2.21,4.24,3.31a29.48,29.48,0,0,0-1.48-5.11c-.67-1.87-.67-1.89,1-3,1.4-.94,2.82-1.86,4.43-3-2.28,0-4.1-.1-5.91,0a1.66,1.66,0,0,1-2-1.45C93.19,5.6,92.61,3.79,92,1.7a30.06,30.06,0,0,0-1.73,5.47c-.33,1.26-.82,1.88-2.28,1.74C86.27,8.73,84.52,8.86,82.21,8.86ZM82.42-62a5.58,5.58,0,0,0-2.52-.57,2.72,2.72,0,0,1-2.82-2,4.75,4.75,0,0,0-1.41-2.31,28.82,28.82,0,0,0-1.31,2.6,2.42,2.42,0,0,1-2.52,1.74,5.24,5.24,0,0,0-2.64.6,4.42,4.42,0,0,0,1.53,1.7,3.29,3.29,0,0,1,1.21,3.78A3.5,3.5,0,0,0,71.82-54c2.49-2.23,5.08-2.23,7.7-.29.08.06.26,0,.4,0,0-.17.1-.34.06-.47-.9-2.67-.6-5,2-6.57C82.15-61.44,82.24-61.7,82.42-62ZM16.24-11.1c-1.43-2.19.5-3.29,1.38-4.91-2.33.4-3.22-1-4-2.86-.81,1.95-1.82,3.31-4.6,2.8,2.08,1.54,2.59,3.13,2.19,5.21C12.85-12.54,14.39-11.84,16.24-11.1Z" transform="translate(251.67 244.52)"/><path class="cls-1" d="M-19.6,227.82a31.5,31.5,0,0,1-2.94,13,10.48,10.48,0,0,1-1.82,2.79c-2.18,2.28-4.64,1.83-5.8-1.08a13.93,13.93,0,0,1-.83-5.41A32.11,32.11,0,0,1-28.58,225a12.26,12.26,0,0,1,2.09-3.47c2.13-2.39,4.76-2,6.06.94A13.1,13.1,0,0,1-19.6,227.82Z" transform="translate(251.67 244.52)"/><path class="cls-1" d="M-79.82,223.3a29.07,29.07,0,0,1,7.56-16.51,6.48,6.48,0,0,1,1.11-.91c2.53-1.71,4.89-.76,5.61,2.21a10.25,10.25,0,0,1-.26,4.74,30.92,30.92,0,0,1-6,12.64,10.39,10.39,0,0,1-3,2.71c-2.26,1.25-4.36.26-4.84-2.29A24.54,24.54,0,0,1-79.82,223.3Z" transform="translate(251.67 244.52)"/><path class="cls-1" d="M-16.25-164.8a14,14,0,0,1-.68,5.19c-1,2.73-3.11,3.15-5.14,1.06a12.07,12.07,0,0,1-2.37-3.85,35.86,35.86,0,0,1-2.9-15.13,9.46,9.46,0,0,1,1-4.15,2.69,2.69,0,0,1,4.39-.9,10.32,10.32,0,0,1,2.84,4.08A35.88,35.88,0,0,1-16.25-164.8Z" transform="translate(251.67 244.52)"/><path class="cls-1" d="M153.59-115.67c-2.38,2.39-4.66,4.82-7.1,7.08-1.2,1.12-2.44.88-3.57-.32a3.76,3.76,0,0,1-.87-3.79,6.84,6.84,0,0,1,7.17-4.77A9.17,9.17,0,0,1,153.59-115.67Z" transform="translate(251.67 244.52)"/><path class="cls-1" d="M84.87,218.9c-1-4.19,0-6.93,3-8.15a4.69,4.69,0,0,1,6,1.94c.25.41.58.9,0,1.24C90.89,215.59,87.92,217.22,84.87,218.9Z" transform="translate(251.67 244.52)"/><path class="cls-4" d="M-22.61-82.35a.44.44,0,0,0-.61,0c-6.13,5.17-8.67,11.68-7.28,19.62a28.4,28.4,0,0,0,3.69,9.55c1.14,1.93,1.22,1.35-.27,3.22a29.2,29.2,0,0,0-4,6.52,16.32,16.32,0,0,0,3.75,18.89,6.94,6.94,0,0,0,1.08,1c.75.51.72,1,.39,1.84a24.27,24.27,0,0,0-1.53,5C-28.95-8.38-26-1.52-20.46,4.48a19.47,19.47,0,0,0,3.77,3.31c1.13.72.5,1.51.35,2.29s-.15,1.52-1.29,1.11a1.33,1.33,0,0,0-.91.23c-3.7,2.05-7.74,3.42-11.37,5.6a15.63,15.63,0,0,0-1.93,1.41c-.46.38,0,.68.19,1-.74.91-1.79.39-2.69.58-1.73.37-2.07,1.13-.88,2.37,1.62,1.69,3,3.79,5.87,3.46.65-.08,1.35.41,2,.61,2.06.59,4.11,1.2,6.19,1.73,2.79.72,6.05-1.41,6.75-4.33.49-.57.82-.15,1.14.21A31.1,31.1,0,0,0,.45,32.54c1,.32,1.67.67,1.87,1.84,1,5.45,4.16,9.41,8.63,12.44,5.53,3.76,11.76,5.66,18.29,6.66a2.8,2.8,0,0,1,2.34,1.66C36.06,63.83,43.66,66,52.36,61.91c2.24-1,3.54-1.12,5.51.5,3.5,2.87,7.88,3.74,12.31,4.11,7.81.66,15.46-.45,23-2.15a182.12,182.12,0,0,0,28.47-9.11,19.06,19.06,0,0,1,8.14-1.69c2.16.1,2.81.67,3.45,2.87a1.92,1.92,0,0,0-1.55.49c-3.23,2.87-7.08,4.87-10.53,7.44-3.19,2.38-6.72,4.29-10.07,6.46-4.82,3.11-9.81,6-14.83,8.73C91.49,82.22,86.55,84.63,81.6,87a219,219,0,0,1-22.26,9.21,143.61,143.61,0,0,1-20.47,5.65c-1.3.26-2.68,1.1-4.24.28a9.73,9.73,0,0,1,2-3c1.76-1.85,3-4.08,4.85-5.91a1.66,1.66,0,0,0-.27-2.81c1.18-1.55,3-2.54,4.2-4.39-2.1-.66-4-1.37-5.86-1.83-4.82-1.17-4.83-1.12-9.25,1.14a7.68,7.68,0,0,0-2.6,2c-1.09,1.38-2.25,2.69-3.36,4-1.91,2.33-1.85,3.3.28,5.51-.48,2.78-2.69,4.6-3.91,7-.23.45-.8.47-1.29.47a158.16,158.16,0,0,1-18.08-.5A2.64,2.64,0,0,1-.48,103c1-1.66,3-2.44,4.1-4.26C.76,97.57-2,96.64-4.64,95.32c-2.93-1.49-5.42-1.54-7.61,1.16-.09.1-.28.13-.42.19a2.7,2.7,0,0,0-2.18,2.6.23.23,0,0,1-.17.31c-.64-.13-1.09.57-1.82.28-3.26-1.29-6.54-2.49-9.7-4a101.08,101.08,0,0,1-15.82-9.74A63.84,63.84,0,0,1-51,78.55c-1.59-1.67-3.18-3.36-4.7-5.09a76.26,76.26,0,0,1-7.1-9.86,60.12,60.12,0,0,1-4.93-10.06c-1.35-3.4-2.92-6.73-4.06-10.21a126.54,126.54,0,0,1-4.94-18.9A88.64,88.64,0,0,1-78.17,11.9c-.15-7.33-.38-14.65.81-22,1.15-7.08,2.42-14.11,5.11-20.79,1-2.36,2-4.69,3-7,1.18-2.6,2.28-5.27,3.7-7.74,1.9-3.31,3.71-6.66,5.76-9.89a100.16,100.16,0,0,1,9.62-12.77,99.39,99.39,0,0,1,14.34-13,69.45,69.45,0,0,1,20.48-11,9,9,0,0,1,3.52-.55c-1.73,2.66-4.61,4.24-6.44,6.81a.38.38,0,0,0-.4.4l-.1.07a4,4,0,0,0-2.85,2.06c-.31.16-.7.27-.52.76l0,0c-.44-.11-.74-.08-.51.5ZM-46.09-42.92a16.94,16.94,0,0,1-2.81,2.54A6.48,6.48,0,0,0-50.48-39a7.76,7.76,0,0,0-1.28,7.38c.31,1.08.2,2.71,1.58,2.94,1.13.18,1.82-1.13,2.47-2a21,21,0,0,1,4-4.6,19.43,19.43,0,0,0,6.78-8.48c.22-.5.57-1,.3-1.58a4.37,4.37,0,0,0-5.11-2C-43.79-46.46-45.49-45.24-46.09-42.92ZM-62.47-1.8c4.08-2.56,6-6.42,6.7-11a1.85,1.85,0,0,0-1.16-2.26,19.67,19.67,0,0,0-6.14-1.83,13.13,13.13,0,0,0-8.43,2.06c-2.13,1.27-2.59,2.7-1.68,4.54-.93.17-1.09,1.09-1.64,1.64a3,3,0,0,0-.44,4.09,10.08,10.08,0,0,1,.86,3A12.63,12.63,0,0,0-72.73,2c.66,1,1.6,2,3,1.58C-66.65,2.78-63.77,1.53-62.47-1.8ZM-24.94,57c2.45-1.52,3.21-3.77,3-6.55a22.16,22.16,0,0,0-1.25-5.09A1.51,1.51,0,0,0-25,44.11c-4.68.34-9.37.52-14,1.63A11.72,11.72,0,0,0-46,51c-1.52,2.26-1.4,3.23.42,5.46,0,1-.85,1.49-1.42,2.13a11.33,11.33,0,0,0-2.78,5c-.42,1.74.35,2.78,2.12,3a14.91,14.91,0,0,1,1.9.18A13.89,13.89,0,0,0-37.58,66c2.46-.91,5-1.68,7.43-2.57A7.49,7.49,0,0,0-24.94,57Z" transform="translate(251.67 244.52)"/><path class="cls-5" d="M-.48,103a2.64,2.64,0,0,0,1.86.93,158.16,158.16,0,0,0,18.08.5c.49,0,1.06,0,1.29-.47,1.22-2.38,3.43-4.2,3.91-7,1.81,1,3.95,1.08,5.74,2.18,2.18,1.33,1.76,1.06,3.15-.67a47.86,47.86,0,0,1,7.7-8,1.66,1.66,0,0,1,.27,2.81c-1.81,1.83-3.09,4.06-4.85,5.91a9.73,9.73,0,0,0-2,3c1.56.82,2.94,0,4.24-.28a143.61,143.61,0,0,0,20.47-5.65A219,219,0,0,0,81.6,87c5-2.41,9.89-4.82,14.71-7.48,5-2.78,10-5.62,14.83-8.73,3.35-2.17,6.88-4.08,10.07-6.46,3.45-2.57,7.3-4.57,10.53-7.44a1.92,1.92,0,0,1,1.55-.49c0,.23.16.54.06.69C129.51,63,126.14,69.19,122,74.89c-20.44,28.17-47.44,46.58-81.33,54.76A114.31,114.31,0,0,1-.5,131.93a115.46,115.46,0,0,1-39.93-12,98.42,98.42,0,0,1-17.34-11.53c-1.59-1.33-1.58-1.35-.66-3.14a13.59,13.59,0,0,1,1.25-2.32c1.24-1.58.73-2.91-.35-4.28a13.91,13.91,0,0,0-3-3,5.8,5.8,0,0,0-5.65-.94c-1.32.51-2.87,1.24-4.11,1s-2.12-2-3-3.24a112.08,112.08,0,0,1-20-39,138.86,138.86,0,0,1-4.39-20.1,109.76,109.76,0,0,1-.41-24.17c2.74-28.84,15-53.61,32.82-75.89,8.76-11,19.94-19.08,32.23-25.71,2.68-1.44,5.43-2.72,8.19-4A33.55,33.55,0,0,1-14.7-99a7.06,7.06,0,0,1,3.09.24c1.59.54,2.06,1.44,1.24,2.92-.54,1-.9,2-1.44,3a9,9,0,0,0-3.52.55,69.45,69.45,0,0,0-20.48,11,99.39,99.39,0,0,0-14.34,13A100.16,100.16,0,0,0-59.77-55.5c-2,3.23-3.86,6.58-5.76,9.89-1.42,2.47-2.52,5.14-3.7,7.74-1,2.32-2.07,4.65-3,7-2.69,6.68-4,13.71-5.11,20.79-1.19,7.32-1,14.64-.81,22a88.64,88.64,0,0,0,1.48,12.53,126.54,126.54,0,0,0,4.94,18.9c1.14,3.48,2.71,6.81,4.06,10.21A60.12,60.12,0,0,0-62.76,63.6a76.26,76.26,0,0,0,7.1,9.86c1.52,1.73,3.11,3.42,4.7,5.09a63.84,63.84,0,0,0,8.6,7.57,101.08,101.08,0,0,0,15.82,9.74c3.16,1.51,6.44,2.71,9.7,4,.73.29,1.18-.41,1.82-.28-.05.71-.14,1.43-.12,2.13a2,2,0,0,0,1.19,1.91C-9.74,105.61-4.67,106.45-.48,103ZM86,93.37c-.09,2,.22,2.32,2,1.81a18.79,18.79,0,0,0,8.56-5.44,1.45,1.45,0,0,0,.51-1.25,4.74,4.74,0,0,0-3-3.43,6.34,6.34,0,0,0-7.08,3.58A17.59,17.59,0,0,0,86,93.37Z" transform="translate(251.67 244.52)"/><path class="cls-5" d="M-7.13.74c1,.58.41,1.44.36,2.16A20.51,20.51,0,0,0-4.81,14c2.3,4.53,6,7.56,10.43,9.81,1.17.59,2.57.76,3.49,1.83a38.42,38.42,0,0,1-4.29,3.78,29.12,29.12,0,0,1-13.08-7.1,12.63,12.63,0,0,1-4.2-11c.23-2.2.74-4.41.34-6.66C-10.1,3.85-8.7,2.18-7.13.74Z" transform="translate(251.67 244.52)"/><path class="cls-4" d="M-7.13.74c-1.57,1.44-3,3.11-5,4C-18.55.81-22.51-4.82-23.51-12.34a22.26,22.26,0,0,1,1.45-11c.23-.59.41-1.2.62-1.81,1.2-1.61,3-1.33,4.68-1.48,1.08.61.36,1.39.15,2.07A27.93,27.93,0,0,0-18-15.68c.13,6.61,3.1,11.55,8.67,15C-8.56-.22-7.66,0-7.13.74Z" transform="translate(251.67 244.52)"/><path class="cls-5" d="M-16.76-26.68c-1.67.15-3.48-.13-4.68,1.48-7.68-7.86-7.72-17.55-2.14-25.57.57-.82,1.53-1.45,1.45-2.63,1.89.22,3.51-1,5.37-1-.16,1.24-1,2.12-1.6,3.16a28.76,28.76,0,0,0-3.85,11.93,13.71,13.71,0,0,0,4.85,11.89A5.92,5.92,0,0,1-16.76-26.68Z" transform="translate(251.67 244.52)"/><path class="cls-4" d="M4.82,29.46a38.42,38.42,0,0,0,4.29-3.78c.28,1.17.5,2.35.85,3.49C12.41,37.11,17.87,42.1,25.5,45a42.84,42.84,0,0,0,8.12,2c0,.81-.85,1.2-1,1.94l-2-.32a.7.7,0,0,0-.95-.18,31.65,31.65,0,0,1-14.2-4.55A23.07,23.07,0,0,1,5.27,30.26,1.4,1.4,0,0,0,4.82,29.46Z" transform="translate(251.67 244.52)"/><path class="cls-2" d="M82.21,8.86c2.31,0,4.06-.13,5.78.05,1.46.14,2-.48,2.28-1.74A30.06,30.06,0,0,1,92,1.7c.61,2.09,1.19,3.9,1.67,5.75a1.66,1.66,0,0,0,2,1.45c1.81-.13,3.63,0,5.91,0-1.61,1.18-3,2.1-4.43,3-1.69,1.13-1.69,1.15-1,3A29.48,29.48,0,0,1,97.61,20c-1.42-1.1-2.89-2.13-4.24-3.31-1-.86-1.76-1-2.82-.05-1.35,1.21-2.87,2.24-4.76,3.69.83-2.37,1.42-4.24,2.15-6.06a1.38,1.38,0,0,0-.61-2C85.74,11.31,84.19,10.21,82.21,8.86Z" transform="translate(251.67 244.52)"/><path class="cls-5" d="M-14.37,23.85c-.7,2.92-4,5-6.75,4.33-2.08-.53-4.13-1.14-6.19-1.73-.69-.2-1.39-.69-2-.61-2.87.33-4.25-1.77-5.87-3.46-1.19-1.24-.85-2,.88-2.37.9-.19,2,.33,2.69-.58,5.14.05,9.52,2.57,14.14,4.32A3.42,3.42,0,0,0-14.37,23.85Z" transform="translate(251.67 244.52)"/><path class="cls-4" d="M-16.76-54.37c-1.86-.05-3.48,1.19-5.37,1-5.79-7.17-7.82-18.63-1.24-27l.66.06c-2.51,5-2.05,10,0,15a38.08,38.08,0,0,0,5.63,9.41C-16.78-55.46-15.9-55.08-16.76-54.37Z" transform="translate(251.67 244.52)"/><path class="cls-2" d="M82.42-62c-.18.28-.27.54-.45.66-2.59,1.61-2.89,3.9-2,6.57,0,.13,0,.3-.06.47-.14,0-.32.09-.4,0-2.62-1.94-5.21-1.94-7.7.29a3.5,3.5,0,0,1,.12-2.52,3.29,3.29,0,0,0-1.21-3.78A4.42,4.42,0,0,1,69.2-62a5.24,5.24,0,0,1,2.64-.6,2.42,2.42,0,0,0,2.52-1.74,28.82,28.82,0,0,1,1.31-2.6,4.75,4.75,0,0,1,1.41,2.31,2.72,2.72,0,0,0,2.82,2A5.58,5.58,0,0,1,82.42-62Z" transform="translate(251.67 244.52)"/><path class="cls-5" d="M32.61,48.9c.16-.74,1-1.13,1-1.94A2.45,2.45,0,0,1,36,48.3a34.19,34.19,0,0,0,4,4.78,22.36,22.36,0,0,0,8.5,5.71,6.78,6.78,0,0,1-5.69,1C38.57,58.77,33.39,53.19,32.61,48.9Z" transform="translate(251.67 244.52)"/><path class="cls-2" d="M16.24-11.1c-1.85-.74-3.39-1.44-5,.24.4-2.08-.11-3.67-2.19-5.21,2.78.51,3.79-.85,4.6-2.8.78,1.9,1.67,3.26,4,2.86C16.74-14.39,14.81-13.29,16.24-11.1Z" transform="translate(251.67 244.52)"/><path class="cls-5" d="M-22.71-80.32l-.66-.06c.28-.43.55-.86.83-1.28.16-.25.31-.5-.07-.69v0c.58.24.64,0,.51-.5l0,0c.61.05.82-.18.52-.76a4,4,0,0,1,2.85-2.06A37.7,37.7,0,0,0-22.71-80.32Z" transform="translate(251.67 244.52)"/><path class="cls-5" d="M29.7,48.4a.7.7,0,0,1,.95.18A.84.84,0,0,1,29.7,48.4Z" transform="translate(251.67 244.52)"/><path class="cls-5" d="M-18.65-85.65a.38.38,0,0,1,.4-.4C-18.24-85.78-18.35-85.62-18.65-85.65Z" transform="translate(251.67 244.52)"/><path class="cls-3" d="M-45.61,56.46c-1.82-2.23-1.94-3.2-.42-5.46a11.72,11.72,0,0,1,7.09-5.26c4.61-1.11,9.3-1.29,14-1.63a1.51,1.51,0,0,1,1.74,1.21A22.16,22.16,0,0,1-22,50.41c.24,2.78-.52,5-3,6.55a15,15,0,0,1-5.35.86,5.19,5.19,0,0,0-1.88.17,16.43,16.43,0,0,1-7,.08C-41.42,57.76-43.39,56.63-45.61,56.46Z" transform="translate(251.67 244.52)"/><path class="cls-3" d="M-73.18-10.33c-.91-1.84-.45-3.27,1.68-4.54a13.13,13.13,0,0,1,8.43-2.06,19.67,19.67,0,0,1,6.14,1.83,1.85,1.85,0,0,1,1.16,2.26c-.7,4.62-2.62,8.48-6.7,11-1.14.35-2.27.72-3.42,1.06a3.24,3.24,0,0,1-3.91-1.5A17.68,17.68,0,0,1-72-7.49C-72.32-8.47-72.34-9.57-73.18-10.33Z" transform="translate(251.67 244.52)"/><path class="cls-3" d="M41.25,90.48a47.86,47.86,0,0,0-7.7,8c-1.39,1.73-1,2-3.15.67-1.79-1.1-3.93-1.2-5.74-2.18-2.13-2.21-2.19-3.18-.28-5.51,1.11-1.35,2.27-2.66,3.36-4a7.68,7.68,0,0,1,2.6-2c4.42-2.26,4.43-2.31,9.25-1.14,1.91.46,3.76,1.17,5.86,1.83C44.2,87.94,42.43,88.93,41.25,90.48Z" transform="translate(251.67 244.52)"/><path class="cls-5" d="M-45.61,56.46c2.22.17,4.19,1.3,6.39,1.61a16.43,16.43,0,0,0,7-.08,5.19,5.19,0,0,1,1.88-.17A15,15,0,0,0-24.94,57a7.49,7.49,0,0,1-5.21,6.49c-2.46.89-5,1.66-7.43,2.57a13.89,13.89,0,0,1-8.21.69,14.91,14.91,0,0,0-1.9-.18c-1.77-.2-2.54-1.24-2.12-3a11.33,11.33,0,0,1,2.78-5C-46.46,58-45.61,57.48-45.61,56.46Z" transform="translate(251.67 244.52)"/><path class="cls-3" d="M-.48,103c-4.19,3.45-9.26,2.61-13.47.62a2,2,0,0,1-1.19-1.91c0-.7.07-1.42.12-2.13a.23.23,0,0,0,.17-.31c.91-.71,2.07-1.21,2.18-2.6.14-.06.33-.09.42-.19,2.19-2.7,4.68-2.65,7.61-1.16,2.6,1.32,5.4,2.25,8.26,3.42C2.52,100.56.55,101.34-.48,103Z" transform="translate(251.67 244.52)"/><path class="cls-3" d="M-46.09-42.92c.6-2.32,2.3-3.54,4.37-4.41a4.37,4.37,0,0,1,5.11,2c.27.6-.08,1.08-.3,1.58a19.43,19.43,0,0,1-6.78,8.48c-1,.25-1.19-.42-1.47-1.12A15.3,15.3,0,0,1-46.09-42.92Z" transform="translate(251.67 244.52)"/><path class="cls-5" d="M-73.18-10.33c.84.76.86,1.86,1.14,2.84A17.68,17.68,0,0,0-69.8-2.24a3.24,3.24,0,0,0,3.91,1.5c1.15-.34,2.28-.71,3.42-1.06-1.3,3.33-4.18,4.58-7.3,5.42-1.36.37-2.3-.53-3-1.58A12.63,12.63,0,0,1-74.4-1.64a10.08,10.08,0,0,0-.86-3,3,3,0,0,1,.44-4.09C-74.27-9.24-74.11-10.16-73.18-10.33Z" transform="translate(251.67 244.52)"/><path class="cls-5" d="M-46.09-42.92a15.3,15.3,0,0,0,.93,6.53c.28.7.51,1.37,1.47,1.12a21,21,0,0,0-4,4.6c-.65.87-1.34,2.18-2.47,2-1.38-.23-1.27-1.86-1.58-2.94A7.76,7.76,0,0,1-50.48-39a6.48,6.48,0,0,1,1.58-1.39A16.94,16.94,0,0,0-46.09-42.92Z" transform="translate(251.67 244.52)"/><path class="cls-5" d="M-12.67,96.67c-.11,1.39-1.27,1.89-2.18,2.6A2.7,2.7,0,0,1-12.67,96.67Z" transform="translate(251.67 244.52)"/><path class="cls-3" d="M-22.09-82.8c.13.48.07.74-.51.5C-22.83-82.88-22.53-82.91-22.09-82.8Z" transform="translate(251.67 244.52)"/><path class="cls-3" d="M-21.6-83.52c.3.58.09.81-.52.76C-22.3-83.25-21.91-83.36-21.6-83.52Z" transform="translate(251.67 244.52)"/><path class="cls-3" d="M86,93.37a17.59,17.59,0,0,1,1-4.73,6.34,6.34,0,0,1,7.08-3.58,4.74,4.74,0,0,1,3,3.43,1.45,1.45,0,0,1-.51,1.25,18.79,18.79,0,0,1-8.56,5.44C86.26,95.69,86,95.39,86,93.37Z" transform="translate(251.67 244.52)"/></svg>