<svg id="Layer_1" data-name="Layer 1" xmlns="http://www.w3.org/2000/svg" viewBox="0 0 298 196.58"><defs><style>.cls-1{fill:#0171c4;}</style></defs><title>Intel</title><path class="cls-1" d="M-92.21-17.15v7.69c0,.58-.46.86-.78,1.23A80.51,80.51,0,0,0-111.6,29c-2.57,12.56-1.8,24.84,3.85,36.55A50.9,50.9,0,0,0-90,85.52c8.68,5.9,18.31,9.59,28.39,12.2a174.15,174.15,0,0,0,32,4.83c8.4.56,16.81.63,25.21.39a290.12,290.12,0,0,0,60.88-8.11,292,292,0,0,0,48.9-16.31,169.6,169.6,0,0,0,17.09-8.73c.36.33.19.73.19,1.06,0,6.79,0,13.58,0,20.37a1.66,1.66,0,0,1-1.07,1.69A228.05,228.05,0,0,1,78.32,110.1a323.15,323.15,0,0,1-49.25,10.44,288.42,288.42,0,0,1-45.59,2.39c-17.92-.5-35.58-2.75-52.68-8.4-12.07-4-23.33-9.51-33.07-17.81A60.91,60.91,0,0,1-123.52,60c-4.06-22.83,2-43,15.94-61.08A115,115,0,0,1-93.32-16.22C-93-16.49-92.71-16.73-92.21-17.15Z" transform="translate(124.77 73.54)"/><path class="cls-1" d="M-59.79-32.52c0-1.88,0-3.61,0-5.34,0-.67.56-.77,1-1A224.57,224.57,0,0,1-26.34-55,260.69,260.69,0,0,1,28.34-70.19,247.72,247.72,0,0,1,58-73.3a214.14,214.14,0,0,1,31.43.8c16.5,1.72,32.5,5.32,47.44,12.79,10.11,5.05,19,11.67,25.75,20.88a53.63,53.63,0,0,1,10.16,26.08c2.41,21-4.59,38.79-19,53.9a67.65,67.65,0,0,1-23.87,16.24c-1.46.59-1.46.58-1.46-1,0-4.37,0-8.75,0-13.12a2.66,2.66,0,0,1,1.44-2.66c10.6-6.7,18.87-15.49,24-27a46.72,46.72,0,0,0-9.74-52.34c-7.69-7.71-17-12.77-27.08-16.45A132,132,0,0,0,86.19-62a189,189,0,0,0-22.68-1.16,257.07,257.07,0,0,0-35.69,2.86A291.13,291.13,0,0,0-21-48.67a267.59,267.59,0,0,0-37.4,15.5C-58.81-33-59.23-32.79-59.79-32.52Z" transform="translate(124.77 73.54)"/><path class="cls-1" d="M74.14,32.5H55.9c-.56,0-1.19-.19-1.12.81.43,5.85,3.27,11,10,12.32,6.23,1.21,12,.07,16.72-4.62.73-.73,1.09-.58,1.72,0q3.93,3.84,7.94,7.6c.55.5.64.77.06,1.34a30.46,30.46,0,0,1-21.93,9c-6,.07-11.69-.85-16.91-3.92-6.51-3.83-10.18-9.7-11.78-16.91-1.9-8.58-1.87-17.16,1.67-25.36C46.9,2.15,55.33-3,66.77-3.53A23.58,23.58,0,0,1,83.6,1.83c5.07,4.24,7.74,9.87,9.16,16.2,1,4.52.86,9.1.9,13.67,0,1-.59.8-1.15.8ZM66.5,22C70,22,73.58,22,77.12,22c1.09,0,1.23-.38,1.11-1.28a19.74,19.74,0,0,0-1.29-5.19A9.6,9.6,0,0,0,70.6,9.64a12.64,12.64,0,0,0-10.42,1.48c-3.52,2.19-4.85,5.63-5.32,9.56-.11,1,0,1.37,1.15,1.35C59.5,22,63,22,66.5,22Z" transform="translate(124.77 73.54)"/><path class="cls-1" d="M-52.29,27.68c0-9.66,0-19.33,0-29,0-.94.19-1.26,1.21-1.26,10.5.06,21,0,31.49.08,9.94,0,16.9,7.08,17,17.25.07,14,0,28.07,0,42.11,0,1-.3,1.16-1.2,1.15q-6.43-.08-12.87,0c-1,0-1.31-.23-1.31-1.29q.06-20.05,0-40.11c0-.58,0-1.17,0-1.75A4.86,4.86,0,0,0-22.63,10c-4.53-.38-9.08-.08-13.61-.16-.53,0-.77.2-.72.74,0,.29,0,.58,0,.88q0,22.61,0,45.23c0,1-.19,1.34-1.27,1.32C-42.5,58-46.79,58-51.08,58c-1,0-1.24-.23-1.23-1.22C-52.28,47.09-52.29,37.39-52.29,27.68Z" transform="translate(124.77 73.54)"/><path class="cls-1" d="M8.79,11.89c0-9.88,0-19.75,0-29.63,0-1,.21-1.34,1.28-1.33,4.33.06,8.66.05,13,0,.88,0,1.11.25,1.11,1.12,0,4.71,0,9.41-.05,14.12,0,1.06.31,1.33,1.34,1.3,3-.06,6.08,0,9.12,0,1,0,1.18.28,1.16,1.2,0,3.33-.07,6.67,0,10,0,1.09-.36,1.3-1.35,1.28-3-.06-6.08,0-9.12,0-.85,0-1.15.19-1.15,1.1,0,9.5,0,19,0,28.5,0,3.93,1.47,5.4,5.4,5.61,1.75.09,3.5.05,5.25,0,.7,0,.93.22.92.93,0,3.67,0,7.33,0,11,0,.45.1,1-.64.93-4.65-.14-9.33.43-13.93-.68A15.82,15.82,0,0,1,9,43.62,29,29,0,0,1,8.78,40Q8.79,26,8.79,11.89Z" transform="translate(124.77 73.54)"/><path class="cls-1" d="M118,14.86c0,13.71,0,27.41,0,41.11,0,1.29-.44,1.47-1.49,1.22s-2.37-.46-3.52-.81c-6.72-2-10.5-7.33-10.51-14.79,0-10.83,0-21.66,0-32.49q0-17.68,0-35.36c0-1.07.21-1.4,1.34-1.38,4.29.07,8.58.08,12.87,0,1.16,0,1.34.36,1.33,1.4Q118-5.7,118,14.86Z" transform="translate(124.77 73.54)"/><path class="cls-1" d="M-65.79,28.06V57.19c0,1.48,0,1.48-1.53,1.28-8.93-1.18-14-6.85-14.05-15.85-.06-14.66,0-29.33,0-44,0-.92.21-1.21,1.17-1.2q6.63.09,13.25,0c1,0,1.22.3,1.22,1.26C-65.8,8.48-65.79,18.27-65.79,28.06Z" transform="translate(124.77 73.54)"/><path class="cls-1" d="M-73.61-25.54c2.25,0,4.5,0,6.75,0,.73,0,1,.14,1,1q-.06,6.38,0,12.74c0,.75-.19,1-1,1-4.54,0-9.08,0-13.62,0-.68,0-1-.17-1-.91q0-6.43,0-12.87c0-.7.19-.94.91-.93C-78.19-25.52-75.9-25.54-73.61-25.54Z" transform="translate(124.77 73.54)"/><path class="cls-1" d="M128.46-21.42a6,6,0,0,1,6.09-6.22,6.14,6.14,0,0,1,6.24,6.11,6.19,6.19,0,0,1-6.13,6.24A6.1,6.1,0,0,1,128.46-21.42Zm6.2,5a5.13,5.13,0,0,0,5-5,5.18,5.18,0,0,0-5.09-5.09,5.1,5.1,0,0,0-5.07,5.08A5,5,0,0,0,134.66-16.46Z" transform="translate(124.77 73.54)"/><path class="cls-1" d="M131.86-21.57c0-1,0-1.91,0-2.87,0-.62.22-.94.86-.95.79,0,1.58-.06,2.36,0,1,.08,1.88.41,2.11,1.45s.36,2.12-.78,2.78c-.43.25-.31.48-.13.79a13.07,13.07,0,0,1,.83,1.39c.17.36.79.81.18,1.14a1.11,1.11,0,0,1-1.55-.35c-.4-.68-.81-1.36-1.2-2-.18-.32-.42-.55-.8-.44s-.21.48-.23.74c0,.46,0,.92,0,1.38s-.26.8-.83.81-.82-.27-.81-.83C131.87-19.57,131.86-20.57,131.86-21.57Zm1.62-1.27c-.21.67.1,1,.88.89s1.37-.07,1.39-1-.75-1-1.46-1.05C133.37-24.12,133.42-23.55,133.48-22.84Z" transform="translate(124.77 73.54)"/></svg>