<svg id="Layer_1" data-name="Layer 1" xmlns="http://www.w3.org/2000/svg" viewBox="0 0 1200 1299"><defs><style>.cls-1{fill:#fbcf3e;}.cls-2{fill:#ed3e84;}.cls-3{fill:#ef5872;}.cls-4{fill:#f3793e;}.cls-5{fill:#010101;}.cls-6{fill:#fefefe;}</style></defs><title>Jetbrains</title><path class="cls-1" d="M313.07,300.27c-16.82,12-33.59,24-50.45,35.9Q163.71,406,64.75,475.71-45.17,553.2-155.16,630.59c-12.12,8.49-24,17.34-36.23,25.61-13.77,9.29-28.77,15.22-45.36,16.94A9.13,9.13,0,0,0-239,674h-19c-7.87-1.9-16-2.74-23.62-5.68C-321.33,653-344.43,624.5-349,582.11c-4.42-40.74,16.86-78.95,53-98.66q125.28-68.38,250.31-137.2Q45.68,296.12,137.07,246c1.6-.88,3.14-1.86,4.71-2.79l126.16,0a14.58,14.58,0,0,0,1.06,2.77c7.77,12.17,16.84,23.35,25.87,34.59C300.51,287.55,307.61,293.14,313.07,300.27Z" transform="translate(575 625)"/><path class="cls-2" d="M-208.52-24.92c-9.16-2.51-17.65-6.76-26.38-10.36-90.42-37.23-181-74-271.09-112.1-40.74-17.2-63.26-49.32-68-93.52-.09-.81-.05-1.67-1-2.1v-14c.87-.46.89-1.31,1-2.13,3.23-36.07,20-64.2,49.86-84.51q74.28-50.58,148.72-100.93,37.6-25.49,75.31-50.83a5.71,5.71,0,0,0,1.69,3.5c6.36,7.63,12.6,15.37,19,22.95,15.42,18.2,31,36.28,46.39,54.48,15.94,18.83,31.92,37.64,47.56,56.72,3.4,4.15,8.27,7.38,9.58,13.09a32.13,32.13,0,0,0-2.82,1.88c-9.31,8-18.51,16.11-27.92,24q-37.74,31.6-75.67,63c-3.05,2.51-3.2,3.78,0,6.14,6.31,4.62,12.33,9.64,18.5,14.46q27.72,21.72,55.46,43.42c.05.66.14,1.32.14,2q0,80.48,0,160.94C-208.23-27.56-208.42-26.24-208.52-24.92Z" transform="translate(575 625)"/><path class="cls-3" d="M-175.9-344.66c-1.31-5.71-6.18-8.94-9.58-13.09-15.64-19.08-31.62-37.89-47.56-56.72-15.41-18.2-31-36.28-46.39-54.48-6.42-7.58-12.66-15.32-19-22.95a5.71,5.71,0,0,1-1.69-3.5c.78-.61,1.52-1.27,2.33-1.82q82.47-56.1,164.93-112.2A90,90,0,0,1-107.4-621.6c4.73-1.38,9.6-2.28,14.4-3.4h21c6.31,1.92,12.89,2.68,19.13,5a91.07,91.07,0,0,1,33,21Q48.51-531.4,116.82-463.68q65.09,64.44,130.23,128.81Q303-279.58,359-224.33c1.05,1,2,2.22,3,3.34-1.52,0-2.22,1-3.07,2.17-5.64,7.56-11.41,15-17.09,22.56-8.28,11-17.48,21.22-26.69,31.39-4.25,4.7-8,10.26-14.22,12.84-.09-1.82-.25-3.64-.25-5.46,0-34.28-.09-68.56.09-102.84,0-4.34-1-5.55-5.46-5.54q-90.6.24-181.21.1c-1.65,0-3.3-.14-5-.22-.71-.68-1.38-1.42-2.15-2.05q-41.56-33.87-83.15-67.73-50.83-41.58-101.51-83.35c-3-2.48-4.91-3.1-8.28-.21-16.57,14.18-33.4,28.06-50.19,42Q-156-360.94-175.9-344.66Z" transform="translate(575 625)"/><path class="cls-4" d="M300.84-152c6.25-2.58,10-8.14,14.22-12.84,9.21-10.17,18.41-20.4,26.69-31.39,5.68-7.53,11.45-15,17.09-22.56.85-1.13,1.55-2.14,3.07-2.17q25.29,24.86,50.56,49.71,98.68,97.4,197.33,194.8c8.1,8,13.12,17.46,14.33,28.86,0,.57.57,1.08.87,1.62v9c-1.81,1.19-1.35,3.29-1.74,4.93a45.76,45.76,0,0,1-19,27.77c-68.2,47.06-135.53,95.36-203.37,142.94q-43.11,30.23-86.1,60.66a18.25,18.25,0,0,1-1.73,1c-5.46-7.13-12.56-12.72-18.2-19.74-9-11.24-18.1-22.42-25.87-34.59a14.58,14.58,0,0,1-1.06-2.77c9.31-.06,18.63-.35,27.93-.1,3.89.11,4.63-1.17,4.6-4.77-.15-24.11-.1-48.23,0-72.34,0-3.3-.5-6.63.35-9.9,1.05-.49,2.13-.93,3.15-1.48q80.51-44.13,161-88.29c10-5.49,20-11,30.31-16.68-1.38-1.23-2.33-2.14-3.35-3Q454,15.67,416.14-15.3L300.87-109.39C300.37-123.6,300.43-137.81,300.84-152Z" transform="translate(575 625)"/><path class="cls-5" d="M300.84-152c-.41,14.22-.47,28.43,0,42.64-.12,1.65-.35,3.29-.35,4.94q0,127.77,0,255.55c0,1.65.17,3.31.26,5-.85,3.27-.35,6.6-.35,9.9-.06,24.11-.11,48.23,0,72.34,0,3.6-.71,4.88-4.6,4.77-9.3-.25-18.62,0-27.93.1l-126.16,0c-2-.06-4-.19-6-.19q-169.2,0-338.41.1c-4.55,0-5.61-1.13-5.61-5.63q.22-128,.09-255.93c0-2.15-.25-4.3-.38-6.46.1-1.32.29-2.64.29-4q0-80.48,0-160.94c0-.66-.09-1.32-.14-2,.07-22.5.29-45,.09-67.48,0-5,.9-6.6,6.34-6.59q152.24.28,304.48.13c2.16,0,4.32-.16,6.48-.25,1.65.08,3.3.22,5,.22q90.6,0,181.21-.1c4.48,0,5.49,1.2,5.46,5.54-.18,34.28-.1,68.56-.09,102.84C300.59-155.67,300.75-153.85,300.84-152ZM-30.07-45.54c8.35-4.76,11.46-7.73,14.21-13.4,8.44-17.48-1.33-36.67-21.18-40-15.65-2.59-31.59-.49-47.39-1-2.63-.08-2.41,1.59-2.4,3.3q0,38.25,0,76.49c0,2.26.46,3.3,3,3.23,5.66-.17,11.33-.16,17,0,2.39.06,3.14-.65,3.08-3.07-.16-6.16-.09-12.33,0-18.49,0-1.18-.73-2.67,1-3.48,2.92-1.37,9.6.41,11.41,3.14C-47.18-32.4-42.93-26-38.76-19.62c1.16,1.79,2.38,2.79,4.76,2.76,11.17-.15,22.33-.11,33.5,0,2,0,3.73-.22,4.05-2.51,1.67-12,9.42-14.26,19.78-12.5a10.48,10.48,0,0,0,3.49,0c10-1.8,16.92,1,18.54,12.13.28,1.93,1.41,3,3.79,2.92,7.14-.21,14.28-.08,21.8-.08-.61-1.58-1.06-2.79-1.56-4C60.5-42,51.66-63.18,42.65-84.25,40.38-89.57,39.7-97,35.22-99.54s-11.36-.5-17.16-.87c-3.39-.21-4.89,1-6.18,4.11C3-74.81-6.06-53.4-15.13-32c-.64,1.52-.87,3.38-2.57,4.52ZM-69,179.33c30.14,0,60.27-.1,90.41.11,4.3,0,5.26-1.23,5.08-5.27-.34-7.48-.28-15,0-22.47.12-3.37-1-4.09-4.2-4.08q-91.17.12-182.33,0c-3.67,0-4.36,1.16-4.25,4.5.24,7.48.32,15,0,22.47-.19,4,1,4.88,4.91,4.86C-129.27,179.26-99.13,179.33-69,179.33ZM158-56.06c-8.56-11-16.29-20.87-24-30.78-10.79-13.86-10.78-13.79-28.24-13.11-2.72.11-3.3,1-3.3,3.49q.11,38.21,0,76.43c0,2.34.59,3.44,3.06,3.13,1-.13,2,0,3,0,5.43-.3,12.69,2.31,15.78-1,2.68-2.89.8-10.08.83-15.38,0-9.23,0-18.46,0-28.76,1.37,1.53,2,2.19,2.61,2.92,7.79,10,16.44,19.38,23.12,30,6.51,10.4,14.72,14.19,26.31,12.2a3.65,3.65,0,0,1,1,0c2.33.32,2.72-.9,2.71-2.93q-.07-38.47,0-76.93c0-2.38-.7-3.21-3.11-3.14-5.32.15-10.67.25-16,0-3.15-.16-3.9.86-3.86,3.9C158.14-83.23,158-70.41,158-56.06Zm-263.82-4.4C-97.11-65-93.24-71.74-94-81c-.73-9-6.53-13.77-14.27-16.81A27.1,27.1,0,0,0-118-99.87c-14.31,0-28.62.05-42.93-.06-2.6,0-3.4.73-3.39,3.35q.12,38.19,0,76.38c0,2.61.69,3.36,3.32,3.33,14.48-.15,29,0,43.43-.22a34.12,34.12,0,0,0,17.11-4.68,19.48,19.48,0,0,0,9.59-12.75C-88.14-46.2-92.88-54.57-105.78-60.46ZM-101-160.88c0,12.48.13,25-.09,37.46-.06,3.44.78,4.46,4.34,4.41,15.81-.21,31.63-.06,47.45-.1,5,0,11.83,1.73,14.41-.8,3.25-3.2.64-10.05,1.09-15.29.24-2.83-.73-3.7-3.6-3.66-10.48.16-21,.07-31.46.07-9.72,0-9.58,0-9.44-9.71,0-3,1.15-3.52,3.79-3.47,7.32.15,14.65.08,22,0,4.49,0,10.68,1.6,13-.69,3-2.92.54-9.13,1-13.89.29-2.92-.87-3.59-3.64-3.54-9,.16-18,.06-27,.06-9.58,0-9.47,0-9.16-9.43.08-2.62.86-3.4,3.45-3.36,8.49.14,17,.19,25.47,0,4.91-.11,11.63,2.24,14.23-1.06,2.46-3.12.54-9.56.91-14.5.25-3.32-1.14-3.77-4-3.76-19.64.12-39.29.17-58.94,0-3.62,0-3.91,1.37-3.88,4.3C-101-185.53-101-173.2-101-160.88Zm321,145.36c7.72,0,15.28-.91,22.12-4.87,8.73-5.07,12.7-12.92,12.56-22.82-.13-9.73-5.3-16.16-14-20A61.66,61.66,0,0,0,233.17-66c-5.89-1.72-11.85-3.18-17.75-4.89-3.31-1-6.69-2.38-5.84-6.69.81-4.12,4.44-4.47,7.88-4.48a37.41,37.41,0,0,1,20.69,6.28c2.1,1.36,3.22,1.43,4.63-.74,2.54-3.9,5.3-7.65,8-11.43.93-1.32,1.49-2.14-.21-3.62-11.87-10.36-38.39-12.94-52-4.82-8.84,5.27-12.83,13.25-12.39,23.39.43,9.79,6.07,15.87,14.77,19.41,3.52,1.43,7.19,2.53,10.84,3.61,4.93,1.47,9.95,2.63,14.84,4.22,2.77.9,5.24,2.55,4.7,6.11s-3.18,4.41-6.16,4.75c-6.77.78-13.13-.77-19.49-3-4.1-1.45-7.41-6.9-11.41-5.12-3.68,1.65-5.93,6.52-8.81,10a9.58,9.58,0,0,1-1,1.12C182.3-30,182.66-28.72,185-27A58.55,58.55,0,0,0,219.92-15.52ZM7.19-202c-11,0-22,.08-33-.05-2.55,0-3.49.58-3.36,3.28a118.86,118.86,0,0,1,0,13.48c-.18,3.07,1.12,3.5,3.73,3.42,5.32-.18,10.67.22,16-.14,4.06-.28,5.34.76,5.27,5.07-.28,17.48,0,35-.21,52.44,0,4.1.54,6.1,5.29,5.55a63.78,63.78,0,0,1,13,0c4,.35,4.95-1.1,4.91-5-.21-18,0-35.95-.17-53.93,0-3.24.78-4.29,4.1-4.13,5.81.28,11.65-.05,17.47.13,2.64.09,3.47-.76,3.36-3.37a122.17,122.17,0,0,1,0-13c.21-3.15-.86-3.9-3.91-3.85C28.84-201.92,18-202,7.19-202Zm-113.54,29.73c0-8.66-.15-17.31.08-26,.09-3.18-1-4-4-3.83-5.15.24-10.32.23-15.47,0-2.88-.13-3.57.83-3.55,3.61.13,16.14,0,32.29.14,48.43,0,4.5-.78,8.31-4.83,10.7-4.47,2.63-8.56.88-12.69-1.28-2.19-1.14-3.22-4.81-5.6-4.08s-4,3.38-5.93,5.18l-1.45,1.38c-7.8,7.37-7.74,8.08,1.37,14.4a18.59,18.59,0,0,0,2.09,1.35c11.86,6.16,24,6.86,35.76.36,11.2-6.16,14.33-16.72,14.07-28.79C-106.47-158-106.34-165.16-106.35-172.31ZM96.9-58.19c0-12.5-.09-25,.07-37.49,0-3.11-.56-4.48-4-4.27a122.9,122.9,0,0,1-15,0c-3.36-.2-4.11,1-4.09,4.17q.2,37.48,0,75c0,2.91.45,4.15,3.74,3.95a145.33,145.33,0,0,1,15.48,0c3,.15,4-.67,3.91-3.83C96.78-33.2,96.9-45.7,96.9-58.19Z" transform="translate(575 625)"/><path class="cls-6" d="M-30.07-45.54-17.7-27.48c1.7-1.14,1.93-3,2.57-4.52C-6.06-53.4,3-74.81,11.88-96.3c1.29-3.14,2.79-4.32,6.18-4.11,5.8.37,12.7-1.64,17.16.87s5.16,10,7.43,15.29C51.66-63.18,60.5-42,69.39-20.91c.5,1.19,1,2.4,1.56,4-7.52,0-14.66-.13-21.8.08-2.38.07-3.51-1-3.79-2.92C43.74-30.86,36.85-33.7,26.82-31.9a10.48,10.48,0,0,1-3.49,0C13-33.66,5.22-31.42,3.55-19.4c-.32,2.29-2,2.53-4,2.51C-11.67-17-22.83-17-34-16.86c-2.38,0-3.6-1-4.76-2.76C-42.93-26-47.18-32.4-51.42-38.77c-1.81-2.73-8.49-4.51-11.41-3.14-1.71.81-1,2.3-1,3.48-.08,6.16-.15,12.33,0,18.49.06,2.42-.69,3.13-3.08,3.07-5.67-.16-11.34-.17-17,0-2.53.07-3-1-3-3.23q.09-38.25,0-76.49c0-1.71-.23-3.38,2.4-3.3,15.8.5,31.74-1.6,47.39,1,19.85,3.29,29.62,22.48,21.18,40C-18.61-53.27-21.72-50.3-30.07-45.54ZM-52.79-80.08V-80a67.29,67.29,0,0,1-7,0c-3.15-.32-4.5.59-4.16,4,.53,5.22-2.16,12.24,1.08,15.21,2.85,2.59,9.75.74,14.87.85a20.52,20.52,0,0,0,2.48,0,10.48,10.48,0,0,0,9.33-10,10.31,10.31,0,0,0-9.68-10.1C-48.14-80.18-50.47-80.08-52.79-80.08ZM15.32-49.75c5.64,0,10.58,0,15.52,0,2,0,2.82-.51,2-2.56-2.69-6.71-5.36-13.42-8.3-20.78C21.36-65,18.45-57.68,15.32-49.75Z" transform="translate(575 625)"/><path class="cls-6" d="M-69,179.33c-30.14,0-60.28-.07-90.42.09-3.86,0-5.1-.88-4.91-4.86.34-7.48.26-15,0-22.47-.11-3.34.58-4.51,4.25-4.5q91.17.19,182.33,0c3.17,0,4.32.71,4.2,4.08-.26,7.48-.32,15,0,22.47.18,4-.78,5.3-5.08,5.27C-8.72,179.23-38.85,179.33-69,179.33Z" transform="translate(575 625)"/><path class="cls-6" d="M158-56.06c0-14.35.1-27.17-.07-40,0-3,.71-4.06,3.86-3.9,5.31.28,10.66.18,16,0,2.41-.07,3.12.76,3.11,3.14q-.1,38.46,0,76.93c0,2-.38,3.25-2.71,2.93a3.65,3.65,0,0,0-1,0c-11.59,2-19.8-1.8-26.31-12.2-6.68-10.66-15.33-20.08-23.12-30-.58-.73-1.24-1.39-2.61-2.92,0,10.3,0,19.53,0,28.76,0,5.3,1.85,12.49-.83,15.38-3.09,3.32-10.35.71-15.78,1-1,.05-2-.1-3,0-2.47.31-3.07-.79-3.06-3.13q.11-38.22,0-76.43c0-2.48.58-3.38,3.3-3.49,17.46-.68,17.45-.75,28.24,13.11C141.75-76.93,149.48-67,158-56.06Z" transform="translate(575 625)"/><path class="cls-6" d="M-105.78-60.46c12.9,5.89,17.64,14.26,14.93,25.94a19.48,19.48,0,0,1-9.59,12.75,34.12,34.12,0,0,1-17.11,4.68c-14.47.22-28.95.07-43.43.22-2.63,0-3.33-.72-3.32-3.33q.15-38.19,0-76.38c0-2.62.79-3.37,3.39-3.35,14.31.11,28.62,0,42.93.06a27.1,27.1,0,0,1,9.71,2.05C-100.52-94.78-94.72-90-94-81-93.24-71.74-97.11-65-105.78-60.46Zm-25.38,25.3c3.49-.19,7-.24,10.45-.61,4.23-.45,7.43-2.49,7.51-7.13s-3.06-6.62-7.29-7.34c-5.63-.95-11.32-.1-16.94-.59-3.83-.33-4.71,1-4.64,4.68C-141.86-35.33-142-35.33-131.16-35.16ZM-131.79-81v-.25c-2.48,0-5,.13-7.45,0-2.21-.14-3.2.77-2.69,2.84.94,3.83-2.68,9.81,1.93,11.22,5.26,1.61,11.49.48,17.24-.08,3.76-.38,6.37-2.83,6.19-7.08s-3-6.13-6.78-6.55A76.59,76.59,0,0,0-131.79-81Z" transform="translate(575 625)"/><path class="cls-6" d="M-101-160.88c0-12.32.07-24.65-.06-37,0-2.93.26-4.33,3.88-4.3,19.65.21,39.3.16,58.94,0,2.88,0,4.27.44,4,3.76-.37,4.94,1.55,11.38-.91,14.5-2.6,3.3-9.32,1-14.23,1.06-8.48.19-17,.14-25.47,0-2.59,0-3.37.74-3.45,3.36-.31,9.43-.42,9.43,9.16,9.43,9,0,18,.1,27-.06,2.77,0,3.93.62,3.64,3.54-.46,4.76,2,11-1,13.89-2.35,2.29-8.54.67-13,.69-7.32,0-14.65.11-22,0-2.64-.05-3.74.46-3.79,3.47-.14,9.71-.28,9.71,9.44,9.71,10.49,0,21,.09,31.46-.07,2.87,0,3.84.83,3.6,3.66-.45,5.24,2.16,12.09-1.09,15.29-2.58,2.53-9.45.78-14.41.8-15.82,0-31.64-.11-47.45.1-3.56.05-4.4-1-4.34-4.41C-100.91-135.91-101-148.4-101-160.88Z" transform="translate(575 625)"/><path class="cls-6" d="M219.92-15.52A58.55,58.55,0,0,1,185-27c-2.35-1.7-2.71-3-.52-4.92a9.58,9.58,0,0,0,1-1.12c2.88-3.45,5.13-8.32,8.81-10,4-1.78,7.31,3.67,11.41,5.12,6.36,2.25,12.72,3.8,19.49,3,3-.34,5.64-1.31,6.16-4.75s-1.93-5.21-4.7-6.11c-4.89-1.59-9.91-2.75-14.84-4.22-3.65-1.08-7.32-2.18-10.84-3.61-8.7-3.54-14.34-9.62-14.77-19.41-.44-10.14,3.55-18.12,12.39-23.39,13.62-8.12,40.14-5.54,52,4.82,1.7,1.48,1.14,2.3.21,3.62-2.72,3.78-5.48,7.53-8,11.43-1.41,2.17-2.53,2.1-4.63.74A37.41,37.41,0,0,0,217.46-82c-3.44,0-7.07.36-7.88,4.48-.85,4.31,2.53,5.74,5.84,6.69,5.9,1.71,11.86,3.17,17.75,4.89a61.66,61.66,0,0,1,7.43,2.82c8.7,3.8,13.87,10.23,14,20,.14,9.9-3.83,17.75-12.56,22.82C235.2-16.43,227.64-15.52,219.92-15.52Z" transform="translate(575 625)"/><path class="cls-6" d="M7.19-202c10.82,0,21.65.12,32.46-.07,3.05,0,4.12.7,3.91,3.85a122.17,122.17,0,0,0,0,13c.11,2.61-.72,3.46-3.36,3.37-5.82-.18-11.66.15-17.47-.13-3.32-.16-4.13.89-4.1,4.13.16,18,0,36,.17,53.93,0,3.87-.86,5.32-4.91,5a63.78,63.78,0,0,0-13,0c-4.75.55-5.34-1.45-5.29-5.55.22-17.48-.07-35,.21-52.44.07-4.31-1.21-5.35-5.27-5.07-5.31.36-10.66,0-16,.14-2.61.08-3.91-.35-3.73-3.42a118.86,118.86,0,0,0,0-13.48c-.13-2.7.81-3.31,3.36-3.28C-14.78-202-3.79-202,7.19-202Z" transform="translate(575 625)"/><path class="cls-6" d="M-106.34-172.31c0,7.15-.13,14.31,0,21.47.26,12.07-2.87,22.63-14.07,28.79-11.8,6.5-23.9,5.8-35.76-.36a18.59,18.59,0,0,1-2.09-1.35c-9.11-6.32-9.17-7-1.37-14.4l1.45-1.38c2-1.8,3.64-4.47,5.93-5.18s3.41,2.94,5.6,4.08c4.13,2.16,8.22,3.91,12.69,1.28,4.05-2.39,4.88-6.2,4.83-10.7-.18-16.14,0-32.29-.14-48.43,0-2.78.67-3.74,3.55-3.61,5.15.23,10.32.24,15.47,0,3-.14,4,.65,4,3.83C-106.5-189.62-106.35-181-106.34-172.31Z" transform="translate(575 625)"/><path class="cls-6" d="M96.9-58.19c0,12.49-.12,25,.08,37.48,0,3.16-.88,4-3.91,3.83a145.33,145.33,0,0,0-15.48,0c-3.29.2-3.75-1-3.74-3.95q.16-37.48,0-75c0-3.22.73-4.37,4.09-4.17a122.9,122.9,0,0,0,15,0c3.48-.21,4.08,1.16,4,4.27C96.81-83.19,96.9-70.69,96.9-58.19Z" transform="translate(575 625)"/><path class="cls-5" d="M-52.79-80.08c2.32,0,4.65-.1,7,0A10.31,10.31,0,0,1-36.15-70a10.48,10.48,0,0,1-9.33,10A20.52,20.52,0,0,1-48-60c-5.12-.11-12,1.74-14.87-.85-3.24-3-.55-10-1.08-15.21-.34-3.42,1-4.33,4.16-4a67.29,67.29,0,0,0,7,0Z" transform="translate(575 625)"/><path class="cls-5" d="M15.32-49.75c3.13-7.93,6-15.27,9.22-23.32,2.94,7.36,5.61,14.07,8.3,20.78.82,2,0,2.59-2,2.56C25.9-49.8,21-49.75,15.32-49.75Z" transform="translate(575 625)"/><path class="cls-5" d="M-131.16-35.16c-10.88-.17-10.7-.17-10.91-11-.07-3.71.81-5,4.64-4.68,5.62.49,11.31-.36,16.94.59,4.23.72,7.37,2.67,7.29,7.34s-3.28,6.68-7.51,7.13C-124.17-35.4-127.67-35.35-131.16-35.16Z" transform="translate(575 625)"/><path class="cls-5" d="M-131.79-81a76.59,76.59,0,0,1,8.44.06c3.78.42,6.61,2.28,6.78,6.55s-2.43,6.7-6.19,7.08c-5.75.56-12,1.69-17.24.08-4.61-1.41-1-7.39-1.93-11.22-.51-2.07.48-3,2.69-2.84,2.48.17,5,0,7.45,0Z" transform="translate(575 625)"/></svg>