<svg id="Layer_1" data-name="Layer 1" xmlns="http://www.w3.org/2000/svg" viewBox="0 0 1275.71 249.3"><defs><style>.cls-1{fill:#bf1919;}.cls-2{fill:#c01a1a;}.cls-3{fill:#76180f;}.cls-4{fill:#c01919;}</style></defs><title>McAfee</title><path class="cls-1" d="M-309.9-100.35c13.52,10.16,26.52,19.93,39.51,29.71,14.36,10.82,28.79,21.56,43,32.54,2.8,2.16,4.48,2,7.19-.11q38.52-29.37,77.26-58.47c1.43-1.07,2.89-2.11,4.93-3.59.12,2.13.29,3.69.29,5.24q0,94.71.1,189.42c0,4.14-.64,5.79-5.34,5.62-11-.41-22-.42-33,0-4.87.18-5.63-1.57-5.61-5.89.16-34.15.09-68.3.09-102.45v-5.43c-2.34-.17-3.35,1.34-4.58,2.26-11.51,8.52-23,17-34.38,25.75-2.59,2-4.24,2-6.82.05-11.39-8.67-22.94-17.13-34.44-25.65-1.31-1-2.66-1.89-4-2.87-1.45,1.88-.81,3.77-.81,5.51,0,34.49-.1,69,.06,103.45,0,4.14-1.06,5.37-5.24,5.23-11.49-.38-23-.36-34.48-.34-2.74,0-4.2-.33-4.19-3.71q.15-97.2.11-194.4A15.26,15.26,0,0,1-309.9-100.35Z" transform="translate(612.09 100.88)"/><path class="cls-2" d="M188,99.88c-6,0-12-.2-18,.08-3.32.15-5-.79-6.19-4.07-3.33-9-7.23-17.87-10.68-26.86-.93-2.4-2.08-3.28-4.68-3.27q-31,.17-62,0c-2.8,0-4.11.87-5.1,3.45-3.51,9.16-7.35,18.18-10.86,27.33-1,2.59-2.34,3.46-5.13,3.42-12.16-.17-24.32-.07-36.48-.07-5.77,0-5.78,0-3.53-5.12,22.63-51.4,45-102.93,68.15-154.08,4.44-9.79,5.8-18.08.13-27.32-1.71-2.8-2.42-6.19-3.93-9.14-1.73-3.39-.36-3.88,2.74-3.85,10.83.11,21.66.19,32.48,0,3.37-.07,4.88,1,6.18,4.16Q166.42-9.77,201.92,75.88c2.6,6.3,5.06,12.66,7.87,18.86,1.7,3.77,1.78,5.56-3.28,5.23C200.38,99.58,194.19,99.88,188,99.88Zm-51.81-74L117.78-20.88c-6.58,16.18-12.72,31.29-19,46.72Z" transform="translate(612.09 100.88)"/><path class="cls-3" d="M-503.18-50.77q37.94-17.65,75.87-35.31,15.76-7.32,31.61-14.62c1.1,1.88.62,3.54.62,5.11q0,94.67.05,189.34c0,2.91-.07,5-3.49,6.59-34.15,15.57-68.17,31.4-102.24,47.13a12.45,12.45,0,0,1-2.37.59c0-.41-.09-.83-.13-1.24V101.19l.27-1.66c19.58-9,39.13-18.19,58.8-27.06,3.34-1.5,4.69-3.13,4.67-6.93-.17-30.63-.09-61.26-.12-91.89,0-1.42.45-2.95-.67-4.53-1.92.85-3.88,1.69-5.81,2.57q-28.51,13-57,26l-.11-1.85Q-503.21-27.47-503.18-50.77Z" transform="translate(612.09 100.88)"/><path class="cls-1" d="M-503.26-4.18c0,.61.07,1.23.11,1.85-1.85.61-3.14-.74-4.59-1.41q-27.84-12.84-55.65-25.77c-2.43-1.13-4.34-2.51-4.31,2.17q.24,47,0,94c0,2.84,1.07,4.13,3.46,5.22,14.36,6.54,28.63,13.31,43,19.78,6,2.71,11.7,6.27,18.21,7.9l-.27,1.66c-1.26,1.41-.71,3.15-.72,4.74q-.06,18.06,0,36.14c0,1.59-.54,3.32.72,4.75,0,.41.09.83.13,1.24-1.61,1-2.73-.32-4-.89q-50.67-23.44-101.33-46.88c-2.24-1-3.67-1.93-3.67-4.94q.18-96.94.1-193.89c0-.61.12-1.23.24-2.34,6.6,3,12.9,5.94,19.19,8.87L-504-50.79c0,13.77,0,27.55,0,41.33C-504-7.7-504.59-5.79-503.26-4.18Z" transform="translate(612.09 100.88)"/><path class="cls-4" d="M407.08,39.08c-16.65,0-33.31.17-50-.11-5-.08-4.63,1.65-3.07,5.1,9.38,20.78,37.74,27.68,57,12.87,6-4.59,9.76-4.16,15.32-.67,6.89,4.32,14.18,8,21.39,11.79,2.27,1.19,2.46,2,.67,3.9-22,22.85-48.35,32.77-79.64,25.63-29.29-6.67-48.25-25.17-56.06-54.24-11.57-43,17.69-85.72,61.75-92.66C414.85-55.67,461.14-27.08,462,26c.06,4.25,1.93,9.92-.88,12.37-2.39,2.09-7.91.68-12.05.69C435.06,39.1,421.07,39.08,407.08,39.08Zm9.65-32.39a27.71,27.71,0,0,0-5.48-9.5c-15-18.49-46.06-15.44-56.25,5.53-.72,1.47-3,3.93,1.17,4C376.24,6.72,396.3,6.69,416.73,6.69Z" transform="translate(612.09 100.88)"/><path class="cls-4" d="M572.3,39.42c-16.83,0-33.66.09-50.49-.07-4,0-4.48,1-3,4.54,7.85,18.25,31.24,26.49,50.49,17.54,2.55-1.18,5.45-2.34,7.2-4.36,4.77-5.51,9.06-4.12,14.37-.74,6.85,4.37,14.22,7.94,21.4,11.79,2,1.08,3.21,1.7,1.06,4.21-29.07,33.91-83.31,37.59-114.93,6.83-22.25-21.65-28.93-48.44-19.09-77.92s31.36-45.37,61.87-50.41C578.77-55.38,626.35-28,627,27c.15,12.39.16,12.39-12.24,12.39Zm9.42-32.73A28.63,28.63,0,0,0,576-3.12c-15.09-18.19-45.68-15.07-56,5.71-.85,1.73-3,4.12,1.49,4.11C541.47,6.68,561.4,6.69,581.72,6.69Z" transform="translate(612.09 100.88)"/><path class="cls-2" d="M-42.41,100.31c-40-.2-70.23-25.1-76.85-63.29-7-40.47,21.36-79.84,61.93-86,33.62-5.08,60.63,5.3,80,33.9,1.84,2.71,1.76,3.89-1.17,5.54Q8.26-2.05-4.67,6c-2.88,1.79-4.17,1.64-6-1.4-14.26-23.47-38.13-21-51.93-12.34-18.27,11.41-23,37.52-10.25,55.42,12.2,17.07,37.3,20.91,53.1,8.13A41.73,41.73,0,0,0-10.2,44.35c1.29-2.19,2.29-2.66,4.6-1.25,9.22,5.63,18.52,11.16,27.91,16.51,2.47,1.41,2.14,2.43.86,4.48C8.65,87.24-15.18,100.45-42.41,100.31Z" transform="translate(612.09 100.88)"/><path class="cls-1" d="M271.09,55.73c0,13.5-.09,27,.07,40.49,0,3-.66,4-3.84,3.94-10.82-.21-21.66-.25-32.49,0-3.56.08-4-1.3-4-4.31.1-26.66-.05-53.33.17-80,0-4.24-1.12-5.39-5.24-5.17s-9.45,1.9-12-.71S213.1,2.08,213-2c-.13-7.17.05-14.34-.09-21.5-.05-2.53.58-3.82,3.31-3.39a6.84,6.84,0,0,0,1.5,0c4.26-.3,10.08,1.9,12.37-.92,2.15-2.64.84-8.24.78-12.53-.26-19.2,5.36-35.9,21.1-47.87,13.67-10.4,29.62-12,46.12-10.37a74.66,74.66,0,0,1,17,3.92c2.29.78,3.21,1.44,2,4.1C312.2-80.39,307.58-70.07,303-59.74c-1,2.21-1.93,3.13-4.4,1.82a26.24,26.24,0,0,0-9.09-2.52c-10.42-1.35-17.65,4.33-18.3,14.8-.33,5.14,0,10.33-.15,15.49-.08,2.48.92,3.11,3.22,3.07,6.5-.12,13,.09,19.5-.1,2.85-.09,3.67.85,3.63,3.66q-.22,15,0,30c.05,3-.66,4.16-3.86,4-5.83-.25-11.68.14-17.5-.15-3.8-.19-5.14.78-5.06,4.89C271.26,28.72,271.09,42.23,271.09,55.73Z" transform="translate(612.09 100.88)"/><path class="cls-2" d="M659.08-49.41c-1.36,3.67-2.71,7.35-4.08,11-.46,1.21-.62,2.72-2.36,2.81-2,.1-2.23-1.59-2.74-3A56.12,56.12,0,0,0,645-49.34c0,3.74,0,7.48,0,11.21,0,1.11.29,2.47-1.5,2.56s-2.15-1-2.14-2.57c0-5.16,0-10.32,0-15.48,0-1.4-.46-3.18,1.94-3.26,1.87-.06,3.54-.17,4.32,2.2,1.41,4.32,3.09,8.56,5.11,14.08,1.84-5.25,3.38-9.23,4.61-13.3.7-2.3,1.87-3.26,4.27-3,2.75.3,1.84,2.37,1.87,3.8.11,4.83.06,9.65,0,14.48,0,1.27.37,2.87-1.64,3-2.53.19-1.88-1.77-1.91-3.11-.06-3.5,0-7,0-10.48Z" transform="translate(612.09 100.88)"/><path class="cls-2" d="M628.64-44.61a41.82,41.82,0,0,1,0-4.48c.3-3-.45-4.83-4-4.4-1.32.16-2.78.12-2.63-1.93.13-1.8,1.53-1.42,2.6-1.43,4,0,8,0,11.94,0,1.16,0,2.39-.12,2.39,1.65s-1.21,1.91-2.36,1.71c-4.51-.79-4.75,1.85-4.56,5.22s.06,6.64,0,10c0,1.28.3,2.83-1.84,2.69-1.69-.11-1.63-1.32-1.62-2.51Z" transform="translate(612.09 100.88)"/><path class="cls-2" d="M-503.26-4.18c-1.33-1.61-.7-3.52-.71-5.28-.06-13.78,0-27.56,0-41.33a1,1,0,0,1,.83,0Z" transform="translate(612.09 100.88)"/><path class="cls-2" d="M-503.26,146.82c-1.26-1.43-.71-3.16-.72-4.75q-.06-18.07,0-36.14c0-1.59-.54-3.33.72-4.74Z" transform="translate(612.09 100.88)"/></svg>