<svg id="Layer_1" data-name="Layer 1" xmlns="http://www.w3.org/2000/svg" viewBox="0 0 1641.82 351.04"><defs><style>.cls-1{fill:#f15023;}.cls-2{fill:#7fb901;}.cls-3{fill:#01a4ee;}.cls-4{fill:#feb801;}.cls-5{fill:#737373;}</style></defs><title>Microsoft</title><path class="cls-1" d="M-712,16.84c-26,0-52-.06-78,.07-3.59,0-5.16-.44-5.14-4.74q.25-78.95,0-157.89c0-3.55,1-4.37,4.42-4.36q78.95.17,157.9,0c3.73,0,4.7.93,4.69,4.68q-.2,78.71,0,157.4c0,4-1.12,5-5,4.94C-659.39,16.76-685.7,16.84-712,16.84Z" transform="translate(795.11 150.09)"/><path class="cls-2" d="M-611-66.47c0-26.31.08-52.63-.09-78.95,0-3.69.83-4.68,4.62-4.67q78.94.19,157.9,0c3.4,0,4.5.76,4.49,4.35q-.17,78.94,0,157.9c0,3.71-.9,4.76-4.69,4.75q-78.94-.2-157.9,0c-3.52,0-4.43-1-4.41-4.44C-610.94-13.83-611-40.15-611-66.47Z" transform="translate(795.11 150.09)"/><path class="cls-3" d="M-795,117.29c0-26.31.07-52.63-.08-78.94,0-3.46.81-4.44,4.37-4.43q78.94.18,157.88,0c3.65,0,4.78.76,4.77,4.62q-.21,78.69,0,157.38c0,3.89-.94,5-4.94,5q-78.71-.21-157.39,0c-3.75,0-4.71-1-4.69-4.7C-794.92,169.92-795,143.61-795,117.29Z" transform="translate(795.11 150.09)"/><path class="cls-4" d="M-611,117.32c0-26.31.06-52.62-.08-78.94,0-3.41.75-4.47,4.34-4.46q79.18.18,158.38,0c3.15,0,4.29.66,4.28,4.07q-.15,79.44,0,158.88c0,3-.74,4-3.89,4q-79.68-.14-159.38,0c-4.06,0-3.64-2.12-3.64-4.68Q-611,156.79-611,117.32Z" transform="translate(795.11 150.09)"/><path class="cls-5" d="M-225.54,79.59c5.95-16.88,11.88-32.74,18.37-48.41q22-53.23,43.62-106.67c1.29-3.15,2.81-4.54,6.49-4.47,13.49.27,27,.19,40.48,0,3.22,0,4.67.44,4.67,4.24q-.18,101,0,202c0,3.57-1.07,4.5-4.51,4.42-9.32-.22-18.66-.2-28,0-3.3.06-4.26-1.05-4.25-4.3.09-43.66-.05-87.31.13-131,0-11.46,1-22.91,1.44-32.82-19.06,51.68-41.56,103.47-62.4,155.93-4.82,12.15-5,12.09-18.25,12.09-10.5,0-10.47,0-14.43-9.63q-28.72-69.65-57.5-139.26c-2.29-5.53-3.66-11.32-5.71-17.65,0,7.84,0,14.93,0,22q.12,53.47.24,107c0,11-.11,22,.07,33,.06,3.36-.78,4.73-4.4,4.63-8.66-.22-17.33-.2-26,0-3.38.08-4.2-1.18-4.2-4.36q.12-101,0-201.95c0-3.16.82-4.34,4.23-4.3,14.66.18,29.32.12,44,0,2.44,0,3.93.5,4.91,3,19.21,49.27,39.8,98,58.11,147.61C-227.46,73.36-226.69,76-225.54,79.59Z" transform="translate(795.11 150.09)"/><path class="cls-5" d="M761.14-61.92c-4.33-1.12-7.64-2.68-11.28-3.25-16.06-2.49-26,4.71-27.58,20.82-.7,7.1-.16,14.32-.31,21.48,0,2.32,1.07,2.74,3.06,2.74,15.5-.05,31-.08,46.49,0,2.71,0,3.4-1,3.37-3.52-.11-8.67.11-17.34-.12-26-.08-3.33.72-5.06,4.19-6,9.29-2.57,18.52-5.37,27.64-8.48,3.86-1.31,4.08.16,4.06,3.28-.11,12,.09,24-.13,36-.07,3.74,1,4.89,4.77,4.77,8.83-.27,17.67.15,26.49-.19,4.15-.15,5.06,1.33,4.9,5.12-.27,6.48-.23,13,0,19.49.11,3.4-.86,4.67-4.46,4.58-9.16-.23-18.33,0-27.5-.12-2.78,0-4.2.42-4.17,3.76.2,23.49-.14,47,.4,70.47.43,18.84,13.47,26.52,30.71,18.8,4.94-2.22,5-2.22,5,3.36,0,6.5-.1,13,0,19.49.07,2.88-.72,4.59-3.69,5.54-12.63,4-25.4,5.21-38.38,2.17-14.71-3.44-23.6-12.91-27.54-27.28a73.64,73.64,0,0,1-2.22-19.79c0-23.83-.06-47.66.1-71.48,0-3.79-.77-5.18-4.89-5.1q-21.74.4-43.49,0c-3.84-.07-4.64,1.11-4.63,4.76.13,37.16,0,74.32.19,111.47,0,4.62-1.2,5.94-5.76,5.73-8.15-.38-16.34-.39-24.49,0-4.7.23-6.17-.93-6.14-5.92.23-36.82,0-73.65.23-110.47,0-4.29-.86-5.95-5.44-5.58-5.29.44-10.65,0-16,.14-2.42.06-3.65-.44-3.59-3.26.17-7.49.16-15,0-22.49-.05-2.71,1-3.4,3.49-3.34,5.83.15,11.66-.1,17.49.11,3,.1,4-.84,4-3.94-.08-8.66-.8-17.39.54-26,4.47-28.55,25.82-45.8,55.45-45.16a64.06,64.06,0,0,1,16.31,2c1.81.52,3,1.19,2.95,3.32C761.11-80.72,761.14-71.57,761.14-61.92Z" transform="translate(795.11 150.09)"/><path class="cls-5" d="M578.66,134c-36.28,0-63.19-18.34-72.21-50a99,99,0,0,1,1.48-60c6.76-19.88,20-33.93,39.5-41.78,14.19-5.7,29-7,44.15-5.83,10.7.86,21,3.34,30.57,8.49,16.27,8.78,26.62,22.42,31.71,40a101.22,101.22,0,0,1,.57,55.23c-8.68,32.52-35.75,53.16-70.27,53.91C582.33,134,580.5,134,578.66,134ZM539.88,55.5A63.1,63.1,0,0,0,543,77.83c5.85,17.53,20.41,27.43,39.37,26.77s31-10.1,35.86-28.69a81.42,81.42,0,0,0,.47-40c-4.32-18.23-17.4-29.47-34.44-30.06Q551.9,4.75,542.81,33.58A66.77,66.77,0,0,0,539.88,55.5Z" transform="translate(795.11 150.09)"/><path class="cls-5" d="M291.73,133.87C271.58,134,253.2,129,238,115a66.31,66.31,0,0,1-19.69-34.09c-4.46-18.85-4.23-37.78,2.07-56.13,9.73-28.35,30.53-43.5,59.73-47.7,14.49-2.09,28.92-1.5,43,2.94,20.58,6.5,34.92,20,41.86,40.34,8.6,25.22,8.28,50.52-3.67,74.72-11,22.3-29.89,34.16-54.16,37.92-2.47.38-5,.7-7.44.84C297.06,134,294.39,133.87,291.73,133.87Zm1.88-128C274,5.85,260.45,16,255.16,34.94c-2.86,10.22-3.21,20.63-2.07,31.15,2.47,22.65,15.4,36.4,37.51,38.24,18.32,1.52,33.55-5.88,39.56-25.46a80,80,0,0,0,1-43.81C326.36,16,313.15,5.86,293.61,5.85Z" transform="translate(795.11 150.09)"/><path class="cls-5" d="M479.61,15.47C469.27,9.26,459.15,5.32,448,4.74c-4.5-.23-9-.34-13.35,1.16-5.7,2-10.12,5.27-10.86,11.72-.77,6.64,1.29,12.1,7.31,15.74a131.76,131.76,0,0,0,18,8.56,142.9,142.9,0,0,1,19.52,10c25.75,15.56,25.1,54.38.49,71-15.47,10.43-32.79,12.3-50.72,10.69a101.06,101.06,0,0,1-27.62-6.45c-2.35-.91-3.41-2.13-3.39-4.74.12-10.14.05-20.29.05-30.33,1.36-.81,2.05.14,2.82.66a74.4,74.4,0,0,0,36.25,12.94,36.94,36.94,0,0,0,16.21-2.1,14,14,0,0,0,3.72-24.28c-6.43-5.18-14.15-8-21.63-11.24-5.66-2.44-11.13-5.23-16.56-8.15-27.1-14.53-28-55.69-2.13-72.87,14.31-9.49,30.09-12,46.75-10.53a99,99,0,0,1,22.94,4.65c2.09.7,3.95,1.37,3.9,4.31C479.52-4.94,479.61,4.71,479.61,15.47Z" transform="translate(795.11 150.09)"/><path class="cls-5" d="M99.85,18.55c-8.52-5.76-16.48-10-25.64-11.88C46,.93,21.45,19.09,19,47.85c-1,12.1-.41,24,5.51,35,10.21,18.92,32.85,26.42,55.54,18.57a64.75,64.75,0,0,0,16.45-8.26c2.42-1.72,3.41-1.53,3.37,1.7q-.13,13,0,26a4.19,4.19,0,0,1-2.55,4.3C71.89,138.42,24.93,139.87-.34,110.27a71.92,71.92,0,0,1-17.1-38.18c-2.94-23,.08-45.05,13.65-64.37,16.47-23.45,40.53-31.8,68.15-31.65a89.7,89.7,0,0,1,30.77,5.69c3.4,1.26,5,2.94,4.82,6.85C99.64-1.77,99.85,7.86,99.85,18.55Z" transform="translate(795.11 150.09)"/><path class="cls-5" d="M161.85,3.16c4.23-6.67,8-13.07,14-17.87,10.33-8.2,22-9.69,34.45-7.07,1.75.37,3.56.78,3.55,3.36-.08,11,0,21.9,0,33.4a46.66,46.66,0,0,0-18.47-5.37c-10.77-.62-19.1,3.62-25.13,12.45-6.25,9.14-8.38,19.44-8.38,30.31,0,24.34-.1,48.67.08,73,0,4.1-1,5.48-5.25,5.34-9-.31-18-.18-27-.05-2.73,0-3.76-.69-3.75-3.62q.12-71.76,0-143.5c0-2.73.63-3.81,3.58-3.75q14.24.24,28.49,0c3.16-.06,4,1.06,3.89,4C161.72-9.74,161.85-3.28,161.85,3.16Z" transform="translate(795.11 150.09)"/><path class="cls-5" d="M-42.61,55.5c0,23.33-.09,46.65.09,70,0,4-1.16,5.13-5.07,5-8.66-.27-17.33-.21-26,0-3.27.07-4.66-.61-4.65-4.31q.18-71.24,0-142.45c0-3.13,1-4,4-3.92,9,.18,18,.25,27,0,3.77-.11,4.75,1,4.73,4.77C-42.69,8.18-42.61,31.84-42.61,55.5Z" transform="translate(795.11 150.09)"/><path class="cls-5" d="M-60-84.15c12.14,0,21.8,9.05,21.88,20.58S-47.73-43-60-43c-12.08,0-21.49-8.9-21.56-20.31C-81.67-75-72.24-84.11-60-84.15Z" transform="translate(795.11 150.09)"/></svg>