<?xml version="1.0" encoding="utf-8"?>
<!-- Generator: Adobe Illustrator 18.1.1, SVG Export Plug-In . SVG Version: 6.00 Build 0)  -->
<svg version="1.1" id="Layer_1" xmlns="http://www.w3.org/2000/svg" xmlns:xlink="http://www.w3.org/1999/xlink" x="0px" y="0px"
	 viewBox="340.1 239.3 111.8 132.9" enable-background="new 340.1 239.3 111.8 132.9" xml:space="preserve">
<g>
	<g>
		<g>
			<g>
				<polygon fill="#E55CFF" points="362.5,284 340.1,328.7 340.1,239.3 362.5,239.3 				"/>
				<polygon fill="#232364" points="362.5,328.7 340.1,328.7 384.8,239.3 384.8,284 				"/>
				<polygon fill="#E55CFF" points="407.2,284 384.8,328.7 384.8,239.3 407.2,239.3 				"/>
				<polygon fill="#232364" points="407.2,328.7 384.8,328.7 429.5,239.3 429.5,284 				"/>
				<rect x="429.5" y="239.3" fill="#E55CFF" width="22.3" height="89.4"/>
			</g>
		</g>
	</g>
	<g>
		<path fill="#232364" d="M350.6,371.9l-6.6-16.6v16.6h-3.9V348h4.6l7.3,18.4l7.2-18.4h4.5v23.9h-3.9v-16.6l-6.4,16.6H350.6z"/>
		<path fill="#232364" d="M369.8,351.8c-1.3,0-2.4-1.1-2.4-2.4s1.1-2.4,2.4-2.4s2.4,1.1,2.4,2.4S371.1,351.8,369.8,351.8z
			 M371.7,371.9h-3.9v-17.3h3.9V371.9z"/>
		<path fill="#232364" d="M384.3,362.9l6.5,9h-4.4l-4.3-6.1l-4.3,6.1h-4.2l6.4-8.9l-6-8.4h4.4l3.8,5.4l3.9-5.4h4.2L384.3,362.9z"/>
		<path fill="#232364" d="M410.5,354.2c3.5,0,5.6,2.5,5.6,6.4v11.2h-3.9v-10.6c0-2.1-0.9-3.5-2.8-3.5c-1.4,0-2.7,0.9-3.1,2.6v11.6
			h-3.9v-10.6c0-2.1-0.9-3.5-2.8-3.5c-1.4,0-2.7,0.9-3.1,2.6V372h-3.9v-17.3h3.9v1.4c0.8-1.1,2.4-1.8,4.3-1.8s3.7,1,4.6,2.3
			C406.5,355.1,408.1,354.2,410.5,354.2z"/>
		<path fill="#232364" d="M429.3,371.9v-1c-0.6,0.6-2.3,1.3-4.3,1.3c-3.5,0-6.5-2.1-6.5-5.6c0-3.3,2.9-5.6,6.7-5.6
			c1.6,0,3.3,0.5,4,1.1v-1.4c0-1.8-1.1-3.1-3.3-3.1c-1.6,0-2.5,0.7-3,1.9h-3.7c0.5-3,3.2-5.2,6.8-5.2c4.4,0,6.9,2.4,6.9,6.3v11.3
			L429.3,371.9L429.3,371.9z M429.3,365.8c-0.4-1.1-2-1.8-3.5-1.8c-1.8,0-3.6,0.7-3.6,2.5s1.8,2.5,3.6,2.5c1.6,0,3.1-0.7,3.5-1.8
			V365.8z"/>
		<path fill="#232364" d="M445.4,362.9l6.5,9h-4.4l-4.3-6.1l-4.3,6.1h-4.2l6.4-8.9l-6-8.4h4.4l3.8,5.4l3.9-5.4h4.2L445.4,362.9z"/>
	</g>
</g>
</svg>
