<svg id="Layer_1" data-name="Layer 1" xmlns="http://www.w3.org/2000/svg" viewBox="0 0 1198.08 551"><defs><style>.cls-1{fill:#080808;}.cls-2{fill:#b1d24b;}.cls-3{fill:#3ab24e;}.cls-4{fill:#7ec14d;}.cls-5{fill:#989698;}.cls-6{fill:#fdfdfd;}</style></defs><title>Monster</title><path class="cls-1" d="M-365,300c-6.14-2-8.52-6.56-9-12.7-.39-5.06-.31-10.15,1.72-14.7,2.7-6.05,1.82-12.7,4.07-18.82a10.2,10.2,0,0,0-1.05-8.2c-1.84-3.37-2.17-7.28-2.9-11a16.84,16.84,0,0,0-4.9-9.45A18.23,18.23,0,0,1-379,200.89c2.28-3,1.19-5.83.39-8.43-1.93-6.23-3.18-13-2.84-19,.37-6.67-.79-13.69,1.46-20.26,1-2.82.6-4.9-1-7.75-3.36-5.83-3.05-12.81-3.46-19.39a57.45,57.45,0,0,1,1.21-16.36c.83-3.63-.06-6.61-2.58-9.62-6.38-7.64-9.31-15.75-3.47-25.5a28.89,28.89,0,0,0,4.49-13.55,11,11,0,0,1,3.89-8.34c.88-.71,1.86-1.45,1.83-2.81-.15-7.2,3.06-13.91,3-21.12,0-4.19,2.53-7.48,4.53-10.88a10.52,10.52,0,0,0,1-9.88c-1.93-5.09-3.15-10.44-4.57-15.71a6.19,6.19,0,0,0-1.66-3,11.45,11.45,0,0,1-3.32-10c1.18-9.61.32-19.44,2.95-28.91.49-1.75.6-3.6,1.13-5.33,1.1-3.54.53-6-2.81-8.43-4.63-3.4-6.09-8.9-4.79-14.3,2.49-10.26,1.55-20.21-.91-30.26-1.73-7-.17-13.84,2.45-20.43.86-2.15.92-3.47-1.63-5-9.77-6-11.66-15.93-6.65-26.7,1.72-3.69,2.81-8.53-.15-12.79a10.71,10.71,0,0,1-1.68-6.64c.12-4.7-3.15-7.69-7.69-7.41-4.09.26-7.84-1.27-11.49-2.77a15,15,0,0,0-9.1-.87c2.24,5,2,9.48-1.94,13.75-1.87,2,.36,4.77.82,7.1,1.11,5.7-.33,9.37-5.38,11.78-3.11,1.48-5.93,3.42-9.43,4.3-3.32.83-4.27,4.43-3.89,7.35.69,5.43-1.24,11.84,5.26,15.53,1.58.9,2,3.29,2.18,5.37a33.11,33.11,0,0,1-5.57,21.75c-1.74,2.6-3.94,4.87-4.75,8.1-.71,2.87-.77,5.07,1.12,7.83,3.73,5.45,2.57,11.85,1.5,17.87-.48,2.67-.6,4.73,1.23,6.87,4.12,4.85,2.6,11.5,5.22,16.93s4.57,11.25,8.75,16.05c5.11,5.87,5.08,13.08.65,19.8C-428.13-5.07-431.23.12-433.08,6c-.38,1.23-.53,2,.17,3.05,2.63,4.07,2.66,8.38,1.18,12.9a37.17,37.17,0,0,0-1.11,5.86c-.45,2.88-.09,5.09,2.62,7.27,5.13,4.12,5.46,10.05,3.78,16Q-433.22,75-440.31,98.72a21.68,21.68,0,0,0,.23,14.12c2.14,5.91,2.25,12.37,5,18.13a3,3,0,0,1,.21,2c-2.88,9.42-2.26,19.35-4.33,28.86-.5,2.29-1.08,4.1,0,6.53,2.93,6.94,1.3,14.19,0,21.13-1.82,9.69-.86,19.05.77,28.61a54.67,54.67,0,0,0,3.67,12.74,13.51,13.51,0,0,1,1.1,6.33c-.33,4.82-1.77,9.39-.63,14.55.8,3.57-2.27,7.1-6.5,8.31-4.85,1.38-10.22,0-12.57-3.74-3.56-5.6-7.21-11.26-4.63-18.48a3.17,3.17,0,0,0-.77-3.64c-6.86-6.58-8.4-15.49-9-24.15-1.06-15.48-4.07-30.55-7.38-45.62-1.23-5.6-4.68-10.24-6.65-15.53-1.78-4.75-2.19-9.42.34-13.92a3.66,3.66,0,0,0-.26-4.49c-3.94-5.71-5-11.87-2.37-18.4,1-2.45-.28-3.67-2-4.88a21,21,0,0,1-8-10.51c-1.66-4.48.48-7.42,2.53-10.94,4.21-7.21,8.7-14.43,11.55-22.2,1.91-5.18-.44-11.16-1.22-16.76a14.33,14.33,0,0,1-.42-4.42c.78-4.22.31-7.42-3.79-10.15-3.21-2.15-3.77-6.32-2.58-10,5.41-16.84,1.74-33.16-2.21-49.61-2.85-11.92-7.08-23.08-14.28-33.07-3.84-5.34-4.84-11.32-2.4-17.49,4-10.09,2.91-21.41,7.83-31.28,2.46-4.93,4-10.08,1.29-15.6a4.63,4.63,0,0,1,.36-3.36c2.16-4.89,1.4-9.54-.5-14.34a12.71,12.71,0,0,0-4.88-6.45c-8.1-5.48-9.11-9.43-6.25-18.87a6,6,0,0,0-3-7.1c-1.86-1.06-4-2.63-5.9-2.46-8.11.71-15.15-3.33-22.79-4.57-6.95-1.14-13.73-1.6-20.61.86-5.78,2.05-9,.11-13.53-6.79v-4c6.89-9.41,15.16-16.49,27.7-16.28a6.6,6.6,0,0,0,3.72-1.19c3.71-2.36,8-3.5,11.74-6A14.73,14.73,0,0,1-520-217.93c14.82,3.87,25.88-3.79,36-12.6,7.41-6.44,15.92-5.79,19.74,3.21a7.81,7.81,0,0,0,7,5.28c2.63.3,5.28.51,7.91.75,5.32.47,11.09-1.52,15.69,3a1.92,1.92,0,0,0,1.78-.08c3.6-2.39,8.1-2.81,11.56-5.64,6.09-5,12.76-8.34,21-5.63a4.69,4.69,0,0,0,5.31-1.65c3.25-3.61,7.52-5.12,12.26-5.95,7.14-1.24,14.65-1.63,20.89-5.84,4.43-3,8.55-6.4,13.81-7.88h2c4.88,1.19,8.5,3.72,10.13,8.78.57,1.77,2.8,1.66,4.3,2a22.48,22.48,0,0,1,12,6.68,16.85,16.85,0,0,0,7.51,4.61c5.7,1.84,10,5.33,11.12,11.58.28,1.53.87,2.62,2.31,2.82,6.35.89,9.75,5.09,12,10.86,4.75-3.69,9.48-6.65,15.52-6.51,2.44.06,2.73-2.26,3.14-3.89,1.89-7.36,5.79-12,14-12.15,2.27,0,4-2.1,5.8-3.66,2.24-2,4.46-4,7.3-5.14,4.64-1.84,9.24-.7,11.55,3.69,1.48,2.8,3.28,3.48,6.1,3.61,7.38.35,13.58,3,17.34,9.85a5.62,5.62,0,0,0,3.8,2.91c2.77.69,5.44,2.87,5.62,5.19.68,8.31,6.46,14.52,8.31,22.26a5.45,5.45,0,0,1,.18,1c.18,6.27,0,12.48,3.19,18.38,1.39,2.59-.2,5.65-2.14,8.21-3.68,4.88-7.38,9.82-6,16.65.48,2.39-.4,5.18-2.33,6.28-7,4-6.55,12-10,17.9-1.35,2.32-.13,4.91-.81,7.33a35.69,35.69,0,0,1-7.14,13c-1,1.16-2.17,2.28-1.42,4,3.28,7.31.84,15,1.62,22.54a7.75,7.75,0,0,0,2.1,5.16c4.48,4.66,4.69,9.53,2.62,15.88-2,6.05-4.4,12.08-5.63,18.41-1,5.27.52,9.7,3.94,13.82,4.79,5.76,9.21,11.81,10.46,19.51.16,1,.69,2,.57,2.91-1.32,10.16.19,20.84-5.7,30.2-1.85,2.94-3,6.3-4.68,9.36-4,7.32-2.76,14.05,1.15,21.12s3.25,14.73.18,22.08a33.22,33.22,0,0,1-5.44,9.48c-1.77,2-1.62,4-.36,6.37,5,9.48,5.79,19.19.72,29-.45.88-1.07,1.6-1,2.7.74,7.55-.49,15.23,1.81,22.69a17.11,17.11,0,0,1-3,16c-2.92,3.87-5.54,7.83-7,12.51A53.11,53.11,0,0,1-229,200.41c-2.92,3.94-1.64,7.93-.68,11.93,1.79,7.4-4.85,18.12-12.24,19.59-5,1-10.66-3.08-11.13-8.26a89.82,89.82,0,0,0-3.78-20.4,21,21,0,0,1,0-11.89c1.53-5.49,1-11.22,2.75-16.61.83-2.57-.15-4.92-1.36-7.16a48.91,48.91,0,0,1-5.35-17.5c-.63-5.21.59-9.54,5.51-12.25.83-.46,2.25-.69,2.18-1.79-.4-5.65,3-11.21.1-16.94-3.48-6.85-3.79-13.68,1.28-20,2.64-3.3,2.71-7.14,3.29-11.14,2.24-15.64.59-31.42,2.28-47.13.8-7.48.59-16.13-3.78-23.62A32.08,32.08,0,0,1-252.25-11c3.69-10-.22-17.65-5.43-26-5.05-8.1-8.72-17.43-5.2-27.56,1.64-4.71,0-10,2.49-14.57.24-.44-1.48-2-2.32-3-2.69-3.16-5.61-6.15-5.51-10.8a10.48,10.48,0,0,1,4.1-8.64,59.62,59.62,0,0,0,5.5-5c1.29-1.32,2-2.61.91-4.78a13.35,13.35,0,0,1,.41-13.34,8.88,8.88,0,0,0,.71-8.14,11.91,11.91,0,0,1-.35-8.36c2-5.38-.66-10.77.61-16.15a4.59,4.59,0,0,0-2.86-4.85c-4.15-1.24-7.9-3.84-12.86-2.16-7.35,2.48-14.16-.47-20.23-4.35-2.29-1.46-4.2-2.25-6.76-2-3.31.29-6.65.68-9.94-.16-2-.52-3.46.24-4.89,1.58-2.37,2.23-4.79,12-3.69,15.09a16.76,16.76,0,0,1-.21,12.15c-.81,2.06-1.2,4,.86,5.82,5.62,4.95,6.33,11.28,3.64,17.72-2.47,5.92-1.8,11,.26,17,2.7,7.83,5.15,16.12,3.1,24.73-.26,1.12-.42,2.59-1.18,3.2-6.48,5.12-5.76,12.61-6.71,19.56a19.35,19.35,0,0,1-1,4.35c-3.36,8.63-.81,16.81,2,24.86,2.5,7.19,5.58,14.33,6.51,21.82,1.18,9.49.49,18.92-8,25.81-4,3.23-6,7.81-6.27,13-.23,4.21-2.37,7.83-3.63,11.71-2.37,7.3-10,14-7.83,21.14,2.74,9-1,17.75,1.67,26.3a9.65,9.65,0,0,1,.29,4.93c-1.7,8-2.89,16-.05,24.12a7.79,7.79,0,0,1-1.39,7.13c-3.08,3.74-2.43,7.69-2.5,11.94a210.66,210.66,0,0,1-1.67,24.8,18.89,18.89,0,0,0,4.43,14.75c6.85,8,9,16.48,2.44,25.81-1.7,2.41-.81,5.25-.47,7.79.4,2.91.39,5.81-.82,8.27-2.09,4.28-1.84,8.63-1.66,13.1.2,5.35-4.28,9.62-3.49,15.23.33,2.42-.57,5-.51,7.46.23,9.59-3.76,17.45-9.79,24.5-1.09,1.27-2.34,2.47-2.47,4.23-.48,6.28-4.18,9.58-10,11Zm-73-463.06a2.38,2.38,0,0,0,2.35-.87c5.21-1.47,5-5.07,3.48-9.07-1.12-2.93-1.81-6,.79-8.22,3.28-2.81,2.81-5.51.82-8.59-1-2.6-2.54-5.22.35-7.64,5.09-1.52,10.12-3.22,15.61-2.68s10.28,5.57,16.91,1.92c2.69-1.48,6.49,2.45,8.79,5.48s4.09,6.24,6.8,8.57c3.43,2.94,3.21,4.53-2.05,5.94,4.66,1.83,4.72,4.69,4.24,8a61.34,61.34,0,0,0-.6,10c.06,2.92,3,6.73-2.95,7.19-.92.08-.79,1.34-.76,2.14.13,4,1,7.44,4.85,9.72,8.49,5.07,9.18,6.82,5.46,16.07a28.84,28.84,0,0,0,.29,22.76c.38.92,1.14,1.89,1.06,2.77-.63,6.44.35,13-1.62,19.34-1.75,5.58-.34,10.09,4.7,13.35a7,7,0,0,1,3.16,7.31c-1.63,11.45-4.66,22.67-4.14,34.47.19,4.13-1.7,8.14,3.1,10.77a2.92,2.92,0,0,1,.92,2.17c.19,7,3.18,13.22,5.08,19.73,1.24,4.25,1.54,8.54-1,12-6.16,8.41-4.81,18.64-7.31,27.91-1.14,4.24-.28,9-4.93,11.77a3.28,3.28,0,0,0-1.23,2.6c.57,6-2.38,11.19-5.06,15.91-4,7-2,12.15,2.58,17.54,3.58,4.2,6,8.66,4.17,14.8-1.94,6.57-1.64,13.53-1,20.35.32,3.27,0,7.37,1.88,9.56,3.92,4.69,3.57,9.32,2.22,14.43-1.66,6.28,2.62,13.09-1.74,19.18-.28.4.33,1.59.71,2.31a9,9,0,0,1,.86,5.34c-.51,4.79.93,9.49,2.51,13.61,1.65,4.3.57,6.69-1.86,9.66-4.62,5.62-4,10.92,1.57,15.87a14.39,14.39,0,0,1,3.5,4.69c2.12,4.3,2.26,9,3.11,13.48.64,3.38,3.88,5.14,3.67,9.26-.47,9.23-1.7,18.16-4.85,26.85-1.74,4.79-2.31,9.68-.59,14.64,3.72,1.35,1.73-2.13,2.65-3.14a45.39,45.39,0,0,1,3.69-5.9,34.84,34.84,0,0,0,8.82-23.17,52.54,52.54,0,0,1,.39-5.46,148.11,148.11,0,0,1,2.86-14.59c1.16-5.32.37-11.26,2.91-16.65.5-1.05-.12-2.6-.06-3.91.19-4.36-1.39-8.93,2-12.9,3.69-4.32,3.3-8.8-.15-13.15-1.34-1.7-3-3.26-3.9-5.17-2.87-6.28-6.35-12.07-4.32-19.93a69,69,0,0,0,1.12-27.14c-.53-3.58-.83-6.47,2.43-8.8,2-1.45,2.12-3.65,1.71-5.89-1.5-8.28-2.58-16.55.44-24.76a4.41,4.41,0,0,0-1.17-4.62c-1.94-2.07-1.8-4.36-.83-6.49,2.08-4.56,3.32-8.89-.75-13.06a2.31,2.31,0,0,1-.6-1.85c1.52-5.33.24-11.28,4-16.16,4.19-5.38,4.05-12.88,8.48-18.25a4.07,4.07,0,0,0,.39-2.43c-.25-7.89,3.39-14.14,8.84-19.26,5.74-5.39,6.66-12,5.43-19-2-11.6-8-22.06-10-33.77-.57-3.34-1.28-6.21,0-9.58,2.16-5.58,4.88-11.74,3-17.39s.27-8.3,4-11.22c2.59-2,4.9-4.72,4.22-8-1.18-5.68-.94-11.75-3.51-17-3.4-7-4.39-13.77-.58-21,2.16-4.07,1.49-7.74-2.23-11.1s-5.66-7.75-2.37-12.89c1.51-2.36,1.16-4.88.16-7.62-1.69-4.64-4.75-9.68,1.2-13.81a2.3,2.3,0,0,0,.67-1.81c-.42-4.35,2.64-6.52,5.36-9,2-1.86,5.11-3.35,4.59-6.66-.65-4.17,1.53-6.48,4.09-9.26s5-5.73,9.25-6a6.49,6.49,0,0,0,3.24-1.14c1.13-.82,3.17-1.27,2.92-3s-2.1-2.55-3.75-2.9c-2.92-.61-5.93-.83-8.81-1.57-3.17-.81-4.68-3.16-2.57-5.92,3.2-4.19.32-5.69-2.67-6.91-3.86-1.57-7.81-2.83-10.69-6.1s-6.9-5.06-11.23-6c-3.36-.74-6.12-2.32-7.77-5.65-2-4.07-4.32-4.38-7.57-1.3-5.62,5.32-12.63,7.49-19.94,9.13-7.11,1.59-15.22.74-19.95,8.33-1,1.54-3.26,1.57-5.11,1.44a39.07,39.07,0,0,1-7.91-.95,6.69,6.69,0,0,0-6.53,1.25,42.46,42.46,0,0,1-15.4,8.62,10.26,10.26,0,0,0-4.66,2.8c-2.83,3.23-5.32,2.09-7.37-.45-2.26-2.8-4.93-3.56-8.31-3.23a35.18,35.18,0,0,1-6.49,0c-8.65-.8-17.09-2-20.71-11.76-1-2.74-3.12-2-4.06-.2a11.71,11.71,0,0,1-9.66,6.74,5,5,0,0,0-2.58,1.46c-9,8.64-20,8.68-31.31,7.22-2.45-.32-5.4-.14-6.66,1.28-3.1,3.51-7.33,4-11.16,5.61a8.84,8.84,0,0,0-1.93,1.52,44.39,44.39,0,0,1-5.76,1.13c-3.41.25-6.94-.27-9.85,2.18-1.72,1-3.47,1.9-5.16,2.92-.77.46-2,.85-1.39,2.1.48,1,1.41,1,2.54.76A56.81,56.81,0,0,1-533-189.57c4.76,1.5,9.43,2.79,14.55,2.91,4.84.12,9.25,2.48,13.25,5.35s4.24,7.8,6.42,11.66c1.28,2.28-1.2,4.58-2.57,6.56s-.38,3.26.87,4.33a60.52,60.52,0,0,0,6.44,4.69c2.49,1.61,4.44,3.31,4.16,6.74a9,9,0,0,0,1.25,4.24c2.3,4.78,2.66,9.57.47,14.47-.7,1.57-1.25,3.26,0,4.72,2.44,2.89,1.57,5.82.56,8.91-3.22,9.77-7.65,19.21-8,29.75a17.76,17.76,0,0,1-1.9,7.2c-2.41,5-1.94,9.52,1.34,14,4.8,6.63,9.12,13.63,11.05,21.68,3.5,14.61,9.11,28.76,8.54,44.28-.23,6.12,1,12.27-1.83,18.08-2,4.15-.69,7.12,3.36,8.78,2.71,1.1,2.95,2.86,2.92,5.46,0,4.14-1.57,8.33-.09,12.4,6.24,17.08-4,30.16-11.17,43.64-2.16,4-1.68,5.75.89,8.17,1.94,1.82,4.14,3.36,6.11,5.15s3.43,4.56,2.05,7.19c-3.73,7.09-1.78,13.11,2.75,18.89,1.91,2.42,2,4.79-.31,7.1-3.06,3.09-2.73,6.53-.94,10.12,2.15,4.31,4.72,8.49,5.68,13.27,2.77,13.67,6.88,27,7.59,41.18.54,10.71,1.09,21.78,10.16,29.86,2,1.79,1.61,4.55.71,7.07s-1.73,5.1,0,7.66a6.15,6.15,0,0,0,2.19,3.47c.5.89.79,2.65,2.18,1.45.67-.58-.7-1.5-1.44-2.07a6.14,6.14,0,0,1,.71-5.72c2.84-4.26,2.34-8.42-.21-12.65-1-1.69-2.21-3.58-2.34-5.45-1-13-3.88-25.92-.8-39.16,1.17-5.06,2.7-10.85-.4-16.06-1.91-3.23-1.67-6.29,0-9.48,1.57-3,2.68-6.18,1.41-9.58-1.14-3.06-.37-5.79.68-8.7s3.65-5.95,2.32-8.94c-2.08-4.67-1.95-9.84-3.76-14.36-4.31-10.72-2.17-20.67,1.36-31.06,4.37-12.88,7.72-26.11,11.46-39.21.9-3.14.6-6.26-2.63-7.8-5.41-2.57-5.48-6.91-4.58-11.78.51-2.77.69-5.67,1.61-8.3,1.34-3.83.67-6.87-2.41-9.36-1.91-1.54-2.08-3.12-.88-5.21,4-6.9,5.89-14.86,11.43-21,2.86-3.18,2.47-7.09-.77-10.33-3-3-4.81-6.71-6.5-10.55-2.9-6.55-3.51-14.24-6.63-20.12-3.94-7.41-4.07-13.86-2.5-21.27.61-2.89.2-5.67-2.8-7.36-1.9-1.07-2-2.87-1.79-4.79.79-6.31,1.6-12.58,6.19-17.56,3.56-3.86,4.51-8.83,5.44-13.72.53-2.75.4-5.53-3.82-5.12-2.84.27-4.42-.43-3.25-3.94.95-2.85.6-6,0-8.92a34.21,34.21,0,0,1,.18-14.32c2-4.68,4.85-8.55,10.08-10Zm142.11-30.26c-2.36,1.12-4.74,2.22-5.18,5.23l-8.56,7.5c4.29,1.58,8.06.63,11.77.6,3.33,0,6.63-.3,9.38,2.34,5.17,5,11.17,6.17,17.9,3.53,1.06-.42,2.66-1.4,3.18-1,5.77,4.32,14.52,2.46,18.84,11,2,3.95,3.64,5.85,1,9.54-.43.6,0,1.93.23,2.89a18.33,18.33,0,0,1-.29,8.89c-.67,2.41-1.35,5.16-.28,7.38,2.59,5.33.93,10.1-1.35,14.76-1.77,3.62-.79,6.3,2.36,8,2.63,1.45,2.08,2.74.8,4.66-2.68,4.06-5.69,8-9.47,10.88-4.8,3.64-3.38,6.19.16,9.31,2.94,2.59,5.82,5.62,4.32,9.88a26.8,26.8,0,0,0-1.65,13.15,3.62,3.62,0,0,1-.79,2.75c-2.79,2.66-1.91,5.44-.48,8.21a11.3,11.3,0,0,1,1.39,6.24c-.17,2.13.74,3.69,2,5.38,6.8,8.8,12.94,17.86,7.74,29.83a19.71,19.71,0,0,0-1,3.86c-1.67,8-2.55,15.81,2.55,23.13a16.17,16.17,0,0,1,3.06,7.17c.59,5.86-.84,12,3.11,17.28a1.62,1.62,0,0,1-.09,1.43c-3.56,5.68-1.87,12.3-3.34,18.37-1.38,5.71,1.58,11.32.67,17.18-.66,4.24-2.2,8.4-1.64,12.82a17.43,17.43,0,0,1-3.95,14c-3.81,4.49-3.24,8.74-.68,13.71,4.34,8.38.31,16.66-1.37,24.89a3.48,3.48,0,0,1-1.91,2.21c-6.24,2.22-4.5,6.91-3.32,11.12A85.89,85.89,0,0,0-246.63,165c1.26,2.94,2.29,5.86,1.89,9.17-1.37,11.15-5.59,22.09-1.3,33.62,1.58,4.25,1.23,9.19,2.06,13.76.3,1.7.89.55,1.16-.23,2.83-1.8,4.81-4.06,3.81-7.72-1.62-5.93-1.6-11.74,1.09-17.4a42.62,42.62,0,0,0,7.5-13.27A43.11,43.11,0,0,1-222.5,168c2.14-2.53,3.56-5.57,2.42-8.79-2.73-7.74-1.19-15.83-2.38-23.64-.56-3.71.49-6.36,2.29-9.25,3.31-5.31,2.4-15-1.11-20.22-2.75-4.11-4.38-8.69-.76-13.38,1.5-1.94,2.88-4,4.34-6,5.15-7,4.6-14.6-.11-21.63-3.09-4.59-4.75-10.39-3-16.06,2.62-8.44,7.1-16.13,10.78-24.15,1.6-3.49,3.37-7,.5-10.78a2.47,2.47,0,0,1,.31-3.22c3.41-4.13,2.19-8.41.36-12.68C-211-6.7-214.2-11-217.53-15.13a21.85,21.85,0,0,1-4.83-15.32c.4-8.95,4.66-16.87,6.6-25.41.58-2.56.49-4.18-1.34-5.63a26.81,26.81,0,0,0-5.05-3.18c-1.92-.93-2.7-2.45-1.47-4,3.13-3.86,1.63-8.08,1.91-12.3A58,58,0,0,0-223-96c-.49-2.58.54-4.8,2.25-6.85,2.77-3.32,6.82-7,6.28-11-.63-4.78,1.92-8.17,2.43-12.26.28-2.22,3.11-3.08,2.75-5.1-1-5.31,2.57-7.86,6-10.52,1.22-1,2.64-1.74,2.14-3.53-2-7.34,2.54-12.44,6.27-17.59,2.52-3.48,2.55-6.1-1-8.22-4-2.35-3.5-4.53-1.08-7.9,2.94-4.1.42-11.93-3.81-13.52-5.75-2.16-5.84-2.2-3.12-8,1.23-2.63,1.54-5.27-1.44-6.2a11.84,11.84,0,0,1-7-6c-2.52-4.42-6.4-6.2-11.22-6-6.06.26-11-1.05-12.51-8.17-5.17,3.38-8.74,8.84-14.54,9.39s-7.31,3.92-8.19,8.52c-1.92,3.49-4,6.84-8.19,8-2.24.65-4.89-.93-6.77.62-5.94,4.89-12.88,6.11-20.22,6.28A5.37,5.37,0,0,0-295.85-193.32Z" transform="translate(575 251)"/><path class="cls-1" d="M581.78-55.59c7.37,11.8,15.5,22.49,25.46,31.69,1.65,1.53,4,2.32,6,3.42,6.9,3.71,10.56,9.6,9.67,16C621.92,3,617.5,7.42,610.17,9a18.26,18.26,0,0,0-7,3.62c-6.7,5-13.81,5.17-20.86.69A45.33,45.33,0,0,1,568-1.83C561.34-12.78,555-23.94,548.51-35A41.46,41.46,0,0,0,541-44.65c0,9.21,0,18.41,0,27.62a33.38,33.38,0,0,1-.52,7.45C539-3.11,535.27,1.18,528.8,2.72S516.63,2.39,512-2.41c-1-1.07-1.88-2.34-2.92-3.41-4.52-4.62-4.47-4.47-9.08.1-5.26,5.22-11.54,8-19,5.66C476.89-1.35,473-.2,469.1-.13c-5.67.1-11.33.25-17,.33C447.66.27,443.35,0,439,2.06c-5,2.36-10.3,1.44-14.59-2C421-2.77,417.07-4.38,413.08-6c-11.92-4.93-15.6-15.61-9.32-26.9a7.63,7.63,0,0,0,1.37-3.65c.08-4.5.33-9,.38-13.5.07-6.48,0-13,0-20-2.66,1.81-4.72,3.68-7.13,4.78-8,3.63-16.74.9-21.91-6.54-1.74-2.5-8.5-4.4-11.14-3.08-2,1-1.16,3-1.17,4.45-.18,18-.36,36-.31,54,0,7.5-1.53,14.14-9,17.43S340.62,3,334.8-3c-1.91-2-4.59-2.64-7-3.77-9.49-4.45-13.42-12.48-10.38-22.52C321.73-43.43,320.24-58,321-72.4c0-.89.35-2.27-1.11-2.29-2.43,0-5.42-.81-7,1.61-3.22,5-6.67,9.53-13,10.83-1.32.27-.82,1.62-.72,2.55a14.21,14.21,0,0,1-1.28,7.82C289-34,281.59-15.4,268.26-.09,258.78,10.78,247.81,19,233,20.55c-6.91.71-14.82,1-19.31-4.37-6.6-7.84-14.74-13.69-22-20.62-2.74-2.62-2.51-6.76-5.14-9.59-2.69,3.54-5.29,7-7.91,10.4-4.76,6.22-12,8.46-19.08,5.93a14.85,14.85,0,0,1-9.78-16.69c1-6.82-1.19-11-6.6-15-9.44-7-18.32-14.71-28.34-22.86,0,4.2,0,7.26,0,10.33.07,9.33.25,18.66.23,28,0,8.24-4.34,14.37-11.28,16.4-7.61,2.23-14.25-.41-18.94-7.4-1.2-1.79-2.66-3.39-4-5.07-4.36-5.39-6.51-11.53-4-18.15,2.54-6.79,2.4-13.67,2.41-20.63,0-7.66,0-15.31,0-23.38-3.09,1.47-2.6,4.06-2.78,6.11-.76,8.63-1.61,17.23-2.82,25.81C72.08-29.54,66.12-22.37,57.26-17,51-13.24,44.17-10.49,37.46-7.6,34-6.12,32.38-4.33,33.93-.37A23.85,23.85,0,0,1,35.22,7c.52,10.28-5.3,17.55-15.42,19.46C7.45,28.78-2.81,23.69-5.76,13.57A47.8,47.8,0,0,1-7.85-.71a6.38,6.38,0,0,0-3.39-6.1C-36.13-22.1-47.11-45.15-48.52-73.55A8.07,8.07,0,0,0-48.75-75c0-.14-.21-.25-.4-.45-2.29.49-2.31,2.29-2.29,4.1.19,18,.28,36,.69,54,.08,3.23,1.6,6.41,2.27,9.65C-47-.51-49.16,5.43-55.06,9.86c-4.37,3.27-9.11,6-13.26,9.64-4.89,4.33-11,4.61-16.88,1.93-6.25-2.84-9-8.21-9.15-14.87-.19-9.17-.13-18.33-.18-27.5v-5.53C-102.2-20-111.07-17.59-119.31-14c-7.07,3.11-13.78.69-19.06-5.82C-141.8-24-145-28.49-149.07-34c0,6.88-.05,12.57,0,18.26.1,10-3.64,16-11.42,18.22-8.11,2.32-14.24-.51-19.62-8.74-2.6-4-6.94-6.6-8.36-11.6-1.35-4.72-1.74-9.47.49-13.64,3-5.59,3-11.48,3.3-17.42s.21-11.67.53-17.49c.39-7-1.09-12.72-7.05-17.51s-4.69-12.26,2.26-15.85c7.1-3.67,14.36-7,21.47-10.64,4.53-2.33,8.51-1.77,12.58,1.15,5.67,4.06,9.7,9.59,13.87,15,6.32,8.13,12.4,16.44,18.86,25,5.85-7.65,11.28-15.39,17.49-22.52,3.89-4.49,8.14-8.58,11.47-13.68,4.77-7.3,15.74-9,23.28-3.91,6.07,4.12,12.83,7.08,18.61,11.59,1.68,1.31,3.08.73,4.65.35,6.12-1.48,11.28-4.89,16.37-8.35,6.18-4.2,12.39-4.24,18.8-.76a8.17,8.17,0,0,0,3.63,1.44c4.85.25,5.32-.35,4-5-1.23-4.17-2.12-8.37-.78-12.76,1.51-5,4.6-8.35,9.75-8.73,4.93-.36,9.89-1,14.79-.91,9.22.08,15.45,6.48,16.25,15.7a33.19,33.19,0,0,1,0,4c-.39,10-.3,10.22,9.26,7.66a19.81,19.81,0,0,1,17.91,3.38c3.86,2.87,7.38,3.56,12.1,1.35,6.87-3.22,14.37-4.91,20.33-10.24,3.79-3.39,8.09-2.49,13.07,1.46C122-98.71,135.1-88.24,148.65-77.45c1.25-4.51.49-8.76.63-12.93.16-4.67.09-9.34.13-14a9.17,9.17,0,0,0-1-4.76c-4.17-7.68-2.89-15.67,3.12-20.82s15-5.32,21.75-.41q5.44,4,10.71,8.15A15.34,15.34,0,0,1,187.2-102a11.7,11.7,0,0,0-2,7c.14,16.66.28,33.33.13,50-.07,8,.19,16,3.16,24,2.83-4.66,6.19-8.66,11.71-10.3a20.21,20.21,0,0,1,18.45,3.11c2.85,2,5.69,4.07,8.39,6.28,2.4,2,3.86,2.11,5.49-1.05a197.87,197.87,0,0,0,9.06-21.08c1-2.59.46-3.54-2.47-3.55a13.09,13.09,0,0,0-7.88,2.23,17.62,17.62,0,0,1-25.06-4.84C200.67-58.4,195.39-66.69,190.24-75a14.88,14.88,0,0,1,3.42-19.78,118.81,118.81,0,0,1,11.72-7.56,13.53,13.53,0,0,1,8.16-2c11.27,1.31,21.65-2.14,31.83-6,8.11-3.11,15.54-2.71,22.9,1.74,5.11,3.08,10,6.53,16,8.08a3.51,3.51,0,0,0,3.85-.82c6.83-5.78,14.33-8.91,23.43-5.75a16.68,16.68,0,0,0,5.44.52c15.33,0,30.66-.13,46-.19,6.64,0,13.19-.08,19.76-2,8-2.29,14.29,1.64,19.33,7.49,1.75,2,2.46,2.39,5.32,1.31a149.24,149.24,0,0,0,21.34-10.22c5.77-3.29,12-1.82,17.4,2a9.27,9.27,0,0,0,6.46,1.89c7.93-.61,15.82.65,23.87-.61,7.07-1.11,13.08,3.17,17.65,8.66,1.43,1.73,1.9,1.83,4.08.54,8-4.73,16.22-9,24.53-13.1a13.27,13.27,0,0,1,12.57.44c3.92,2.28,7.69,2.19,11.84,1.85a70.08,70.08,0,0,1,9.48.36c4.66.25,9.21.26,13.8-1.21a15.35,15.35,0,0,1,15.83,3.33c3.69,3.36,7.42,6.7,10.84,10.33,4,4.23,3.89,11.87-.52,18.6-2.6,4-4.77,7.82-5.06,12.7C591.14-58.86,587-56.8,581.78-55.59Zm-667-21.87c0,16,0,30.52,0,45,0,13,.08,26,.07,39a6.76,6.76,0,0,0,4.23,6.72c2.56,1.17,5.25.93,7-1,3.54-4,8.22-6.18,12.46-9.07s5.38-6.54,3.58-11.27A25.4,25.4,0,0,1-60-16.25c-.74-19.82-.84-39.65-.73-59.48,0-1.87.19-3.27,2.08-4.6,5.16-3.63,4.89-8.81-.61-11.84-5.12-2.81-10-5.89-14.91-9.09-5.35-3.51-10.91-1.59-13.42,4.32A7.81,7.81,0,0,1-89.36-94c-12,10.83-21,24-29.93,37.35-2.09,3.12-3.17,3.3-5.43.1C-132.14-67-139.8-77.33-147.46-87.62a89.33,89.33,0,0,0-11.12-12.83c-1.62-1.47-3.13-2.71-5.69-1.34-6,3.22-12.15,6.24-18.33,9.13-2.79,1.3-2.72,2.45-.44,4,6.61,4.62,8.13,11.36,8,18.85-.12,6.5.15,13-.26,19.49-.47,7.4-.17,14.87-4,21.85-2.3,4.18-1.23,8.8,2.67,12.23,1.75,1.55,3.63,3,4.55,5.23,1.66,4,4.55,5.86,8.71,4.78s5.27-4.44,5.21-8.54c-.14-10.67,0-21.34,0-32V-60.37c9,10.62,17,21.46,25,32.25,5.17,7,6.75,7.29,14.35,3.52a29.58,29.58,0,0,1,3.8-1.23,42.57,42.57,0,0,0,11.65-5.8c-2.5-2.07-4.67-3.85-6.82-5.66-1.62-1.35-2-2.76-.76-4.75A288.16,288.16,0,0,1-85.2-77.46ZM76-90.92a73.33,73.33,0,0,0,6.66,3.85c3.89,1.7,5.28,4.64,5.33,8.71.12,10.16.73,20.32.5,30.47-.15,6.23,1.06,12.71-1.87,18.68-2.78,5.69-1.81,10.6,2.72,15a15.54,15.54,0,0,1,2.77,3.5c2,3.56,4.74,5.84,8.94,4.53,3.92-1.22,5-4.51,4.9-8.34-.19-8.49-.39-17-.46-25.48-.07-9.91,0-19.83,0-29.81,2.09-.13,3.15,1.33,4.38,2.31,12.4,9.82,24.52,20,37.21,29.45,8.53,6.34,14.86,13,11.81,24.68a5.86,5.86,0,0,0,4.05,7.19c3.41,1.22,6.19-.14,8.34-2.88A71.64,71.64,0,0,1,175.78-15c2.91-3,3.65-6.49,2.14-10.11-1.87-4.48-1.82-9.06-1.82-13.71q0-30-.11-60c0-2.88,0-5.33,2.82-7.37a4.67,4.67,0,0,0,.61-7.15c-4.84-4.43-9.59-9.27-16.11-11.31-2.88-.9-5.18.75-6.89,3s-2.45,5-.59,6.93c3.64,3.82,2.85,8.27,2.84,12.69,0,9.16-.06,18.32-.08,27.48,0,5.19,0,10.38,0,16.84-2.8-2.09-4.26-3.12-5.65-4.24-16.12-12.91-32.26-25.79-48.28-38.81-2.46-2-4.16-2.64-6.65-.08s-5.72,4-9.05,5.13C84.94-94.32,81-92.78,76-90.92ZM229.14-79.17c.55-.3.85-.63,1.07-.57,15.34,3.57,30.71-1,46,.2,3.86.31,6.91-1.45,7.81-5.5.8-3.6-.72-6.5-4.25-7.42-5.79-1.51-10.62-4.76-15.5-7.89-5.41-3.47-10.52-3.12-16.56-1.15-10.88,3.53-21.75,8-33.68,6.41a7.43,7.43,0,0,0-5.64,1.53,60.48,60.48,0,0,1-7.91,5.18c-3.67,2-4.52,5.25-2.23,8.88,5,7.89,9.94,15.78,15.1,23.54,3.52,5.29,8.66,6.09,13.72,2.16,1.92-1.49,3.89-2.81,6.21-2.9,6-.24,12-.11,18-.17,1.94,0,2.82.79,2.37,2.75-3.27,14.2-7.91,27.89-16.19,40-3.12,4.56-7.61,5-12.28,1.9-3.73-2.49-7.31-5.22-10.89-7.94-2.61-2-5.39-3.25-8.75-3-3.84.26-6.73,2-8.13,5.62s.08,6.44,3,8.75c4.42,3.55,8.79,7.15,13.18,10.71,1.3,1.05,2.8,2,3.19,3.72.85,3.78,3.83,4.79,7,5.39,10,1.91,18.75-1.16,26.71-7C260-2.92,266.57-12.27,272.65-22.1S282.88-43,288.36-53.29c2.93-5.51,2.12-9.34-3.35-12.55a36.24,36.24,0,0,1-8.2-6.41c-3.38-3.59-7.68-4.74-12.24-2.19a17.49,17.49,0,0,1-9.1,2.09c-5.66-.07-11.36-.42-17,.06S230.92-75,229.14-79.17Zm220.6,13.26c-11.69-.18-12.78-1.59-10.2-12.62.08-.32.17-.65.22-1a2.8,2.8,0,0,1,2.6-2.57,62.55,62.55,0,0,1,25.78.29c5.23,1.25,7,6.25,9.6,10.28a5.53,5.53,0,0,0,.92,1.17,7.78,7.78,0,0,0,9.22,1.45c3.27-1.54,4.79-4.15,4.08-7.71A101.76,101.76,0,0,0,489-88.7C487.27-94,481.11-99,476.64-97.89c-9.62,2.35-19.23-.19-28.79.81-1.73.18-3.31.32-4.9-1.42-4.82-5.28-8.6-5.58-14.31-1.22-4.18,3.19-8.48,5.75-13.84,6.39a6.52,6.52,0,0,0-5.94,5.3,6.39,6.39,0,0,0,3.49,7.54c1.95,1,2.46,2.36,2.45,4.39-.07,13.82.54,27.64-.59,41.45a11,11,0,0,1-1.89,5.53c-4.42,6.57-2.84,11.56,4.4,14.67,4.54,1.95,9.31,3.28,13,7,2.3,2.33,5.65,2.05,8.24-.11a6.72,6.72,0,0,1,5-1.59A266.64,266.64,0,0,0,476.38-10a10.51,10.51,0,0,1,4.9.31c6,2.22,9.85.85,13.68-4.42,3.59-4.93,3.19-10.75,3.68-16.32.31-3.55-.74-6.81-4.8-7.67-4.26-.91-7.32,1-8.4,5.12-1.29,5-4.88,7-9.28,8a79.94,79.94,0,0,1-23.34,1.67c-13.4-.9-13.57-1.18-13.9-14.67s-.32-13.57,13.16-14.6c3-.23,4.92.2,6,3.43A5,5,0,0,0,463.78-46c2.45-.37,4.9-1.11,5.8-4,1.15-3.65,2.57-7.22,3.5-10.92.79-3.11,0-6.06-2.89-7.88-2.71-1.7-6.29-2.51-8.4-.23C458.06-64.94,453.66-66.12,449.74-65.91ZM568.91-60.5c3.4-2.16,7-3,10.48-4,1.6-.46,3.37-.69,3.38-3,0-5.26,2.5-9.47,5.38-13.69,3.61-5.32,3.18-7.45-1.43-12-2-2-4.12-3.88-6.18-5.82-2.28-2.15-5.2-2.94-7.88-1.77C567-98.22,561.24-99,555.44-99s-11.7-1.06-17.25,1.5c-1.53.71-1.85-.28-2.63-1.25-3.66-4.56-7.1-5.16-12.19-2.3-5.63,3.17-10.9,6.9-17.16,9.06a6.23,6.23,0,0,0-.92,11.45c2.8,1.62,3,3.46,3,6-.15,10.49-.21,21-.31,31.49-.05,4.5-.42,8.85-2.42,13.11-2.26,4.85-.79,9.06,3.54,12.32,3.06,2.31,6.31,4.41,8.57,7.57,2.39,3.32,5.45,5.09,9.45,3.73s4.69-4.74,4.69-8.51c0-10.83.35-21.67,0-32.49-.15-4.77,2.39-6.3,6-7.79s6.68-1.07,9.34,2.08c4.55,5.37,8.1,11.39,11.65,17.42,6,10.2,11.27,20.8,18,30.53,2.88,4.12,6,8,10.37,10.68,3.65,2.26,7.12,2.5,10.57-.44A21.83,21.83,0,0,1,607.06.38c3.29-.76,6.24-1.88,6.75-5.64.55-4.09-2.43-6.05-5.55-7.38A29.39,29.39,0,0,1,598.81-19a188.57,188.57,0,0,1-23.62-29.67C572.73-52.43,573.16-57.59,568.91-60.5ZM1.61.71c1,14.44,3.47,17.22,15.05,16.89,6.07-.18,9.55-3.7,9.37-9.85A35.49,35.49,0,0,0,24.78-.11C22.65-8.19,22.88-9.77,32-15c5-2.89,10.54-4.94,15.84-7.36C58.27-27.1,65.11-34.47,65.3-46.7a54.66,54.66,0,0,1,.88-7.93c1.31-8.11.09-16.64,4.68-24.24,1.67-2.76.19-5.84-2.16-8.12-4.25-4.12-9.57-6.58-14.66-9.38a6.38,6.38,0,0,0-5.37-.09c-6.53,2.47-13.13,1.13-19.76.69-2.54-.17-3-1.26-2.83-3.47.39-4.81.74-9.63.89-14.45.24-7.53-3.53-10.72-11-9.22-2.47.5-4.79,1-7.35.4-3.13-.71-4.68.9-4.77,4.06a11.51,11.51,0,0,0,1.55,6.71c2.54,3.95,2.32,8.21,1.62,12.56-.18,1.13-.14,2.79-1.6,2.69-6.94-.51-14.18,2.83-20.84-1.6-2.42-1.61-5.1-2.83-7.93-1.06C-30.75-94.5-38-89.54-47.45-87.79a28.21,28.21,0,0,0,2.77,3.14c4.57,3.59,5.51,8.18,5.72,13.93.76,20.88,9.43,38.15,25.63,51.52C-9-15.65-3.31-13.95-.12-8.87a4.82,4.82,0,0,0,3.5,1.66C8.44-7.08,7.24-3.36,6.9-.74,6.35,3.59,3.44-1.07,1.61.71Zm353-46.53H355c0-8.32-.3-16.66.06-25,.69-15.72-1.4-13.08,14-13.33,6.52-.11,12.44.81,15.78,7.91,1.76,3.74,5.87,4.15,9.65,2.56,3.51-1.48,4.86-4.34,4.17-8.12-.54-3-1-5.91-1.64-8.83-1.57-7.31-7.38-10.89-14.53-8.92-3.21.89-6.34,1.91-9.74,1.92q-28.23.1-56.44.36a21.23,21.23,0,0,1-6.38-.87c-9-2.71-15.63.66-18.81,9.61-1,2.82-2,5.67-2.72,8.56-1.11,4.25.95,7.66,5.25,8.63s7.84-.43,10-4.55c2.49-4.76,6.23-7.79,11.78-8,3.49-.11,7,0,10.48,0,3.14-.07,4.38,1.19,4.28,4.47-.31,9.48,0,19-.58,28.45-.54,8.22,0,16.55-3.39,24.55-2.17,5.12.18,8.8,5.37,11.29,3.28,1.57,7,2.47,9.49,5.32a8,8,0,0,0,9.41,2.62c3.87-1.31,4.21-4.7,4.19-8.2C354.63-25.52,354.65-35.67,354.65-45.82ZM499-66.42c-3.35,4.39-7.17,7-11.65,7.08-4.7,0-6.1,2.58-7.15,6.22-.74,2.55-1.62,5.06-2.44,7.58-1.1,3.4-3.49,5.41-6.7,6.9-7,3.25-13.21,2.39-18.8-2.86-1-.94-2.19-2.38-3.3-1.36-2.07,1.9-.53,4.62-.73,7-.17,2,.58,3,2.81,3.13a114.2,114.2,0,0,0,21.4-.74c1.91-.28,3.63-.76,4.66-3.08,4-9,9.18-11.77,18.91-10.41,2,.27,3.1.34,3-2.21C498.85-54.61,499-60,499-66.42ZM-95-36.72V-49.51C-100.83-41.71-100.83-41.71-95-36.72Z" transform="translate(575 251)"/><path class="cls-1" d="M369.56,40.06c5.29.4,12.46-.82,19.56.73C397,42.51,401.47,47.43,401,55.51c-.37,7,.47,13.89.22,20.84-.41,11.12-4.68,16.53-15.79,17.09a348.19,348.19,0,0,1-36.41,0c-11-.58-15.31-5.73-15.61-16.69-.18-6.49-.16-13,0-19.47.26-11.52,5.3-16.7,16.82-17.17C356.07,39.87,361.9,40.06,369.56,40.06ZM367.7,48v0c-6.16,0-12.32-.15-18.48,0-5.61.18-7.89,2.49-8,8-.15,7.15-.13,14.31,0,21.46.1,5.45,2.06,8,7.36,8.14,12.47.31,25,.21,37.43,0,4.36,0,7.24-2.37,7.41-7.07.14-4,.09-8,.23-12,.08-2.28-1.08-2.78-3.08-2.76-6.82.06-13.65.09-20.47,0-2.33,0-3.21.72-3.22,3.13s1,3.18,3.26,3.09c3.33-.12,6.67.15,10-.07s3.76,1.74,3.67,4.37c-.08,2.4.24,4.66-3.44,4.59-8.49-.17-17-.14-25.46,0-2.86.05-3.8-1.06-3.74-3.81.13-5.65.16-11.31,0-17-.08-2.93,1.16-3.68,3.86-3.64,8.32.11,16.64,0,25,.06,1.39,0,3.22-.55,3.68,1.57,1.05,4.84,4.26.91,6.37,1.49,1.2.34,3.37.11,3.39-2,0-2.31-.33-4.71-2.52-6.21A10.52,10.52,0,0,0,384.67,48Z" transform="translate(575 251)"/><path class="cls-1" d="M-15.66,71.05h3.75C-3,71.12-.62,73.45-.61,82.28c0,8.61-2.68,11.39-11.28,11.42q-19.21.08-38.45,0c-8.55,0-11.4-2.85-11.42-11.33q0-15.73,0-31.46c0-8,2.85-10.86,10.79-10.89Q-31.5,40-12,40c8.16,0,11,2.8,11,10.64.07,8.39-2.51,11.22-10.84,11.23-2.89,0-4.38.46-3.86,3.74A38.32,38.32,0,0,1-15.66,71.05ZM-31.52,85.87c6.49,0,13-.11,19.48,0,2.71.07,3.82-.59,3.84-3.56,0-3.14-1.42-3.48-4-3.45-9.32.1-18.65-.13-28,.12-3.85.1-3.94-2-3.76-4.68.16-2.49-1-5.62,3.59-5.32,4,.25,8,.14,12,0,2.19-.07,5.22,1.24,5.14-3.16-.07-4.1-2.87-2.83-4.9-2.9a100.09,100.09,0,0,0-11.49,0c-3.67.29-4.37-1.27-4.44-4.6-.08-3.64,1.27-4.47,4.64-4.4,9.15.2,18.32,0,27.47.11,2.56,0,3-1.12,3-3.33s-.8-2.9-2.94-2.89q-19.48.09-39,0c-2.37,0-3.19.79-3.17,3.17.1,10.49.12,21,0,31.47,0,2.65.87,3.45,3.46,3.39C-44.18,85.77-37.85,85.87-31.52,85.87Z" transform="translate(575 251)"/><path class="cls-1" d="M169.57,93.72c-6.66,0-13.32.08-20,0-7.37-.12-10.32-3.06-10.37-10.36q-.12-16.47,0-32.95c.06-7.44,2.91-10.29,10.31-10.34q20-.12,40,0c7.57,0,10.39,3.05,10.42,10.75,0,8.27-2.52,11.44-10.41,11-6.58-.32-3.77,4.19-4.2,6.88-.69,4.26,2.85,2.17,4.31,2.23,8.32.33,10.58,2.5,10.61,10.86,0,9.07-2.4,11.83-10.68,11.9C182.89,93.77,176.23,93.72,169.57,93.72Zm.22-7.85c6.15,0,12.31-.05,18.47,0,2.51,0,4.46.12,4.51-3.47s-1.87-3.52-4.4-3.5c-9.32.07-18.65-.11-28,.09-4.26.09-3.31-2.7-3.34-5s-.79-5.18,3.41-5c4.64.25,9.32,0,14,.09,2.35.07,3.23-.73,3.25-3.14s-1-3.12-3.32-3.06c-4.49.11-9-.2-13.47.1-3.74.26-3.89-1.71-3.93-4.54s.41-4.57,4-4.47c9,.24,18,.06,27,.09,2.25,0,4.23.24,4.16-3.19-.05-3.06-1.71-3-3.85-3-12.48,0-25,.07-37.44,0-2.66,0-3.88.54-3.83,3.55q.24,15.47,0,30.95c0,3,1.16,3.6,3.83,3.54C157.14,85.77,163.46,85.87,169.79,85.87Z" transform="translate(575 251)"/><path class="cls-1" d="M58.4,75c0,4.29.16,7.43,0,10.54-.26,4.37-2.62,7-7,7.78a32.13,32.13,0,0,1-9.93.14c-4.85-.62-7.46-3.62-7.51-8.43-.12-12.15-.14-24.3,0-36.45.08-5.23,2.8-8,8-8.5s9.78.08,14.1,3.48c6.33,5,13.05,9.52,20.6,15,0-4-.16-6.92,0-9.81.37-5.45,2.61-7.94,7.91-8.55a40.76,40.76,0,0,1,9,0c4.9.54,7.51,3.32,7.57,8.29.14,12.32.11,24.64,0,36.95,0,4.68-2.71,7.41-7.27,8.06-5.23.74-10.14.25-14.61-3.24C72.82,85.24,66.13,80.63,58.4,75Zm25.87-1.49c-3-2.13-5.43-3.79-7.8-5.5C68,61.9,59.42,55.84,51,49.56a8.35,8.35,0,0,0-8-1.33c-2.5.88-1.18,3.79-1.21,5.76-.13,9.15.08,18.31-.13,27.45-.08,3.43.87,4.51,4.41,4.57,3.76,0,4.93-1,4.72-4.76-.33-6-.08-12-.16-18,0-2.59.79-3,2.83-1.46,2.38,1.8,4.83,3.54,7.25,5.3,7.93,5.77,15.9,11.5,23.78,17.35a8.25,8.25,0,0,0,8,1c2.09-.78,1-3.55,1-5.42.1-9.32-.14-18.64.13-27.95.1-3.77-1.43-4.37-4.67-4.28-3,.07-5,.09-4.84,4.12C84.5,58.86,84.27,65.78,84.27,73.53Z" transform="translate(575 251)"/><path class="cls-1" d="M260.25,79.74c0,2.43.05,3.57,0,4.71a16,16,0,0,1-.42,3.46c-1.36,4.75-5.86,6.42-15.44,5.8-5.79-.37-9.27-2.79-9.37-7.67-.26-12.82-.18-25.64,0-38.46.06-4.25,2.85-7.11,6.94-7.21,14.78-.35,29.62-1.44,44.34.58,7,1,10.88,5,11.41,11.93.55,7.18,1.86,14.74-3.15,21.16-1.43,1.83.11,2.34,1.11,3,4.06,2.63,8.12,5.45,6.08,11.12s-7.31,5.16-12.15,5.64c-8.32.82-15.35-1.32-21.21-7.45C266.24,84.11,263.56,82.41,260.25,79.74Zm33.47,5.52c-3.28-2.37-6.27-4.4-9.12-6.61s-6.18-3.45-8.4-6.68c14.85-1.51,13.95-1.73,13.88-15,0-7-1.8-9-8.77-9-11.65-.11-23.3.05-34.94-.11-3.06,0-4,.89-4,4,.17,9.48.32,19,0,28.44-.18,4.61,1.21,5.66,5.74,5.8,6.74.21,4-4.35,4.59-7.36.45-2.31-1.44-5.87,1.32-6.71,3.28-1,7.23-1.5,10.47,1.13A67.05,67.05,0,0,1,271,78.49C277.09,84.86,284.21,87.68,293.72,85.26Z" transform="translate(575 251)"/><path class="cls-1" d="M450.86,78.79c1.35-4.59-1.16-8.14-5.29-11.43-4.81-3.82-9.11-8.27-13.68-12.41-2.74-2.48-4.72-5.23-3.57-9.16s4.42-5.34,8-5.65c9.3-.82,18.47-.91,24.57,8.12,2.4,3.56,4.81,3.25,7.16-.09,5.49-7.81,13.4-9.05,22.1-8.15,3.64.38,7,1.33,8.45,5.13,1.5,4-.25,7.08-3.19,9.73-5.19,4.68-10.26,9.5-15.57,14-2.34,2-3.62,4-3.31,7.22a54.69,54.69,0,0,1,0,8.49c-.35,5.66-3,8.39-8.66,9a27.08,27.08,0,0,1-3,.06C452.59,93.8,450.86,92.07,450.86,78.79ZM436.45,48.4c4.41,4.09,8.19,8.33,12.69,11.6,7.49,5.46,11.55,12,9.63,21.53-.84,4.19,1.65,4.54,4.94,4.4,2.94-.12,6,.3,5.12-4.19-1.84-9.74,1.74-16.93,9.9-22.35,3.16-2.1,5.75-5.06,8.52-7.7,1.08-1,2.83-1.63,2.88-3.33-7.26-1.89-12.44.67-17.34,5.91-8,8.59-8.77,8.72-16.77-.13C450.48,48,444.38,47,436.45,48.4Z" transform="translate(575 251)"/><path class="cls-2" d="M-364.1,289.31c-1.72-5-1.15-9.85.59-14.64,3.15-8.69,4.38-17.62,4.85-26.85.21-4.12-3-5.88-3.67-9.26-.85-4.5-1-9.18-3.11-13.48a14.39,14.39,0,0,0-3.5-4.69c-5.61-4.95-6.19-10.25-1.57-15.87,2.43-3,3.51-5.36,1.86-9.66-1.58-4.12-3-8.82-2.51-13.61a9,9,0,0,0-.86-5.34c-.38-.72-1-1.91-.71-2.31,4.36-6.09.08-12.9,1.74-19.18,1.35-5.11,1.7-9.74-2.22-14.43-1.83-2.19-1.56-6.29-1.88-9.56-.65-6.82-1-13.78,1-20.35,1.81-6.14-.59-10.6-4.17-14.8-4.61-5.39-6.58-10.51-2.58-17.54,2.68-4.72,5.63-9.87,5.06-15.91a3.28,3.28,0,0,1,1.23-2.6c4.65-2.77,3.79-7.53,4.93-11.77,2.5-9.27,1.15-19.5,7.31-27.91,2.54-3.48,2.24-7.77,1-12-1.9-6.51-4.89-12.76-5.08-19.73a2.92,2.92,0,0,0-.92-2.17c-4.8-2.63-2.91-6.64-3.1-10.77-.52-11.8,2.51-23,4.14-34.47a7,7,0,0,0-3.16-7.31c-5-3.26-6.45-7.77-4.7-13.35,2-6.33,1-12.9,1.62-19.34.08-.88-.68-1.85-1.06-2.77a28.84,28.84,0,0,1-.29-22.76c3.72-9.25,3-11-5.46-16.07-3.81-2.28-4.72-5.76-4.85-9.72,0-.8-.16-2.06.76-2.14,6-.46,3-4.27,2.95-7.19a61.34,61.34,0,0,1,.6-10c.48-3.32.42-6.18-4.24-8,5.26-1.41,5.48-3,2.05-5.94-2.71-2.33-4.59-5.66-6.8-8.57s-6.1-7-8.79-5.48c-6.63,3.65-11.34-1.38-16.91-1.92s-10.52,1.16-15.61,2.68c-.26-3.84,4.46-3.36,5.35-6.19L-418-205c8.92.46,17.57-.16,26-3.89,10.21-4.54,20.77-7.92,32.25-7.16,5.86.4,10.78,3.63,11.55,9.12,1.37,9.82,2.36,19.7,3.17,29.59.54,6.62-.38,13.24-.87,19.87-1.38,18.56,6.89,36,6.57,54.51-.08,4.59,1.73,9.07,3,13.55,1.35,4.93,2.71,10.2.37,15.14-4,8.53-4.67,17.75-6.53,26.79a60.11,60.11,0,0,0,3.12,35.56c5.35,13.3,6.37,26-3.71,37.75-2.47,2.89-3.68,6.68-4.73,10.39a116.14,116.14,0,0,1-5.87,16.34c-4,8.83-6.55,17.86-6.39,27.86.38,23.61.66,47.25-.88,70.85-.29,4.46-.8,8.9-1.35,13.33-1.12,9-1.15,17.76,2.26,26.46,2,5.15,5.55,10.43,3.95,16.18-4.57,16.43.17,32.64.46,48.93,0,.27.37.54.56.81-.06.94-.13,1.89-.19,2.84-1.09.4-2.11.83-.84,2.15.32,3.52-2.55,6.33-2.16,9.85-2.19.69-1.59,2.55-1.73,4.1a6.69,6.69,0,0,0-.27.9c-2.41,1.49-2.62,3.84-2.48,6.32l-.13,2.81C-363.33,287.07-363.72,288.19-364.1,289.31Z" transform="translate(575 251)"/><path class="cls-2" d="M-448.74,246c-1.69-2.56-.87-5.14,0-7.66s1.29-5.28-.71-7.07c-9.07-8.08-9.62-19.15-10.16-29.86-.71-14.13-4.82-27.51-7.59-41.18-1-4.78-3.53-9-5.68-13.27-1.79-3.59-2.12-7,.94-10.12,2.28-2.31,2.22-4.68.31-7.1-4.53-5.78-6.48-11.8-2.75-18.89,1.38-2.63.07-5.25-2.05-7.19s-4.17-3.33-6.11-5.15c-2.57-2.42-3.05-4.14-.89-8.17,7.2-13.48,17.41-26.56,11.17-43.64-1.48-4.07.05-8.26.09-12.4,0-2.6-.21-4.36-2.92-5.46-4.05-1.66-5.39-4.63-3.36-8.78,2.86-5.81,1.6-12,1.83-18.08.57-15.52-5-29.67-8.54-44.28-1.93-8-6.25-15-11.05-21.68-3.28-4.52-3.75-9.08-1.34-14a17.76,17.76,0,0,0,1.9-7.2c.38-10.54,4.81-20,8-29.75,1-3.09,1.88-6-.56-8.91-1.23-1.46-.68-3.15,0-4.72,2.19-4.9,1.83-9.69-.47-14.47a9,9,0,0,1-1.25-4.24c.28-3.43-1.67-5.13-4.16-6.74a60.52,60.52,0,0,1-6.44-4.69c-1.25-1.07-2.21-2.41-.87-4.33s3.85-4.28,2.57-6.56c-2.18-3.86-2.43-8.8-6.42-11.66s-8.41-5.23-13.25-5.35c-5.12-.12-9.79-1.41-14.55-2.91A56.81,56.81,0,0,0-560-191.21c-1.13.2-2.06.26-2.54-.76-.6-1.25.62-1.64,1.39-2.1,1.69-1,3.44-2,5.16-2.92.25.21.5.61.76.62,13.62.52,27.25.69,40.88,0a59,59,0,0,0,22-5.72c6.69-3.13,13.13-2.74,19.62.07,4.33,1.87,8.89,2.48,13.48,3.07,13.31,1.7,15.5,4.41,14.3,17.57-.05.5,0,1,0,1.5-.87,7.65-2.07,15.15-8.54,20.46-5.36,4.39-8.3,10.07-9.78,16.82-1.86,8.5-.07,16.61,2.63,24.39,2.07,6,.77,10.81-1.64,16.12-3.27,7.22-6.13,14.6-3.8,22.91.88,3.14.89,6.55,1.13,9.84A113.35,113.35,0,0,0-453.53-27c4.35,8.8,6.65,17.17,1,26.39a33.54,33.54,0,0,0-3.63,10.26c-1.81,8.31,1.14,16.5.14,24.76a24.86,24.86,0,0,0,1.81,11.7c2.09,5.67,3,11.45,1.28,17.55C-455,71-456.66,78.4-458.42,85.81c-2.46,10.3-5.37,20.5-4.64,31.32.81,12.15,3.24,24,2.47,36.49s1.13,25.1,2.86,37.54c.72,5.24-.84,11.07,2.81,15.83.38,6.82,1,13.68,5.05,19.43C-445.33,232.83-445.29,239.24-448.74,246Z" transform="translate(575 251)"/><path class="cls-3" d="M-358.34,271.83c-.39-3.52,2.48-6.33,2.16-9.85,1-.42,1.15-1.2.84-2.15.06-.95.13-1.9.19-2.84,2-1.54,1.14-3.72,1.12-5.59a198.93,198.93,0,0,1,3.75-41.51c1-4.93,1.08-10.18-1.7-15.06-5.14-9-5.59-19-5-29,.92-14.88,3.1-29.67,3-44.61a32.14,32.14,0,0,1,.27-5.47c1.07-6.45.46-12.84.14-19.32-.55-10.88-1.81-21.86,2-32.6,1.66-4.67,4.54-8.63,5.95-13.56,2.83-9.79,5.59-19.86,12.14-28.15,5.21-6.58,5.33-14.22,3.91-21.87-.94-5-2.93-9.85-4.47-14.76-3-9.56-5.26-19-3.07-29.29,2-9.36,2.7-18.92,6.95-27.82,2.46-5.14,1.9-11.19.38-16.65-2.15-7.74-3.78-15.47-3.22-23.54.37-5.39-1.17-10.46-2.18-15.68-2.76-14.16-5.07-28.27,2.3-42.15,4.64-8.73,8-18.21,5.8-28.49-3.57-16.63-20.39-29.24-38.11-25.17C-382-219.46-397.7-211.91-414.53-208c-1.58.37-3.33.81-3.47,3l-6.82,1.35c-2-.52-3.78.59-5,1.7-3.35,3.07-6.85,3.41-11,2-9.42-3.12-19.31-4.61-28.72-7.59s-18.31-3.12-27.5.94c-13.8,6.1-28.66,5.88-43.37,6.26a8.84,8.84,0,0,1,1.93-1.52c3.83-1.61,8.06-2.1,11.16-5.61,1.26-1.42,4.21-1.6,6.66-1.28,11.31,1.46,22.3,1.42,31.31-7.22a5,5,0,0,1,2.58-1.46,11.71,11.71,0,0,0,9.66-6.74c.94-1.81,3.05-2.54,4.06.2,3.62,9.79,12.06,11,20.71,11.76a35.18,35.18,0,0,0,6.49,0c3.38-.33,6.05.43,8.31,3.23,2.05,2.54,4.54,3.68,7.37.45a10.26,10.26,0,0,1,4.66-2.8,42.46,42.46,0,0,0,15.4-8.62,6.69,6.69,0,0,1,6.53-1.25,39.07,39.07,0,0,0,7.91.95c1.85.13,4.15.1,5.11-1.44,4.73-7.59,12.84-6.74,19.95-8.33,7.31-1.64,14.32-3.81,19.94-9.13,3.25-3.08,5.54-2.77,7.57,1.3,1.65,3.33,4.41,4.91,7.77,5.65,4.33,1,8.24,2.63,11.23,6s6.83,4.53,10.69,6.1c3,1.22,5.87,2.72,2.67,6.91-2.11,2.76-.6,5.11,2.57,5.92,2.88.74,5.89,1,8.81,1.57,1.65.35,3.48,1.11,3.75,2.9s-1.79,2.18-2.92,3a6.49,6.49,0,0,1-3.24,1.14c-4.27.29-6.58,3.11-9.25,6s-4.74,5.09-4.09,9.26c.52,3.31-2.57,4.8-4.59,6.66-2.72,2.49-5.78,4.66-5.36,9a2.3,2.3,0,0,1-.67,1.81c-5.95,4.13-2.89,9.17-1.2,13.81,1,2.74,1.35,5.26-.16,7.62-3.29,5.14-1.47,9.43,2.37,12.89s4.39,7,2.23,11.1c-3.81,7.2-2.82,14,.58,21,2.57,5.29,2.33,11.36,3.51,17,.68,3.32-1.63,6-4.22,8-3.76,2.92-5.9,5.52-4,11.22s-.86,11.81-3,17.39c-1.3,3.37-.59,6.24,0,9.58,2,11.71,8,22.17,10,33.77,1.23,7,.31,13.63-5.43,19-5.45,5.12-9.09,11.37-8.84,19.26a4.07,4.07,0,0,1-.39,2.43c-4.43,5.37-4.29,12.87-8.48,18.25-3.8,4.88-2.52,10.83-4,16.16a2.31,2.31,0,0,0,.6,1.85c4.07,4.17,2.83,8.5.75,13.06-1,2.13-1.11,4.42.83,6.49a4.41,4.41,0,0,1,1.17,4.62c-3,8.21-1.94,16.48-.44,24.76.41,2.24.32,4.44-1.71,5.89-3.26,2.33-3,5.22-2.43,8.8a69,69,0,0,1-1.12,27.14c-2,7.86,1.45,13.65,4.32,19.93.88,1.91,2.56,3.47,3.9,5.17,3.45,4.35,3.84,8.83.15,13.15-3.4,4-1.82,8.54-2,12.9-.06,1.31.56,2.86.06,3.91-2.54,5.39-1.75,11.33-2.91,16.65a148.11,148.11,0,0,0-2.86,14.59,52.54,52.54,0,0,0-.39,5.46,34.84,34.84,0,0,1-8.82,23.17,45.39,45.39,0,0,0-3.69,5.9l-1.5-.21c.05-.94.09-1.87.13-2.81,2.73-1.36,2-4.08,2.48-6.32a6.69,6.69,0,0,1,.27-.9A3.73,3.73,0,0,0-358.34,271.83Z" transform="translate(575 251)"/><path class="cls-2" d="M-242.82,221.29c-.27.78-.86,1.93-1.16.23-.83-4.57-.48-9.51-2.06-13.76-4.29-11.53-.07-22.47,1.3-33.62.4-3.31-.63-6.23-1.89-9.17a85.89,85.89,0,0,1-4.09-10.16c-1.18-4.21-2.92-8.9,3.32-11.12a3.48,3.48,0,0,0,1.91-2.21c1.68-8.23,5.71-16.51,1.37-24.89-2.56-5-3.13-9.22.68-13.71a17.43,17.43,0,0,0,3.95-14c-.56-4.42,1-8.58,1.64-12.82.91-5.86-2.05-11.47-.67-17.18,1.47-6.07-.22-12.69,3.34-18.37a1.62,1.62,0,0,0,.09-1.43c-3.95-5.27-2.52-11.42-3.11-17.28a16.17,16.17,0,0,0-3.06-7.17c-5.1-7.32-4.22-15.15-2.55-23.13a19.71,19.71,0,0,1,1-3.86c5.2-12-.94-21-7.74-29.83-1.31-1.69-2.22-3.25-2-5.38A11.3,11.3,0,0,0-254-53.8c-1.43-2.77-2.31-5.55.48-8.21a3.62,3.62,0,0,0,.79-2.75,26.8,26.8,0,0,1,1.65-13.15c1.5-4.26-1.38-7.29-4.32-9.88-3.54-3.12-5-5.67-.16-9.31,3.78-2.87,6.79-6.82,9.47-10.88,1.28-1.92,1.83-3.21-.8-4.66-3.15-1.73-4.13-4.41-2.36-8,2.28-4.66,3.94-9.43,1.35-14.76-1.07-2.22-.39-5,.28-7.38a18.33,18.33,0,0,0,.29-8.89c-.2-1-.66-2.29-.23-2.89,2.67-3.69,1-5.59-1-9.54-4.32-8.54-13.07-6.68-18.84-11-.52-.39-2.12.59-3.18,1-6.73,2.64-12.73,1.42-17.9-3.53-2.75-2.64-6.05-2.37-9.38-2.34-3.71,0-7.48,1-11.77-.6l8.56-7.5c0,1.61.23,3.16,2.35,3,7.25-.43,14.51.86,21.79-1.33,6.82-2.05,11.92-6.33,17.3-10.47,6.28-4.85,11.54-4,16.28,2.26,1.18,1.58,2.48,3.09,3.81,4.57,10.64,11.88,16,26.09,14.09,41.64-2.1,16.85-6.91,33.34-9.86,50.11-2.68,15.26-4.85,30.62.84,45.88a25,25,0,0,1,1.24,11.77c-1.67,13.45-2.46,27.12,3.9,39.54,5.08,9.92,4.48,20,2.95,30.08-2.58,16.89-5.43,33.69-4.68,50.87a14.7,14.7,0,0,1-.32,5.44,69.88,69.88,0,0,0-3.84,32.19c1.26,10.87-1.09,21.8-1.69,32.71-.52,9.61-.85,19.06-3.87,28.41-2.11,6.54-3.64,13.57-3.1,20.53C-243.26,206.52-244.21,214-242.82,221.29Z" transform="translate(575 251)"/><path class="cls-4" d="M-242.82,221.29c-1.39-7.33-.44-14.77-1-22.15-.54-7,1-14,3.1-20.53,3-9.35,3.35-18.8,3.87-28.41.6-10.91,3-21.84,1.69-32.71a69.88,69.88,0,0,1,3.84-32.19,14.7,14.7,0,0,0,.32-5.44c-.75-17.18,2.1-34,4.68-50.87,1.53-10,2.13-20.16-2.95-30.08-6.36-12.42-5.57-26.09-3.9-39.54a25,25,0,0,0-1.24-11.77c-5.69-15.26-3.52-30.62-.84-45.88,3-16.77,7.76-33.26,9.86-50.11,1.94-15.55-3.45-29.76-14.09-41.64-1.33-1.48-2.63-3-3.81-4.57-4.74-6.31-10-7.11-16.28-2.26-5.38,4.14-10.48,8.42-17.3,10.47-7.28,2.19-14.54.9-21.79,1.33-2.12.13-2.33-1.42-2.35-3,.44-3,2.82-4.11,5.18-5.23-.41,4.82,3.23,3.46,5.41,3.11,8.75-1.4,16.87-4.38,23.37-10.78,4.22-1.12,6.27-4.47,8.19-8a13.73,13.73,0,0,0,4.83-1c8.7-3.11,16.76-1.92,24.3,3.6,6.57,4.81,9.81,12,13.26,18.79,6.92,13.68,9.54,28,3.39,42.9-2.94,7.16-5.3,14.56-7.94,21.85-3.32,9.2-5,18.87-7.35,28.32-3.07,12.5-3.81,25.61,0,38.23a42.83,42.83,0,0,1,1.18,20,49.64,49.64,0,0,0,4.07,31c3.27,6.77,5.64,13.86,5.12,21.55a158.75,158.75,0,0,1-3.42,22.53c-2.46,11.54-4.89,23.18-3.23,35,1,7.32.81,14.15-2.19,20.9A22.54,22.54,0,0,0-229,105.39c.31,5,.67,9.9,1,14.86.59,8.51-1.7,16.81-1.9,25.23-.26,10.83-.74,21.42-4.83,31.73-2.35,5.93-4.25,12.29-3.2,19-2.69,5.66-2.71,11.47-1.09,17.4C-238,217.23-240,219.49-242.82,221.29Z" transform="translate(575 251)"/><path class="cls-3" d="M-237.92,196.17c-1.05-6.67.85-13,3.2-19,4.09-10.31,4.57-20.9,4.83-31.73.2-8.42,2.49-16.72,1.9-25.23-.35-5-.71-9.91-1-14.86a22.54,22.54,0,0,1,2.13-10.64c3-6.75,3.21-13.58,2.19-20.9-1.66-11.8.77-23.44,3.23-35A158.75,158.75,0,0,0-218,16.34c.52-7.69-1.85-14.78-5.12-21.55a49.64,49.64,0,0,1-4.07-31,42.83,42.83,0,0,0-1.18-20c-3.79-12.62-3.05-25.73,0-38.23,2.31-9.45,4-19.12,7.35-28.32,2.64-7.29,5-14.69,7.94-21.85,6.15-14.94,3.53-29.22-3.39-42.9-3.45-6.8-6.69-14-13.26-18.79-7.54-5.52-15.6-6.71-24.3-3.6a13.73,13.73,0,0,1-4.83,1c.88-4.6,2.35-8,8.19-8.52s9.37-6,14.54-9.39c1.51,7.12,6.45,8.43,12.51,8.17,4.82-.21,8.7,1.57,11.22,6a11.84,11.84,0,0,0,7,6c3,.93,2.67,3.57,1.44,6.2-2.72,5.81-2.63,5.85,3.12,8,4.23,1.59,6.75,9.42,3.81,13.52-2.42,3.37-2.9,5.55,1.08,7.9,3.58,2.12,3.55,4.74,1,8.22-3.73,5.15-8.3,10.25-6.27,17.59.5,1.79-.92,2.57-2.14,3.53-3.39,2.66-6.92,5.21-6,10.52.36,2-2.47,2.88-2.75,5.1-.51,4.09-3.06,7.48-2.43,12.26.54,4-3.51,7.68-6.28,11-1.71,2-2.74,4.27-2.25,6.85a58,58,0,0,1,1.32,15.09c-.28,4.22,1.22,8.44-1.91,12.3-1.23,1.52-.45,3,1.47,4a26.81,26.81,0,0,1,5.05,3.18c1.83,1.45,1.92,3.07,1.34,5.63-1.94,8.54-6.2,16.46-6.6,25.41a21.85,21.85,0,0,0,4.83,15.32C-214.2-11-211-6.7-208.85-1.75c1.83,4.27,3,8.55-.36,12.68a2.47,2.47,0,0,0-.31,3.22c2.87,3.77,1.1,7.29-.5,10.78-3.68,8-8.16,15.71-10.78,24.15-1.76,5.67-.1,11.47,3,16.06,4.71,7,5.26,14.66.11,21.63-1.46,2-2.84,4-4.34,6-3.62,4.69-2,9.27.76,13.38,3.51,5.23,4.42,14.91,1.11,20.22-1.8,2.89-2.85,5.54-2.29,9.25,1.19,7.81-.35,15.9,2.38,23.64,1.14,3.22-.28,6.26-2.42,8.79a43.11,43.11,0,0,0-7.92,14.9A42.62,42.62,0,0,1-237.92,196.17Z" transform="translate(575 251)"/><path class="cls-4" d="M-540.41-200.3c14.71-.38,29.57-.16,43.37-6.26,9.19-4.06,18-4,27.5-.94s19.3,4.47,28.72,7.59c4.15,1.38,7.65,1,11-2,1.22-1.11,3-2.22,5-1.7-.89,2.83-5.61,2.35-5.35,6.19-2.89,2.42-1.32,5-.36,7.64-3.92-.52-5.79,1.61-6.46,5.13-1,5.3-1.95,10.62-2.88,15.93A8,8,0,0,0-439-163c-5.23,1.45-8.06,5.32-10.08,10-5.5,1.93-7.11,6.55-7.89,11.64a41.58,41.58,0,0,0,2.65,21.85c2.32,5.89,1.77,11.65-1,17.36-2,4-4,8.08-4.62,12.58-1.44,10.81,1.37,21.37,2.89,31.86,1.82,12.47,6.41,24.41,12.53,35.59,3.09,5.65,3.69,11.43.52,17.15a50.57,50.57,0,0,0-6,29.79,72.87,72.87,0,0,1,0,9,26.07,26.07,0,0,0,2.89,13,20.19,20.19,0,0,1,1.37,15c-2.66,9.76-5,19.6-7.83,29.32-3.48,12.17-5.25,24.53-2.08,36.85,2.62,10.18,1,20.15.34,30.16a207.62,207.62,0,0,0,.05,32.8c.46,5.31,1.08,10.7.35,16.08-3.65-4.76-2.09-10.59-2.81-15.83-1.73-12.44-3.63-25.12-2.86-37.54s-1.66-24.34-2.47-36.49c-.73-10.82,2.18-21,4.64-31.32,1.76-7.41,3.46-14.84,5.53-22.15,1.73-6.1.81-11.88-1.28-17.55A24.86,24.86,0,0,1-456,34.41c1-8.26-1.95-16.45-.14-24.76A33.54,33.54,0,0,1-452.49-.61c5.61-9.22,3.31-17.59-1-26.39A113.35,113.35,0,0,1-465-69.35c-.24-3.29-.25-6.7-1.13-9.84-2.33-8.31.53-15.69,3.8-22.91,2.41-5.31,3.71-10.15,1.64-16.12-2.7-7.78-4.49-15.89-2.63-24.39,1.48-6.75,4.42-12.43,9.78-16.82,6.47-5.31,7.67-12.81,8.54-20.46,0-.49,0-1,0-1.5,1.2-13.16-1-15.87-14.3-17.57-4.59-.59-9.15-1.2-13.48-3.07-6.49-2.81-12.93-3.2-19.62-.07a59,59,0,0,1-22,5.72c-13.63.7-27.26.53-40.88,0-.26,0-.51-.41-.76-.62,2.91-2.45,6.44-1.93,9.85-2.18A44.39,44.39,0,0,0-540.41-200.3Z" transform="translate(575 251)"/><path class="cls-3" d="M-454.92,207c.73-5.38.11-10.77-.35-16.08a207.62,207.62,0,0,1-.05-32.8c.7-10,2.28-20-.34-30.16-3.17-12.32-1.4-24.68,2.08-36.85,2.79-9.72,5.17-19.56,7.83-29.32a20.19,20.19,0,0,0-1.37-15,26.07,26.07,0,0,1-2.89-13,72.87,72.87,0,0,0,0-9A50.57,50.57,0,0,1-444-5c3.17-5.72,2.57-11.5-.52-17.15-6.12-11.18-10.71-23.12-12.53-35.59-1.52-10.49-4.33-21-2.89-31.86.6-4.5,2.66-8.56,4.62-12.58,2.79-5.71,3.34-11.47,1-17.36A41.58,41.58,0,0,1-457-141.37c.78-5.09,2.39-9.71,7.89-11.64a34.21,34.21,0,0,0-.18,14.32c.59,2.92.94,6.07,0,8.92-1.17,3.51.41,4.21,3.25,3.94,4.22-.41,4.35,2.37,3.82,5.12-.93,4.89-1.88,9.86-5.44,13.72-4.59,5-5.4,11.25-6.19,17.56-.24,1.92-.11,3.72,1.79,4.79,3,1.69,3.41,4.47,2.8,7.36-1.57,7.41-1.44,13.86,2.5,21.27,3.12,5.88,3.73,13.57,6.63,20.12,1.69,3.84,3.49,7.56,6.5,10.55,3.24,3.24,3.63,7.15.77,10.33-5.54,6.16-7.46,14.12-11.43,21-1.2,2.09-1,3.67.88,5.21,3.08,2.49,3.75,5.53,2.41,9.36-.92,2.63-1.1,5.53-1.61,8.3-.9,4.87-.83,9.21,4.58,11.78,3.23,1.54,3.53,4.66,2.63,7.8-3.74,13.1-7.09,26.33-11.46,39.21-3.53,10.39-5.67,20.34-1.36,31.06,1.81,4.52,1.68,9.69,3.76,14.36,1.33,3-1.27,6-2.32,8.94s-1.82,5.64-.68,8.7c1.27,3.4.16,6.57-1.41,9.58-1.66,3.19-1.9,6.25,0,9.48,3.1,5.21,1.57,11,.4,16.06-3.08,13.24-.16,26.14.8,39.16.13,1.87,1.32,3.76,2.34,5.45,2.55,4.23,3.05,8.39.21,12.65a6.14,6.14,0,0,0-.71,5.72l-.75.63a6.24,6.24,0,0,1-2.18-3.48c3.45-6.74,3.41-13.15-1.13-19.56C-453.95,220.67-454.54,213.81-454.92,207Z" transform="translate(575 251)"/><path class="cls-3" d="M-439-163a8,8,0,0,1-.86-5.74c.93-5.31,1.87-10.63,2.88-15.93.67-3.52,2.54-5.65,6.46-5.13,2,3.08,2.47,5.78-.81,8.59-2.6,2.22-1.91,5.29-.79,8.22,1.53,4,1.73,7.6-3.48,9.07-.89,0-1.8,0-2.35.87Z" transform="translate(575 251)"/><path class="cls-3" d="M-267.07-201c-6.5,6.4-14.62,9.38-23.37,10.78-2.18.35-5.82,1.71-5.41-3.11a5.37,5.37,0,0,1,1.79-.77c7.34-.17,14.28-1.39,20.22-6.28C-272-201.92-269.31-200.34-267.07-201Z" transform="translate(575 251)"/><path class="cls-4" d="M-362.95,286l1.5.21c-.92,1,1.07,4.49-2.65,3.14C-363.72,288.19-363.33,287.07-362.95,286Z" transform="translate(575 251)"/><path class="cls-3" d="M-445.81,248.83c.74.57,2.11,1.49,1.44,2.07-1.39,1.2-1.68-.56-2.18-1.44Z" transform="translate(575 251)"/><path class="cls-4" d="M-438-163.06c.55-.91,1.46-.87,2.35-.87A2.38,2.38,0,0,1-438-163.06Z" transform="translate(575 251)"/><path class="cls-5" d="M-85.2-77.46A288.16,288.16,0,0,0-111-42c-1.22,2-.86,3.4.76,4.75,2.15,1.81,4.32,3.59,6.82,5.66a42.57,42.57,0,0,1-11.65,5.8,29.58,29.58,0,0,0-3.8,1.23c-7.6,3.77-9.18,3.45-14.35-3.52-8-10.79-15.95-21.63-25-32.25v13.65c0,10.66-.09,21.33,0,32,.06,4.1-1,7.43-5.21,8.54S-170.44-7-172.1-11c-.92-2.21-2.8-3.68-4.55-5.23-3.9-3.43-5-8-2.67-12.23,3.85-7,3.55-14.45,4-21.85.41-6.48.14-13,.26-19.49.13-7.49-1.39-14.23-8-18.85-2.28-1.6-2.35-2.75.44-4,6.18-2.89,12.31-5.91,18.33-9.13,2.56-1.37,4.07-.13,5.69,1.34a89.33,89.33,0,0,1,11.12,12.83c7.66,10.29,15.32,20.59,22.74,31.05,2.26,3.2,3.34,3,5.43-.1C-110.39-70-101.35-83.19-89.36-94a7.81,7.81,0,0,0,1.76-2.92c2.51-5.91,8.07-7.83,13.42-4.32,4.88,3.2,9.79,6.28,14.91,9.09,5.5,3,5.77,8.21.61,11.84-1.89,1.33-2.07,2.73-2.08,4.6-.11,19.83,0,39.66.73,59.48a25.4,25.4,0,0,0,2.12,8.16c1.8,4.73.6,8.43-3.58,11.27s-8.92,5.11-12.46,9.07c-1.72,1.93-4.41,2.17-7,1a6.76,6.76,0,0,1-4.23-6.72c0-13-.05-26-.07-39C-85.21-46.94-85.2-61.41-85.2-77.46Zm-28.13,45c-1.21-1.52-2.37-2.91-3.45-4.36s-1.62-3.15-.47-5.06c9.53-15.9,20.23-30.92,33.06-44.36.78-.81,1.61-2,2.91-1.4S-80-85.8-80-84.6s0,2.34,0,3.5q0,42.22,0,84.45c0,1.56-.81,3.59,1,4.56C-76.78,9-76.24,6.63-75,5.71c1.59-1.19,3.29-2.26,5-3.31,7.55-4.7,7.54-4.69,5.35-13.46A14.49,14.49,0,0,1-65-13.53c-1.7-22-.73-43.95-1-65.92,0-2.1.24-3.93,2.71-4.72,3.65-1.16,2.7-2.57.12-4.07-3.74-2.18-7.49-4.34-11.11-6.71-5.31-3.46-5.21-3.51-8.47,1.89a16.34,16.34,0,0,1-2.84,2.79c-2.27,2.19-4.66,4.27-6.79,6.59C-102.13-73-110.29-61-118.2-48.84c-3.41,5.25-3.55,5.23-7.35,0-10-13.75-19.59-27.75-30.37-40.9-6-7.27-5.9-7.14-14.46-3.07-3.83,1.82-6.77,3.26-2.37,7.54.85.83,1.12,2.41,1.34,3.7,2.77,16.41,1.84,32.79-.37,49.16-6,7.4-1.57,12.64,3.64,17.72,1.1,1.07,1,3.81,3.17,3.21s1.14-2.85,1.15-4.37c.06-16.5,0-33,.14-49.48,0-3.14-1.71-8.11,1.19-9s4.62,4,6.55,6.62c9.29,12.39,18.4,24.91,27.62,37.35,1,1.38,2.29,4.13,4,2.77C-121-30.24-116.72-30-113.33-32.47Z" transform="translate(575 251)"/><path class="cls-5" d="M76-90.92c5-1.86,9-3.4,13-4.82,3.33-1.18,6.6-2.61,9.05-5.13s4.19-1.92,6.65.08c16,13,32.16,25.9,48.28,38.81,1.39,1.12,2.85,2.15,5.65,4.24,0-6.46,0-11.65,0-16.84,0-9.16.08-18.32.08-27.48,0-4.42.8-8.87-2.84-12.69-1.86-2-1-4.79.59-6.93s4-3.89,6.89-3c6.52,2,11.27,6.88,16.11,11.31a4.67,4.67,0,0,1-.61,7.15c-2.79,2-2.83,4.49-2.82,7.37q.12,30,.11,60c0,4.65,0,9.23,1.82,13.71,1.51,3.62.77,7.12-2.14,10.11a71.64,71.64,0,0,0-4.54,5.94c-2.15,2.74-4.93,4.1-8.34,2.88a5.86,5.86,0,0,1-4.05-7.19C161.9-25.13,155.57-31.76,147-38.1c-12.69-9.44-24.81-19.63-37.21-29.45-1.23-1-2.29-2.44-4.38-2.31,0,10-.06,19.9,0,29.81.07,8.5.27,17,.46,25.48.08,3.83-1,7.12-4.9,8.34-4.2,1.31-6.94-1-8.94-4.53a15.54,15.54,0,0,0-2.77-3.5c-4.53-4.35-5.5-9.26-2.72-14.95,2.93-6,1.72-12.45,1.87-18.68C88.69-58,88.08-68.2,88-78.36c0-4.07-1.44-7-5.33-8.71A73.33,73.33,0,0,1,76-90.92Zm12.88,1.21c3.67,3.27,3.9,7.35,4.3,11.54,1.27,13,.5,26,.67,39,.05,4.37-.41,8.61-2.52,12.59-1.22,2.3-1.57,4.78.4,7s4.11,4.36,5.52,7.06a1.78,1.78,0,0,0,2,1.18,1.91,1.91,0,0,0,1.38-1.87,44.27,44.27,0,0,0,.19-6c-1-18.48-.63-37-.87-55.47,0-1.59-.83-3.79.7-4.66,1.84-1.05,3.3,1,4.71,2,17.07,12.23,33,25.93,49.54,38.83,7.57,5.91,11.92,12.31,9.22,22.11A8,8,0,0,0,164-14c0,1-.25,2.17,1,2.54s1.8-.62,2.41-1.4c3.67-4.66,8.23-9.06,3.88-15.77-.55-.85-.27-2.28-.28-3.44q0-35.75-.08-71.49c0-2.32-.4-4.73,2.86-5.51,1.79-.43,1.27-1.73.21-2.56-3.14-2.45-6.32-4.86-9.56-7.19a2.3,2.3,0,0,0-3.2.2c-.83.92-.4,1.92.31,2.67,2.59,2.68,2.47,6,2.45,9.37-.06,16.16,0,32.33-.17,48.49,0,3,1.82,7.38-1.14,8.75-2.76,1.28-5.4-2.53-7.8-4.44C138-67.11,121.32-80.61,104.55-94c-1.35-1.08-2.59-3-4.69-1.39C96.67-93,92.84-91.78,88.85-89.71Z" transform="translate(575 251)"/><path class="cls-5" d="M229.14-79.17c1.78,4.16,3.78,7.36,9.35,6.88s11.32-.13,17-.06a17.49,17.49,0,0,0,9.1-2.09c4.56-2.55,8.86-1.4,12.24,2.19a36.24,36.24,0,0,0,8.2,6.41c5.47,3.21,6.28,7,3.35,12.55C282.88-43,278.8-32,272.65-22.1S260-2.92,250.5,4c-8,5.85-16.71,8.92-26.71,7-3.19-.6-6.17-1.61-7-5.39-.39-1.75-1.89-2.67-3.19-3.72-4.39-3.56-8.76-7.16-13.18-10.71-2.88-2.31-4.36-5.15-3-8.75s4.29-5.36,8.13-5.62c3.36-.23,6.14,1,8.75,3,3.58,2.72,7.16,5.45,10.89,7.94,4.67,3.12,9.16,2.66,12.28-1.9,8.28-12.13,12.92-25.82,16.19-40,.45-2-.43-2.76-2.37-2.75-6,.06-12-.07-18,.17-2.32.09-4.29,1.41-6.21,2.9-5.06,3.93-10.2,3.13-13.72-2.16-5.16-7.76-10.14-15.65-15.1-23.54-2.29-3.63-1.44-6.87,2.23-8.88a60.48,60.48,0,0,0,7.91-5.18,7.43,7.43,0,0,1,5.64-1.53c11.93,1.61,22.8-2.88,33.68-6.41,6-2,11.15-2.32,16.56,1.15,4.88,3.13,9.71,6.38,15.5,7.89,3.53.92,5.05,3.82,4.25,7.42-.9,4.05-3.95,5.81-7.81,5.5-15.34-1.24-30.71,3.37-46-.2C230-79.8,229.69-79.47,229.14-79.17Zm18.11,12.1c-3.54,0-6.54-.1-9.53,0-3.94.16-7.67.15-10-3.92-2.18-3.85-7.12-8-5.23-11.72,2.22-4.41,8.68-2.91,12.88-1.89,13.83,3.36,27.43-2.74,41.14-.33a1.66,1.66,0,0,0,2-1c.39-1.35-.72-1.74-1.66-2-6-1.44-10.68-5.33-15.87-8.28-2.51-1.43-5.18-2.87-8-1.53-8.87,4.16-18.57,5.13-27.87,7.62-3.61,1-7.08,3.09-10.91.37-1.18-.84-2.5.31-3.6,1.1a45,45,0,0,1-5.79,3.88c-2.41,1.2-2.08,2.44-.87,4.3,4.52,7,8.95,14,13.43,21.05,1.79,2.8,4,3.36,6.66,1.14A16.42,16.42,0,0,1,235.15-62c5.33,0,10.66,0,16,0,6.33.06,9,2.94,7.63,9.18-3.16,14.39-8,28.2-16.13,40.61-5.32,8.13-13.53,9.41-21.51,3.71-3.92-2.81-7.74-5.78-11.76-8.46-2.26-1.5-5-1.85-6.59.84s1.29,3.28,2.66,4.45C210.39-7.45,216.73-4.14,220,1.11c3.15,5.09,6.65,5.1,11.07,5C236.57,6,241.44,3.88,245.88.78c9.06-6.31,15.52-14.94,21.34-24.17,6.69-10.6,11-22.38,17-33.31,1.11-2,.08-3.27-1.4-4.14a37.64,37.64,0,0,1-10.14-8,4.09,4.09,0,0,0-5.06-1.1C261-65.82,253.76-67.5,247.25-67.07Z" transform="translate(575 251)"/><path class="cls-5" d="M449.74-65.91c3.92-.21,8.32,1,12.05-3.06,2.11-2.28,5.69-1.47,8.4.23,2.93,1.82,3.68,4.77,2.89,7.88-.93,3.7-2.35,7.27-3.5,10.92-.9,2.87-3.35,3.61-5.8,4a5,5,0,0,1-5.66-3.23c-1.12-3.23-3-3.66-6-3.43-13.48,1-13.49,1-13.16,14.6s.5,13.77,13.9,14.67A79.94,79.94,0,0,0,476.16-25c4.4-1,8-3,9.28-7.95,1.08-4.12,4.14-6,8.4-5.12,4.06.86,5.11,4.12,4.8,7.67-.49,5.57-.09,11.39-3.68,16.32-3.83,5.27-7.66,6.64-13.68,4.42a10.51,10.51,0,0,0-4.9-.31,266.64,266.64,0,0,1-33.44.88,6.72,6.72,0,0,0-5,1.59c-2.59,2.16-5.94,2.44-8.24.11-3.71-3.76-8.48-5.09-13-7-7.24-3.11-8.82-8.1-4.4-14.67a11,11,0,0,0,1.89-5.53c1.13-13.81.52-27.63.59-41.45,0-2-.5-3.36-2.45-4.39A6.39,6.39,0,0,1,408.86-88a6.52,6.52,0,0,1,5.94-5.3c5.36-.64,9.66-3.2,13.84-6.39,5.71-4.36,9.49-4.06,14.31,1.22,1.59,1.74,3.17,1.6,4.9,1.42,9.56-1,19.17,1.54,28.79-.81C481.11-99,487.27-94,489-88.7A101.76,101.76,0,0,1,492-76.59c.71,3.56-.81,6.17-4.08,7.71a7.78,7.78,0,0,1-9.22-1.45,5.53,5.53,0,0,1-.92-1.17c-2.57-4-4.37-9-9.6-10.28a62.55,62.55,0,0,0-25.78-.29,2.8,2.8,0,0,0-2.6,2.57c-.05.32-.14.65-.22,1C437-67.5,438.05-66.09,449.74-65.91Zm-12.31-25c-1-2.37,2.84-3.45.53-5.32-2-1.65-4.06-.94-5.9.51-4.63,3.64-9.44,6.82-15.54,7.42-1.09.11-2.47.4-2.37,2a2.09,2.09,0,0,0,2.06,1.85c3.42.31,3.77,2.52,3.75,5.28-.08,13.83,0,27.65-.18,41.47-.07,4.08-.24,8.26-3.24,11.75-2.42,2.83-1.49,5.18,1.93,6.6,3.68,1.53,7.4,3,11,4.72,2.4,1.15,4.53,6.57,7,.05.16-.41,1.88-.42,2.82-.29,9.63,1.37,19.24.52,28.88.25,5.58-.16,11.33-2.67,16.95.6,1.74,1,3.39-.71,4.68-2.08C493.52-20,493-25,493.13-29.8c0-1,.56-2.66-1.07-2.88-1.42-.19-1.74,1.27-2.05,2.38-1.57,5.6-5.68,8.68-10.92,9.93a83.73,83.73,0,0,1-38.56.54,6.42,6.42,0,0,1-5.32-5.23,75.31,75.31,0,0,1-.89-26.27c.44-3.43,2.49-5.33,6-5.55,5.31-.35,10.62-.66,15.93-1,3.2-.21,5.67.47,5.87,4.33.05,1,.44,2.11,1.57,2.25,1.35.17,1.41-1.1,1.7-2,.8-2.53,1.64-5,2.4-7.6.4-1.33.53-2.66-.95-3.5a2.45,2.45,0,0,0-3.48.88,5.87,5.87,0,0,1-5.07,2.69q-10-.1-20-.21c-2.53,0-4.16-1.2-4.3-3.84a70.76,70.76,0,0,1,.54-15.93c.63-3.6,2.66-5.81,6.2-6.18,15.4-1.61,31.7-6,41.25,12.24a2.66,2.66,0,0,0,1.42,1.29c1.66.47,3.57-.2,3.27-1.86-.9-5-.84-10.45-4.47-14.55-3.09-3.49-6.95-3.32-10.94-1.49a3.76,3.76,0,0,1-2,.27C458.71-92.61,448.11-92.18,437.43-90.93Z" transform="translate(575 251)"/><path class="cls-5" d="M568.91-60.5c4.25,2.91,3.82,8.07,6.28,11.82A188.57,188.57,0,0,0,598.81-19a29.39,29.39,0,0,0,9.45,6.37c3.12,1.33,6.1,3.29,5.55,7.38-.51,3.76-3.46,4.88-6.75,5.64a21.83,21.83,0,0,0-9.24,4.78c-3.45,2.94-6.92,2.7-10.57.44C582.9,2.89,579.76-1,576.88-5.08c-6.78-9.73-12.07-20.33-18-30.53-3.55-6-7.1-12-11.65-17.42-2.66-3.15-5.59-3.62-9.34-2.08s-6.17,3-6,7.79c.34,10.82,0,21.66,0,32.49,0,3.77-.77,7.18-4.69,8.51s-7.06-.41-9.45-3.73c-2.26-3.16-5.51-5.26-8.57-7.57-4.33-3.26-5.8-7.47-3.54-12.32,2-4.26,2.37-8.61,2.42-13.11.1-10.5.16-21,.31-31.49,0-2.59-.2-4.43-3-6A6.23,6.23,0,0,1,506.21-92c6.26-2.16,11.53-5.89,17.16-9.06,5.09-2.86,8.53-2.26,12.19,2.3.78,1,1.1,2,2.63,1.25,5.55-2.56,11.46-1.58,17.25-1.5s11.57.83,17.22-1.62c2.68-1.17,5.6-.38,7.88,1.77,2.06,1.94,4.16,3.84,6.18,5.82,4.61,4.5,5,6.63,1.43,12-2.88,4.22-5.35,8.43-5.38,13.69,0,2.26-1.78,2.49-3.38,3C575.89-63.47,572.31-62.66,568.91-60.5Zm-17.8-3a48.23,48.23,0,0,0,19.79-3.64c4.21-1.79,7.58-3.17,8.19-8.36.25-2.15,2.09-4.09,3.09-6.19s4.71-4.13,1.57-6.77c-3.48-2.92-5.38-9.24-12-6.44a23.22,23.22,0,0,1-12.23,1.32c-10.69-1.37-21-.89-29.46,7.17-.76.73-1.6,2.09-2.91,1.29s-.89-2.35-.6-3.63a10.17,10.17,0,0,1,1.85-4c.89-1.13,3.63-1.87,1.91-3.78-1.36-1.51-3.4-.46-5,.48-5.19,3-9.94,6.75-15.81,8.44a1.86,1.86,0,0,0-1.51,1.75,1.56,1.56,0,0,0,1.44,1.72c4.55.45,4.39,3.85,4.41,7,0,7.49.54,15-.2,22.47-.9,9.17,1.23,18.71-3.37,27.5-1.23,2.36.52,4.43,2.67,5.81a37.88,37.88,0,0,1,8.6,7.57c1,1.15,1.8,2.88,3.44,2.41,2.13-.61,1.29-2.8,1.35-4.32.41-11,0-22,.34-33,.19-7,4-9.21,9.17-11.21s10-2.15,14.22,2.31a57.64,57.64,0,0,1,7.62,9.87c7.59,12.72,15,25.52,22.66,38.23a33.28,33.28,0,0,0,8.93,10c1.6,1.17,3.28,2.35,5.35.51A29.11,29.11,0,0,1,606-4.82c.75-.22,1.8-.19,1.81-1.31,0-1-.87-1.37-1.61-1.68-10.69-4.43-17.06-13.64-24-22.11-5.43-6.68-11.23-13.34-14-21.69a7.41,7.41,0,0,0-5.18-5.33C558.86-58.37,554.61-59.77,551.11-63.52Z" transform="translate(575 251)"/><path class="cls-5" d="M1.61.71C3.44-1.07,6.35,3.59,6.9-.74c.34-2.62,1.54-6.34-3.52-6.47A4.82,4.82,0,0,1-.12-8.87C-3.31-13.95-9-15.65-13.33-19.2-29.53-32.57-38.2-49.84-39-70.72c-.21-5.75-1.15-10.34-5.72-13.93a28.21,28.21,0,0,1-2.77-3.14c9.45-1.75,16.7-6.71,24.13-11.36,2.83-1.77,5.51-.55,7.93,1.06,6.66,4.43,13.9,1.09,20.84,1.6,1.46.1,1.42-1.56,1.6-2.69.7-4.35.92-8.61-1.62-12.56a11.51,11.51,0,0,1-1.55-6.71c.09-3.16,1.64-4.77,4.77-4.06,2.56.58,4.88.1,7.35-.4,7.44-1.5,11.21,1.69,11,9.22-.15,4.82-.5,9.64-.89,14.45-.18,2.21.29,3.3,2.83,3.47,6.63.44,13.23,1.78,19.76-.69a6.38,6.38,0,0,1,5.37.09c5.09,2.8,10.41,5.26,14.66,9.38,2.35,2.28,3.83,5.36,2.16,8.12-4.59,7.6-3.37,16.13-4.68,24.24a54.66,54.66,0,0,0-.88,7.93c-.19,12.23-7,19.6-17.51,24.38C42.49-19.9,37-17.85,32-15c-9.07,5.19-9.3,6.77-7.17,14.85A35.49,35.49,0,0,1,26,7.75c.18,6.15-3.3,9.67-9.37,9.85C5.08,17.93,2.61,15.15,1.61.71ZM8.94-116.65c4.65,6.91,4.44,14.2,3,21.72C11.38-92.14,10.35-91,7.38-91c-6,0-12-.4-17.94.75a4.46,4.46,0,0,1-4.2-1.07c-4.11-4.17-7.9-2.74-11.82.35a27.19,27.19,0,0,1-5.55,3.34c-3.21,1.47-6,2.67-2.52,6.77,1.41,1.66.6,4.19.66,6.34.68,24.17,10.19,43.37,31.46,56,1.42.84,3.13,1.71,3.87,3,1.62,2.95,4,3.71,7,3.63,1.23,0,2.66-.44,3.46,1.2,1.47,3,.18,16-2.39,18.1-2.24,1.84-1,3,.28,3.85,2.86,1.8,6.28,1.35,9.1.29S21.1,7.51,20.52,5C19.41.11,18-4.7,18.28-9.78c.07-1.29-.06-2.45,1.32-3.47a73.49,73.49,0,0,1,16.63-9.67,77.35,77.35,0,0,0,16-8.16c3.89-2.68,6.54-6,7-10.93.48-5.13,1-10.27,2-15.32,1.36-7.42-.63-15.51,4.43-22.2a2.68,2.68,0,0,0,.07-2.85c-1.1-2.39-13.21-9.89-15.52-9-8.88,3.29-17.77.84-26.67.59-3.13-.09-3.46-1.41-3.17-4,.66-6.12,1-12.26,1.56-18.39.39-4.2-1.53-5.62-5.35-4.39C14.25-116.93,11.94-117,8.94-116.65Z" transform="translate(575 251)"/><path class="cls-5" d="M354.65-45.82c0,10.15,0,20.3,0,30.45,0,3.5-.32,6.89-4.19,8.2a8,8,0,0,1-9.41-2.62c-2.45-2.85-6.21-3.75-9.49-5.32-5.19-2.49-7.54-6.17-5.37-11.29,3.39-8,2.85-16.33,3.39-24.55.62-9.46.27-19,.58-28.45.1-3.28-1.14-4.54-4.28-4.47-3.49.08-7-.08-10.48,0-5.55.19-9.29,3.22-11.78,8-2.17,4.12-5.6,5.56-10,4.55s-6.36-4.38-5.25-8.63c.75-2.89,1.72-5.74,2.72-8.56,3.18-9,9.76-12.32,18.81-9.61a21.23,21.23,0,0,0,6.38.87q28.22-.21,56.44-.36c3.4,0,6.53-1,9.74-1.92,7.15-2,13,1.61,14.53,8.92.63,2.92,1.1,5.88,1.64,8.83.69,3.78-.66,6.64-4.17,8.12-3.78,1.59-7.89,1.18-9.65-2.56-3.34-7.1-9.26-8-15.78-7.91-15.39.25-13.3-2.39-14,13.33-.36,8.31-.06,16.65-.06,25Zm-5.5,4.11c.08-11.65,0-23.3.79-34.95.76-11.39.47-12,11.59-12.66,10.08-.59,21.12-2.08,27.19,9.57a2.45,2.45,0,0,0,2.93,1.38,2.25,2.25,0,0,0,1.53-2.79c-.54-3.27-.69-6.71-1.85-9.76-1.21-3.2-3.88-4.84-7.65-3.53A34.89,34.89,0,0,1,372-92.13q-28-.06-56,.08a22,22,0,0,1-8.32-1.26c-4.46-1.74-8.11,0-10.26,3.7-1.88,3.25-2.66,7.14-3.94,10.74a1.6,1.6,0,0,0,.8,2.09c1.1.67,2.33.85,3.23-.09a24.67,24.67,0,0,0,3-3.95c2.55-4,6.05-6.78,10.67-7.64,6.59-1.23,13.27-.8,19.91-.12,2.72.28,3.8,1.89,4,4.72,1.11,14.5-.09,28.94-.87,43.38-.26,4.62,0,9.35-2.42,13.64-2,3.61-.59,5.86,3,7.42s7.12,2.91,9.91,5.69c.94.93,1.78,2.22,3.34,1.54s1-2.3,1-3.53C349.18-24.38,349.15-33,349.15-41.71Z" transform="translate(575 251)"/><path class="cls-4" d="M367.7,48h17a10.52,10.52,0,0,1,6.19,1.56c2.19,1.5,2.54,3.9,2.52,6.21,0,2.07-2.19,2.3-3.39,2-2.11-.58-5.32,3.35-6.37-1.49-.46-2.12-2.29-1.56-3.68-1.57-8.32,0-16.64,0-25-.06-2.7,0-3.94.71-3.86,3.64.17,5.66.14,11.32,0,17-.06,2.75.88,3.86,3.74,3.81,8.48-.13,17-.16,25.46,0,3.68.07,3.36-2.19,3.44-4.59.09-2.63-.21-4.59-3.67-4.37s-6.65-.05-10,.07c-2.28.09-3.26-.63-3.26-3.09s.89-3.17,3.22-3.13c6.82.1,13.65.07,20.47,0,2,0,3.16.48,3.08,2.76-.14,4-.09,8-.23,12-.17,4.7-3,7-7.41,7.07-12.47.16-25,.26-37.43,0-5.3-.14-7.26-2.69-7.36-8.14-.12-7.15-.14-14.31,0-21.46.12-5.53,2.4-7.84,8-8,6.16-.19,12.32,0,18.48,0Z" transform="translate(575 251)"/><path class="cls-4" d="M-31.52,85.87c-6.33,0-12.66-.1-19,0C-53.09,86-54,85.18-54,82.53c.13-10.49.11-21,0-31.47,0-2.38.8-3.19,3.17-3.17q19.49.12,39,0c2.14,0,2.93.74,2.94,2.89s-.47,3.36-3,3.33C-21,54-30.22,54.21-39.37,54c-3.37-.07-4.72.76-4.64,4.4.07,3.33.77,4.89,4.44,4.6a100.09,100.09,0,0,1,11.49,0c2,.07,4.83-1.2,4.9,2.9.08,4.4-2.95,3.09-5.14,3.16-4,.13-8,.24-12,0-4.55-.3-3.43,2.83-3.59,5.32-.18,2.73-.09,4.78,3.76,4.68,9.32-.25,18.65,0,28-.12,2.55,0,4,.31,4,3.45,0,3-1.13,3.63-3.84,3.56C-18.53,85.76-25,85.87-31.52,85.87Z" transform="translate(575 251)"/><path class="cls-4" d="M169.79,85.87c-6.33,0-12.65-.1-19,0-2.67.06-3.87-.54-3.83-3.54q.24-15.48,0-30.95c-.05-3,1.17-3.58,3.83-3.55,12.48.1,25,.06,37.44,0,2.14,0,3.8-.07,3.85,3,.07,3.43-1.91,3.2-4.16,3.19-9,0-18,.15-27-.09-3.6-.1-4.07,1.5-4,4.47s.19,4.8,3.93,4.54c4.47-.3,9,0,13.47-.1,2.27-.06,3.33.57,3.32,3.06s-.9,3.21-3.25,3.14c-4.65-.12-9.33.16-14-.09-4.2-.22-3.45,2.57-3.41,5s-.92,5.12,3.34,5c9.31-.2,18.64,0,28-.09,2.53,0,4.44-.1,4.4,3.5s-2,3.5-4.51,3.47C182.1,85.82,175.94,85.87,169.79,85.87Z" transform="translate(575 251)"/><path class="cls-4" d="M84.27,73.53c0-7.75.23-14.67-.09-21.57C84,47.93,86,47.91,89,47.84c3.24-.09,4.77.51,4.67,4.28-.27,9.31,0,18.63-.13,27.95,0,1.87,1.1,4.64-1,5.42a8.25,8.25,0,0,1-8-1C76.65,78.63,68.68,72.9,60.75,67.13c-2.42-1.76-4.87-3.5-7.25-5.3-2-1.55-2.87-1.13-2.83,1.46.08,6-.17,12,.16,18,.21,3.77-1,4.81-4.72,4.76-3.54-.06-4.49-1.14-4.41-4.57.21-9.14,0-18.3.13-27.45,0-2-1.29-4.88,1.21-5.76a8.35,8.35,0,0,1,8,1.33C59.42,55.84,68,61.9,76.47,68,78.84,69.74,81.24,71.4,84.27,73.53Z" transform="translate(575 251)"/><path class="cls-4" d="M293.72,85.26c-9.51,2.42-16.63-.4-22.7-6.77a67.05,67.05,0,0,0-6.56-5.38C261.22,70.48,257.27,71,254,72c-2.76.84-.87,4.4-1.32,6.71-.58,3,2.15,7.57-4.59,7.36-4.53-.14-5.92-1.19-5.74-5.8.37-9.47.22-19,0-28.44,0-3.06.92-4,4-4,11.64.16,23.29,0,34.94.11,7,.07,8.74,2,8.77,9,.07,13.23,1,13.45-13.88,15,2.22,3.23,5.66,4.55,8.4,6.68S290.44,82.89,293.72,85.26Zm-27.6-20.19c3,0,6-.13,8.94,0,3.73.21,5.37-1.12,5.37-5.12,0-3.85-1-6-5.22-5.88-5.62.14-11.28.34-16.88-.07-4.6-.33-5.81,1.2-5.85,5.76s1.47,5.83,5.7,5.34A70,70,0,0,1,266.12,65.07Z" transform="translate(575 251)"/><path class="cls-4" d="M436.45,48.4c7.93-1.41,14-.4,19.57,5.74,8,8.85,8.75,8.72,16.77.13,4.9-5.24,10.08-7.8,17.34-5.91-.05,1.7-1.8,2.3-2.88,3.33-2.77,2.64-5.36,5.6-8.52,7.7C470.57,64.81,467,72,468.83,81.74c.85,4.49-2.18,4.07-5.12,4.19-3.29.14-5.78-.21-4.94-4.4,1.92-9.5-2.14-16.07-9.63-21.53C444.64,56.73,440.86,52.49,436.45,48.4Z" transform="translate(575 251)"/><path class="cls-4" d="M-418-205c.14-2.18,1.89-2.62,3.47-3,16.83-3.93,32.49-11.48,49.38-15.36,17.72-4.07,34.54,8.54,38.11,25.17,2.2,10.28-1.16,19.76-5.8,28.49-7.37,13.88-5.06,28-2.3,42.15,1,5.22,2.55,10.29,2.18,15.68-.56,8.07,1.07,15.8,3.22,23.54,1.52,5.46,2.08,11.51-.38,16.65-4.25,8.9-4.95,18.46-6.95,27.82-2.19,10.24.09,19.73,3.07,29.29,1.54,4.91,3.53,9.74,4.47,14.76,1.42,7.65,1.3,15.29-3.91,21.87-6.55,8.29-9.31,18.36-12.14,28.15-1.41,4.93-4.29,8.89-5.95,13.56-3.82,10.74-2.56,21.72-2,32.6.32,6.48.93,12.87-.14,19.32a32.14,32.14,0,0,0-.27,5.47c.11,14.94-2.07,29.73-3,44.61-.63,10.09-.18,20,5,29,2.78,4.88,2.68,10.13,1.7,15.06A198.93,198.93,0,0,0-354,251.4c0,1.87.84,4-1.12,5.59-.19-.27-.55-.54-.56-.81-.29-16.29-5-32.5-.46-48.93,1.6-5.75-1.94-11-3.95-16.18-3.41-8.7-3.38-17.47-2.26-26.46.55-4.43,1.06-8.87,1.35-13.33,1.54-23.6,1.26-47.24.88-70.85-.16-10,2.38-19,6.39-27.86a116.14,116.14,0,0,0,5.87-16.34c1.05-3.71,2.26-7.5,4.73-10.39,10.08-11.8,9.06-24.45,3.71-37.75a60.11,60.11,0,0,1-3.12-35.56c1.86-9,2.48-18.26,6.53-26.79,2.34-4.94,1-10.21-.37-15.14-1.23-4.48-3-9-3-13.55.32-18.5-7.95-35.95-6.57-54.51.49-6.63,1.41-13.25.87-19.87-.81-9.89-1.8-19.77-3.17-29.59-.77-5.49-5.69-8.72-11.55-9.12-11.48-.76-22,2.62-32.25,7.16C-400.43-205.15-409.08-204.53-418-205Z" transform="translate(575 251)"/><path class="cls-4" d="M-360.34,276.83c-.49,2.24.25,5-2.48,6.32C-363,280.67-362.75,278.32-360.34,276.83Z" transform="translate(575 251)"/><path class="cls-4" d="M-358.34,271.83a3.73,3.73,0,0,1-1.73,4.1C-359.93,274.38-360.53,272.52-358.34,271.83Z" transform="translate(575 251)"/><path class="cls-4" d="M-355.34,259.83c.31.95.19,1.73-.84,2.15C-357.45,260.66-356.43,260.23-355.34,259.83Z" transform="translate(575 251)"/><path class="cls-6" d="M-113.33-32.47c-3.39,2.51-7.72,2.23-11,4.84-1.7,1.36-3-1.39-4-2.77-9.22-12.44-18.33-25-27.62-37.35-1.93-2.58-3.75-7.5-6.55-6.62s-1.16,5.88-1.19,9c-.17,16.49-.08,33-.14,49.48,0,1.52,1,3.79-1.15,4.37s-2.07-2.14-3.17-3.21c-5.21-5.08-9.67-10.32-3.64-17.72,2.21-16.37,3.14-32.75.37-49.16-.22-1.29-.49-2.87-1.34-3.7-4.4-4.28-1.46-5.72,2.37-7.54,8.56-4.07,8.49-4.2,14.46,3.07,10.78,13.15,20.4,27.15,30.37,40.9,3.8,5.25,3.94,5.27,7.35,0C-110.29-61-102.13-73-92.31-83.68c2.13-2.32,4.52-4.4,6.79-6.59a16.34,16.34,0,0,0,2.84-2.79c3.26-5.4,3.16-5.35,8.47-1.89,3.62,2.37,7.37,4.53,11.11,6.71,2.58,1.5,3.53,2.91-.12,4.07-2.47.79-2.73,2.62-2.71,4.72.22,22-.75,44,1,65.92a14.49,14.49,0,0,0,.29,2.47C-62.5-2.29-62.49-2.3-70,2.4c-1.69,1.05-3.39,2.12-5,3.31-1.22.92-1.76,3.3-3.88,2.2-1.85-1-1-3-1-4.56Q-80-38.87-80-81.1c0-1.16,0-2.33,0-3.5s-.14-2.51-1.3-3.05-2.13.59-2.91,1.4C-97-72.81-107.72-57.79-117.25-41.89c-1.15,1.91-.69,3.49.47,5.06S-114.54-34-113.33-32.47Z" transform="translate(575 251)"/><path class="cls-6" d="M88.85-89.71c4-2.07,7.82-3.29,11-5.73,2.1-1.61,3.34.31,4.69,1.39,16.77,13.44,33.48,26.94,50.3,40.31,2.4,1.91,5,5.72,7.8,4.44,3-1.37,1.1-5.74,1.14-8.75.18-16.16.11-32.33.17-48.49,0-3.37.14-6.69-2.45-9.37-.71-.75-1.14-1.75-.31-2.67a2.3,2.3,0,0,1,3.2-.2c3.24,2.33,6.42,4.74,9.56,7.19,1.06.83,1.58,2.13-.21,2.56-3.26.78-2.86,3.19-2.86,5.51q0,35.74.08,71.49c0,1.16-.27,2.59.28,3.44,4.35,6.71-.21,11.11-3.88,15.77-.61.78-1.27,1.73-2.41,1.4S164-13,164-14a8,8,0,0,1,.09-2.49c2.7-9.8-1.65-16.2-9.22-22.11-16.54-12.9-32.47-26.6-49.54-38.83-1.41-1-2.87-3-4.71-2-1.53.87-.72,3.07-.7,4.66.24,18.49-.13,37,.87,55.47a44.27,44.27,0,0,1-.19,6A1.91,1.91,0,0,1,99.2-11.4a1.78,1.78,0,0,1-2-1.18c-1.41-2.7-3.52-4.83-5.52-7.06s-1.62-4.69-.4-7c2.11-4,2.57-8.22,2.52-12.59-.17-13,.6-26-.67-38.95C92.75-82.36,92.52-86.44,88.85-89.71Z" transform="translate(575 251)"/><path class="cls-6" d="M247.25-67.07c6.51-.43,13.79,1.25,20.42-2.87a4.09,4.09,0,0,1,5.06,1.1,37.64,37.64,0,0,0,10.14,8c1.48.87,2.51,2.1,1.4,4.14-6,10.93-10.36,22.71-17,33.31C261.4-14.16,254.94-5.53,245.88.78c-4.44,3.1-9.31,5.22-14.83,5.34-4.42.09-7.92.08-11.07-5-3.25-5.25-9.59-8.56-14.53-12.78-1.37-1.17-4.25-1.84-2.66-4.45s4.33-2.34,6.59-.84c4,2.68,7.84,5.65,11.76,8.46,8,5.7,16.19,4.42,21.51-3.71,8.12-12.41,13-26.22,16.13-40.61,1.36-6.24-1.3-9.12-7.63-9.18-5.34,0-10.67,0-16,0a16.42,16.42,0,0,0-11.07,3.84c-2.66,2.22-4.87,1.66-6.66-1.14-4.48-7-8.91-14.07-13.43-21.05-1.21-1.86-1.54-3.1.87-4.3a45,45,0,0,0,5.79-3.88c1.1-.79,2.42-1.94,3.6-1.1,3.83,2.72,7.3.6,10.91-.37,9.3-2.49,19-3.46,27.87-7.62,2.85-1.34,5.52.1,8,1.53,5.19,3,9.88,6.84,15.87,8.28.94.22,2.05.61,1.66,2a1.66,1.66,0,0,1-2,1c-13.71-2.41-27.31,3.69-41.14.33-4.2-1-10.66-2.52-12.88,1.89-1.89,3.74,3,7.87,5.23,11.72,2.3,4.07,6,4.08,10,3.92C240.71-67.17,243.71-67.07,247.25-67.07Z" transform="translate(575 251)"/><path class="cls-6" d="M437.43-90.93c10.68-1.25,21.28-1.68,31.88-.21a3.76,3.76,0,0,0,2-.27c4-1.83,7.85-2,10.94,1.49,3.63,4.1,3.57,9.55,4.47,14.55.3,1.66-1.61,2.33-3.27,1.86A2.66,2.66,0,0,1,482-74.8C472.44-93,456.14-88.65,440.74-87c-3.54.37-5.57,2.58-6.2,6.18A70.76,70.76,0,0,0,434-64.93c.14,2.64,1.77,3.81,4.3,3.84q10,.12,20,.21a5.87,5.87,0,0,0,5.07-2.69,2.45,2.45,0,0,1,3.48-.88c1.48.84,1.35,2.17.95,3.5-.76,2.55-1.6,5.07-2.4,7.6-.29.92-.35,2.19-1.7,2-1.13-.14-1.52-1.2-1.57-2.25-.2-3.86-2.67-4.54-5.87-4.33-5.31.37-10.62.68-15.93,1-3.5.22-5.55,2.12-6,5.55a75.31,75.31,0,0,0,.89,26.27,6.42,6.42,0,0,0,5.32,5.23,83.73,83.73,0,0,0,38.56-.54c5.24-1.25,9.35-4.33,10.92-9.93.31-1.11.63-2.57,2.05-2.38,1.63.22,1.1,1.84,1.07,2.88-.14,4.78.39,9.75-3.32,13.69-1.29,1.37-2.94,3.09-4.68,2.08-5.62-3.27-11.37-.76-16.95-.6-9.64.27-19.25,1.12-28.88-.25-.94-.13-2.66-.12-2.82.29-2.49,6.52-4.62,1.1-7-.05-3.59-1.73-7.31-3.19-11-4.72-3.42-1.42-4.35-3.77-1.93-6.6,3-3.49,3.17-7.67,3.24-11.75.22-13.82.1-27.64.18-41.47,0-2.76-.33-5-3.75-5.28a2.09,2.09,0,0,1-2.06-1.85c-.1-1.61,1.28-1.9,2.37-2,6.1-.6,10.91-3.78,15.54-7.42,1.84-1.45,3.86-2.16,5.9-.51C440.27-94.38,436.43-93.3,437.43-90.93Z" transform="translate(575 251)"/><path class="cls-6" d="M551.11-63.52c3.5,3.75,7.75,5.15,12,6.58a7.41,7.41,0,0,1,5.18,5.33c2.78,8.35,8.58,15,14,21.69,6.89,8.47,13.26,17.68,24,22.11.74.31,1.62.71,1.61,1.68C607.81-5,606.76-5,606-4.82A29.11,29.11,0,0,0,594.54,1c-2.07,1.84-3.75.66-5.35-.51a33.28,33.28,0,0,1-8.93-10C572.65-22.19,565.19-35,557.6-47.71A57.64,57.64,0,0,0,550-57.58c-4.21-4.46-9-4.32-14.22-2.31s-9,4.25-9.17,11.21c-.29,11,.07,22-.34,33-.06,1.52.78,3.71-1.35,4.32-1.64.47-2.48-1.26-3.44-2.41a37.88,37.88,0,0,0-8.6-7.57c-2.15-1.38-3.9-3.45-2.67-5.81,4.6-8.79,2.47-18.33,3.37-27.5.74-7.42.23-15,.2-22.47,0-3.19.14-6.59-4.41-7a1.56,1.56,0,0,1-1.44-1.72,1.86,1.86,0,0,1,1.51-1.75c5.87-1.69,10.62-5.47,15.81-8.44,1.65-.94,3.69-2,5-.48,1.72,1.91-1,2.65-1.91,3.78a10.17,10.17,0,0,0-1.85,4c-.29,1.28-.8,2.78.6,3.63s2.15-.56,2.91-1.29c8.45-8.06,18.77-8.54,29.46-7.17a23.22,23.22,0,0,0,12.23-1.32c6.65-2.8,8.55,3.52,12,6.44,3.14,2.64-.54,4.62-1.57,6.77s-2.84,4-3.09,6.19c-.61,5.19-4,6.57-8.19,8.36A48.23,48.23,0,0,1,551.11-63.52Zm-26.76-2.22c-.13,4.73.81,5.36,5.44,3.94,9-2.79,18-5.81,27.16-8.11,6.92-1.74,10.38-6,11.72-12.58,1.13-5.56-.84-8-6.64-8.43a27.62,27.62,0,0,0-10.33,1.2c-3.32,1.06-6.37,2.9-9.67-.07-.89-.8-2.21-.17-3.23.52C530.39-83.64,524.29-76.59,524.35-65.74Z" transform="translate(575 251)"/><path class="cls-6" d="M8.94-116.65c3-.35,5.31-.28,7.58-1,3.82-1.23,5.74.19,5.35,4.39-.56,6.13-.9,12.27-1.56,18.39-.29,2.64,0,4,3.17,4,8.9.25,17.79,2.7,26.67-.59,2.31-.85,14.42,6.65,15.52,9a2.68,2.68,0,0,1-.07,2.85c-5.06,6.69-3.07,14.78-4.43,22.2-.94,5-1.49,10.19-2,15.32-.46,4.92-3.11,8.25-7,10.93a77.35,77.35,0,0,1-16,8.16A73.49,73.49,0,0,0,19.6-13.25c-1.38,1-1.25,2.18-1.32,3.47C18-4.7,19.41.11,20.52,5c.58,2.54,1.1,5.54-1.69,6.59s-6.24,1.51-9.1-.29c-1.3-.83-2.52-2-.28-3.85,2.57-2.1,3.86-15.09,2.39-18.1-.8-1.64-2.23-1.23-3.46-1.2-3.05.08-5.42-.68-7-3.63-.74-1.33-2.45-2.2-3.87-3C-23.8-31.17-33.31-50.37-34-74.54c-.06-2.15.75-4.68-.66-6.34-3.48-4.1-.69-5.3,2.52-6.77A27.19,27.19,0,0,0-26.58-91c3.92-3.09,7.71-4.52,11.82-.35a4.46,4.46,0,0,0,4.2,1.07C-4.62-91.42,1.4-91,7.38-91c3,0,4-1.12,4.54-3.91C13.38-102.45,13.59-109.74,8.94-116.65Zm9.13,79.38c0,4,.13,8,0,12-.13,3.21,1.41,3.7,4,3a49.69,49.69,0,0,0,12.61-5.9c7.1-4.37,12-9.75,12.8-18.84.9-9.78,2.48-19.45.44-29.22-.68-3.23-1.26-6.57-5.35-7.61a118.72,118.72,0,0,0-19.63-3.22c-2.84-.24-3.81.77-3.88,3.59C18.6-68.11,19.13-52.67,18.07-37.27ZM10.75-24.73c-1-13.8-2-26.69-.77-39.62.53-5.45.81-10.94.85-16.41,0-2.33,1.33-5.86-1.13-6.83a12.37,12.37,0,0,0-10.15.42,17.47,17.47,0,0,0-2.88,2c-2.53,2.06-5.11,2.92-8.19,1S-16.46-84-18-81.7c-1.06,1.57-1,3.49-1,5.32.39,14.53,6.29,27,14.63,38.49A40.68,40.68,0,0,0,10.75-24.73Z" transform="translate(575 251)"/><path class="cls-6" d="M349.15-41.71c0,8.67,0,17.33,0,26,0,1.23.58,2.83-1,3.53s-2.4-.61-3.34-1.54c-2.79-2.78-6.41-4.17-9.91-5.69s-5-3.81-3-7.42c2.4-4.29,2.16-9,2.42-13.64.78-14.44,2-28.88.87-43.38-.22-2.83-1.3-4.44-4-4.72-6.64-.68-13.32-1.11-19.91.12-4.62.86-8.12,3.65-10.67,7.64a24.67,24.67,0,0,1-3,3.95c-.9.94-2.13.76-3.23.09a1.6,1.6,0,0,1-.8-2.09c1.28-3.6,2.06-7.49,3.94-10.74,2.15-3.72,5.8-5.44,10.26-3.7A22,22,0,0,0,316-92q28-.11,56-.08a34.89,34.89,0,0,0,11.69-2.32c3.77-1.31,6.44.33,7.65,3.53,1.16,3,1.31,6.49,1.85,9.76a2.25,2.25,0,0,1-1.53,2.79,2.45,2.45,0,0,1-2.93-1.38c-6.07-11.65-17.11-10.16-27.19-9.57-11.12.64-10.83,1.27-11.59,12.66C349.17-65,349.23-53.36,349.15-41.71Z" transform="translate(575 251)"/><path class="cls-1" d="M266.12,65.07a70,70,0,0,0-7.94.06c-4.23.49-5.74-.77-5.7-5.34s1.25-6.09,5.85-5.76c5.6.41,11.26.21,16.88.07,4.26-.1,5.22,2,5.22,5.88,0,4-1.64,5.33-5.37,5.12C272.08,64.94,269.1,65.07,266.12,65.07Z" transform="translate(575 251)"/><path class="cls-5" d="M524.35-65.74c-.06-10.85,6-17.9,14.45-23.53,1-.69,2.34-1.32,3.23-.52,3.3,3,6.35,1.13,9.67.07A27.62,27.62,0,0,1,562-90.92c5.8.39,7.77,2.87,6.64,8.43-1.34,6.58-4.8,10.84-11.72,12.58-9.16,2.3-18.13,5.32-27.16,8.11C525.16-60.38,524.22-61,524.35-65.74ZM531.57-68l1.37-.4c8.26-2.47,16.5-5,24.79-7.37a7.37,7.37,0,0,0,5.57-8.34c-.54-3.28-4.43-1.18-6.84-1.09-5.12.17-9.85,4.68-15.33,1.39-.26-.16-1,.18-1.33.45-4.74,3.36-8.38,7.54-9.59,13.42C530-68.91,529.91-67.86,531.57-68Z" transform="translate(575 251)"/><path class="cls-5" d="M18.07-37.27c1.06-15.4.53-30.84,1-46.26.07-2.82,1-3.83,3.88-3.59A118.72,118.72,0,0,1,42.54-83.9c4.09,1,4.67,4.38,5.35,7.61,2,9.77.46,19.44-.44,29.22-.84,9.09-5.7,14.47-12.8,18.84A49.69,49.69,0,0,1,22-22.33c-2.6.73-4.14.24-4-3C18.2-29.28,18.07-33.28,18.07-37.27Zm5-2.09a16.49,16.49,0,0,0,0,2c.31,2.74-1.21,6.77.87,7.94,2.51,1.41,5.34-1.68,7.73-3.31,3.51-2.39,8-4.21,9.09-8.75,2-8.22,3.61-16.68,2.89-25.13C42.4-81.3,43.22-78.54,30.48-81A22.22,22.22,0,0,1,28-81.29c-2.93-.9-3.73.33-3.85,3.16C23.65-65.21,24.81-52.24,23.06-39.36Z" transform="translate(575 251)"/><path class="cls-5" d="M10.75-24.73A40.68,40.68,0,0,1-4.33-37.89c-8.34-11.49-14.24-24-14.63-38.49-.05-1.83-.09-3.75,1-5.32,1.53-2.27,3.33-4.48,6.47-2.51s5.66,1.07,8.19-1a17.47,17.47,0,0,1,2.88-2A12.37,12.37,0,0,1,9.7-87.59c2.46,1,1.14,4.5,1.13,6.83,0,5.47-.32,11-.85,16.41C8.73-51.42,9.76-38.53,10.75-24.73ZM5-35.44A126.83,126.83,0,0,1,4.23-58c.43-7,1.12-13.93,1.42-20.9.19-4.5-1.07-5.16-4.82-2.75-3.4,2.17-6.77,4.76-11,3.37-3.44-1.13-3.75.54-3.6,3.06a51.14,51.14,0,0,0,3,14.1C-7.47-51.89-3-43.36,5-35.44Z" transform="translate(575 251)"/><path class="cls-1" d="M531.57-68c-1.66.13-1.57-.92-1.36-1.94,1.21-5.88,4.85-10.06,9.59-13.42.38-.27,1.07-.61,1.33-.45,5.48,3.29,10.21-1.22,15.33-1.39,2.41-.09,6.3-2.19,6.84,1.09a7.37,7.37,0,0,1-5.57,8.34c-8.29,2.36-16.53,4.9-24.79,7.37Z" transform="translate(575 251)"/><path class="cls-1" d="M23.06-39.36c1.75-12.88.59-25.85,1.1-38.77.12-2.83.92-4.06,3.85-3.16a22.22,22.22,0,0,0,2.47.31c12.74,2.44,11.92-.32,13.17,14.36.72,8.45-.88,16.91-2.89,25.13-1.11,4.54-5.58,6.36-9.09,8.75-2.39,1.63-5.22,4.72-7.73,3.31-2.08-1.17-.56-5.2-.87-7.94A16.49,16.49,0,0,1,23.06-39.36ZM33.21-58.64c-.27,4.07-.55,8.15-.81,12a55.59,55.59,0,0,0,2.33-13.85C35-64.1,35.5-67.73,33.55-71,32.35-66.83,33-62.74,33.21-58.64Z" transform="translate(575 251)"/><path class="cls-1" d="M5-35.44C-3-43.36-7.47-51.89-10.79-61.12a51.14,51.14,0,0,1-3-14.1c-.15-2.52.16-4.19,3.6-3.06,4.25,1.39,7.62-1.2,11-3.37,3.75-2.41,5-1.75,4.82,2.75-.3,7-1,13.93-1.42,20.9A126.83,126.83,0,0,0,5-35.44Z" transform="translate(575 251)"/><path class="cls-5" d="M33.21-58.64c-.21-4.1-.86-8.19.34-12.36,2,3.27,1.4,6.9,1.18,10.47Z" transform="translate(575 251)"/><path class="cls-3" d="M33.21-58.64l1.52-1.89A55.59,55.59,0,0,1,32.4-46.67C32.66-50.49,32.94-54.57,33.21-58.64Z" transform="translate(575 251)"/></svg>