<svg id="Layer_1" data-name="Layer 1" xmlns="http://www.w3.org/2000/svg" viewBox="0 0 315.89 336.44"><defs><style>.cls-1{fill:#3bcadd;}.cls-2{fill:#209ba4;}.cls-3{fill:#fefefe;}.cls-4{fill:#b7c04d;}.cls-5{fill:#0371bb;}.cls-6{fill:#fafbfa;}.cls-7{fill:#f9fbfa;}.cls-8{fill:#fc7701;}.cls-9{fill:#056fb6;}.cls-10{fill:#fafcfb;}.cls-11{fill:#edf6f9;}.cls-12{fill:#24180b;}.cls-13{fill:#eaf7fa;}.cls-14{fill:#ebf6f9;}.cls-15{fill:#2b8087;}.cls-16{fill:#317d86;}.cls-17{fill:#327f84;}.cls-18{fill:#ecf4f6;}.cls-19{fill:#2e7b84;}.cls-20{fill:#2e848f;}.cls-21{fill:#378d95;}.cls-22{fill:#307a86;}.cls-23{fill:#e9f6f6;}.cls-24{fill:#37818c;}.cls-25{fill:#37848d;}.cls-26{fill:#378e96;}.cls-27{fill:#3d8489;}.cls-28{fill:#357e88;}.cls-29{fill:#377d7e;}.cls-30{fill:#357c85;}.cls-31{fill:#33888e;}.cls-32{fill:#388186;}.cls-33{fill:#2c828a;}.cls-34{fill:#2c7276;}.cls-35{fill:#338a94;}.cls-36{fill:#2f6f74;}.cls-37{fill:#368085;}.cls-38{fill:#529ea5;}.cls-39{fill:#2e7176;}.cls-40{fill:#33838a;}.cls-41{fill:#269eac;}.cls-42{fill:#4b6c6f;}.cls-43{fill:#72c59f;}.cls-44{fill:#2a7377;}.cls-45{fill:#399296;}.cls-46{fill:#549ba3;}.cls-47{fill:#2c8991;}.cls-48{fill:#41a3af;}.cls-49{fill:#49afb3;}.cls-50{fill:#b4eaf0;}.cls-51{fill:#3598a4;}.cls-52{fill:#5aa3ac;}.cls-53{fill:#77c599;}.cls-54{fill:#74c29e;}.cls-55{fill:#34969c;}.cls-56{fill:#98a06d;}.cls-57{fill:#3e929b;}.cls-58{fill:#c0f0f6;}.cls-59{fill:#5c7f85;}.cls-60{fill:#7cc593;}.cls-61{fill:#85c28f;}.cls-62{fill:#fae6c2;}.cls-63{fill:#63a8b1;}.cls-64{fill:#3e9394;}.cls-65{fill:#0571ba;}.cls-66{fill:#f8f8ed;}.cls-67{fill:#fbfaf2;}.cls-68{fill:#fbfaf1;}.cls-69{fill:#fafbf4;}.cls-70{fill:#fbfbf4;}.cls-71{fill:#fbfbf3;}.cls-72{fill:#a5ab5f;}.cls-73{fill:#80c787;}.cls-74{fill:#dfe09d;}.cls-75{fill:#d4d99a;}.cls-76{fill:#3fc8da;}.cls-77{fill:#44c4d7;}.cls-78{fill:#449097;}.cls-79{fill:#357e87;}.cls-80{fill:#64c4c1;}.cls-81{fill:#44c2d2;}.cls-82{fill:#357b85;}.cls-83{fill:#5b9496;}.cls-84{fill:#6b7f81;}.cls-85{fill:#67817e;}.cls-86{fill:#db9232;}.cls-87{fill:#a37030;}.cls-88{fill:#9b6a2f;}.cls-89{fill:#614017;}.cls-90{fill:#58371b;}.cls-91{fill:#613c10;}.cls-92{fill:#5f3216;}.cls-93{fill:#5f3515;}.cls-94{fill:#bf9363;}.cls-95{fill:#4c7a76;}.cls-96{fill:#51766d;}.cls-97{fill:#598682;}.cls-98{fill:#5f370e;}.cls-99{fill:#613c17;}.cls-100{fill:#efefef;}.cls-101{fill:#eee;}.cls-102{fill:#5c3612;}.cls-103{fill:#62380f;}.cls-104{fill:#5e330e;}.cls-105{fill:#673a0f;}</style></defs><title>Night Owl Cookies</title><path class="cls-1" d="M175.13,78.24c1.49-.14,3-.24,4.46-.44,4.35-.6,6.07,1.73,6.37,5.66.07.83.08,1.66.09,2.5q.48,34.71.94,69.44c.12,9.93-4.06,14.13-13.9,15.75-14.42,2.36-28.78,5.07-43.24,7.3-19.58,3-39.27,4.91-59,6.32-20.92,1.5-41.88,2.5-62.89,2q-38.43-.9-76.6-5.39c-14.55-1.7-29-4.15-43.41-6.38-11.74-1.81-15.85-6.58-16-18.26q-.44-33.72-.85-67.44c-.09-7.62.65-8.36,8.09-8.22,10.33.18,10.09.28,6-9.25-11.53-26.78-16.32-54.5-12.64-83.72a157.76,157.76,0,0,1,32-77.75,150.86,150.86,0,0,1,46.27-39.56A153.29,153.29,0,0,1-6.69-145.62a157.83,157.83,0,0,1,67.79-.45A156.62,156.62,0,0,1,111.17-126a152.85,152.85,0,0,1,55.68,59.49,156.32,156.32,0,0,1,17.86,87.6,149.92,149.92,0,0,1-13.9,51.73c-.78,1.63-2.76,3.23-1,5.42.38.52-.84,2.23,1.18,1.54A16.34,16.34,0,0,0,175.13,78.24Z" transform="translate(128.9 149.53)"/><path class="cls-2" d="M175.13,78.24c-1.08,3.27-4.38,2.32-6.61,3.4-.62.3-1.29-.17-1.37-1-.2-1.94,2-1.4,2.63-2.44Z" transform="translate(128.9 149.53)"/><path class="cls-3" d="M103-10c9.28-14.13,10.34-28.73,2.3-43.75-2-3.65-2.9-7-1-11.21,5.59-12.47,5.07-25.38,2-38.44-1.45-6.24-2.26-12.63-3.52-19.86a123.18,123.18,0,0,1,23.62,16.38,147.71,147.71,0,0,1,37.39,48.51,147.92,147.92,0,0,1,14.9,73,143.19,143.19,0,0,1-16.08,60.22,12,12,0,0,0-.86,1.77c-2.22,6.93-7.18,10.41-14,12.42-19.12,5.62-38.53,9.91-58.07,13.68a26.44,26.44,0,0,1-4.42,0C91.06,93,96.45,83.51,99,72.78c2.91-.87,5.74-.07,8.58.44,3.2,4,7.16,4,11.59,2.44,6.41-2.18,12.24-5,14.82-11.9,2.07-5.51,5.26-10.48,4.83-16.94-.66-10.16-4.35-18.09-13.32-23.32-1.83-1.06-3.87-1.94-5.17-3.78A96.42,96.42,0,0,0,105.83-1.1C103.64-3.51,101.52-6.27,103-10Z" transform="translate(128.9 149.53)"/><path class="cls-4" d="M92.66,68c-3.53,7.48-7.24,14.88-10.51,22.46-1.36,3.16-4.41,5.06-5.37,8.36a9.81,9.81,0,0,0-3.72,4.22c-.4,2-2,1.78-3.49,2-12.44,1.92-25,2.28-37.51,2.13-11-.13-21.91-.38-32.86-.18-5.53.11-10.72-1.44-16.08-2.14-1.69-2.88-4.1-5.19-6.23-7.72A118.57,118.57,0,0,1-36.72,69.44c-2.86-8.18-4.16-16.7-5.32-25.24a4.3,4.3,0,0,1-2.34-4.1c-.17-7.93-.77-15.87.35-23.78,1.89-.86,2.14-2.23,1.83-4.26a10.62,10.62,0,0,1,.67-6.76,1.41,1.41,0,0,1,1.43-.61C-32,9.4-24,14.2-15.11,17.32c2,.7,4,1.15,6.08,1.72,1.65,1.79,4.4.15,6,1.94,14.5,3.55,29.22,2,43.87,1.87,2.48-1.82,5.75.15,8.22-1.71,9.59-1.69,18.46-5.35,27.06-9.76l4.77-2.47a63.06,63.06,0,0,0,6.17-3.8c2.32-.94,4-3.35,6.88-3,3.83,2.62,3.8,7,4.15,10.73a108.91,108.91,0,0,1-.09,22.4c-.76,1.85-1.52,3.71-4.13,3a10.54,10.54,0,0,0-7-2c-1.94.12-2.69,1-2.44,2.85a24.94,24.94,0,0,1,.32,10.36c-1,5.28,2.52,9,5,13.05C90.85,64.31,93.08,65.47,92.66,68Z" transform="translate(128.9 149.53)"/><path class="cls-3" d="M-89.16,81.09c-.82,1-.45,2.23-.65,3.35-.4,2.12,1.41,5.64-1.37,6.06a8.52,8.52,0,0,1-8.52-4,143.9,143.9,0,0,1-19.1-46.72A146.54,146.54,0,0,1-112.68-46c11.91-31.36,32.25-56.13,60.68-74.12.11-.07.31,0,.61,0,1.24,1.17.57,2.75.46,4.09-.71,8.12-.75,16.41-2.57,24.28-2,8.42.39,15.72,3.34,23.06,1.89,4.72,1.68,8.49-1.41,12.84-9.11,12.84-10.18,26.79-3.61,41,1.6,3.47-.27,6.5.35,9.69,1.48,2.17.15,3.8-1.14,5.32-17.4,20.55-25.31,45.2-30.75,71C-87.42,74.48-86.76,78.17-89.16,81.09Z" transform="translate(128.9 149.53)"/><path class="cls-3" d="M42.06-93.28c-4-1.56-7,.39-10.15-.09-.72-1.81,2.17-3,.84-4.55s-3.07.06-4.62.19c-1.9.17-4.43,2-3.61-2.36.22-1.14-1.61-.94-2.38-.44-1.93,1.25-4.45,1.83-5.69,3.9-3.49,5.84-9.22,7.68-15.31,9a89.62,89.62,0,0,0-16.23,4.75c-2.48,1.07-3.85.3-5.36-1.81Q-33-102.18-45.93-119.45c-1.91-2.56-1-4,1.15-5.15,19-10,39.08-16.57,60.58-18.25a153,153,0,0,1,62.86,8.12c6.54,2.27,12.75,5.48,19.09,8.31,2.71,1.21,3.66,2.62,1.56,5.64C93.18-112,87.39-102.91,81.5-93.93c-2.35,3.58-4.73,7.14-6.87,10.84-1.21,2.08-2.48,2.23-4.44,1.22-8.53-4.39-17.7-6.46-27.18-7.31C39.9-89.46,38.35-90.41,42.06-93.28Z" transform="translate(128.9 149.53)"/><path class="cls-3" d="M6.9-1.55C-16.5,11.09-42.71-6.84-45.37-29.41-48.25-53.79-26-74.35-.85-68.63A33,33,0,0,1,21.76-51.27c1.73,3.31,2.51,4.34,5,.57a48.47,48.47,0,0,1,8.85-10.64c11.64-9.94,24.65-12,38.52-5.78,12.83,5.77,20.06,15.94,21.15,30.17C96.42-21.71,88.14-6.66,72.35-.83,62.08,3,51.51,2.94,41.67-3.07c-.07-.15-.21-.31-.19-.45.77-7,.77-7-6.17-10.48-2.07-1.05-4.39-1.8-6.14-3.29-3.37-2.86-5.91-1.72-8.6,1C16.68-12.45,12.19-9.28,7.83-6,5.17-5,8.42-2.76,6.9-1.55Z" transform="translate(128.9 149.53)"/><path class="cls-5" d="M-89.16,81.09c1.28-18.16,6.85-35.16,14-51.75C-70.35,18-64.54,7.22-56.06-1.92c.87-.94.93-2.08,1.23-3.19.53-1.15,1-2.3,1.82-4C-49.53-3.4-43.2-.95-40.1,4.69a5.22,5.22,0,0,0-.8.52c-1.57,3.1-.39,6.7-1.75,9.84-.45,9.72-1.21,19.45.61,29.14a150.65,150.65,0,0,1-8.75,27c.72,1.13.34,2.24-.14,3.3A163.37,163.37,0,0,1-61.79,93.3c-.71,1.11-1.61,2.15-3.18,2-3.37,4.25-6.5,8.73-12,10.67s-8.92.3-11-5.07-.61-10.89-1-16.32Z" transform="translate(128.9 149.53)"/><path class="cls-6" d="M129.08,116.87c2.52-.28,2.26,1.25,2.27,3,0,4.48-1.62,8.6-2.37,12.91,4.26.88,5-2.45,6-5.21,2-5.6,2.62-11.55,4.08-17.29,1.59-6.27,1.55-6.28,8.62-6.4,2.18,1.67.77,3.62.37,5.45-1.62,7.44-3.3,14.86-4.91,22.3a10.77,10.77,0,0,0,0,2.47c2.64,1.65,2.92-1,4-2.2,1.81-2,1.71-5.46,4.93-6.36,1,.67,2.91.87,2.18,2.72-2,5-4.47,9.73-9.32,12.52-2.32,1.34-5.26,2.09-7.49,0s-3.28-5-7.33-2.24c-2.19,1.48-5.3,1.21-7.89,3.29-4.23,3.4-9,8.29-15,2.21-1.41-1.42-2,.44-2.76,1-5.37,4.14-7.76,3.94-12.23-1.16-1.28-1.46-7.8,0-10.11,2.24a53.12,53.12,0,0,1-5.5,5c-7.38,5.3-13.12,4.89-19.6-1.19-3.45-3.21-3.49-7.42-3-11.53,1.65-12.62,8.27-22.15,18.88-29,1.77-1.14,3.59-2.41,5.91-1.45,9.65,1.95,13.1,8.27,10.76,20-.65,3.23-1.66,6.39-2.5,9.59,3,1.84,3.69-1,4.69-2.57,1.69-2.68,1.93-6,3.12-8.85.67-1.66.63-3.63,2.17-4.92,2.19-1,4.4-2,6.77-.49,2.06,4.3-1.36,7.79-1.8,11.74-.26,2.4-1.82,4.61-1.64,7.18,2.62,1.46,3.14-1,4-2.34,2.5-4.15,3.27-8.93,4.62-13.5,1.42-4.8,3.11-5.74,8.75-5,2,1.48.78,3.17.31,4.81a20.7,20.7,0,0,0-1.24,7.18v.7c-.34,2.06-1.59,4-.63,6.19,1.32-3.09,2-6.27,5.08-8.59,2.3-1.75,2.32-5.33,2.6-8.25C124.27,117.57,125.78,116.22,129.08,116.87Z" transform="translate(128.9 149.53)"/><path class="cls-7" d="M28.67,126.27,27.05,125a1.71,1.71,0,0,1-.26-.93,2.6,2.6,0,0,1,2-2.47c4.55-.85,5.53-9.15,12.09-5.79,2.29,2-.81,6,2.93,7.53.4.16-.43,2.08-1.41,2.16-4.17.31-4.58,3.75-5.56,6.55-1.51,4.3-4,8.24-4.51,12.88,2.18,2.25,3.31,0,4.8-1.06,2.35-1.66,2.64-5.26,5.81-6.11,1.66.6,3.16,1.23,1.86,3.48-2.25,3.88-5,7.37-8.93,9.56-3.42,1.9-7.11,2.4-10.7.11-1.71-1.72-3.43-.73-5.15,0-4.31,1.4-8.71,3.34-11.94-1.94-2.51-3.29-.2-6.27.72-9.27.74-2.44,2.74-4.54,1.81-7.39-6.63.83-6.87,7.1-9.18,11.31-4,7.22-3.65,6.83-11.83,7-4.15.08-8.6,1.79-10.7,6.66-3.26,7.57-11.14,10.77-17.73,5.63-2.25-2.88-1.89-5.73,1.19-8.09a18.65,18.65,0,0,1,8.16-3.46,9,9,0,0,1-3.14.4c-3.15-.44-3.69-4.38-6.71-5-4.08,2.09-8.27,3.31-12.82,1.58-2.9-1.45-3.28-4-2.54-6.69,1.79-6.63,5.93-12.12,9.2-18,1.11-2,3.6-1.75,5.55-.3,1.48.53,3,.91,1.9,3.15-1.64,3.2-2.84,6.64-4.75,9.65a17.73,17.73,0,0,0-2.73,6.71c1.89,1.53,2.93-.18,4.12-1.12,4-3.15,6.06-7.72,8.92-11.71,1.9-2.65,3.87-5.34,7.69-5.23A11.07,11.07,0,0,1-16.17,127c2.46.87,4.79-1.49,7.26-.33,3.34.5,1.78,2.47,1.09,4-2.31,5.08-4.74,10.11-7.12,15.16,5.5-.33,7.32-5,9.56-8.69,3.59-6,6-12.55,9-18.88,1.23-2.68,2.73-3.52,5.36-2.15,2.86.58,5.09,1.39,2.63,4.93-.72,1-.82,2.5-1.21,3.76,1.3,2.43,3.51-1,4.92.76,6.22.93,7.73,3.81,4.84,9.57-1.56,3.09-3.58,6-3.26,9.67.73,1.56,1.93,1.33,2.77.38C24.41,139.73,28.31,133.83,28.67,126.27Z" transform="translate(128.9 149.53)"/><path class="cls-7" d="M-54.86,110.7c8.06.33,9.78,2.93,6,10.31-4.09,8.1-8.7,15.94-13.16,23.86-1.4,2.48-2.64,4.65-1.29,7.82,1.22,2.86-.86,4.88-3.41,6.19-3.28-1.32-5.72-3.44-6.7-7-.82-5.07,2-8.89,4.4-12.86,3.4-5.69,6.77-11.4,9.83-17.27.58-1.11,2.18-2.53.06-3.81-7.27.17-9.77,6-12.89,11-2.45,3.92-4.59,8-7,12-3.11,5-5,5.34-10.27,2-1-1.93.66-3,1.42-4.36,3.74-6.57,8.1-12.76,11.74-19.38.66-1.2,1.63-2.19.07-3.34a20.48,20.48,0,0,0-10.55,2.36c-1.84,1-3.32,2.66-1.61,4.27,2.58,2.43,3.29,5.43,1,7.26s-4.61-1.11-6.53-2.81c-.37-.33-.75-.64-1.13-1-3.1-5.28-1.86-9.74,3.5-13.22,3.72-2.41,8.1-2.52,12.15-3.75,3.42-.22,6.69-1.81,10.21-1.15,2.28,1.38,2.78,4.19,4.74,5.83C-61.1,112.86-58.59,109.88-54.86,110.7Z" transform="translate(128.9 149.53)"/><path class="cls-8" d="M7.16-6.91C12.24-11,17.38-15.1,22.35-19.36c1.6-1.38,2.92-2.08,4.75-.7,4.09,3.08,8.8,5,13.36,7.28C44-11,45.59-8.92,42.7-5.3a10.1,10.1,0,0,0-1,2.23C41-1.57,39.12-.9,38.93.93c-1.46,1.92-2.62,4-4,6-1.24,4.3-5.23,7-6.39,11.46-.45,1.68-2.11,2.25-3.5.05C20.2,10.76,13.8,4.28,8.21-2.84,6.49-3.84,5.55-5,7.16-6.91Z" transform="translate(128.9 149.53)"/><path class="cls-9" d="M96.65,36.15c.72-11.48,1.55-23-2.66-34.08C95.59-3,99.8-6.14,103-10c.45,6.62,6.06,10,9.34,14.88,3.13,4.63,7,8.81,8.7,14.29-2.84,2-6.09,1-9.15,1.11-5.91.19-5.82.09-6.22,5.89-.24,3.44-.62,6.88-3.74,9.3C100.22,36.82,98.64,37.59,96.65,36.15Z" transform="translate(128.9 149.53)"/><path class="cls-10" d="M-65,95.29C-59,88-54.86,79.57-50.79,71.14c3.38,3,3.41,7.58,5.25,11.32,2.9,5.93,5.59,12,9.21,17.5a3.74,3.74,0,0,1,.86,2.16c-.18,1.06-1.33.79-2.06.65C-46,101.19-54.43,99.53-62.89,98-64.48,97.66-65.26,96.94-65,95.29Z" transform="translate(128.9 149.53)"/><path class="cls-11" d="M30,166.22c1.45.87,3,1.67,3.24,3.63,1.73,1.3,1.8-.65,2.44-1.32,2-2.12,4.13-3.83,7.3-2.42l2.9,3c3.13.48,2.31-2.44,3.23-3.83,1-1.58.82-4.49,4.05-3.45,2.11,1.3,2.45,4.31,5,5.21,1.37,1.51.71,3-.2,5.18,1.58-2.73,1.61-5.47,3.41-7.33,1.37-1.15-.27-5.12,3.64-3.88,2.06,2-.8,4,.07,5.95,1.15,2.17-1.29,4.07-.42,6.21.3.51.67,1,.32,1.65-2.4,4.24-7.38,2-9.43,1.56-5.86-1.15-11.44,2-16.59.48-4.4-1.3-8-.7-12,.31-2.34.6-4-1.18-5.88-2a2.09,2.09,0,0,1-.63-1.41C22.78,166.91,24.82,165.29,30,166.22Z" transform="translate(128.9 149.53)"/><path class="cls-12" d="M96.65,36.15c5.11-.64,8.08-4.51,7.79-10.16-.37-7-.37-7.07,6.7-7.09,3.31,0,6.62.18,9.93.27,3.31,2.7,7.35,4.19,10.58,7.23,9.83,9.26,11.71,26,3.29,37.57-1.6,1.06-2.17.13-2.5-1.29a4.71,4.71,0,0,1,.68-2c1.47-1.82.71-3.89.64-5.88a4.48,4.48,0,0,1,1.32-1.64c3.08-4.18,1.72-8.71.84-13.08a22.41,22.41,0,0,0-2.81-6.79c-1.2-1.71-2.81-3.08-4-4.77-3.92-3.33-7.84-6.65-13.5-6.19-1.45,0-2.89,0-4.34.05-2.32,0-3.25,1.29-3.21,3.47.24,11.11-8,17.15-19.38,14.87-2.76,1.6-.78,4.33-1.51,6.41-.25,2.39-1.44,4.75-.29,7.2,1.38,3.36,3.74,6.07,6,8.87a10.14,10.14,0,0,0,3.91,3.47,21.89,21.89,0,0,0,10.9,4.75c.72.93,3.3,1.91-.05,2.77-2.87-.32-5.86.11-8.54-1.38-2-1.78-3.61-4-6.37-4.74-1.63-1.9-3.53-3.61-4.82-5.71-2.84-4.65-6-9.25-4.09-15.3.79-2.57-.11-5.28-.65-7.89.59-3.37,2.78-4.37,5.74-3.34,1.69.6,3.61.18,5.1,1.39C95.89,39.58,95.77,36.58,96.65,36.15Z" transform="translate(128.9 149.53)"/><path class="cls-13" d="M107,161.27a5.6,5.6,0,0,1,2.49,3.6c.91,1.28,3.72-.38,3.64,2.23a3.12,3.12,0,0,1-3,3.24c-3.43.72-6.38,4.76-10.5,1.38-.38-.31-2.2,1.05-3.3,1.72-5.29,3.2-8.46,2.14-10.29-3.63-.7-2.21-3.19-2.74-4-4.76-1-2.56-1.75-5,1.9-6.17a2.42,2.42,0,0,1,2.2,2.25c.53.29.56,2.39,1.72.47s2-3.77,3.75-5.08,3.35-2.12,5.35-.7c1.6,1,2.29,2.6,3.06,4.18.49,5.5-3.15,8.18-7.39,10.62,3.7-.74,3.77-.72,6.29-5.44C100.72,161.85,102.86,159.56,107,161.27Z" transform="translate(128.9 149.53)"/><path class="cls-14" d="M21,173.94c0,.42.06.83.08,1.25-3.44,3.42-7,4.37-10.89.65-1.62-1.48-1-3.46-1.18-5.26L6.14,167.1c-1.7-2.87-.75-4.82,2.11-6.1L11,162.11c.46.75.21,1.57.23,2.68,2.86-1.75,3.85-6.32,8.21-5.23,3.56.17,4.76,2.33,4.72,5.55-.31,4.85-4.1,6.62-7.95,8.54C18,174.67,19.55,172.46,21,173.94Z" transform="translate(128.9 149.53)"/><path class="cls-15" d="M79,108c-17.55,5.69-28.57,28.82-21.84,42-4.15-1.31-4-5.17-3.92-8.11.41-11.68,4.13-22,14.14-29.1,2.27-1.61,3.94-4,6.78-4.9C75.76,107.41,77.39,106,79,108Z" transform="translate(128.9 149.53)"/><path class="cls-16" d="M8.94,116.1c-2.49-.29-3.86.79-4.83,3.14-2.29,5.52-4.82,10.93-7.32,16.35a26.24,26.24,0,0,1-10.33,11.82c-.68.42-1.52,1-2.13.15-.19-.26.46-1.14.73-1.74,4.33-2.23,7.11-5.89,9.13-10.15,2.48-5.22,5.26-10.31,7.15-15.82,1.36-4,4.29-5.66,8.51-4.83.32.06.66.07,1,.1C10.67,116.35,9.54,115.71,8.94,116.1Z" transform="translate(128.9 149.53)"/><path class="cls-17" d="M147.71,103.92c-5.77.15-7.46,3.8-8.22,8.85s-2.25,10-3.41,15a10.8,10.8,0,0,1-5.76,7.1c-.61.34-1.56,1-2.15,0s.2-1.54.81-2.12c4.12-1,4.94-4.55,5.79-7.9,1.42-5.58,2.58-11.22,3.94-16.82C140,103,142.16,102,147.71,103.92Z" transform="translate(128.9 149.53)"/><path class="cls-18" d="M64.94,174.87l-.82-.83c1.27-6.84,4.13-9.78,9-9.21A3.61,3.61,0,0,1,76.41,168c.58,3.16-2.22,4-3.83,5.67,0,.71.7,1.34.28,2.1C69.83,178.8,67.61,174.92,64.94,174.87Z" transform="translate(128.9 149.53)"/><path class="cls-19" d="M-59.08,118c3.21-.23,3.38-.13,1.81,2.7-3.84,6.9-7.85,13.7-11.77,20.56-1.87,3.27-4.19,6.4-3.74,10.5.11.92.81,2.12-1,2.07-1.33-5.6.76-10.26,3.57-15C-66.2,132.06-61.35,125.69-59.08,118Z" transform="translate(128.9 149.53)"/><path class="cls-20" d="M117.84,118.89c-5.39,0-7.63,3-8.51,8-.84,4.86-2.31,9.64-5.64,13.55-.73.87-1.51,2-2.85,1.42-1-.4-.68-1.33-.32-2.11,3.48-1.78,4.34-5.28,5.42-8.53,1.16-3.45,1.82-7.08,3-10.51C110.13,117.5,115.29,116.56,117.84,118.89Z" transform="translate(128.9 149.53)"/><path class="cls-21" d="M-39.9,123.34c-2.87-.55-4.84.06-6.17,3.14-2,4.66-4.77,9-6.94,13.6-1.31,2.78-1.5,5.73.9,8.26-4.1.32-4-3-3.79-5.25.78-7.81,6.14-13.6,9.68-20.19,1-1.83,4-.05,5.27-2,1.77-.87,3-.26,3.9,1.38Z" transform="translate(128.9 149.53)"/><path class="cls-22" d="M-76,115.91c.78-.2,2-.82,2.27-.53,1.15,1.08-.08,2.14-.59,3-4.92,8.23-9.93,16.41-14.91,24.61-3.2.59-1.67-1.36-1.1-2.32,2.52-4.25,5.16-8.43,7.79-12.62A68.63,68.63,0,0,0-76,115.91Z" transform="translate(128.9 149.53)"/><path class="cls-23" d="M-37,122.25l-3.9-1.38,0,.12c-2.93-5.43-1.92-7.56,3.83-8.08,2.38.64,4.34,1.76,4.3,4.58S-34.7,121.49-37,122.25Z" transform="translate(128.9 149.53)"/><path class="cls-24" d="M-24.75,124.79c-4.71,1.94-7.43,5.78-9.58,10.13a24.06,24.06,0,0,1-7.39,8.44c-.93.71-3,3.07-3.76-.51,4-1.33,6.25-4.56,8.48-7.79,1.68-2.43,3.17-5,5-7.32,3-3.77,6.77-5.7,11.94-4.4C-21.52,124.45-23.63,123.26-24.75,124.79Z" transform="translate(128.9 149.53)"/><path class="cls-25" d="M129.08,116.87c-3.14.41-4.18,2.18-4.43,5.34-.3,3.67-.51,7.67-4.74,9.72-1.25.61-1.79,2.21-1.33,3.94.83,3.11-.92,4.1-3.69,4,.5-3,.49-6.19,2-9l0,0c5.48-1.48,5.58-6.32,5.78-10.44.26-5.09,4-4.67,7-5.16C130.65,115.13,129,116.18,129.08,116.87Z" transform="translate(128.9 149.53)"/><path class="cls-26" d="M-79,109.77c-1.91,1.17-4.14,1.06-6.22,1.55-8.51,2-11.27,6.21-9.63,14.7-1.07,1-1.58.56-2.13-.6a10,10,0,0,1,4.1-13c3.62-2.11,7.44-3.75,11.78-3.56C-80.18,108.55-79.14,108-79,109.77Z" transform="translate(128.9 149.53)"/><path class="cls-27" d="M107,161.27c-3.82-.18-6.29,1.55-7.4,5.23a9.2,9.2,0,0,1-5.89,6.22c-1.12.41-2.43.56-3-.82a1.87,1.87,0,0,1,1.3-2.72c4.92-1.14,6.58-5,8-9.18C102.37,160.41,105.09,158.64,107,161.27Z" transform="translate(128.9 149.53)"/><path class="cls-28" d="M28.67,126.27c1-.15,1.77.47,1.49,1.34-2.22,6.76-4.62,13.44-10.07,18.43-1,.89-2.16,1.82-3.51.86-.85-.61-.25-1.45.28-2.11,4.28-1.47,6.18-5.16,7.94-8.83C26.3,132.83,27.4,129.5,28.67,126.27Z" transform="translate(128.9 149.53)"/><path class="cls-29" d="M21,173.94c-.16,0-.33,0-.49.08-2.14.48-4.69,4.06-6.26.86-1.65-3.36,2.61-2.76,4.36-3.62,2.73-1.35,4.07-3.76,5.53-6.15,1.93.46,4.41-2,5.85,1.11C24.61,166.05,23.28,170.55,21,173.94Z" transform="translate(128.9 149.53)"/><path class="cls-30" d="M97.09,122.13c-1.24,4.1-2.49,8.18-3.7,12.28a7.36,7.36,0,0,1-5.45,5.24c-2.42.61-1.1-1.06-.73-2,3.73-.87,4.5-4.07,5.37-7,1-3.29,1.77-6.62,3.42-9.66C97,120.8,97.36,121.15,97.09,122.13Z" transform="translate(128.9 149.53)"/><path class="cls-31" d="M-32.84,150.86c2.27.27,4.34-.68,6.53-1.18-2.42,2.68-6,2.88-8.83,4.64-3.14,2-6.19,4.13-3.65,8.58-2.73-1-3.49-4.69-1.21-7.26,1.37-1.53,3.3-2.56,5-3.81C-34.46,151.13-33.94,150.35-32.84,150.86Z" transform="translate(128.9 149.53)"/><path class="cls-32" d="M19.4,159.56a14.32,14.32,0,0,0-6.66,5.63c-.65.93-.72,3.62-2.8,2.22-1.48-1-.38-2.68.41-4A10.93,10.93,0,0,0,11,162.1c2.63-1.55,4.52-4.51,8.15-4.18C21.44,158.13,19.81,158.93,19.4,159.56Z" transform="translate(128.9 149.53)"/><path class="cls-33" d="M10.65,132.31c3.51,1.79.7,4.08,0,5.63-1.51,3.58-2.89,7.07-2.58,11-.31.48-.23,2.15-1.26.67a6.71,6.71,0,0,1-.42-6.22C7.75,139.68,9.23,136,10.65,132.31Z" transform="translate(128.9 149.53)"/><path class="cls-34" d="M97,155.82c-4.41.17-6.67,3-8.32,6.63-.48,1.09-.55,3.34-2.07,2.85-2.23-.72-1-2.67-.43-4.17,1.59-1.83,3-4,4.84-5.4S95.06,152.43,97,155.82Z" transform="translate(128.9 149.53)"/><path class="cls-35" d="M40.92,115.82c-3.55,0-6.67.43-7.84,4.71-.77,2.79-5.61.79-6,4.48-2-.71-2.44-1.58-.91-2.56a24.91,24.91,0,0,0,7.48-6.72C34.88,113.94,38.45,114.36,40.92,115.82Z" transform="translate(128.9 149.53)"/><path class="cls-36" d="M73.08,164.83c-6,.12-6.08,6-9,9.21-1.25.11-1.86-.15-1.22-1.6.8-1.77,1.44-3.62,2.14-5.43,2-1.5,3.62-3.72,6.42-3.93C72.68,163,73.86,163,73.08,164.83Z" transform="translate(128.9 149.53)"/><path class="cls-37" d="M152.13,125.58c-2.41,2.87-2.93,6.91-5.83,9.46-1.41,1.23-3.08,2.85-3.1-.9,3.64-1.44,4.15-5.18,5.94-8C149.78,125.14,150.48,122.15,152.13,125.58Z" transform="translate(128.9 149.53)"/><path class="cls-38" d="M110.14,170.34a7.31,7.31,0,0,0,2.24-3.72c-1.43.17-4.28,2.69-2.88-1.75,3-.83,5.67-.74,7.45,2.3a24.63,24.63,0,0,0-3.21,3.92C112.54,170.81,111.19,171.28,110.14,170.34Z" transform="translate(128.9 149.53)"/><path class="cls-39" d="M53.13,161.88c-2.47.13-2.37,2.34-3.09,3.85-1.2,2.52-1.52,5.57-4.32,7.34-.88-1.53.34-2.69.13-3.91,1.67-1.55,1.88-3.76,2.62-5.74C49.34,161.08,50.66,159.61,53.13,161.88Z" transform="translate(128.9 149.53)"/><path class="cls-40" d="M43,137.77c-2.28,2.92-3.86,6.46-7.09,8.55-1.52,1-3.8,2.79-3.52-1.37,3.7.27,4.71-3,6.66-5C40.1,138.78,40.39,136.11,43,137.77Z" transform="translate(128.9 149.53)"/><path class="cls-41" d="M-118.09,82.69c3.18-.54,6.28-1.52,9.17.11.8.46,1.82,1.25,1.42,2.31-.45,1.24-1.57.71-2.48.39Z" transform="translate(128.9 149.53)"/><path class="cls-42" d="M61.84,165.85c-1.61,3.38-1.87,7.74-7.12,9.24,1.06-3.09,4.07-4.87,3.4-8l1.78-2.18C60.94,164.42,61.91,164.06,61.84,165.85Z" transform="translate(128.9 149.53)"/><path class="cls-43" d="M-23.11,97.16c3.37,1.53,6.06,3.61,6.23,7.73C-20.22,103.33-22.91,101.25-23.11,97.16Z" transform="translate(128.9 149.53)"/><path class="cls-44" d="M43,166.11c-5.05-.49-6.87,3.54-9.1,6.93-1.6-1.06-.5-2.21-.64-3.19C35.75,166.75,37.81,162.41,43,166.11Z" transform="translate(128.9 149.53)"/><path class="cls-45" d="M-54.86,110.7c-3.3.53-5.76,3.65-9.43,3C-61,110-56.9,108.62-51,109.14-52.92,109.92-53.89,110.31-54.86,110.7Z" transform="translate(128.9 149.53)"/><path class="cls-46" d="M-8.91,126.68c-2.42,0-4.67,3.84-7.26.33a9.92,9.92,0,0,1,7.41-2C-6.49,125.39-8.86,126.11-8.91,126.68Z" transform="translate(128.9 149.53)"/><path class="cls-21" d="M-37.09,112.91c-4.79,1-5.06,4.2-3.83,8.08-2.64-1.39-3.34-3.84-2.15-6.16C-42,112.7-40,110.64-37.09,112.91Z" transform="translate(128.9 149.53)"/><path class="cls-47" d="M84,158.88c-1.78,1.7-2,3.89-1.9,6.17-2.66-3.37-2.53-6.4.44-7.71C84,156.7,84.79,157.11,84,158.88Z" transform="translate(128.9 149.53)"/><path class="cls-48" d="M97.09,122.13c-.37-.39-.73-.78-1.09-1.18,3.4-2.74,6.72-2.79,8-.12Z" transform="translate(128.9 149.53)"/><path class="cls-49" d="M-73.81,153.8c.35-.69.69-1.38,1-2.07,1.36,3,3.93,4.89,6.11,7.15C-70.35,159-72.71,157.3-73.81,153.8Z" transform="translate(128.9 149.53)"/><path class="cls-50" d="M72.86,175.81,71,174.18c2.12-1.3,4.07-2.86,6.24-4.07,1.19,0,2.12.48,1.28,1.67C77.1,173.71,75.71,175.84,72.86,175.81Z" transform="translate(128.9 149.53)"/><path class="cls-51" d="M-79,109.77l-2.1-.87c4-.62,7.87-3.22,12.11-1C-72.25,109.15-75.68,109.3-79,109.77Z" transform="translate(128.9 149.53)"/><path class="cls-34" d="M8.25,161c-1.37,1.8-2.51,3.68-2.12,6.09-3.43-1.48-1.75-3.82-.74-5.76C5.75,160.63,7,157.75,8.25,161Z" transform="translate(128.9 149.53)"/><path class="cls-52" d="M-32.84,150.86l-2.18,1-4.27-5.07c.56-1,1.14-3.12,2.33-.68A12.52,12.52,0,0,0-32.84,150.86Z" transform="translate(128.9 149.53)"/><path class="cls-53" d="M49.11,21.14c-2.12,3.54-5.44,1.3-8.22,1.71C43,19.31,46.34,21.54,49.11,21.14Z" transform="translate(128.9 149.53)"/><path class="cls-54" d="M87.11,5.11c-1.23,2.62-3,4.34-6.17,3.8C82.06,6.12,84,4.64,87.11,5.11Z" transform="translate(128.9 149.53)"/><path class="cls-55" d="M61.84,165.85l-1.94-.94c.87-1.07.71-2.48,1.16-3.65,1-2.71,2.47-2.86,3.91-.2-1.59-.07-2.39.72-2.12,2.27C63.05,164.47,63.46,165.51,61.84,165.85Z" transform="translate(128.9 149.53)"/><path class="cls-56" d="M35,6.94a5.68,5.68,0,0,1,4-6C39.28,4.05,37.94,6,35,6.94Z" transform="translate(128.9 149.53)"/><path class="cls-57" d="M15.28,125.55c-1.4.49-2.79,1-4.2,1.45-.64.2-1.58,1.29-1.86-.17-.11-.58.73-1.35,1.14-2,1.94-.27,3.86-.58,5.81-.77.53-.06,1.48.1.42.91A6.56,6.56,0,0,1,15.28,125.55Z" transform="translate(128.9 149.53)"/><path class="cls-58" d="M113.74,171.09c-.73-2.79.3-4.13,3.21-3.93C118.84,170.9,116.6,171.25,113.74,171.09Z" transform="translate(128.9 149.53)"/><path class="cls-59" d="M77.19,170.11c-1.45,2.32-3.3,4-6.24,4.07-1.09-.89-1.06-1.81.38-2,2.7-.28,4.08-1.94,5.08-4.18Z" transform="translate(128.9 149.53)"/><path class="cls-60" d="M-3,21c-2.08-.46-4.89,1.39-6-1.94C-6.95,19.49-4.12,17.59-3,21Z" transform="translate(128.9 149.53)"/><path class="cls-61" d="M73.06,103.07c-.51-2.95.66-4.43,3.72-4.22C76.6,101.19,75.19,102.45,73.06,103.07Z" transform="translate(128.9 149.53)"/><path class="cls-62" d="M7.16-6.91A4.16,4.16,0,0,0,8.21-2.84C8.09-2.09,8-1.33,6.9-1.54,6.92-3.34,2.15-5.36,7.16-6.91Z" transform="translate(128.9 149.53)"/><path class="cls-63" d="M20.06,150.91c1.72-1.49,3.44-5.08,5.15,0Z" transform="translate(128.9 149.53)"/><path class="cls-64" d="M9,170.58c1.95,1.4.67,3.53,1.18,5.26C7.08,174.69,7.62,172.73,9,170.58Z" transform="translate(128.9 149.53)"/><path class="cls-65" d="M133.2,62.07c-.23,1.38.66,1.73,1.74,1.9-.48,6.8-6.47,8.52-11,11.25-2.7,1.63-6.28,1.84-9.48,2.62-3.36.81-5.76-.31-6.92-3.68,1.67-1.1.5-1.57-.47-2.08a4.71,4.71,0,0,1-1.36-3.66A28.26,28.26,0,0,0,106,60.9c1.63-4.78,3.7-9.2,9-11a7.17,7.17,0,0,1,3.83.42c3.75,2.35,7.64,4.51,11.15,7.2C131.32,58.61,133.35,59.67,133.2,62.07Z" transform="translate(128.9 149.53)"/><path class="cls-66" d="M39.92,62.12c-3.21-.09-6.67-3.8-6.48-6.94.17-2.68,4.29-6.47,7-5.94,3.46.69,6.1,2.69,6.37,6.53C47,59.18,43.54,62.23,39.92,62.12Z" transform="translate(128.9 149.53)"/><path class="cls-67" d="M-23.75,50.15c3.36.19,5.52,2.31,5.76,6.18a6.19,6.19,0,0,1-6.49,6.56c-3.09-.09-6.44-3.51-6.3-6.44A7.11,7.11,0,0,1-23.75,50.15Z" transform="translate(128.9 149.53)"/><path class="cls-68" d="M71.88,63.25c-3.77-.42-6.33-2.19-6.64-6.15a6.07,6.07,0,0,1,6.22-6.31c3.92,0,6.39,2,6.55,6S75.6,62.64,71.88,63.25Z" transform="translate(128.9 149.53)"/><path class="cls-69" d="M8.09,48.43c3.11.45,5.23,2.32,5.12,6.14s-2.05,6.32-6.05,6.33S1.1,58.66,1,54.73,3.56,48.37,8.09,48.43Z" transform="translate(128.9 149.53)"/><path class="cls-70" d="M39,91.09c-3.77-3.45-4.23-7.2-1.2-10.21,2.86-2.83,5.83-2.09,8.45.22,3.43,3,3,5.94-1.1,10.05C43,92.46,41,91.75,39,91.09Z" transform="translate(128.9 149.53)"/><path class="cls-71" d="M1,82c4.51-2.94,8.33-2.66,10.3.74s.67,7.38-3.07,9.16c-3.4,1.63-5.64,0-7.45-2.77C-1,86.72-.52,84.36,1,82Z" transform="translate(128.9 149.53)"/><path class="cls-72" d="M93.94,37.19c-1.82-.37-3.5,1.18-5.67-.9s-4,.84-5.17,2.85c0-1.42-.68-3.54,1.2-3.82C87.61,34.82,91.27,33.86,93.94,37.19Z" transform="translate(128.9 149.53)"/><path class="cls-73" d="M-42.65,15.05c-.32-3.44-.5-6.86,1.75-9.84-.05,3.27.08,6.55-.19,9.8C-41.28,17.36-42.1,15.27-42.65,15.05Z" transform="translate(128.9 149.53)"/><path class="cls-74" d="M1,82C.8,84.4.09,86.76.8,89.16-2.13,86.69-1.8,84.32,1,82Z" transform="translate(128.9 149.53)"/><path class="cls-75" d="M39,91.09l6.15.06C43,94.84,41,92.47,39,91.09Z" transform="translate(128.9 149.53)"/><path d="M-7.42-45.77A20.67,20.67,0,0,1,13.2-25.67,20.5,20.5,0,0,1-6.73-5,20.7,20.7,0,0,1-27.68-25.26,20.88,20.88,0,0,1-7.42-45.77Z" transform="translate(128.9 149.53)"/><path d="M82.05-24.24a20.37,20.37,0,0,1-21.17,20C50.19-4.53,41-14.25,41.37-24.94a20.47,20.47,0,0,1,20.74-20A20.35,20.35,0,0,1,82.05-24.24Z" transform="translate(128.9 149.53)"/><path class="cls-76" d="M64.63,147c-2.87-2.69-1.77-6.09-1.31-9.16S65,132,65.9,129.06c2.34,3.87,3.63,8.23,6.91,11.71,2.37,2.51-1,4.29-2.67,5.79A4.47,4.47,0,0,1,64.63,147Z" transform="translate(128.9 149.53)"/><path class="cls-77" d="M77,134.75c-3.4-4.65-3.7-9.84-2-15.07.81-2.5,2.57-4.79,5.91-2.78.08,4.39.58,8.82-1,13.08C79.26,131.75,79.22,134,77,134.75Z" transform="translate(128.9 149.53)"/><path class="cls-78" d="M64.63,147a7.38,7.38,0,0,0,6.24-2.27c1.92-1.86,2.25-3.29.14-5.28a16.13,16.13,0,0,1-5.11-10.4c1.54-1.7,1.76-1.73,1.94-.43a20.17,20.17,0,0,0,6.54,12.31c2.51,2.37-.72,3.89-1.92,5.05C70.34,148.05,67.73,150.66,64.63,147Z" transform="translate(128.9 149.53)"/><path class="cls-79" d="M77,134.75c2.25-5.15,3.79-10.44,2.82-16.14-.19-1.12.21-1.45,1.07-1.71,3.39,6.51.38,12.42-1.87,18.32C78.42,136.71,77.49,135.66,77,134.75Z" transform="translate(128.9 149.53)"/><path class="cls-80" d="M116.87,130.9c-.39,3.07-.08,6.28-2,9C114.28,136.63,114.35,133.49,116.87,130.9Z" transform="translate(128.9 149.53)"/><path class="cls-81" d="M-28,144c-.66-4.43,2.91-11.29,6.66-12.74,1.11-.43,2.23-.59,3,.65-1.23,2.64-2.18,5.4-3.59,7.95S-25.11,143.92-28,144Z" transform="translate(128.9 149.53)"/><path class="cls-82" d="M-28,144c3.59-1.47,5.51-4.38,6.88-7.82.63-1.59.53-3.73,2.79-4.27a14.52,14.52,0,0,1-6.23,12.07C-25.57,144.65-26.9,145.62-28,144Z" transform="translate(128.9 149.53)"/><path class="cls-83" d="M-29.16,155.5c-1.26,3.09-2.36,4.88-4.95,5.12-.24,0-.85-.72-.79-1C-34.37,156.79-31.89,156.87-29.16,155.5Z" transform="translate(128.9 149.53)"/><path class="cls-84" d="M26.86,175.52c-.53-.36-.73-.41-.77-.52-.85-2.54.25-4.44,2.11-6a1.39,1.39,0,0,1,1.19.29C29.86,171.94,27.44,173.25,26.86,175.52Z" transform="translate(128.9 149.53)"/><path class="cls-85" d="M38.81,175.15c-1.12-1.39-.12-2.4.1-3.42.29-1.27.65-2.62,2.12-3a1.32,1.32,0,0,1,1.17.51c.43,1.51-.56,2.38-1.61,3.24C39.79,173.1,40.76,174.85,38.81,175.15Z" transform="translate(128.9 149.53)"/><path class="cls-86" d="M133.2,62.07,119,51.22c.16-1.26,1.63-2.93-.63-3.55-2.75-.76-2.3,1.9-3,3.26C110,52.14,109,57,107,61c-2.38,2.29-1.71,4.57,0,6.83l0,4.28c-4.44.08-8.34-1-10.84-5.08-.45-2.4-2.45-2.55-4.28-2.94-2.75-2.54-4.35-5.83-6-9.08.09-3,3.2-5.93.55-9.16.77-2.23-1.7-5.14,1.46-6.85,10.33,3.68,19.92-2.76,18.69-13.72-.37-3.25.81-4.7,4.15-4.08,1.57,1.5,3.22,2.66,5.44,1.15,5.76-.25,9.6,2.8,12.58,7.32.38,2.29,2.24,3.09,4,4,2.23,2.79,1.21,5-1.23,7-1.6,2.6-2.41,4.76,2.17,4a2.73,2.73,0,0,1,2.28.46,11.48,11.48,0,0,1-1,9.13l-.93,1.05c-.7,1.91.26,3.83,0,5.74Z" transform="translate(128.9 149.53)"/><path class="cls-87" d="M135.1,54.15c-.65-3.06.86-6.17-.21-9.22a11.19,11.19,0,0,0-4.81-4.84c2.29-1.55,4.47-3.14,1.89-6.18-.16-1.41.2-2.25,1.85-1.68,4,5.92,4.46,12.59,4.17,19.45C137.9,53.8,136.73,54.11,135.1,54.15Z" transform="translate(128.9 149.53)"/><path class="cls-88" d="M128.13,30.06c-3.08-4-6.85-6.75-12.08-7.06a1.22,1.22,0,0,1,0-1.92c5.94-.28,10,3.14,13.95,6.94C130.42,29.65,129.59,30.15,128.13,30.06Z" transform="translate(128.9 149.53)"/><path class="cls-89" d="M87.05,46.94c6.41,3.6-.25,5.43-1.09,8-2.18-2.71-.28-5.37.1-8C86.4,46.5,86.73,46.52,87.05,46.94Z" transform="translate(128.9 149.53)"/><path class="cls-90" d="M128.13,30.06l1.9-2q1.91,2.1,3.79,4.21L132,33.91C129,34.32,127.81,32.94,128.13,30.06Z" transform="translate(128.9 149.53)"/><path class="cls-91" d="M116.09,21.08c0,.64,0,1.28,0,1.93-3.3,3.81-4.51,1.67-5.24-1.84Z" transform="translate(128.9 149.53)"/><path class="cls-92" d="M92,64.06c1.47-.65,3-2,4.54-.57,1.15,1.06.8,2.41-.26,3.51C94.22,66.92,93,65.68,92,64.06Z" transform="translate(128.9 149.53)"/><path class="cls-93" d="M134.13,60.94c-1.17-1.92-2.61-3.85,0-5.74C137.06,57.13,135,59,134.13,60.94Z" transform="translate(128.9 149.53)"/><path class="cls-94" d="M87.05,46.94l-.49.06-.5-.07c-.08-2.48-.31-5-.18-7.44C86,38,86.81,37.29,88,39,86.08,41.44,87.33,44.28,87.05,46.94Z" transform="translate(128.9 149.53)"/><path class="cls-95" d="M91,166.1c1.19-3.29,2.18-5.37,4.65-7C96.52,162.86,94.8,164.51,91,166.1Z" transform="translate(128.9 149.53)"/><path class="cls-96" d="M103.53,170.64c-1.23-1.28-.57-2.6-.48-3.81a3.47,3.47,0,0,1,1.6-2.83,1.31,1.31,0,0,1,1.2.41c.65,1.28-.27,2.14-1,3S105.08,169.72,103.53,170.64Z" transform="translate(128.9 149.53)"/><path class="cls-97" d="M15.2,168.61c.15-.9.09-1.3.27-1.51,1.32-1.51,1.89-3.93,4.47-4,.25,0,.81.77.73,1C19.88,166.59,18.47,168.39,15.2,168.61Z" transform="translate(128.9 149.53)"/><path class="cls-98" d="M115.38,50.93c-1.09-1.9-1.68-3.81,1-4.79,1.82-.67,3.79-.32,4.71,1.55s0,3.14-2,3.53Z" transform="translate(128.9 149.53)"/><path class="cls-99" d="M107.07,67.8c-4.43-2.86-4.44-4.46,0-6.83C107.65,63.25,107.31,65.53,107.07,67.8Z" transform="translate(128.9 149.53)"/><path class="cls-100" d="M-2.15-34.17c-.17,2.47-1.21,4.74-4.16,5s-4.39-2-4.53-4.71c-.16-2.93.9-5.34,4.29-5.39C-3.45-39.36-2.41-37.16-2.15-34.17Z" transform="translate(128.9 149.53)"/><path class="cls-101" d="M61.94-42c3.31.57,4.81,2.51,4.88,5.21s-1.07,5.12-4.13,5.26c-3.3.14-4.64-2.14-4.7-5.17S59.73-41.11,61.94-42Z" transform="translate(128.9 149.53)"/><path class="cls-102" d="M103,47.73a4,4,0,0,1-4.16,3.4c-2.28-.05-3.81-1.48-3.61-3.73a3.56,3.56,0,0,1,4-3.44C101.62,44.06,102.65,45.55,103,47.73Z" transform="translate(128.9 149.53)"/><path class="cls-103" d="M121,36.78c-2.45-.5-3.47-1.79-3.2-4,.25-2,1.38-3,3.36-2.88s3.48,1.37,3.31,3.54S122.67,36.43,121,36.78Z" transform="translate(128.9 149.53)"/><path class="cls-104" d="M130.08,40.09c3.79-.55,5.63.82,4.81,4.84-1.69.43-3.06,3.29-5.07,1C128.19,44.12,128.44,42,130.08,40.09Z" transform="translate(128.9 149.53)"/><path class="cls-105" d="M113.62,38.47c-.43,1.51-1.09,2.64-2.73,2.42a2.12,2.12,0,0,1-2-2.39,2.32,2.32,0,0,1,2.64-2.3C113,36.29,113.26,37.5,113.62,38.47Z" transform="translate(128.9 149.53)"/></svg>