<svg id="Layer_1" data-name="Layer 1" xmlns="http://www.w3.org/2000/svg" viewBox="0 0 750.17 279.48"><defs><style>.cls-1{fill:#030305;}.cls-2{fill:#076bb6;}</style></defs><title>Oath</title><path class="cls-1" d="M-123.25.55c-1,63.34-52,112.65-115.46,111.65C-300.4,111.22-349.91,60-349-1.95c.91-62.36,52.46-111.88,115.31-110.78C-172.54-111.66-122.31-60.15-123.25.55ZM-174.6-1.23c-.09-1.66-.1-4.51-.45-7.32-2.85-23-13.59-40.83-35.21-50.22-21.86-9.48-43.46-7.75-63,6.48-18.68,13.64-25.1,33.3-24.6,55.64.92,41.42,36.86,69.24,76.93,59.7C-192.54,56.29-174.55,31.77-174.6-1.23Z" transform="translate(349.02 112.75)"/><path class="cls-1" d="M209-35.95c1.85-2.14,3.55-4.06,5.2-6,16.28-19.25,37.33-22.78,60.33-17C297.08-53.26,309-37,313.84-15A71.07,71.07,0,0,1,315.32.36c0,34.33-.07,68.66.1,103,0,4-1.05,4.91-4.89,4.84q-20.49-.36-41,0c-3.82.07-4.62-1-4.6-4.7.16-29,.11-58,.1-87a80.34,80.34,0,0,0-.7-13C262.44-8.27,256.15-15.8,246-18.24,233.91-21.13,222-17,215.33-7.68c-5.37,7.51-7,16.07-7,25.06,0,28.66-.12,57.33.09,86,0,4.14-1.25,4.87-5,4.81-13.83-.21-27.67-.16-41.5,0-2.91,0-4-.51-4-3.77q.15-103,0-206c0-3.11.9-3.84,3.91-3.81,14.16.16,28.33.19,42.49,0,3.51-.06,4,1.24,4,4.28-.1,20-.06,40,0,60C208.32-39.58,207.86-37.91,209-35.95Z" transform="translate(349.02 112.75)"/><path class="cls-1" d="M-13.32,89.66c-3.05,3.22-5.41,5.91-8,8.39a48.33,48.33,0,0,1-27,13.09,87.89,87.89,0,0,1-33.74-1c-25.42-6-40-26.79-37.68-52.9,2-21.94,15-34.3,34.62-41.17,13.3-4.65,27.3-5.76,41.07-8A119.33,119.33,0,0,0-25.5,3.92C-18.08,1.46-14.36-2.91-14.3-9a16.18,16.18,0,0,0-10.86-15.8,39.9,39.9,0,0,0-27.42.45c-7.28,2.77-11.46,8.47-13,15.92-.6,3-1.73,3.61-4.53,3.57-12.83-.15-25.66-.19-38.49,0-3.29,0-3.91-1-3.56-4,2.44-20.91,13.87-35.2,32.53-44,16.93-8,35-9,53.28-7.67,11.36.8,22.51,2.79,32.77,8C27-42.17,34.63-24.16,34.89-2.43c.36,28.65.12,57.31.08,86A74.35,74.35,0,0,0,36.09,97a19.73,19.73,0,0,0,1.54,5.23c2.94,5.93,3,5.88-3.82,5.88-12.66,0-25.33-.13-38,.12-3.54.07-5.18-1.35-6.16-4.36A58.18,58.18,0,0,1-13.32,89.66Zm.13-61.06C-23.31,33.23-33.31,35.66-43.34,38a78,78,0,0,0-17.88,6.17C-68.64,48-72,54.83-70.89,63.82c.91,7.61,5,12.34,13.21,14.34a41.73,41.73,0,0,0,28.3-2.53c9.63-4.54,15.31-12.34,16.08-23C-12.73,44.9-13.19,37.06-13.19,28.6Z" transform="translate(349.02 112.75)"/><path class="cls-1" d="M64.19,26.89c0-17.7-.09-32.54.07-47.36,0-3.2-.69-4.45-4.11-4.24-4.81.3-9.66-.05-14.49.14-2.71.11-3.78-.55-3.7-3.53.21-8.32.18-16.66,0-25,0-2.65.78-3.47,3.39-3.38,5,.18,10-.13,15,.13,3.12.16,3.94-.87,3.91-3.93-.16-13.66,0-27.33-.14-41,0-3.27.78-4.22,4.14-4.16q20.49.32,41,0c3.26,0,4.19.89,4.15,4.11-.17,13.49,0,27-.2,40.48,0,3.42.78,4.65,4.37,4.52,7.32-.28,14.67,0,22-.18,3.1-.1,3.51,1.23,3.46,3.82-.12,8.17-.17,16.33,0,24.49.07,2.86-.81,3.71-3.62,3.64-7.49-.17-15,.05-22.49-.15-2.87-.07-3.72.87-3.71,3.69.09,25-.08,50,.14,75,.1,11.93,5.35,16.8,17.28,17.05.33,0,.67,0,1,0,3.77.31,8.77-1.67,11,.88,1.84,2.14.6,7,.62,10.63,0,7.33,0,14.66,0,22,0,1.76,0,3.21-2.37,3.5-17.28,2.08-34.59,3.58-51.43-2.18C74.39,100.75,66.15,89.83,64.8,74,63.39,57.35,64.64,40.67,64.19,26.89Z" transform="translate(349.02 112.75)"/><path class="cls-2" d="M401.15,76.89A36.18,36.18,0,1,1,365.29,40.4C385.1,40.42,401.29,56.9,401.15,76.89Z" transform="translate(349.02 112.75)"/><path class="cls-2" d="M328.81-15.85c-.37-19.1,17.45-36.27,37.24-35.55a36.24,36.24,0,0,1,35.06,36.82,36.2,36.2,0,0,1-36.42,35.45C345.1,20.77,328,3.86,328.81-15.85Z" transform="translate(349.02 112.75)"/><path class="cls-1" d="M180.85,146.7c0-2.5,0-5,0-7.48,0-3.61,3.59-6,5.9-3.6,2.17,2.29,2.81.6,4.18,0,3.11-1.41,6.3-1.51,8.81.92,1.61,1.56,2.2,1.21,3.82,0,6-4.4,12.75-1.32,13.25,6,.31,4.47-.08,9,.14,13.46.16,3.23-1.84,2.74-3.86,2.89-2.46.18-3.7-.37-3.49-3.2a71.25,71.25,0,0,0,0-9.47c-.13-2.36.27-5.49-3.51-5.36-3.44.11-3.6,3-3.74,5.46a71.25,71.25,0,0,0,0,9.47c.23,3-1.26,3.18-3.58,3.11-2.15-.06-4,.11-3.76-3,.22-3.64,0-7.31,0-11,0-2.2-.52-4.05-3.19-4.13s-3.67,1.64-3.8,3.76a97.38,97.38,0,0,0-.09,11.46c.19,3.25-1.81,2.81-3.83,2.85s-3.62.1-3.44-2.74c.2-3.15.05-6.31.05-9.47Z" transform="translate(349.02 112.75)"/><path class="cls-1" d="M-68.59,159c3.84-10.78,7.49-20.9,11-31.06,1.08-3.09,3.54-1.67,5.45-1.9s3.4-.19,4.23,2.26c3.45,10,7.16,20,10.91,30.35-4.3.11-8.49,1.89-9.85-4.33-.68-3.1-6.34-2.26-6.34-2.26s-5.94.07-7.09,4.88C-61.22,161-65.28,158.11-68.59,159Zm15.75-24.66c-1,3-1.55,4.62-2.07,6.29-2.15,6.87-2.14,6.87,5.67,5.9C-50.31,142.91-51.38,139.3-52.84,134.36Z" transform="translate(349.02 112.75)"/><path class="cls-1" d="M227.22,157.27a56.64,56.64,0,0,0,0,5.88c.33,3-1.1,3.49-3.77,3.57-3,.09-3.57-1.11-3.53-3.76.14-7.81,0-15.63.07-23.44,0-4.07,2.53-6.22,5.69-4,2.29,1.63,3.13.53,4.65-.1,4.5-1.88,9.24-.55,11.75,3.59a15.07,15.07,0,0,1,.29,15.66C239.59,159.92,234.37,160.77,227.22,157.27Zm9.84-9.94c-.22-3.39-.82-6.78-4.89-6.83s-5,3.12-5.08,6.54.93,6.55,4.9,6.69C236.18,153.89,236.77,150.53,237.06,147.33Z" transform="translate(349.02 112.75)"/><path class="cls-1" d="M-32.58,126.36c7.88-.69,7.87-.69,10,6.17,1.54,5,3.08,10.07,4.93,16.1,1.79-6.08,3.23-11.11,4.74-16.11,2.09-6.92,2.11-6.92,9.77-6.15-3.34,10.13-6.74,20.16-9.92,30.27-.89,2.81-2.89,2.2-4.78,2.25s-3.87.44-4.74-2.29C-25.78,146.65-29.14,136.76-32.58,126.36Z" transform="translate(349.02 112.75)"/><path class="cls-1" d="M96.12,146.68c0-2.34,0-4.67,0-7,0-4.13,2.85-6.35,6.06-4.12,1.79,1.24,2.29,1.2,4,.27,5.8-3.17,11.75-.1,12.43,6.56.47,4.62,0,9.32.2,14,.1,3-1.92,2.52-3.69,2.52s-3.83.57-3.75-2.44c.09-3.66,0-7.33,0-11,0-2.31-.47-4.44-3.39-4.6s-4.28,1.72-4.45,4.29a95.77,95.77,0,0,0-.1,11c.14,2.76-1.33,2.93-3.38,2.79s-4.17.61-4-2.75C96.28,153,96.13,149.84,96.12,146.68Z" transform="translate(349.02 112.75)"/><path class="cls-1" d="M306.31,150c1.49-4.82,2.65-8.45,3.72-12.1.45-1.56,1-2.5,3-2.68,4.76-.42,5.24,0,3.7,4.51-2.3,6.75-4.69,13.47-6.93,20.24-1.66,5-5.13,7-10.25,6.73-1.73-.09-3-.29-2.83-2.41.11-1.53-.63-3.32,2.19-3.38,4.31-.11,3.6-3.09,2.64-5.7-2.37-6.51-4.91-13-7.39-19.44,5.24-1.66,8.44-.53,9.33,5.17C303.86,143.62,305.08,146.2,306.31,150Z" transform="translate(349.02 112.75)"/><path class="cls-1" d="M293.63,149.82c0,1.67-.1,3.34,0,5,.2,2.67-.14,4.27-3.61,4.22-3.2-.05-4-1.11-3.84-4.06.22-3.15.06-6.32,0-9.48,0-2.31-.45-4.43-3.32-4.66s-4.28,1.74-4.49,4.25a83.1,83.1,0,0,0-.15,10.47c.12,2.54-.6,3.58-3.32,3.41-2.3-.15-4.15.11-4-3.27.28-5.48,0-11,.08-16.46,0-3.71,3.71-6,6.37-3.49,1.64,1.56,1.89,1,3.17.3,6.42-3.4,12.21-.37,13,6.81a67.49,67.49,0,0,1,0,7Z" transform="translate(349.02 112.75)"/><path class="cls-1" d="M268,150.13a28.5,28.5,0,0,0,.06,5.47c.65,3.22-1.14,4.11-3.43,3.18-3.31-1.33-6.12-.15-9.22.41-5.13.92-8.83-1.51-9.43-5.68-.66-4.54,1.65-7.34,7-8.46,1.29-.26,2.63-.36,3.92-.66s3.15-.15,3.75-1.92a1.84,1.84,0,0,0-1.24-2.37c-1.59-.59-3.66-1-4.63.48-1.49,2.26-3.4,2.22-5.59,2.19s-2.47-1-1.76-2.85c1.52-3.85,6.56-5.81,13-5,4.35.54,7.05,2.86,7.47,7.27.26,2.63.05,5.31.05,8Zm-7.44-3c-2.47,2.59-7.07.57-7.53,5.14-.21,2.13,1.79,2.62,3.54,2.41C260.27,154.2,261.49,151.91,260.51,147.1Z" transform="translate(349.02 112.75)"/><path class="cls-1" d="M166.11,134.77c7.5.09,12.52,5.25,12.34,12.67A12.08,12.08,0,0,1,166,159.6c-7.37-.08-12.61-5.28-12.66-12.57S158.67,134.69,166.11,134.77Zm5,12.39c-.31-3.48-.76-7.1-5.2-7.14s-5.07,3.57-5.09,7,.52,7,5,7.05S170.83,150.58,171.13,147.16Z" transform="translate(349.02 112.75)"/><path class="cls-1" d="M.94,149c2.3,5.12,5,6.64,8.09,4.24,2.7-2.13,5.19-1.19,8-1.25-2,5.81-6.52,8.32-12.88,7.3s-10.2-5.44-10.28-12c-.08-6.36,3.62-11.27,9.32-12.36,7.53-1.42,13.33,2.87,14.54,10.62.38,2.44.09,3.68-2.87,3.52C10.35,148.83,5.88,149,.94,149Zm.23-5.07c1.93,1.11,3.79.55,5.54.56,1.13,0,3.08.89,3.3-1s-1.25-3.09-3-3.41C3.89,139.49,2,140.89,1.17,143.93Z" transform="translate(349.02 112.75)"/><path class="cls-1" d="M81.49,134.76c7.42.06,12.52,5.25,12.4,12.63a12.11,12.11,0,0,1-12.44,12.18c-7.37,0-12.56-5.12-12.6-12.51S73.91,134.71,81.49,134.76Zm5.08,12.49c-.42-3.33-.66-7.09-5.11-7.24s-5.24,3.48-5.28,6.91.52,7.06,5,7.23S86.15,150.69,86.57,147.25Z" transform="translate(349.02 112.75)"/><path class="cls-1" d="M58.66,140.92c-3.07,0-5.07-.13-7,0-2.27.18-3.25-.42-3.23-3,0-2.73,1.41-2.83,3.48-2.76,3.65.11,7.31-.1,11,.07,1.51.07,3.76-1.14,4.43.9a5.89,5.89,0,0,1-1.32,6.42c-3.11,3.11-6,6.46-9.73,10.53,3.74,0,6.48.13,9.21,0,2.27-.13,2.8.86,2.79,2.92s-.53,3-2.81,2.9c-4.64-.15-9.3,0-13.94-.09-1.36,0-3.38.88-3.94-1a5.48,5.48,0,0,1,.93-5.61C51.66,148.78,54.8,145.21,58.66,140.92Z" transform="translate(349.02 112.75)"/><path class="cls-1" d="M151.82,150.17c-1.8,6.69-5.12,9.37-11,9.41a11.89,11.89,0,0,1-11.93-8.71c-1.62-5.63.49-11.71,5-14.48,4.18-2.56,11.18-2.19,14.51,1,1.63,1.56,4,4,2.42,5.75a4.64,4.64,0,0,1-6.87-1.06,3.76,3.76,0,0,0-4.75-1.67,4.85,4.85,0,0,0-3.22,4.09,12.33,12.33,0,0,0,.32,6.41c1.21,3.2,5.57,4.57,7.11,1.93C145.62,149,148.53,150.19,151.82,150.17Z" transform="translate(349.02 112.75)"/><path class="cls-1" d="M20.26,146.75c0-2.5,0-5,0-7.5.07-3.79,3.38-6.09,6-3.58,2.31,2.21,3,.48,4.5-.06s3.33-1,4.27.93c.7,1.43,1.7,4.47-2.19,4.82s-5.17,3.13-5.13,6.73c0,2.17-.16,4.34,0,6.5.19,2.88-.17,4.49-3.9,4.45s-3.64-1.72-3.52-4.29,0-5.33,0-8Z" transform="translate(349.02 112.75)"/><path class="cls-1" d="M44.91,147c0,2.49-.09,5,0,7.46.11,2.67.2,4.55-3.71,4.59-4.16,0-3.56-2.23-3.55-4.7,0-5.3.17-10.61,0-15.91-.12-2.78,1-3.35,3.46-3.29s4.21.17,3.9,3.41C44.71,141.36,44.92,144.2,44.91,147Z" transform="translate(349.02 112.75)"/><path class="cls-1" d="M40.86,126.09c2.43-.2,4.08-.37,4.15,2.77.06,3.35-1.71,3.14-4,3.2s-3.51-.28-3.48-3.13C37.6,125.93,39,125.64,40.86,126.09Z" transform="translate(349.02 112.75)"/></svg>