<?xml version="1.0" encoding="utf-8"?>
<!-- Generator: Adobe Illustrator 21.0.0, SVG Export Plug-In . SVG Version: 6.00 Build 0)  -->
<svg version="1.1"
	 id="svg2" inkscape:version="0.47 r22583" sodipodi:docname="pfc.pdf" xmlns:cc="http://creativecommons.org/ns#" xmlns:dc="http://purl.org/dc/elements/1.1/" xmlns:inkscape="http://www.inkscape.org/namespaces/inkscape" xmlns:rdf="http://www.w3.org/1999/02/22-rdf-syntax-ns#" xmlns:sodipodi="http://sodipodi.sourceforge.net/DTD/sodipodi-0.dtd" xmlns:svg="http://www.w3.org/2000/svg"
	 xmlns="http://www.w3.org/2000/svg" xmlns:xlink="http://www.w3.org/1999/xlink" x="0px" y="0px" viewBox="0 0 301.2 56.9"
	 style="enable-background:new 0 0 301.2 56.9;" xml:space="preserve">
<defs>
	
	
		<inkscape:perspective  id="perspective10" inkscape:persp3d-origin="0.5 : 0.33333333 : 1" inkscape:vp_x="0 : 0.5 : 1" inkscape:vp_y="0 : 1000 : 0" inkscape:vp_z="1 : 0.5 : 1" sodipodi:type="inkscape:persp3d">
		</inkscape:perspective>
</defs>
<sodipodi:namedview  bordercolor="#666666" borderopacity="1" gridtolerance="10" guidetolerance="10" id="namedview4" inkscape:current-layer="g12" inkscape:cx="191.52883" inkscape:cy="31.9066" inkscape:pageopacity="0" inkscape:pageshadow="2" inkscape:window-maximized="1" inkscape:window-x="-8" inkscape:window-y="-8" inkscape:zoom="1.3485026" objecttolerance="10" pagecolor="#ffffff" showgrid="false">
	</sodipodi:namedview>
<g id="g70" transform="translate(176.1761,591.7372)">
	<path id="path72" d="M-60.5-544.3h-2.2l-3.7,9.2h2.3l0.7-2.2h2.7l0.8,2.2h2.9L-60.5-544.3z M-63-538.9l1-3l0.8,3H-63z"/>
</g>
<g id="g44" transform="translate(176.6964,635.6879)">
	<path id="path46" d="M-60.5-632.3C-60.5-632.3-60.6-632.3-60.5-632.3c-6.6,3.2-15.5,8.6-17.1,18.4c0,0,0,0.1,0,0.1
		c-0.4,5.2,1.7,9.8,5.7,12.6c5.3,3.3,12.2,2.7,18.4-1.6c0,0,0.1-0.1,0.1-0.1c0.3-0.3,0.7-0.6,1.1-0.8c0.9-0.7,2-1.4,2.3-2.9
		c0-0.1,0-0.2,0-0.3c-0.2-1.1-1-1.8-2.2-1.8c-0.2,0-0.4,0.1-0.5,0.2l-0.5,0.4c-2,1.5-4.1,3.1-6.6,3.9c-3.4,1.3-8.3,1.4-11-1.7
		c0,0,0,0-0.1-0.1c-1.7-1.5-2.4-4-2.4-6.4c0-1.4,0.2-2.7,0.7-3.9c4-7.5,12.5-13,21.9-14.1c0,0,0,0,0,0.1c0,0.2,0,0.3,0,0.5
		c0,0.5,0.1,1.1,0.6,1.6c0,0,0,0,0.1,0.1c0.9,0.7,2,0.4,2.4,0.2c0.2-0.1,0.4-0.2,0.5-0.4c0.8-1.5,0.6-4.5,0.5-5.1
		c0-0.2-0.1-0.4-0.3-0.5l-0.5-0.5c-0.1-0.1-0.3-0.2-0.5-0.3C-52.3-635.1-56.8-633.7-60.5-632.3"/>
</g>
<g id="g96" transform="translate(149.74271,591.7372)">
	<path id="path98" d="M-60.6-544.3v5.2h-0.2l-3.6-5.2h-2v9.2h2.1v-5.2l4,5.2h1.9v-9.2H-60.6z"/>
</g>
<g id="g52" transform="translate(148.6487,632.81709)">
	<path id="path54" d="M-60.6-626.5l-17.7,0c-0.2,0-0.4,0.1-0.6,0.2l-0.7,0.6c-0.2,0.2-0.3,0.4-0.3,0.7v35.3c0,0.2,0.1,0.3,0.1,0.5
		l0.4,0.6c0.1,0.1,0.2,0.2,0.3,0.2c0.7,0.5,1.7,0.3,2.3,0c0.6-0.3,1-0.9,1-1.6c0,0,0-17.9,0-22.1c1.5,0,10.2,0,10.2,0
		c0.3,0,0.6-0.3,0.8-0.5l-0.2,0.2c0.3-0.2,0.8-0.6,1-1.5c0-0.1,0-0.1,0-0.2c0,0,0-0.1,0-0.1c-0.2-1.3-1-2.1-2-2.1c0,0-7.2,0-9.8,0
		c0-1.2,0-4.6,0-5.9h15c0.5,0,0.9-0.2,1.2-0.5c0.3-0.4,0.5-0.9,0.5-1.4c0-0.1,0-0.3,0-0.4c0-0.1-0.1-0.2-0.1-0.3l-0.1-0.2
		c-0.1-0.3-0.3-0.9-0.9-1.2C-60.3-626.5-60.4-626.5-60.6-626.5"/>
</g>
<path id="path78" d="M0,40.2h65.1v-0.4H0C0,39.8,0,40.2,0,40.2z"/>
<path id="path68" d="M64.2,56.7h-2.7v-9.2h2.7V56.7z"/>
<g id="g82">
	<g id="g88" transform="translate(100.6895,632.3387)">
		<path id="path90" d="M-60.7-625.6C-60.6-625.6-60.6-625.6-60.7-625.6C-60.6-625.6-60.6-625.6-60.7-625.6c-0.1,0.1-0.2,0.1-0.3,0.3
			C-60.9-625.4-60.8-625.5-60.7-625.6c-0.3,0.1-0.5,0.2-0.7,0.6c-0.2,0.4-0.4,1.8-0.4,2.9c0,0.4,0,0.8,0.1,1c0,0,0,0,0,0v22.7
			c0,0,0,1,0,1c0,0.2,0,0.3,0.1,0.4c0.5,0.8,1.4,1.2,2.4,1c0.9-0.2,1.6-0.8,1.7-1.7c0,0,0-0.1,0-0.1c0,0,0-6.5,0-8
			c1.8,0,3.4-0.2,5-0.5l1-0.2c0,0,0,0,0.1,0c6.8-1.6,14.3-5.3,15.8-10c0.4-1.2,0.1-3.8-0.5-4.6c-4.4-7.3-15.2-4.7-21.6-2.9
			c-0.1-0.3-0.1-0.6-0.1-0.6c0-0.1,0-0.1,0-0.2c-0.2-0.6-0.8-1.1-1.4-1.2C-59.8-626-60.3-625.9-60.7-625.6 M-60.1-625.6
			c-0.1,0-0.1,0-0.2,0C-60.2-625.7-60.2-625.7-60.1-625.6 M-42-620.6c0.2,0.2,1.5,1,1.7,1.2c0,0.1,0.1,0.1,0.1,0.1
			c0.2,0.3,0.4,0.6,0.4,1.1c0,0.2,0,0.4-0.1,0.6c-1.5,3.9-10.5,7.2-17.7,7.7v-9.4C-51.7-621.6-46.4-622.1-42-620.6 M-58.5-605.9
			C-58.4-605.9-58.4-605.9-58.5-605.9C-58.4-605.9-58.4-605.9-58.5-605.9"/>
	</g>
	<g id="g92" transform="translate(71.271896,587.1848)">
		<path id="path94" d="M-60.7-535.2c-0.1-3.7,4.3-2.8,4.3-2.8l0.6-1.7c0,0-7.5-1.8-7.8,4.5c0.3,6.2,7.8,4.5,7.8,4.5l-0.6-1.7
			C-56.4-532.4-60.8-531.5-60.7-535.2"/>
	</g>
</g>
<g id="g142" transform="translate(94.612198,591.64391)">
	<path id="path144" d="M-60.7-544.1v9.1h2.7v-4.1h3.1v4.1h2.7v-9.1h-2.7v3.5h-3v-3.5H-60.7z"/>
</g>
<path id="path76" d="M75.6,40.4h145.9v-0.4H75.6V40.4z"/>
<g id="g3317">
	<g id="g36" transform="translate(261.2661,637.6396)">
		<path id="path38" d="M-60.3-636.2c0,0.1,0,0.2,0,0.3c0,0,0,20.6,0,25.3c-4.1-6.1-8.7-12.8-13.3-19.3c0,0,0,0-0.1-0.1
			c-0.3-0.4-0.8-0.6-1.2-0.6c-0.9,0-1.6,0.8-1.9,1.2c-0.1,0.2-0.2,0.4-0.2,0.6v26.1c0,0.1,0,0.2,0.1,0.4l0.1,0.2
			c0.2,0.6,0.7,1.7,2.5,1.3c0.1,0,0.1,0,0.2-0.1c0.6-0.3,1-0.8,1.3-1.5c0-0.1,0.1-0.2,0.1-0.3v-18.6c0.4,0.6,0.8,1.3,0.8,1.3
			c4.1,6.3,8.4,12.9,12.4,18.8c0.1,0.2,0.3,0.3,0.5,0.4c0.6,0.2,1.5,0.2,2.3-0.3c0.5-0.3,0.7-0.8,0.8-1.3c0,0,0-0.1,0-0.1l0-32.9
			c0-0.1,0-0.2,0-0.3c-0.4-1.1-1.2-1.7-2.1-1.7C-59.3-637.6-60-637.1-60.3-636.2"/>
	</g>
	<g id="g40" transform="translate(210.8887,638.7097)">
		<path id="path42" d="M-60.4-638.3c0,0,0.1,0,0.1,0c-1,0-1.4,0.8-1.6,1.2c-0.1,0.1-0.1,0.3-0.1,0.4c0,0,0,25,0,26.6
			c-1.5,0-11.2,0-12.7,0v-19.9c0-0.2-0.1-0.3-0.2-0.5l-0.6-0.8c-0.1-0.2-0.4-0.3-0.6-0.4c-2-0.3-2.5,0.6-2.7,1.2c0,0.1,0,0.1,0,0.2
			c0,0,0,18.5,0,20.1c-0.9,0-2.4,0.1-2.4,0.1c0,0-0.1,0-0.1,0c-0.5,0.1-1,0.3-1.3,0.8c-0.2,0.4-0.3,0.8-0.3,1.2
			c0,0.3,0.1,0.6,0.1,0.8c0,0.1,0.1,0.1,0.1,0.2c0.7,1.1,2.1,1,3.1,1c0.2,0,0.5,0,0.7,0c0,0.2,0,0.3,0,0.5c0,0.3,0,0.5,0,0.8
			c0,0.7,0.1,1.4,0.6,1.9c0.2,0.3,0.7,0.6,1.4,0.6c0.1,0,0.2,0,0.2,0c1.8-0.4,1.8-2.2,1.8-3.2c0-0.2,0-0.3,0-0.5
			c1.3,0,11.2,0,12.7,0v2.2c0,0.1,0,0.2,0,0.3c0.3,0.8,1,1.3,2.2,1.3c1,0,1.4-0.7,1.6-1.1l0.1-0.2c0.1-0.1,0.1-0.3,0.1-0.4v-32.8
			c0,0,0-0.1,0-0.1C-58.3-637.8-59.3-638.5-60.4-638.3"/>
	</g>
	<g id="g48" transform="translate(298.4248,637.024)">
		<path id="path50" d="M-60.3-635c0,0,0.1,0,0.1,0c-1.2,0-1.7,1-1.9,1.4c-0.1,0.3-0.2,0.6-0.2,0.9c0,0.7,0.4,1.4,0.9,2
			c-0.2,0.5-0.5,1.5-0.5,1.5c0,0.1,0,0.1,0,0.2c0,0.2,0.1,0.3,0.2,0.5c0.2,0.2,0.5,0.2,0.7,0.1l1.7-0.9c0,0,0.1,0,0.1-0.1
			c1.4-1.1,1.9-2.4,1.6-3.8c0,0,0,0,0-0.1C-58-634.4-59.1-635.2-60.3-635"/>
	</g>
	<g id="g56" transform="translate(291.44209,631.741)">
		<path id="path58" d="M-60.3-624.4c-8.5,1.2-15,4.2-19.5,8.8c-4,4.4-5.5,9.4-4,13.8c1,3,3.2,5.2,6.4,6.4c3.9,1.2,7.7,0.6,10.5-1.6
			c0,2.3,0,9,0,9c0,0,0,0,0,0.1c0,0,0,0.1,0,0.1c0,0.1,0,0.1,0.1,0.2c0.2,0.9,1,1.4,1.8,1.5c0,0,0.1,0,0.1,0c0.7,0,2-0.7,2-1.8
			v-15.5c0-0.1,0-0.2-0.1-0.3l-0.3-0.7c0-0.1-0.1-0.2-0.2-0.3c-0.7-0.7-1.8-0.6-2.6-0.3c-0.2,0.1-0.4,0.3-0.5,0.5
			c-1,2.9-2.4,4.6-4.3,5.2c-3,0.9-5.9,0.2-7.8-2c-0.9-1-1.4-2.6-1.4-4.2c0-1,0.2-1.9,0.5-2.8c2.6-6,9-10.1,17.8-11.6
			c0,0.4,0.1,1,0.5,1.5c0.7,0.8,1.9,0.9,2.9,0.3c0.1-0.1,0.2-0.2,0.3-0.3c0.6-1,0.4-2.3,0.3-3.4c0,0-0.1-0.7-0.1-0.8
			c-0.1-0.5-0.4-1-0.8-1.3C-59.1-624.3-59.7-624.5-60.3-624.4"/>
	</g>
	<g id="g60" transform="translate(308.39729,630.69659)">
		<path id="path62" d="M-60.3-622.3c-0.1,0-0.2,0.1-0.2,0.2l-8.6,9.7c-0.1,0.1-0.1,0.1-0.1,0.2c-0.3,0.6-0.3,1.3,0,1.9
			c0.3,0.6,0.8,1.1,1.4,1.2c0.2,0,0.3,0,0.5,0c4.3-1.1,8.9-2,13-0.5c2.5,1.3,3.6,2.7,3.6,4.5c0,0.1,0,0.2,0,0.3
			c0,2.9-2.7,4.7-3.6,5.2c-4.1,2.2-10.1,2.1-14.7-0.3c0,0-0.1,0-0.1-0.1c-0.5-0.2-0.9-0.5-1.4-0.9c-0.9-0.7-2-1.6-3.7-1
			c-0.2,0.1-0.3,0.2-0.5,0.3c-0.2,0.3-0.6,0.9-0.6,1.6c0,0.4,0.2,0.9,0.7,1.3c2,1.5,4.1,2.9,6.4,3.5c1.5,0.7,3.3,0.9,5,1.1l1.3,0.2
			c0,0,0.1,0,0.1,0c7,0.3,12.6-2.7,14.9-8.1c0,0,0-0.1,0-0.1c0.8-2.9,0.5-5.5-0.8-7.4c-3-4.3-8.9-5.6-13.7-5.1
			c-0.1,0-0.2-0.1-0.3-0.1c0,0-0.1,0-0.1,0c1.6-1.9,4.4-5.1,4.4-5.1c0.1-0.1,0.2-0.3,0.2-0.4c0-0.1,0.1-0.4,0.1-0.8
			c0-0.6-0.1-1.3-0.7-1.7C-58.2-623-59.1-622.9-60.3-622.3 M-61.3-614.4c0,0-0.1,0-0.1,0C-61.4-614.4-61.3-614.4-61.3-614.4"/>
	</g>
	<g id="g64" transform="translate(227.2901,631.3936)">
		<path id="path66" d="M-60.4-623.7c-0.1,0.1-0.1,0.2-0.2,0.3l-9.3,21.1c0,0-0.6,1.4-0.6,1.4c-0.6,1.3-1.3,2.7-1.4,4.4
			c0,0.2,0,0.4,0.1,0.5c0.3,0.5,0.7,1.2,1.7,1.2c1.8-0.1,2.5-1.7,2.9-2.7c0.1-0.2,0.2-0.4,0.3-0.6c2.7,0,13.3,0.1,15.9,0
			c0.1,0.2,0.2,0.5,0.4,0.8c0.4,1.1,1,2.6,2.9,2.6c0.1,0,0.3,0,0.4-0.1c0.7-0.3,1.2-0.8,1.4-1.3c0.1-0.2,0.1-0.4,0.1-0.6
			c0-0.6-0.3-1.1-0.5-1.6c0,0,0-0.1,0-0.1c0.3,0,0.6,0,0.6,0c0.4-0.1,0.8-0.3,1.1-0.7c0.3-0.4,0.4-0.8,0.4-1.3c0-0.1,0-0.3,0-0.4
			c0-0.1,0-0.2-0.1-0.3c-0.6-1.2-1.9-1.2-2.8-1.1c-0.3,0-0.5,0-0.8,0c-0.4-0.9-8.8-20.6-8.8-20.6c0-0.1,0-0.1-0.1-0.1
			c-0.2-0.3-0.8-1.2-1.8-1.3C-59.3-624.3-59.9-624.2-60.4-623.7 M-59.1-616.6c1.2,2.8,5.5,12.4,6.3,14.3h-12.4
			C-64.4-604.3-60.3-613.8-59.1-616.6 M-50.5-598.2C-50.5-598.2-50.5-598.2-50.5-598.2C-50.5-598.2-50.5-598.2-50.5-598.2"/>
	</g>
</g>
<path id="path74" d="M231.9,40.5h69.4v-0.4h-69.4V40.5z"/>
<g id="g102">
	<g id="g108" transform="translate(224.42509,587.5601)">
		<path id="path110" d="M-60.4-535.9C-60.4-535.9-60.4-535.9-60.4-535.9c0.1,0,1.8-0.4,1.8-2.1c0-1.7-2.7-2.1-2.7-2.1h-4.2v9.2h4
			c0,0,3.5,0.4,3.5-2.6C-58-535.3-59.6-535.8-60.4-535.9 M-62.8-538.5c0,0,1.8-0.5,1.8,0.9c0,1.4-1.8,1.1-1.8,1.1V-538.5z
			 M-62.8-532.4v-2.4c0,0,2-0.3,2,1.2C-60.8-532.1-62.8-532.4-62.8-532.4"/>
	</g>
</g>
<path id="path112" d="M187.6,56.7h-2.7v-9.2h2.7V56.7z"/>
<path id="path116" d="M230.8,47.5v1.6h2.4v7.5h2.7v-7.5h2.7v-1.6H230.8z"/>
<g id="g120">
	<g id="g126" transform="translate(322.88879,586.4879)">
		<path id="path128" d="M-60.2-533.8c0,0,1.8-0.9,1.7-3c-0.1-2.1-2.7-2.3-2.7-2.3h-4.6v9.2h2.8v-3.5h0.4l1.6,3.5l2.7-0.3
			L-60.2-533.8z M-63.1-534.9v-2.3c0,0,1.7-0.5,1.7,1.1C-61.4-534.6-63.1-534.9-63.1-534.9"/>
	</g>
	<g id="g130" transform="translate(347.56911,591.9736)">
		<path id="path132" d="M-60.2-544.8c-2.5,0-4.4,2.2-4.4,4.9c0,2.7,2,4.9,4.4,4.9c2.5,0,4.4-2.2,4.4-4.9
			C-55.7-542.6-57.7-544.8-60.2-544.8 M-60.2-537c-1,0-1.7-1.3-1.7-2.9c0-1.6,0.8-2.9,1.7-2.9c1,0,1.7,1.3,1.7,2.9
			C-58.4-538.3-59.2-537-60.2-537"/>
	</g>
	<g id="g134" transform="translate(120.78951,605.36099)">
		<path id="path136" d="M-60.6-571.6c0,1.2,1,2.2,2.2,2.2c1.2,0,2.2-1,2.2-2.2c0-1.2-1-2.2-2.2-2.2
			C-59.6-573.7-60.6-572.8-60.6-571.6"/>
	</g>
	<g id="g138" transform="translate(145.345,605.36099)">
		<path id="path140" d="M-60.6-571.6c0,1.2,1,2.2,2.2,2.2s2.2-1,2.2-2.2c0-1.2-1-2.2-2.2-2.2S-60.6-572.8-60.6-571.6"/>
	</g>
</g>
<path id="path156" d="M206.8,50.1c0,0,0.1,1.2,1.8,2.4c0,0,2,1.2,1.1,2.2c-0.9,0.9-2.5-0.2-2.5-0.2l-0.7,1.4
	c0.7,0.9,2.9,0.9,2.9,0.9c4.1,0,3.4-3.4,2.9-4.4c-0.4-0.7-2.5-2.4-2.5-2.4c-0.6-1.9,2.1-0.7,2.1-0.7l0.6-1.3c0,0-3.4-1.4-4.7,0.1
	C207.6,48.1,206.8,48.6,206.8,50.1"/>
</svg>
