<svg id="Layer_1" data-name="Layer 1" xmlns="http://www.w3.org/2000/svg" viewBox="0 0 363.99 107.31"><defs><style>.cls-1{fill:#4ba1d9;}.cls-2{fill:#4992cf;}</style></defs><title>Refresh Miami</title><path class="cls-1" d="M-53-8c1.82,1.19,1,3,1,4.56C-52,29-52,61.48-51.86,94c0,3.25-1.14,3.92-4,3.9-13-.11-26,.13-39-.11-11.36-.21-18.54-8.1-18.18-19.36.29-8.92,7.33-15.21,16.18-14.35,3.64.35,7.06,1.36,7.86,5.58S-90.95,76-94.6,77.2A22.9,22.9,0,0,0-97,78.31c3.36,4.87,8,5.58,12.94,4.46s9.6-7,10.16-12.44c1.49-14.5-11.83-26.29-27.2-24.06a42.18,42.18,0,0,0-12.78,4c-8.22,4.07-16.78,3.53-25.35,1.38-3.36-.84-5.1-2.66-5-6.72.33-17.32.23-34.64.29-52q43.14,0,86.28,0C-56.07-7-54.28-6.43-53-8Z" transform="translate(144.22 8.89)"/><path class="cls-1" d="M160.67,59.67c3.75-6.09,7.14-11.39,10.3-16.83,1.21-2.09,2.55-3.15,5.1-3,4.49.2,9,.14,13.5,0,2.42-.06,3.63.54,3.61,3.31q-.13,25.74,0,51.48c0,2.39-.87,3.41-3.22,3.2-.16,0-.33,0-.5,0-4.95-.29-11.19,2-14.52-.91s-.79-9.12-1-13.88c-.2-4,0-8,0-13.48-4.12,6.29-7.72,11.33-10.81,16.67-2.16,3.72-3.35,3-5.25-.1a109.37,109.37,0,0,0-10.7-15c0,7.57-.11,15.15.05,22.73.07,2.95-.74,4.36-3.9,4-4.91-.49-11.18,2.07-14.41-1.12-2.78-2.75-.74-8.89-.78-13.52-.09-12.83.14-25.66-.13-38.49-.08-4.06,1.41-4.46,5-5,11.59-1.83,19.44,1.94,23.54,13.17C157.29,55,158.89,56.8,160.67,59.67Z" transform="translate(144.22 8.89)"/><path class="cls-1" d="M29,97.07c-5.53,1.56-11.18.46-16.77.67-2.55.09-2.15-2-2.15-3.64a207.17,207.17,0,0,0-.89-22.75c-3.31,5-6.73,10-9.88,15.13-1.77,2.9-2.86,3.08-4.7,0a102.68,102.68,0,0,0-10.8-15c0,6.49,0,13,0,19.47,0,7.69.7,6.78-6.55,6.8-12.47,0-12.47,0-12.47-12.39,0-13.66.09-27.33-.06-41,0-3.29.78-4.19,4.29-4.74,12-1.91,20.1,2,24.22,13.65C-6,55.31-4.47,57-3,59.21c5.4-5.92,7.57-13.72,13.12-19.11,4.11,1.9,8.46.86,12.66.77s5.43,1.06,5.36,5.28C27.85,61.41,28,76.67,28,91.93,28,93.67,27.38,95.62,29,97.07ZM-17.74,95h.38V71.25h-.38Z" transform="translate(144.22 8.89)"/><path class="cls-1" d="M115.43,97.81a49.66,49.66,0,0,0-6,0c-3.33.41-5.57-.66-6.22-4.07s-2.68-4.11-5.76-3.88a57.28,57.28,0,0,1-9,0c-4.38-.38-7.9.11-8.73,5.46-.34,2.19-2.2,2.53-4.23,2.48-4.66-.1-9.33-.19-14,0-3.6.17-3.27-1.2-2.19-3.76q11-25.93,21.73-51.95c.89-2.16,2.08-3.29,4.45-3a4.17,4.17,0,0,0,.5,0c5,.08,10.67-1.31,14.74.65s4.54,8.45,6.49,13c5.81,13.41,11.29,27,17.11,40.37,1.53,3.54,1.5,5.22-3,4.68A49.69,49.69,0,0,0,115.43,97.81ZM96.47,76c-.9-4.57-2.7-8.37-4.72-13.15-1.77,4.78-3.22,8.69-4.7,12.71a10.07,10.07,0,0,0,1.77.43C91.13,76,93.44,76,96.47,76Z" transform="translate(144.22 8.89)"/><path class="cls-1" d="M36.12,68.5c0-8.33.1-16.67,0-25,0-2.86.94-3.83,3.76-3.7,4.15.18,8.33.14,12.49,0,2.47-.08,3.61.61,3.59,3.33q-.12,25.76,0,51.49c0,2.38-.88,3.4-3.23,3.17-.16,0-.33,0-.5,0-5.12-.28-11.6,2.08-15-1s-.83-9.44-1-14.37C36,77.84,36.12,73.16,36.12,68.5Z" transform="translate(144.22 8.89)"/><path class="cls-1" d="M219.16,69c0,8.14-.17,16.29.07,24.42.11,3.61-1.19,4.65-4.59,4.41a83,83,0,0,0-10.46,0c-3.09.18-4.42-.62-4.39-4.08q.26-24.93,0-49.84c0-3.38,1.17-4.37,4.32-4.11,4.77.4,10.88-2,14,.9s.82,9.11,1,13.86S219.16,64.22,219.16,69Z" transform="translate(144.22 8.89)"/><path class="cls-1" d="M75-8c6,0,12-.23,18-.13S103.17-5,104.89,0c1.94,5.6.63,11.14-4.32,14.64-2.76,2-2.39,3.15-.68,5.37,2.3,3,4.28,6.21,6.56,9.55-6.41,1.43-11.2.71-14.23-5.64-1.19-2.5-2.18-6.11-6.44-6-2.64.05-4.18.56-3.78,3.58.15,1.15,0,2.33,0,3.49.18,3,.24,5.23-4.18,5.28s-4.76-1.9-4.7-5.36c.16-9.48,0-19,.09-28.44,0-1.4-.66-3,.81-4.17V27.9H75Zm12.77,18c1.17,0,2.34,0,3.5,0,3.38-.15,5.42-2.07,5.47-5.29.06-3.48-2.43-4.87-5.65-5-2.16-.08-4.33,0-6.5,0-1,0-1.89.11-2.41,1.27C80,5.84,82.6,10.13,87.74,10.07Z" transform="translate(144.22 8.89)"/><path class="cls-1" d="M-2.44,29.48c-6.72,1.85-11.49.39-14.21-5.89a28.4,28.4,0,0,0-2.71-4.18c-1.54-2.29-3.92-1.64-5.92-1.31-2.37.39-1.33,2.65-1.49,4.15a17.09,17.09,0,0,0,0,4c.4,3.22-1.17,3.87-4.06,3.88s-4.5-.51-4.42-4.05c.23-10,.18-20,0-29.94-.05-3.13.71-4.5,4.12-4.32,5.15.26,10.32,0,15.47.12,6,.17,10.06,3.15,11.76,8.29,1.82,5.51.58,10.85-4.2,14.22-2.87,2-2.7,3.25-.76,5.66C-6.56,22.92-4.72,26.09-2.44,29.48ZM-20.82,10.09c1,0,2,0,3,0,3.22-.16,5.47-1.59,5.72-5,.26-3.58-2.11-5.06-5.2-5.46A57.38,57.38,0,0,0-24.27-.6,2.35,2.35,0,0,0-26.65.81C-28.93,5.78-26.23,10.14-20.82,10.09Z" transform="translate(144.22 8.89)"/><path class="cls-1" d="M114,10.72c0-5.16.11-10.32,0-15.47-.08-2.63.92-3.47,3.48-3.43,7.48.12,15,.14,22.45,0,3-.06,3.08,1.56,3.12,3.78s-.38,3.78-3.24,3.67c-4.48-.18-9,.08-13.47-.09-2.93-.11-3.7,1.16-3.64,3.86,0,2.5.34,4.16,3.47,4,3.82-.2,7.66.09,11.47-.09,3-.14,3.18,1.57,3.11,3.78s0,4.12-3,4.07c-3.83-.06-7.67.18-11.48-.05-3.53-.22-3.36,1.87-3.65,4.37-.37,3.22,1.43,3,3.55,3,4.15-.05,8.31.07,12.47-.05,2.81-.08,4.69.1,4.63,3.86-.05,3.38-1.19,4.23-4.35,4.14-7-.2-14-.19-21,0-3,.08-4.16-.76-4-3.9C114.13,21,114,15.87,114,10.72ZM123,23.27v.43h17.73v-.43Z" transform="translate(144.22 8.89)"/><path class="cls-1" d="M163.53-8.89a18.83,18.83,0,0,1,9.6,2.23c1.66.94,5.25,1.12,3.1,4.72-1.56,2.59-2.92,5.41-6.79,2.71A10.83,10.83,0,0,0,162.32-1c-1.81.14-3.33.76-3.58,2.77A3.11,3.11,0,0,0,161,5.17c3,1,6,1.83,9,2.85,6.13,2.1,9,5.8,8.75,11.23s-3.78,9.36-9.86,10.91c-6.61,1.67-12.45-.28-18-3.64-1.25-.75-3.6-1.57-1.44-3.59,1.61-1.5,1.94-5.67,5.75-3.31,2.87,1.78,5.87,3.21,9.27,3.31,2.18.07,4.66-.35,5.28-2.82.7-2.78-1.69-3.63-3.79-4.31s-4.15-1.17-6.21-1.81c-8.19-2.53-11-6.42-9.79-13.64C150.93-5.33,156.17-8.9,163.53-8.89Z" transform="translate(144.22 8.89)"/><path class="cls-1" d="M28.87-7l0,5H13.31l0,1H28.67c-3.86,1.5-7.87.4-11.8.62-2.71.16-5.2-.36-5.18,3.9,0,4.58,3,3.39,5.41,3.51a47.88,47.88,0,0,0,5.49,0c2.84-.19,4.61.13,4.59,3.86s-1.54,4.21-4.51,4c-2.16-.16-4.33,0-6.49-.05-2.53-.09-4.41,0-4.49,3.51-.08,3.76,1.82,4,4.63,3.86,3-.12,6,0,9,0C28,22,30,22,30,25.87s-1.62,4.31-4.79,4.21c-6.15-.19-12.31-.15-18.47,0-2.65.06-3.9-.54-3.85-3.54.15-10.32.13-20.64,0-31,0-2.77.79-3.84,3.67-3.76C13.73-8,20.89-8,28-7.95Zm.25,35.68c-.51-2.65,1-5.38-2.56-5.54-4.45-.19-8.92,0-13.89,0C18,26.33,25.25,20,29.12,28.64Z" transform="translate(144.22 8.89)"/><path class="cls-1" d="M188-8c7.22-.4,7.22-.4,7.22,6.89a29,29,0,0,1,0,3.49c-.44,3.54,1.13,4.51,4.56,4.52,10.84,0,11,.16,10.94-10.5,0-3.27.65-4.69,4.34-4.71s4.25,1.67,4.2,4.81c-.15,9.8-.18,19.61,0,29.41.07,3.37-1.14,4.18-4.3,4.18s-4.25-.95-4.27-4.24c-.09-11.45-.22-11.32-11.7-11.08-3.21.06-4.07,1.23-3.8,4.12.17,1.82,0,3.66,0,5.48,0,6.34-1.6,7.23-8.17,4.55,1.53-1.3.95-3.07.95-4.65C188,13.55,188,2.79,188-8Z" transform="translate(144.22 8.89)"/><path class="cls-1" d="M36.12,10.88c0-5,.13-10,0-15C36-7,36.69-8.3,39.92-8.2c7.3.2,14.63.2,21.94,0,3.14-.09,4,1.08,4,4,0,3.13-1.23,4.09-4.17,4C57.82-.36,54-.27,50.17-.22c-2.5,0-5.28-.9-5.35,3.6-.08,4.8,2.91,3.82,5.59,3.86,3.16,0,6.32.15,9.47,0,3.39-.19,3.15,2,3.19,4.23s-.22,3.88-3.14,3.75c-3.65-.17-7.33.11-11-.09-2.94-.16-4.39.68-4.05,3.87.21,2,0,4,.06,6,.17,3.07.14,5.2-4.23,5.26s-4.81-1.92-4.67-5.37C36.27,20.19,36.12,15.53,36.12,10.88Z" transform="translate(144.22 8.89)"/><path class="cls-2" d="M-53-8c-1.27,1.61-3.06,1-4.64,1q-43.14,0-86.28,0c.51-1.56,1.85-1.16,2.93-1.16Q-97-8.14-53-8Z" transform="translate(144.22 8.89)"/><path class="cls-2" d="M29,97.07c-1.66-1.45-1-3.4-1-5.14-.05-15.26-.18-30.52.06-45.78.07-4.22-1.29-5.35-5.36-5.28S14.18,42,10.07,40.1l18.89,0Q29,68.58,29,97Z" transform="translate(144.22 8.89)"/><path class="cls-1" d="M29,97Q29,68.58,29,40.12c1.14.57.91,1.65.91,2.59q0,25.82,0,51.63C29.88,95.31,30,96.36,29,97Z" transform="translate(144.22 8.89)"/><path class="cls-2" d="M75-8V27.9h-.91V-7.76A.84.84,0,0,1,75-8Z" transform="translate(144.22 8.89)"/><path class="cls-2" d="M188-8c0,10.75,0,21.51,0,32.27,0,1.58.58,3.35-.95,4.65q-.08-17-.13-33.94C186.89-6.06,186.48-7.38,188-8Z" transform="translate(144.22 8.89)"/><path class="cls-2" d="M28.67-1H13.33l0-.95H28.9C28.82-1.68,28.75-1.36,28.67-1Z" transform="translate(144.22 8.89)"/><path class="cls-2" d="M28.87-7,28-7.95C28.68-8,28.93-7.65,28.87-7Z" transform="translate(144.22 8.89)"/><ellipse class="cls-2" cx="126.67" cy="92" rx="0.27" ry="16.76"/><path class="cls-2" d="M123,23.27h17.73v.43H123Z" transform="translate(144.22 8.89)"/><path class="cls-2" d="M29.12,28.64C25.25,20,18,26.33,12.67,23.06c5,0,9.44-.15,13.89,0C30.13,23.26,28.61,26,29.12,28.64Z" transform="translate(144.22 8.89)"/></svg>