<svg id="Layer_1" data-name="Layer 1" xmlns="http://www.w3.org/2000/svg" viewBox="0 0 1199.03 523.04"><title>Soylent</title><path d="M-575,286V-237l4.5,0H624V286H21.42Zm17.17-17.3H607.25V-219.78H-557.83Z" transform="translate(575 237.04)"/><path d="M-22.73,93.74c-25.41,21.71-67.61,22.34-91.42,5.94-16-11-24.88-25.86-24.79-45.77.17-35.48.07-71,0-106.46,0-4.32.72-8.11,5.52-9.4,5.13-1.37,9.42,1.8,9.52,7.17.16,8.66.06,17.32.06,26,0,26.49.78,53-.21,79.46-1.11,29.77,22.1,44.11,42.16,46.13,13.78,1.39,27.37.26,39.67-7,12.58-7.44,19.91-17.55,19.66-33.24-.58-36.32-.2-72.64-.18-109,0-6.43,2.17-9.42,6.86-9.72s7.72,2.3,8.16,6.83c.18,1.82.11,3.66.11,5.5,0,57.31-.81,114.64.3,171.93.68,35.07-26.38,55-52.07,58.75-20.64,3-40.53.21-59.09-9.76-10.23-5.5-18.46-13-23.12-24-1.91-4.49-1-7.82,2.63-9.77,3.84-2.05,8.68-1.16,10.39,2.78,5.66,13,16.21,20,29,24,16.27,5.07,32.75,6.15,49,0,18.7-7.1,27.77-20.65,27.78-40.58C-22.72,114-22.73,104.38-22.73,93.74Z" transform="translate(575 237.04)"/><path d="M131.53,30.82c0,10.56-.71,20.41.17,30.13,1.25,13.94,9.67,23.67,21.74,29.74,18.2,9.14,36.92,9.14,55.37.51a41.52,41.52,0,0,0,20.61-20.92c2.2-4.81,6.45-6.34,11-4.15,4,1.93,4.9,5.13,2.61,10.13C236.3,91,224.88,101,209.81,106.16c-25.55,8.75-50.3,7.3-72.66-9.16C123,86.6,115.83,72.31,116,54.45c.2-19.17,0-38.33,0-57.5,0-25.7,12-44.71,36.2-53.6,27.64-10.17,54.48-8.4,78,11.21,11.3,9.4,16.91,22,16.94,36.93,0,9.83,0,19.66,0,29.49,0,7.4-2.43,9.82-9.91,9.83q-49.74,0-99.49,0Zm100.61-14c0-7.66-.18-14.81,0-21.94.54-17.29-7.73-29.44-22.56-36.9-18.53-9.32-37.61-9-56.17.2C143.07-36.71,134.77-28.62,132.73-17c-1.93,11-1.48,22.36-2.09,33.81Z" transform="translate(575 237.04)"/><path d="M-170.66,24.46q0,14,0,28c0,25-12,43.06-35.06,52.92-27.09,11.55-61.25,6-80.67-13.14-10.2-10.06-15.52-22.22-15.48-36.65.05-19.32,0-38.64,0-58,0-27,12.21-46.1,37.8-55,27.84-9.64,54.6-7.17,77.47,13.46,10.6,9.56,16,21.87,15.94,36.38C-170.71,3.14-170.66,13.8-170.66,24.46Zm-15.13.09c0-10-.21-20,0-30,.44-16.87-7.67-28.61-21.86-36.39-14.77-8.1-30.66-8.58-46.54-4.28C-275.77-40.22-286.77-25.23-286.78-3c0,19.14.1,38.29,0,57.43-.1,15.4,6.74,26.83,19.62,34.74,15.28,9.38,31.89,10.12,48.67,5.76,21.63-5.62,32.72-20.68,32.72-42.91Z" transform="translate(575 237.04)"/><path d="M296.45-44.57c10-8.55,20.32-13.71,31.92-15.83,25.24-4.61,48.89-1.8,68.54,16.57A48.92,48.92,0,0,1,413.06-6.48q-.17,54,0,108c0,3.53-.43,6.63-3.87,8.52-5.32,2.92-11.17-.31-11.26-6.5-.17-10.83-.06-21.66-.06-32.49V-1.46c0-25.59-14.07-42.41-39.57-46.2C343-49.93,328-48.48,314.5-39.87c-11.76,7.5-18.23,17.76-18.1,32.3.32,35.81.11,71.63.09,107.44,0,2,.5,4.58-.53,5.84-1.79,2.2-4.38,4.4-7,5.09-3.33.86-6.1-1.3-7.06-4.83a18.51,18.51,0,0,1-.49-4.94q0-76.71,0-153.42c0-6.62,2.39-9.58,7.48-9.54,4.43,0,7.26,2.5,7.56,6.92C296.61-51.93,296.45-48.83,296.45-44.57Z" transform="translate(575 237.04)"/><path d="M-404.43,111.12c-21.68-.13-41.37-6.33-58.23-20.13-4.55-3.72-8.22-8.66-11.73-13.46-3-4.12-2.23-7.64,1.26-9.93,3.75-2.47,8.64-2,11.13,1.76,10.92,16.58,27.35,24,45.94,27,15.65,2.45,31.29,1.1,45.87-6,11.54-5.62,18.4-14.48,18.46-27.85S-358.62,40.65-369.88,35c-13.14-6.63-27.58-8.46-41.82-11s-27.84-6.15-40.54-13.32c-24.12-13.62-20.13-44.26-5.06-57,11.42-9.66,24.89-14,39.34-15.42,23.67-2.39,45.7,2.35,65.32,16.43,5.61,4,7,7.23,4.58,10.9-2.79,4.18-7.68,4.54-13.17.63-20.3-14.49-42.71-17.84-66.53-12a58.46,58.46,0,0,0-17.13,7.72C-456-31-460.93-10.25-443.07-.55c12.5,6.78,26.09,9.61,39.75,12.65,12.95,2.88,26.19,5.34,38.5,10.07C-341.89,31-332.14,51-338,74c-3.61,14.19-13.3,23.09-26.09,29S-390.44,111-404.43,111.12Z" transform="translate(575 237.04)"/><path d="M468.61-47.83c-6.32,0-11.94.08-17.57,0-5.25-.1-8.26-2.55-8.42-6.58-.18-4.22,3-7,8.38-7.19,5.64-.15,11.28,0,17.61,0V-68c0-18.66,0-37.32,0-56,0-4,.92-7.28,5.18-8.64,5.42-1.72,9.89,1.91,9.92,8.34.09,17.66,0,35.32,0,53v9.6h25.73c2.33,0,4.68-.11,7,.11,4.17.4,7.07,2.58,7,7s-2.94,6.61-7.22,6.66c-8.83.12-17.66.07-26.49.09h-6v6.4q0,53,0,106c0,18.62,11.94,31.22,30.67,32.46,2.15.15,4.8-.26,6.32.83,2.16,1.56,4.52,4.09,4.94,6.52.58,3.42-2.17,6.16-5.65,6.44-20.55,1.62-47.81-11.4-51-37.85a74.66,74.66,0,0,1-.35-9q0-52.74,0-105.48Z" transform="translate(575 237.04)"/><path d="M39.83-26.9q0-48.49,0-97c0-6.64,4.19-10.48,9.56-8.32,2.21.89,4,3.57,5.27,5.81.74,1.25.23,3.25.23,4.92q0,92.75,0,185.48c0,18.93,12.33,31.93,31.28,33.06a27.68,27.68,0,0,1,5.91.7c3.47,1,5.84,3.63,4.76,7-.76,2.38-3.48,5.68-5.56,5.86-22.66,2-50.73-13.37-51.25-40.56-.62-32.32-.15-64.65-.15-97Z" transform="translate(575 237.04)"/></svg>