<svg id="Layer_1" data-name="Layer 1" xmlns="http://www.w3.org/2000/svg" viewBox="0 0 1997.94 599.07"><defs><style>.cls-1{fill:#1ed660;}.cls-2{fill:#1fd660;}</style></defs><title>Spotify</title><path class="cls-1" d="M-374.93,24.6c0,165.52-134.15,299.55-299.73,299.47S-974.15,189.85-974,24.24c.11-164.7,134.14-299.3,298-299.24C-508.94-274.94-374.93-141.62-374.93,24.6ZM-717.84-116.55c-28,.11-55.95,1.64-83.68,5.75A409.22,409.22,0,0,0-861-97.9c-16.33,5-24.62,21.78-18.54,37.32,5.42,13.86,19.89,20.62,35.39,16.1,32.32-9.42,65.42-13.84,98.93-15.43A559.69,559.69,0,0,1-632.6-54c47.54,7.36,93.22,20.28,135.25,44.47,14.1,8.12,30.82,3.54,38.63-10,8-13.77,3.23-30.33-11.09-38.7a356.76,356.76,0,0,0-65.8-29.79C-594.71-108-655.67-116.21-717.84-116.55Zm-6.24,103.2a417.32,417.32,0,0,0-65.23,4.57,384.46,384.46,0,0,0-54.5,12.07C-857,7.25-864,20-860.2,32.59c3.69,12.16,15.78,19,28.33,15.86,9.68-2.4,19.24-5.34,29-7.32,43.14-8.77,86.58-9.79,130.19-4.27,49.7,6.29,96.85,20.34,140.13,46.22C-521,90-507.06,86.43-500.3,75.3s3.23-25-8.26-32.14c-6.5-4-13.2-7.75-20-11.23C-590,.52-655.55-12.81-724.08-13.35ZM-725,84.24c-34.26.31-71.67,5.07-108.61,13.67-10.74,2.5-17,11.92-14.76,21.88,2.42,10.83,11.76,16.77,23,14.36,25.9-5.54,52-9.89,78.46-11.53,30.39-1.88,60.58-.74,90.54,5a278.45,278.45,0,0,1,92.81,35.18c4.77,2.88,9.79,4.16,15.27,2.56,8-2.35,12.83-7.79,13.77-16,1-8.49-3.09-14.6-10.33-18.94C-599.18,97.8-658.48,84.31-725,84.24Z" transform="translate(974.04 275)"/><path class="cls-2" d="M847.6,98,865,48.53c10.29-29.34,20.66-58.65,30.77-88.05,1.44-4.19,3.45-5.69,7.87-5.61,14.16.26,28.33.06,42.49.11,5.46,0,6.59,1.66,4.62,6.75Q909.89,67.07,869,172.4c-5.34,13.71-12.25,26.62-22.81,37.2s-23.6,15.33-38.18,16.23c-19,1.18-37.07-2.36-54-11.4-3.63-1.93-4.38-3.87-2.68-7.49C756,197,760.6,187.06,765,177c1.81-4.2,4-5.11,8.09-3,8.25,4.32,17,6.71,26.43,6,9-.65,19.92-10.32,21.52-19.13.26-1.45-.41-2.59-.92-3.8Q788.33,80.89,756.62,4.65c-1.2-2.89-2.84-3.5-5.65-3.47-11.5.13-23,.24-34.49,0-3.92-.1-4.61,1.22-4.6,4.81q.17,75,.07,150c0,7.48-.29,7.76-8,7.76q-19,0-38,0c-6.69,0-7.11-.42-7.11-7,0-49.82-.08-99.65.11-149.47,0-4.74-1-6.53-6-6.05-4.79.46-9.67-.07-14.49.14C634.35,1.47,633-.44,633-4.41c.13-11.83.11-23.66,0-35.49,0-3.74,1.34-5.58,5.24-5.52,5.5.08,11-.26,16.49,0,3.42.15,4.25-1.14,4.16-4.32-.34-11.86.35-23.63,3.94-35.07,7.28-23.16,23.58-35.57,47.06-39,17-2.51,33.85-.69,50.45,3.8,3.55,1,4.79,2.71,4.73,6.33-.17,11.32,0,22.66-.07,34,0,5.88-1.25,6.79-6.87,5.1-9.3-2.78-18.69-4.94-28.49-3.58C719.4-76.8,713.91-71.52,712-61.42,709-45,709-45,725.34-45c20.49,0,41,.14,61.49-.1,4.44,0,6.46,1.56,8,5.56q25.26,66.45,50.8,132.78C846.14,94.58,846.74,95.94,847.6,98Z" transform="translate(974.04 275)"/><path class="cls-2" d="M.89,139.08v77.18c0,8.62,0,8.62-8.59,8.62-12.67,0-25.33-.13-38,.07-4.58.07-6.56-1.21-6.55-6.21q.16-129,0-257.91c0-4.58,1.52-6.15,6.08-6.08q20.49.31,41,0c4.6-.07,6.26,1.7,6.11,6.18C.73-32.61.89-26.15.89-19.87c1.2.62,1.56-.15,1.92-.58C38.69-62.6,99.22-54.78,131.65-23.16c18.32,17.87,27.91,39.9,30.77,65,3.09,27.06,0,53.18-13.53,77.38-24,43.08-78.94,61.07-121.57,39.88a69.27,69.27,0,0,1-13.85-8.87C9.42,146.81,5.54,143.21.89,139.08ZM-.17,52.26c-.11,21,3.44,34,11.49,45.55,22.35,32.12,70.75,30.64,89.36-3.22,12.56-22.84,12.59-46.72.33-69.75A51.9,51.9,0,0,0,24.15,7.6C6.82,20.29.11,38.35-.17,52.26Z" transform="translate(974.04 275)"/><path class="cls-2" d="M-170.33,167.33q-62.89-.63-110.69-41.56c-3.62-3.09-4-5.42-.82-9q12.64-14.5,24.78-29.45c2.89-3.55,5.13-3.63,8.6-.67,16.53,14.08,34.61,25.45,56.26,29.89,15.32,3.14,30.75,4.17,45.92-.76,17.21-5.58,25.27-19.15,21.3-35.34-2.25-9.17-9.23-13.89-17.08-17.64-15.44-7.38-32.22-10.4-48.6-14.73C-206,44-221,39.3-235.12,31.91c-28.78-15.12-40.69-38.76-38.29-72.26,2.55-35.59,28.39-65.15,71.33-72.34,43.63-7.31,83.62,2.77,119.13,29.54C-77-78.68-77-78.47-81.28-72.48Q-91.39-58.21-101.53-44c-4.55,6.41-4.58,6.39-10.83,2C-129-53.79-146.81-62.87-167.31-65.5c-11.15-1.43-22.29-1.43-33,2.62-15,5.64-21.85,17.67-18.76,32.57,1.76,8.51,7.7,13.39,14.82,17.12C-193.15-7.37-181.09-4.09-169-1c19.51,5,39.06,9.77,57.14,19,20,10.24,35.24,24.58,39.85,47.6,9.52,47.53-17.14,87.66-65.09,98.31A140.55,140.55,0,0,1-170.33,167.33Z" transform="translate(974.04 275)"/><path class="cls-2" d="M288.23-49.34c53.09.56,95.21,32,108.34,80.19C413.29,92.21,373.39,155,310.66,166.09,263.47,174.41,219,156,194.73,118c-42.41-66.32-.87-155.78,77.12-166.19C277.65-48.94,283.45-49.15,288.23-49.34ZM347.07,60.58a67.84,67.84,0,0,0-4-24C329-3.64,276.64-15.7,247.79,14.85,233,30.49,229.2,49.56,232,70.44a58.14,58.14,0,0,0,78.11,47.09C332.78,109,346.78,87.46,347.07,60.58Z" transform="translate(974.04 275)"/><path class="cls-2" d="M429.4,60.07c0-17.83-.17-35.66.11-53.48.07-4.56-1.32-5.75-5.63-5.44-5.14.37-10.33,0-15.49.1-3.16,0-4.51-1.37-4.49-4.53q.09-18.73,0-37.49c0-3.23,1.59-4.45,4.65-4.41,5.5.06,11-.2,16.49.08,3.61.19,4.46-1.18,4.42-4.57-.15-14.66-.08-29.32-.06-44,0-6.54.67-7.21,7.08-7.22,13.33,0,26.67.11,40-.06,4.55-.07,6.26,1.74,6.22,6.2-.12,14.83.11,29.66-.14,44.49-.08,4.25,1.29,5.24,5.35,5.17,14.32-.24,28.66,0,43-.17,4.54-.06,6.22,1.52,6.13,6.1-.22,11.33-.06,22.66-.08,34,0,6-.41,6.38-6.67,6.39-14.34,0-28.67.14-43-.09-3.83-.06-4.72,1.14-4.7,4.81.14,30.16.07,60.33.1,90.49a32.85,32.85,0,0,0,1.2,10.37c2.53,7.78,8.35,11.75,18.1,12.14a59.53,59.53,0,0,0,27.14-5.53c5.48-2.46,6.94-1.52,7,4.39,0,11-.08,22,.08,33,0,3.23-.92,5.2-3.91,6.69-22.44,11.2-45.75,12.83-69.33,5-18.94-6.26-28.42-21-31.86-40.07-2.54-14-1.47-28.25-1.65-42.39C429.33,73.41,429.4,66.74,429.4,60.07Z" transform="translate(974.04 275)"/><path class="cls-2" d="M611.68,59.1q0,48.48,0,97c0,7.13-.5,7.62-7.67,7.62-13.17,0-26.33-.1-39.49.07-4.55.05-6.2-1.75-6.19-6.22q.1-98.47,0-197c0-4.29,1.68-5.87,6-5.82,13.33.18,26.66.06,40,.07,7,0,7.39.38,7.39,7.29Q611.68,10.6,611.68,59.1Z" transform="translate(974.04 275)"/><path class="cls-2" d="M585.24-70.93A33.11,33.11,0,0,1,552-103.81a33.05,33.05,0,0,1,33.25-33.31,33,33,0,0,1,33.16,33.36A33,33,0,0,1,585.24-70.93Z" transform="translate(974.04 275)"/><path class="cls-2" d="M1023.9-12.85A33.12,33.12,0,0,1,991,19.82,32.79,32.79,0,0,1,958.46-13a33,33,0,0,1,32.87-32.63A32.71,32.71,0,0,1,1023.9-12.85ZM991.33-42.22c-16.65,0-29.36,12.7-29.35,29.38,0,16.46,12.6,29.15,29,29.21,16.57.06,29.34-12.77,29.31-29.44S1007.81-42.21,991.33-42.22Z" transform="translate(974.04 275)"/><path class="cls-2" d="M998.93-9.27l8.16,11.84C1002,4.13,999,2.63,996.4-1.51c-1.94-3-2.92-7.74-8.37-7.34-2.55.19-3.69.84-3.48,3.47.13,1.65-.08,3.34,0,5,.19,2.44-.49,3.61-3.27,3.6-2.6,0-3.42-.77-3.38-3.4q.22-13.74,0-27.49c0-2.58.65-3.56,3.35-3.41,3.82.22,7.66,0,11.49.08,7.18.13,11.88,2.94,13.16,7.76C1007.48-17.43,1005.67-13.78,998.93-9.27Zm-8.66-4.91c1.36-.08,2.69,0,4-.24,3.09-.47,5.51-2,5.43-5.37-.09-3.63-2.57-5.14-6-5.22-2.15-.06-4.3-.06-6.46,0-1,0-2.42-.2-2.51.95-.21,2.95-.63,6.1.19,8.83C985.55-13.12,988.46-14.67,990.27-14.18Z" transform="translate(974.04 275)"/></svg>