<svg id="Layer_1" data-name="Layer 1" xmlns="http://www.w3.org/2000/svg" viewBox="0 0 556.03 76.59"><defs><style>.cls-1{fill:#682d13;}.cls-2{fill:#ea610f;}.cls-3{fill:#6a2f15;}.cls-4{fill:#eb6212;}.cls-5{fill:#ea5f0d;}</style></defs><title>stickermule</title><path class="cls-1" d="M-180.45-12.59c1.82,1.3.32,3.16,2.09,3.94,1.64,0,2.36-1.94,5-2.84-5.86,8.83.21,15.59,2.55,22.89.87,2.72.32,4.59-2.11,5.79s-3.19-.47-4.23-2.52c-2.58-5.08-6.81-5-10.47-.73-8.77,10.14-13.62,21.91-15.61,35-.54,3.55-1.88,7.19,1.62,10.19.72.62,1.69,1.89.75,3A5.44,5.44,0,0,1-205.81,64c-1.28-.09-1.72-.69-2.44-1.83-4.06-6.31.18-12.75-.6-19.07-.08-.62.33-1.29.4-1.94.76-7.38.75-7.36-6.57-7-6.57.32-13,.19-18.46-4.39-1.69-1.42-3.77-1.33-4.68.66-2.82,6.1-7.19,11.76-6,19.16.47,2.82.92,5.5,3.27,7.59.9.8,2.82,2.49,1.09,3.63-1.9,1.24-4.53,3.6-6.71,1.5-1.45-1.39-3.44-3-3.65-5.6-.83-10.17-1.77-20.33-2.68-30.5-.18-2-.33-4-.63-6-1.32-8.54,4.09-15.09,12.71-15.35A37.56,37.56,0,0,1-228,6.92C-218.38,10-210.42,7-203,1q5-4.08,10.33-7.85c2.2-1.56,4.72-2.7,7.49-2.29S-181.18-10-180.45-12.59Z" transform="translate(253.64 12.59)"/><path class="cls-2" d="M106.9,32.58c0-7,.1-14-.05-21-.06-2.66.56-4.52,3.48-3.64s7.92-3.1,9,3.23a7.28,7.28,0,0,0,1.8-.56c7.83-4.85,15.38-5,22.4,1.46,2.16,2,2.92-.27,4-1.06,11.09-7.83,26.07-3.39,29.25,8.8a40,40,0,0,1,.82,10.43c0,8-.14,16,.06,24,.08,3.12-.94,3.92-4,3.93-8.72,0-8.72.14-8.72-8.55,0-7,0-14,0-21,0-6.52-2.74-9.8-8-9.92-5.48-.12-8.41,3.16-8.51,9.93-.12,8.33-.17,16.67,0,25,.09,3.35-.67,4.64-4.33,4.55-8.23-.19-8.24,0-8.24-8,0-7.17,0-14.33,0-21.5-.06-6.52-2.74-9.8-8-9.93-5.46-.15-8.47,3.14-8.59,9.89-.15,8.33-.19,16.67,0,25,.09,3.32-.62,4.65-4.3,4.57-8.16-.17-8.17,0-8.17-8.1Z" transform="translate(253.64 12.59)"/><path class="cls-3" d="M-13.27,28.1c4.85-6,9-10.7,12.62-15.78,2.49-3.5,5.3-5.07,9.58-4.53,2.73.34,5.53.06,9.35.06-5.58,6.36-10.36,12-15.42,17.44-2,2.11-2.06,3.57-.47,6C8.08,39.8,13.53,48.53,19.64,58.08c-5.16,0-9.53-.06-13.89,0-2.22,0-2.66-1.74-3.47-3.08-3.4-5.69-6.72-11.41-10.07-17.11-6.82,3.32-5.3,9.31-5.54,14.76-.08,1.78,1.29,4.68-1.27,5.16a24.38,24.38,0,0,1-10.81-.25c-.41-.12-.54-1.78-.54-2.72,0-20.82,0-41.63-.07-62.45,0-2.45.86-3,3.17-3.14,9.58-.49,9.58-.57,9.58,9.22Z" transform="translate(253.64 12.59)"/><path class="cls-4" d="M286.37,36.93c-4,0-8,.23-12-.06s-4.09,1.62-3.1,4.5c2.16,6.25,10.5,8.6,17.44,5.08,1.55-.78,2.72-3.41,4.54-2.29,2.36,1.44,4.25,3.7,6.18,5.76,1.27,1.35-.32,2.07-1.08,2.74-7.64,6.67-16.51,7.45-25.8,4.78-8.29-2.39-12.22-8.64-13.73-16.79a37.47,37.47,0,0,1,1-18.75C263,12.13,270.94,6.69,281.08,7.17S298.62,13.85,301,23.78c2.9,12.28,2.23,13.15-10.09,13.15Zm-6.5-8.77a49.52,49.52,0,0,1,5.45,0c4.09.45,4.51-1.47,3.19-4.63s-3.45-5.2-6.93-5.63-6.6.29-8.82,3.27c-1.31,1.76-2.54,3.89-1.71,5.94s3.2.73,4.86,1A27.52,27.52,0,0,0,279.87,28.16Z" transform="translate(253.64 12.59)"/><path class="cls-3" d="M45.57,36.94c-4.33,0-8.66.1-13,0-2.47-.07-2.71,1-2.27,3,1.59,7.39,10.72,10.47,18.3,6.29,1.42-.78,2.44-3.49,4.52-1.92a38,38,0,0,1,6,6c.8.95-.53,1.71-1.22,2.32-7.6,6.74-16.47,7.45-25.75,4.88-8.32-2.31-12.42-8.61-13.82-16.68a39.78,39.78,0,0,1,.5-17.33c2.94-10.82,11.24-17,22-16.28s18.42,7.86,20,18.8,1.63,11-9.36,11Zm-6.06-8.78a14,14,0,0,0,3,0c2.09-.47,5.41,1.5,6.09-1.15.73-2.83-1.15-5.75-3.72-7.62A9.33,9.33,0,0,0,31.77,22c-1,1.7-2.3,3.76-1.35,5.55.79,1.48,3,.52,4.62.64S38,28.16,39.51,28.16Z" transform="translate(253.64 12.59)"/><path class="cls-5" d="M214,54.07c-7.17,5.22-14,6.27-21,2.45-6.59-3.63-8.26-10-8.17-17,.11-9.15.15-18.31,0-27.46-.07-3.17.71-4.28,4.08-4.24,8.4.11,8.4-.08,8.4,8.39,0,7.16-.1,14.31,0,21.47.11,6.39,3.07,9.65,8.33,9.6s8.17-3.36,8.22-9.7c.07-8.49.14-17,0-25.47-.07-3.08.56-4.34,4-4.29,8.48.1,8.48-.09,8.48,8.31,0,12.48-.16,25,.1,37.45.08,3.84-1.12,5.11-4.77,4.57a14.73,14.73,0,0,0-4,0C215,58.47,213.75,57.32,214,54.07Z" transform="translate(253.64 12.59)"/><path class="cls-3" d="M-144.11,58.81c-6.4-.26-12.58-1.17-17.88-5.29-1.84-1.44-2.35-2.55-.29-4.15a16.78,16.78,0,0,0,2.82-2.83c2-2.58,3.66-3.13,6.87-1,4.42,2.91,9.72,3.25,14.91,1.52,2.23-.74,3.84-2.1,3.7-4.69s-2.12-3.72-4.36-4.06c-3.62-.55-7.29-.71-10.92-1.24-6.75-1-10.63-4.19-11.88-9.72-1.46-6.42.12-11.92,5.42-16,7.17-5.56,23.18-5.45,30.35,0,1.73,1.31,2,2.19.37,3.85-3.08,3.05-5.43,7-10.89,3.46-2.43-1.59-5.84-1-8.83-.67-2.56.29-4.53,1.58-4.72,4.32-.2,3,2,4,4.47,4.38,3.45.5,7,.63,10.41,1.2,7.72,1.27,12,5.36,12.71,12,.9,8-2.38,13.82-9.54,16.83A32.07,32.07,0,0,1-144.11,58.81Z" transform="translate(253.64 12.59)"/><path class="cls-3" d="M-46,7.15A23.06,23.06,0,0,1-33.17,11.3c2.26,1.61,3.48,3.08.57,5.23a13.91,13.91,0,0,0-2.81,2.82c-1.9,2.53-3.44,2.86-6.38.82-5.53-3.84-12.31-.81-14,5.84a27.76,27.76,0,0,0,0,13.85c1.73,6.86,8.76,9.87,14.38,5.67,3.1-2.32,4.18-.78,6,1,5.91,5.88,5.66,7.22-2.14,10.48-13.66,5.7-27.55-1.48-30.72-16A38.34,38.34,0,0,1-68,23.29C-65.42,13.12-57.56,7.19-46,7.15Z" transform="translate(253.64 12.59)"/><path class="cls-1" d="M-114.38,33.2c0-3,0-6,0-9,0-2.73.85-5.55-3.86-5.54-2.8,0-1.35-3.21-1.43-4.93-.08-1.54-1.23-4.45,1.54-4.39,4.29.1,3.87-2.42,3.75-5.11,0-.33,0-.66,0-1,0-9.92,0-9.83,9.76-9,2.27.19,2.84,1,2.71,3.06-.1,1.66.16,3.35,0,5-.64,4.85.15,7.82,6.27,7,4.5-.6,2.26,3.4,2.57,5.38s.88,4.87-2.8,4.2c-5.76-1-6.44,1.91-6.1,6.66.39,5.29.19,10.64.06,16-.1,3.84,1.16,6.06,5.39,5.89,6.35-.26,2.71,4.62,3.46,7.14.81,2.7-.6,3.58-3.46,3.63-12.94.26-17.8-4.38-17.81-17.47Z" transform="translate(253.64 12.59)"/><path class="cls-4" d="M234.18,18.51c0-8.32.15-16.65-.07-25-.09-3.22.75-4.33,4.12-4.32,8.64,0,8.64-.13,8.65,8.68,0,14.48.09,29-.06,43.43,0,4.15,1.23,6.31,5.69,6,5.93-.38,2.91,4.21,3.47,6.68.61,2.68-.16,4.09-3.55,4.15-13.19.23-18.24-4.51-18.25-17.72Z" transform="translate(253.64 12.59)"/><path class="cls-3" d="M79.74,11.61c6.41-4.32,12.77-6,19.67-2.81,4.64,2.16,4.72,2.86,1.17,6.46-1.28,1.31-2.61,2.57-3.83,3.93s-2.27,2.12-4.52.88C85.83,16.56,80,20,79.84,27.33q-.34,13.22,0,26.44c.1,3.54-1,4.47-4.46,4.41-8.28-.16-8.29,0-8.29-8.44,0-12.14.27-24.29-.13-36.42-.16-4.83,1.53-6.24,5.81-5.43C75.44,8.39,79.64,5.64,79.74,11.61Z" transform="translate(253.64 12.59)"/><path class="cls-1" d="M-87.34,32.49c0-7,.11-14,0-21-.06-2.69.55-3.72,3.52-3.75,9-.1,9-.24,9,8.7,0,12.47-.09,25,.06,37.43,0,3.06-.51,4.33-4,4.27-8.49-.14-8.5.06-8.5-8.22Q-87.32,41.23-87.34,32.49Z" transform="translate(253.64 12.59)"/><path class="cls-3" d="M-80.29-.74c-7.19,0-9.09-2.64-7.4-8.62.44-1.54,1.36-1.63,2.55-1.63a35.52,35.52,0,0,0,5,0c4.15-.6,5.4.67,5.6,5.19C-74.32.14-77.53-.43-80.29-.74Z" transform="translate(253.64 12.59)"/></svg>