<svg id="Layer_1" data-name="Layer 1" xmlns="http://www.w3.org/2000/svg" viewBox="0 0 326.7 136.62"><defs><style>.cls-1{fill:#5d5679;}.cls-2{fill:#655d7f;}</style></defs><title>SWE</title><path class="cls-1" d="M152.16,92.88c-1.87-.35-3.76-.6-5.6-1C135.65,89.11,128,82.53,124,72c-4.18-11.08-4.65-22.38,0-33.43,5-11.8,14.21-18.24,26.91-19.66a33.54,33.54,0,0,1,18.37,2.77c8.1,3.81,12.88,10.38,15.18,18.86a34.76,34.76,0,0,1,1,13.54c-.29,2.27-1.25,3-3.56,3q-22.2,0-44.4,0c-1.74,0-1.64-.34-1.47,1.61.48,5.74,1.84,11.19,5.62,15.76a17.79,17.79,0,0,0,11.67,6.19c7.51,1.11,14.21-1.1,20.53-4.92a13.38,13.38,0,0,1,1.79-1,3.76,3.76,0,0,1,5.05,1.35c1.13,1.46,2.2,2.95,3.39,4.36.58.69.55,1.09-.06,1.75-4.42,4.76-9.94,7.54-16.11,9.2a42.31,42.31,0,0,1-7.07,1.21c-.22,0-.5-.06-.61.24Zm2.18-45.16H171c.63,0,1.13.08,1.1-.89-.32-8.8-5.35-16.21-14.89-16.94-5.4-.42-10.46.51-14.56,4.4-3.6,3.43-5.23,7.84-6.11,12.61-.17.94.42.82,1,.82Z" transform="translate(135.84 43.74)"/><path class="cls-1" d="M-24.72,92.88a19.69,19.69,0,0,0-4-.93A36.53,36.53,0,0,1-43.6,84.81c-.66-.53-.68-.9-.26-1.55,1-1.48,1.85-3,2.77-4.49,1.82-3,4.37-3.58,7.32-1.71a34.67,34.67,0,0,0,6.84,3.68,20.7,20.7,0,0,0,15,.08A9.15,9.15,0,0,0-6.19,70a7,7,0,0,0-2.68-3.73,26.11,26.11,0,0,0-8.42-3.91c-5-1.58-10.11-3-14.8-5.45-5.11-2.67-8.73-6.61-9.84-12.41C-43.8,34.7-39.12,25.84-30,21.58a34,34,0,0,1,16.49-2.81A32.37,32.37,0,0,1,4,24.6c1,.69,1.86,1.51,2.8,2.26a.76.76,0,0,1,.17,1.2c-1,1.51-1.9,3.06-2.84,4.59-1.35,2.21-3,2.73-5.38,1.64-1.23-.56-2.42-1.23-3.64-1.81-5.12-2.4-10.42-3.33-15.95-1.73-3.42,1-6,3-6.78,6.72a6.27,6.27,0,0,0,2.14,6.47c2.58,2.22,5.72,3.3,8.88,4.31,5,1.6,10.1,3,14.8,5.47s8.26,5.63,9.5,10.82A22,22,0,0,1-3.56,89.46a32,32,0,0,1-10.36,3.17c-.25,0-.58-.12-.72.25Z" transform="translate(135.84 43.74)"/><path class="cls-1" d="M-135.84,2.88c.42-.35.28-.89.39-1.33.86-3.38,2.66-4.8,6.15-4.88,2.83-.07,5.67.22,8.5-.21a11.9,11.9,0,0,0,6.68-3.24,1,1,0,0,1,1.44-.17q5,2.7,10.05,5.32A1,1,0,0,1-102-.26,21.66,21.66,0,0,0-83.87,27.62c.63.09.89.26.89.95,0,3.64,0,7.28,0,10.91,0,.68-.23.9-.85,1C-88.69,41-92,43.77-94.27,48c-.94,1.75-1.91,3.51-3,5.16-1.7,2.53-3.56,3.19-6.52,2.36a20.13,20.13,0,0,1-8.72-5,5.26,5.26,0,0,1-1-7c.87-1.62,1.79-3.21,2.74-4.78,3.75-6.18,3-11.58-1.26-17.49-3.34-4.64-8.12-5.89-13.53-5.53a26.4,26.4,0,0,1-5.26-.12,5,5,0,0,1-4.24-3.73c-.27-.82-.48-1.65-.71-2.48Z" transform="translate(135.84 43.74)"/><path class="cls-1" d="M65,37.59c-.28,1.12-.52,2.24-.83,3.35-2.25,8.11-5.1,16-7.66,24.06s-5.2,16-7.79,24c-.69,2.1-1.67,2.87-3.86,2.87-3.32,0-6.64,0-10,0a1.3,1.3,0,0,1-1.49-1.11Q22.51,56.66,11.56,22.53c-.26-.83-.91-2-.59-2.45s1.62-.19,2.48-.19c3,0,6.08,0,9.12,0,2.75,0,4.1,1,4.86,3.67q5.84,20.31,11.64,40.62c1,3.57,1.6,7.24,2.31,11.21.78-2.79,1.39-5.3,2.18-7.76q6.36-20,12.79-40c.52-1.63,1-3.28,1.56-4.9a4,4,0,0,1,4.13-3q3.42,0,6.84,0a4,4,0,0,1,4.05,2.78c5.15,17,10.86,33.73,15.52,50.82.15.56.29,1.12.52,2,.51-2.42.88-4.53,1.4-6.61,2.43-9.59,5.44-19,8.15-28.54,1.6-5.6,3.26-11.18,4.89-16.77a4.33,4.33,0,0,1,4.73-3.53H118c1.41,0,1.42,0,1,1.31L106.17,61.07C103,70.91,99.85,80.74,96.74,90.6a1.56,1.56,0,0,1-1.82,1.32c-3.24-.09-6.48,0-9.72,0-2.42,0-3.3-.63-4-2.91-2.22-7-4.46-13.9-6.65-20.87-2.77-8.83-5.78-17.58-8.34-26.47-.39-1.34-.67-2.71-1-4.07Z" transform="translate(135.84 43.74)"/><path class="cls-1" d="M-48-34.32a5.75,5.75,0,0,1-.79,2.86c-1.09,1.95-2.22,3.88-3.3,5.83-2,3.69-2.6,7.51-.94,11.5.23.54.07.75-.39,1-3.29,1.8-6.58,3.61-9.83,5.47-.74.42-1,0-1.35-.43a21.21,21.21,0,0,0-16.28-7.67A21.13,21.13,0,0,0-98.35-7.34c-.56.71-1,.77-1.7.36q-4.58-2.5-9.19-4.9c-.67-.34-.85-.64-.52-1.36a12.83,12.83,0,0,0-.88-12.37c-1.18-2-2.3-4-3.39-6.06a4.89,4.89,0,0,1,.83-6.08,19.48,19.48,0,0,1,9.93-5.68,4.89,4.89,0,0,1,5.43,2.14,47.39,47.39,0,0,1,3,5c1.72,3.17,3.85,6,7.43,7.12,5.7,1.79,11.19,1.61,16-2.48a15.09,15.09,0,0,0,3.18-4.17c.92-1.58,1.79-3.21,2.75-4.77,1.8-2.93,3.84-3.76,7.1-2.75a20.67,20.67,0,0,1,8.58,5.07A5.27,5.27,0,0,1-48-34.32Z" transform="translate(135.84 43.74)"/><path class="cls-1" d="M-77,34c0-1.8.06-3.6,0-5.4,0-.9.29-1.2,1.12-1.42,8.2-2.23,13.49-7.5,15.8-15.63a20.3,20.3,0,0,0-.55-12.72c-.26-.69-.18-1,.49-1.39q4.85-2.61,9.64-5.33A1,1,0,0,1-49-7.66a12.57,12.57,0,0,0,9.4,4.05c2,0,3.92,0,5.88,0,4.56.06,6.2,1.38,7,5.86a20.32,20.32,0,0,1-.34,8.91,5.31,5.31,0,0,1-5.42,4.2c-2.64.11-5.27-.12-7.91.1a13.28,13.28,0,0,0-10.32,6.35c-3.55,5.36-4.25,10.82-.64,16.49,1.11,1.75,2.1,3.58,3,5.43a4.94,4.94,0,0,1-.82,6.08,19.63,19.63,0,0,1-9.91,5.73,4.82,4.82,0,0,1-5.21-1.88A32.26,32.26,0,0,1-67.22,49c-2.06-3.92-4.75-7.11-9.29-8.2-.56-.14-.5-.54-.5-.93Z" transform="translate(135.84 43.74)"/><path class="cls-2" d="M187.56,23.43c.62-1.62,1.2-3.05,1.72-4.51.2-.58.4-1.05,1.14-.89s.36.72.37,1.08c0,1.64,0,3.28,0,4.92,0,.28.14.69-.39.68S190,24.3,190,24c0-1.19,0-2.39-.13-3.61a9.14,9.14,0,0,0-1.32,2.81c-.13.33-.28.66-.39,1s-.21.49-.56.51-.55-.2-.67-.54a23.78,23.78,0,0,0-1.75-3.91c0,1.18,0,2.36,0,3.53,0,.34.23.87-.44.91s-.49-.5-.49-.84q0-2.46,0-4.92c0-.34-.22-.85.43-.93a.87.87,0,0,1,1.09.64C186.31,20.21,186.92,21.72,187.56,23.43Z" transform="translate(135.84 43.74)"/><path class="cls-2" d="M180.41,21.86c0-.36,0-.72,0-1.08a3.87,3.87,0,0,0-.1-1.65c-.3-.53-1-.18-1.56-.25-.3,0-.58-.06-.56-.45s.3-.4.59-.4H183c.29,0,.58,0,.59.41s-.28.43-.57.43a3.47,3.47,0,0,1-.72,0c-.78-.11-1,.27-.92,1,0,1.36,0,2.72,0,4.08,0,.32.16.76-.43.8s-.49-.47-.5-.83C180.39,23.22,180.41,22.54,180.41,21.86Z" transform="translate(135.84 43.74)"/></svg>