<svg id="Layer_1" data-name="Layer 1" xmlns="http://www.w3.org/2000/svg" viewBox="0 0 877.09 372.96"><defs><style>.cls-1{fill:#e24386;}.cls-2{fill:#cad841;}.cls-3{fill:#25bdd4;}.cls-4{fill:#434343;}.cls-5{fill:#2abcc3;}</style></defs><title>the-lab-miami</title><path class="cls-1" d="M36.11,132.77c-44,0-88-.09-132,.14-4.67,0-5.94-1-5.89-5.65.22-23,.13-46,.13-69q0-97.48-.13-194.95c0-4.88,1.29-6,6.06-6q131.72.22,263.43.11c1.5,0,3-.07,4.5.07,1.67.17,2,.83,1.75,2.79-.51,3.42-.17,7-.17,10.47q0,128,.09,255.93c0,5.07-1.25,6.22-6.34,6.19C123.75,132.66,79.93,132.77,36.11,132.77Zm-.25-7.85q60.72,0,121.44,0c5.84,0,6.11-.38,3.67-5.28q-27.3-54.7-54.64-109.39Q72.63-57.18,38.87-124.57c-.69-1.39-.88-3.72-2.8-3.71s-2.07,2.35-2.77,3.75Q2.15-62.26-28.92.06-58.6,59.44-88.34,118.8c-3,6-3,6.12,3.75,6.13Q-24.36,124.95,35.86,124.92ZM-94,110l1,.2c.78-1.43,1.6-2.84,2.33-4.29Q-31.68-12,27.26-129.91c2.58-5.16,2.55-5.2-3.18-5.2-37.31,0-74.62.13-111.93-.12-5.26,0-6.25,1.56-6.23,6.44q.22,101.19.1,202.38Zm259,.3,1-.17c0-.6.11-1.2.11-1.8q0-119.47.13-238.93c0-4-1.59-4.52-5-4.51-37.15.1-74.31,0-111.46,0-9,0-7.41,0-4,6.87Q91.13-37.31,136.63,53.57,150.81,81.92,165,110.27Z" transform="translate(402.55 142.82)"/><path class="cls-2" d="M474.47-5.18q0,66.48.08,133c0,4-.93,5.43-5.27,5.42q-132-.19-263.95-.06c-4.1,0-6.69-.62-6.58-5.63.94-40.81.39-81.62.24-122.44-.17-43.64.18-87.29.23-130.93a84.41,84.41,0,0,0-.87-12.41c-.44-2.93.69-4.06,3.28-4.31,1.33-.13,2.67-.09,4-.09h257c12,0,12,0,12,12V-5.18ZM336.54-8.79q62,0,124,0c6.3,0,6.57-.35,6.57-6.41q0-56-.06-112c0-7.91,0-7.92-7.92-7.92H213.67c-6.87,0-6.91,0-6.91,6.86q0,56.47,0,113c0,6.47,0,6.48,6.81,6.48Zm-.13,133.67h122c8.62,0,8.63,0,8.62-8.29q0-54.49-.06-109c0-8.81,0-8.81-8.92-8.81H215.08c-8.21,0-8.24,0-8.25,8q0,55.74-.07,111.47c0,6.55,0,6.56,6.68,6.56Z" transform="translate(402.55 142.82)"/><path class="cls-3" d="M-127.65-141.42c1.11,1.86.6,3.92.6,5.87q0,131.24,0,262.47c0,6.35,0,6.39-6.62,6.29-81.82-1.13-163.63-.19-245.45-.47-6.49,0-13,.23-19.47.55-2.84.14-3.94-.9-3.86-3.7.1-3.83,0-7.66,0-11.5q0-127.49-.1-255c0-4.38.83-6,5.71-5.94q126.73.27,253.47.19c1.81,0,3.68-.43,5.41.48-1.34.35-2.47,1.57-.44,1.72C-134.86-140.15-131-139-127.65-141.42ZM-397.91,123.84c-1.56,0-3.14.11-2.85,2.35.2,1.56,1.45,1.6,2.63,1.61,2.48,0,5,0,7.45,0,1.83,0,2.86-.6,2.74-2.56h2.05c.22,4.07,3.38,2.47,5.29,2.47q116.69.12,233.38.06c1.16,0,2.33,0,3.49,0,1.58-.09,1.78-1.23,1.79-2.48,7.33-.88,7.33-.88,7.33-8.7q0-122.31,0-244.62c0-2.44.59-5-1.28-7.17-1.15-1.39-2.75-1-4.19-1q-125.15,0-250.29.06c-.82,0-2.32-1-2.52,1l-2,1.92c-.87-.42-1.73-.9-2.62-1.26-1.76-.72-2.68-1.87-2.3-3.87.41-2.17,2.11-1.71,3.54-1.78,1-.05,2,0,3,0q121.44,0,242.89,0c2,0,4.14.62,6.28-.9-2.17-1.7-4.22-1-6.09-1q-117.19-.06-234.4,0c-4.33,0-8.66,0-13,0-1.85,0-3.42.37-3.86,2.34-.55,2.41-1.5,6.22.45,7,4.27,1.62,3.08,4.63,3.08,7.32Q-397.88-.86-397.91,123.84Z" transform="translate(402.55 142.82)"/><path class="cls-4" d="M206.71,174.2Q197,186.13,187.29,198c-3.9,4.8-3.85,4.8-7.7.07C173,190,166.42,182,158.86,172.74v25.68c0,9,0,18,0,27,0,2.53.51,4.77-3.61,4.72-3.95,0-3.18-2.3-3.18-4.49,0-19.5-.06-39,.07-58.49,0-1.65-1.53-4.31,1.5-5,2.48-.54,4.8-.3,6.69,2.08,5.59,7,11.37,13.93,17.1,20.86,1.89,2.3,3.85,4.56,6,7.14,7.57-9.22,14.92-18.2,22.31-27.14,1.11-1.35,1.89-3,4.2-3.08,3.33-.15,5,.27,5,4.44-.25,19.65-.13,39.32-.1,59,0,2.58.4,4.72-3.65,4.68s-3.25-2.22-3.25-4.46q0-23,0-46V174.8Z" transform="translate(402.55 142.82)"/><path class="cls-4" d="M379.56,174.09c-1.62,2-1.07,3.66-1.08,5.22-.05,15.16,0,30.32-.08,45.48,0,2.31,1.39,5.38-3.43,5.28-4.45-.08-3.18-2.87-3.19-5q-.07-29,0-58c0-1.65-1.13-4.21,1.2-4.81,2.48-.64,5.07-.49,7.12,2.1,6.4,8.09,13.27,15.82,19.5,24,2.91,3.84,4.25,3.42,7-.14,5.94-7.81,12.36-15.26,18.58-22.85a28.46,28.46,0,0,1,2-2.26c1.82-1.81,4.2-1.3,6.14-.78,1.71.46.9,2.61.91,4q.06,29.73,0,59.48c0,2,.79,4.24-2.93,4.24-3.51,0-3.57-1.63-3.55-4.26.09-15.49.07-31,0-46.48,0-1.73.51-3.57-.87-5.76-6.86,8.42-13.55,16.59-20.2,24.81-3.63,4.49-3.56,4.51-7.23,0C392.87,190.34,386.28,182.31,379.56,174.09Z" transform="translate(402.55 142.82)"/><path class="cls-4" d="M64.68,194.26c12.16,6.1,15.61,12.76,12.47,23.15-2.1,7-9.18,12-18.09,12.43-7.14.32-14.3,0-21.45.17-2.62.06-2.91-1.12-2.9-3.31q.1-30.67,0-61.36c0-2.2.39-3.44,3-3.31,5.64.28,11.28-.32,16.93.41,7.51,1,14,3.5,16.58,11.31C73.88,181.81,72,188.77,64.68,194.26Zm-23.26,17v10c0,1.38,0,2.83,2,2.76,6.29-.24,12.67,1,18.85-1,5.86-1.86,8.86-6.06,8.71-11.85-.13-5.59-3.23-9.56-8.91-11.2a29.19,29.19,0,0,0-7.86-1.16C41.41,198.73,41.41,198.69,41.42,211.26Zm0-29.85c1.81,2.94-3,8.84,1.89,11,3.88,1.75,9.18.66,13.69-.79,5.28-1.7,8-5.63,8.06-11.25,0-7.49-4.87-11.73-14.38-12.43-9.26-.69-9.26-.69-9.26,8.41Z" transform="translate(402.55 142.82)"/><path class="cls-4" d="M-261.89,196.25c0,10-.07,20,0,30,0,2.51-.17,4-3.35,3.87-2.82-.1-3.61-1-3.55-3.75.17-8.16-.08-16.32.07-24.47.06-2.71-.86-3.33-3.41-3.31-12,.12-24,.15-36,0-2.93,0-3.59.93-3.53,3.71.18,8,0,16,.08,24,0,2.61-.42,3.82-3.49,3.84s-3.06-1.43-3.06-3.64c0-20.31.07-40.62,0-60.93,0-2.52.6-3.45,3.29-3.52s3.3,1.08,3.27,3.51c-.11,7.66.07,15.32-.09,23-.07,3,.5,4.42,4,4.35,11.65-.23,23.31-.18,35,0,3,0,4-.81,3.94-3.92-.21-7.65,0-15.31-.06-23,0-2.55.37-4,3.44-4s3.47,1.27,3.44,3.88C-262,175.94-261.89,186.09-261.89,196.25Z" transform="translate(402.55 142.82)"/><path class="cls-4" d="M346.26,229.49c-5.53,1.71-8.06-.39-9.52-4.93-1-3.13-3.22-5.91-4-9.07-1.91-7.48-6.44-9.59-13.79-8.69-5.73.71-11.64.36-17.45.11-2.94-.13-4.49.81-5.6,3.5-1.95,4.76-4.55,9.26-6.29,14.09-1.67,4.64-4.12,6.91-9.53,4.9l16.88-36.76L310,164.14c.64-1.4,1.27-2.63,3.23-2.49a3.11,3.11,0,0,1,2.91,2.18C326.12,185.67,336.15,207.48,346.26,229.49Zm-33.19-56.62c-4.26,9.35-8.1,17.73-11.91,26.13-.66,1.45-.24,2.06,1.46,2.05,7-.06,14,0,21,0,1.63,0,2.15-.57,1.46-2.07Z" transform="translate(402.55 142.82)"/><path class="cls-4" d="M8.93,229.39c-4.6,1.4-7.6.72-9.29-4.27-1.76-5.15-4.51-10-6.66-15-.93-2.17-2-3.31-4.67-3.24-8.31.21-16.64.16-25,0-2.35,0-3.58.68-4.49,2.86-2.09,5.05-4.72,9.89-6.64,15-1.67,4.41-4.2,6.34-9.39,4.74,3.5-7.82,6.92-15.64,10.48-23.4q9.34-20.35,18.84-40.65c.76-1.64.88-3.91,3.82-3.82,2.62.09,2.71,2.07,3.41,3.59Q-5.81,197.25,8.93,229.39Zm-33.15-56.53-12.87,28.2h22.61c1.56,0,3.29.17,2.14-2.33C-16.19,190.36-20,182-24.22,172.86Z" transform="translate(402.55 142.82)"/><path class="cls-4" d="M-228.68,196.1c0-10,.13-20-.07-30-.06-3.33,1-4.24,4.26-4.18,10,.2,20,.11,30,.08,2.13,0,3.77-.1,3.82,3s-1.64,3-3.74,2.94c-7.83,0-15.65.1-23.48-.08-3.07-.07-4.06.94-3.94,4,.22,5.65.19,11.33,0,17-.11,3,.64,4.09,3.83,4,7.32-.23,14.65-.08,22,0,2.18,0,4.67-.87,4.61,3.12-.07,4.17-2.86,2.83-4.84,2.86-7.32.12-14.65.18-22,0-2.9-.07-3.67,1-3.59,3.7.17,6,.21,12,0,18-.1,2.94,1,3.67,3.71,3.63,8.16-.14,16.32,0,24.48-.06,2.05,0,3.8-.29,3.9,2.89s-1.54,3-3.67,3c-10.49,0-21-.12-31.47.06-3.13.05-3.9-.92-3.84-4C-228.56,216.09-228.68,206.09-228.68,196.1Z" transform="translate(402.55 142.82)"/><path class="cls-4" d="M-368.89,199.3c0,9-.09,18,.06,27,.05,2.65-.45,3.72-3.42,3.8-3.24.08-3.77-1.06-3.75-4,.14-17.83,0-35.66.15-53.49,0-3.57-.59-5-4.54-4.75-5.81.38-11.66.06-17.49.11-1.86,0-3.21-.08-3.11-2.58.08-2.12.3-3.4,2.94-3.39q25.5.12,51,0c2.56,0,2.92,1.15,3,3.36.08,2.45-1.13,2.65-3,2.63-6.16-.05-12.33.11-18.49-.07-2.67-.08-3.39.81-3.35,3.41C-368.8,180.64-368.89,190-368.89,199.3Z" transform="translate(402.55 142.82)"/><path class="cls-4" d="M-114.94,196.09q0-15,0-30c0-2.16-.46-4.2,3.07-4.18,3.24,0,3.83,1.21,3.81,4.11-.11,17.8.07,35.6-.16,53.4,0,3.78,1,4.78,4.64,4.65,8.15-.28,16.3-.07,24.46-.16,2.31,0,3.73.31,3.69,3.2,0,2.69-1.35,2.82-3.43,2.81-11-.06-22-.13-32.94.07-2.94.06-3.19-1.17-3.17-3.5C-114.89,216.39-114.94,206.24-114.94,196.09Z" transform="translate(402.55 142.82)"/><path class="cls-4" d="M254.44,195.85c0,10.16-.11,20.33.07,30.49.05,2.85-.71,3.7-3.57,3.71s-3.26-1.15-3.25-3.57q.1-30.49,0-61c0-2.42.44-3.56,3.29-3.52,3,0,3.55,1.2,3.51,3.88C254.36,175.86,254.44,185.85,254.44,195.85Z" transform="translate(402.55 142.82)"/><path class="cls-4" d="M467.32,195.82c0-10,.07-20,0-30,0-2.6.47-3.9,3.49-3.95s3.39,1.4,3.38,3.93q-.12,30.22,0,60.44c0,2.59-.33,3.87-3.41,3.81-2.91-.06-3.53-1.07-3.49-3.79C467.41,216.13,467.32,206,467.32,195.82Z" transform="translate(402.55 142.82)"/><path class="cls-5" d="M-127.65-141.42c-3.36,2.44-7.21,1.27-10.75,1-2-.15-.9-1.37.44-1.72h9.68Z" transform="translate(402.55 142.82)"/><path class="cls-3" d="M-128.28-142.16h-2.58A1.91,1.91,0,0,1-128.28-142.16Z" transform="translate(402.55 142.82)"/><path class="cls-5" d="M-394.92-133.23q0,65.68.09,131.36,0,59.94,0,119.88c0,2,.44,4-.51,5.89l-2.56-.07h0q0-124.69,0-249.39c0-2.69,1.19-5.7-3.08-7.32-2-.74-1-4.55-.45-7,.44-2,2-2.37,3.86-2.34,4.33.07,8.66,0,13,0q117.21,0,234.4,0c1.87,0,3.92-.69,6.09,1-2.14,1.52-4.32.9-6.28.9q-121.44.06-242.89,0c-1,0-2,0-3,0-1.43.07-3.13-.39-3.54,1.78-.38,2,.54,3.15,2.3,3.87C-396.65-134.13-395.79-133.65-394.92-133.23Z" transform="translate(402.55 142.82)"/><path class="cls-5" d="M-385.89,125.29c1.66-.1,3.31-.3,5-.3h234c1.65,0,3.31.2,5,.3,0,1.25-.21,2.39-1.79,2.48-1.16.06-2.33,0-3.49,0q-116.7,0-233.38-.06C-382.51,127.76-385.67,129.36-385.89,125.29Z" transform="translate(402.55 142.82)"/><path class="cls-5" d="M-135.91-135.2a8.36,8.36,0,0,1-1,.12l-256-.07c.2-1.93,1.7-1,2.52-1q125.14-.09,250.29-.06C-138.66-136.17-137.06-136.59-135.91-135.2Z" transform="translate(402.55 142.82)"/><path class="cls-5" d="M-392.06,125.19l4.12.09c.12,2-.91,2.61-2.74,2.56-2.48-.07-5,0-7.45,0-1.18,0-2.43,0-2.63-1.61-.29-2.24,1.29-2.31,2.85-2.35h0C-396.67,127.3-394.24,125.73-392.06,125.19Z" transform="translate(402.55 142.82)"/><path class="cls-3" d="M-392.06,125.19c-2.18.54-4.61,2.11-5.86-1.36l2.56.07C-394.22,124.24-392.92,124.16-392.06,125.19Z" transform="translate(402.55 142.82)"/></svg>