<svg id="Layer_1" data-name="Layer 1" xmlns="http://www.w3.org/2000/svg" viewBox="0 0 801 241.24"><defs><style>.cls-1{fill:#e1242a;}</style></defs><title>twilio</title><path class="cls-1" d="M-376,13c2.1-3.32,1.69-7.22,2.45-10.84,12.73-60.3,63.62-99.87,125.22-97.28C-192-92.75-142.91-47.61-135.91,8.31c8.16,65.11-32.77,122.33-96.7,135.31-4.12.84-8.47.49-12.39,2.38h-22c-.54-1.55-1.94-1-3-1.11-51.57-7.59-90.61-42.55-102.53-92C-374,46.65-374.85,40.29-376,34Zm120.93-76.16a88.49,88.49,0,0,0-88.76,88.45c0,48.37,40,88.42,88.49,88.54,48.31.13,88.48-39.7,88.5-87.75C-166.82-23.79-205.74-63.16-255.07-63.16Z" transform="translate(376 95.24)"/><path class="cls-1" d="M425,50c-1.77.81-1.15,2.62-1.45,3.92a58.87,58.87,0,0,1-53.13,46c-22.8,1.79-42.79-4.26-57.19-22.88-24.87-32.14-7.79-78.6,32.37-89,26.69-6.89,53.89,2.05,68.72,22.58A54.82,54.82,0,0,1,424,34.49c.15.91-.29,2.07,1,2.51ZM363.29,62.16c10,0,17.6-8.15,17.54-18.94C380.78,32.66,373,24.12,363.3,24c-10-.12-17.69,7.94-17.82,18.73S353.31,62.12,363.29,62.16Z" transform="translate(376 95.24)"/><path class="cls-1" d="M60.63,52.38C56,66.75,51.51,80,47.55,93.36c-1.26,4.26-3.38,5.38-7.48,5.27-8.82-.24-17.66-.32-26.48,0C9,98.83,7.23,97,6,92.83-2.56,63.65-11.35,34.53-20.12,5.41c-.55-1.85-.69-3.92-2.71-6.17,0,7-.17,13.36.06,19.68.14,3.68-1.09,5.13-4.83,5-5.32-.21-10.67.15-16-.13-3.39-.17-4.67.66-4.5,4.3.3,6.82.07,13.66.09,20.49,0,11.65,4.9,15.53,16.51,13.14,8.33-1.72,8.33-1.72,8.33,6.88,0,7.17-.15,14.34.06,21.49.09,2.94-.76,4.57-3.59,5.58-13.68,4.88-27.62,6.11-41.7,2.47C-83.34,94.26-91.67,84-93,68.52c-1.15-13.14-.45-26.31-.44-39.46,0-4-.76-5.53-5.12-5.32-7.58.35-7.6.07-7.6-7.45s.17-15.33-.07-23c-.12-3.74,1.18-5.24,4.85-4.87,1.32.13,2.68-.12,4,0,3.17.41,4-1,3.9-4-.2-5,.09-10-.11-15-.11-3,.85-4.54,3.79-5.43q18.61-5.61,37.13-11.56c3.7-1.18,4.79.12,4.74,3.73-.13,9,.27,18-.17,27-.23,4.66,1.41,5.38,5.57,5.33,18.33-.22,36.66.07,55-.2,4.82-.07,6.65,1.66,7.69,6.2,2.76,12.08,6,24.06,9.39,37.3,4.06-13.61,7.92-26,11.37-38.44,1.13-4.1,3-5.66,7.3-5.5,8.48.32,17,.24,25.48,0,3.76-.09,5.68,1.06,6.73,4.89,3,10.89,6.38,21.68,9.68,32.48.51,1.66.49,3.61,2.53,5.21,3.18-12.11,6.49-23.85,9.27-35.7,1.09-4.67,2.86-6.55,8-6.49q37,.42,74,0c4.86,0,6.16,1.44,6.13,6.23q-.3,49.23,0,98.47c0,4.49-1.39,5.7-5.7,5.6q-17.24-.39-34.49,0c-4.42.1-5.7-1.4-5.68-5.75.16-29.16.09-58.32.09-87.48V-.06l-.82-.19C141,7.39,138.55,15,136.23,22.68,129.1,46.22,122,69.75,115,93.33c-1.11,3.76-2.81,5.45-7,5.32-9.32-.3-18.66-.19-28-.05-3.49.05-5.33-1-6.41-4.64C69.62,80.43,65.23,67,60.63,52.38Z" transform="translate(376 95.24)"/><path class="cls-1" d="M243.84,25.37c0,22.48-.09,45,.09,67.44,0,4.2-.89,6-5.49,5.84-11.65-.29-23.31-.24-35,0-4.16.07-5.4-1.36-5.39-5.49q.18-67.95,0-135.88c0-4,1-5.61,5.31-5.52,11.82.26,23.65.23,35.47,0,4-.07,5.09,1.26,5.07,5.18C243.76-20.26,243.84,2.56,243.84,25.37Z" transform="translate(376 95.24)"/><path class="cls-1" d="M297.84,43.84c0,16.49-.09,33,.07,49.46,0,3.75-.82,5.41-5,5.33-12-.22-24-.18-36,0-3.66,0-4.91-1.12-4.9-4.88q.19-50.2,0-100.43c0-3.77,1.3-5,4.92-4.91q18,.19,36,0c3.67,0,4.95,1.28,4.92,5C297.76,10.19,297.84,27,297.84,43.84Z" transform="translate(376 95.24)"/><path class="cls-1" d="M167.06-19c-6.5,0-13-.11-19.49.05-3.06.08-4.18-1.17-4.15-4.11q.12-10.49,0-21c0-2.87.89-4.2,4-4.17,13.16.12,26.32.1,39.48,0,2.77,0,3.95,1.06,3.93,3.8-.05,7.16-.07,14.33,0,21.49,0,3.06-1.41,4-4.32,4C180.05-19.09,173.56-19,167.06-19Z" transform="translate(376 95.24)"/><path class="cls-1" d="M275-19c-6.32,0-12.65-.16-19,.07-3.55.13-4.68-1.22-4.59-4.63.17-6.82.12-13.64,0-20.45,0-2.86.75-4.24,3.93-4.21,13.14.12,26.28.1,39.41,0,2.8,0,3.86,1.05,3.83,3.8-.09,7.15-.1,14.31,0,21.46,0,3-1.2,4.07-4.19,4C287.92-19.1,281.43-19,275-19Z" transform="translate(376 95.24)"/><path class="cls-1" d="M-225.35,80.17a24.65,24.65,0,0,1-24.94-25.05,24.88,24.88,0,0,1,25-25.12A25.17,25.17,0,0,1-200,55.41,24.9,24.9,0,0,1-225.35,80.17Z" transform="translate(376 95.24)"/><path class="cls-1" d="M-225.14,20.17c-14.26,0-25.12-10.68-25.17-24.78A25,25,0,0,1-225-30,25.26,25.26,0,0,1-200-4.77,24.85,24.85,0,0,1-225.14,20.17Z" transform="translate(376 95.24)"/><path class="cls-1" d="M-285.08,20.17c-14.26,0-25-10.6-25.09-24.78S-299.41-29.87-285.5-30A25.16,25.16,0,0,1-260-4.78,24.78,24.78,0,0,1-285.08,20.17Z" transform="translate(376 95.24)"/><path class="cls-1" d="M-285.16,80.17c-14.19,0-25-10.76-25-24.92s10.82-25.2,24.75-25.25A25.08,25.08,0,0,1-260,55.27,24.83,24.83,0,0,1-285.16,80.17Z" transform="translate(376 95.24)"/></svg>