<svg id="Layer_1" data-name="Layer 1" xmlns="http://www.w3.org/2000/svg" viewBox="0 0 2845.95 419.66"><title>ultrapress</title><path d="M-1132-166.84h75.21l-29.11,184h74.71c-1.67,10.77-3,20.94-4.86,31-3.93,21.42-6.37,43.31-12.53,64.09-21.89,73.92-72.29,117.77-147.1,133.5-45.39,9.55-91,9.6-136.06-2.81-30.24-8.33-56-23.77-73.61-50.64-12.29-18.71-17.8-39.59-19.62-61.64-2-24.13,1.65-47.82,5.43-71.53q11.44-71.74,22.56-143.54,6.15-39.21,12.28-78.43c.2-1.29.6-2.55.93-3.92h149.84c-2.19,14.06-4.31,27.85-6.48,41.62q-11.76,74.73-23.5,149.45-4.5,28.86-8.51,57.8a70.25,70.25,0,0,0-.42,13.45c.86,16.17,8.57,25,24.54,27.08a78.06,78.06,0,0,0,19.91-.17c16.23-2.09,27.56-11.36,32.3-26.79,4.09-13.29,6.75-27.09,9-40.84,7.81-47.8,15.17-95.67,22.7-143.51q5.73-36.51,11.44-73C-1132.72-163.32-1132.37-164.94-1132-166.84Z" transform="translate(1405.56 167.06)"/><path d="M100.15,121.51c-3.08,19.24-6.07,37.79-9,56.35-3.33,20.87-6.76,41.73-9.83,62.64-.59,4.05-2,5.1-5.94,5.09-41.66-.13-83.32-.08-125-.08H-64.22C-42.49,107.8-20.84-29.39.88-167H6c63.65,0,127.31-.18,191,.09,24.81.1,49.08,4.1,72.07,14,38.13,16.38,61.37,45,66.5,86.18,5.88,47.27-4.48,91.24-33.36,129.68C276.6,97,241.49,116,199.47,119.6c-30.45,2.63-61.24,1.41-91.87,1.9C105.29,121.54,103,121.51,100.15,121.51ZM116.6,17.13c15.07-.08,29.35.79,43.42-2.95,17.73-4.73,28.34-15.84,31.66-34,2.79-15.3-3-26.23-17-30.74-15.19-4.89-30.9-3.41-46.66-3.59C124.2-30.31,120.47-7,116.6,17.13Z" transform="translate(1405.56 167.06)"/><path d="M-170.4-11.16V-44.68H-31.1Q-54,100.31-77,245.27H-215.5c3.39-12.78,6.68-25.17,10-37.55l-1.26-.93c-1.74,1.27-3.59,2.42-5.19,3.84-15.24,13.56-30.94,26.63-50.35,33.71-33.94,12.38-67.13,11.88-97.63-9.68-20.74-14.66-32.4-35.9-39-59.95-11.75-42.8-6-84.23,11.49-124.28C-372,15.14-349.4-14.48-315.6-34.19c30.32-17.69,62.72-22.38,96.69-12.76,18.37,5.2,32.43,16.52,42.82,32.49a34,34,0,0,0,3.76,4.13Zm-92.58,119c0,1.67-.08,3.34,0,5,.81,14.67,8.93,25.1,22.18,27.7,11.37,2.22,22.26.55,31.92-6.26,12.49-8.8,18.29-21.59,21-36.14,1.6-8.65.71-17-3.8-24.63-7.66-13-24.82-18-41.05-12C-250.56,68-262.84,86.76-263,107.84Z" transform="translate(1405.56 167.06)"/><path d="M911.61,124.23H705.93c-2.17,12.29-3.7,24.32,1.28,36,4.87,11.45,19.49,16.49,33.52,11.9,9.9-3.24,16.84-9.88,21.29-19.14,1.13-2.35,2.2-3.6,5.08-3.59q65.25.15,130.49.08c.95,0,1.9.19,3.33.34a131.65,131.65,0,0,1-23.87,37.62c-25.47,28.43-57.61,45.9-94,55.89-47.57,13.06-94.89,12.58-141.23-5.4-28.27-11-50.73-29.08-64-57.11-10.45-22.08-12.41-45.42-9.45-69.31C579.5,21.94,648.55-37.1,728.66-49.11c38.34-5.74,75.85-2.71,111.53,13.28C893.31-12,918.59,35.35,915.44,90.69,914.82,101.76,913,112.77,911.61,124.23ZM716.35,63.81c21,0,41.92,0,62.87-.1a3.54,3.54,0,0,0,2.52-2.2c3.27-12.87-6.52-30-19.61-33.86C737.36,20.33,717,42.61,716.35,63.81Z" transform="translate(1405.56 167.06)"/><path d="M1179.35-27.29l-47,80.26c-8.48-5-16.26-10.12-24.53-14.27-13.28-6.66-27.42-10.36-42.44-8.65a31,31,0,0,0-10.77,3.54c-4.82,2.57-6.85,7.14-6.42,12.59.39,5.15,3.71,8.37,8.25,9.62,7.68,2.1,15.51,3.73,23.36,5.13,16.59,3,33,6.51,48.09,14.38,22.3,11.62,33.4,32.11,31.74,57-3.34,50.22-31.18,82.52-75.26,102.43-37.76,17.06-77.52,20.73-118.29,14.76-31.55-4.62-61.3-15.09-90.21-28.18-1-.47-2-1.09-3.32-1.82q25.15-43.72,50-86.93c10.69,6.41,20.82,13,31.47,18.73,14.18,7.57,29.08,13.69,45.59,12.63a37.69,37.69,0,0,0,15.33-5c5.88-3.28,8-9.32,6.89-15.95-1-6.16-5.93-8.76-11.32-9.87-11.23-2.31-22.64-3.83-33.85-6.26-12.42-2.69-24.22-7.22-34.81-14.49-18.33-12.58-26-30.42-24.44-52.07,3.26-45.36,28.78-75,68.38-93.88C1016.19-48,1048.56-53,1082-51.41c27.09,1.27,53.66,5.36,79,15.52C1167.12-33.44,1173-30.3,1179.35-27.29Z" transform="translate(1405.56 167.06)"/><path d="M1440.4-27.17l-46.83,80c-9.18-5.24-17.69-10.75-26.75-15.12-12.6-6.08-26-9.31-40.17-7.69a32,32,0,0,0-10.8,3.48c-4.88,2.51-6.94,7.15-6.59,12.53a10.39,10.39,0,0,0,8.16,9.7c7.85,2.11,15.94,3.32,23.82,5.32,13.67,3.48,27.72,6.1,40.8,11.18,28.63,11.1,41.46,34,38.43,64.44-4.51,45.46-29.67,75.92-69.4,95.46-37.24,18.31-76.8,23.1-117.73,18.18-33.9-4.07-65.71-15.1-96.61-29.11-.89-.4-1.74-.89-3.09-1.58,16.84-29.27,33.54-58.32,49.92-86.8,12.24,7.08,23.79,14.33,35.85,20.6,12.94,6.72,26.68,11.28,41.61,10.74,6.55-.23,12.46-2.21,17.22-6.84,8.87-8.63,6-21-5.93-23.91-10-2.46-20.45-3-30.38-5.64-10.56-2.79-21.22-6-31-10.82-23.7-11.64-34.58-32.15-32.3-58.43,3.48-40.15,24.86-68.32,59.23-87.44,25.63-14.27,53.46-21.12,82.63-22.34,36.49-1.53,72.09,3,106,17.24C1431.12-32.09,1435.45-29.63,1440.4-27.17Z" transform="translate(1405.56 167.06)"/><path d="M-819.36-41.35c2.18-13.86,4.42-27.3,6.32-40.79.53-3.73,1.92-5.66,5.65-6.92Q-737-112.86-666.67-137c1.38-.47,2.81-.8,5-1.42-5.11,32.6-10.12,64.56-15.21,97.05l47.51-2c-6,37.16-12,73.85-18,111.18l-46.49-2.66q-14.17,89.87-28.4,180H-864.71c9.43-60,18.82-119.68,28.31-180l-34.94,2.64c6.06-37.27,12-74.07,18.07-111.19Z" transform="translate(1405.56 167.06)"/><path d="M347.22-44.77h141.3L479.59-6.59l1.65,1.28c13.27-15.5,27.36-29.92,46.51-37.89s39.39-8.79,60.47-8.6L565.76,91.82c-4.12-2.54-7.93-4.73-11.59-7.15-24-15.87-61.17-8.87-77.89,11.64-9.34,11.46-14,24.76-16.3,39.14-5.71,36.48-11.46,73-17.24,109.74H301.37C316.65,148.58,331.89,52.18,347.22-44.77Z" transform="translate(1405.56 167.06)"/><path d="M-668.93,245.51-623-44.66h141.3c-3,12.7-5.95,25.25-8.91,37.8.39.37.79.73,1.19,1.09a43.56,43.56,0,0,0,4.51-4c10.34-12.14,21.79-22.89,36.06-30.38,17.15-9,35.74-11.07,54.66-11.63,3.81-.11,7.63,0,12.2,0C-389.5-4-396.91,43.39-404.47,91.71c-3.57-2.14-6.82-3.91-9.88-6-17-11.33-35.23-12.22-54.06-6.26C-489.09,86-501.5,101-506.86,121.34c-3.8,14.43-5.69,29.37-8.09,44.14-4.17,25.61-8,51.28-12.21,76.89-.2,1.19-2.07,2.35-3.41,3-.93.47-2.29.1-3.46.1h-134.9Z" transform="translate(1405.56 167.06)"/><path d="M-925.43-54.26h-74.73c6-37.77,11.83-75,17.74-112.47h137Q-875.74,39.41-906,245.18h-141.34Z" transform="translate(1405.56 167.06)"/></svg>