<svg id="Layer_1" data-name="Layer 1" xmlns="http://www.w3.org/2000/svg" viewBox="0 0 386.09 126.18"><defs><style>.cls-1{fill:#febb02;}</style></defs><title>UPE National</title><path class="cls-1" d="M18,88H-33c0-8.81.08-17.62.17-26.43.08-7.83-1.08-7.21,6.74-7,3.95.11,5.06-1.14,5-5.06-.21-15.81-.09-31.62-.09-47.42,0-7.16,0-7.39-7-7.16C-32-4.94-33-6.14-32.92-9.85c.29-9.31.16-18.63.2-27.95,6.49-.07,13-.2,19.48-.19q48,.06,96,.19c0,8.65.11,17.31.11,26,0,7.85.49,6.82-6.64,6.57-3.75-.12-4.29,1.33-4.26,4.61.15,16.31.28,32.63-.06,48.94-.1,5,1.08,7.13,6.2,6.2,4.14-.76,4.92,1.34,4.85,5.06C82.73,69,83,78.52,83,88H81c-2.21,0-5,0-7.08,0-13.87-.15-26.92.11-40.79,0C33.1,61,33,33,33,6,33-6.07,33-6,20.9-5.22c-2.41.15-3.1.94-3.09,3.24Q18,43,18,88Z" transform="translate(168 38.09)"/><path class="cls-1" d="M218,46c0,12.83-.12,25.67.09,38.5,0,3-.61,3.6-3.59,3.58C178.67,88,142.83,88,107,88c-.06-9.33.09-18.66-.26-28-.16-4.21.76-6.4,5.38-5.55,4.31.8,5.19-1.25,5.13-5.26-.22-16.16-.29-32.33,0-48.48.09-4.81-1.11-6.7-6-5.94-2.32.36-4.62.48-4.53-3.29.26-9.82.2-19.64.27-29.47l111,0V2c-9.16-.05-18.32-.16-27.48-.13-2.44,0-4.44-.16-4-3.34s-1.33-3.86-4.13-3.74c-3.83.18-7.67,0-11.5,0-10,0-9.9,0-9.41,10,.13,2.62,1,3.45,3.54,3.39,6.16-.13,12.32,0,18.49-.06,2.18,0,3.41.45,3.38,3-.1,9-.08,18,0,27,0,2.17-.79,2.94-2.92,2.89-4.33-.1-8.66,0-13,0-10,0-9.88,0-9.5,9.84.11,2.86,1.11,3.74,3.84,3.68,5.83-.14,11.66-.16,17.49,0,2.85.08,4.07-1,3.67-3.77-.53-3.73,1.37-4.32,4.63-4.34C200.06,46.33,209.05,47.07,218,46Z" transform="translate(168 38.09)"/><path class="cls-1" d="M-140.66,87.22h-2.25c1.09-8.93.13-17.11.39-26.06.21-7.26-.85-6.52,6.78-6.73,1.58,0,4.58,1.1,4.51-1.44-.17-6.33,1.95-12.89-1.79-19-6.19-10-12.72-19.95-18.06-30.44C-154.93-4-160-6.73-168-5V-38l48,0c-1.1,10.29,3.34,21-2.54,31-.17.28.14,1,.37,1.36C-119,0-115.8,5.7-112.17,12.11c3.58-6.27,6.56-11.62,9.67-16.9.92-1.55,1-2.69-.51-3.85a3.58,3.58,0,0,1-1.46-3c.19-8.81-.5-17.62.39-26.42L-57-38c.07,9.3,0,18.61.29,27.91.14,3.92-1,5.64-5,4.88-4.68-.9-7.1,1.45-9.29,5.32-5.48,9.67-11.11,19.28-17.18,28.59-3.7,5.66-5.54,11.35-5.09,18.16.48,7.38.11,7.56,7.29,7.52,3.23,0,4.31.92,4.22,4.23-.24,9.47-.14,19-.18,28.42q-26.36.12-52.71.26C-136.78,87.33-138.13,87.34-140.66,87.22Z" transform="translate(168 38.09)"/></svg>