<svg id="Layer_1" data-name="Layer 1" xmlns="http://www.w3.org/2000/svg" viewBox="0 0 753.85 212.78"><defs><style>.cls-1{fill:#838383;}.cls-2{fill:#ed2079;}</style></defs><title>WiCS</title><path class="cls-1" d="M572.7,172.48a112.6,112.6,0,0,1-36.86,29.38q-21.66,10.89-47.76,10.88a109.72,109.72,0,0,1-76.68-30.67,104.69,104.69,0,0,1-23-33.31,100.81,100.81,0,0,1-8.42-41.17,100.76,100.76,0,0,1,8.44-41.17,105.51,105.51,0,0,1,57.44-55.85,110.49,110.49,0,0,1,42.31-8.1q26.1,0,47.76,10.91A110.42,110.42,0,0,1,572,41.76L544.86,69.62A71.36,71.36,0,0,0,520.67,48a68.35,68.35,0,0,0-59.28-2.79,71.42,71.42,0,0,0-21.92,14.68,69.6,69.6,0,0,0-14.82,21.54,65.12,65.12,0,0,0,0,52.18,69.45,69.45,0,0,0,14.81,21.54,71.25,71.25,0,0,0,21.91,14.7,66.39,66.39,0,0,0,26.73,5.45q18.75,0,33.19-8.48a75.36,75.36,0,0,0,24.07-22.42Z"/><path class="cls-1" d="M753.85,155.8a49.37,49.37,0,0,1-5,21.66,57.08,57.08,0,0,1-13.81,18.11,68.48,68.48,0,0,1-21,12.53,74,74,0,0,1-26.86,4.68,167.11,167.11,0,0,1-23.68-1.52,102.52,102.52,0,0,1-19.76-4.82A93.66,93.66,0,0,1,626,198a167.52,167.52,0,0,1-17.61-12.54l27.88-28.12q12.15,10.14,23.81,14.32a74.62,74.62,0,0,0,25.33,4.19A33,33,0,0,0,696,174.15a29.34,29.34,0,0,0,8.62-4.43,21.6,21.6,0,0,0,5.83-6.59,16.68,16.68,0,0,0,2.15-8.36,20.17,20.17,0,0,0-1.77-8.61,20.86,20.86,0,0,0-6.33-7.35,64.18,64.18,0,0,0-12.67-7.22q-8.1-3.68-20.77-8.24a191.91,191.91,0,0,1-21.4-9.25,75,75,0,0,1-18-12.54,57.53,57.53,0,0,1-12.41-17.23q-4.69-9.89-4.68-23.31a54.5,54.5,0,0,1,5.2-23.81,56,56,0,0,1,14.19-18.62,65.93,65.93,0,0,1,21-12,76.48,76.48,0,0,1,26-4.3q23.31,0,39.27,6.09a85.44,85.44,0,0,1,28.37,17.74l-27.36,27.6a54.89,54.89,0,0,0-17-11.27q-9.37-3.93-22-3.93a31.69,31.69,0,0,0-10.77,1.77,28.16,28.16,0,0,0-8.49,4.68,23.3,23.3,0,0,0-5.7,6.84A16.84,16.84,0,0,0,655.06,60a18.76,18.76,0,0,0,2,8.74,23.34,23.34,0,0,0,6.84,7.61,68.27,68.27,0,0,0,12.79,7.35q8,3.67,19.88,8a152.1,152.1,0,0,1,26.09,11.66,72.85,72.85,0,0,1,17.74,13.94,49.83,49.83,0,0,1,10.13,17.1A65.25,65.25,0,0,1,753.85,155.8Z"/><rect class="cls-1" x="298.24" y="94.21" width="36.41" height="117.42"/><circle class="cls-1" cx="316.44" cy="60.53" r="19.11"/><polygon class="cls-2" points="180.72 0.41 141.31 78.48 162.84 121.98 224.94 0.41 180.72 0.41"/><polygon class="cls-1" points="160.09 123.13 116.14 212.17 105.17 212.17 0 0 42.98 0 110.66 140.84 138.84 83.35 160.09 123.13"/><polygon class="cls-1" points="61.27 0.41 166.44 212.58 177.42 212.58 282.13 0.41 240.98 0.41 171.93 141.24 104.26 0.41 61.27 0.41"/></svg>