<svg id="Layer_2" data-name="Layer 2" xmlns="http://www.w3.org/2000/svg" viewBox="0 0 228.17 50.77"><defs><style>.cls-1{fill:#21303c;}.cls-2{fill:#faad4d;}.cls-3{fill:#152d3d;}</style></defs><title>Wix.com Logo</title><g id="_Group_" data-name="&lt;Group&gt;"><path id="_Compound_Path_" data-name="&lt;Compound Path&gt;" class="cls-1" d="M133.7,54.15V49h2.56v5.17Z" transform="translate(-1.11 -3.97)"/><path id="_Compound_Path_2" data-name="&lt;Compound Path&gt;" class="cls-1" d="M161.44,36.33a7.31,7.31,0,0,0-.88-3,6.65,6.65,0,0,0-1.88-2.16A8.48,8.48,0,0,0,156,29.86a11.63,11.63,0,0,0-3.29-.45,9,9,0,0,0-4.26,1A9.26,9.26,0,0,0,145.34,33a11.76,11.76,0,0,0-1.91,3.71,14.12,14.12,0,0,0-.65,4.29,18.34,18.34,0,0,0,.6,4.82,11.06,11.06,0,0,0,1.85,3.84,8.73,8.73,0,0,0,3.12,2.53,9.87,9.87,0,0,0,4.36.9,8.94,8.94,0,0,0,6-2.25,8.72,8.72,0,0,0,1.93-2.54,10.3,10.3,0,0,0,1-3.24h1.91a11.85,11.85,0,0,1-1.28,4.12,10.55,10.55,0,0,1-2.41,3,10.1,10.1,0,0,1-3.26,1.89,12.91,12.91,0,0,1-9.33-.48,10.28,10.28,0,0,1-3.67-3,12.86,12.86,0,0,1-2.1-4.39,19.64,19.64,0,0,1-.68-5.19,16.57,16.57,0,0,1,.78-5.12,12.58,12.58,0,0,1,2.28-4.21,10.84,10.84,0,0,1,3.71-2.86,11.69,11.69,0,0,1,5.07-1,14.22,14.22,0,0,1,3.94.52,10.19,10.19,0,0,1,3.26,1.58,8.42,8.42,0,0,1,2.33,2.66,9.41,9.41,0,0,1,1.11,3.81Z" transform="translate(-1.11 -3.97)"/><path id="_Compound_Path_3" data-name="&lt;Compound Path&gt;" class="cls-1" d="M166.86,41.25a16.88,16.88,0,0,1,.78-5.19,13,13,0,0,1,2.28-4.29,10.81,10.81,0,0,1,3.71-2.94,12.55,12.55,0,0,1,10.14,0,10.81,10.81,0,0,1,3.71,2.94,13.17,13.17,0,0,1,2.28,4.29,16.88,16.88,0,0,1,.78,5.19,17.17,17.17,0,0,1-.78,5.22,12.78,12.78,0,0,1-2.28,4.29,11,11,0,0,1-3.71,2.91,12.44,12.44,0,0,1-10.14,0,11,11,0,0,1-3.71-2.91,12.6,12.6,0,0,1-2.28-4.29A17.17,17.17,0,0,1,166.86,41.25Zm1.91,0a14.91,14.91,0,0,0,.65,4.44,12,12,0,0,0,1.9,3.79,9.4,9.4,0,0,0,3.11,2.63,9.77,9.77,0,0,0,8.53,0,9.2,9.2,0,0,0,3.11-2.63A11.86,11.86,0,0,0,188,45.69a15.49,15.49,0,0,0,0-8.88A12,12,0,0,0,186.07,33,9.2,9.2,0,0,0,183,30.39a9.77,9.77,0,0,0-8.53,0A9.4,9.4,0,0,0,171.32,33a12.16,12.16,0,0,0-1.9,3.79A14.91,14.91,0,0,0,168.77,41.25Z" transform="translate(-1.11 -3.97)"/><path id="_Compound_Path_4" data-name="&lt;Compound Path&gt;" class="cls-1" d="M195.05,28.36H197v5.27h.1a6.71,6.71,0,0,1,1.06-2.29A8.36,8.36,0,0,1,200,29.46a8.83,8.83,0,0,1,2.4-1.25,8.68,8.68,0,0,1,2.79-.45,9.61,9.61,0,0,1,3.21.47,7.74,7.74,0,0,1,2.31,1.26,6.33,6.33,0,0,1,1.5,1.75,7,7,0,0,1,.76,2h.1a9.57,9.57,0,0,1,3.08-4.07,8.45,8.45,0,0,1,5.09-1.4,9.66,9.66,0,0,1,3.24.52A6.76,6.76,0,0,1,227,29.89a7.34,7.34,0,0,1,1.68,2.73,11.54,11.54,0,0,1,.6,3.92V54.15h-1.9V36.49a8.3,8.3,0,0,0-.76-3.87,6.06,6.06,0,0,0-1.78-2.13,5,5,0,0,0-2.06-.9,9.8,9.8,0,0,0-1.58-.18A8.48,8.48,0,0,0,218,30a7,7,0,0,0-2.56,1.81,8.42,8.42,0,0,0-1.68,3,12.74,12.74,0,0,0-.6,4.08V54.15h-1.91V36.49a8.44,8.44,0,0,0-.73-3.84,5.74,5.74,0,0,0-1.7-2.14,5.36,5.36,0,0,0-2-.9,9.43,9.43,0,0,0-1.63-.2,8.09,8.09,0,0,0-2.81.55,7.86,7.86,0,0,0-2.66,1.71,8.74,8.74,0,0,0-2,3,11.07,11.07,0,0,0-.75,4.26V54.15h-1.91Z" transform="translate(-1.11 -3.97)"/><g id="_Group_2" data-name="&lt;Group&gt;"><g id="_Group_3" data-name="&lt;Group&gt;"><path id="_Path_" data-name="&lt;Path&gt;" class="cls-2" d="M74.88,4.91c-2.56,1.34-3.51,3.6-3.51,9.85a9.93,9.93,0,0,1,3.22-1.95A13.73,13.73,0,0,0,77.87,11C80,9.44,80.36,7.41,80.36,4,80.36,4,76.84,3.88,74.88,4.91Z" transform="translate(-1.11 -3.97)"/><path id="_Path_2" data-name="&lt;Path&gt;" class="cls-3" d="M59.73,6.37A9.77,9.77,0,0,0,57,11.14l-6.9,26.73L44.4,16a18.75,18.75,0,0,0-3.16-7.14c-2-2.48-6.16-2.64-6.6-2.64s-4.57.16-6.6,2.64A18.75,18.75,0,0,0,24.88,16L19.14,37.87l-6.9-26.73A9.71,9.71,0,0,0,9.55,6.37C6.17,3.39,1.11,4,1.11,4L14.32,54s4.36.32,6.54-.79c2.86-1.46,4.22-2.59,6-9.39,1.54-6.06,5.86-23.85,6.27-25.12.2-.63.45-2.12,1.55-2.12s1.35,1.49,1.55,2.12c.4,1.27,4.72,19.06,6.27,25.12,1.73,6.8,3.1,7.93,6,9.39C50.6,54.3,55,54,55,54L68.17,4S63.1,3.39,59.73,6.37Z" transform="translate(-1.11 -3.97)"/><path id="_Path_3" data-name="&lt;Path&gt;" class="cls-3" d="M80.36,12.19a8.09,8.09,0,0,1-2.71,2.33c-1.21.68-2.38,1.14-3.62,1.73-2.09,1-2.66,2.12-2.66,3.83V54s3.34.43,5.52-.69c2.8-1.43,3.45-2.81,3.47-9V14h0Z" transform="translate(-1.11 -3.97)"/><path id="_Path_4" data-name="&lt;Path&gt;" class="cls-3" d="M113.29,29.13,130.05,4.2S123,3,119.48,6.18a39.36,39.36,0,0,0-4.75,5.71l-6.17,8.89a1.38,1.38,0,0,1-2.63,0l-6.17-8.89A40.1,40.1,0,0,0,95,6.18c-3.5-3.19-10.58-2-10.58-2L101.2,29.13,84.48,54s7.37.93,10.87-2.25a33.25,33.25,0,0,0,4.41-5.36l6.17-8.89a1.38,1.38,0,0,1,2.63,0l6.17,8.89a37.11,37.11,0,0,0,4.54,5.36C122.77,54.91,130,54,130,54Z" transform="translate(-1.11 -3.97)"/></g></g></g></svg>