<svg id="Layer_1" data-name="Layer 1" xmlns="http://www.w3.org/2000/svg" viewBox="0 0 551.2 261.69"><defs><style>.cls-1{fill:#0256a5;}.cls-2{fill:#6c767e;}.cls-3{fill:#fefefe;}</style></defs><title>World Fuel Services</title><path class="cls-1" d="M299.52,35c-1.16,2.58-.89,5.39-1.32,8.09-7.27,45.12-30.72,78.71-71.54,99.59-17,8.68-35.2,12.44-54.36,12.41a124.87,124.87,0,0,1-69-20.4,60.62,60.62,0,0,1-11.39-9l4.4,3a118.9,118.9,0,0,0,74.51,20.94c24.51-1.25,46.49-9.68,66.3-24.17C260.49,108.32,277,86.2,284.27,58.13c11.88-45.76,1.93-86.64-31-120.77-23.81-24.64-53.66-36-88-34.67a112.13,112.13,0,0,0-52.31,15.42,5.79,5.79,0,0,0-.75.58l-.9.57-.63.3c-.31.27-.88.08-1,.62.52.19,1,.29,1.38-.26l.64-.21,1-.48a114.22,114.22,0,0,1,34.77-11c28.38-4,54.79,1.57,78.64,17.4,30.41,20.18,47.85,48.81,52.94,84.88a120.72,120.72,0,0,1-6.69,59.62c-.59,1.59-1.31,2.35-3.07,2.15a22.32,22.32,0,0,0-4.55,0c-1.76.18-2.33-.55-2-2.16.39-2.11-.62-2.48-2.52-2.41-4,.14-4,0-4-4,0-23,0-45.92.06-68.87,0-2.2-.63-2.69-2.67-2.56-3.72.23-7.11,1.75-10.69,2.5-1.55.33-3,1-4.62,1.23s-2,1.12-1.93,2.63c.11,2,1.56,1.23,2.48,1.25,4.75.09,4.75.05,4.75,4.71,0,20.24,0,40.47.05,60.71,0,2-.46,2.8-2.48,2.47-.62-.11-1.29,0-1.91,0-1.56-.21-2.28.36-2,2,.41,2.15-.51,2.66-2.59,2.6-5.32-.15-10.65,0-16.55,0,3.5-1.78,6.47-3.4,9.52-4.81s.45-2.92.08-4.34c-.55-2-1.6-.71-2.47-.25-2.2,1.14-4.32,2.44-6.58,3.43-7.71,3.34-15.67.33-19.37-7.24a30.45,30.45,0,0,1-2.66-11.35c-.12-1.61.22-2.17,2-2.15,9.36.1,18.72,0,28.08.11,2.07,0,2.41-.61,2.43-2.52.11-8.14-2.45-14.81-10-18.78a24.37,24.37,0,0,0-35.19,17.25c-1.18,6.78-.75,13.39,2.39,19.63a23.94,23.94,0,0,0,11.38,10.92H166.47c3.11-1.31,6.17-1.7,9.09-2.52,1-.28,1.75-.42,1.82-1.75.09-1.63-.32-2.19-2.06-2.17-5.48,0-5.48,0-5.48-5.58,0-11.91-.05-23.83,0-35.75,0-1.91-.51-2.52-2.39-2.33-5.19.54-10,2.5-15.1,3.61-.54.12-.65.55-.73,1.08-.4,2.48,0,3.08,2.44,2.88s3.24.45,3.18,3.06c-.2,7.84-.13,15.68,0,23.52a5.14,5.14,0,0,1-1.78,4.17c-2.8,2.62-5.38,5.5-9.52,6-4.66.58-7.22-1.29-7.77-5.92-.48-4.06-.17-8.15-.2-12.22,0-8-.07-16,0-24,0-1.84-.52-2.21-2.27-2.24-3.62-.05-6.86,1.4-10.26,2.16-2,.46-4,1.26-6,1.6-1.77.3-1.9,1.3-1.82,2.71.09,1.81,1.44,1.15,2.3,1.16,5.39.1,5.39.07,5.39,5.52v23c0,7.11.85,9.13,6,14.05h-5.17c-11,0-21.92,0-32.88,0-1.9,0-2.91-.34-2.54-2.44.3-1.67-.4-2.16-2.08-2.14-5.19,0-5.19,0-5.19-5.15,0-7.12,0-14.24,0-21.35,0-1.71.28-2.38,2.19-2.31,4.39.16,8.8.15,13.19,0,1.88-.07,2.45.58,2.21,2.31a13.44,13.44,0,0,0,0,1.68c0,3.59,1.32,4.57,4.82,3.66.88-.23.89-.77.89-1.42,0-6.16,0-12.32,0-18.48,0-1.19-.49-1.44-1.59-1.42-4.14.07-4.14,0-4.14,4.25,0,3.23,0,3.23-3.12,3.23-4.24,0-8.48,0-12.72,0-1.37,0-1.74-.41-1.73-1.75q.09-11.16,0-22.32c0-1.34.36-1.78,1.74-1.77q9.6.11,19.19,0c1.42,0,2.1.34,1.94,1.87-.11,1,.12,2.1,0,3.11-.42,2.54.7,3.06,3,3,1.91-.06,2.63-.39,2.54-2.47-.17-4.31-.11-8.64,0-13,0-1.43-.28-2.08-1.83-1.87a13.59,13.59,0,0,1-2.63,0c-.91,0-1.4.3-1.24,1.24.33,2-.88,1.93-2.29,1.93Q84,.72,64.05.74C61.56.74,60.7,2,61.45,4.46c.13.43.3.71.77.72l1.2,0c2,0,4.62-.65,5.79.35,1.37,1.18.45,3.9.45,5.94,0,17.92,0,35.84.08,53.76,0,2.21-.64,2.82-2.67,2.53-.78-.11-1.61.09-2.39,0-2.5-.4-3.8.34-3.26,3.11.07.36,0,1.07-.16,1.12-2,.59-4.11.18-6.17.28-1.26.06-1.29-1-1.57-1.79A132.67,132.67,0,0,1,45.5,29c-1-31.66,7.74-60.35,27-85.49,21.47-28,49.78-44.59,84.91-49.26,1.6-.21,3.33.1,4.82-.83h20.64c.22.62.77.43,1.21.48a117,117,0,0,1,46.25,13.85c38.56,21.36,60.87,54.15,67.84,97.56.48,3,.31,6.14,1.34,9.07Z" transform="translate(251.52 106.56)"/><path class="cls-2" d="M-251.52-.48c7.83.41,15.66.08,23.5.17,2.77,0,3.69,1.3,2.89,4-.37,1.2-1.29.71-2,.73-4,.12-4,.1-2.54,3.77L-212,53.5c1.06-.75,1.11-2,1.5-2.93,3.5-8.83,6.93-17.69,10.44-26.52a4.23,4.23,0,0,0,0-3.43c-1.75-4.29-3.59-8.55-5-12.95-.86-2.71-2.25-3.77-5-3.28-2,.36-2.6-.44-2.56-2.46,0-1.83.61-2.29,2.37-2.27,7.19.09,14.4.11,21.59,0,2,0,2.18.8,2.2,2.43s-.28,2.41-2.21,2.37c-4.56-.1-4.57,0-2.89,4.25q8.66,21.81,17.32,43.63c.23.58.52,1.14,1,2.25l19.6-50.19c-2.29,0-4.27-.09-6.23,0s-1.62-1.12-1.52-2.18S-162-.33-159.85-.31q9.24.06,18.48,0c2.07,0,1.42,1.48,1.5,2.55s.24,2.37-1.58,2.16c-.56-.06-1.13.07-1.68,0-1.61-.25-2.34.42-2.94,2-8.35,21.51-16.81,43-25.12,64.49-.81,2.11-1.78,2.76-3.95,2.67-4.19-.18-4.19-.06-5.69-3.9Q-187.92,51.44-195,33.27c-1,.33-1,1.17-1.19,1.8-4.69,12-9.39,23.93-14,35.94-.72,1.88-1.58,2.56-3.59,2.48-4.46-.16-4.45,0-6.12-4.3q-12.11-31-24.16-62c-.82-2.12-1.82-3.11-4.12-2.78a19.76,19.76,0,0,1-3.35,0Z" transform="translate(251.52 106.56)"/><path class="cls-2" d="M299.52,110.4c-1.85,5.31-5.57,8.11-11.23,8.15A11.31,11.31,0,0,1,277,109.33a11,11,0,0,1,7.53-12.41,11.48,11.48,0,0,1,14,5.43c.32.61-.71-.39,0,0A16.46,16.46,0,0,1,299.52,110.4Zm-2.82-2.82a8.44,8.44,0,1,0-16.86-.32,8.64,8.64,0,0,0,8.43,8.9A8.5,8.5,0,0,0,296.7,107.58Z" transform="translate(251.52 106.56)"/><path class="cls-2" d="M13.84,23c0-7.35,0-14.46,0-21.57,0-1.24-.53-1.49-1.59-1.44A27.33,27.33,0,0,1,8.43,0c-.78-.08-2.12.7-2.17-1,0-1.27-.46-2.63,1.63-3,5.46-1.06,10.6-3.45,16.27-3.76,2.34-.13,2.7.75,2.7,2.83-.07,22.55,0,45.11-.1,67.66,0,2.32.4,3.47,3,3a17.93,17.93,0,0,1,3.11,0c.73,0,1.6-.08,1.51,1s.68,2.49-.92,2.85c-5.67,1.26-11.09,3.56-17,3.94-2.08.14-3-.41-2.62-2.59a18,18,0,0,0,0-2.84c-.79-.44-1.09.22-1.41.58-7.56,8.53-20.64,5.64-26.31-1.37-7.5-9.28-8.43-19.77-3.75-30.41,4.53-10.3,13.14-15,24.32-15.18A26,26,0,0,1,13.84,23Zm0,23.89c0-.56,0-1.12,0-1.68-.17-4.55.45-9.12-.37-13.64-.61-3.35-2.48-4.81-5.86-4.68a11.69,11.69,0,0,0-8.67,4.48C-7.25,38.66-8.15,52-3.07,60.5.78,67,6.35,67.85,12.1,63a4.48,4.48,0,0,0,1.78-3.89C13.77,55,13.84,51,13.84,46.89Z" transform="translate(251.52 106.56)"/><path class="cls-2" d="M-98.87,52.14c-.22,6.4-4.39,14.92-14.46,19.34-9.89,4.34-19.57,3.22-27.67-4.15s-9.76-17-7.14-27.28c2.41-9.44,8.64-15.56,18.23-17.68C-113.36,18.72-98.54,30.08-98.87,52.14Zm-13.91-4.49c-.08-5.4-.75-10.68-3.59-15.42-1.91-3.18-4.52-5.39-8.58-4.93-3,.35-5,2.27-6.56,4.71-2.62,4.1-3.47,8.74-3.67,13.46-.29,6.86.29,13.63,4.72,19.33,3.6,4.62,9.46,4.5,13.07-.13a17.73,17.73,0,0,0,2.71-5A34.46,34.46,0,0,0-112.78,47.65Z" transform="translate(251.52 106.56)"/><path class="cls-2" d="M-31.38,30q0,17.26,0,34.53c0,3.58-.37,3.07,3,3.13h.72a2.77,2.77,0,0,1,2.55,4.19c-.34.66-.92.53-1.45.54-7.51,0-15,0-22.54,0-2.07,0-1.57-1.32-1.59-2.42s-.43-2.35,1.61-2.39c4.85-.1,4.84-.2,4.84-5.06,0-20,0-40,.05-59.95,0-2.05-.38-3-2.59-2.64A18,18,0,0,1-49.9,0c-.68,0-1.62.18-1.5-.95s-.74-2.49.88-2.85c5.66-1.29,11-3.73,17-4,1.9-.08,2.23.62,2.22,2.33C-31.41,6.36-31.38,18.19-31.38,30Z" transform="translate(251.52 106.56)"/><path class="cls-2" d="M-72.55,29.87c2.12-2.07,3.81-3.88,5.64-5.51,4.3-3.81,8.43-3.56,12.42.54.71.74.77,1.23.19,2q-2.72,3.66-5.34,7.38c-.6.84-1.09.83-2,.31-4.9-2.92-6.31-2.64-9.86,1.66a4.48,4.48,0,0,0-1.1,3c0,8.8.06,17.59,0,26.38,0,1.54.37,2.2,2,2,1-.12,2.1.12,3.11,0,2.32-.4,2.64.75,2.55,2.7-.07,1.47-.35,2.12-2,2.1-7.68-.08-15.35-.11-23,0-2.15,0-2-1.12-2-2.55s.1-2.32,2-2.29c4.49.08,4.49,0,4.49-4.44,0-10.39,0-20.79,0-31.18,0-1.77-.4-2.51-2.24-2.26a12.45,12.45,0,0,1-3.11,0c-.85-.1-2.26.75-2.29-1.12,0-1.37-.21-2.57,1.77-2.95,5.54-1,10.74-3.61,16.52-3.69,1.72,0,2.5.32,2.32,2.22C-72.68,25.92-72.55,27.68-72.55,29.87Z" transform="translate(251.52 106.56)"/><path class="cls-2" d="M90.65,112.3c0-.88,0-1.76,0-2.63s.36-1.14,1.16-1.13,1.11.21,1.26,1a5,5,0,0,0,7.28,3.54c2.22-1.09,2.62-3.65.83-5.61s-4.21-3.15-6.39-4.63c-1.75-1.19-3.34-2.48-4-4.57-2-6.07,3.07-11.12,10-9.87a2.75,2.75,0,0,0,2.59-.32c.94-.69,2.2-.44,2.1,1.35-.07,1.36,0,2.72,0,4.08,0,.91-.13,1.53-1.28,1.5-1,0-1.31-.39-1.25-1.29.18-2.6-1.94-2.65-3.55-3a3.44,3.44,0,0,0-3.95,2c-.88,1.83.09,3.11,1.44,4.11,1.86,1.37,3.83,2.6,5.75,3.9,4.14,2.8,5.53,6.91,3.69,10.93-1.69,3.68-6.08,5.33-10.7,4-1.06-.3-2-1-3.17.12-.65.6-1.88.24-1.77-1.25C90.69,113.91,90.65,113.1,90.65,112.3Z" transform="translate(251.52 106.56)"/><path class="cls-1" d="M206,40.24h-7.92c-.75,0-1.33,0-1.38-1.09-.18-4.53,4.23-11,8.54-12.34,3.65-1.14,6.7,0,8.6,3.28,1.62,2.81,1.8,5.91,1.74,9.06,0,1.27-.89,1.08-1.67,1.08Z" transform="translate(251.52 106.56)"/><path class="cls-2" d="M214.09,105.68H211c-3.37,0-3.45.1-2.63,3.31,1.08,4.24,4.57,5.85,8.47,3.92.57-.29,1.13-.6,1.68-.92a.75.75,0,0,1,1.18.34c.23.46.7,1,0,1.46-4.61,3.19-12,3.82-15.38-1.54a11.39,11.39,0,0,1,.38-12c2-2.87,6-4.16,9.88-3.24a7.28,7.28,0,0,1,5.6,7.42c0,1.11-.57,1.32-1.51,1.29C217.13,105.65,215.61,105.67,214.09,105.68Zm-2.53-2.08c1-.35,2.61.76,3.25-.62.52-1.12-.1-2.5-1-3.52a2.36,2.36,0,0,0-3.22-.48,4.21,4.21,0,0,0-2.41,4.08c.14,1.15,1.75.32,2.67.54A4.77,4.77,0,0,0,211.56,103.6Z" transform="translate(251.52 106.56)"/><path class="cls-2" d="M121.59,105.68H119c-3.58,0-3.78.28-2.69,3.75,1.25,3.93,4.6,5.34,8.32,3.5.57-.28,1.13-.59,1.68-.91s1,0,1.34.51.4,1-.28,1.38c-3.18,2-6.59,3-10.27,2a8.13,8.13,0,0,1-6.18-6.9c-.74-4-.15-7.75,3.25-10.38a9.22,9.22,0,0,1,9.94-1,6.13,6.13,0,0,1,3.12,3.18c1.59,3.44.71,4.89-3,4.89Zm-2.69-2.08c3.85,0,3.85,0,3.87-1.16,0-2.08-1.45-4-3.07-3.87s-3.88,2.36-3.64,4.13C116.33,104.79,118.15,103,118.9,103.6Z" transform="translate(251.52 106.56)"/><path class="cls-2" d="M224.34,113.14c0-.56,0-1.12,0-1.68s.13-1.29,1-1.34,1.27.08,1.55,1a4.55,4.55,0,0,0,5.59,3.07c1-.23,1.84-.7,2-1.8a2.22,2.22,0,0,0-1.33-2.35c-1.85-.93-3.78-1.7-5.64-2.62a5.29,5.29,0,0,1-3.34-5.08c0-3.63,3.17-6.05,7.35-5.7,1.6.13,3.23,1.55,4.83-.08.14-.15.8,0,1.06.24.48.41-.45,5.44-1.07,5.66s-1.45.47-1.7-.84c-.45-2.38-2.44-3.45-4.81-2.88a2.13,2.13,0,0,0-1.8,1.68,1.88,1.88,0,0,0,1.07,2.19c1.27.66,2.58,1.25,3.91,1.81,4.5,1.9,6,4.3,4.95,8-.87,3-4.43,4.52-8.63,3.63-1.16-.24-2.14-1.13-3.55-.06C224.82,116.71,224.34,116,224.34,113.14Z" transform="translate(251.52 106.56)"/><path class="cls-2" d="M159.32,108.7c1.26-3.23,2.3-5.85,3.33-8.49.38-1-.14-1.28-1-1.27a.76.76,0,0,1-.86-.88.8.8,0,0,1,.88-.89h4.54c.44,0,.8.17.83.66s.13,1.08-.55,1.09c-1.45,0-1.5,1.19-1.86,2.11-1.74,4.53-3.47,9.08-5.21,13.61-.27.71-.32,1.6-1.45,1.6s-1.19-.87-1.48-1.58c-1.77-4.35-3.52-8.71-5.29-13.06A8.82,8.82,0,0,0,150,99.25c-.43-.51-1.34-.68-.87-1.62.38-.72,1.12-.47,1.73-.48,1.67,0,3.35,0,5,0,.48,0,1,0,1.09.66.07.47.1,1-.55,1.1s-1,.38-.68,1.1C156.87,102.7,158,105.39,159.32,108.7Z" transform="translate(251.52 106.56)"/><path class="cls-2" d="M192.92,116.23c-5.87,0-9.7-4.12-9.54-9.79a9.8,9.8,0,0,1,10.7-9.75,14.55,14.55,0,0,1,3.26.68c.79.25,2.09.53,2,1.33s-1.1,1.49-1.81,2.1c-1,.84-1.36-.39-1.9-.77-2.34-1.61-3.14-1.57-5.1.52-3.1,3.31-2.26,10.13,1.56,12.54,1.69,1.08,3.34.73,5-.15.76-.41,1.49-1,2.15.23.76,1.45-.58,1.39-1.2,1.69A11,11,0,0,1,192.92,116.23Z" transform="translate(251.52 106.56)"/><path class="cls-2" d="M138.77,99.45c1.56-.92,2.22-2.11,3.49-2.56a2.65,2.65,0,0,1,3.21.9c1,1.25-.58,1.74-1,2.57s-1,1.68-2.36.82-3.25.67-3.31,2.53c-.1,3,0,5.91-.05,8.86,0,1.17.64,1.29,1.53,1.26.65,0,1.3,0,1.34.93s-.66.92-1.29.92h-7.42c-.62,0-1.34.1-1.33-.9,0-.74.43-1,1.07-.94,1.34.12,1.32-.75,1.31-1.68,0-3.52-.05-7,0-10.54,0-1.28-.25-2-1.69-1.8-.43.06-1,.14-1.15-.52s.32-1,.88-1.19c1.3-.38,2.6-.75,3.92-1.06C137.65,96.67,139.27,96.49,138.77,99.45Z" transform="translate(251.52 106.56)"/><path class="cls-2" d="M177.68,105.38c0,1.92,0,3.84,0,5.76,0,1.23-.6,2.9,1.74,2.76.61,0,.62.6.61,1.09s-.35.67-.79.67l-7.91,0c-.54,0-.91-.15-.93-.8s.24-1.12,1-1c1.48.17,1.45-.76,1.44-1.79,0-3.51,0-7,0-10.54,0-1.15-.16-1.87-1.53-1.69-.45.06-1,.08-1.13-.58s.42-1,1-1.16c.15-.06.31-.08.46-.13,6.1-2,6.1-2,6.1,4.31Z" transform="translate(251.52 106.56)"/><path class="cls-1" d="M147.91,72.26a82.6,82.6,0,0,0,9.3-8.32c0,2.77,0,5,0,7.27,0,1.07-.72,1.05-1.47,1.05Z" transform="translate(251.52 106.56)"/><path class="cls-2" d="M178,90.14a3,3,0,0,1-5.89-.24,2.91,2.91,0,0,1,2.82-3A3,3,0,0,1,178,90.14Z" transform="translate(251.52 106.56)"/><path class="cls-3" d="M111.6-80.29" transform="translate(251.52 106.56)"/><path class="cls-3" d="M110.63-80.44" transform="translate(251.52 106.56)"/><path class="cls-2" d="M287.84,101.7a8.52,8.52,0,0,1,3.48.47c2.06,1,2.55,3,1,4.64-.65.68-.84,1-.2,1.83a7.83,7.83,0,0,1,1,2.87c.14.58.74,1.5-.51,1.66-.84.11-1.81.27-2.16-.9-.1-.3-.18-.61-.25-.92-.33-1.4-.79-2.72-2.61-2.42s-.83,1.76-.94,2.69-.17,1.64-1.44,1.62-1.39-.74-1.38-1.7c0-2,0-4,0-6C283.86,101.81,283.86,101.81,287.84,101.7Zm-1.19,3.69c0,.83-.08,1.74,1.16,1.52,1.05-.18,2.49-.12,2.42-1.68-.05-1.27-1.17-1.5-2.29-1.55C286.62,103.61,286.59,104.46,286.65,105.39Z" transform="translate(251.52 106.56)"/></svg>