<svg id="Layer_1" data-name="Layer 1" xmlns="http://www.w3.org/2000/svg" viewBox="0 0 652.11 367.11"><defs><style>.cls-1{fill:#cbcbcb;}.cls-2,.cls-3{fill:#7b0898;}.cls-3{font-size:40px;font-family:MyriadPro-Regular, Myriad Pro;}</style></defs><title>yahoo</title><path class="cls-1" d="M-300-159l-1,1C-301.19-158.86-300.86-159.19-300-159Z" transform="translate(301.05 159.05)"/><path class="cls-1" d="M351-158l-1-1C350.86-159.19,351.19-158.86,351-158Z" transform="translate(301.05 159.05)"/><path class="cls-1" d="M-301,207l1,1C-300.86,208.19-301.19,207.86-301,207Z" transform="translate(301.05 159.05)"/><path class="cls-1" d="M350,208l1-1C351.19,207.86,350.86,208.19,350,208Z" transform="translate(301.05 159.05)"/><path class="cls-2" d="M-219.69-17.3c.15,2.09,1.45,3.26,2.4,4.53q15,20,30.06,39.89c.93,1.23,1.48,3,3.71,1.07,8.37-7.37,16.93-14.54,25.39-21.81a17.46,17.46,0,0,0,2.37-2.56c1-1.28,2.88-2.45,2.26-4.14-.51-1.42-2.62-1-4-1.26a118,118,0,0,0-13.36-1.77c-4.63-.26-4-3.76-4.26-6.45-.3-3.64,2.85-2,4.34-2,18.82,0,37.64.12,56.46.31,2.45,0,5-.3,7.49.76-2,4.63-4.72,7.64-10.21,8.07-10.43.82-19.26,5.44-27.33,12.08-9.91,8.15-20.12,15.91-29.17,25A15.31,15.31,0,0,0-178.36,45c-.33,7.16-.59,14.26.31,21.42.53,4.16,1.68,6.19,6.35,5.85,5.46-.41,11,.07,16.48,0,3.1-.06,3.57,1.46,3.26,4-.27,2.24.48,4.58-3.42,4.46-23.81-.74-47.63.13-71.44.21-1.22,0-4,1.31-3.34-1.84.45-2.23-.88-5.77,3.53-5.88,5.31-.13,10.63.19,15.92-.91,4.16-.85,6.13-3,5.71-7.26a4.17,4.17,0,0,1,0-.5c-.57-30,3.39-19.73-15.54-44.56C-228.62,9.4-237.32-.7-246.34-10.52c-3.19-3.46-6.59-5.8-11.48-6.06-4.64-.25-9.24-1.25-13.88-1.62-3.42-.27-3.17-2.45-3.35-4.86-.23-3.09,1.6-3.07,3.75-3.06q36.47.07,72.94.12c1.51,0,3.61-.53,3.32,2.29-.23,2.2-.27,4.35-3.39,4.52-6,.32-12,.8-17.94,1.27A27.65,27.65,0,0,0-219.69-17.3Z" transform="translate(301.05 159.05)"/><path class="cls-2" d="M-29.95-7.78c7.83,0,15.66-.07,23.49.06,1.44,0,4.09-1.39,3.9,2C-2.71-3.18-2.74-.8-6.6-1c-3.62-.17-7.29.71-10.94.75-2.93,0-4.28,1.17-4.38,4.06-.16,4.49-.39,9-.65,13.46-.12,1.93.67,2.68,2.6,2.64q23.71-.46,47.45-.84c2.05,0,2.4-1.12,2.44-2.87.16-6.83.33-13.65.69-20.47C30.78-7.47,29.4-8.73,26.34-9c-3.64-.3-7.25-1-10.9-1.32-2.64-.22-2.69-1.68-2.55-3.75s.51-3,2.84-3c13.49.17,27,.22,40.48.28,1.26,0,2.49,0,2.21,1.75-.24,1.52.25,3.5-2.17,3.9C54.12-10.77,52-10,49.89-9.86c-5.16.35-6.36,3.15-6.16,7.93.7,16.47,1.12,33,1.46,49.44.05,2.31,1,2.87,2.83,3,2.32.21,4.65.37,7,.64,2.7.31,2.8,2.27,2.87,4.41.08,2.43-1.29,2.6-3.18,2.58-12.66-.08-25.32-.25-38,0-3.63.06-2.87-2.24-3.28-4.18-.54-2.55.77-3.15,3-3.23,2.82-.1,5.66-.8,8.46-.62,4.6.3,5.76-1.92,5.43-6-.22-2.65-.09-5.33-.13-8-.12-8.33-.12-8.39-8.21-8-13.14.62-26.28,1.42-39.43,1.93-3.84.14-5,1.53-4.91,5.4.4,13.78.26,13.88,14.71,15.21,3.1.28,4.82.73,4.6,4.51C-3.25,58.34-4.33,59-7.26,59c-15.65-.12-31.31,0-47,0-1.64,0-4.13.77-3.65-2.37.35-2.28-1.22-5.77,3.3-5.83,1.82,0,3.64-.39,5.46-.56,9.21-.84,9.21-.84,9.55-10.29.43-12,.3-24,0-36-.08-2.85-.7-4.26-3.85-4.26-3.82,0-7.64-.65-11.46-.7-3,0-3-1.84-3.17-3.94-.27-2.71,1.49-2.44,3.17-2.44h25Z" transform="translate(301.05 159.05)"/><path class="cls-2" d="M224.51-19.93c12.82.13,24,1.36,34.25,7,16.71,9.2,23.72,27.71,16.33,43.13-3.19,6.64-8.3,11.57-14.29,15.69C241.63,59,203.6,62.6,179.69,44.38,160.29,29.6,160,6.82,179.93-7.3,193.68-17,209.51-19.59,224.51-19.93Zm.67,10.8c-11-.14-20.57,2.08-29,8.14a25,25,0,0,0,.92,41.45c13.18,8.74,39.43,8.56,52.49-.4,9.23-6.34,12.19-15.53,11.16-26.14-1-9.79-7-15.9-15.77-19.52A49.56,49.56,0,0,0,225.18-9.13Z" transform="translate(301.05 159.05)"/><path class="cls-2" d="M109.67,61.37c-11.78,0-23.18-1.86-33.9-7C58.34,46,54.08,25.52,66.71,10.75A40.14,40.14,0,0,1,81.51,0a75.32,75.32,0,0,1,51.26-3.52C145.19-.1,155.54,6.72,158.12,21c2.52,13.92-2.88,25.81-15.25,32.82C132.58,59.69,121.28,61.29,109.67,61.37Zm.94-9.25a46.33,46.33,0,0,0,10.5-1c19.5-4.19,21.77-11.37,21.76-26.16,0-10.15-5.18-17.17-15-19.92a51.71,51.71,0,0,0-37,3C83,11.77,77.67,17.63,77.61,26.94c-.06,9.57,4.37,16.54,12.76,21C96.56,51.24,103.26,52.27,110.61,52.12Z" transform="translate(301.05 159.05)"/><path class="cls-2" d="M-72.12,77.09c-6.16,0-12.33,0-18.49,0-1.27,0-3.55.77-3.19-1.74.28-2-.92-5,2.75-5.41a2.74,2.74,0,0,0,.5-.07c3.4-1.09,8.82.27,9.9-2.69.92-2.51-2.26-6.58-3.77-9.9-5.37-11.84-5.38-11.23-18.7-11-8,.16-11.66,4-14.16,10.61-1,2.47-1.1,4.16,2.23,4.37,1.31.09,2.6.61,3.91.76,2,.23,3.74.54,3.06,3.25-.52,2.11,0,4.71-3.68,4.65-9.66-.16-19.32.07-29,0-1.44,0-4,1.29-4.19-.88-.16-2.38.08-5.42,3.08-6.73a3,3,0,0,1,1-.22c8.12-.48,12.38-5.4,15.65-12.4,4.86-10.39,10.35-20.49,15.82-30.59,1.58-2.92,1-4.09-2-4.74a25,25,0,0,1-4.25-1.42C-117.52,12.17-117,10.4-117,9c0-1.8,1.49-1.38,2.59-1.38q17.74.12,35.48.28c1,0,2.69-.68,2.66,1.17a9.44,9.44,0,0,1-1.32,3.65c-.15.3-.9.28-1.37.44-2.45.87-6.48.18-7.1,2.48s1.39,5.3,2.47,7.9c4.77,11.53,9.94,22.9,14.34,34.57,2.74,7.28,7,11.71,15,12.08,1.44.07,3.74-.2,3.94,2.14.22,2.61.67,5.3-3.82,5-6-.45-12-.11-18-.11ZM-99.43,17.92l-9.76,22.16c5.48,0,10.29-.07,15.1,0,2.07,0,2.69-.56,1.93-2.58C-94.5,31.33-96.77,25.1-99.43,17.92Z" transform="translate(301.05 159.05)"/><path class="cls-2" d="M289,2.74c0-10.66.16-21.31-.1-32-.08-3.29.74-3.88,3.86-3.46,8.07,1.1,16.19,1.92,24.31,2.66,2.53.23,3,.9,2.16,3.37-6.87,20.2-11,41.13-15.8,61.85-.87,3.7-2,4.88-5.92,4.26-7.73-1.23-7.71-1-7.65-8.75.06-9.32,0-18.65,0-28Z" transform="translate(301.05 159.05)"/><path class="cls-2" d="M286.42,57.67c0-7.13,0-7.13,7.33-6.46,9.33.86,9.13.83,7.85,10.33-.53,3.91-1.77,5.69-5.82,4.55a7.27,7.27,0,0,0-1.48-.1C284.55,65.28,286.67,66.17,286.42,57.67Z" transform="translate(301.05 159.05)"/><text class="cls-3" transform="translate(615.05 250.12)">®</text></svg>